<svg viewBox="0 0 903 400" xmlns="http://www.w3.org/2000/svg"><g><g><g><g><g><line x1="48.875" y1="377" x2="43.875" y2="377" style="visibility: inherit;" fill="rgb(0, 0, 0)" stroke="rgb(204, 204, 204)" stroke-width="1px"></line><line x1="48.875" y1="329.87500000000006" x2="43.875" y2="329.87500000000006" style="visibility: inherit;" fill="rgb(0, 0, 0)" stroke="rgb(204, 204, 204)" stroke-width="1px"></line><line x1="48.875" y1="282.75" x2="43.875" y2="282.75" style="visibility: inherit;" fill="rgb(0, 0, 0)" stroke="rgb(204, 204, 204)" stroke-width="1px"></line><line x1="48.875" y1="235.62500000000006" x2="43.875" y2="235.62500000000006" style="visibility: inherit;" fill="rgb(0, 0, 0)" stroke="rgb(204, 204, 204)" stroke-width="1px"></line><line x1="48.875" y1="188.5" x2="43.875" y2="188.5" style="visibility: inherit;" fill="rgb(0, 0, 0)" stroke="rgb(204, 204, 204)" stroke-width="1px"></line><line x1="48.875" y1="141.37499999999997" x2="43.875" y2="141.37499999999997" style="visibility: inherit;" fill="rgb(0, 0, 0)" stroke="rgb(204, 204, 204)" stroke-width="1px"></line><line x1="48.875" y1="94.25" x2="43.875" y2="94.25" style="visibility: inherit;" fill="rgb(0, 0, 0)" stroke="rgb(204, 204, 204)" stroke-width="1px"></line><line x1="48.875" y1="47.12499999999994" x2="43.875" y2="47.12499999999994" style="visibility: inherit;" fill="rgb(0, 0, 0)" stroke="rgb(204, 204, 204)" stroke-width="1px"></line><line x1="48.875" y1="0" x2="43.875" y2="0" style="visibility: inherit;" fill="rgb(0, 0, 0)" stroke="rgb(204, 204, 204)" stroke-width="1px"></line></g><g transform="translate(38.875, 0)"><text x="0" y="377" dx="0em" dy="0.3em" style="text-anchor: end; visibility: hidden; font-family: &quot;Helvetica Neue&quot;, sans-serif; font-size: 12px; font-weight: 200;" fill="rgb(50, 49, 63)" stroke="none" stroke-width="1px">0.55</text><text x="0" y="329.87500000000006" dx="0em" dy="0.3em" style="text-anchor: end; visibility: inherit; font-family: &quot;Helvetica Neue&quot;, sans-serif; font-size: 12px; font-weight: 200;" fill="rgb(50, 49, 63)" stroke="none" stroke-width="1px">0.6</text><text x="0" y="282.75" dx="0em" dy="0.3em" style="text-anchor: end; visibility: inherit; font-family: &quot;Helvetica Neue&quot;, sans-serif; font-size: 12px; font-weight: 200;" fill="rgb(50, 49, 63)" stroke="none" stroke-width="1px">0.65</text><text x="0" y="235.62500000000006" dx="0em" dy="0.3em" style="text-anchor: end; visibility: inherit; font-family: &quot;Helvetica Neue&quot;, sans-serif; font-size: 12px; font-weight: 200;" fill="rgb(50, 49, 63)" stroke="none" stroke-width="1px">0.7</text><text x="0" y="188.5" dx="0em" dy="0.3em" style="text-anchor: end; visibility: inherit; font-family: &quot;Helvetica Neue&quot;, sans-serif; font-size: 12px; font-weight: 200;" fill="rgb(50, 49, 63)" stroke="none" stroke-width="1px">0.75</text><text x="0" y="141.37499999999997" dx="0em" dy="0.3em" style="text-anchor: end; visibility: inherit; font-family: &quot;Helvetica Neue&quot;, sans-serif; font-size: 12px; font-weight: 200;" fill="rgb(50, 49, 63)" stroke="none" stroke-width="1px">0.8</text><text x="0" y="94.25" dx="0em" dy="0.3em" style="text-anchor: end; visibility: inherit; font-family: &quot;Helvetica Neue&quot;, sans-serif; font-size: 12px; font-weight: 200;" fill="rgb(50, 49, 63)" stroke="none" stroke-width="1px">0.85</text><text x="0" y="47.12499999999994" dx="0em" dy="0.3em" style="text-anchor: end; visibility: inherit; font-family: &quot;Helvetica Neue&quot;, sans-serif; font-size: 12px; font-weight: 200;" fill="rgb(50, 49, 63)" stroke="none" stroke-width="1px">0.9</text><text x="0" y="0" dx="0em" dy="0.3em" style="text-anchor: end; visibility: hidden; font-family: &quot;Helvetica Neue&quot;, sans-serif; font-size: 12px; font-weight: 200;" fill="rgb(50, 49, 63)" stroke="none" stroke-width="1px">0.95</text></g><line x1="48.875" y1="0" x2="48.875" y2="377" fill="rgb(0, 0, 0)" stroke="rgb(204, 204, 204)" stroke-width="1px"></line></g></g><g transform="translate(48, 0)" clip-path="url(#clip_0)"><clipPath id="clip_0"><rect width="854" height="377"></rect></clipPath><g><g><g><line x1="0" y1="0" x2="0" y2="377" fill="rgb(0, 0, 0)" stroke="rgb(60, 60, 60)" stroke-width="1px" opacity="0.25"></line><line x1="94.90277777777777" y1="0" x2="94.90277777777777" y2="377" fill="rgb(0, 0, 0)" stroke="rgb(60, 60, 60)" stroke-width="1px" opacity="0.25"></line><line x1="189.80555555555554" y1="0" x2="189.80555555555554" y2="377" fill="rgb(0, 0, 0)" stroke="rgb(60, 60, 60)" stroke-width="1px" opacity="0.25"></line><line x1="284.7083333333333" y1="0" x2="284.7083333333333" y2="377" fill="rgb(0, 0, 0)" stroke="rgb(60, 60, 60)" stroke-width="1px" opacity="0.25"></line><line x1="379.6111111111111" y1="0" x2="379.6111111111111" y2="377" fill="rgb(0, 0, 0)" stroke="rgb(60, 60, 60)" stroke-width="1px" opacity="0.25"></line><line x1="474.5138888888889" y1="0" x2="474.5138888888889" y2="377" fill="rgb(0, 0, 0)" stroke="rgb(60, 60, 60)" stroke-width="1px" opacity="0.25"></line><line x1="569.4166666666666" y1="0" x2="569.4166666666666" y2="377" fill="rgb(0, 0, 0)" stroke="rgb(60, 60, 60)" stroke-width="1px" opacity="0.25"></line><line x1="664.3194444444445" y1="0" x2="664.3194444444445" y2="377" fill="rgb(0, 0, 0)" stroke="rgb(60, 60, 60)" stroke-width="1px" opacity="0.25"></line><line x1="759.2222222222222" y1="0" x2="759.2222222222222" y2="377" fill="rgb(0, 0, 0)" stroke="rgb(60, 60, 60)" stroke-width="1px" opacity="0.25"></line><line x1="854.125" y1="0" x2="854.125" y2="377" fill="rgb(0, 0, 0)" stroke="rgb(60, 60, 60)" stroke-width="1px" opacity="0.25"></line></g><g><line x1="0" y1="377" x2="854.125" y2="377" fill="rgb(0, 0, 0)" stroke="rgb(60, 60, 60)" stroke-width="1px" opacity="0.25"></line><line x1="0" y1="329.87500000000006" x2="854.125" y2="329.87500000000006" fill="rgb(0, 0, 0)" stroke="rgb(60, 60, 60)" stroke-width="1px" opacity="0.25"></line><line x1="0" y1="282.75" x2="854.125" y2="282.75" fill="rgb(0, 0, 0)" stroke="rgb(60, 60, 60)" stroke-width="1px" opacity="0.25"></line><line x1="0" y1="235.62500000000006" x2="854.125" y2="235.62500000000006" fill="rgb(0, 0, 0)" stroke="rgb(60, 60, 60)" stroke-width="1px" opacity="0.25"></line><line x1="0" y1="188.5" x2="854.125" y2="188.5" fill="rgb(0, 0, 0)" stroke="rgb(60, 60, 60)" stroke-width="1px" opacity="0.25"></line><line x1="0" y1="141.37499999999997" x2="854.125" y2="141.37499999999997" fill="rgb(0, 0, 0)" stroke="rgb(60, 60, 60)" stroke-width="1px" opacity="0.25"></line><line x1="0" y1="94.25" x2="854.125" y2="94.25" fill="rgb(0, 0, 0)" stroke="rgb(60, 60, 60)" stroke-width="1px" opacity="0.25"></line><line x1="0" y1="47.12499999999994" x2="854.125" y2="47.12499999999994" fill="rgb(0, 0, 0)" stroke="rgb(60, 60, 60)" stroke-width="1px" opacity="0.25"></line><line x1="0" y1="0" x2="854.125" y2="0" fill="rgb(0, 0, 0)" stroke="rgb(60, 60, 60)" stroke-width="1px" opacity="0.25"></line></g></g></g><g><g><line x1="0" y1="895.3750000000001" x2="854.125" y2="895.3750000000001" fill="rgb(0, 0, 0)" stroke="rgb(153, 153, 153)" stroke-width="1.5px"></line></g></g><g><g><line x1="94.90277777777777" y1="0" x2="94.90277777777777" y2="377" fill="rgb(0, 0, 0)" stroke="rgb(153, 153, 153)" stroke-width="1.5px"></line></g></g><g><g><g><g><g><path stroke="rgb(255, 112, 67)" stroke-width="2px" d="M121.32371111111111,-0.8127515792477311L122.15885555555555,2.8355150901106185L122.72827222222223,20.028126891422176L123.8101638888889,44.23285400878723L124.3606,84.33637380856851L124.66428888888889,93.90245267342709L124.96797777777778,112.32106448805666L126.03088888888888,121.66776499520216L126.99889722222223,99.34459534490225L127.34054722222221,94.07549286603825L127.51137222222222,49.522404662955694L127.8150611111111,73.56883402601431L127.87200277777777,71.95798289737269L128.70714722222223,64.02376959300238L129.90292222222223,42.869424424021474L130.32049444444445,30.366696859266995L130.3774361111111,68.58452480129904L130.52928055555554,53.776315361811555L131.28850277777778,56.96325650844233L131.61117222222222,79.99144133945322L131.85791944444443,94.74671668422269L133.54718888888888,103.64311600096266L134.68602222222222,75.85769509295949L136.41325277777779,53.21723663222991L136.64101944444445,90.2026684726012L137.24839722222222,78.09997546939451L137.36228055555557,86.62512411039108L137.74189166666667,113.41223218060162L137.83679444444445,127.98307795534512L138.69091944444446,124.39579703336935L138.91868611111113,108.6294252391217L139.58300555555556,128.05133581850274L140.24732500000002,111.15599271472314L140.26630555555556,116.76645184049619L141.13941111111112,115.80992304378515L141.46208055555556,110.02634046729668L141.50004166666665,92.36113382730645L141.59494444444445,140.27697317215066L142.06945833333333,146.4646756435172L142.0884388888889,150.32809967903717L142.31620555555557,90.95746105377924L142.41110833333335,73.9288236466947L142.96154444444443,92.59755445527452L143.24625277777778,106.12986199264179L143.3601361111111,99.10391537072923L145.86556944444445,66.35841895176566L146.90949999999998,66.63078780790323L147.83954722222222,104.38132405173872L149.87046666666666,87.04975666935496L151.21808611111112,103.09935037097489L152.05323055555556,131.1578256952832L152.56570555555555,144.53606965947566L152.62264722222224,135.10075006966838L153.72351944444443,152.81885265162623L154.9003138888889,143.25176723510646L155.56463333333335,133.32746983594078L156.2099722222222,111.69931313411223L156.4757,149.10514524588487L156.5136611111111,139.58616593485772L156.53264166666665,121.31695474985659L157.6335138888889,116.66291165234702L160.9551111111111,113.39580942322056L163.23277777777778,127.43113507705473L163.57442777777777,122.74212595151388L163.6123888888889,131.27650582984992L164.56141666666667,157.5395123255009L165.62432777777778,151.73295566390485L165.9090361111111,159.83996518224794L166.89602499999998,164.9892823205609L167.29461666666666,172.3091639701258L167.42748055555555,178.8488889350731L169.45839999999998,183.54866832579606L169.98985555555555,155.0570633058872L170.52131111111112,148.50421216756862L171.5083,165.00028133792142L172.68509444444445,156.4781247043756L174.5451888888889,174.32742374325676L175.1335861111111,181.651192612558L175.2284888888889,153.25384220308624L176.59508888888888,176.027171044508L176.84183611111112,170.37920604286157L176.8797972222222,156.59397187314963L178.41722222222222,175.87403754283514L180.16343333333333,163.14277692967366L180.48610277777777,180.17352949579782L180.88469444444445,194.90668722987314L182.7447888888889,172.1213697969922L183.42808888888888,163.1755731689935L183.5040111111111,173.1776414864066L183.65585555555555,174.4186361999991L185.06041666666667,177.97938250134487L185.78167777777776,178.8404015697843L186.04740555555554,165.56173660742084L186.76866666666666,170.0270182632615L186.99643333333333,177.44016499180853L187.79361666666665,184.7079102090553L189.08429444444445,200.5406519944403L189.25511944444446,196.72473052590692L189.31206111111112,173.82136078744887L190.75458333333333,181.47518984120936L190.79254444444445,143.57199755693588L191.81749444444443,168.2036109053201L192.34895,201.95779154796037L194.34190833333335,226.86331483184486L196.05015833333334,197.03121391808494L196.3538472222222,205.28557873890108L196.619575,211.37866581157036L197.77738888888888,195.42108546897873L199.6185027777778,216.71441087248985L200.22588055555556,188.61659999563145L202.40864444444446,184.31059122010382L202.6933527777778,197.30063589766215L203.52849722222223,210.06613592120763L205.14184444444444,218.25716605074857L205.4645138888889,209.88028397731577L205.52145555555555,209.14889278753162L206.20475555555555,243.84264854635933L206.33761944444444,247.32496763495294L207.02091944444444,240.80971508757884L207.41951111111112,261.0057819696463L208.59630555555557,237.79313219858383L208.97591666666668,255.85921059413653L211.08275833333335,244.37486657121133L211.2725638888889,238.7808115638396L212.5822222222222,238.9714181874455L212.82896944444445,249.5942100795663L212.94285277777777,253.86691870168187L213.18959999999998,247.79650787040794L214.2714916666667,216.46638687566042L214.70804444444443,216.42603057691528L214.8029472222222,226.6991750721281L215.92280000000002,219.23067729020988L216.37833333333336,203.44318475928824L218.20046666666667,234.4375014937337L218.656,238.0097664616356L219.68095,242.68838802706296L220.2313861111111,260.14583458740174L221.25633611111112,279.2732365980068L221.99657777777776,281.8021720322562L222.05351944444442,303.70349479154305L222.28128611111111,301.72506854793755L222.86968333333334,289.22564166701636L224.84366111111112,289.27853960941314L224.99550555555555,274.0188635775452L225.2802138888889,269.89214669400485L227.12132777777776,245.2188391967656L227.61482222222222,229.83798044228797L228.03239444444444,241.82532376828345L229.77860555555554,233.85291630496113L229.93045,268.8753010539385L230.7086527777778,239.9110221927268L231.8664666666667,240.49863192229887L232.45486388888887,254.87743059867273L233.66961944444444,231.5765443687061L234.201075,242.7019973185313L234.22005555555555,277.4367681733759L234.58068611111113,293.7029045815463L235.01723888888887,289.98215051860785L235.37786944444443,314.21256867868414L236.30791666666667,290.8194946159286L236.49772222222225,297.13089414294734L236.5546638888889,283.5894846430789L236.8393722222222,292.60199742981024L237.46573055555555,266.95213396232265L240.8063083333333,269.9687561564501L240.92019166666668,264.0289928062473L242.19188888888888,251.447182592375L242.72334444444442,256.22781743802L242.91315,261.30994656203615L243.57746944444443,252.5696148426439L244.8491666666667,260.6855647177163L245.45654444444446,241.47989248100902L246.57639722222223,233.14165657081597L247.24071666666666,221.41918158124915L247.67726944444445,224.5504987215461L247.99993888888886,275.66689547154084L250.1637222222222,291.63518119009L250.82804166666668,281.4647933372955L250.941925,295.2838677125633L252.25158333333334,291.02676924213534L253.0867277777778,296.6597562440918L253.63716388888886,286.02491061739244L253.73206666666664,269.2415932706125L253.90289166666668,267.0504126722292L255.61114166666667,277.2699760898755L255.66808333333333,247.08375852732695L256.19953888888887,246.25839135306384L256.3893444444444,239.6727568224508L257.49021666666664,257.79490594359874L258.1545361111111,264.8036412494936L258.78089444444447,223.90307715520606L258.799875,241.94716843953938L259.93870833333335,246.5489225804282L262.29229722222226,284.1723972928211L262.3492388888889,296.443551049929L263.41215,312.93673003095455L263.9056444444445,293.96380208956055L263.96258611111114,319.44759545938285L264.3611777777778,321.9472263587482L264.49404166666665,322.22620306807556L265.59491388888887,291.1764719629156L265.70879722222224,289.51984148883025L266.7717083333333,295.7142979840231L270.0173833333333,300.59316947101314L270.1502472222222,262.73445777916174L270.6627222222222,271.9621596147016L271.72563333333335,263.6856848483917L272.3330111111111,261.4391446045421L273.54776666666663,235.8766808707346L273.60470833333335,242.73522162430464L273.98431944444445,229.01254557366946L274.6106777777778,241.7243606257187L276.11014166666666,274.64801048086565L276.24300555555556,298.5333274534135L276.48975277777777,296.600043245005L276.907325,295.87045884600127L277.62858611111113,291.3090190319469L278.1980027777778,290.8014532582909L278.63455555555555,274.32322204452447L278.97620555555557,252.559441890369L280.3048444444444,253.58837032678724L281.7283861111111,273.10110073305964L282.94314166666663,269.89865621935013L284.1768777777778,278.0079299510162L285.80920555555554,260.88636515740393L286.3027,261.5828682315579L287.89706666666666,258.02242301298566L289.9469666666667,283.3506466531359L290.07983055555553,297.525579511142L292.2246333333333,306.2094304674961L292.281575,303.7389677234946L292.68016666666665,288.6441025059496L293.80001944444444,273.3127770019218L293.989825,269.5359974856761L294.0657472222222,263.4391269776575L294.6161833333333,250.73410988410424L295.2425416666667,247.6501868042953L296.2295305555555,252.2680737539295L296.5522,260.36864586854955L296.81792777777775,240.17405845037086L297.1216166666667,245.13309408015598L297.4442861111111,248.9302556680833L298.20350833333333,225.22429081006015L299.0766138888889,226.31266514183983L299.09559444444443,243.65210118128007L299.5131666666667,242.48088601966583L300.17748611111114,218.83960782134463L300.3672916666667,242.5994237222906L300.67098055555556,227.6975464438579L300.84180555555554,240.07166767210856L301.1075333333333,243.49467073733268L301.82879444444444,256.99899511846695L301.8857361111111,256.7085771638918L302.531075,265.2560889887076L302.6069972222222,245.1640769581355L303.04355,270.322494992039L303.1574333333333,255.4816998412736L303.19539444444445,265.1729459625797L303.95461666666665,296.7812444843242L304.0685,331.3026158498162L304.31524722222224,342.06539141454897L304.41015,322.1273518283284L305.62490555555553,308.3977944898079L305.9855361111111,313.67773036047646L306.1563611111111,328.17057933738727L307.0104861111111,349.50658071238337L307.44703888888887,332.8435963523301L307.485,301.6709341723867L307.5039805555556,303.9258131694286L308.6238333333333,285.40192596384816L311.6417416666667,294.56881795089794L312.6477111111111,294.5868275628172L313.0273222222222,275.07154533062476L313.61571944444444,260.5643605756408L313.7865444444445,267.3787357191828L314.1092138888889,265.7541889059894L314.4318833333333,268.7840090100975L315.02028055555553,253.84342529207538L315.98828888888886,250.03173155683317L316.4248416666667,267.3762819594029L316.6905694444444,264.627416361921L318.09513055555556,279.9338677344042L320.25891388888886,295.9847263823341L322.0810472222222,299.5909144121642L322.17595,298.32016706694577L322.85925,284.23057958024395L323.44764722222226,280.83816163860354L325.2887611111111,273.8585398621713L325.78225555555554,253.4277296917054L325.8581777777778,263.1449124369867L326.1618666666667,269.1438441010623L326.95905,249.7961375076955L328.1738055555556,246.769888839685L328.23074722222225,244.33933441732114L328.5344361111111,257.5386683278905L330.35656944444446,262.07724443278477L331.3625388888889,286.53579953433143L333.16569166666665,301.6408468313281L335.4053972222222,291.76704296036155L335.9368527777778,295.496303692839L337.05670555555554,298.93369656525937L337.9487916666667,280.18809900118646L339.31539166666664,282.8173167671784L339.67602222222223,264.4839219192281L340.49218611111115,272.66533603308295L340.8717972222222,295.63869442962226L341.9726694444444,276.1702859426893L342.29533888888886,269.955052520356L342.8078138888889,255.09447743029676L343.2064055555556,278.9930015416818L343.43417222222223,287.03811496566993L343.7188805555556,259.4558246378378L343.79480277777776,239.82862674261784L344.11747222222226,240.8095837656596L344.80077222222224,244.3215837731325L345.55999444444444,277.4339773687341L346.1863527777778,301.19513498739116L348.2742138888889,309.6765254795297L349.2801833333333,299.62580366490744L349.3561055555556,304.9920976612476L349.73571666666663,288.5745323809093L350.6657638888889,290.08413758946097L351.2162,267.0540683333434L352.01338333333337,280.7770311393951L352.9813916666667,284.2550117944845L353.41794444444446,288.0777935132485L354.53779722222225,255.0091740098656L354.5947388888889,263.00838714880115L355.828475,284.7160024049423L356.3789111111111,279.98386871829877L357.02425,276.1643606782868L357.68856944444445,279.3629608607837L358.1251222222222,266.72867467740474L358.4288111111111,265.0325484558301L359.81439166666667,268.91327040698286L360.1750222222222,295.2362300831446L360.59259444444444,291.1554608510953L362.149,296.116525779189L364.8252583333333,302.87273376585324L366.077975,298.4199901425915L366.2108388888889,255.07264175439337L366.38166388888885,243.0358162070779L366.70433333333335,252.0079061356466L366.9321,269.60544779105663L367.04598333333337,287.1755387079935L368.1658361111111,277.18478417946227L369.1148638888889,263.8723741206725L370.00694999999996,245.0981300254583L370.69025,248.82303372501855L371.1457833333333,247.6317176787826L371.202725,267.9388398509486L372.6262666666667,258.80602294094945L372.74015,254.30545954637284L373.3095666666667,287.3996612592492L373.48039166666666,317.7088597753021L373.5563138888889,336.3170125328524L373.6701972222222,340.6630940820589L375.4164083333333,328.43737608109797L375.4353888888889,307.23608761975106L375.5872333333333,310.79985549419496L375.66315555555553,311.01979359608515L375.985825,313.63329099787256L377.2005805555556,308.7198233674347L377.5612111111111,296.5431928318965L378.20655000000005,285.4572185326951L380.12358611111114,268.92978577907905L381.3193611111111,269.5465619748594L382.1924666666667,264.8969992271519L383.02761111111107,267.0964194340382L383.3882416666667,265.85921438949555L384.6599388888889,248.92875079165253L385.76081111111114,254.4365231266639L386.19736388888884,267.67145934528236L387.7347888888889,306.47593532100996L388.5889138888889,282.0131530052165L388.62687500000004,300.0981977037036L389.2342527777778,298.38740109511866L389.82264999999995,305.07288612788113L390.9425027777778,307.01680470624683L393.65672222222224,309.86609526347587L394.1122555555556,280.863811802098L394.28308055555556,275.09529356433677L394.3969638888889,282.7297764913662L395.27006944444446,308.990484791781L395.3270111111111,279.705618594757L395.68764166666665,284.7580704180427L398.193075,291.25725868272946L398.45880277777775,274.569672745038L400.39481944444447,267.2359057316595L400.79341111111114,306.7470523386844L402.16001111111115,300.48868209538745L403.317825,287.74660530339406L404.684425,289.6585917869254L405.1019972222222,291.51604549879096L405.42466666666667,287.2384332465783L406.2977722222222,291.42589224861L406.94311111111114,297.8937044589874L408.1768472222222,297.3520636707042L409.20179722222224,301.8888042896685L409.69529166666666,314.52604347048384L409.79019444444447,289.7710030530582L411.1378138888889,279.9971328171904L411.8211138888889,261.66925271706674L412.7511611111111,254.4428805968576L413.92795555555557,259.0194410003075L413.9469361111111,263.3851732800512L414.592275,302.2108426922624L414.85800277777776,327.53103432858387L415.6551861111111,294.85290021779775L418.8249388888889,304.82107213188795L419.4133361111111,291.5562348666762L420.058675,291.64602270740124L421.2164888888889,296.22558990131535L421.4062944444445,301.83037682182027L422.108575,301.5847962367918L422.2604194444445,283.5477394860021L422.73493333333334,266.4522450805325L423.07658333333336,259.21212303880566L423.11454444444445,246.567707432769L423.5510972222222,278.77374178973577L423.5700777777778,275.96976745610084L423.58905833333336,272.6812266855516L423.646,255.01915383035407L424.00663055555555,251.35365922268912L424.67095,257.3525968373816L425.25934722222223,247.39714465028055L425.6579388888889,243.52418819359542L425.9995888888889,268.2573719220853L426.1893944444445,254.4975364683566L427.8786638888889,268.5106847809849L428.14439166666665,278.74397900862095L428.52400277777775,304.9757497379934L428.69482777777773,333.1878978174779L428.8276916666667,334.4985048509749L428.84667222222225,349.207106348104L429.39710833333334,350.885673377649L429.58691388888894,349.9390767536974L429.966525,355.23259895577525L431.27618333333334,335.55400229415005L432.2062305555556,315.6252133901161L432.83258888888884,312.29865035147924L433.55385000000007,293.56129219968L435.66069166666665,272.39810970329575L436.13520555555556,272.6327493840655L436.1921472222222,261.6712429794193L436.3629722222222,268.687736515553L436.8944277777778,252.49041370412772L437.5587472222222,243.16914913571517L437.78651388888886,257.8413682074346L438.52675555555555,234.77855403965702L439.0012694444444,270.1114636286855L439.3239388888889,255.20789629368542L440.6146166666667,277.33548605530586L441.0321888888889,263.6772793417522L441.56364444444444,249.9232442549079L442.5885944444444,294.1253036124235L445.1130083333333,297.82095159666096L445.13198888888894,323.19696998343676L446.93514166666665,310.4372585400689L447.78926666666666,285.64521920590084L450.08591388888885,281.1435079330712L450.21877777777775,299.2102015706604L452.59134722222217,276.69346160249137L453.50241388888884,262.4344158801807L454.73615,264.26897198160725L455.09678055555554,259.6671625030055L455.19168333333334,259.25002172303283L455.62823611111116,264.0645548028475L456.04580833333335,277.2275552584366L456.4444,303.397002687075L457.7350777777778,322.6408121049513L458.74104722222216,306.4345293915337L459.8419194444444,308.3492742822209L460.67706388888894,304.2225710896039L460.75298611111106,285.3488894550434L461.2275,292.9451988129873L464.73890277777775,284.6188376777804L465.02361111111105,275.07701276740056L465.0805527777777,296.38507868647946L465.498125,300.97880715012775L465.61200833333334,292.4558626883043L466.523075,294.23317269520845L466.8077833333333,305.59161382935577L467.6808888888889,299.76148785365893L467.9466166666666,283.77807995804113L468.1554027777778,270.4262182422159L468.3262277777778,259.3643550102519L469.19933333333336,251.28732099679752L469.4081194444445,262.9854506763676L469.5220027777778,249.95985811429375L470.64185555555554,291.48657649443834L471.1543305555556,319.756599209823L471.59088333333335,318.6173179639088L472.9195222222222,307.8567860300962L473.33709444444446,311.5732237205281L473.9634527777778,300.4517909828052L474.2861222222223,288.81806441207084L474.41898611111105,271.66304923331353L475.1782083333333,282.9770280792452L475.4249555555556,292.4561994239173L475.51985833333333,268.97618301895153L475.63374166666665,310.2415411006623L475.6906833333333,311.838104053212L477.13320555555555,298.401038207932L477.1521861111112,279.3894008388064L477.1901472222222,290.73227894246224L477.98733055555556,296.08328137361787L478.0442722222222,295.13255481459964L478.63266944444445,281.81387644134924L479.14514444444444,244.64634159280638L479.2020861111111,251.4052321498023L479.29698888888885,280.8956382503764L480.3599,293.4006202358399L480.64460833333334,269.04912623991925L480.8154333333333,271.9648076726816L480.85339444444446,274.3840980549945L481.7834416666667,281.560618962067L482.86533333333335,278.8880877645122L483.71945833333336,279.52995636172926L484.4976611111111,315.4271574146022L484.74440833333335,319.9621138409656L484.7633888888889,323.9985596439768L485.1809611111111,341.32322929510656L485.27586388888886,329.52037171250095L485.48465,343.733815727982L487.5914916666666,304.7844027986246L487.99008333333336,284.7544102615189L489.28076111111113,285.65238035595837L489.29974166666665,264.91220540330664L489.3566833333333,292.8214568527094L489.3756638888889,298.1964817661972L490.28673055555555,281.99176415317845L490.74226388888894,274.78035449095717L491.3686222222222,275.4475202745685L491.84313611111116,276.59924834886135L493.24769722222226,282.0706205005583L494.00691944444446,289.27563594789126L494.1587638888889,285.60936821109544L494.7661416666667,278.1010700858027L495.01288888888894,266.20105850675054L496.2276444444445,267.8699565051696L497.46138055555554,257.56359812728766L497.8979333333333,299.5462667412294L499.4923,297.7104370514591L499.54924166666666,310.99358374595874L499.64414444444446,315.99602537584445L500.91584166666667,316.4432173444757L501.2574916666666,295.8767812772947L502.68103333333335,317.95421479489545L503.42127500000004,313.12252510992374L503.4402555555555,289.3097521865826L506.42020277777783,282.4420414212025L507.21738611111107,288.1410857583687L507.23636666666664,265.8773612943653L508.4701027777778,269.2554460386851L508.58398611111113,282.02518670680627L508.96359722222223,281.77811022354666L509.07748055555555,275.8862218246073L509.4760722222222,280.2509538760907L509.5899555555556,274.8919538158849L510.7287888888889,281.49880873553013L511.8486416666666,309.8308929287914L512.4560194444445,318.0418893029406L512.5888833333333,324.91584221900195L516.6507222222223,297.77166083085945L517.1252361111111,307.7554690160061L517.3719833333333,310.52896986709266L517.8844583333333,301.93233975354565L518.0173222222222,285.55117775549735L518.2261083333334,277.06718721121695L518.321011111111,266.20966823178617L518.4728555555556,256.6560281233674L518.7385833333333,246.14186837176592L519.270038888889,252.49296705663272L520.5796972222222,254.8264758273367L520.6366388888889,260.2758015325311L521.4338222222221,287.70874771658447L522.0981416666666,268.8335515688888L522.8004222222222,275.35335767454103L524.5276527777778,259.9638853203428L524.8313416666667,259.6682698804839L526.8622611111111,273.9103301572027L526.995125,300.25772789759776L527.2228916666667,321.18617274548615L528.1908999999999,305.5270730983377L528.3996861111111,299.47985243386984L528.4186666666667,309.6941202615914L530.1269166666667,334.8222071609031L530.1838583333333,330.38764483220166L532.974,310.3813331156182L533.0499222222222,301.7895577686553L533.0689027777777,297.4218522153809L533.3915722222222,283.0373039866993L533.6762805555555,260.3034466162627L533.866086111111,264.40972310634277L534.0748722222222,289.01733044583693L534.169775,288.60591332792694L534.2646777777778,272.69287773775727L534.3406,284.19251765494147L534.4544833333333,261.70730852892757L534.9100166666666,269.47365783340194L535.0998222222222,261.94412247351687L535.5933166666666,255.18126112229754L536.4474416666667,258.806070363564L536.8839944444445,257.15069241287864L537.8520027777778,248.0985961017761L538.3075361111112,254.8844348822685L538.6681666666667,267.99561976400923L538.9338944444444,282.0433927357668L539.5602527777778,306.3482328760907L541.7050555555555,331.34219824721134L542.6351027777778,331.245064338742L544.1725277777778,305.60210063499113L544.3813138888889,303.9641401674861L544.760925,301.37983673253734L545.8997583333334,288.9460112895911L546.1465055555556,275.23782537259734L546.848786111111,261.92993974612995L547.2283972222222,266.96348422722133L547.4371833333333,274.36841254208156L549.0695111111111,267.3270506785731L549.2593166666667,265.015792341615L551.935575,285.4080404231461L552.6378555555556,287.53337131676153L552.6758166666667,281.1136173649852L553.2262527777777,277.9801837709083L553.9664944444445,315.2234875861725L554.8775611111112,321.392924314971L555.7886277777778,337.60070429219917L555.8265888888889,334.4907515047438L555.9784333333333,323.4893719672231L556.5478499999999,293.63470522875L556.9844027777777,273.25762833544263L557.2501305555555,290.1185003482619L558.3320222222222,285.7282718994211L560.1541555555556,301.5778852926487L561.0082805555555,285.4430848852869L561.0842027777778,278.28016459322436L562.2230361111111,291.1665329538373L563.0961416666667,275.2769351364725L563.6655583333334,270.01267962226586L564.0831305555556,250.14009807449182L564.234975,235.13178192342275L566.5506027777777,240.60487095573524L567.1200194444444,230.7852162007032L567.5375916666667,283.4238466908656L568.16395,310.86576352656624L568.7143861111111,323.5540635832593L569.5685111111111,336.0489700942305L570.3087527777778,323.22952265197443L571.9410805555556,304.21478687914845L573.3266611111111,292.766239244894L573.801175,284.87389590689884L574.0479222222222,267.1865932366214L574.2187472222223,277.4794093144513L575.7182111111111,293.11067293718924L576.8380638888889,294.5986892261235L579.0018472222222,282.9452029990034L579.2865555555555,278.493789346628L580.2735444444444,281.45973429179946L580.7860194444445,289.062423521857L581.962813888889,298.3826878992204L582.4373277777778,314.1315815882375L584.1265972222222,305.1602432987982L584.8288777777778,298.1595767892535L585.4931972222223,284.7638839338503L586.1195555555555,283.7670216711928L586.8977583333334,283.47181273416095L588.9476583333334,292.7771141345227L589.2513472222222,282.9034939774827L589.6499388888889,294.09602956586815L589.8207638888889,285.32400966056423L590.1244527777778,275.58040466528087L591.3202277777777,279.9010886586961L591.3392083333333,265.9378236077581L591.6049361111111,276.0634344185802L593.6927972222222,286.9277201155075L593.9395444444444,254.84726473446187L594.1483305555556,237.53791999075105L596.0463861111111,278.5450186446505L597.3180833333333,272.27517977447496L598.1152666666667,294.10807173902504L601.1141944444444,274.14193722876735L602.7085611111111,262.33887819810406L602.7465222222222,278.7675000570041L603.5057444444444,276.9205434764517L603.524725,295.9404093650039L603.5437055555556,275.31556135577307L603.8473944444445,269.7982025752208L604.0941416666667,290.556535363778L604.1321027777777,282.3705957416204L606.0111777777778,279.2854708721344L608.8582611111111,263.6349624210658L610.0730166666667,306.11102802837263L610.1869,302.22733656933536L610.3007833333334,318.3177063129582L610.3767055555556,336.34224508179653L610.3956861111111,344.0259334324207L611.8192277777778,325.23271830549277L612.57845,328.90149972242375L613.6223805555555,327.34351328255093L615.6912611111111,318.4434658601365L615.9000472222223,292.71156613317015L616.0518916666666,300.2289296882563L616.9629583333334,284.4399445114858L617.4184916666667,302.77534408916995L618.1777138888889,295.7008159610627L618.2346555555556,295.11814503985636L618.8230527777778,291.47879524897337L619.0128583333334,282.66504137439017L619.1457222222223,271.66889782382543L619.4873722222222,268.32055616160335L620.5692638888888,273.23939032423556L620.9488749999999,268.974594301391L621.0058166666666,274.223990181928L621.4044083333333,264.80602924814536L623.0367361111112,305.6252019929333L624.7639666666666,308.9862142042782L624.8019277777778,291.0233596227447L625.4093055555555,307.4772711790729L625.7509555555555,328.76160297376686L631.1224527777778,317.81265257348286L631.6159472222222,311.01338203280966L632.4510916666667,299.33493053632856L633.4950222222221,284.1825892908446L634.6718166666667,289.497873054926L634.9185638888889,280.0297857564594L636.664775,271.5539065982048L637.2152111111111,297.79483988196523L637.9554527777777,302.3779211539679L639.1891888888889,306.50914916388115L643.2700083333333,301.3709076821322L644.7694722222222,295.0804367649267L645.2629666666667,298.72653415129844L645.6805388888889,308.3231797476188L646.0411694444444,310.8567653929934L646.4207805555556,290.35884524796876L646.5156833333333,283.9127871955303L646.8193722222222,281.87017559795777L647.0471388888889,289.94560494297275L647.3508277777778,279.26660375758127L647.8633027777778,274.09119541027616L649.1539805555556,279.6440303240923L650.0840277777777,250.27072258679328L650.330775,257.3933896534935L650.4826194444445,266.8761158891496L652.2857722222222,296.3753422086226L653.6523722222222,321.1941247215741L654.2787305555556,315.138400580339L654.4115944444444,315.02187217822814L654.5824194444444,326.62431090802636L655.5314472222223,303.04199906427084L655.5883888888889,306.5110285653974L655.9869805555556,304.8210341915074L656.2147472222223,283.992894445931L656.5753777777778,286.59783798162647L656.9360083333333,305.2407268387348L659.5173638888889,296.5748804272574L661.0547888888889,270.60994421609405L661.0737694444445,255.7629737208377L661.7191083333333,244.20872457922042L662.0797388888889,252.409776402119L662.9528444444444,263.2387171343584L664.3194444444445,266.0554296705496L664.4143472222222,269.47491147121013L664.9078416666666,297.62557656765114L665.7809472222223,312.67129030943L666.0656555555555,314.9655452437406L666.9197805555556,316.64572569532424L667.6220611111112,335.7615780043795L668.438225,297.88661108065816L668.8178361111111,314.0536115148614L668.9317194444444,323.5771451579899L669.1784666666666,325.41217247172426L669.7099222222222,317.99265362932823L670.5260861111111,309.51722641059484L671.2853083333333,298.66120513241725L672.5570055555555,281.7109141943528L673.0315194444445,256.0627934692904L673.1643833333334,257.7384961103562L673.2403055555556,272.8639667543867L675.1193805555556,247.12913928706044L675.1763222222222,249.42600263523212L675.9355444444444,256.664207621617L676.5429222222222,266.11055325520215L677.7197166666666,275.3235801163446L677.9854444444445,250.16805407423564L678.3081138888889,270.42967898260827L678.3270944444445,257.65672914154095L679.1242777777778,287.87273583392357L681.0033527777778,295.8504135702851L681.5158277777778,311.33728263943215L684.2869888888888,321.27436531882773L685.2929583333333,289.2013393479662L687.3428583333333,287.86801779497137L687.5516444444445,263.41478716271206L689.8862527777778,259.8303531106536L691.0061055555556,259.2730179367199L691.7083861111112,250.43688978777732L692.1069777777777,264.20156770960335L692.8092583333333,300.4265292168608L693.4925583333332,314.56967282777725L693.5115388888888,323.2207429557187L693.9860527777778,326.5324539869513L695.1628472222222,306.0591807561806L695.2767305555556,308.92387366281105L695.5614388888889,312.85881954423286L696.5104666666666,310.2020461678011L697.0039611111112,325.88949177977463L697.3266305555557,304.3904020089925L697.7631833333332,292.98189575070273L698.6362888888889,293.15226786490757L699.870025,273.7528515288619L700.002888888889,279.8233672278755L700.1547333333333,299.91782842264377L701.0658,290.9467958342183L701.236625,289.21500923223186L702.3564777777777,283.6634332298451L702.603225,264.0620359634884L705.3554055555555,255.27675600382855L705.5831722222222,266.51016453226316L706.2095305555556,272.473613579988L706.2474916666666,302.44597226376504L707.006713888889,316.965602719755L708.24045,313.3915457868403L709.6450111111111,325.9549333538906L710.5370972222222,324.88209744014125L711.2203972222222,302.7035621626245L711.7708333333334,304.89337511200114L712.3212694444445,292.96623248659614L712.5680166666667,300.632999675292L712.6249583333333,315.92219929505484L713.877675,300.65889683132826L713.9346166666667,280.3537057087746L714.7507805555556,267.11627648150494L715.4910222222222,274.9269443742965L715.6808277777778,257.3750582571348L715.7377694444444,267.2187873503875L716.7437388888889,279.1276674974747L718.8885416666667,264.81058573179166L719.2491722222222,280.64109217794373L719.3820361111111,274.69614503187915L719.4010166666667,270.03859407545923L719.5338805555555,285.71320784593695L720.7676166666666,299.8785369783942L721.2990722222222,309.60042384805115L721.526838888889,316.8932240101208L721.7735861111112,319.48107029751L721.90645,309.64545512053405L723.4438749999999,304.041893529016L724.0702333333334,290.9519245547761L724.1461555555555,297.2152957154936L724.6586305555555,314.89998246631785L724.6965916666667,304.92225747943974L725.9682888888889,316.42550525451344L726.4048416666667,317.6883238040486L727.7334805555556,300.24398278493163L727.9232861111111,296.14162340938145L728.2459555555555,304.7981153081601L728.3788194444444,297.0361139506546L728.4357611111111,293.720541270402L728.7014888888889,282.06185752858335L728.9102750000001,281.42278050607223L731.4916305555555,272.6757586552249L732.1939111111111,278.1069998713461L733.2378416666667,276.60994757247727L733.3707055555556,278.087435025172L734.6044416666666,303.2989792216995L735.0789555555555,298.49394742185933L735.2497805555556,315.73656378707335L735.4775472222223,318.12707985950146L735.8381777777778,328.1049125165501L736.1608472222223,341.790272305653L736.4455555555555,326.718526810554L737.1857972222223,321.432218057005L737.4135638888889,307.488128508382L737.8880777777778,309.46505356148066L738.4574944444445,297.2674427170466L738.5903583333334,293.6927164279765L739.6912305555555,268.8174125601856L739.9000166666666,290.68978336155465L740.5643361111111,279.4509871643784L740.9249666666667,287.9977535153629L741.0578305555555,290.68650170238027L741.9309361111111,263.17476891321667L742.917925,279.8640877416297L742.9748666666667,312.4269638544657L743.6391861111111,317.3194493941271L744.9298638888889,299.15941408227695L745.4043777777778,270.78301534027344L746.0497166666667,272.0581478415161L746.1066583333334,276.50796895851073L747.0936472222222,290.89082240837445L747.1126277777778,273.11202111111663L747.2644722222223,279.1852393523847L747.5112194444445,273.16490859842276L748.5551499999999,307.93219575319273L749.067625,310.56752564331043L750.2064583333333,318.77587894094074L750.2254388888889,309.51019318993144L750.7189333333333,313.4734539752916L750.9467,308.14014404807784L751.2314083333333,273.5709126221793L751.6110194444444,284.38169007466183L751.7818444444443,288.9025550423023L751.9526694444445,302.04894332515937L752.5220861111111,271.3838823582396L753.4521333333333,274.4756813851395L754.4960638888889,296.7603158597587L755.1034416666666,280.62907475497957L755.5210138888889,265.2022608057656L756.9065944444444,292.1928277215957L758.3870777777778,299.3822937608719L759.7916388888889,277.4014326811409L760.7216861111111,254.66197534087752L761.4049861111112,277.84787516405265L762.5817805555555,276.9485190785532L763.5497888888889,320.0782326863173L764.0432833333333,323.886148834584L764.1002249999999,320.314114775871L765.5427472222223,320.62640751994536L765.9413388888888,308.59327101467187L766.0931833333334,292.4320853218921L766.3399305555556,288.6638624587946L766.3778916666666,298.3358351897772L766.491775,300.52362256715156L767.7065305555556,305.35445944946684L768.3518694444444,283.4304704098801L768.3898305555556,283.3484628933013L768.4088111111112,281.06155613287325L770.0411388888889,268.348660130644L770.0980805555555,283.5960361357594L770.6105555555556,272.99040594077496L773.8562305555555,289.57629556880227L773.9890944444444,259.8453431691279L774.691375,262.95536081585584L775.2418111111111,268.8644348060685L775.3367138888889,256.5524211451768L776.1338972222222,291.4800362184858L777.3106916666667,306.8208449360857L777.6333611111111,305.75439773065625L777.6523416666666,321.1080940131115L778.9050583333334,315.85450219892067L779.0569027777777,313.3730375873006L779.2846694444444,310.07252827328193L779.98695,300.1262929978475L780.0059305555556,297.19950070038465L780.0628722222223,305.3854279759826L781.3155888888889,298.31592264433516L782.3025777777777,286.10184059536346L782.5872861111111,298.03176045415324L782.8719944444445,288.5826907992216L783.1756833333334,290.38349198340484L783.4224305555556,280.8172585430093L784.08675,292.21721394433666L784.4473805555556,279.1445314143544L784.5802444444445,291.6527274641064L789.0027138888889,261.6819411392611L789.4202861111111,266.2700790927173" style="fill: none;" fill="none"></path></g></g></g></g><g opacity="0.2"><g><g><g><path stroke="rgb(255, 112, 67)" stroke-width="2px" d="M120.20385833333333,-12.258173465728817L120.27978055555555,33.03264638781542L121.19084722222223,3.0742058753966717L121.32371111111111,22.447199285030308L122.15885555555555,8.30791509151453L122.72827222222223,45.817044585943165L123.8101638888889,80.53994467854494L124.3606,144.49165350198746L124.66428888888889,108.25157096982002L124.96797777777778,139.9489822089672L126.03088888888888,135.6878157556057L126.99889722222223,65.85984086990351L127.34054722222221,86.17183914780611L127.51137222222222,-17.307227641344127L127.8150611111111,109.63847807049751L127.87200277777777,69.54170620441431L128.70714722222223,52.122449636459294L129.90292222222223,11.137906670570317L130.32049444444445,11.612605512142125L130.3774361111111,125.91126671433449L130.52928055555554,31.564001202583256L131.28850277777778,61.743668228387776L131.61117222222222,114.53371858596802L131.85791944444443,116.87962970137596L133.54718888888888,116.98771497607231L134.68602222222222,34.17956373095507L136.41325277777779,19.25654894113535L136.64101944444445,145.6808162331581L137.24839722222222,59.945935964584294L137.36228055555557,99.41284707188606L137.74189166666667,153.59289428591728L137.83679444444445,149.83934661746025L138.69091944444446,119.01487565040588L138.91868611111113,84.97986754775042L139.58300555555556,157.1842016875744L140.24732500000002,85.81297805905336L140.26630555555556,125.18214052915573L141.13941111111112,114.37512984871864L141.46208055555556,101.35096660256386L141.50004166666665,65.86332386732096L141.59494444444445,212.15073218941689L142.06945833333333,155.74622935056686L142.0884388888889,156.12323573231697L142.31620555555557,1.9015031158923534L142.41110833333335,48.385867536067906L142.96154444444443,120.60065066814423L143.24625277777778,126.4283232986927L143.3601361111111,88.56499543786043L145.86556944444445,17.240174323320332L146.90949999999998,67.03934109210962L147.83954722222222,161.0071284174919L149.87046666666666,61.05240559577936L151.21808611111112,127.1737409234047L152.05323055555556,173.24553868174553L152.56570555555555,164.6034356057644L152.62264722222224,120.9477706849575L153.72351944444443,179.39600652456284L154.9003138888889,128.90113911032677L155.56463333333335,118.44102373719215L156.2099722222222,79.25707808136934L156.4757,205.2138934135437L156.5136611111111,125.30769696831703L156.53264166666665,93.91313797235483L157.6335138888889,109.68184700608253L160.9551111111111,108.49515607953072L163.23277777777778,148.48412355780602L163.57442777777777,115.70861226320267L163.6123888888889,144.07807564735413L164.56141666666667,196.93402206897736L165.62432777777778,143.0231206715107L165.9090361111111,172.00047945976257L166.89602499999998,172.7132580280304L167.29461666666666,183.28898644447327L167.42748055555555,188.65847638249397L169.45839999999998,190.5983374118805L169.98985555555555,112.31965577602386L170.52131111111112,138.67493546009064L171.5083,189.74438509345055L172.68509444444445,143.69488975405693L174.5451888888889,201.10137230157852L175.1335861111111,192.63684591650963L175.2284888888889,110.65781658887863L176.59508888888888,210.18716430664062L176.84183611111112,161.90725854039192L176.8797972222222,135.91612061858177L178.41722222222222,204.79413604736328L180.16343333333333,144.04588600993156L180.48610277777777,205.71965834498405L180.88469444444445,217.00642383098602L182.7447888888889,137.94339364767075L183.42808888888888,149.75687822699547L183.5040111111111,188.18074396252632L183.65585555555555,176.28012827038765L185.06041666666667,183.32050195336342L185.78167777777776,180.1319301724434L186.04740555555554,145.64373916387558L186.76866666666666,176.72494074702263L186.99643333333333,188.55988508462906L187.79361666666665,195.60952803492546L189.08429444444445,224.28976467251778L189.25511944444446,191.00084832310677L189.31206111111112,139.4663061797619L190.75458333333333,192.9559334218502L190.79254444444445,86.71720913052553L191.81749444444443,205.1510309278965L192.34895,252.58906251192093L194.34190833333335,264.22159975767136L196.05015833333334,152.2830625474453L196.3538472222222,217.6671259701252L196.619575,220.5182964205742L197.77738888888888,171.48471495509148L199.6185027777778,248.65439897775653L200.22588055555556,146.46988368034363L202.40864444444446,177.8515780568123L202.6933527777778,216.78570291399956L203.52849722222223,229.2143859565258L205.14184444444444,230.54371124505997L205.4645138888889,197.31496086716652L205.52145555555555,208.0518060028553L206.20475555555555,295.88328218460083L206.33761944444444,252.54844626784325L207.02091944444444,231.03683626651764L207.41951111111112,291.2998822927475L208.59630555555557,202.97415754199028L208.97591666666668,282.95832818746567L211.08275833333335,227.14835053682327L211.2725638888889,230.38972905278206L212.5822222222222,239.25732812285426L212.82896944444445,265.5283979177475L212.94285277777777,260.27598163485527L213.18959999999998,238.69089162349704L214.2714916666667,169.4712053835392L214.70804444444443,216.36549612879753L214.8029472222222,242.10889181494716L215.92280000000002,208.02793061733246L216.37833333333336,179.76194596290588L218.20046666666667,280.92897659540176L218.656,243.36816391348842L219.68095,249.7063203752041L220.2313861111111,286.33200442790985L221.25633611111112,307.9643396139145L221.99657777777776,285.59557518363L222.05351944444442,336.5554789304733L222.28128611111111,298.75742918252945L222.86968333333334,270.47650134563446L224.84366111111112,289.35788652300835L224.99550555555555,251.1293495297432L225.2802138888889,263.7020713686943L227.12132777777776,208.20887795090675L227.61482222222222,206.76669231057167L228.03239444444444,259.80633875727654L229.77860555555554,221.89430510997772L229.93045,321.4088781774044L230.7086527777778,196.46460390090942L231.8664666666667,241.3800465166569L232.45486388888887,276.44562861323357L233.66961944444444,196.62521502375603L234.201075,259.39017674326897L234.22005555555555,329.5389244556427L234.58068611111113,318.1021091938019L235.01723888888887,284.40101942420006L235.37786944444443,350.5581959187985L236.30791666666667,255.72988352179527L236.49772222222225,306.5979934334755L236.5546638888889,263.2773703932762L236.8393722222222,306.12076660990715L237.46573055555555,228.47733876109123L240.8063083333333,274.4936894476414L240.92019166666668,255.11934778094292L242.19188888888888,232.5744672715664L242.72334444444442,263.39876970648766L242.91315,268.9331402480602L243.57746944444443,239.45911726355556L244.8491666666667,272.85948953032494L245.45654444444446,212.67138412594795L246.57639722222223,220.63430270552635L247.24071666666666,203.83546909689903L247.67726944444445,229.24747443199158L247.99993888888886,352.3414905965329L250.1637222222222,315.5876097679138L250.82804166666668,266.20921155810356L250.941925,316.012479275465L252.25158333333334,284.6411215364933L253.0867277777778,305.10923674702644L253.63716388888886,270.07264217734337L253.73206666666664,244.06661725044253L253.90289166666668,263.7636417746544L255.61114166666667,292.59932121634483L255.66808333333333,201.8044321835041L256.19953888888887,245.0203405916691L256.3893444444444,229.79430502653122L257.49021666666664,284.97812962532043L258.1545361111111,275.3167442083359L258.78089444444447,162.55223101377487L258.799875,269.0133053660393L259.93870833333335,253.4515537917614L262.29229722222226,340.60760936141014L262.3492388888889,314.85028168559074L263.41215,337.6764985024929L263.9056444444445,265.50441017746925L263.96258611111114,357.67328551411634L264.3611777777778,325.6966727077961L264.49404166666665,322.6446681320667L265.59491388888887,244.6018753051758L265.70879722222224,287.03489577770233L266.7717083333333,305.00598272681236L270.0173833333333,307.91147670149803L270.1502472222222,205.9463902413845L270.6627222222222,285.8037123680115L271.72563333333335,251.27097269892693L272.3330111111111,258.0693342387676L273.54776666666663,197.53298527002335L273.60470833333335,253.02303275465965L273.98431944444445,208.4285314977169L274.6106777777778,260.7920832037926L276.11014166666666,324.03348526358604L276.24300555555556,334.36130291223526L276.48975277777777,293.7001169323921L276.907325,294.77608224749565L277.62858611111113,284.4668593108654L278.1980027777778,290.04010459780693L278.63455555555555,249.60587522387505L278.97620555555557,219.91377165913582L280.3048444444444,255.1317629814148L281.7283861111111,302.37019634246826L282.94314166666663,265.0949894487858L284.1768777777778,290.1718405485153L285.80920555555554,235.2040179669857L286.3027,262.6276228427887L287.89706666666666,252.68175518512726L289.9469666666667,321.34298211336136L290.07983055555553,318.787978798151L292.2246333333333,319.23520690202713L292.281575,300.03327360749245L292.68016666666665,266.0018046796322L293.80001944444444,250.31578874588013L293.989825,263.8708282113075L294.0657472222222,254.29382121562958L294.6161833333333,231.6765842437744L295.2425416666667,243.02430218458179L296.2295305555555,259.19490417838097L296.5522,272.51950404047966L296.81792777777775,209.88217732310295L297.1216166666667,252.57164752483368L297.4442861111111,254.62599804997444L298.20350833333333,189.6653435230255L299.0766138888889,227.9452266395092L299.09559444444443,269.66125524044037L299.5131666666667,240.7240632772446L300.17748611111114,183.37769052386284L300.3672916666667,278.2391475737095L300.67098055555556,205.34473052620888L300.84180555555554,258.6328495144844L301.1075333333333,248.62917533516887L301.82879444444444,277.2554816901684L301.8857361111111,256.27295023202896L302.531075,278.07735672593117L302.6069972222222,215.02605891227722L303.04355,308.06012204289436L303.1574333333333,233.22050711512566L303.19539444444445,279.7098151445389L303.95461666666665,344.1936922669411L304.0685,383.0846728980542L304.31524722222224,358.20955476164823L304.41015,292.2202924489975L305.62490555555553,287.80345848202705L305.9855361111111,321.5976341664791L306.1563611111111,349.9098528027535L307.0104861111111,381.5105827748776L307.44703888888887,307.84911981225014L307.485,254.91194090247154L307.5039805555556,307.3081316649914L308.6238333333333,257.6160951554775L311.6417416666667,308.3191559314728L312.6477111111111,294.6138419806957L313.0273222222222,245.79862198233607L313.61571944444444,238.80358344316485L313.7865444444445,277.6002984344959L314.1092138888889,263.3173686861992L314.4318833333333,273.32873916625977L315.02028055555553,231.43254971504211L315.98828888888886,244.31419095396998L316.4248416666667,293.3931075632572L316.6905694444444,260.50411796569824L318.09513055555556,302.89354479312897L320.25891388888886,320.061014354229L322.0810472222222,305.0001964569092L322.17595,296.41404604911804L322.85925,263.0961983501911L323.44764722222226,275.7495347261429L325.2887611111111,263.3891071975231L325.78225555555554,222.78151443600655L325.8581777777778,277.72068655490875L326.1618666666667,278.1422415971756L326.95905,220.77457761764526L328.1738055555556,242.2305158376694L328.23074722222225,240.69350278377536L328.5344361111111,277.33766919374466L330.35656944444446,268.88510859012604L331.3625388888889,323.22363218665123L333.16569166666665,324.29841777682304L335.4053972222222,276.9563371539116L335.9368527777778,301.0901947915554L337.05670555555554,304.0897858738899L337.9487916666667,252.06970265507698L339.31539166666664,286.7611434161663L339.67602222222223,236.98382964730266L340.49218611111115,284.93745720386505L340.8717972222222,330.09873202443123L341.9726694444444,246.96767321228984L342.29533888888886,260.6322023868561L342.8078138888889,232.80361479520798L343.2064055555556,314.8407877087593L343.43417222222223,299.10578510165215L343.7188805555556,218.08238914608955L343.79480277777776,210.3878298997879L344.11747222222226,242.28101930022243L344.80077222222224,249.5895837843418L345.55999444444444,327.10256776213646L346.1863527777778,336.83687141537666L348.2742138888889,322.3986112177372L349.2801833333333,284.5497209429741L349.3561055555556,313.0415386557579L349.73571666666663,263.94818446040154L350.6657638888889,292.34854540228844L351.2162,232.50896444916725L352.01338333333337,301.3614753484726L352.9813916666667,289.4719827771187L353.41794444444446,293.8119660913944L354.53779722222225,205.40624475479126L354.5947388888889,275.00720685720444L355.828475,317.27742528915405L356.3789111111111,272.8856681883335L357.02425,270.43509861826897L357.68856944444445,284.1608611345291L358.1251222222222,247.77724540233615L358.4288111111111,262.4883591234684L359.81439166666667,274.7343533337116L360.1750222222222,334.7206695973873L360.59259444444444,285.03430700302124L362.149,303.5581231713295L364.8252583333333,313.0070457458496L366.077975,291.7408747076988L366.2108388888889,190.05161917209625L366.38166388888885,224.98057788610458L366.70433333333335,265.4660410284996L366.9321,296.00176027417183L367.04598333333337,313.5306750833988L368.1658361111111,262.19865238666534L369.1148638888889,243.9037590324879L370.00694999999996,216.93676388263702L370.69025,254.41038927435875L371.1457833333333,245.84474360942843L371.202725,298.3995231091976L372.6262666666667,245.10679757595065L372.74015,247.55461445450786L373.3095666666667,337.0409638285637L373.48039166666666,363.1726575493813L373.5563138888889,364.22924166917807L373.6701972222222,347.1822164058686L375.4164083333333,310.0987990796566L375.4353888888889,275.43415492773056L375.5872333333333,316.1455073058605L375.66315555555553,311.34970074892044L375.985825,317.5535371005535L377.2005805555556,301.3496219217777L377.5612111111111,278.27824702858925L378.20655000000005,268.8282570838928L380.12358611111114,244.13863664865497L381.3193611111111,270.4717262685299L382.1924666666667,257.9226551055908L383.02761111111107,270.3955497443676L383.3882416666667,264.0034068226814L384.6599388888889,223.53305539488792L385.76081111111114,262.6981816291809L386.19736388888884,287.52386367321014L387.7347888888889,364.68264928460127L388.5889138888889,245.3189795315266L388.62687500000004,327.2257647514343L389.2342527777778,295.82120618224144L389.82264999999995,315.10111367702484L390.9425027777778,309.9326825737953L393.65672222222224,314.14003109931946L394.1122555555556,237.36038661003116L394.28308055555556,266.442516207695L394.3969638888889,294.1815008819103L395.27006944444446,348.3815472424031L395.3270111111111,235.77831929922107L395.68764166666665,292.33674815297127L398.193075,301.0060410797596L398.45880277777775,249.53829383850098L400.39481944444447,256.2352552115917L400.79341111111114,366.01377224922186L402.16001111111115,291.10112673044205L403.317825,268.63349011540413L404.684425,292.5265715122223L405.1019972222222,294.30222606658936L405.42466666666667,280.82201486825943L406.2977722222222,297.7070807516575L406.94311111111114,307.5954227745533L408.1768472222222,296.53960248827934L409.20179722222224,308.69391521811485L409.69529166666666,333.48190224170685L409.79019444444447,252.63844242691994L411.1378138888889,265.33632746338844L411.8211138888889,234.17743256688118L412.7511611111111,243.603322416544L413.92795555555557,265.8842816054821L413.9469361111111,269.933771699667L414.592275,360.44934681057936L414.85800277777776,365.51132178306585L415.6551861111111,245.8356990516186L418.8249388888889,319.77333000302315L419.4133361111111,271.6589789688587L420.058675,291.7807044684887L421.2164888888889,303.09494069218636L421.4062944444445,310.2375572025776L422.108575,301.2164253592491L422.2604194444445,256.4921543598175L422.73493333333334,240.80900347232821L423.07658333333336,248.3519399762154L423.11454444444445,227.60108402371407L423.5510972222222,327.0827933251858L423.5700777777778,271.7638059556484L423.58905833333336,267.74841552972794L423.646,228.52604454755783L424.00663055555555,245.8554173111916L424.67095,266.3510032594204L425.25934722222223,232.4639663696289L425.6579388888889,237.71475350856784L425.9995888888889,305.3571475148201L426.1893944444445,233.8577832877636L427.8786638888889,289.5304072499275L428.14439166666665,294.09392035007477L428.52400277777775,344.3234058320523L428.69482777777773,375.5061199367047L428.8276916666667,336.4644154012203L428.84667222222225,371.27000859379774L429.39710833333334,353.4035239219666L429.58691388888894,348.51918181777006L429.966525,363.1728822588921L431.27618333333334,306.03610730171204L432.2062305555556,285.73203003406525L432.83258888888884,307.3088057935238L433.55385000000007,265.45525497198105L435.66069166666665,240.65333595871928L436.13520555555556,272.98470890522003L436.1921472222222,245.2289833724499L436.3629722222222,279.21247681975365L436.8944277777778,228.19442948698997L437.5587472222222,229.1872522830963L437.78651388888886,279.8496968150139L438.52675555555555,200.18433278799057L439.0012694444444,323.110828012228L439.3239388888889,232.85254529118538L440.6146166666667,310.52687069773674L441.0321888888889,243.18996927142146L441.56364444444444,229.29219162464142L442.5885944444444,360.42839264869696L445.1130083333333,303.3644235730171L445.13198888888894,361.2609975636006L446.93514166666665,291.29769137501717L447.78926666666666,248.457160204649L450.08591388888885,274.3909410238266L450.21877777777775,326.3102420270443L452.59134722222217,242.91835165023807L453.50241388888884,241.0458472967148L454.73615,267.0208061337471L455.09678055555554,252.76444828510284L455.19168333333334,258.6243105530739L455.62823611111116,271.2863544225693L456.04580833333335,296.97205594182014L456.4444,342.6511738300324L457.7350777777778,351.5065262317658L458.74104722222216,282.1251053214073L459.8419194444444,311.2213916182518L460.67706388888894,298.03251630067825L460.75298611111106,257.03836700320244L461.2275,304.3396628499031L464.73890277777775,272.12929597496986L465.02361111111105,260.7642754018307L465.0805527777777,328.3471775650978L465.498125,307.8693998456001L465.61200833333334,279.67144599556923L466.523075,296.8991377055645L466.8077833333333,322.6292755305767L467.6808888888889,291.01629889011383L467.9466166666666,259.8029681146145L468.1554027777778,250.398425668478L468.3262277777778,242.77156016230586L469.19933333333336,239.17176997661593L469.4081194444445,280.5326451957226L469.5220027777778,230.421469271183L470.64185555555554,353.77665406465536L471.1543305555556,362.1616332828999L471.59088333333335,316.90839609503746L472.9195222222222,291.71598812937737L473.33709444444446,317.147880256176L473.9634527777778,283.7696418762207L474.2861222222223,271.36747455596924L474.41898611111105,245.93052646517756L475.1782083333333,299.9479963481426L475.4249555555556,306.6749564409256L475.51985833333333,233.75615841150284L475.63374166666665,372.1395782232285L475.6906833333333,314.2329484820366L477.13320555555555,278.245439440012L477.1521861111112,250.8719447851181L477.1901472222222,307.74659609794617L477.98733055555556,304.1097850203514L478.0442722222222,293.7064649760723L478.63266944444445,261.83585888147354L479.14514444444444,188.89503931999207L479.2020861111111,261.54356798529625L479.29698888888885,325.1312474012375L480.3599,312.15809321403503L480.64460833333334,232.52188524603844L480.8154333333333,276.338329821825L480.85339444444446,278.01303362846375L481.7834416666667,292.3254003226757L482.86533333333335,274.8792909681797L483.71945833333336,280.492759257555L484.4976611111111,369.2729589939118L484.74440833333335,326.7645484805107L484.7633888888889,330.0532283484936L485.1809611111111,367.31023377180105L485.27586388888886,311.81608533859253L485.48465,365.0539817512036L487.5914916666666,246.36028340458873L487.99008333333336,254.70942145586014L489.28076111111113,286.9993354976177L489.29974166666665,233.801942974329L489.3566833333333,334.6853340268135L489.3756638888889,306.25901913642883L490.28673055555555,257.6846877336502L490.74226388888894,263.96323999762535L491.3686222222222,276.4482689499855L491.84313611111116,278.32684046030045L493.24769722222226,290.27767872810364L494.00691944444446,300.08315911889076L494.1587638888889,280.1099666059017L494.7661416666667,266.8386228978634L495.01288888888894,248.35104113817218L496.2276444444445,270.3733035027981L497.46138055555554,242.1040605604649L497.8979333333333,362.52026966214186L499.4923,294.95669251680374L499.54924166666666,330.9183037877083L499.64414444444446,323.499687820673L500.91584166666667,317.1140052974224L501.2574916666666,265.0271271765232L502.68103333333335,351.07036507129675L503.42127500000004,305.8749905824661L503.4402555555555,253.5905928015709L506.42020277777783,272.1404752731323L507.21738611111107,296.6896522641182L507.23636666666664,232.48177459836006L508.4701027777778,274.3225731551647L508.58398611111113,301.1797977089882L508.96359722222223,281.4074954986572L509.07748055555555,267.0483892261982L509.4760722222222,286.79805195331573L509.5899555555556,266.8534537255764L510.7287888888889,291.40909111499786L511.8486416666666,352.3290192186833L512.4560194444445,330.35838386416435L512.5888833333333,335.2267715930939L516.6507222222223,257.0553887486458L517.1252361111111,322.73118129372597L517.3719833333333,314.68922114372253L517.8844583333333,289.03739458322525L518.0173222222222,260.97943475842476L518.2261083333334,264.34120139479637L518.321011111111,249.92338976264L518.4728555555556,242.32556796073916L518.7385833333333,230.37062874436378L519.270038888889,262.0196150839329L520.5796972222222,258.3267389833927L520.6366388888889,268.4497900903225L521.4338222222221,328.85816699266434L522.0981416666666,240.52075734734538L522.8004222222222,285.13306683301926L524.5276527777778,236.87967678904536L524.8313416666667,259.2248467206955L526.8622611111111,295.2734205722809L526.995125,339.77882450819016L527.2228916666667,352.5788400173188L528.1908999999999,282.038423627615L528.3996861111111,290.4090214371681L528.4186666666667,325.0155220031738L530.1269166666667,372.5143375098706L530.1838583333333,323.7358013391495L532.974,280.3718655407429L533.0499222222222,288.9018947482109L533.0689027777777,290.87029388546944L533.3915722222222,261.46048164367676L533.6762805555555,226.2026605606079L533.866086111111,270.5691378414631L534.0748722222222,325.9287414550781L534.169775,287.988787651062L534.2646777777778,248.82332435250285L534.3406,301.44197753071785L534.4544833333333,227.9794948399067L534.9100166666666,281.12318179011345L535.0998222222222,250.64981943368912L535.5933166666666,245.03696909546855L536.4474416666667,264.24328422546387L536.8839944444445,254.66762548685074L537.8520027777778,234.5204516351223L538.3075361111112,265.0631930530071L538.6681666666667,287.66239708662033L538.9338944444444,303.11505219340324L539.5602527777778,342.8054930865765L541.7050555555555,368.8331463038922L542.6351027777778,331.099363476038L544.1725277777778,267.1376550793648L544.3813138888889,301.5071994662285L544.760925,297.50338158011436L545.8997583333334,270.29527312517166L546.1465055555556,254.67554649710655L546.848786111111,241.96811130642894L547.2283972222222,274.51380094885826L547.4371833333333,285.4758050143719L549.0695111111111,256.7650078833103L549.2593166666667,261.5489048361778L551.935575,315.9964125454426L552.6378555555556,290.7213676571846L552.6758166666667,271.4839864373207L553.2262527777777,273.28003337979317L553.9664944444445,371.08844330906874L554.8775611111112,330.6470794081688L555.7886277777778,361.91237425804144L555.8265888888889,329.8258223235607L555.9784333333333,306.9873026609421L556.5478499999999,248.85270512104037L556.9844027777777,242.69201299548152L557.2501305555555,315.40980836749077L558.3320222222222,279.14292922616005L560.1541555555556,325.35230538249016L561.0082805555555,261.2408842742443L561.0842027777778,267.5357841551304L562.2230361111111,310.4960854947567L563.0961416666667,251.4425384104252L563.6655583333334,262.11629635095596L564.0831305555556,220.3312257528305L564.234975,212.6193076968193L566.5506027777777,248.81450450420382L567.1200194444444,216.0557340681553L567.5375916666667,362.38179242610937L568.16395,352.0286387801171L568.7143861111111,342.5865136682988L569.5685111111111,354.7913298606873L570.3087527777778,304.00035148859024L571.9410805555556,275.69268321990967L573.3266611111111,275.59341779351234L573.801175,273.03538089990616L574.0479222222222,240.65563923120501L574.2187472222223,292.9186334311962L575.7182111111111,316.55756837129593L576.8380638888889,296.8307136595249L579.0018472222222,265.4649736583233L579.2865555555555,271.8166688680649L580.2735444444444,285.9086517095566L580.7860194444445,300.46645736694336L581.962813888889,312.3630844652653L582.4373277777778,337.75492212176323L584.1265972222222,291.7032358646393L584.8288777777778,287.6585770249367L585.4931972222223,264.6703446507454L586.1195555555555,282.2717282772064L586.8977583333334,283.0289993286133L588.9476583333334,306.73506623506546L589.2513472222222,268.0930637419224L589.6499388888889,310.8848329484463L589.8207638888889,272.1659798026085L590.1244527777778,260.96499717235565L591.3202277777777,286.38211464881897L591.3392083333333,244.99292603135112L591.6049361111111,291.2518506348133L593.6927972222222,303.2241486608982L593.9395444444444,206.7265816628933L594.1483305555556,211.573902875185L596.0463861111111,340.0556666254997L597.3180833333333,262.8704214692116L598.1152666666667,326.85740968585014L601.1141944444444,244.19273546338084L602.7085611111111,244.63428965210917L602.7465222222222,303.4104328453541L603.5057444444444,274.15010860562325L603.524725,324.4702081978321L603.5437055555556,244.3782893419266L603.8473944444445,261.52216440439224L604.0941416666667,321.6940345466137L604.1321027777777,270.09168630838394L606.0111777777778,274.6577835679054L608.8582611111111,240.159199744463L610.0730166666667,369.825126439333L610.1869,296.40179938077927L610.3007833333334,342.45326092839247L610.3767055555556,363.3790532350541L610.3956861111111,355.5514659583569L611.8192277777778,297.04289561510086L612.57845,334.4046718478203L613.6223805555555,325.0065336227417L615.6912611111111,305.0933947265148L615.9000472222223,254.1137165427208L616.0518916666666,311.50497502088547L616.9629583333334,260.75646674633026L617.4184916666667,330.2784434556961L618.1777138888889,285.0890237689018L618.2346555555556,294.2441386580467L618.8230527777778,286.0197705626488L619.0128583333334,269.44441056251526L619.1457222222223,255.1746824979782L619.4873722222222,263.2980436682701L620.5692638888888,280.6176415681839L620.9488749999999,262.5774002671242L621.0058166666666,282.09808400273323L621.4044083333333,250.67908784747124L623.0367361111112,366.8539611101151L624.7639666666666,314.02773252129555L624.8019277777778,264.0790777504444L625.4093055555555,332.15813851356506L625.7509555555555,360.6881006658078L631.1224527777778,301.3892269730568L631.6159472222222,300.81447622179985L632.4510916666667,281.8172532916069L633.4950222222221,261.45407742261887L634.6718166666667,297.4707987010479L634.9185638888889,265.8276548087597L636.664775,258.8400878608227L637.2152111111111,337.15623980760574L637.9554527777777,309.25254306197166L639.1891888888889,312.705991178751L643.2700083333333,293.6635454595089L644.7694722222222,285.6447303891182L645.2629666666667,304.19568023085594L645.6805388888889,322.7181481420994L646.0411694444444,314.6571438610554L646.4207805555556,259.61196503043175L646.5156833333333,274.2437001168728L646.8193722222222,278.8062582015991L647.0471388888889,302.058748960495L647.3508277777778,263.2481019794941L647.8633027777778,266.32808288931847L649.1539805555556,287.9732826948166L650.0840277777777,206.2107609808445L650.330775,268.07739025354385L650.4826194444445,281.1002052426338L652.2857722222222,340.6241816878319L653.6523722222222,358.4222984910012L654.2787305555556,306.0548143684864L654.4115944444444,314.8470795750618L654.5824194444444,344.02796900272375L655.5314472222223,267.6685312986374L655.5883888888889,311.7145728170872L655.9869805555556,302.28604263067245L656.2147472222223,252.75068482756615L656.5753777777778,290.5052532851696L656.9360083333333,333.2050601243973L659.5173638888889,283.5761108100414L661.0547888888889,231.6625398993492L661.0737694444445,233.49251797795296L661.7191083333333,226.8773508667946L662.0797388888889,264.711354136467L662.9528444444444,279.4821282327175L664.3194444444445,270.28049847483635L664.4143472222222,274.60413417220116L664.9078416666666,339.8515742123127L665.7809472222223,335.23986092209816L666.0656555555555,318.40692764520645L666.9197805555556,319.16599637269974L667.6220611111112,364.4353564679623L668.438225,241.07416069507602L668.8178361111111,338.3041121661663L668.9317194444444,337.86244562268257L669.1784666666666,328.1647134423256L669.7099222222222,306.8633753657341L670.5260861111111,296.80408558249474L671.2853083333333,282.37717321515083L672.5570055555555,256.28547778725624L673.0315194444445,217.5906123816967L673.1643833333334,260.2520500719547L673.2403055555556,295.5521727204323L675.1193805555556,208.52689808607101L675.1763222222222,252.87129765748978L675.9355444444444,267.5215151011944L676.5429222222222,280.28007170557976L677.7197166666666,289.14312040805817L677.9854444444445,212.43476501107216L678.3081138888889,300.82211634516716L678.3270944444445,238.49730437994006L679.1242777777778,333.19674587249756L681.0033527777778,307.8169301748276L681.5158277777778,334.5675862431526L684.2869888888888,336.17998933792114L685.2929583333333,241.09180039167407L687.3428583333333,285.8680354654789L687.5516444444445,226.73494121432304L689.8862527777778,254.45370203256607L691.0061055555556,258.4370151758194L691.7083861111112,237.1826975643635L692.1069777777777,284.8485845923424L692.8092583333333,354.763971477747L693.4925583333332,335.78438824415207L693.5115388888888,336.1973481476307L693.9860527777778,331.5000205338001L695.1628472222222,275.34927091002464L695.2767305555556,313.2209130227566L695.5614388888889,318.76123836636543L696.5104666666666,306.21688610315323L697.0039611111112,349.4206601977349L697.3266305555557,272.14176735281944L697.7631833333332,275.8691363632679L698.6362888888889,293.40782603621483L699.870025,244.65372702479365L700.002888888889,288.9291407763958L700.1547333333333,330.05952021479607L701.0658,277.49024695158005L701.236625,286.61732932925224L702.3564777777777,275.33606922626495L702.603225,234.6599400639534L705.3554055555555,242.0988360643387L705.5831722222222,283.36027732491493L706.2095305555556,281.4187871515751L706.2474916666666,347.4045102894307L707.006713888889,338.74504840373993L708.24045,308.03046038746834L709.6450111111111,344.8000147044659L710.5370972222222,323.27284356951714L711.2203972222222,269.43575924634933L711.7708333333334,308.17809453606606L712.3212694444445,275.0755185484886L712.5680166666667,312.1331504583359L712.6249583333333,338.855998724699L713.877675,277.7639431357384L713.9346166666667,249.8959190249443L714.7507805555556,247.26013264060023L715.4910222222222,286.6429462134838L715.6808277777778,231.0472290813923L715.7377694444444,281.9843809902668L716.7437388888889,296.9909877181053L718.8885416666667,243.33496308326724L719.2491722222222,304.3868518471718L719.3820361111111,265.7787243127823L719.4010166666667,263.0522676408291L719.5338805555555,309.22512850165367L720.7676166666666,321.12653067708015L721.2990722222222,324.1832541525364L721.526838888889,327.8324242532253L721.7735861111112,323.3628397285938L721.90645,294.8920323550701L723.4438749999999,295.6365511417389L724.0702333333334,271.3169710934162L724.1461555555555,306.6103524565697L724.6586305555555,341.4270125925541L724.6965916666667,289.9556699991226L725.9682888888889,333.6803769171238L726.4048416666667,319.5825516283512L727.7334805555556,274.0774712562561L727.9232861111111,289.988084346056L728.2459555555555,317.7828531563282L728.3788194444444,285.3931119143963L728.4357611111111,288.7471822500229L728.7014888888889,264.5738319158554L728.9102750000001,280.4641649723053L731.4916305555555,259.55522587895393L732.1939111111111,286.25386169552803L733.2378416666667,274.3643691241741L733.3707055555556,280.3036662042141L734.6044416666666,341.11629551649094L735.0789555555555,291.2863997220993L735.2497805555556,341.6004883348942L735.4775472222223,321.71285396814346L735.8381777777778,343.07166150212294L736.1608472222223,362.31831198930746L736.4455555555555,304.1109085679054L737.1857972222223,313.5027549266815L737.4135638888889,286.5719941854477L737.8880777777778,312.43044114112854L738.4574944444445,278.9710264503956L738.5903583333334,288.3306269943714L739.6912305555555,231.50445675849915L739.9000166666666,323.49833956360817L740.5643361111111,262.5927928686142L740.9249666666667,300.8179030418396L741.0578305555555,294.71962398290634L741.9309361111111,221.9071697294712L742.917925,304.8980659842491L742.9748666666667,361.27127802371984L743.6391861111111,324.658177703619L744.9298638888889,271.91936111450195L745.4043777777778,228.21841722726822L746.0497166666667,273.97084659338L746.1066583333334,283.1827006340027L747.0936472222222,312.46510258316994L747.1126277777778,246.44381916522983L747.2644722222223,288.2950667142868L747.5112194444445,264.1344124674797L748.5551499999999,360.0831264853478L749.067625,314.520520478487L750.2064583333333,331.0884088873863L750.2254388888889,295.61166456341743L750.7189333333333,319.41834515333176L750.9467,300.1401791572571L751.2314083333333,221.71706548333168L751.6110194444444,300.59785625338554L751.7818444444443,295.68385249376297L751.9526694444445,321.76852574944496L752.5220861111111,225.3862909078598L753.4521333333333,279.1133799254894L754.4960638888889,330.1872675716877L755.1034416666666,256.43221309781075L755.5210138888889,242.06203988194468L756.9065944444444,332.67867809534073L758.3870777777778,310.1664928197861L759.7916388888889,244.43014106154445L760.7216861111111,220.55278933048248L761.4049861111112,312.62672489881516L762.5817805555555,275.59948495030403L763.5497888888889,384.7728030979634L764.0432833333333,329.59802305698395L764.1002249999999,314.95606368780136L765.5427472222223,321.0948466360569L765.9413388888888,290.54356625676155L766.0931833333334,268.1903067827225L766.3399305555556,283.01152816414833L766.3778916666666,312.84379428625107L766.491775,303.80530363321304L767.7065305555556,312.6007147729397L768.3518694444444,250.5444868505001L768.3898305555556,283.225451618433L768.4088111111112,277.63119599223137L770.0411388888889,249.27931612730026L770.0980805555555,306.4671001434326L770.6105555555556,257.08196064829826L773.8562305555555,314.4551300108433L773.9890944444444,215.24891456961632L774.691375,267.6203872859478L775.2418111111111,277.72804579138756L775.3367138888889,238.08440065383914L776.1338972222222,343.8714588284493L777.3106916666667,329.8320580124855L777.6333611111111,304.15472692251205L777.6523416666666,344.13863843679434L778.9050583333334,307.97411447763443L779.0569027777777,309.6508406698704L779.2846694444444,305.1217643022537L779.98695,285.2069400846958L780.0059305555556,292.80931225419044L780.0628722222223,317.6643188893795L781.3155888888889,287.71166464686394L782.3025777777777,267.7807175219059L782.5872861111111,315.9266402423382L782.8719944444445,274.40908631682396L783.1756833333334,293.0846937596798L783.4224305555556,266.46790838241577L784.08675,309.3171470463276L784.4473805555556,259.53550761938095L784.5802444444445,310.41502153873444L789.0027138888889,216.7257616519928L789.4202861111111,273.15228602290154" style="fill: none;" fill="none"></path></g></g></g></g></g><g><g opacity="0.340996"><span fill="rgb(0, 0, 0)" stroke="none" stroke-width="1px">Alt + Scroll to Zoom</span></g></g></g><g transform="translate(48, 377)" clip-path="url(#clip_1)"><clipPath id="clip_1"><rect width="854" height="23"></rect></clipPath><g><g><line x1="0" y1="0" x2="0" y2="5" style="visibility: inherit;" fill="rgb(0, 0, 0)" stroke="rgb(204, 204, 204)" stroke-width="1px"></line><line x1="94.90277777777777" y1="0" x2="94.90277777777777" y2="5" style="visibility: inherit;" fill="rgb(0, 0, 0)" stroke="rgb(204, 204, 204)" stroke-width="1px"></line><line x1="189.80555555555554" y1="0" x2="189.80555555555554" y2="5" style="visibility: inherit;" fill="rgb(0, 0, 0)" stroke="rgb(204, 204, 204)" stroke-width="1px"></line><line x1="284.7083333333333" y1="0" x2="284.7083333333333" y2="5" style="visibility: inherit;" fill="rgb(0, 0, 0)" stroke="rgb(204, 204, 204)" stroke-width="1px"></line><line x1="379.6111111111111" y1="0" x2="379.6111111111111" y2="5" style="visibility: inherit;" fill="rgb(0, 0, 0)" stroke="rgb(204, 204, 204)" stroke-width="1px"></line><line x1="474.5138888888889" y1="0" x2="474.5138888888889" y2="5" style="visibility: inherit;" fill="rgb(0, 0, 0)" stroke="rgb(204, 204, 204)" stroke-width="1px"></line><line x1="569.4166666666666" y1="0" x2="569.4166666666666" y2="5" style="visibility: inherit;" fill="rgb(0, 0, 0)" stroke="rgb(204, 204, 204)" stroke-width="1px"></line><line x1="664.3194444444445" y1="0" x2="664.3194444444445" y2="5" style="visibility: inherit;" fill="rgb(0, 0, 0)" stroke="rgb(204, 204, 204)" stroke-width="1px"></line><line x1="759.2222222222222" y1="0" x2="759.2222222222222" y2="5" style="visibility: inherit;" fill="rgb(0, 0, 0)" stroke="rgb(204, 204, 204)" stroke-width="1px"></line><line x1="854.125" y1="0" x2="854.125" y2="5" style="visibility: inherit;" fill="rgb(0, 0, 0)" stroke="rgb(204, 204, 204)" stroke-width="1px"></line></g><g transform="translate(0, 8)"><text x="0" y="0" dx="0em" dy="0.95em" style="text-anchor: middle; visibility: hidden; font-family: &quot;Helvetica Neue&quot;, sans-serif; font-size: 12px; font-weight: 200;" fill="rgb(50, 49, 63)" stroke="none" stroke-width="1px">-5k</text><text x="94.90277777777777" y="0" dx="0em" dy="0.95em" style="text-anchor: middle; visibility: inherit; font-family: &quot;Helvetica Neue&quot;, sans-serif; font-size: 12px; font-weight: 200;" fill="rgb(50, 49, 63)" stroke="none" stroke-width="1px">0</text><text x="189.80555555555554" y="0" dx="0em" dy="0.95em" style="text-anchor: middle; visibility: inherit; font-family: &quot;Helvetica Neue&quot;, sans-serif; font-size: 12px; font-weight: 200;" fill="rgb(50, 49, 63)" stroke="none" stroke-width="1px">5k</text><text x="284.7083333333333" y="0" dx="0em" dy="0.95em" style="text-anchor: middle; visibility: inherit; font-family: &quot;Helvetica Neue&quot;, sans-serif; font-size: 12px; font-weight: 200;" fill="rgb(50, 49, 63)" stroke="none" stroke-width="1px">10k</text><text x="379.6111111111111" y="0" dx="0em" dy="0.95em" style="text-anchor: middle; visibility: inherit; font-family: &quot;Helvetica Neue&quot;, sans-serif; font-size: 12px; font-weight: 200;" fill="rgb(50, 49, 63)" stroke="none" stroke-width="1px">15k</text><text x="474.5138888888889" y="0" dx="0em" dy="0.95em" style="text-anchor: middle; visibility: inherit; font-family: &quot;Helvetica Neue&quot;, sans-serif; font-size: 12px; font-weight: 200;" fill="rgb(50, 49, 63)" stroke="none" stroke-width="1px">20k</text><text x="569.4166666666666" y="0" dx="0em" dy="0.95em" style="text-anchor: middle; visibility: inherit; font-family: &quot;Helvetica Neue&quot;, sans-serif; font-size: 12px; font-weight: 200;" fill="rgb(50, 49, 63)" stroke="none" stroke-width="1px">25k</text><text x="664.3194444444445" y="0" dx="0em" dy="0.95em" style="text-anchor: middle; visibility: inherit; font-family: &quot;Helvetica Neue&quot;, sans-serif; font-size: 12px; font-weight: 200;" fill="rgb(50, 49, 63)" stroke="none" stroke-width="1px">30k</text><text x="759.2222222222222" y="0" dx="0em" dy="0.95em" style="text-anchor: middle; visibility: inherit; font-family: &quot;Helvetica Neue&quot;, sans-serif; font-size: 12px; font-weight: 200;" fill="rgb(50, 49, 63)" stroke="none" stroke-width="1px">35k</text><text x="854.125" y="0" dx="0em" dy="0.95em" style="text-anchor: middle; visibility: hidden; font-family: &quot;Helvetica Neue&quot;, sans-serif; font-size: 12px; font-weight: 200;" fill="rgb(50, 49, 63)" stroke="none" stroke-width="1px">40k</text></g><line x1="0" y1="0" x2="854.125" y2="0" fill="rgb(0, 0, 0)" stroke="rgb(204, 204, 204)" stroke-width="1px"></line></g></g></g></g></svg>