<svg viewBox="0 0 888 400" xmlns="http://www.w3.org/2000/svg"><g><g><g><g><g><line x1="48.875" y1="377" x2="43.875" y2="377" style="visibility: inherit;" fill="rgb(0, 0, 0)" stroke="rgb(204, 204, 204)" stroke-width="1px"></line><line x1="48.875" y1="329.87500000000006" x2="43.875" y2="329.87500000000006" style="visibility: inherit;" fill="rgb(0, 0, 0)" stroke="rgb(204, 204, 204)" stroke-width="1px"></line><line x1="48.875" y1="282.75" x2="43.875" y2="282.75" style="visibility: inherit;" fill="rgb(0, 0, 0)" stroke="rgb(204, 204, 204)" stroke-width="1px"></line><line x1="48.875" y1="235.62500000000006" x2="43.875" y2="235.62500000000006" style="visibility: inherit;" fill="rgb(0, 0, 0)" stroke="rgb(204, 204, 204)" stroke-width="1px"></line><line x1="48.875" y1="188.5" x2="43.875" y2="188.5" style="visibility: inherit;" fill="rgb(0, 0, 0)" stroke="rgb(204, 204, 204)" stroke-width="1px"></line><line x1="48.875" y1="141.37499999999997" x2="43.875" y2="141.37499999999997" style="visibility: inherit;" fill="rgb(0, 0, 0)" stroke="rgb(204, 204, 204)" stroke-width="1px"></line><line x1="48.875" y1="94.25" x2="43.875" y2="94.25" style="visibility: inherit;" fill="rgb(0, 0, 0)" stroke="rgb(204, 204, 204)" stroke-width="1px"></line><line x1="48.875" y1="47.12499999999994" x2="43.875" y2="47.12499999999994" style="visibility: inherit;" fill="rgb(0, 0, 0)" stroke="rgb(204, 204, 204)" stroke-width="1px"></line><line x1="48.875" y1="0" x2="43.875" y2="0" style="visibility: inherit;" fill="rgb(0, 0, 0)" stroke="rgb(204, 204, 204)" stroke-width="1px"></line></g><g transform="translate(38.875, 0)"><text x="0" y="377" dx="0em" dy="0.3em" style="text-anchor: end; visibility: hidden; font-family: &quot;Helvetica Neue&quot;, sans-serif; font-size: 12px; font-weight: 200;" fill="rgb(50, 49, 63)" stroke="none" stroke-width="1px">0.55</text><text x="0" y="329.87500000000006" dx="0em" dy="0.3em" style="text-anchor: end; visibility: inherit; font-family: &quot;Helvetica Neue&quot;, sans-serif; font-size: 12px; font-weight: 200;" fill="rgb(50, 49, 63)" stroke="none" stroke-width="1px">0.6</text><text x="0" y="282.75" dx="0em" dy="0.3em" style="text-anchor: end; visibility: inherit; font-family: &quot;Helvetica Neue&quot;, sans-serif; font-size: 12px; font-weight: 200;" fill="rgb(50, 49, 63)" stroke="none" stroke-width="1px">0.65</text><text x="0" y="235.62500000000006" dx="0em" dy="0.3em" style="text-anchor: end; visibility: inherit; font-family: &quot;Helvetica Neue&quot;, sans-serif; font-size: 12px; font-weight: 200;" fill="rgb(50, 49, 63)" stroke="none" stroke-width="1px">0.7</text><text x="0" y="188.5" dx="0em" dy="0.3em" style="text-anchor: end; visibility: inherit; font-family: &quot;Helvetica Neue&quot;, sans-serif; font-size: 12px; font-weight: 200;" fill="rgb(50, 49, 63)" stroke="none" stroke-width="1px">0.75</text><text x="0" y="141.37499999999997" dx="0em" dy="0.3em" style="text-anchor: end; visibility: inherit; font-family: &quot;Helvetica Neue&quot;, sans-serif; font-size: 12px; font-weight: 200;" fill="rgb(50, 49, 63)" stroke="none" stroke-width="1px">0.8</text><text x="0" y="94.25" dx="0em" dy="0.3em" style="text-anchor: end; visibility: inherit; font-family: &quot;Helvetica Neue&quot;, sans-serif; font-size: 12px; font-weight: 200;" fill="rgb(50, 49, 63)" stroke="none" stroke-width="1px">0.85</text><text x="0" y="47.12499999999994" dx="0em" dy="0.3em" style="text-anchor: end; visibility: inherit; font-family: &quot;Helvetica Neue&quot;, sans-serif; font-size: 12px; font-weight: 200;" fill="rgb(50, 49, 63)" stroke="none" stroke-width="1px">0.9</text><text x="0" y="0" dx="0em" dy="0.3em" style="text-anchor: end; visibility: hidden; font-family: &quot;Helvetica Neue&quot;, sans-serif; font-size: 12px; font-weight: 200;" fill="rgb(50, 49, 63)" stroke="none" stroke-width="1px">0.95</text></g><line x1="48.875" y1="0" x2="48.875" y2="377" fill="rgb(0, 0, 0)" stroke="rgb(204, 204, 204)" stroke-width="1px"></line></g></g><g transform="translate(48, 0)" clip-path="url(#clip_0)"><clipPath id="clip_0"><rect width="839" height="377"></rect></clipPath><g><g><g><line x1="0" y1="0" x2="0" y2="377" fill="rgb(0, 0, 0)" stroke="rgb(60, 60, 60)" stroke-width="1px" opacity="0.25"></line><line x1="93.2361111111111" y1="0" x2="93.2361111111111" y2="377" fill="rgb(0, 0, 0)" stroke="rgb(60, 60, 60)" stroke-width="1px" opacity="0.25"></line><line x1="186.4722222222222" y1="0" x2="186.4722222222222" y2="377" fill="rgb(0, 0, 0)" stroke="rgb(60, 60, 60)" stroke-width="1px" opacity="0.25"></line><line x1="279.7083333333333" y1="0" x2="279.7083333333333" y2="377" fill="rgb(0, 0, 0)" stroke="rgb(60, 60, 60)" stroke-width="1px" opacity="0.25"></line><line x1="372.9444444444444" y1="0" x2="372.9444444444444" y2="377" fill="rgb(0, 0, 0)" stroke="rgb(60, 60, 60)" stroke-width="1px" opacity="0.25"></line><line x1="466.1805555555556" y1="0" x2="466.1805555555556" y2="377" fill="rgb(0, 0, 0)" stroke="rgb(60, 60, 60)" stroke-width="1px" opacity="0.25"></line><line x1="559.4166666666666" y1="0" x2="559.4166666666666" y2="377" fill="rgb(0, 0, 0)" stroke="rgb(60, 60, 60)" stroke-width="1px" opacity="0.25"></line><line x1="652.6527777777778" y1="0" x2="652.6527777777778" y2="377" fill="rgb(0, 0, 0)" stroke="rgb(60, 60, 60)" stroke-width="1px" opacity="0.25"></line><line x1="745.8888888888888" y1="0" x2="745.8888888888888" y2="377" fill="rgb(0, 0, 0)" stroke="rgb(60, 60, 60)" stroke-width="1px" opacity="0.25"></line><line x1="839.125" y1="0" x2="839.125" y2="377" fill="rgb(0, 0, 0)" stroke="rgb(60, 60, 60)" stroke-width="1px" opacity="0.25"></line></g><g><line x1="0" y1="377" x2="839.125" y2="377" fill="rgb(0, 0, 0)" stroke="rgb(60, 60, 60)" stroke-width="1px" opacity="0.25"></line><line x1="0" y1="329.87500000000006" x2="839.125" y2="329.87500000000006" fill="rgb(0, 0, 0)" stroke="rgb(60, 60, 60)" stroke-width="1px" opacity="0.25"></line><line x1="0" y1="282.75" x2="839.125" y2="282.75" fill="rgb(0, 0, 0)" stroke="rgb(60, 60, 60)" stroke-width="1px" opacity="0.25"></line><line x1="0" y1="235.62500000000006" x2="839.125" y2="235.62500000000006" fill="rgb(0, 0, 0)" stroke="rgb(60, 60, 60)" stroke-width="1px" opacity="0.25"></line><line x1="0" y1="188.5" x2="839.125" y2="188.5" fill="rgb(0, 0, 0)" stroke="rgb(60, 60, 60)" stroke-width="1px" opacity="0.25"></line><line x1="0" y1="141.37499999999997" x2="839.125" y2="141.37499999999997" fill="rgb(0, 0, 0)" stroke="rgb(60, 60, 60)" stroke-width="1px" opacity="0.25"></line><line x1="0" y1="94.25" x2="839.125" y2="94.25" fill="rgb(0, 0, 0)" stroke="rgb(60, 60, 60)" stroke-width="1px" opacity="0.25"></line><line x1="0" y1="47.12499999999994" x2="839.125" y2="47.12499999999994" fill="rgb(0, 0, 0)" stroke="rgb(60, 60, 60)" stroke-width="1px" opacity="0.25"></line><line x1="0" y1="0" x2="839.125" y2="0" fill="rgb(0, 0, 0)" stroke="rgb(60, 60, 60)" stroke-width="1px" opacity="0.25"></line></g></g></g><g><g><line x1="0" y1="895.3750000000001" x2="839.125" y2="895.3750000000001" fill="rgb(0, 0, 0)" stroke="rgb(153, 153, 153)" stroke-width="1.5px"></line></g></g><g><g><line x1="93.2361111111111" y1="0" x2="93.2361111111111" y2="377" fill="rgb(0, 0, 0)" stroke="rgb(153, 153, 153)" stroke-width="1.5px"></line></g></g><g><g><g><g><g><path stroke="rgb(255, 112, 67)" stroke-width="2px" d="M120.01352222222222,-46.59121432891135L120.5729388888889,17.804221849924545L121.63583055555556,53.35091882198179L122.17660000000001,69.81208853376734L122.47495555555555,89.83619997846216L122.77331111111111,81.31893637129684L123.81755555555556,95.30070719945797L124.76856388888889,87.17330605874861L125.10421388888888,97.56140491425322L125.27203888888889,102.11570665276975L125.57039444444445,58.30411683931396L125.6263361111111,59.954622300951144L126.4468138888889,59.28969285040358L127.62158888888888,62.731627435383075L128.03182777777778,38.37681463413696L128.08776944444443,50.21637102993441L128.23694722222223,60.72881332059052L128.9828361111111,68.06872901332031L129.2998388888889,39.84643042690453L129.54225277777778,61.677846280377935L131.20185555555554,85.62481707790033L132.32068888888887,98.7837702659283L134.01758611111111,97.03959852621034L134.24135277777776,123.65409472087069L134.83806388888888,98.45877398549942L134.94994722222222,115.77132107913161L135.32289166666666,126.12085095703398L135.41612777777777,129.89588627612468L136.2552527777778,126.31423564789222L136.47901944444445,115.2645240189882L137.13167222222222,116.56981905473782L137.78432500000002,131.64409401520206L137.80297222222222,91.57302484812806L138.66074444444445,138.9972208732513L138.97774722222223,109.61416197980327L139.01504166666666,109.0852147767834L139.10827777777777,86.11533008992018L139.57445833333333,108.9243320046624L139.59310555555555,108.2612668763852L139.81687222222223,116.82380942650173L139.91010833333334,89.85692985145766L140.45087777777778,65.07966340356182L140.7305861111111,83.01666757329167L140.84246944444445,90.80859234847946L143.30390277777778,81.04236355375247L144.3295,86.18325790733695L145.24321388888887,109.02807477099066L147.23846666666665,136.7560743509672L148.56241944444446,149.8006678592527L149.38289722222223,151.90101667471916L149.8863722222222,147.49389480488404L149.9423138888889,103.30445095859119L151.02385277777776,111.7013845977911L152.17998055555555,100.02890965567406L152.83263333333335,102.38531735674371L153.46663888888887,125.06883848390481L153.7277,163.04054065156885L153.76499444444443,130.19737421041077L153.78364166666665,152.66873045304632L154.86518055555555,151.15535275661472L158.12844444444445,137.90870666815945L160.3661111111111,126.10735538193052L160.7017611111111,114.51260242812901L160.73905555555555,113.85181902619053L161.6714166666667,138.32671447260284L162.7156611111111,119.32277493276058L162.99536944444444,130.01915345548315L163.965025,100.08419498180592L164.35661666666667,127.95582561716583L164.4871472222222,148.0164593042442L166.48239999999998,166.8039895881121L167.00452222222222,151.16556639605184L167.52664444444446,148.43357693632493L168.49630000000002,161.3516945569518L169.65242777777777,153.53799345068944L171.47985555555556,137.32204005702022L172.05791944444445,122.96900242318918L172.15115555555556,111.01127769798165L173.49375555555557,136.320919395984L173.73616944444444,144.58160671085176L173.77346388888887,139.40155283504757L175.2838888888889,156.7553663247468L176.99943333333334,161.8131188984896L177.3164361111111,187.62109064079434L177.70802777777777,179.94101963649462L179.53545555555556,200.19645521766108L180.20675555555556,188.03084435299735L180.28134444444444,178.82221100470846L180.43052222222224,193.67950941170113L181.81041666666667,205.55086337950735L182.5190111111111,202.49316643134893L182.78007222222223,176.40126892600142L183.4886666666667,187.55754794283922L183.71243333333334,175.0651903724921L184.49561666666665,182.19139898873885L185.76362777777777,172.05111020241694L185.9314527777778,176.47152231594632L185.98739444444445,211.06955224550188L187.40458333333333,195.77384154961368L187.4418777777778,194.43396827558195L188.44882777777778,187.7966303526133L188.97095000000002,208.5393970786792L190.92890833333334,218.6670212137259L192.60715833333333,206.80170974657278L192.9055138888889,206.26478126958222L193.166575,214.60477134773265L194.30405555555555,221.51218977683266L196.1128361111111,206.98276365466992L196.70954722222223,196.5957185546641L198.85397777777777,172.28021832228205L199.1336861111111,158.9276968593627L199.95416388888887,193.58357647390542L201.53917777777778,203.55882438022726L201.85618055555554,214.62249795197746L201.91212222222222,189.29635842799723L202.58342222222223,227.6414458403563L202.7139527777778,224.27850013074735L203.38525277777777,222.6379300898162L203.77684444444444,232.81086469565915L204.93297222222222,228.64805238768508L205.30591666666666,240.34227616384652L207.37575833333335,256.5964386510553L207.56223055555554,257.8936790256323L208.8488888888889,250.84831221274266L209.09130277777777,223.0230430803998L209.2031861111111,228.69548877729798L209.44559999999998,241.14544650705952L210.50849166666669,235.6427163767356L210.93737777777775,205.17522646710498L211.03061388888887,208.19526164367926L212.13080000000002,202.79608489653552L212.57833333333335,206.20389065492807L214.36846666666668,207.0759275278369L214.816,191.75901669984577L215.82295,209.6180977983804L216.36371944444443,235.55132394811696L217.37066944444447,243.03746938575017L218.0979111111111,245.4229544035716L218.15385277777776,256.24074368668335L218.37761944444443,279.67393012638524L218.95568333333335,288.6946413266399L220.89499444444445,266.04094003127443L221.04417222222222,263.9685197382356L221.32388055555558,234.32342577631383L223.1326611111111,235.7755707660622L223.6174888888889,244.42834588046705L224.02772777777776,241.74538073632627L225.74327222222223,216.24414939697692L225.89245,224.49188871989318L226.65698611111114,217.4241238105874L227.7944666666667,202.30347977093342L228.37253055555553,210.47757077223955L229.56595277777777,203.7978905558997L230.088075,234.04410365345558L230.1067222222222,263.37072519733L230.46101944444447,268.47069211169173L230.88990555555554,260.06289202787934L231.24420277777776,283.6305863429216L232.15791666666667,283.25254167134204L232.34438888888891,278.1361707390227L232.40033055555557,290.8518991911935L232.68003888888887,296.6535266306715L233.29539722222222,275.4647469798754L236.57730833333332,277.4903108286876L236.6891916666667,249.17704421329609L237.93855555555555,242.72378070383138L238.46067777777776,233.45630006330526L238.64714999999998,240.90984052620718L239.29980277777776,245.2865756166123L240.54916666666668,262.51522940469647L241.1458777777778,256.11816958232436L242.2460638888889,236.6117035129292L242.89871666666664,236.54514742962263L243.32760277777777,241.43048672122796L243.64460555555553,249.61229766752155L245.77038888888887,233.49396705237527L246.42304166666668,238.82041849856085L246.53492500000002,260.8361603150636L247.82158333333334,246.41170613347714L248.64206111111113,246.49886278140076L249.18283055555554,263.97173912422386L249.27606666666665,237.57029756961182L249.44389166666667,235.78923707638927L251.1221416666667,250.7640508975669L251.17808333333335,209.30300227201482L251.70020555555553,232.03753212330636L251.88667777777778,223.4094701006287L252.96821666666665,243.4117155786915L253.62086944444442,238.71231495836756L254.2362277777778,237.91773422658068L254.254875,255.16097109377156L255.37370833333335,253.27415439402927L257.6859638888889,292.4760508353464L257.74190555555555,317.7228903302522L258.78615,320.74029826694556L259.2709777777778,311.09920929416324L259.32691944444446,312.2913817438143L259.7185111111111,307.31243385509595L259.84904166666666,304.5415727355238L260.93058055555554,301.4724194680546L261.0424638888889,284.361354474717L262.0867083333334,288.8144468095861L265.2753833333333,259.4602083699085L265.4059138888889,240.15823179103006L265.9093888888889,243.4948586083476L266.9536333333333,232.06940776449585L267.5503444444444,246.5984380861649L268.74376666666666,263.8846815836745L268.79970833333334,253.6560035116862L269.1726527777778,244.96748982473557L269.78801111111113,247.48573704126088L271.2611416666667,279.6652641151107L271.3916722222222,314.5977067741011L271.6340861111111,300.2582294459494L272.044325,292.9884187051863L272.75291944444444,309.8343012970216L273.3123361111111,313.13998631486453L273.74122222222223,305.46120295434696L274.0768722222222,296.82774522012176L275.38217777777777,290.14537514511164L276.78071944444446,277.7212111071553L277.97414166666664,269.0326305220012L279.1862111111111,274.2097128861835L280.7898722222222,273.64856826267777L281.2747,278.4697287738451L282.8410666666667,266.61235796571543L284.8549666666667,280.86848408675655L284.9854972222222,284.962462453225L287.09263333333337,286.90239960442705L287.148575,295.9819117098493L287.54016666666666,294.3790210073854L288.64035277777776,278.72602595005424L288.826825,277.1080769128441L288.9014138888889,274.9014725939536L289.44218333333333,280.07188451624535L290.0575416666667,276.4818554898299L291.0271972222222,260.3455134737609L291.3442,252.59443485189186L291.60526111111113,260.9674565640015L291.90361666666666,264.95441496651904L292.2206194444445,255.34269782472572L292.96650833333337,258.6106077824171L293.82428055555556,257.00128140414563L293.84292777777773,250.84318808534624L294.2531666666667,265.9802474726372L294.90581944444443,273.72687718565066L295.09229166666665,281.6456142979551L295.39064722222224,227.9155547212177L295.55847222222224,240.40943009797408L295.8195333333333,257.22724513497167L296.5281277777778,266.23400288990865L296.5840694444444,270.5011173020108L297.218075,257.4911965328636L297.29266388888885,260.1676506279815L297.72155,238.4849664496725L297.83343333333335,234.58004601760769L297.8707277777778,236.9457916734462L298.6166166666667,280.08599780308276L298.7285,284.88735834543155L298.9709138888889,304.70893480649147L299.06415,329.7576338188085L300.2575722222222,339.8591084799906L300.61186944444444,333.34664225111845L300.77969444444443,311.06527253109493L301.61881944444445,312.3402077443498L302.0477055555555,302.3471561006962L302.085,306.2852382261908L302.10364722222226,305.09327292438485L303.20383333333336,287.8047336578139L306.1687416666667,269.86534874676283L307.15704444444447,246.17817947291508L307.52998888888885,260.3280607046078L308.10805277777774,241.27147970088666L308.2758777777778,256.235146054556L308.59288055555555,251.3562743478596L308.9098833333333,245.59053313813084L309.4879472222222,257.99616411972926L310.43895555555554,242.5195321419769L310.86784166666666,235.54826315515828L311.12890277777774,248.08690047427172L312.5087972222222,267.12390607693294L314.63458055555554,303.5886811023862L316.42471388888885,293.15896995102827L316.51795,305.74694568655167L317.18925,299.10995470727244L317.7673138888889,308.3083436563299L319.57609444444444,275.8272010728529L320.06092222222225,270.11354559927054L320.13551111111116,268.05691175621075L320.4338666666667,254.96188710308866L321.21705,258.8724375020075L322.41047222222227,250.893455603755L322.4664138888889,235.7225545639017L322.7647694444444,265.21059166158557L324.5549027777778,242.5870896265823L325.5432055555556,280.5184756091785L327.31469166666665,285.5917923314305L329.51506388888885,285.39484203236884L330.0371861111111,295.08978113161083L331.1373722222222,300.8846781171951L332.0137916666667,277.59871357188183L333.35639166666664,266.62911908331847L333.71068888888885,278.4934964806041L334.5125194444445,279.52784326256517L334.88546388888886,290.6687214409185L335.9670027777778,274.36813943593927L336.28400555555555,274.6728429616047L336.7874805555556,256.0439061415525L337.17907222222226,242.9543110544879L337.4028388888889,239.22013099285357L337.68254722222224,249.89482456023927L337.7571361111111,254.19092170939115L338.0741388888889,273.83982894745634L338.7454388888889,268.34200097279063L339.49132777777777,315.43722085449883L340.1066861111111,311.5086702483522L342.15788055555555,313.72224368915715L343.14618333333334,298.15973783889865L343.22077222222225,284.8166749439207L343.59371666666664,273.4559017396907L344.5074305555556,257.1485619769657L345.0482,259.5408519164422L345.83138333333335,274.6358002099812L346.7823916666667,267.71064229449155L347.2112777777778,255.04442764306376L348.3114638888889,258.48481194367594L348.36740555555554,264.1309121262466L349.579475,272.35268052884544L350.12024444444444,262.116388979367L350.75425,271.3403852241109L351.4069027777778,296.5705940638107L351.8357888888889,274.8998408862425L352.1341444444444,251.42037545135457L353.49539166666665,280.4972584753682L353.84968888888886,304.1802007621199L354.25992777777776,322.6253134647411L355.789,310.92070126768374L358.4182583333333,305.59808610818635L359.648975,300.22490217054997L359.77950555555555,266.0059550867385L359.94733055555554,258.2558391014282L360.26433333333335,276.2052769016947L360.4881,270.3258748621777L360.59998333333334,281.8492542011163L361.70016944444444,287.68523792640104L362.63253055555555,266.41554829010806L363.50894999999997,266.1556728513804L364.18025,233.40066696594747L364.62778333333335,248.67691427106018L364.683725,242.4036586501262L366.08226666666667,240.35538486349952L366.19415000000004,231.40160420959225L366.75356666666664,281.424657007605L366.9213916666667,320.7890783790053L366.99598055555555,343.87056311627026L367.10786388888886,334.1070909181821L368.8234083333333,319.91095896241586L368.84205555555553,327.1295520047994L368.9912333333333,327.739495860377L369.0658222222222,320.82559309413386L369.38282499999997,301.2198886633537L370.57624722222226,290.4573895788563L370.9305444444445,291.2653328571542L371.56455,284.851516842474L373.44791944444444,268.3489133713421L374.62269444444445,249.68410731540783L375.4804666666667,250.52151897660895L376.30094444444444,235.78879596657745L376.6552416666667,222.8225517622661L377.9046055555556,240.20087759208866L378.98614444444445,256.38639136858103L379.4150305555555,261.14543908063956L380.9254555555556,291.2641760541463L381.76458055555554,307.614255740253L381.801875,326.56827284932604L382.3985861111111,311.7091734292536L382.97664999999995,310.19175758853135L384.0768361111111,290.8637121015464L386.7433888888889,284.22968423924897L387.19092222222224,295.62436414099966L387.35874722222223,294.72572694025774L387.47063055555554,270.22707279802773L388.3284027777778,281.470930399188L388.3843444444444,301.90043625932253L388.73864166666664,303.5255598527272L391.200075,272.1938555182266L391.4611361111111,241.38941270954896L393.36315277777777,252.3965670874565L393.75474444444444,307.9196707970411L395.09734444444445,307.2851616720265L396.234825,293.48743331312573L397.577425,289.86987826752323L397.98766388888885,288.4393136592367L398.30466666666666,286.57196177790524L399.16243888888886,315.1524403557179L399.79644444444443,320.83514942318186L401.00851388888884,305.07363800758117L402.0154638888889,292.96819250913853L402.50029166666667,279.41404762943023L402.5935277777778,285.6354424779381L403.9174805555555,266.52934401182927L404.58878055555556,278.39698131649857L405.50249444444444,282.18995290857055L406.6586222222222,287.24907774842677L406.67726944444445,262.02596094081935L407.311275,290.0186322919734L407.5723361111111,306.95625151349356L408.35551944444444,327.63271140547545L411.4696055555556,329.3274265020606L412.04766944444447,302.88897787866097L412.681675,313.17405116162956L413.81915555555554,290.6845205760137L414.0056277777778,270.2275039038739L414.69557499999996,247.8190522600222L414.8447527777778,254.34474692398356L415.3109333333333,263.68242668899325L415.64658333333335,238.9034997331645L415.68387777777775,275.24919380590586L416.1127638888889,278.06764539387984L416.1314111111111,255.0632759350965L416.15005833333333,267.42657123913943L416.206,263.61718489474396L416.56029722222223,256.79235355702843L417.21295,253.4003011622894L417.79101388888887,250.35091076128884L418.18260555555554,257.738950537641L418.5182555555556,265.0177652996773L418.7047277777778,255.43380688202353L420.36433055555557,250.04139408214078L420.62539166666664,242.2559832855653L420.9983361111111,284.5226211979742L421.1661611111111,303.7951109430048L421.2966916666667,322.7673223031076L421.3153388888889,327.82323377206995L421.85610833333334,312.2197108916943L422.0425805555556,315.81308918312226L422.41552499999995,307.1230622000398L423.7021833333333,287.44602282446033L424.61589722222226,293.3426391697014L425.23125555555555,292.85075849390535L425.93985000000004,281.30754834471054L428.00969166666664,278.7283805612201L428.4758722222222,269.7925210597202L428.53181388888885,284.4772509337714L428.69963888888884,268.591682195738L429.2217611111111,272.7746769905538L429.8744138888889,283.4514062118798L430.09818055555553,265.56751411630336L430.82542222222224,255.45780405684485L431.29160277777777,266.2977059440861L431.6086055555556,263.7691336963803L432.8766166666667,277.1849710043807L433.2868555555556,296.793935102018L433.8089777777778,266.57159992563254L434.81592777777774,305.96794576947406L437.29600833333336,297.1659242838891L437.3146555555556,292.5509750920697L439.08614166666666,279.66171839703117L439.9252666666667,278.9830767683327L442.1815805555555,287.7755665762508L442.3121111111111,298.39292236466906L444.64301388888885,288.9758747953159L445.5380805555555,261.74676946031946L446.75014999999996,263.9376615597481L447.1044472222222,274.1841976352736L447.1976833333334,279.77814292360574L447.6265694444445,277.601690050657L448.03680833333334,283.76511752408476L448.4284,324.1124413240059L449.6964111111111,323.41578616071376L450.68471388888884,310.1701607547321L451.76625277777777,328.1324212933848L452.58673055555556,307.18935612352317L452.6613194444444,321.13056550926933L453.12750000000005,299.83390536610466L456.5772361111111,279.90769750299563L456.8569444444444,309.77160370601723L456.91288611111105,287.6620602622838L457.32312500000006,300.33120485634873L457.43500833333337,305.7162244110779L458.330075,284.1320030921386L458.6097833333333,292.97849508724727L459.4675555555556,266.5081959760315L459.7286166666666,255.67000348544883L459.9337361111111,257.24863072143063L460.1015611111111,262.88459571543973L460.95933333333335,260.9328517695882L461.1644527777778,247.61681811694012L461.27633611111116,238.70730460097613L462.3765222222222,280.9003316426886L462.87999722222224,292.2145207205184L463.30888333333337,307.85258906357103L464.6141888888889,299.9055404738939L465.02442777777776,298.84355763652053L465.6397861111111,298.42725738321616L465.9567888888889,310.2738823201351L466.0873194444444,283.9008817139919L466.83320833333335,283.24957987449505L467.07562222222225,278.8450824307319L467.16885833333333,290.5938147000621L467.28074166666664,294.4476398761363L467.33668333333327,296.0738519033963L468.75387222222224,287.06508389718385L468.77251944444447,267.8688611126367L468.8098138888889,264.51100390770574L469.59299722222227,272.05774668227747L469.6489388888889,271.6321610651679L470.2270027777778,280.35017953170944L470.7304777777778,288.3602877250529L470.78641944444445,276.839566301776L470.87965555555553,267.2720782229144L471.9239,277.85194502287135L472.2036083333333,265.8907364011587L472.3714333333333,270.2908429861534L472.4087277777778,283.2245575046819L473.3224416666667,290.8315343294312L474.38533333333334,255.71170622311655L475.22445833333336,271.7083621514L475.9889944444444,294.1324150498008L476.2314083333333,305.8258208236274L476.2500555555556,316.75875329978334L476.66029444444445,323.8439735055391L476.7535305555555,312.5532745528474L476.95865000000003,312.0738000040206L479.02849166666664,296.31594406157444L479.42008333333337,308.53394598120286L480.68809444444446,301.11288234206336L480.70674166666663,297.43848060734456L480.7626833333333,276.7691219995463L480.78133055555554,285.3451508611468L481.6763972222222,288.86544428646727L482.1239305555556,274.55573693740473L482.73928888888884,263.34665369885033L483.2054694444445,266.8812827223353L484.58536388888893,277.8349415870794L485.33125277777776,280.4288572557145L485.4804305555556,249.69912391229718L486.0771416666667,248.94563028409627L486.3195555555556,246.25659586903188L487.5129777777778,254.60722187707862L488.7250472222222,272.43812896937163L489.1539333333333,285.18809129077215L490.7203,325.52103336619155L490.77624166666664,328.67589902858026L490.86947777777783,327.08069763171727L492.1188416666667,297.0384360884908L492.4544916666666,297.0402873119881L493.85303333333337,302.53244459397604L494.58027500000003,311.63713147501363L494.5989222222222,294.9928646341575L497.52653611111117,272.4387959513434L498.3097194444444,265.32239551981496L498.3283666666667,258.1074225285066L499.54043611111115,261.05149911513405L499.65231944444446,265.93098074597407L500.0252638888889,263.49191000701364L500.1371472222222,268.7474392333113L500.5287388888889,264.33397858610647L500.64062222222225,256.6812393860274L501.7594555555556,259.72760696388804L502.8596416666666,286.26945139871555L503.4563527777778,322.421470081249L503.5868833333333,326.7894655677313L507.5773888888889,299.64674661234824L508.0435694444445,295.1981381396997L508.2859833333333,298.56597383144776L508.7894583333333,302.0480286081033L508.91998888888884,297.1074041962264L509.12510833333334,275.3973801517271L509.2183444444444,267.68176829718254L509.36752222222225,288.12238740863035L509.62858333333327,279.9968201037742L510.1507055555556,279.4521263549624L511.43736388888885,293.55390779435027L511.49330555555554,280.6595285311901L512.2764888888888,278.3550961003043L512.9291416666666,259.1852631917797L513.6190888888889,246.82733256526012L515.3159861111111,249.68964119498258L515.6143416666667,259.5319605096836L517.6095944444444,281.97552267459986L517.740125,298.5842674240348L517.9638916666667,310.3855707445668L518.9149,305.0851283430414L519.1200194444444,306.8927623843763L519.1386666666667,319.46208860967243L520.8169166666667,316.3760705023628L520.8728583333334,307.92842654166355L523.614,301.5570867763623L523.688588888889,305.40287697950987L523.7072361111111,313.52257495307924L524.0242388888888,312.50480240097045L524.3039472222222,300.5668245524788L524.4904194444445,290.55917049471293L524.6955388888889,293.87768577947475L524.788775,269.8475908959761L524.8820111111112,257.87832833080626L524.9566000000001,264.6880837723561L525.0684833333333,298.2320955303281L525.5160166666666,301.9626630131585L525.7024888888889,298.31572658921374L526.1873166666667,289.08480913105666L527.0264416666666,288.40124246277253L527.4553277777778,270.0271500396599L528.4063361111112,278.1116992621344L528.8538694444445,265.76028655700213L529.2081666666667,261.75293412645055L529.4692277777777,252.842800324198L530.0845861111111,282.21735056938905L532.1917222222222,290.4835138362776L533.1054361111112,286.6153413678486L534.615861111111,295.6519306913185L534.8209805555556,288.713984824131L535.193925,316.09285991007687L536.3127583333334,301.77927222618223L536.5551722222223,297.0267536685989L537.2451194444444,281.0140963701085L537.6180638888889,283.1705617134378L537.8231833333333,287.0946208014849L539.4268444444444,283.8970010742404L539.6133166666667,296.5983221331155L542.242575,273.38939683430885L542.9325222222222,281.1586663174241L542.9698166666667,283.026751723743L543.5105861111111,263.9830703060964L544.2378277777779,294.3173038912499L545.1328944444444,314.32895775751376L546.0279611111112,321.8058737523324L546.0652555555555,314.1837535981517L546.2144333333333,314.85574079061627L546.7738499999999,318.34156558814686L547.2027361111111,309.6165333384457L547.4637972222222,328.6222322341313L548.5266888888889,302.14394247272674L550.3168222222222,305.2929202302638L551.1559472222222,277.5334374299254L551.2305361111111,304.78616592828064L552.3493694444444,285.06821883644835L553.2071416666666,304.6611206944357L553.7665583333334,271.1348618039829L554.1767972222223,282.362779996952L554.325975,270.0819830072884L556.6009361111111,270.638222776232L557.1603527777778,263.5310482516157L557.5705916666667,285.8552267512243L558.18595,295.94362776044375L558.7267194444445,326.0524506840907L559.5658444444445,325.37231975041647L560.2930861111112,321.32044164683117L561.8967472222222,329.8843286773306L563.2579944444444,307.3409434402431L563.724175,299.34445158508106L563.9665888888889,296.91324198166546L564.134413888889,293.37343649816523L565.6075444444444,276.1267604276658L566.7077305555556,266.35225839883805L568.8335138888889,240.18487311286162L569.1132222222221,247.321017866626L570.0828777777778,247.09586335736196L570.5863527777777,242.17791859816123L571.7424805555556,295.1351027399934L572.2086611111112,308.6618998712681L573.8682638888889,296.2431017438401L574.5582111111112,296.79590822934085L575.2108638888889,270.28127721356736L575.8262222222222,264.1134087169611L576.5907583333334,283.87031569030546L578.6046583333333,271.806379544417L578.9030138888888,259.58510692577363L579.2946055555556,239.33145659959786L579.4624305555556,248.42069692490387L579.7607861111111,262.4649306599968L580.9355611111112,272.3336115994855L580.9542083333333,277.1191832374814L581.2152694444444,282.1197387189437L583.2664638888889,266.6817578083736L583.5088777777778,252.3670949820555L583.7139972222222,265.3580953886435L585.5787194444445,302.4816686278777L586.8280833333333,304.4522521356462L587.6112666666667,289.777750900967L590.5575277777778,288.20608977769797L592.1238944444444,296.79661880907406L592.1611888888889,279.1229891477644L592.9070777777778,288.1399964152944L592.925725,270.5875852858527L592.9443722222222,264.26607129308604L593.2427277777778,276.7632991154969L593.4851416666667,262.8183487343777L593.5224361111111,262.7564847283357L595.368511111111,268.3792595990177L598.1655944444444,261.3417059378431L599.3590166666667,306.5848603604202L599.4709,325.3956031297424L599.5827833333334,297.47147505848284L599.6573722222223,309.0432949028532L599.6760194444444,305.0205402113271L601.0745611111112,313.5541280470653L601.8204499999999,298.765961871288L602.8460472222222,285.53693347319467L604.8785944444444,261.1842394897014L605.0837138888888,268.0987156289023L605.2328916666667,278.49738176209945L606.1279583333334,280.68547343935495L606.5754916666666,263.27283549145415L607.3213805555556,282.72265089652274L607.3773222222222,300.4126877015909L607.9553861111111,264.82110874808313L608.1418583333333,293.38468260143094L608.2723888888889,268.03515708788575L608.6080388888889,272.0043535849115L609.6709305555555,256.49483729724045L610.043875,235.77089573934052L610.0998166666667,243.62546265121918L610.4914083333333,256.5203929185666L612.0950694444444,292.41053155897845L613.7919666666667,310.49377325677153L613.8292611111111,315.4326896518664L614.4259722222222,327.35731995404944L614.7616222222222,304.2991403955292L620.0387861111111,287.06862477171853L620.5236138888889,304.05962092702646L621.3440916666667,269.1906587304178L622.3696888888888,262.364252890438L623.5258166666666,234.88289059715876L623.7682305555555,250.11611262272248L625.4837749999999,264.26879819220574L626.0245444444444,290.075693011202L626.7517861111111,310.56363881821494L627.9638555555556,336.2207123350803L631.9730083333333,321.6797621316734L633.446138888889,293.11044345301525L633.9309666666667,281.10739698411305L634.3412055555556,277.3983413839416L634.6955027777778,288.7983939209031L635.0684472222222,274.0661326383618L635.1616833333334,269.6196220955293L635.4600388888889,257.57937419659135L635.6838055555555,258.6499950423612L635.982161111111,263.9576740583644L636.4856361111111,262.0264099193135L637.7536472222223,257.44321331694834L638.6673611111111,276.6181573826976L638.909775,272.6380768393818L639.0589527777778,276.168517492732L640.8304388888889,285.1444667354348L642.1730388888889,299.2312829002811L642.7883972222222,285.75145469338133L642.9189277777778,284.6327434791948L643.0867527777779,278.4962668546334L644.0191138888889,300.8965935664353L644.0750555555555,290.6074877236471L644.4666472222223,264.93278909052515L644.6904138888889,244.92066092684925L645.0447111111112,260.84457398292466L645.3990083333333,295.20761582158235L647.9350305555556,267.935035389079L649.4454555555556,258.03703141296705L649.4641027777777,227.55738875916475L650.0981083333334,255.13488164932062L650.4524055555556,253.64369777077758L651.3101777777778,275.24005002519084L652.6527777777778,280.32610744679323L652.7460138888889,252.31895509031023L653.2308416666666,280.9068612257636L654.0886138888889,304.9811297297476L654.3683222222222,328.6954525136947L655.2074472222222,319.3521308555603L655.8973944444444,290.8649121555328L656.699225,282.3296539326095L657.0721694444444,275.6823169433822L657.1840527777778,284.02174816392363L657.4264666666667,292.4489461771399L657.9485888888888,284.6855873937459L658.7504194444444,271.3205055281551L659.4963083333333,263.285052614512L660.7456722222222,275.4842454654585L661.2118527777777,258.4201950945026L661.3423833333334,240.09824469790252L661.4169722222223,246.35696738425125L663.2630472222222,245.4776347485973L663.318988888889,257.3581123475906L664.0648777777777,268.5303386762546L664.6615888888889,266.17334205596495L665.8177166666667,272.12761612349067L666.0787777777778,257.2437098360855L666.3957805555555,255.5516863546847L666.4144277777777,249.40855628741264L667.1976111111111,278.1864388018398L669.0436861111111,303.14322213110614L669.5471611111111,290.9616645799714L672.2696555555556,292.54050803343284L673.2579583333334,301.179890311717L675.2718583333333,292.2705705862993L675.4769777777777,300.5291621864888L677.7705861111111,292.5786207545432L678.8707722222222,259.08120732478096L679.5607194444444,250.68976524455422L679.952311111111,241.25893030752584L680.6422583333334,288.66387252920777L681.3135583333333,307.2623366648788L681.3322055555556,307.24173497765275L681.7983861111111,296.16937408214227L682.9545138888889,303.60221072057146L683.0663972222222,308.1433474303439L683.3461055555556,306.9285346675607L684.2784666666666,309.975351036113L684.7632944444445,318.50259314806556L685.0802972222223,298.52288588780937L685.5091833333333,276.78087108670934L686.3669555555556,258.57466898762743L687.579025,275.8290709638808L687.7095555555555,279.56875842715584L687.8587333333334,277.1289955133514L688.7538,281.4631599756668L688.921625,285.5281579478139L690.0218111111111,287.31302734515396L690.264225,288.55832356394126L692.9680722222222,275.79643739569656L693.1918388888889,265.8194945890216L693.8071972222223,257.5674256109302L693.8444916666666,303.46351974148183L694.5903805555556,316.48500923477786L695.80245,309.86849628784165L697.1823444444445,309.638136785614L698.0587638888888,297.72069346987456L698.7300638888889,310.01672337104833L699.2708333333334,308.39587142258864L699.8116027777778,288.62544342392664L700.0540166666667,305.740309467995L700.1099583333333,294.4747324294353L701.340675,293.31256305614136L701.3966166666667,291.6539092030467L702.1984472222223,273.79527929820665L702.9256888888889,274.8070390665415L703.1121611111112,270.6939368274143L703.1681027777778,270.34611983456193L704.1564055555556,280.76980732296687L706.2635416666667,257.90643105754134L706.6178388888889,258.6254071226648L706.7483694444445,250.88983794635124L706.7670166666667,262.5001623903846L706.8975472222222,261.76695532054515L708.1096166666666,284.1614722636391L708.6317388888889,307.0066123501688L708.8555055555556,320.9835051117081L709.0979194444445,315.2339069853865L709.22845,329.2766150361683L710.738875,332.99772154846113L711.3542333333334,324.72389003967237L711.4288222222223,306.13356593450897L711.9322972222222,302.9344476890624L711.9695916666667,330.44594538402913L713.2189555555556,334.11925689096665L713.6478416666667,303.85258465835705L714.9531472222222,290.7954421867684L715.1396194444445,273.2141794341657L715.4566222222222,273.2096908675345L715.5871527777778,281.6102795354552L715.6430944444444,280.4330778689401L715.9041555555556,292.82779323883153L716.109275,279.42144460575156L718.6452972222222,258.91151577887763L719.3352444444445,248.76101705227993L720.3608416666667,239.32897279736216L720.4913722222221,253.1751609687615L721.7034416666667,285.57521642712413L722.1696222222222,305.95617583672794L722.3374472222223,311.05269631910676L722.5612138888889,306.42841962080223L722.9155111111111,301.6551523870291L723.2325138888889,317.3071209112443L723.5122222222222,332.72035961864214L724.2394638888888,311.0431957216134L724.4632305555556,321.5601631028098L724.9294111111111,300.4186836733009L725.4888277777778,299.38851209006214L725.6193583333334,318.0274299712271L726.7008972222222,326.85395993776865L726.9060166666667,292.78618712417926L727.5586694444444,301.57755674834635L727.9129666666668,294.7852306122517L728.0434972222222,287.37116843193394L728.9012694444444,298.9736640675641L729.870925,284.2487386836873L729.9268666666667,274.2186209782521L730.5795194444445,280.2746417894697L731.8475305555555,257.6139607533656L732.3137111111112,257.6205895486379L732.9477166666666,257.1069709386172L733.0036583333334,252.95741315637488L733.9733138888888,246.77898198339017L733.9919611111111,234.61259891970556L734.1411388888889,240.01892342796089L734.3835527777778,250.5583168782601L735.40915,278.86723936306294L735.912625,290.3061554116419L737.0314583333333,299.7806070853717L737.0501055555555,325.1238997584252L737.5349333333334,320.69044388566425L737.7587,329.48725218316326L738.0384083333333,322.5202193185116L738.4113527777778,321.8227048948064L738.5791777777778,309.2838595887813L738.7470027777778,325.22784298543894L739.3064194444444,322.20074802568416L740.2201333333334,313.5391427512816L741.2457305555556,298.6718956730276L741.8424416666667,320.7858408988422L742.2526805555556,286.5630438864772L743.6139277777777,267.5792770588722L745.0684111111111,251.81279923941653L746.4483055555555,254.77373075739123L747.3620194444445,265.22257123145806L748.0333194444445,276.814547227343L749.1894472222222,322.8591207185508L750.1404555555555,309.6237660598231L750.6252833333333,311.2557626695318L750.6812249999999,321.66473795955676L752.0984138888889,298.48497446766675L752.4900055555555,291.0196953439186L752.6391833333333,297.4738590016049L752.8815972222222,302.06104579532644L752.9188916666667,296.39295319893665L753.030775,299.4960447798891L754.2241972222222,311.11694389884013L754.8582027777778,287.42899416866504L754.8954972222222,267.9597745119488L754.9141444444444,277.97978843325114L756.5178055555556,285.1261978094205L756.5737472222222,268.4438822355524L757.0772222222223,286.65135604659656L760.2658972222222,262.63402823519675L760.3964277777777,257.0359745497225L761.086375,262.8224374219608L761.6271444444445,262.4847923377056L761.7203805555555,267.4356707369625L762.5035638888888,296.46095096083513L763.6596916666667,314.84299917824285L763.9766944444444,330.75208725814355L763.9953416666666,311.7512528078814L765.2260583333334,310.3394494281447L765.3752361111111,310.4595620767019L765.5990027777777,275.23234967802415L766.28895,286.70431595095664L766.3075972222223,296.61595073371336L766.3635388888889,285.8967664899182L767.5942555555555,294.32003769050544L768.5639111111111,301.8133120344312L768.8436194444445,293.80918091572704L769.1233277777778,293.68198585532537L769.4216833333334,293.0287496210481L769.6640972222223,277.86400016315855L770.3167500000001,297.7691935310845L770.6710472222222,275.4782200580886L770.8015777777778,267.80119056260884L775.1463805555555,267.5510116741437L775.6125611111111,245.4250107839929" style="fill: none;" fill="none"></path></g></g></g></g><g opacity="0.2"><g><g><g><path stroke="rgb(255, 112, 67)" stroke-width="2px" d="M117.77585555555557,-76.26600348949438L117.83179722222222,4.838849663734379L118.09285833333333,13.132428288459721L118.16744722222221,26.899930596351567L119.0625138888889,-36.79347464442259L119.19304444444444,13.144674956798497L120.01352222222222,-106.68459290266043L120.5729388888889,114.39737609028816L121.63583055555556,106.67096427083015L122.17660000000001,94.50384309887886L122.47495555555555,119.87236714363098L122.77331111111111,68.54304096102709L123.81755555555556,116.27336344122887L124.76856388888889,74.98220434784884L125.10421388888888,113.14355319738388L125.27203888888889,108.9471592605114L125.57039444444445,-7.413267880678234L125.6263361111111,62.430380493402424L126.4468138888889,58.29229867458338L127.62158888888888,67.89452931284899L128.03182777777778,1.8445954322814373L128.08776944444443,67.97570562362665L128.23694722222223,76.49747675657267L128.9828361111111,79.07860255241388L129.2998388888889,-2.4870174527168842L129.54225277777778,94.42497006058693L131.20185555555554,121.54527327418327L132.32068888888887,118.52220004796982L134.01758611111111,94.4233409166336L134.24135277777776,163.57583901286125L134.83806388888888,60.66579288244242L134.94994722222222,141.7401417195797L135.32289166666666,141.64514577388763L135.41612777777777,135.55843925476074L136.2552527777778,120.94175970554352L136.47901944444445,98.6899565756321L137.13167222222222,118.5277616083622L137.78432500000002,154.25550645589828L137.80297222222222,31.466421097516957L138.66074444444445,210.13351491093636L138.97774722222223,65.53957363963121L139.01504166666666,108.2917939722538L139.10827777777777,51.66050305962557L139.57445833333333,143.13783487677574L139.59310555555555,107.2666691839695L139.81687222222223,129.66762325167656L139.91010833333334,49.406610488891545L140.45087777777778,27.913763731718007L140.7305861111111,109.92217382788658L140.84246944444445,102.49647951126099L143.30390277777778,66.39302036166185L144.3295,93.89459943771357L145.24321388888887,143.2953000664711L147.23846666666665,178.348073720932L148.56241944444446,169.3675581216812L149.38289722222223,155.0515398979187L149.8863722222222,140.8832120001316L149.9423138888889,37.02028518915171L151.02385277777776,124.29678505659103L152.17998055555555,82.52019724249834L152.83263333333335,105.91992890834808L153.46663888888887,159.09412017464638L153.7277,219.99809390306473L153.76499444444443,80.93262454867357L153.78364166666665,186.37576481699944L154.86518055555555,148.88528621196747L158.12844444444445,118.03873753547668L160.3661111111111,108.40532845258713L160.7017611111111,97.12047299742699L160.73905555555555,112.86064392328262L161.6714166666667,175.03905764222145L162.7156611111111,90.81686562299723L162.99536944444444,146.0637212395668L163.965025,55.18175727128977L164.35661666666667,169.7632715702057L164.4871472222222,178.10740983486176L166.48239999999998,194.9852850139141L167.00452222222222,127.70793160796165L167.52664444444446,144.33559274673462L168.49630000000002,180.72887098789215L169.65242777777777,141.817441791296L171.47985555555556,112.9981099665165L172.05791944444445,101.43944597244263L172.15115555555556,93.07469061017031L173.49375555555557,174.28538194298744L173.73616944444444,156.97263768315315L173.77346388888887,131.63147202134132L175.2838888888889,182.78608655929565L176.99943333333334,169.39974775910378L177.3164361111111,226.33304825425148L177.70802777777777,168.42091313004494L179.53545555555556,230.57960858941078L180.20675555555556,169.78242805600166L180.28134444444444,165.009260982275L180.43052222222224,215.9654570221901L181.81041666666667,223.3578943312168L182.5190111111111,197.9066210091114L182.78007222222223,137.2634226679802L183.4886666666667,204.29196646809578L183.71243333333334,156.3266540169716L184.49561666666665,192.88071191310883L185.76362777777777,156.84067702293396L185.9314527777778,183.1021404862404L185.98739444444445,262.96659713983536L187.40458333333333,172.83027550578117L187.4418777777778,192.42415836453438L188.44882777777778,177.84062346816063L188.97095000000002,239.65354716777804L190.92890833333334,233.858457416296L192.60715833333333,189.00374254584312L192.9055138888889,205.45938855409622L193.166575,227.1147564649582L194.30405555555555,231.87331742048264L196.1128361111111,185.188624471426L196.70954722222223,181.01515090465546L198.85397777777777,135.8069679737091L199.1336861111111,138.89891466498375L199.95416388888887,245.56739589571956L201.53917777777778,218.52169623970985L201.85618055555554,231.21800830960274L201.91212222222222,151.3071491420269L202.58342222222223,285.15907695889473L202.7139527777778,219.23408156633377L203.38525277777777,220.1770750284195L203.77684444444444,248.07026660442355L204.93297222222222,222.40383392572403L205.30591666666666,257.88361182808876L207.37575833333335,280.97768238186836L207.56223055555554,259.8395395874977L208.8488888888889,240.28026199340823L209.09130277777777,181.28513938188553L209.2031861111111,237.20415732264522L209.44559999999998,259.82038310170174L210.50849166666669,227.38862118124962L210.93737777777775,159.47399160265923L211.03061388888887,212.72531440854073L212.13080000000002,194.69731977581978L212.57833333333335,211.3155992925167L214.36846666666668,208.38398283720016L214.816,168.78365045785904L215.82295,236.40671944618228L216.36371944444443,274.45116317272186L217.37066944444447,254.2666875422001L218.0979111111111,249.00118193030357L218.15385277777776,272.467427611351L218.37761944444443,314.82370978593826L218.95568333333335,302.2257081270218L220.89499444444445,232.06038808822632L221.04417222222222,260.85988929867744L221.32388055555558,189.85578483343124L223.1326611111111,237.95378825068477L223.6174888888889,257.40750855207443L224.02772777777776,237.72093302011493L225.74327222222223,177.9923023879528L225.89245,236.86349770426753L226.65698611111114,206.82247644662857L227.7944666666667,179.62251371145248L228.37253055555553,222.73870727419853L229.56595277777777,193.77837023139L230.088075,279.41342329978943L230.1067222222222,307.36065751314163L230.46101944444447,276.1206424832344L230.88990555555554,247.45119190216067L231.24420277777776,318.982127815485L232.15791666666667,282.68547466397285L232.34438888888891,270.46161434054375L232.40033055555557,309.9254918694496L232.68003888888887,305.3559677898884L233.29539722222222,243.6815775036812L236.57730833333332,280.5286566019058L236.6891916666667,206.70714429020882L237.93855555555555,233.04388543963432L238.46067777777776,219.55507910251617L238.64714999999998,252.09015122056007L239.29980277777776,251.85167825222015L240.54916666666668,288.3582100868225L241.1458777777778,246.52257984876636L242.2460638888889,207.35200440883636L242.89871666666664,236.44531330466273L243.32760277777777,248.75849565863612L243.64460555555553,261.88501408696175L245.77038888888887,209.31647112965584L246.42304166666668,246.81009566783908L246.53492500000002,293.8597730398178L247.82158333333334,224.77502486109734L248.64206111111113,246.6295977532864L249.18283055555554,290.18105363845825L249.27606666666665,197.9681352376938L249.44389166666667,233.11764633655548L251.1221416666667,273.2262716293335L251.17808333333335,147.11142933368683L251.70020555555553,266.13932690024376L251.88667777777778,210.46737706661224L252.96821666666665,273.4150837957859L253.62086944444442,231.66321402788162L254.2362277777778,236.72586312890056L254.254875,281.02582639455795L255.37370833333335,250.44392934441566L257.6859638888889,351.27889549732214L257.74190555555555,355.5931495726109L258.78615,325.2664101719856L259.2709777777778,296.63757583498955L259.32691944444446,314.0796404182911L259.7185111111111,299.84401202201843L259.84904166666666,300.3852810561657L260.93058055555554,296.86868956685066L261.0424638888889,258.6947569847107L262.0867083333334,295.49408531188965L265.2753833333333,215.428850710392L265.4059138888889,211.20526692271233L265.9093888888889,248.4997988343239L266.9536333333333,214.93123149871826L267.5503444444444,268.39198356866837L268.74376666666666,289.8140468299389L268.79970833333334,238.31298640370372L269.1726527777778,231.93471929430962L269.78801111111113,251.2631078660488L271.2611416666667,327.9345547258854L271.3916722222222,366.99637076258665L271.6340861111111,278.749013453722L272.044325,282.0837025940418L272.75291944444444,335.1031251847744L273.3123361111111,318.098513841629L273.74122222222223,293.9430279135704L274.0768722222222,283.87755861878395L275.38217777777777,280.1218200325966L276.78071944444446,259.0849650502205L277.97414166666664,255.99975964426994L279.1862111111111,281.97533643245697L280.7898722222222,272.8068513274193L281.2747,285.701469540596L282.8410666666667,248.826301753521L284.8549666666667,302.2526732683182L284.9854972222222,291.1034300029278L287.09263333333337,289.81230533123016L287.148575,309.60117986798286L287.54016666666666,291.9746849536896L288.64035277777776,255.24653336405754L288.826825,274.68115335702896L288.9014138888889,271.59156611561775L289.44218333333333,287.827502399683L290.0575416666667,271.09681195020676L291.0271972222222,236.14100044965747L291.3442,240.9678169190884L291.60526111111113,273.5269891321659L291.90361666666666,270.93485257029533L292.2206194444445,240.92512211203578L292.96650833333337,263.5124727189541L293.82428055555556,254.5872918367386L293.84292777777773,241.60604810714725L294.2531666666667,288.6858365535736L294.90581944444443,285.3468217551708L295.09229166666665,293.5237199664116L295.39064722222224,147.32046535611153L295.55847222222224,259.1502431631088L295.8195333333333,282.45396769046783L296.5281277777778,279.7441395223141L296.5840694444444,276.9017889201641L297.218075,237.9763153791428L297.29266388888885,264.1823317706585L297.72155,205.96094018220901L297.83343333333335,228.72266536951065L297.8707277777778,240.4944101572037L298.6166166666667,344.79630699753767L298.7285,292.0893991589546L298.9709138888889,334.4412994980812L299.06415,367.33068233728414L300.2575722222222,355.01132047176367L300.61186944444444,323.5779429078102L300.77969444444443,277.64321795105934L301.61881944444445,314.2526105642319L302.0477055555555,287.35757863521576L302.085,312.1923614144325L302.10364722222226,303.3053249716759L303.20383333333336,261.87192475795746L306.1687416666667,242.9562713801861L307.15704444444447,210.64742556214333L307.52998888888885,281.5528825521469L308.10805277777774,212.68660819530487L308.2758777777778,278.6806455850601L308.59288055555555,244.03796678781512L308.9098833333333,236.94192132353785L309.4879472222222,276.60461059212685L310.43895555555554,219.30458417534828L310.86784166666666,225.09135967493057L311.12890277777774,266.8948564529419L312.5087972222222,295.6794144809246L314.63458055555554,358.28584364056593L316.42471388888885,277.5144032239914L316.51795,324.6289092898369L317.18925,289.15446823835373L317.7673138888889,322.105927079916L319.57609444444444,227.10548719763756L320.06092222222225,261.54306238889694L320.13551111111116,264.971960991621L320.4338666666667,235.31935012340546L321.21705,264.73826310038567L322.41047222222227,238.9249827563763L322.4664138888889,212.96620300412178L322.7647694444444,309.4426473081112L324.5549027777778,208.6518365740776L325.5432055555556,337.41555458307266L327.31469166666665,293.2017674148083L329.51506388888885,285.0994165837765L330.0371861111111,309.6321897804737L331.1373722222222,309.5770235955715L332.0137916666667,242.669766753912L333.35639166666664,250.1747273504734L333.71068888888885,296.29006257653236L334.5125194444445,281.0793634355068L334.88546388888886,307.3800387084484L335.9670027777778,249.9172664284706L336.28400555555555,275.129898250103L336.7874805555556,228.10050091147423L337.17907222222226,223.31991842389107L337.4028388888889,233.61886090040207L337.68254722222224,265.9068649113178L337.7571361111111,260.6350674331188L338.0741388888889,303.313189804554L338.7454388888889,260.0952590107918L339.49132777777777,386.08005067706114L340.1066861111111,305.6158443391323L342.15788055555555,317.0426038503647L343.14618333333334,274.8159790635109L343.22077222222225,264.8020806014538L343.59371666666664,256.4147419333458L344.5074305555556,232.6875523328781L345.0482,263.1292868256569L345.83138333333335,297.27822265028954L346.7823916666667,257.322905421257L347.2112777777778,236.0451056659222L348.3114638888889,263.6453883945942L348.36740555555554,272.6000624001026L349.579475,284.68533313274384L350.12024444444444,246.7619516551495L350.75425,285.1763795912266L351.4069027777778,334.41590732336044L351.8357888888889,242.39371111989024L352.1341444444444,216.20117729902267L353.49539166666665,324.1125830113888L353.84968888888886,339.7046141922474L354.25992777777776,350.292982518673L355.789,293.3637829720974L358.4182583333333,297.61416336894035L359.648975,292.1651262640953L359.77950555555555,214.67753446102142L359.94733055555554,246.6306651234627L360.26433333333335,303.12943360209465L360.4881,261.5067718029022L360.59998333333334,299.13432320952415L361.70016944444444,296.439213514328L362.63253055555555,234.51101383566856L363.50894999999997,265.7658596932888L364.18025,184.2681581377983L364.62778333333335,271.59128522872925L364.683725,232.9937752187252L366.08226666666667,237.28297418355945L366.19415000000004,217.97093322873116L366.75356666666664,356.45923620462423L366.9213916666667,379.8357104361058L366.99598055555555,378.492790222168L367.10786388888886,319.4618826210499L368.8234083333333,298.61676102876663L368.84205555555553,337.95744156837463L368.9912333333333,328.6544116437435L369.0658222222222,310.4547389447689L369.38282499999997,271.8113320171833L370.57624722222226,274.3136409521103L370.9305444444445,292.477247774601L371.56455,275.23079282045364L373.44791944444444,243.59500816464427L374.62269444444445,221.68689823150635L375.4804666666667,251.7776364684105L376.30094444444444,213.68971145153046L376.6552416666667,203.3731854557991L377.9046055555556,266.2683663368225L378.98614444444445,280.6646620333195L379.4150305555555,268.2840106487274L380.9254555555556,336.4422815144062L381.76458055555554,332.139375269413L381.801875,354.9992985129357L382.3985861111111,289.42052429914474L382.97664999999995,307.9156338274479L384.0768361111111,261.87164387106895L386.7433888888889,274.2786424458027L387.19092222222224,312.71638399362564L387.35874722222223,293.3777711391449L387.47063055555554,233.47909158468246L388.3284027777778,298.3367168009281L388.3843444444444,332.5446950495243L388.73864166666664,305.9632452428341L391.200075,225.19629901647568L391.4611361111111,195.18274849653244L393.36315277777777,268.90729865431786L393.75474444444444,391.2043263614178L395.09734444444445,306.3333979845047L396.234825,272.79084077477455L397.577425,284.44354569911957L397.98766388888885,286.2934667468071L398.30466666666666,283.7709339559078L399.16243888888886,358.02315822243696L399.79644444444443,329.3592130243778L401.00851388888884,281.43137088418007L402.0154638888889,274.8100242614746L402.50029166666667,259.08283030986786L402.5935277777778,294.9675347507L403.9174805555555,237.87019631266597L404.58878055555556,296.19843727350235L405.50249444444444,287.87941029667854L406.6586222222222,294.83776500821114L406.67726944444445,224.19128572940826L407.311275,332.0076393187046L407.5723361111111,332.3626803457737L408.35551944444444,358.6474012434483L411.4696055555556,331.8694991469383L412.04766944444447,263.23130494356155L412.681675,328.60166108608246L413.81915555555554,256.9502246975899L414.0056277777778,239.54197889566424L414.69557499999996,214.20637479424477L414.8447527777778,264.1332889199257L415.3109333333333,277.6889463365078L415.64658333333335,201.7351092994213L415.68387777777775,329.7677349150181L416.1127638888889,282.29532277584076L416.1314111111111,220.55672174692154L416.15005833333333,285.9715141952038L416.206,257.90310537815094L416.56029722222223,246.55510655045512L417.21295,248.31222257018092L417.79101388888887,245.77682515978816L418.18260555555554,268.8210102021694L418.5182555555556,275.93598744273186L418.7047277777778,241.05786925554278L420.36433055555557,241.95277488231662L420.62539166666664,230.57786709070206L420.9983361111111,347.9225780665875L421.1661611111111,332.7038455605507L421.2966916666667,351.2256393432618L421.3153388888889,335.40710097551346L421.85610833333334,288.81442657113075L422.0425805555556,321.20315662026405L422.41552499999995,294.0880217254162L423.7021833333333,257.93046376109123L424.61589722222226,302.18756368756294L425.23125555555555,292.11293748021126L425.93985000000004,263.9927331209183L428.00969166666664,274.8596288859844L428.4758722222222,256.3887318074703L428.53181388888885,306.50434574484825L428.69963888888884,244.76332908868793L429.2217611111111,279.0491691827774L429.8744138888889,299.466500043869L430.09818055555553,238.74167597293857L430.82542222222224,240.29323896765712L431.29160277777777,282.5575587749481L431.6086055555556,259.9762753248215L432.8766166666667,297.3087269663811L433.2868555555556,326.2073812484741L433.8089777777778,221.2380971610546L434.81592777777774,365.0624645352364L437.29600833333336,283.9628920555115L437.3146555555556,285.62855130434036L439.08614166666666,260.3278333544731L439.9252666666667,277.96511432528496L442.1815805555555,300.9643012881279L442.3121111111111,314.3189560472965L444.64301388888885,274.8503034412861L445.5380805555555,220.9031114578247L446.75014999999996,267.2239997088909L447.1044472222222,289.55400174856186L447.1976833333334,288.1690608561039L447.6265694444445,274.3370107412338L448.03680833333334,293.0102587342262L448.4284,384.6334270238877L449.6964111111111,322.3708034157753L450.68471388888884,290.3017226457596L451.76625277777777,355.0758121013642L452.58673055555556,275.77475836873055L452.6613194444444,342.0423795878888L453.12750000000005,267.88891515135765L456.5772361111111,250.01838570833206L456.8569444444444,354.5674630105496L456.91288611111105,254.4977450966835L457.32312500000006,319.33492174744606L457.43500833333337,313.7937537431717L458.330075,251.75567111372948L458.6097833333333,306.2482330799103L459.4675555555556,226.80274730920792L459.7286166666666,239.4127147495747L459.9337361111111,259.6165715754032L460.1015611111111,271.3385432064533L460.95933333333335,258.005235850811L461.1644527777778,227.64276763796806L461.27633611111116,225.34303432703018L462.3765222222222,344.1898722052575L462.87999722222224,309.1858043372631L463.30888333333337,331.3096915781498L464.6141888888889,287.98496758937836L465.02442777777776,297.25058338046074L465.6397861111111,297.80280700325966L465.9567888888889,328.04381972551346L466.0873194444444,244.34138080477717L466.83320833333335,282.27262711524963L467.07562222222225,272.2383362650871L467.16885833333333,308.2169131040573L467.28074166666664,300.22837764024734L467.33668333333327,298.51316994428635L468.75387222222224,273.55193188786507L468.77251944444447,239.07452693581584L468.8098138888889,259.4742181003094L469.59299722222227,283.3778608441353L469.6489388888889,270.9937826395035L470.2270027777778,293.4272072315216L470.7304777777778,300.37545001506805L470.78641944444445,259.5584841668606L470.87965555555553,252.9208461046219L471.9239,293.72174522280693L472.2036083333333,247.9489234685898L472.3714333333333,276.89100286364555L472.4087277777778,302.6251292824745L473.3224416666667,302.241999566555L474.38533333333334,203.0319640636444L475.22445833333336,295.70334604382515L475.9889944444444,327.7684943974018L476.2314083333333,323.36592948436737L476.2500555555556,333.1581520140171L476.66029444444445,334.47180381417274L476.7535305555555,295.6172261238098L476.95865000000003,311.3545881807804L479.02849166666664,272.67916014790535L479.42008333333337,326.8609488606453L480.68809444444446,289.9812868833542L480.70674166666663,291.9268780052662L480.7626833333333,245.7650840878487L480.78133055555554,298.2091941535473L481.6763972222222,294.145884424448L482.1239305555556,253.09117591381073L482.73928888888884,246.5330288410187L483.2054694444445,272.18322625756264L484.58536388888893,294.2654298841953L485.33125277777776,284.319730758667L485.4804305555556,203.60452389717102L486.0771416666667,247.815389841795L486.3195555555556,242.2230442464352L487.5129777777778,267.1331608891487L488.7250472222222,299.184489607811L489.1539333333333,304.3130347728729L490.7203,386.0204464793206L490.77624166666664,333.4081975221634L490.86947777777783,324.68789553642273L492.1188416666667,251.97504377365112L492.4544916666666,297.04306414723396L493.85303333333337,310.77068051695824L494.58027500000003,325.2941617965698L494.5989222222222,270.0264643728733L497.52653611111117,238.60769292712214L498.3097194444444,254.64779487252235L498.3283666666667,247.284963041544L499.54043611111115,265.4676139950752L499.65231944444446,273.25020319223404L500.0252638888889,259.8333038985729L500.1371472222222,276.6307330727577L500.5287388888889,257.7137876152992L500.64062222222225,245.20213058590892L501.7594555555556,264.29715833067894L502.8596416666666,326.0822180509567L503.4563527777778,376.6494981050492L503.5868833333333,333.34145879745483L507.5773888888889,258.9326681792736L508.0435694444445,288.525225430727L508.2859833333333,303.61772736907005L508.7894583333333,307.27111077308655L508.91998888888884,289.6964675784111L509.12510833333334,242.83234408497813L509.2183444444444,256.1083505153656L509.36752222222225,318.78331607580185L509.62858333333327,267.8084691464901L510.1507055555556,278.63508573174477L511.43736388888885,314.7065799534321L511.49330555555554,261.3179596364498L512.2764888888888,274.8984474539757L512.9291416666666,230.43051382899284L513.6190888888889,228.29043662548065L515.3159861111111,253.98310413956642L515.6143416666667,274.29543948173523L517.6095944444444,315.6408659219742L517.740125,323.49738454818726L517.9638916666667,328.0875257253647L518.9149,297.1344647407532L519.1200194444444,309.6042134463787L519.1386666666667,338.3160779476166L520.8169166666667,311.74704334139824L520.8728583333334,295.25696060061455L523.614,292.00007712841034L523.688588888889,311.1715622842312L523.7072361111111,325.7021219134331L524.0242388888888,310.9781435728073L524.3039472222222,282.6598577797413L524.4904194444445,275.5476894080639L524.6955388888889,298.85545870661736L524.788775,233.8024485707283L524.8820111111112,239.92443448305133L524.9566000000001,274.90271693468094L525.0684833333333,348.548113167286L525.5160166666666,307.55851423740387L525.7024888888889,292.84532195329666L526.1873166666667,275.23843294382095L527.0264416666666,287.3758924603462L527.4553277777778,242.46601140499118L528.4063361111112,290.2385230958462L528.8538694444445,247.23316749930385L529.2081666666667,255.74190548062325L529.4692277777777,239.47759962081912L530.0845861111111,326.27917593717575L532.1917222222222,302.8827587366104L533.1054361111112,280.813082665205L534.615861111111,309.2068146765232L534.8209805555556,278.30706602334976L535.193925,357.1611725389958L536.3127583333334,280.30889070034027L536.5551722222223,289.8979758322239L537.2451194444444,256.9951104223728L537.6180638888889,286.4052597284317L537.8231833333333,292.9807094335556L539.4268444444444,279.10057148337364L539.6133166666667,315.6503037214279L542.242575,238.5760088860989L542.9325222222222,292.8125705420971L542.9698166666667,285.82887983322144L543.5105861111111,235.41754817962646L544.2378277777779,339.81865426898L545.1328944444444,344.3464385569096L546.0279611111112,333.02124774456024L546.0652555555555,302.7505733668804L546.2144333333333,315.8637215793133L546.7738499999999,323.5703027844429L547.2027361111111,296.5289849638939L547.4637972222222,357.13078057765966L548.5266888888889,262.4265078306198L550.3168222222222,310.0163868665695L551.1559472222222,235.89421322941783L551.2305361111111,345.66525867581373L552.3493694444444,255.49129819869995L553.2071416666666,334.0504734814167L553.7665583333334,220.84547346830368L554.1767972222223,299.20465728640556L554.325975,251.66078752279282L556.6009361111111,271.47258242964745L557.1603527777778,252.87028646469116L557.5705916666667,319.34149450063705L558.18595,311.0762292742729L558.7267194444445,371.21568506956106L559.5658444444445,324.352123349905L560.2930861111112,315.24262449145317L561.8967472222222,342.73015922307974L563.2579944444444,273.5258655846119L563.724175,287.34971380233765L563.9665888888889,293.2664275765419L564.134413888889,288.0637282729149L565.6075444444444,250.25674632191658L566.7077305555556,251.69050535559654L568.8335138888889,200.93379518389702L569.1132222222221,258.0252349972725L570.0828777777778,246.75813159346583L570.5863527777777,234.80100145936012L571.7424805555556,374.5708789527417L572.2086611111112,328.9520955681801L573.8682638888889,277.61490455269814L574.5582111111112,297.625117957592L575.2108638888889,230.50933068990707L575.8262222222222,254.86160597205162L576.5907583333334,313.50567615032196L578.6046583333333,253.7104753255844L578.9030138888888,241.25319799780848L579.2946055555556,208.9509811103344L579.4624305555556,262.0545574128628L579.7607861111111,283.5312812626362L580.9355611111112,287.1366330087185L580.9542083333333,284.2975406944752L581.2152694444444,289.6205719411373L583.2664638888889,243.52478644251826L583.5088777777778,230.8951007425785L583.7139972222222,284.8445959985256L585.5787194444445,358.1670284867287L586.8280833333333,307.4081273972988L587.6112666666667,267.7659990489483L590.5575277777778,285.8485980927944L592.1238944444444,309.68241235613823L592.1611888888889,252.61254465579987L592.9070777777778,301.66550731658936L592.925725,244.2589685916901L592.9443722222222,254.783800303936L593.2427277777778,295.50914084911346L593.4851416666667,241.90092316269877L593.5224361111111,262.6636887192726L595.368511111111,276.81342190504074L598.1655944444444,250.78537544608116L599.3590166666667,374.44959199428564L599.4709,353.6117172837258L599.5827833333334,255.5852829515934L599.6573722222223,326.4010246694088L599.6760194444444,298.98640817403793L601.0745611111112,326.35450980067253L601.8204499999999,276.58371260762215L602.8460472222222,265.69339087605476L604.8785944444444,224.65519851446152L605.0837138888888,278.4704298377037L605.2328916666667,294.095380961895L606.1279583333334,283.96761095523834L606.5754916666666,237.153878569603L607.3213805555556,311.8973740041256L607.3773222222222,326.94774290919304L607.9553861111111,211.4337403178215L608.1418583333333,336.23004338145256L608.2723888888889,230.01086881756783L608.6080388888889,277.95814833045006L609.6709305555555,233.2305628657341L610.043875,204.68498340249062L610.0998166666667,255.40731301903725L610.4914083333333,275.8627883195877L612.0950694444444,346.24573951959616L613.7919666666667,337.6186358034611L613.8292611111111,322.84106424450874L614.4259722222222,345.2442654073239L614.7616222222222,269.7118710577488L620.0387861111111,261.22285133600235L620.5236138888889,329.5461151599884L621.3440916666667,216.8872154355049L622.3696888888888,252.12464413046837L623.5258166666666,193.6608471572399L623.7682305555555,272.96594566106796L625.4837749999999,285.4978265464306L626.0245444444444,328.7860352396965L626.7517861111111,341.2955575287342L627.9638555555556,374.7063226103783L631.9730083333333,299.8683368265629L633.446138888889,250.25646543502808L633.9309666666667,263.1028272807598L634.3412055555556,271.83475798368454L634.6955027777778,305.89847272634506L635.0684472222222,251.96774071455002L635.1616833333334,262.9498562812805L635.4600388888889,239.5190023481846L635.6838055555555,260.2559263110161L635.982161111111,271.91919258236885L636.4856361111111,259.1295137107372L637.7536472222223,250.56841841340065L638.6673611111111,305.38057348132133L638.909775,266.66795602440834L639.0589527777778,281.46417847275734L640.8304388888889,298.6083905994892L642.1730388888889,320.3615071475506L642.7883972222222,265.53171238303185L642.9189277777778,282.9546766579151L643.0867527777779,269.29155191779137L644.0191138888889,334.4970836341381L644.0750555555555,275.173828959465L644.4666472222223,226.42074114084244L644.6904138888889,214.90246868133545L645.0447111111112,284.7304435670376L645.3990083333333,346.7521785795689L647.9350305555556,227.02616474032402L649.4454555555556,243.19002544879916L649.4641027777777,181.83792477846146L650.0981083333334,296.5011209845543L650.4524055555556,251.40692195296288L651.3101777777778,307.63457840681076L652.6527777777778,287.95519357919693L652.7460138888889,210.30822655558586L653.2308416666666,323.78872042894363L654.0886138888889,341.0925324857235L654.3683222222222,364.2669366896153L655.2074472222222,305.3371483683586L655.8973944444444,248.13408410549167L656.699225,269.52676659822464L657.0721694444444,265.7113114595413L657.1840527777778,296.5308949947357L657.4264666666667,305.08974319696426L657.9485888888888,273.04054921865463L658.7504194444444,251.27288272976875L659.4963083333333,251.23187324404716L660.7456722222222,293.7830347418785L661.2118527777777,232.82411953806877L661.3423833333334,212.61531910300255L661.4169722222223,255.7450514137745L663.2630472222222,244.15863579511645L663.318988888889,275.1788287460804L664.0648777777777,285.2886781692505L664.6615888888889,262.63784712553024L665.8177166666667,281.05902722477913L666.0787777777778,234.9178504049778L666.3957805555555,253.01365113258362L666.4144277777777,240.1938611865044L667.1976111111111,321.3532625734806L669.0436861111111,340.5783971250057L669.5471611111111,272.6893282532692L672.2696555555556,294.90877321362495L673.2579583333334,314.13896372914314L675.2718583333333,278.90659099817276L675.4769777777777,312.9170495867729L677.7705861111111,280.6528086066246L678.8707722222222,208.83508718013763L679.5607194444444,238.1026021242142L679.952311111111,227.11267790198326L680.6422583333334,359.77128586173063L681.3135583333333,335.1600328683853L681.3322055555556,307.2108324468136L681.7983861111111,279.56083273887634L682.9545138888889,314.751465678215L683.0663972222222,314.95505249500275L683.3461055555556,305.106315523386L684.2784666666666,314.5455755889416L684.7632944444445,331.29345631599426L685.0802972222223,268.5533249974251L685.5091833333333,244.16784888505939L686.3669555555556,231.26536583900452L687.579025,301.7106739282608L687.7095555555555,285.1782896220684L687.8587333333334,273.4693511426449L688.7538,287.96440666913986L688.921625,291.62565490603447L690.0218111111111,289.990331441164L690.264225,290.42626789212227L692.9680722222222,256.6536081433296L693.1918388888889,250.85408037900925L693.8071972222223,245.18932214379313L693.8444916666666,372.3076609373093L694.5903805555556,336.0172434747219L695.80245,299.94372686743736L697.1823444444445,309.29259753227234L698.0587638888888,279.8445284962654L698.7300638888889,328.46076822280884L699.2708333333334,305.9645934998989L699.8116027777778,258.96980142593384L700.0540166666667,331.41260853409767L700.1099583333333,277.5763668715954L701.340675,291.56930899620056L701.3966166666667,289.1659284234047L702.1984472222223,247.0073344409466L702.9256888888889,276.32467871904373L703.1121611111112,264.5242834687233L703.1681027777778,269.8243943452835L704.1564055555556,296.4053385555744L706.2635416666667,223.61136665940285L706.6178388888889,259.70387122035027L706.7483694444445,239.28648418188098L706.7670166666667,279.91564905643463L706.8975472222222,260.667144715786L708.1096166666666,317.7532476782799L708.6317388888889,341.2743224799633L708.8555055555556,341.94884425401693L709.0979194444445,306.60950979590416L709.22845,350.340677112341L710.738875,338.57938131690025L711.3542333333334,312.31314277648926L711.4288222222223,278.2480797767639L711.9322972222222,298.13577032089233L711.9695916666667,371.7131919264794L713.2189555555556,339.6292241513729L713.6478416666667,258.4525763094425L714.9531472222222,271.2097284793854L715.1396194444445,246.84228530526164L715.4566222222222,273.20295801758766L715.5871527777778,294.21116253733635L715.6430944444444,278.6672753691673L715.9041555555556,311.41986629366875L716.109275,259.31192165613174L718.6452972222222,228.1466225385666L719.3352444444445,233.53526896238327L720.3608416666667,225.18090641498566L720.4913722222221,273.9444432258606L721.7034416666667,334.1752996146679L722.1696222222222,336.5276149511337L722.3374472222223,318.697477042675L722.5612138888889,299.4920045733452L722.9155111111111,294.4952515363693L723.2325138888889,340.785073697567L723.5122222222222,355.84021767973906L724.2394638888888,278.52744987607L724.4632305555556,337.3356141746044L724.9294111111111,268.7064645290375L725.4888277777778,297.84325471520424L725.6193583333334,345.98580679297453L726.7008972222222,340.0937548875809L726.9060166666667,241.68452790379527L727.5586694444444,314.764611184597L727.9129666666668,284.59674140810966L728.0434972222222,276.25007516145706L728.9012694444444,316.37740752100945L729.870925,262.161350607872L729.9268666666667,259.17344442009926L730.5795194444445,289.35867300629616L731.8475305555555,223.6229391992092L732.3137111111112,257.63053274154663L732.9477166666666,256.3365430235863L733.0036583333334,246.73307648301127L733.9733138888888,237.51133522391322L733.9919611111111,216.3630243241787L734.1411388888889,248.12841019034389L734.3835527777778,266.36740705370903L735.40915,321.3306230902672L735.912625,307.4645294845104L737.0314583333333,313.99228459596634L737.0501055555555,363.1388387680054L737.5349333333334,314.0402600765228L737.7587,342.68246462941175L738.0384083333333,312.06967002153397L738.4113527777778,320.77643325924873L738.5791777777778,290.4755916297436L738.7470027777778,349.1438180804253L739.3064194444444,317.66010558605194L740.2201333333334,300.5467348396778L741.2457305555556,276.3710250556469L741.8424416666667,353.95675873756414L742.2526805555556,235.22884836792946L743.6139277777777,239.10362681746486L745.0684111111111,228.16308251023293L746.4483055555555,259.21512803435326L747.3620194444445,280.8958319425583L748.0333194444445,294.2025112211704L749.1894472222222,391.9259809553624L750.1404555555555,289.77073407173157L750.6252833333333,313.703757584095L750.6812249999999,337.2782008945942L752.0984138888889,263.7153292298317L752.4900055555555,279.8217766582966L752.6391833333333,307.1551044881344L752.8815972222222,308.9418259859085L752.9188916666667,287.8908143043518L753.030775,304.1506821513176L754.2241972222222,328.5482925772667L754.8582027777778,251.8970695734024L754.8954972222222,238.75594502687457L754.9141444444444,293.0098093152046L756.5178055555556,295.8458118736744L756.5737472222222,243.42040887475017L757.0772222222223,313.9625667631626L760.2658972222222,226.60803651809692L760.3964277777777,248.6388940215111L761.086375,271.50213173031807L761.6271444444445,261.9783247113228L761.7203805555555,274.86198833584785L762.5035638888888,339.9988712966442L763.6596916666667,342.41607150435453L763.9766944444444,354.6157193779946L763.9953416666666,283.25000113248825L765.2260583333334,308.2217443585396L765.3752361111111,310.63973104953766L765.5990027777777,222.39153108000755L766.28895,303.9122653603554L766.3075972222223,311.48340290784836L766.3635388888889,269.8179901242256L767.5942555555555,306.9549444913864L768.5639111111111,313.0532235503197L768.8436194444445,281.8029842376709L769.1233277777778,293.4911932647228L769.4216833333334,292.04889526963234L769.6640972222223,255.11687597632408L770.3167500000001,327.6269835829735L770.6710472222222,242.0417598485947L770.8015777777778,256.28564631938934L775.1463805555555,267.1757433414459L775.6125611111111,212.2360094487667" style="fill: none;" fill="none"></path></g></g></g></g></g><g><g opacity="0.519093"><span fill="rgb(0, 0, 0)" stroke="none" stroke-width="1px">Alt + Scroll to Zoom</span></g></g></g><g transform="translate(48, 377)" clip-path="url(#clip_1)"><clipPath id="clip_1"><rect width="839" height="23"></rect></clipPath><g><g><line x1="0" y1="0" x2="0" y2="5" style="visibility: inherit;" fill="rgb(0, 0, 0)" stroke="rgb(204, 204, 204)" stroke-width="1px"></line><line x1="93.2361111111111" y1="0" x2="93.2361111111111" y2="5" style="visibility: inherit;" fill="rgb(0, 0, 0)" stroke="rgb(204, 204, 204)" stroke-width="1px"></line><line x1="186.4722222222222" y1="0" x2="186.4722222222222" y2="5" style="visibility: inherit;" fill="rgb(0, 0, 0)" stroke="rgb(204, 204, 204)" stroke-width="1px"></line><line x1="279.7083333333333" y1="0" x2="279.7083333333333" y2="5" style="visibility: inherit;" fill="rgb(0, 0, 0)" stroke="rgb(204, 204, 204)" stroke-width="1px"></line><line x1="372.9444444444444" y1="0" x2="372.9444444444444" y2="5" style="visibility: inherit;" fill="rgb(0, 0, 0)" stroke="rgb(204, 204, 204)" stroke-width="1px"></line><line x1="466.1805555555556" y1="0" x2="466.1805555555556" y2="5" style="visibility: inherit;" fill="rgb(0, 0, 0)" stroke="rgb(204, 204, 204)" stroke-width="1px"></line><line x1="559.4166666666666" y1="0" x2="559.4166666666666" y2="5" style="visibility: inherit;" fill="rgb(0, 0, 0)" stroke="rgb(204, 204, 204)" stroke-width="1px"></line><line x1="652.6527777777778" y1="0" x2="652.6527777777778" y2="5" style="visibility: inherit;" fill="rgb(0, 0, 0)" stroke="rgb(204, 204, 204)" stroke-width="1px"></line><line x1="745.8888888888888" y1="0" x2="745.8888888888888" y2="5" style="visibility: inherit;" fill="rgb(0, 0, 0)" stroke="rgb(204, 204, 204)" stroke-width="1px"></line><line x1="839.125" y1="0" x2="839.125" y2="5" style="visibility: inherit;" fill="rgb(0, 0, 0)" stroke="rgb(204, 204, 204)" stroke-width="1px"></line></g><g transform="translate(0, 8)"><text x="0" y="0" dx="0em" dy="0.95em" style="text-anchor: middle; visibility: hidden; font-family: &quot;Helvetica Neue&quot;, sans-serif; font-size: 12px; font-weight: 200;" fill="rgb(50, 49, 63)" stroke="none" stroke-width="1px">-5k</text><text x="93.2361111111111" y="0" dx="0em" dy="0.95em" style="text-anchor: middle; visibility: inherit; font-family: &quot;Helvetica Neue&quot;, sans-serif; font-size: 12px; font-weight: 200;" fill="rgb(50, 49, 63)" stroke="none" stroke-width="1px">0</text><text x="186.4722222222222" y="0" dx="0em" dy="0.95em" style="text-anchor: middle; visibility: inherit; font-family: &quot;Helvetica Neue&quot;, sans-serif; font-size: 12px; font-weight: 200;" fill="rgb(50, 49, 63)" stroke="none" stroke-width="1px">5k</text><text x="279.7083333333333" y="0" dx="0em" dy="0.95em" style="text-anchor: middle; visibility: inherit; font-family: &quot;Helvetica Neue&quot;, sans-serif; font-size: 12px; font-weight: 200;" fill="rgb(50, 49, 63)" stroke="none" stroke-width="1px">10k</text><text x="372.9444444444444" y="0" dx="0em" dy="0.95em" style="text-anchor: middle; visibility: inherit; font-family: &quot;Helvetica Neue&quot;, sans-serif; font-size: 12px; font-weight: 200;" fill="rgb(50, 49, 63)" stroke="none" stroke-width="1px">15k</text><text x="466.1805555555556" y="0" dx="0em" dy="0.95em" style="text-anchor: middle; visibility: inherit; font-family: &quot;Helvetica Neue&quot;, sans-serif; font-size: 12px; font-weight: 200;" fill="rgb(50, 49, 63)" stroke="none" stroke-width="1px">20k</text><text x="559.4166666666666" y="0" dx="0em" dy="0.95em" style="text-anchor: middle; visibility: inherit; font-family: &quot;Helvetica Neue&quot;, sans-serif; font-size: 12px; font-weight: 200;" fill="rgb(50, 49, 63)" stroke="none" stroke-width="1px">25k</text><text x="652.6527777777778" y="0" dx="0em" dy="0.95em" style="text-anchor: middle; visibility: inherit; font-family: &quot;Helvetica Neue&quot;, sans-serif; font-size: 12px; font-weight: 200;" fill="rgb(50, 49, 63)" stroke="none" stroke-width="1px">30k</text><text x="745.8888888888888" y="0" dx="0em" dy="0.95em" style="text-anchor: middle; visibility: inherit; font-family: &quot;Helvetica Neue&quot;, sans-serif; font-size: 12px; font-weight: 200;" fill="rgb(50, 49, 63)" stroke="none" stroke-width="1px">35k</text><text x="839.125" y="0" dx="0em" dy="0.95em" style="text-anchor: middle; visibility: hidden; font-family: &quot;Helvetica Neue&quot;, sans-serif; font-size: 12px; font-weight: 200;" fill="rgb(50, 49, 63)" stroke="none" stroke-width="1px">40k</text></g><line x1="0" y1="0" x2="839.125" y2="0" fill="rgb(0, 0, 0)" stroke="rgb(204, 204, 204)" stroke-width="1px"></line></g></g></g></g></svg>