<svg viewBox="0 0 1193 400" xmlns="http://www.w3.org/2000/svg"><g><g><g><g><g><line x1="48.875" y1="377" x2="43.875" y2="377" style="visibility: inherit;" fill="rgb(0, 0, 0)" stroke="rgb(204, 204, 204)" stroke-width="1px"></line><line x1="48.875" y1="329.87499999999994" x2="43.875" y2="329.87499999999994" style="visibility: inherit;" fill="rgb(0, 0, 0)" stroke="rgb(204, 204, 204)" stroke-width="1px"></line><line x1="48.875" y1="282.75" x2="43.875" y2="282.75" style="visibility: inherit;" fill="rgb(0, 0, 0)" stroke="rgb(204, 204, 204)" stroke-width="1px"></line><line x1="48.875" y1="235.62499999999997" x2="43.875" y2="235.62499999999997" style="visibility: inherit;" fill="rgb(0, 0, 0)" stroke="rgb(204, 204, 204)" stroke-width="1px"></line><line x1="48.875" y1="188.49999999999991" x2="43.875" y2="188.49999999999991" style="visibility: inherit;" fill="rgb(0, 0, 0)" stroke="rgb(204, 204, 204)" stroke-width="1px"></line><line x1="48.875" y1="141.375" x2="43.875" y2="141.375" style="visibility: inherit;" fill="rgb(0, 0, 0)" stroke="rgb(204, 204, 204)" stroke-width="1px"></line><line x1="48.875" y1="94.24999999999994" x2="43.875" y2="94.24999999999994" style="visibility: inherit;" fill="rgb(0, 0, 0)" stroke="rgb(204, 204, 204)" stroke-width="1px"></line><line x1="48.875" y1="47.12499999999994" x2="43.875" y2="47.12499999999994" style="visibility: inherit;" fill="rgb(0, 0, 0)" stroke="rgb(204, 204, 204)" stroke-width="1px"></line><line x1="48.875" y1="0" x2="43.875" y2="0" style="visibility: inherit;" fill="rgb(0, 0, 0)" stroke="rgb(204, 204, 204)" stroke-width="1px"></line></g><g transform="translate(38.875, 0)"><text x="0" y="377" dx="0em" dy="0.3em" style="text-anchor: end; visibility: hidden; font-family: &quot;Helvetica Neue&quot;, sans-serif; font-size: 12px; font-weight: 200;" fill="rgb(50, 49, 63)" stroke="none" stroke-width="1px">0.26</text><text x="0" y="329.87499999999994" dx="0em" dy="0.3em" style="text-anchor: end; visibility: inherit; font-family: &quot;Helvetica Neue&quot;, sans-serif; font-size: 12px; font-weight: 200;" fill="rgb(50, 49, 63)" stroke="none" stroke-width="1px">0.28</text><text x="0" y="282.75" dx="0em" dy="0.3em" style="text-anchor: end; visibility: inherit; font-family: &quot;Helvetica Neue&quot;, sans-serif; font-size: 12px; font-weight: 200;" fill="rgb(50, 49, 63)" stroke="none" stroke-width="1px">0.3</text><text x="0" y="235.62499999999997" dx="0em" dy="0.3em" style="text-anchor: end; visibility: inherit; font-family: &quot;Helvetica Neue&quot;, sans-serif; font-size: 12px; font-weight: 200;" fill="rgb(50, 49, 63)" stroke="none" stroke-width="1px">0.32</text><text x="0" y="188.49999999999991" dx="0em" dy="0.3em" style="text-anchor: end; visibility: inherit; font-family: &quot;Helvetica Neue&quot;, sans-serif; font-size: 12px; font-weight: 200;" fill="rgb(50, 49, 63)" stroke="none" stroke-width="1px">0.34</text><text x="0" y="141.375" dx="0em" dy="0.3em" style="text-anchor: end; visibility: inherit; font-family: &quot;Helvetica Neue&quot;, sans-serif; font-size: 12px; font-weight: 200;" fill="rgb(50, 49, 63)" stroke="none" stroke-width="1px">0.36</text><text x="0" y="94.24999999999994" dx="0em" dy="0.3em" style="text-anchor: end; visibility: inherit; font-family: &quot;Helvetica Neue&quot;, sans-serif; font-size: 12px; font-weight: 200;" fill="rgb(50, 49, 63)" stroke="none" stroke-width="1px">0.38</text><text x="0" y="47.12499999999994" dx="0em" dy="0.3em" style="text-anchor: end; visibility: inherit; font-family: &quot;Helvetica Neue&quot;, sans-serif; font-size: 12px; font-weight: 200;" fill="rgb(50, 49, 63)" stroke="none" stroke-width="1px">0.4</text><text x="0" y="0" dx="0em" dy="0.3em" style="text-anchor: end; visibility: hidden; font-family: &quot;Helvetica Neue&quot;, sans-serif; font-size: 12px; font-weight: 200;" fill="rgb(50, 49, 63)" stroke="none" stroke-width="1px">0.42</text></g><line x1="48.875" y1="0" x2="48.875" y2="377" fill="rgb(0, 0, 0)" stroke="rgb(204, 204, 204)" stroke-width="1px"></line></g></g><g transform="translate(48, 0)" clip-path="url(#clip_0)"><clipPath id="clip_0"><rect width="1144" height="377"></rect></clipPath><g><g><g><line x1="0" y1="0" x2="0" y2="377" fill="rgb(0, 0, 0)" stroke="rgb(60, 60, 60)" stroke-width="1px" opacity="0.25"></line><line x1="104.01136363636364" y1="0" x2="104.01136363636364" y2="377" fill="rgb(0, 0, 0)" stroke="rgb(60, 60, 60)" stroke-width="1px" opacity="0.25"></line><line x1="208.02272727272728" y1="0" x2="208.02272727272728" y2="377" fill="rgb(0, 0, 0)" stroke="rgb(60, 60, 60)" stroke-width="1px" opacity="0.25"></line><line x1="312.0340909090909" y1="0" x2="312.0340909090909" y2="377" fill="rgb(0, 0, 0)" stroke="rgb(60, 60, 60)" stroke-width="1px" opacity="0.25"></line><line x1="416.04545454545456" y1="0" x2="416.04545454545456" y2="377" fill="rgb(0, 0, 0)" stroke="rgb(60, 60, 60)" stroke-width="1px" opacity="0.25"></line><line x1="520.0568181818181" y1="0" x2="520.0568181818181" y2="377" fill="rgb(0, 0, 0)" stroke="rgb(60, 60, 60)" stroke-width="1px" opacity="0.25"></line><line x1="624.0681818181818" y1="0" x2="624.0681818181818" y2="377" fill="rgb(0, 0, 0)" stroke="rgb(60, 60, 60)" stroke-width="1px" opacity="0.25"></line><line x1="728.0795454545455" y1="0" x2="728.0795454545455" y2="377" fill="rgb(0, 0, 0)" stroke="rgb(60, 60, 60)" stroke-width="1px" opacity="0.25"></line><line x1="832.0909090909091" y1="0" x2="832.0909090909091" y2="377" fill="rgb(0, 0, 0)" stroke="rgb(60, 60, 60)" stroke-width="1px" opacity="0.25"></line><line x1="936.1022727272727" y1="0" x2="936.1022727272727" y2="377" fill="rgb(0, 0, 0)" stroke="rgb(60, 60, 60)" stroke-width="1px" opacity="0.25"></line><line x1="1040.1136363636363" y1="0" x2="1040.1136363636363" y2="377" fill="rgb(0, 0, 0)" stroke="rgb(60, 60, 60)" stroke-width="1px" opacity="0.25"></line><line x1="1144.125" y1="0" x2="1144.125" y2="377" fill="rgb(0, 0, 0)" stroke="rgb(60, 60, 60)" stroke-width="1px" opacity="0.25"></line></g><g><line x1="0" y1="377" x2="1144.125" y2="377" fill="rgb(0, 0, 0)" stroke="rgb(60, 60, 60)" stroke-width="1px" opacity="0.25"></line><line x1="0" y1="329.87499999999994" x2="1144.125" y2="329.87499999999994" fill="rgb(0, 0, 0)" stroke="rgb(60, 60, 60)" stroke-width="1px" opacity="0.25"></line><line x1="0" y1="282.75" x2="1144.125" y2="282.75" fill="rgb(0, 0, 0)" stroke="rgb(60, 60, 60)" stroke-width="1px" opacity="0.25"></line><line x1="0" y1="235.62499999999997" x2="1144.125" y2="235.62499999999997" fill="rgb(0, 0, 0)" stroke="rgb(60, 60, 60)" stroke-width="1px" opacity="0.25"></line><line x1="0" y1="188.49999999999991" x2="1144.125" y2="188.49999999999991" fill="rgb(0, 0, 0)" stroke="rgb(60, 60, 60)" stroke-width="1px" opacity="0.25"></line><line x1="0" y1="141.375" x2="1144.125" y2="141.375" fill="rgb(0, 0, 0)" stroke="rgb(60, 60, 60)" stroke-width="1px" opacity="0.25"></line><line x1="0" y1="94.24999999999994" x2="1144.125" y2="94.24999999999994" fill="rgb(0, 0, 0)" stroke="rgb(60, 60, 60)" stroke-width="1px" opacity="0.25"></line><line x1="0" y1="47.12499999999994" x2="1144.125" y2="47.12499999999994" fill="rgb(0, 0, 0)" stroke="rgb(60, 60, 60)" stroke-width="1px" opacity="0.25"></line><line x1="0" y1="0" x2="1144.125" y2="0" fill="rgb(0, 0, 0)" stroke="rgb(60, 60, 60)" stroke-width="1px" opacity="0.25"></line></g></g></g><g><g><line x1="0" y1="989.6250000000001" x2="1144.125" y2="989.6250000000001" fill="rgb(0, 0, 0)" stroke="rgb(153, 153, 153)" stroke-width="1.5px"></line></g></g><g><g><line x1="104.01136363636364" y1="0" x2="104.01136363636364" y2="377" fill="rgb(0, 0, 0)" stroke="rgb(153, 153, 153)" stroke-width="1.5px"></line></g></g><g><g><g><g><g><path stroke="rgb(204, 51, 17)" stroke-width="2px" d="M104.01136363636364,92.86629220098251L124.81363636363636,90.784832580015L145.61590909090907,88.78653195865297L166.4181818181818,86.94693148092301L187.22045454545454,89.66300676175183L208.02272727272728,88.35650640795512L228.82500000000002,87.99580870846432L249.62727272727273,88.32033707114124L270.42954545454546,87.39098714097815L291.23181818181814,86.5152139850843L312.0340909090909,84.74880234162998L332.8363636363636,85.0766646756199L353.63863636363635,81.92943073196506L374.4409090909091,81.27581590424268L395.2431818181818,82.63671869575182L416.04545454545456,81.88750401097985L436.8477272727273,81.41625379496884L457.65000000000003,79.30782923500914L478.4522727272727,78.43120515857743L499.25454545454545,77.00431535512053L520.0568181818181,77.86728033086314L540.8590909090909,76.46333425881073L561.6613636363636,78.00651344819642L582.4636363636363,76.72342393784567L603.2659090909091,77.109651665164L624.0681818181818,78.11076618751815L644.8704545454545,77.2246698967607L665.6727272727272,75.42848724283544L686.475,75.04923195072081L707.2772727272727,74.88617050874296L728.0795454545455,74.61724544014572L748.8818181818182,75.18847157402809L769.6840909090909,74.61683609345158L790.4863636363636,75.14404242809297L811.2886363636363,75.95773264123471L832.0909090909091,76.85651912932872L852.8931818181818,75.79400543595602L873.6954545454546,75.84672057782456L894.4977272727273,73.8850358541107L915.3000000000001,72.31450249135929L936.1022727272727,72.1889734587881L956.9045454545454,72.63576858791225L977.7068181818181,71.50160214005467L998.5090909090909,69.94158924611338L1019.3113636363636,70.29900945423941L1040.1136363636363,69.7555725764825L1060.915909090909,70.2154319639136L1081.7181818181818,70.1448455306948L1102.5204545454546,68.87689991013843" style="fill: none;" fill="none"></path></g><g><path stroke="rgb(0, 119, 187)" stroke-width="2px" d="M104.01136363636364,117.22213474661123L124.81363636363636,113.83143500518037L145.61590909090907,113.76564244652269L166.4181818181818,117.09557687340515L187.22045454545454,116.54952078125456L208.02272727272728,113.77302713554735L228.82500000000002,110.08662450989806L249.62727272727273,109.55864956545128L270.42954545454546,108.83505897725365L291.23181818181814,109.26395596150718L312.0340909090909,108.38045964964044L332.8363636363636,107.86055306874584L353.63863636363635,106.48357773170807L374.4409090909091,105.6742302047943L395.2431818181818,102.43349579718631L416.04545454545456,101.98805785777756L436.8477272727273,102.24605437663217L457.65000000000003,99.7474096614502L478.4522727272727,101.34037991161415L499.25454545454545,100.49737498038712L520.0568181818181,100.38135894469735L540.8590909090909,102.52235986106683L561.6613636363636,103.25715812672485L582.4636363636363,102.11191377458664L603.2659090909091,100.75690398278016L624.0681818181818,100.82113991108997L644.8704545454545,99.82969621231274L665.6727272727272,100.49407542562312L686.475,102.43249709393228L707.2772727272727,102.45368800623186L728.0795454545455,102.90604676681636L748.8818181818182,103.22038150474441L769.6840909090909,103.44605940254326L790.4863636363636,104.02113839349835L811.2886363636363,103.84264069704341L832.0909090909091,104.12201435501322L852.8931818181818,103.89389700828838L873.6954545454546,104.2932115846134L894.4977272727273,104.19843257663928L915.3000000000001,102.79493724932382L936.1022727272727,104.2213668335799L956.9045454545454,104.07990759659896L977.7068181818181,102.6860710649583L998.5090909090909,101.78738416828406L1019.3113636363636,101.19685399584404L1040.1136363636363,100.12635859275605L1060.915909090909,99.33889900696164L1081.7181818181818,98.49643904595803L1102.5204545454546,98.28597856836763" style="fill: none;" fill="none"></path></g><g><path stroke="rgb(255, 112, 67)" stroke-width="2px" d="M228.82500000000002,385.40083938601964L249.62727272727273,344.73534356784006L270.42954545454546,308.1940748104953L291.23181818181814,276.64579065459236L312.0340909090909,250.48241165058897L332.8363636363636,227.0192937290238L353.63863636363635,208.31346124319367L374.4409090909091,193.16853526686057L395.2431818181818,179.66976139154886L416.04545454545456,169.41356527594974L436.8477272727273,162.43774706395197L457.65000000000003,154.77952085295996L478.4522727272727,150.2016281748706L499.25454545454545,145.86558644652152L520.0568181818181,141.47483031987437L540.8590909090909,140.57521854624383L561.6613636363636,137.95996945034028L582.4636363636363,134.80839324907572L603.2659090909091,132.507754305332L624.0681818181818,130.06413217244145L644.8704545454545,129.80996163614492L665.6727272727272,129.56931712111694L686.475,128.99199938591096L707.2772727272727,127.64390983769343L728.0795454545455,129.6542902846821L748.8818181818182,128.57320008970314L769.6840909090909,128.33475325934117L790.4863636363636,127.71002031820439L811.2886363636363,126.68273648914453L832.0909090909091,125.8032032744573L852.8931818181818,124.74075897849642L873.6954545454546,126.94171060137856L894.4977272727273,126.59752115538268L915.3000000000001,125.02497028158831L936.1022727272727,125.44843198003608L956.9045454545454,125.88092835055085L977.7068181818181,124.76416468472596L998.5090909090909,124.24730219445402L1019.3113636363636,123.62930458182686L1040.1136363636363,123.23434974187887L1060.915909090909,122.85468629856041L1081.7181818181818,121.39289595397489L1102.5204545454546,122.5080120039863" style="fill: none;" fill="none"></path></g></g></g></g><g opacity="0.2"><g><g><g><path stroke="rgb(204, 51, 17)" stroke-width="2px" d="M104.01136363636364,92.86629220098251L124.81363636363636,89.5359568074345L145.61590909090907,86.86816336214537L166.4181818181818,84.78356131911272L187.22045454545454,93.20911464840168L208.02272727272728,86.54914607852692L228.82500000000002,87.48000522702927L249.62727272727273,88.79350253939623L270.42954545454546,86.02037651091808L291.23181818181814,85.21479291468853L312.0340909090909,82.11520610004658L332.8363636363636,85.56667396426195L353.63863636363635,77.21885608136648L374.4409090909091,80.29667416214937L395.2431818181818,84.67647319287056L416.04545454545456,80.76421038806433L436.8477272727273,80.7095778882503L457.65000000000003,76.14572772383684L478.4522727272727,77.11640258878464L499.25454545454545,74.86411107331509L520.0568181818181,79.16168046742672L540.8590909090909,74.35746134817595L561.6613636363636,80.32125176489347L582.4636363636363,74.7988048717379L603.2659090909091,77.6889905110001L624.0681818181818,79.61243370175356L644.8704545454545,75.89552772790188L665.6727272727272,72.73421601951117L686.475,74.48034936189646L707.2772727272727,74.64157843589777L728.0795454545455,74.21385792642826L748.8818181818182,76.04531066119665L769.6840909090909,73.75938294082874L790.4863636363636,75.93485189229244L811.2886363636363,77.17826792597765L832.0909090909091,78.2046988382935L852.8931818181818,74.20023491233582L873.6954545454546,75.92579329013819L894.4977272727273,70.9425087794661L915.3000000000001,69.95870245248074L936.1022727272727,72.0006799101829L956.9045454545454,73.30596128106112L977.7068181818181,69.80035246908659L998.5090909090909,67.60156990587706L1019.3113636363636,70.83513976633543L1040.1136363636363,68.94041725993151L1060.915909090909,70.90522104501719L1081.7181818181818,70.03896588087076L1102.5204545454546,66.9749814793467" style="fill: none;" fill="none"></path></g><g><path stroke="rgb(0, 119, 187)" stroke-width="2px" d="M104.01136363636364,117.22213474661112L124.81363636363636,111.79701516032219L145.61590909090907,113.70248159021139L166.4181818181818,121.01157975941896L187.22045454545454,115.83658994734287L208.02272727272728,109.93213688582182L228.82500000000002,104.81500977277756L249.62727272727273,108.7888570278883L270.42954545454546,107.76790340989828L291.23181818181814,109.90081799775362L312.0340909090909,107.0632284283638L332.8363636363636,107.08352250605822L353.63863636363635,104.42261078953743L374.4409090909091,104.46179451048374L395.2431818181818,97.57620354741806L416.04545454545456,101.32021510601038L436.8477272727273,102.63293997943396L457.65000000000003,96.00007699429983L478.4522727272727,103.72959261387587L499.25454545454545,99.23294463753695L520.0568181818181,100.20734125375742L540.8590909090909,105.73379078507423L561.6613636363636,104.3593410179019L582.4636363636363,100.39406081289047L603.2659090909091,98.7243989259004L624.0681818181818,100.91749352961773L644.8704545454545,98.34253320097918L665.6727272727272,101.4906432256102L686.475,105.34012781083584L707.2772727272727,102.48547436296934L728.0795454545455,103.58458475768566L748.8818181818182,103.6918835490942L769.6840909090909,103.78457622230053L790.4863636363636,104.88375683873892L811.2886363636363,103.57489416003227L832.0909090909091,104.541074834764L852.8931818181818,103.55172099173069L873.6954545454546,104.89218344539404L894.4977272727273,104.05626406520605L915.3000000000001,100.68969426304096L936.1022727272727,106.36101120710373L956.9045454545454,103.86771874129772L977.7068181818181,100.59531626850361L998.5090909090909,100.43935382366175L1019.3113636363636,100.31105873733753L1040.1136363636363,98.52061548829073L1060.915909090909,98.15770962834353L1081.7181818181818,97.23274910449976L1102.5204545454546,97.97028785198921" style="fill: none;" fill="none"></path></g><g><path stroke="rgb(255, 112, 67)" stroke-width="2px" d="M187.22045454545454,399.12105870991945L208.02272727272728,370.90260011702776L228.82500000000002,328.5805299654603L249.62727272727273,285.44466027617455L270.42954545454546,254.30280116945505L291.23181818181814,229.80026544630527L312.0340909090909,211.47464306652546L332.8363636363636,191.95230209827423L353.63863636363635,180.31579030305147L374.4409090909091,170.48081678897142L395.2431818181818,159.43746788054705L416.04545454545456,154.03650456666946L436.8477272727273,151.9769716784358L457.65000000000003,143.29412595927715L478.4522727272727,143.33548655360937L499.25454545454545,139.36192018538713L520.0568181818181,134.88893692940474L540.8590909090909,139.22583048790693L561.6613636363636,134.03714744001627L582.4636363636363,130.0810662806034L603.2659090909091,129.05681224167347L624.0681818181818,126.39870939403772L644.8704545454545,129.4287064820528L665.6727272727272,129.2083507180214L686.475,128.12602331489325L707.2772727272727,125.62177626043558L728.0795454545455,132.6698602885008L748.8818181818182,126.95156501233578L769.6840909090909,127.97708304226398L790.4863636363636,126.77292095124722L811.2886363636363,125.14181078970432L832.0909090909091,124.48390347510576L852.8931818181818,123.14709255099297L873.6954545454546,130.24313801527023L894.4977272727273,126.08123698830605L915.3000000000001,122.66614397615194L936.1022727272727,126.08362452685833L956.9045454545454,126.52967290580273L977.7068181818181,123.08901918679476L998.5090909090909,123.47200845927L1019.3113636363636,122.70230816304684L1040.1136363636363,122.64191748201847L1060.915909090909,122.28519113361835L1081.7181818181818,119.20021043717861L1102.5204545454546,124.18068607896566" style="fill: none;" fill="none"></path></g></g></g></g></g></g><g transform="translate(48, 377)" clip-path="url(#clip_1)"><clipPath id="clip_1"><rect width="1144" height="23"></rect></clipPath><g><g><line x1="0" y1="0" x2="0" y2="5" style="visibility: inherit;" fill="rgb(0, 0, 0)" stroke="rgb(204, 204, 204)" stroke-width="1px"></line><line x1="104.01136363636364" y1="0" x2="104.01136363636364" y2="5" style="visibility: inherit;" fill="rgb(0, 0, 0)" stroke="rgb(204, 204, 204)" stroke-width="1px"></line><line x1="208.02272727272728" y1="0" x2="208.02272727272728" y2="5" style="visibility: inherit;" fill="rgb(0, 0, 0)" stroke="rgb(204, 204, 204)" stroke-width="1px"></line><line x1="312.0340909090909" y1="0" x2="312.0340909090909" y2="5" style="visibility: inherit;" fill="rgb(0, 0, 0)" stroke="rgb(204, 204, 204)" stroke-width="1px"></line><line x1="416.04545454545456" y1="0" x2="416.04545454545456" y2="5" style="visibility: inherit;" fill="rgb(0, 0, 0)" stroke="rgb(204, 204, 204)" stroke-width="1px"></line><line x1="520.0568181818181" y1="0" x2="520.0568181818181" y2="5" style="visibility: inherit;" fill="rgb(0, 0, 0)" stroke="rgb(204, 204, 204)" stroke-width="1px"></line><line x1="624.0681818181818" y1="0" x2="624.0681818181818" y2="5" style="visibility: inherit;" fill="rgb(0, 0, 0)" stroke="rgb(204, 204, 204)" stroke-width="1px"></line><line x1="728.0795454545455" y1="0" x2="728.0795454545455" y2="5" style="visibility: inherit;" fill="rgb(0, 0, 0)" stroke="rgb(204, 204, 204)" stroke-width="1px"></line><line x1="832.0909090909091" y1="0" x2="832.0909090909091" y2="5" style="visibility: inherit;" fill="rgb(0, 0, 0)" stroke="rgb(204, 204, 204)" stroke-width="1px"></line><line x1="936.1022727272727" y1="0" x2="936.1022727272727" y2="5" style="visibility: inherit;" fill="rgb(0, 0, 0)" stroke="rgb(204, 204, 204)" stroke-width="1px"></line><line x1="1040.1136363636363" y1="0" x2="1040.1136363636363" y2="5" style="visibility: inherit;" fill="rgb(0, 0, 0)" stroke="rgb(204, 204, 204)" stroke-width="1px"></line><line x1="1144.125" y1="0" x2="1144.125" y2="5" style="visibility: inherit;" fill="rgb(0, 0, 0)" stroke="rgb(204, 204, 204)" stroke-width="1px"></line></g><g transform="translate(0, 8)"><text x="0" y="0" dx="0em" dy="0.95em" style="text-anchor: middle; visibility: hidden; font-family: &quot;Helvetica Neue&quot;, sans-serif; font-size: 12px; font-weight: 200;" fill="rgb(50, 49, 63)" stroke="none" stroke-width="1px">-5</text><text x="104.01136363636364" y="0" dx="0em" dy="0.95em" style="text-anchor: middle; visibility: inherit; font-family: &quot;Helvetica Neue&quot;, sans-serif; font-size: 12px; font-weight: 200;" fill="rgb(50, 49, 63)" stroke="none" stroke-width="1px">0</text><text x="208.02272727272728" y="0" dx="0em" dy="0.95em" style="text-anchor: middle; visibility: inherit; font-family: &quot;Helvetica Neue&quot;, sans-serif; font-size: 12px; font-weight: 200;" fill="rgb(50, 49, 63)" stroke="none" stroke-width="1px">5</text><text x="312.0340909090909" y="0" dx="0em" dy="0.95em" style="text-anchor: middle; visibility: inherit; font-family: &quot;Helvetica Neue&quot;, sans-serif; font-size: 12px; font-weight: 200;" fill="rgb(50, 49, 63)" stroke="none" stroke-width="1px">10</text><text x="416.04545454545456" y="0" dx="0em" dy="0.95em" style="text-anchor: middle; visibility: inherit; font-family: &quot;Helvetica Neue&quot;, sans-serif; font-size: 12px; font-weight: 200;" fill="rgb(50, 49, 63)" stroke="none" stroke-width="1px">15</text><text x="520.0568181818181" y="0" dx="0em" dy="0.95em" style="text-anchor: middle; visibility: inherit; font-family: &quot;Helvetica Neue&quot;, sans-serif; font-size: 12px; font-weight: 200;" fill="rgb(50, 49, 63)" stroke="none" stroke-width="1px">20</text><text x="624.0681818181818" y="0" dx="0em" dy="0.95em" style="text-anchor: middle; visibility: inherit; font-family: &quot;Helvetica Neue&quot;, sans-serif; font-size: 12px; font-weight: 200;" fill="rgb(50, 49, 63)" stroke="none" stroke-width="1px">25</text><text x="728.0795454545455" y="0" dx="0em" dy="0.95em" style="text-anchor: middle; visibility: inherit; font-family: &quot;Helvetica Neue&quot;, sans-serif; font-size: 12px; font-weight: 200;" fill="rgb(50, 49, 63)" stroke="none" stroke-width="1px">30</text><text x="832.0909090909091" y="0" dx="0em" dy="0.95em" style="text-anchor: middle; visibility: inherit; font-family: &quot;Helvetica Neue&quot;, sans-serif; font-size: 12px; font-weight: 200;" fill="rgb(50, 49, 63)" stroke="none" stroke-width="1px">35</text><text x="936.1022727272727" y="0" dx="0em" dy="0.95em" style="text-anchor: middle; visibility: inherit; font-family: &quot;Helvetica Neue&quot;, sans-serif; font-size: 12px; font-weight: 200;" fill="rgb(50, 49, 63)" stroke="none" stroke-width="1px">40</text><text x="1040.1136363636363" y="0" dx="0em" dy="0.95em" style="text-anchor: middle; visibility: inherit; font-family: &quot;Helvetica Neue&quot;, sans-serif; font-size: 12px; font-weight: 200;" fill="rgb(50, 49, 63)" stroke="none" stroke-width="1px">45</text><text x="1144.125" y="0" dx="0em" dy="0.95em" style="text-anchor: middle; visibility: hidden; font-family: &quot;Helvetica Neue&quot;, sans-serif; font-size: 12px; font-weight: 200;" fill="rgb(50, 49, 63)" stroke="none" stroke-width="1px">50</text></g><line x1="0" y1="0" x2="1144.125" y2="0" fill="rgb(0, 0, 0)" stroke="rgb(204, 204, 204)" stroke-width="1px"></line></g></g></g></g></svg>