<svg viewBox="0 0 888 400" xmlns="http://www.w3.org/2000/svg"><g><g><g><g><g><line x1="48.875" y1="377" x2="43.875" y2="377" style="visibility: inherit;" fill="rgb(0, 0, 0)" stroke="rgb(204, 204, 204)" stroke-width="1px"></line><line x1="48.875" y1="350.07142857142856" x2="43.875" y2="350.07142857142856" style="visibility: inherit;" fill="rgb(0, 0, 0)" stroke="rgb(204, 204, 204)" stroke-width="1px"></line><line x1="48.875" y1="323.14285714285717" x2="43.875" y2="323.14285714285717" style="visibility: inherit;" fill="rgb(0, 0, 0)" stroke="rgb(204, 204, 204)" stroke-width="1px"></line><line x1="48.875" y1="296.2142857142857" x2="43.875" y2="296.2142857142857" style="visibility: inherit;" fill="rgb(0, 0, 0)" stroke="rgb(204, 204, 204)" stroke-width="1px"></line><line x1="48.875" y1="269.2857142857143" x2="43.875" y2="269.2857142857143" style="visibility: inherit;" fill="rgb(0, 0, 0)" stroke="rgb(204, 204, 204)" stroke-width="1px"></line><line x1="48.875" y1="242.35714285714286" x2="43.875" y2="242.35714285714286" style="visibility: inherit;" fill="rgb(0, 0, 0)" stroke="rgb(204, 204, 204)" stroke-width="1px"></line><line x1="48.875" y1="215.42857142857144" x2="43.875" y2="215.42857142857144" style="visibility: inherit;" fill="rgb(0, 0, 0)" stroke="rgb(204, 204, 204)" stroke-width="1px"></line><line x1="48.875" y1="188.5" x2="43.875" y2="188.5" style="visibility: inherit;" fill="rgb(0, 0, 0)" stroke="rgb(204, 204, 204)" stroke-width="1px"></line><line x1="48.875" y1="161.57142857142858" x2="43.875" y2="161.57142857142858" style="visibility: inherit;" fill="rgb(0, 0, 0)" stroke="rgb(204, 204, 204)" stroke-width="1px"></line><line x1="48.875" y1="134.64285714285714" x2="43.875" y2="134.64285714285714" style="visibility: inherit;" fill="rgb(0, 0, 0)" stroke="rgb(204, 204, 204)" stroke-width="1px"></line><line x1="48.875" y1="107.71428571428572" x2="43.875" y2="107.71428571428572" style="visibility: inherit;" fill="rgb(0, 0, 0)" stroke="rgb(204, 204, 204)" stroke-width="1px"></line><line x1="48.875" y1="80.78571428571428" x2="43.875" y2="80.78571428571428" style="visibility: inherit;" fill="rgb(0, 0, 0)" stroke="rgb(204, 204, 204)" stroke-width="1px"></line><line x1="48.875" y1="53.85714285714289" x2="43.875" y2="53.85714285714289" style="visibility: inherit;" fill="rgb(0, 0, 0)" stroke="rgb(204, 204, 204)" stroke-width="1px"></line><line x1="48.875" y1="26.928571428571445" x2="43.875" y2="26.928571428571445" style="visibility: inherit;" fill="rgb(0, 0, 0)" stroke="rgb(204, 204, 204)" stroke-width="1px"></line><line x1="48.875" y1="0" x2="43.875" y2="0" style="visibility: inherit;" fill="rgb(0, 0, 0)" stroke="rgb(204, 204, 204)" stroke-width="1px"></line></g><g transform="translate(38.875, 0)"><text x="0" y="377" dx="0em" dy="0.3em" style="text-anchor: end; visibility: hidden; font-family: &quot;Helvetica Neue&quot;, sans-serif; font-size: 12px; font-weight: 200;" fill="rgb(50, 49, 63)" stroke="none" stroke-width="1px">-1</text><text x="0" y="350.07142857142856" dx="0em" dy="0.3em" style="text-anchor: end; visibility: inherit; font-family: &quot;Helvetica Neue&quot;, sans-serif; font-size: 12px; font-weight: 200;" fill="rgb(50, 49, 63)" stroke="none" stroke-width="1px">-0.5</text><text x="0" y="323.14285714285717" dx="0em" dy="0.3em" style="text-anchor: end; visibility: inherit; font-family: &quot;Helvetica Neue&quot;, sans-serif; font-size: 12px; font-weight: 200;" fill="rgb(50, 49, 63)" stroke="none" stroke-width="1px">0</text><text x="0" y="296.2142857142857" dx="0em" dy="0.3em" style="text-anchor: end; visibility: inherit; font-family: &quot;Helvetica Neue&quot;, sans-serif; font-size: 12px; font-weight: 200;" fill="rgb(50, 49, 63)" stroke="none" stroke-width="1px">0.5</text><text x="0" y="269.2857142857143" dx="0em" dy="0.3em" style="text-anchor: end; visibility: inherit; font-family: &quot;Helvetica Neue&quot;, sans-serif; font-size: 12px; font-weight: 200;" fill="rgb(50, 49, 63)" stroke="none" stroke-width="1px">1</text><text x="0" y="242.35714285714286" dx="0em" dy="0.3em" style="text-anchor: end; visibility: inherit; font-family: &quot;Helvetica Neue&quot;, sans-serif; font-size: 12px; font-weight: 200;" fill="rgb(50, 49, 63)" stroke="none" stroke-width="1px">1.5</text><text x="0" y="215.42857142857144" dx="0em" dy="0.3em" style="text-anchor: end; visibility: inherit; font-family: &quot;Helvetica Neue&quot;, sans-serif; font-size: 12px; font-weight: 200;" fill="rgb(50, 49, 63)" stroke="none" stroke-width="1px">2</text><text x="0" y="188.5" dx="0em" dy="0.3em" style="text-anchor: end; visibility: inherit; font-family: &quot;Helvetica Neue&quot;, sans-serif; font-size: 12px; font-weight: 200;" fill="rgb(50, 49, 63)" stroke="none" stroke-width="1px">2.5</text><text x="0" y="161.57142857142858" dx="0em" dy="0.3em" style="text-anchor: end; visibility: inherit; font-family: &quot;Helvetica Neue&quot;, sans-serif; font-size: 12px; font-weight: 200;" fill="rgb(50, 49, 63)" stroke="none" stroke-width="1px">3</text><text x="0" y="134.64285714285714" dx="0em" dy="0.3em" style="text-anchor: end; visibility: inherit; font-family: &quot;Helvetica Neue&quot;, sans-serif; font-size: 12px; font-weight: 200;" fill="rgb(50, 49, 63)" stroke="none" stroke-width="1px">3.5</text><text x="0" y="107.71428571428572" dx="0em" dy="0.3em" style="text-anchor: end; visibility: inherit; font-family: &quot;Helvetica Neue&quot;, sans-serif; font-size: 12px; font-weight: 200;" fill="rgb(50, 49, 63)" stroke="none" stroke-width="1px">4</text><text x="0" y="80.78571428571428" dx="0em" dy="0.3em" style="text-anchor: end; visibility: inherit; font-family: &quot;Helvetica Neue&quot;, sans-serif; font-size: 12px; font-weight: 200;" fill="rgb(50, 49, 63)" stroke="none" stroke-width="1px">4.5</text><text x="0" y="53.85714285714289" dx="0em" dy="0.3em" style="text-anchor: end; visibility: inherit; font-family: &quot;Helvetica Neue&quot;, sans-serif; font-size: 12px; font-weight: 200;" fill="rgb(50, 49, 63)" stroke="none" stroke-width="1px">5</text><text x="0" y="26.928571428571445" dx="0em" dy="0.3em" style="text-anchor: end; visibility: inherit; font-family: &quot;Helvetica Neue&quot;, sans-serif; font-size: 12px; font-weight: 200;" fill="rgb(50, 49, 63)" stroke="none" stroke-width="1px">5.5</text><text x="0" y="0" dx="0em" dy="0.3em" style="text-anchor: end; visibility: hidden; font-family: &quot;Helvetica Neue&quot;, sans-serif; font-size: 12px; font-weight: 200;" fill="rgb(50, 49, 63)" stroke="none" stroke-width="1px">6</text></g><line x1="48.875" y1="0" x2="48.875" y2="377" fill="rgb(0, 0, 0)" stroke="rgb(204, 204, 204)" stroke-width="1px"></line></g></g><g transform="translate(48, 0)" clip-path="url(#clip_0)"><clipPath id="clip_0"><rect width="839" height="377"></rect></clipPath><g><g><g><line x1="0" y1="0" x2="0" y2="377" fill="rgb(0, 0, 0)" stroke="rgb(60, 60, 60)" stroke-width="1px" opacity="0.25"></line><line x1="93.2361111111111" y1="0" x2="93.2361111111111" y2="377" fill="rgb(0, 0, 0)" stroke="rgb(60, 60, 60)" stroke-width="1px" opacity="0.25"></line><line x1="186.4722222222222" y1="0" x2="186.4722222222222" y2="377" fill="rgb(0, 0, 0)" stroke="rgb(60, 60, 60)" stroke-width="1px" opacity="0.25"></line><line x1="279.7083333333333" y1="0" x2="279.7083333333333" y2="377" fill="rgb(0, 0, 0)" stroke="rgb(60, 60, 60)" stroke-width="1px" opacity="0.25"></line><line x1="372.9444444444444" y1="0" x2="372.9444444444444" y2="377" fill="rgb(0, 0, 0)" stroke="rgb(60, 60, 60)" stroke-width="1px" opacity="0.25"></line><line x1="466.1805555555556" y1="0" x2="466.1805555555556" y2="377" fill="rgb(0, 0, 0)" stroke="rgb(60, 60, 60)" stroke-width="1px" opacity="0.25"></line><line x1="559.4166666666666" y1="0" x2="559.4166666666666" y2="377" fill="rgb(0, 0, 0)" stroke="rgb(60, 60, 60)" stroke-width="1px" opacity="0.25"></line><line x1="652.6527777777778" y1="0" x2="652.6527777777778" y2="377" fill="rgb(0, 0, 0)" stroke="rgb(60, 60, 60)" stroke-width="1px" opacity="0.25"></line><line x1="745.8888888888888" y1="0" x2="745.8888888888888" y2="377" fill="rgb(0, 0, 0)" stroke="rgb(60, 60, 60)" stroke-width="1px" opacity="0.25"></line><line x1="839.125" y1="0" x2="839.125" y2="377" fill="rgb(0, 0, 0)" stroke="rgb(60, 60, 60)" stroke-width="1px" opacity="0.25"></line></g><g><line x1="0" y1="377" x2="839.125" y2="377" fill="rgb(0, 0, 0)" stroke="rgb(60, 60, 60)" stroke-width="1px" opacity="0.25"></line><line x1="0" y1="350.07142857142856" x2="839.125" y2="350.07142857142856" fill="rgb(0, 0, 0)" stroke="rgb(60, 60, 60)" stroke-width="1px" opacity="0.25"></line><line x1="0" y1="323.14285714285717" x2="839.125" y2="323.14285714285717" fill="rgb(0, 0, 0)" stroke="rgb(60, 60, 60)" stroke-width="1px" opacity="0.25"></line><line x1="0" y1="296.2142857142857" x2="839.125" y2="296.2142857142857" fill="rgb(0, 0, 0)" stroke="rgb(60, 60, 60)" stroke-width="1px" opacity="0.25"></line><line x1="0" y1="269.2857142857143" x2="839.125" y2="269.2857142857143" fill="rgb(0, 0, 0)" stroke="rgb(60, 60, 60)" stroke-width="1px" opacity="0.25"></line><line x1="0" y1="242.35714285714286" x2="839.125" y2="242.35714285714286" fill="rgb(0, 0, 0)" stroke="rgb(60, 60, 60)" stroke-width="1px" opacity="0.25"></line><line x1="0" y1="215.42857142857144" x2="839.125" y2="215.42857142857144" fill="rgb(0, 0, 0)" stroke="rgb(60, 60, 60)" stroke-width="1px" opacity="0.25"></line><line x1="0" y1="188.5" x2="839.125" y2="188.5" fill="rgb(0, 0, 0)" stroke="rgb(60, 60, 60)" stroke-width="1px" opacity="0.25"></line><line x1="0" y1="161.57142857142858" x2="839.125" y2="161.57142857142858" fill="rgb(0, 0, 0)" stroke="rgb(60, 60, 60)" stroke-width="1px" opacity="0.25"></line><line x1="0" y1="134.64285714285714" x2="839.125" y2="134.64285714285714" fill="rgb(0, 0, 0)" stroke="rgb(60, 60, 60)" stroke-width="1px" opacity="0.25"></line><line x1="0" y1="107.71428571428572" x2="839.125" y2="107.71428571428572" fill="rgb(0, 0, 0)" stroke="rgb(60, 60, 60)" stroke-width="1px" opacity="0.25"></line><line x1="0" y1="80.78571428571428" x2="839.125" y2="80.78571428571428" fill="rgb(0, 0, 0)" stroke="rgb(60, 60, 60)" stroke-width="1px" opacity="0.25"></line><line x1="0" y1="53.85714285714289" x2="839.125" y2="53.85714285714289" fill="rgb(0, 0, 0)" stroke="rgb(60, 60, 60)" stroke-width="1px" opacity="0.25"></line><line x1="0" y1="26.928571428571445" x2="839.125" y2="26.928571428571445" fill="rgb(0, 0, 0)" stroke="rgb(60, 60, 60)" stroke-width="1px" opacity="0.25"></line><line x1="0" y1="0" x2="839.125" y2="0" fill="rgb(0, 0, 0)" stroke="rgb(60, 60, 60)" stroke-width="1px" opacity="0.25"></line></g></g></g><g><g><line x1="0" y1="323.14285714285717" x2="839.125" y2="323.14285714285717" fill="rgb(0, 0, 0)" stroke="rgb(153, 153, 153)" stroke-width="1.5px"></line></g></g><g><g><line x1="93.2361111111111" y1="0" x2="93.2361111111111" y2="377" fill="rgb(0, 0, 0)" stroke="rgb(153, 153, 153)" stroke-width="1.5px"></line></g></g><g><g><g><g><g><path stroke="rgb(255, 112, 67)" stroke-width="2px" d="M121.63583055555556,-2.5172726514666124L122.17660000000001,2.406187072966418L122.47495555555555,8.554065604867162L122.77331111111111,-0.014810622013271768L123.81755555555556,10.218904404953776L124.76856388888889,25.948420470553003L125.10421388888888,52.776057592520544L125.27203888888889,51.95299471960732L125.57039444444445,53.0397559905274L125.6263361111111,52.44708128596619L126.4468138888889,60.65808099574957L127.62158888888888,68.22847681596716L128.03182777777778,65.29019375995489L128.08776944444443,70.45863147334597L128.23694722222223,67.74590691353092L128.9828361111111,85.79029808979169L129.2998388888889,96.11182690500095L129.54225277777778,92.4272999404771L131.20185555555554,92.45979588944846L132.32068888888887,103.9941997698665L134.01758611111111,109.79886532853368L134.24135277777776,116.70262684755005L134.83806388888888,118.44597747353771L134.94994722222222,123.67502087950402L135.32289166666666,129.15279519404504L135.41612777777777,134.64283540837994L136.2552527777778,143.88994607665816L136.47901944444445,148.65273075220472L137.13167222222222,136.89533092841287L137.78432500000002,129.23578299101203L137.80297222222222,137.08908439628746L138.66074444444445,136.37849345774933L138.97774722222223,144.1511751658579L139.01504166666666,146.7637898626329L139.10827777777777,149.5975800813676L139.57445833333333,147.92782276042945L139.59310555555555,160.79498801246757L139.81687222222223,157.16620876730198L139.91010833333334,151.92167951071687L140.45087777777778,152.74011150924733L140.7305861111111,157.84823465304595L140.84246944444445,154.87666632762907L143.30390277777778,166.78415869833697L144.3295,174.692815407797L145.24321388888887,180.22126204054612L147.23846666666665,183.19489170821006L148.56241944444446,186.63008090766877L149.38289722222223,180.29654531682237L149.8863722222222,184.74290860979298L149.9423138888889,182.51889555541086L151.02385277777776,189.09576741475027L152.17998055555555,195.98460410435464L152.83263333333335,186.0825449371306L153.46663888888887,198.89197756058635L153.7277,204.2575692180622L153.76499444444443,203.64628192106997L153.78364166666665,206.20436962522848L154.86518055555555,206.67474632990744L158.12844444444445,207.57652343914057L160.3661111111111,208.09362925055711L160.7017611111111,210.36057070556848L160.73905555555555,216.04025331364784L161.6714166666667,217.4106615497274L162.7156611111111,220.25167619156173L162.99536944444444,224.3140989548575L163.965025,218.2707383193823L164.35661666666667,215.86155347234663L164.4871472222222,218.19660930416126L166.48239999999998,222.47268928124902L167.00452222222222,226.71763381552762L167.52664444444446,226.62775384387328L168.49630000000002,227.74214838999225L169.65242777777777,232.57280845080444L171.47985555555556,234.34876635623183L172.05791944444445,236.1890162235204L172.15115555555556,235.79567885092266L173.49375555555557,233.93410471323523L173.73616944444444,233.6834757453235L173.77346388888887,232.06910177709565L175.2838888888889,232.66480999034926L176.99943333333334,238.22888525715555L177.3164361111111,239.8491270224857L177.70802777777777,237.9091267054784L179.53545555555556,241.89888151933937L180.20675555555556,240.36748555996698L180.28134444444444,244.14778611480406L180.43052222222224,243.20752809893614L181.81041666666667,242.30480667962405L182.5190111111111,241.7603514765811L182.78007222222223,241.7779076442189L183.4886666666667,242.69798069694616L183.71243333333334,244.76101750517984L184.49561666666665,247.20131796487374L185.76362777777777,248.39527670759597L185.9314527777778,246.73946427066878L185.98739444444445,249.37888243480944L187.40458333333333,248.20254839726084L187.4418777777778,250.0012805707749L188.44882777777778,248.60798077696114L188.97095000000002,248.8848368733226L190.92890833333334,250.96522902474823L192.60715833333333,250.43340545482477L192.9055138888889,251.3527945715268L193.166575,252.9788939021873L194.30405555555555,254.31646678652027L196.1128361111111,254.63530981254542L196.70954722222223,251.7816861918856L198.85397777777777,252.04225350753774L199.1336861111111,254.89326412452473L199.95416388888887,255.82584398883793L201.53917777777778,252.37753213923958L201.85618055555554,255.38240360393905L201.91212222222222,257.2314240338321L202.58342222222223,255.70534299282863L202.7139527777778,258.69597516509504L203.38525277777777,258.48304623737357L203.77684444444444,256.1579842640851L204.93297222222222,258.05612017527017L205.30591666666666,256.0119208784644L207.37575833333335,256.0296602354919L207.56223055555554,258.53129480860343L208.8488888888889,260.6030377099105L209.09130277777777,258.83096718825885L209.2031861111111,258.29326520669963L209.44559999999998,259.4677512306482L210.50849166666669,260.68146766943227L210.93737777777775,259.87200393000455L211.03061388888887,259.1080865179083L212.13080000000002,259.45969444004186L212.57833333333335,261.7125752571757L214.36846666666668,259.6062426654334L214.816,262.70008441903633L215.82295,261.3756610152458L216.36371944444443,263.65683846117213L217.37066944444447,264.07896831298564L218.0979111111111,263.7954241911453L218.15385277777776,263.30683169500463L218.37761944444443,261.57064308111586L218.95568333333335,263.36522876679305L220.89499444444445,262.3088423253943L221.04417222222222,262.4656566525608L221.32388055555558,265.6568920392289L223.1326611111111,268.25957694436363L223.6174888888889,265.48235669093197L224.02772777777776,264.9820563150287L225.74327222222223,264.9030159292041L225.89245,263.7882600430244L226.65698611111114,263.6755509940655L227.7944666666667,264.62356889567286L228.37253055555553,263.6007634556724L229.56595277777777,265.3887805793544L230.088075,268.8037637657525L230.1067222222222,267.58023459661183L230.46101944444447,267.4545405665783L230.88990555555554,268.512589738354L231.24420277777776,268.4510637282554L232.15791666666667,268.34989404265L232.34438888888891,266.87165529820527L232.40033055555557,268.14562528393304L232.68003888888887,265.5295993800091L233.29539722222222,265.73521465408703L236.57730833333332,267.2992054806738L236.6891916666667,268.5656899869963L237.93855555555555,268.27221826335085L238.46067777777776,267.836640686088L238.64714999999998,270.25433614186323L239.29980277777776,270.0998931853457L240.54916666666668,270.0936147357684L241.1458777777778,271.11489669509984L242.2460638888889,269.71306292686955L242.89871666666664,269.9326480553139L243.32760277777777,270.3148886023174L243.64460555555553,271.01714115830384L245.77038888888887,269.3715478407015L246.42304166666668,269.3108861683666L246.53492500000002,269.75548950324753L247.82158333333334,270.089449920341L248.64206111111113,271.1524076552555L249.18283055555554,271.16603429521456L249.27606666666665,271.83579745278814L249.44389166666667,271.61212313575606L251.1221416666667,272.4522178946405L251.17808333333335,272.4793435799163L251.70020555555553,272.7082224374973L251.88667777777778,269.4268410836096L252.96821666666665,270.9037888053574L253.62086944444442,268.81257824918737L254.2362277777778,270.2395044001066L254.254875,270.3758667334903L255.37370833333335,270.5516383901232L257.6859638888889,272.08032154172616L257.74190555555555,271.7351865920933L258.78615,274.3935139883806L259.2709777777778,274.57972817561244L259.32691944444446,273.5353095621624L259.7185111111111,272.57883234224414L259.84904166666666,272.44617148110854L260.93058055555554,272.533597049617L261.0424638888889,272.7425156970129L262.0867083333334,272.731757124621L265.2753833333333,272.6268933400519L265.4059138888889,270.92728601264145L265.9093888888889,271.5443108291032L266.9536333333333,272.4625601144707L267.5503444444444,270.20098638197805L268.74376666666666,270.22871884075846L268.79970833333334,270.15141176375005L269.1726527777778,271.0433232668006L269.78801111111113,270.15924342002825L271.2611416666667,272.96981632427185L271.3916722222222,275.4464403033347L271.6340861111111,274.4417986757469L272.044325,274.05526771211953L272.75291944444444,275.6440508829273L273.3123361111111,274.44170427720053L273.74122222222223,275.87873003721415L274.0768722222222,272.6469115537245L275.38217777777777,272.34338083652835L276.78071944444446,273.833139688217L277.97414166666664,274.4260781469603L279.1862111111111,274.6017243507813L280.7898722222222,276.0605836825981L281.2747,274.70835133298726L282.8410666666667,274.3681892457446L284.8549666666667,274.7306719858296L284.9854972222222,275.57960562767244L287.09263333333337,275.2831382462225L287.148575,276.45110599621614L287.54016666666666,275.82683501156004L288.64035277777776,274.53642707772156L288.826825,276.62869368617L288.9014138888889,276.8153262294785L289.44218333333333,275.4221783391253L290.0575416666667,274.6964588998157L291.0271972222222,274.4429186707632L291.3442,275.35741995812543L291.60526111111113,273.6784880342549L291.90361666666666,275.3789786413504L292.2206194444445,275.1150684238021L292.96650833333337,276.18717379198597L293.82428055555556,276.0969273871889L293.84292777777773,273.7046270062836L294.2531666666667,275.05097717414736L294.90581944444443,274.18380771755585L295.09229166666665,276.71417648686327L295.39064722222224,276.6572251674563L295.55847222222224,274.74711389285505L295.8195333333333,276.2917804450608L296.5281277777778,276.23367730647936L296.5840694444444,277.0535975618825L297.218075,277.18698781103456L297.29266388888885,276.34945598465544L297.72155,274.9059882832905L297.83343333333335,275.3749209907513L297.8707277777778,276.2633776585377L298.6166166666667,276.806439033924L298.7285,277.41325391551845L298.9709138888889,279.71653199242434L299.06415,280.6514578856129L300.2575722222222,279.1857236741244L300.61186944444444,279.1880175865362L300.77969444444443,279.65339852892237L301.61881944444445,278.81422474610815L302.0477055555555,277.67055774960863L302.085,277.8303978482635L302.10364722222226,276.8199581135874L303.20383333333336,276.94318866054465L306.1687416666667,275.12307106702815L307.15704444444447,277.7666317690654L307.52998888888885,277.57726001811625L308.10805277777774,277.1320864307099L308.2758777777778,277.13955418748935L308.59288055555555,278.2189115995875L308.9098833333333,278.02856116808294L309.4879472222222,276.89628713575246L310.43895555555554,276.3582572943234L310.86784166666666,276.4696179700225L311.12890277777774,277.37605311620496L312.5087972222222,279.3849650000145L314.63458055555554,279.8739600387835L316.42471388888885,277.8640897125292L316.51795,278.47328619745815L317.18925,278.7445583514759L317.7673138888889,278.19350812781477L319.57609444444444,278.7598259088315L320.06092222222225,277.9133211396287L320.13551111111116,276.8711848987431L320.4338666666667,276.00015056076245L321.21705,277.87712449652656L322.41047222222227,278.1637966937328L322.4664138888889,278.1850623041011L322.7647694444444,278.53214062833206L324.5549027777778,279.8543856647048L325.5432055555556,280.7969757552235L327.31469166666665,281.6716735980087L329.51506388888885,279.7162129261512L330.0371861111111,279.09694433935135L331.1373722222222,279.28938736668107L332.0137916666667,278.4569668319022L333.35639166666664,278.46216584634243L333.71068888888885,278.82381248962895L334.5125194444445,278.65665507269256L334.88546388888886,280.30755650968763L335.9670027777778,280.47252875379144L336.28400555555555,280.24443135660033L336.7874805555556,280.0912936772687L337.17907222222226,279.72996253729275L337.4028388888889,280.2585805149784L337.68254722222224,280.9932731291513L337.7571361111111,281.86252113500683L338.0741388888889,280.56897950703427L338.7454388888889,279.18182314442026L339.49132777777777,281.1804993553204L340.1066861111111,281.915026358389L342.15788055555555,282.0767059940408L343.14618333333334,281.71882339825095L343.22077222222225,281.78284149473825L343.59371666666664,281.98004236539896L344.5074305555556,281.0540889970276L345.0482,280.51707541348844L345.83138333333335,280.7892200672764L346.7823916666667,278.54697742180286L347.2112777777778,280.08925048863364L348.3114638888889,280.82695235396136L348.36740555555554,280.5352600294292L349.579475,279.94176747071384L350.12024444444444,281.8142381392832L350.75425,281.6385965311562L351.4069027777778,282.1268684127352L351.8357888888889,282.8061547007641L352.1341444444444,282.71109623981687L353.49539166666665,284.3353531317304L353.84968888888886,283.0484474428614L354.25992777777776,282.4068178815232L355.789,282.3964745570771L358.4182583333333,281.8930429133932L359.648975,281.941213602612L359.77950555555555,283.59990713285777L359.94733055555554,283.83619962165324L360.26433333333335,284.4113819788243L360.4881,284.27435338269316L360.59998333333334,283.70411981377816L361.70016944444444,282.20330167552123L362.63253055555555,282.28336733850585L363.50894999999997,282.586096348004L364.18025,283.0174296780531L364.62778333333335,282.24305129893105L364.683725,281.4333564945054L366.08226666666667,281.50030446355635L366.19415000000004,281.3074250852514L366.75356666666664,282.4344412092493L366.9213916666667,283.03369750660556L366.99598055555555,283.73601675252684L367.10786388888886,283.4974929652418L368.8234083333333,282.05769695497105L368.84205555555553,282.78618028129495L368.9912333333333,283.22427825975205L369.0658222222222,284.45205509486755L369.38282499999997,285.244415769203L370.57624722222226,284.3496473128935L370.9305444444445,285.1142125578215L371.56455,284.5214126345126L373.44791944444444,283.72179400287575L374.62269444444445,282.76930720426145L375.4804666666667,283.37571413152773L376.30094444444444,283.03603133119304L376.6552416666667,281.9925913537401L377.9046055555556,283.4485726975884L378.98614444444445,283.15663307704585L379.4150305555555,282.2468939139046L380.9254555555556,283.8349150435855L381.76458055555554,284.9362799688502L381.801875,285.1096757458812L382.3985861111111,284.7589242752123L382.97664999999995,283.90492461468574L384.0768361111111,283.455954535025L386.7433888888889,284.2924809866738L387.19092222222224,284.2886707688667L387.35874722222223,285.10177584151785L387.47063055555554,285.56023404055196L388.3284027777778,283.77046867385377L388.3843444444444,283.2819327875751L388.73864166666664,285.64022682865556L391.200075,285.0134708092219L391.4611361111111,284.62948687791175L393.36315277777777,283.4813931494401L393.75474444444444,284.85648734881306L395.09734444444445,286.8296643705L396.234825,285.2371279229079L397.577425,286.22332093720337L397.98766388888885,283.8608771113267L398.30466666666666,283.9736132454359L399.16243888888886,284.6760875431162L399.79644444444443,285.2960188689592L401.00851388888884,283.4312333185276L402.0154638888889,283.75700916078773L402.50029166666667,283.60601497427876L402.5935277777778,283.7407995336003L403.9174805555555,283.0680664770026L404.58878055555556,282.1489687063484L405.50249444444444,282.4826395229554L406.6586222222222,283.47130402848035L406.67726944444445,282.55320029810014L407.311275,285.04516293107156L407.5723361111111,287.15925342226944L408.35551944444444,287.030664291292L411.4696055555556,286.4762881623138L412.04766944444447,285.635613541816L412.681675,283.9211570422224L413.81915555555554,283.0937278441242L414.0056277777778,283.42369540760825L414.69557499999996,284.05944602626505L414.8447527777778,284.7241896038103L415.3109333333333,284.9984272642982L415.64658333333335,284.6545575300997L415.68387777777775,283.7646565171737L416.1127638888889,284.5791578780635L416.1314111111111,283.8564368813137L416.15005833333333,284.78222106441683L416.206,284.55387911951016L416.56029722222223,285.2642958915985L417.21295,284.2058260142573L417.79101388888887,284.8499203128336L418.18260555555554,283.55825268557265L418.5182555555556,283.60368579397385L418.7047277777778,284.1468876841992L420.36433055555557,283.74479237712546L420.62539166666664,282.5445199426752L420.9983361111111,284.42313738309645L421.1661611111111,285.60757281908235L421.2966916666667,286.71373180806796L421.3153388888889,287.4287187523681L421.85610833333334,287.6459189948803L422.0425805555556,288.39358293739014L422.41552499999995,287.49826690987976L423.7021833333333,287.03689941853594L424.61589722222226,284.6321633199557L425.23125555555555,285.3903205018208L425.93985000000004,284.4566384396107L428.00969166666664,285.6102539717134L428.4758722222222,284.81426850500134L428.53181388888885,284.6751988928633L428.69963888888884,284.28147823306335L429.2217611111111,284.2914375772194L429.8744138888889,284.85933462697113L430.09818055555553,284.2361127133241L430.82542222222224,284.16244411779724L431.29160277777777,283.78539552875327L431.6086055555556,284.44528586022835L432.8766166666667,284.39840749712454L433.2868555555556,284.65469723316744L433.8089777777778,284.07036453452196L434.81592777777774,285.89954219014766L437.29600833333336,287.44651017892295L437.3146555555556,287.89062174401585L439.08614166666666,286.9641058902173L439.9252666666667,285.93319899373057L442.1815805555555,286.875122446443L442.3121111111111,286.56958237804497L444.64301388888885,285.84458386269864L445.5380805555555,284.61976549248493L446.75014999999996,284.4704366382055L447.1044472222222,284.0874470318441L447.1976833333334,285.7491911591427L447.6265694444445,285.99491689196105L448.03680833333334,285.5872145475116L448.4284,286.49262431577415L449.6964111111111,286.52000134264483L450.68471388888884,286.0008266615232L451.76625277777777,287.29575216882165L452.58673055555556,286.69635401520486L452.6613194444444,286.6199184455816L453.12750000000005,286.7815294690508L456.5772361111111,284.201367321977L456.8569444444444,283.4347223966107L456.91288611111105,285.49296889732136L457.32312500000006,285.7405290826806L457.43500833333337,284.9549246445089L458.330075,284.92499418517116L458.6097833333333,284.6585816657723L459.4675555555556,285.00853069521077L459.7286166666666,285.0911514548571L459.9337361111111,285.4133132399557L460.1015611111111,283.5311637359863L460.95933333333335,283.6469188099762L461.1644527777778,285.5956624351197L461.27633611111116,286.1085334132039L462.3765222222222,287.8453969322738L462.87999722222224,288.77405856968403L463.30888333333337,288.5985946863465L464.6141888888889,288.9420047510267L465.02442777777776,287.8610495376604L465.6397861111111,286.4758812013364L465.9567888888889,286.794156506757L466.0873194444444,286.6760819099376L466.83320833333335,286.9717409320746L467.07562222222225,286.7690703831104L467.16885833333333,285.7611919142L467.28074166666664,286.6981094707791L467.33668333333327,286.42060274233313L468.75387222222224,286.0490300897609L468.77251944444447,285.71266084149016L468.8098138888889,285.4614738231401L469.59299722222227,284.1136826859074L469.6489388888889,284.40839847243774L470.2270027777778,285.16173752905524L470.7304777777778,286.12672837915693L470.78641944444445,286.3273531627644L470.87965555555553,285.7851405809941L471.9239,286.9211940007069L472.2036083333333,285.4706846259033L472.3714333333333,284.76673594605893L472.4087277777778,284.75980968172536L473.3224416666667,284.3022427765525L474.38533333333334,284.9470521608078L475.22445833333336,283.6356975895472L475.9889944444444,285.05010326109743L476.2314083333333,287.21223153711804L476.2500555555556,287.94813791878744L476.66029444444445,288.23742371948623L476.7535305555555,288.5787787293234L476.95865000000003,289.36645995705356L479.02849166666664,288.75662243528296L479.42008333333337,289.30853243652575L480.68809444444446,288.4876184564703L480.70674166666663,287.0653993122331L480.7626833333333,286.5648925749563L480.78133055555554,286.55172234549457L481.6763972222222,285.9724224434753L482.1239305555556,286.61251014117875L482.73928888888884,286.4435205523553L483.2054694444445,286.70928287889853L484.58536388888893,286.3853811287063L485.33125277777776,287.17185471945356L485.4804305555556,287.99270760796196L486.0771416666667,287.51474518986436L486.3195555555556,286.7020691564111L487.5129777777778,286.5997722924862L488.7250472222222,285.6519369829365L489.1539333333333,286.4124837214664L490.7203,287.71567385592124L490.77624166666664,288.0311757397536L490.86947777777783,288.88414934791143L492.1188416666667,288.9292105748135L492.4544916666666,288.1234314901245L493.85303333333337,287.6040503232674L494.58027500000003,287.61469101516667L494.5989222222222,288.09614215344857L497.52653611111117,287.99419805522876L498.3097194444444,288.03001365305084L498.3283666666667,287.0247474744385L499.54043611111115,286.2867954462023L499.65231944444446,286.6646620786595L500.0252638888889,287.2418967936282L500.1371472222222,286.07198901156795L500.5287388888889,286.21900457847244L500.64062222222225,285.58598113652374L501.7594555555556,286.85104711070585L502.8596416666666,289.1252592687134L503.4563527777778,290.95927535457497L503.5868833333333,290.03187941546236L507.5773888888889,289.79362281496606L508.0435694444445,289.1669565936046L508.2859833333333,286.83071692586645L508.7894583333333,286.6670711675754L508.91998888888884,286.63971471851465L509.12510833333334,286.09725331617915L509.2183444444444,286.2764547752267L509.36752222222225,287.2168595263658L509.62858333333327,287.09638553249056L510.1507055555556,287.480778916998L511.43736388888885,287.354731615123L511.49330555555554,286.4167028010026L512.2764888888888,285.7451094165951L512.9291416666666,287.04219383195954L513.6190888888889,287.2180483608343L515.3159861111111,285.8284955116875L515.6143416666667,286.1819953156315L517.6095944444444,287.65742490827716L517.740125,288.0748631434592L517.9638916666667,288.95257379275273L518.9149,288.34371349099024L519.1200194444444,287.5923091327967L519.1386666666667,288.46251832324054L520.8169166666667,288.3858482055532L520.8728583333334,288.9209911558345L523.614,288.1721527655908L523.688588888889,286.8154008197778L523.7072361111111,286.75104478304684L524.0242388888888,286.99060099051314L524.3039472222222,288.3255763301521L524.4904194444445,288.2339537224164L524.6955388888889,288.0600767252014L524.788775,288.1961640223449L524.8820111111112,287.185124672584L524.9566000000001,286.47045174155284L525.0684833333333,285.8449257206879L525.5160166666666,285.8481056719485L525.7024888888889,285.7834354247897L526.1873166666667,286.2798348328364L527.0264416666666,286.4664278611647L527.4553277777778,286.6559880707583L528.4063361111112,287.09408531306L528.8538694444445,287.3381130014357L529.2081666666667,286.84429369655237L529.4692277777777,286.9657550709664L530.0845861111111,288.41169047015507L532.1917222222222,288.5238271284131L533.1054361111112,289.13846168599974L534.615861111111,287.50520908472976L534.8209805555556,289.4745454562275L535.193925,287.49781273099336L536.3127583333334,288.0147912638936L536.5551722222223,287.9538032136889L537.2451194444444,287.1934647071168L537.6180638888889,288.43885318683414L537.8231833333333,286.88582361232193L539.4268444444444,287.2129043063408L539.6133166666667,286.2218454501135L542.242575,287.69539153190783L542.9325222222222,286.99744737598417L542.9698166666667,286.8937351730651L543.5105861111111,285.8482085652888L544.2378277777779,287.75803632492836L545.1328944444444,287.8434889935469L546.0279611111112,287.9499210013756L546.0652555555555,287.90563329676786L546.2144333333333,288.38652023616856L546.7738499999999,288.65197922723974L547.2027361111111,289.066502797231L547.4637972222222,287.09425490527275L548.5266888888889,286.77558194739686L550.3168222222222,288.0238506061703L551.1559472222222,287.6951460773612L551.2305361111111,287.404516110625L552.3493694444444,287.505927323328L553.2071416666666,288.09000950482795L553.7665583333334,287.06936099017616L554.1767972222223,286.896122320375L554.325975,286.5491975143269L556.6009361111111,285.8754252634986L557.1603527777778,284.98206304395035L557.5705916666667,288.3123128075147L558.18595,288.6056339809827L558.7267194444445,289.58633969244556L559.5658444444445,288.9250212721487L560.2930861111112,289.087152112273L561.8967472222222,289.21228047108934L563.2579944444444,287.98760429048025L563.724175,286.56031577686275L563.9665888888889,286.87621880113966L564.134413888889,287.67848053300315L565.6075444444444,287.77557788837595L566.7077305555556,288.4913979648186L568.8335138888889,287.2754924974308L569.1132222222221,287.6496529951288L570.0828777777778,286.37540362751616L570.5863527777777,286.086475441569L571.7424805555556,286.94243575572943L572.2086611111112,288.7504363145827L573.8682638888889,288.5935394032069L574.5582111111112,288.94145365819656L575.2108638888889,288.47798948786703L575.8262222222222,287.83204739188665L576.5907583333334,287.7854447895021L578.6046583333333,286.58594029065637L578.9030138888888,287.44304348947037L579.2946055555556,286.24680890819855L579.4624305555556,285.9956267384716L579.7607861111111,284.582920574769L580.9355611111112,286.91670459724935L580.9542083333333,286.62387873063966L581.2152694444444,286.30719147521546L583.2664638888889,286.8121016304732L583.5088777777778,286.309378095757L583.7139972222222,286.50961019635514L585.5787194444445,287.05185792640464L586.8280833333333,287.4038827935026L587.6112666666667,289.772400185331L590.5575277777778,288.59747502753135L592.1238944444444,289.47164098096147L592.1611888888889,289.54488276558754L592.9070777777778,286.988521478707L592.925725,287.524643972511L592.9443722222222,287.72379685512306L593.2427277777778,287.22922297843684L593.4851416666667,286.49451467965224L593.5224361111111,287.1583346903488L595.368511111111,287.1784457263023L598.1655944444444,286.94298262320837L599.3590166666667,288.41869128811373L599.4709,289.49418991589215L599.5827833333334,288.67876042339265L599.6573722222223,288.9075253741157L599.6760194444444,289.489713028103L601.0745611111112,289.88690287089423L601.8204499999999,288.72467558683036L602.8460472222222,289.27057732829667L604.8785944444444,288.7737362213003L605.0837138888888,287.4222241877613L605.2328916666667,287.51780925881593L606.1279583333334,289.1372586410745L606.5754916666666,288.33985706270187L607.3213805555556,289.0211419009338L607.3773222222222,288.6305247698698L607.9553861111111,287.3131342605294L608.1418583333333,287.2252972562721L608.2723888888889,286.37872716935425L608.6080388888889,286.8748244490484L609.6709305555555,285.92005215988684L610.043875,286.4126508579449L610.0998166666667,286.5105388983707L610.4914083333333,285.6878274796038L612.0950694444444,288.5982402599148L613.7919666666667,288.18107592594663L613.8292611111111,288.2333955498459L614.4259722222222,288.7615263166041L614.7616222222222,288.5770740058939L620.0387861111111,286.7526086673434L620.5236138888889,287.80251466152555L621.3440916666667,287.746942731672L622.3696888888888,289.1385352279914L623.5258166666666,287.97423223140584L623.7682305555555,287.1012476038756L625.4837749999999,286.2169200476813L626.0245444444444,288.0279635435994L626.7517861111111,288.4426619778922L627.9638555555556,289.0617149965759L631.9730083333333,289.4952911860396L633.446138888889,289.3381526222105L633.9309666666667,288.516299893617L634.3412055555556,288.5474432494909L634.6955027777778,287.8622466232665L635.0684472222222,286.9955256201882L635.1616833333334,286.43791902002613L635.4600388888889,286.2692497454017L635.6838055555555,286.54485392888535L635.982161111111,286.8584476728448L636.4856361111111,286.82453057199257L637.7536472222223,287.0302881574688L638.6673611111111,284.96907832309523L638.909775,284.61881218177456L639.0589527777778,285.68128774911736L640.8304388888889,286.65631759205377L642.1730388888889,287.15029090836424L642.7883972222222,287.41475587518164L642.9189277777778,288.11361854248224L643.0867527777779,288.64900566749134L644.0191138888889,288.48034681191314L644.0750555555555,289.0171903994866L644.4666472222223,289.5667359623766L644.6904138888889,289.3546835333466L645.0447111111112,290.62480624277686L645.3990083333333,289.805041761326L647.9350305555556,288.3264694859207L649.4454555555556,288.79135445311533L649.4641027777777,287.91485994618625L650.0981083333334,287.39754586128714L650.4524055555556,286.5095769243226L651.3101777777778,285.65506418890186L652.6527777777778,285.55777637824417L652.7460138888889,285.99140452372603L653.2308416666666,288.044682411801L654.0886138888889,289.6159014394588L654.3683222222222,289.72434294083246L655.2074472222222,289.4712204584136L655.8973944444444,290.41975072742L656.699225,289.4463960358445L657.0721694444444,290.32015984912096L657.1840527777778,289.39842912777465L657.4264666666667,287.71627034508276L657.9485888888888,288.2303155186701L658.7504194444444,288.30108856014266L659.4963083333333,288.5906057255294L660.7456722222222,287.07318049565197L661.2118527777777,286.91601198849224L661.3423833333334,286.2899826948643L661.4169722222223,286.53876094216616L663.2630472222222,286.7693290756103L663.318988888889,286.30596080440876L664.0648777777777,287.17402640166466L664.6615888888889,286.5308653578402L665.8177166666667,287.03926892669443L666.0787777777778,286.66796497373934L666.3957805555555,285.57483130445144L666.4144277777777,287.7609524422462L667.1976111111111,288.3418595233562L669.0436861111111,288.65909339081406L669.5471611111111,289.44316246478735L672.2696555555556,288.5721574686109L673.2579583333334,288.1190436400258L675.2718583333333,287.5629948549695L675.4769777777777,288.2224223989469L677.7705861111111,287.5056178965531L678.8707722222222,287.66305811395415L679.5607194444444,287.54899567053246L679.952311111111,287.6371152467376L680.6422583333334,288.8180467134537L681.3135583333333,289.3072698501242L681.3322055555556,290.49828581394854L681.7983861111111,289.36703645048374L682.9545138888889,289.16698742935046L683.0663972222222,289.2907331664246L683.3461055555556,289.50333746460655L684.2784666666666,289.2678876070577L684.7632944444445,287.9065991353885L685.0802972222223,288.08230632699616L685.5091833333333,287.74645124086277L686.3669555555556,288.5666897666963L687.579025,287.8585155709095L687.7095555555555,288.02725377529475L687.8587333333334,288.14072474747667L688.7538,287.9005495398116L688.921625,287.10693377275214L690.0218111111111,287.7221052153899L690.264225,288.71562701742954L692.9680722222222,287.7455045359201L693.1918388888889,287.14071098939064L693.8071972222223,288.3463085309338L693.8444916666666,290.7247591794363L694.5903805555556,291.72644932836994L695.80245,291.4938925729436L697.1823444444445,290.5825018949483L698.0587638888888,289.37454514222674L698.7300638888889,289.188817105652L699.2708333333334,287.8084752094514L699.8116027777778,288.230386862775L700.0540166666667,288.08927909198337L700.1099583333333,288.80056119786036L701.340675,288.3556540197852L701.3966166666667,286.63035140809893L702.1984472222223,286.7196008244943L702.9256888888889,287.18133594273274L703.1121611111112,286.6892233233377L703.1681027777778,287.80486182813195L704.1564055555556,287.1513993017252L706.2635416666667,286.8196993053524L706.6178388888889,287.44805587414317L706.7483694444445,287.32502566710866L706.7670166666667,288.29862736680707L706.8975472222222,289.1951025052839L708.1096166666666,290.31186111712293L708.6317388888889,289.555469298028L708.8555055555556,289.66732306528445L709.0979194444445,289.670909304907L709.22845,290.242234830893L710.738875,289.83809958473773L711.3542333333334,289.7594188298766L711.4288222222223,289.20006016426333L711.9322972222222,288.28590143810965L711.9695916666667,289.0529417103008L713.2189555555556,289.5502018531589L713.6478416666667,289.51802694118874L714.9531472222222,289.17673637800385L715.1396194444445,287.9341687716167L715.4566222222222,287.57689542514805L715.5871527777778,288.0463352991846L715.6430944444444,287.4611816436559L715.9041555555556,287.9349364298886L716.109275,286.9708432215294L718.6452972222222,288.0171256593711L719.3352444444445,288.22974365884005L720.3608416666667,288.35883606292316L720.4913722222221,287.8488969919703L721.7034416666667,288.9762656350081L722.1696222222222,291.58840388582445L722.3374472222223,291.39114448827L722.5612138888889,289.21057188665054L722.9155111111111,288.50292307401236L723.2325138888889,288.8799868923015L723.5122222222222,289.37312871993527L724.2394638888888,289.60164205301373L724.4632305555556,291.3457196716581L724.9294111111111,289.5186516416822L725.4888277777778,289.1025166290937L725.6193583333334,288.38143487356024L726.7008972222222,288.5949489330168L726.9060166666667,288.04442052146715L727.5586694444444,289.15739211755687L727.9129666666668,289.08262955906036L728.0434972222222,289.8193065663187L728.9012694444444,289.08432030660816L729.870925,288.8403923714845L729.9268666666667,287.6507453052727L730.5795194444445,286.95266490237793L731.8475305555555,287.5727809866821L732.3137111111112,287.1036178401869L732.9477166666666,287.3176866030892L733.0036583333334,287.30127112178633L733.9733138888888,287.52320776731665L733.9919611111111,287.5216891462941L734.1411388888889,287.79336730299144L734.3835527777778,288.0111943292654L735.40915,288.98429696778106L735.912625,290.38683950146395L737.0314583333333,290.11616337187166L737.0501055555555,288.5341046394702L737.5349333333334,289.61852129010276L737.7587,289.7204011218509L738.0384083333333,289.9872396635782L738.4113527777778,289.10815760522564L738.5791777777778,289.18707478660036L738.7470027777778,289.2110129325082L739.3064194444444,289.70845632637764L740.2201333333334,288.0077588883439L741.2457305555556,288.9815692790218L741.8424416666667,288.9741119079511L742.2526805555556,289.6659827260379L743.6139277777777,288.83230714966083L745.0684111111111,288.6386928922658L746.4483055555555,288.65817825936483L747.3620194444445,288.2842859358468L748.0333194444445,286.03264444824754L749.1894472222222,288.81759475665166L750.1404555555555,289.57761441382183L750.6252833333333,290.0160539243791L750.6812249999999,289.93459429280426L752.0984138888889,288.63838298453203L752.4900055555555,289.56573142267393L752.6391833333333,289.7931914428301L752.8815972222222,289.132852665833L752.9188916666667,288.5964512097631L753.030775,289.1252757964352L754.2241972222222,288.9225670593529L754.8582027777778,288.8092894544162L754.8954972222222,288.76938461516335L754.9141444444444,288.70717303989466L756.5178055555556,287.6811422239601L756.5737472222222,286.9436002060006L757.0772222222223,287.2506545610905L760.2658972222222,288.4885629108443L760.3964277777777,287.43189322468436L761.086375,286.1516987669617L761.6271444444445,285.7001079092456L761.7203805555555,286.3890918798977L762.5035638888888,287.94145387712666L763.6596916666667,288.7424702202634L763.9766944444444,288.51419599471336L763.9953416666666,289.26669076964254L765.2260583333334,289.98306364944574L765.3752361111111,290.23012021772945L765.5990027777777,289.6973379587703L766.28895,288.28698000012986L766.3075972222223,288.6866882944908L766.3635388888889,289.6628426801617L767.5942555555555,288.14986661366214L768.5639111111111,287.8087957918994L768.8436194444445,287.80437717729353L769.1233277777778,287.8028521241927L769.4216833333334,287.9275651175234L769.6640972222223,287.707186250935L770.3167500000001,288.60435833618897L770.6710472222222,287.9955657606474L770.8015777777778,286.5363606588846L775.1463805555555,287.465884156207L775.6685027777778,286.8097739756327" style="fill: none;" fill="none"></path></g></g></g></g><g opacity="0.2"><g><g><g><path stroke="rgb(255, 112, 67)" stroke-width="2px" d="M120.01352222222222,-50.20655066626415L120.5729388888889,0.8657864843096377L121.63583055555556,37.061917441231856L122.17660000000001,9.791376658848321L122.47495555555555,17.775883402143222L122.77331111111111,-12.868124961853027L123.81755555555556,25.569476945059648L124.76856388888889,49.54269456863403L125.10421388888888,93.01751327514648L125.27203888888889,50.718400410243476L125.57039444444445,54.66989789690291L125.6263361111111,51.55806922912598L126.4468138888889,72.97458056041171L127.62158888888888,79.58407054628645L128.03182777777778,60.882769175938165L128.08776944444443,78.21128804343084L128.23694722222223,63.676820073808926L128.9828361111111,112.85688485418046L129.2998388888889,111.59412012781416L129.54225277777778,86.90050949369157L131.20185555555554,92.50853981290544L132.32068888888887,121.29580559049333L134.01758611111111,118.50586366653442L134.24135277777776,127.05826912607466L134.83806388888888,121.06100341251917L134.94994722222222,131.51858598845345L135.32289166666666,137.3694566658565L135.41612777777777,142.87789572988237L136.2552527777778,157.7606120790754L136.47901944444445,155.79690776552474L137.13167222222222,119.25923119272505L137.78432500000002,117.74646108491083L137.80297222222222,148.86903650420052L138.66074444444445,135.31260704994202L138.97774722222223,155.8101977280208L139.01504166666666,150.6827119077955L139.10827777777777,153.8482654094696L139.57445833333333,145.42318677902222L139.59310555555555,180.09573589052474L139.81687222222223,151.72303989955358L139.91010833333334,144.05488562583923L140.45087777777778,153.967759507043L140.7305861111111,165.5104193687439L140.84246944444445,150.4193138395037L143.30390277777778,184.6453972543989L144.3295,186.55580047198706L145.24321388888887,188.5139319896698L147.23846666666665,187.6553362097059L148.56241944444446,191.78286470685686L149.38289722222223,170.7962419305529L149.8863722222222,191.41245354924882L149.9423138888889,179.18287597383772L151.02385277777776,198.96107520375932L152.17998055555555,206.31785913876126L152.83263333333335,171.22945618629456L153.46663888888887,218.10612649577004L153.7277,212.30595670427596L153.76499444444443,202.72935097558158L153.78364166666665,210.04150118146623L154.86518055555555,207.38031138692583L158.12844444444445,208.92918910299028L160.3661111111111,208.86928796768188L160.7017611111111,213.7609828880855L160.73905555555555,224.55977722576688L161.6714166666667,219.46627390384674L162.7156611111111,224.51319815431322L162.99536944444444,230.4077330998012L163.965025,209.20569736616952L164.35661666666667,212.24777620179313L164.4871472222222,221.69919305188316L166.48239999999998,228.88680924688066L167.00452222222222,233.08505061694552L167.52664444444446,226.49293388639177L168.49630000000002,229.41374020917075L169.65242777777777,239.8187985420227L171.47985555555556,237.0127032143729L172.05791944444445,238.9493910244533L172.15115555555556,235.20567279202598L173.49375555555557,231.14174350670407L173.73616944444444,233.30753229345595L173.77346388888887,229.6475408247539L175.2838888888889,233.55837231022971L176.99943333333334,246.57499815736497L177.3164361111111,242.27948967048098L177.70802777777777,234.99912622996737L179.53545555555556,247.88351374013084L180.20675555555556,238.07039162090848L180.28134444444444,249.81823694705963L180.43052222222224,241.79714107513428L181.81041666666667,240.9507245506559L182.5190111111111,240.94366867201668L182.78007222222223,241.80424189567566L183.4886666666667,244.07809027603696L183.71243333333334,247.85557271753038L184.49561666666665,250.8617686544146L185.76362777777777,250.18621482167924L185.9314527777778,244.255745615278L185.98739444444445,253.33800968102048L187.40458333333333,246.43804734093803L187.4418777777778,252.69937883104598L188.44882777777778,246.5180310862405L188.97095000000002,249.30012101786477L190.92890833333334,254.08581725188662L192.60715833333333,249.6356700999396L192.9055138888889,252.73187824657987L193.166575,255.4180428981781L194.30405555555555,256.3228261130197L196.1128361111111,255.11357435158322L196.70954722222223,247.50125076089586L198.85397777777777,252.4331044810159L199.1336861111111,259.1697800500052L199.95416388888887,257.22471378530776L201.53917777777778,247.205064364842L201.85618055555554,259.8897108009883L201.91212222222222,260.0049546786717L202.58342222222223,253.41622143132346L202.7139527777778,263.1819234234946L203.38525277777777,258.1636528457914L203.77684444444444,252.67039130415236L204.93297222222222,260.90332404204776L205.30591666666666,252.9456219332559L207.37575833333335,256.05626927103316L207.56223055555554,262.2837466682706L208.8488888888889,263.7106520618711L209.09130277777777,256.1728614057813L209.2031861111111,257.4867122343608L209.44559999999998,261.22948026657104L210.50849166666669,262.50204232760836L210.93737777777775,258.6578083208629L211.03061388888887,257.96221039976393L212.13080000000002,259.9871063232422L212.57833333333335,265.09189648287634L214.36846666666668,256.4467437778201L214.816,267.34084704944064L215.82295,259.3890259095601L216.36371944444443,267.0786046300616L217.37066944444447,264.7121630907059L218.0979111111111,263.3701080083847L218.15385277777776,262.5739429507937L218.37761944444443,258.96636016028265L218.95568333333335,266.0571072953088L220.89499444444445,260.72426266329626L221.04417222222222,262.70087814331055L221.32388055555558,270.4437451192311L223.1326611111111,272.1636043020657L223.6174888888889,261.31652631078447L224.02772777777776,264.23160575117384L225.74327222222223,264.78445535046717L225.89245,262.1161262137549L226.65698611111114,263.5064874206271L227.7944666666667,266.04559574808394L228.37253055555553,262.0665552956717L229.56595277777777,268.0708062648773L230.088075,273.92623854534963L230.1067222222222,265.744940842901L230.46101944444447,267.265999521528L230.88990555555554,270.09966349601746L231.24420277777776,268.35877471310755L232.15791666666667,268.1981395142419L232.34438888888891,264.65429718153814L232.40033055555557,270.05658026252473L232.68003888888887,261.60556052412306L233.29539722222222,266.0436375652041L236.57730833333332,269.64519172055384L236.6891916666667,270.4654167464801L237.93855555555555,267.83201067788264L238.46067777777776,267.18327432019373L238.64714999999998,273.8808793255261L239.29980277777776,269.8682287505695L240.54916666666668,270.08419706140245L241.1458777777778,272.64681963409697L242.2460638888889,267.6103122745242L242.89871666666664,270.2620257479804L243.32760277777777,270.8882494228227L243.64460555555553,272.0705199922834L245.77038888888887,266.9031578642981L246.42304166666668,269.21989365986417L246.53492500000002,270.42239450556895L247.82158333333334,270.5903905459813L248.64206111111113,272.74684425762723L249.18283055555554,271.18647425515314L249.27606666666665,272.84044218914846L249.44389166666667,271.276611660208L251.1221416666667,273.7123600329671L251.17808333333335,272.52003210783005L251.70020555555553,273.0515407238688L251.88667777777778,264.504769052778L252.96821666666665,273.11921038797925L253.62086944444442,265.67576241493225L254.2362277777778,272.37989362648557L254.254875,270.5804102335658L255.37370833333335,270.8152958750725L257.6859638888889,274.3733462691307L257.74190555555555,271.217484167644L258.78615,278.3810050828116L259.2709777777778,274.8590494564601L259.32691944444446,271.96868164198736L259.7185111111111,271.14411651236674L259.84904166666666,272.2471801894052L260.93058055555554,272.66473540237973L261.0424638888889,273.0558936681066L262.0867083333334,272.7156192660332L265.2753833333333,272.4695976631982L265.4059138888889,268.3778750215258L265.9093888888889,272.46984805379594L266.9536333333333,273.8399340425219L267.5503444444444,266.8086257832391L268.74376666666666,270.270317528929L268.79970833333334,270.0354511482375L269.1726527777778,272.3811905213765L269.78801111111113,268.83312364986966L271.2611416666667,277.18567568063736L271.3916722222222,279.16137627192904L271.6340861111111,272.9348362343652L272.044325,273.47547126667837L272.75291944444444,278.0272256391389L273.3123361111111,272.6381843686104L273.74122222222223,278.03426867723465L274.0768722222222,267.79918382849013L275.38217777777777,271.88808476073405L276.78071944444446,276.06777796575L277.97414166666664,275.3154858350754L279.1862111111111,274.8651936565127L280.7898722222222,278.2488726803235L281.2747,272.68000280857086L282.8410666666667,273.8579461148807L284.8549666666667,275.27439609595706L284.9854972222222,276.8530060904367L287.09263333333337,274.8384371740477L287.148575,278.20305762120654L287.54016666666666,274.8904285345759L288.64035277777776,272.6008151769638L288.826825,279.7670935988426L288.9014138888889,277.0952750444412L289.44218333333333,273.3324565035956L290.0575416666667,273.6078797408513L291.0271972222222,274.0626083271844L291.3442,276.72917188916887L291.60526111111113,271.16009014844894L291.90361666666666,277.9297145519938L292.2206194444445,274.7192030974797L292.96650833333337,277.7953318442617L293.82428055555556,275.9615577799933L293.84292777777773,270.1161764349256L294.2531666666667,277.0705024259431L294.90581944444443,272.88305353266855L295.09229166666665,280.50972964082445L295.39064722222224,276.5717981883458L295.55847222222224,271.8819469809532L295.8195333333333,278.60878027336935L296.5281277777778,276.1465225986072L296.5840694444444,278.28347794498717L297.218075,277.3870731847627L297.29266388888885,275.09315824508667L297.72155,272.74078673124313L297.83343333333335,276.07832005194257L297.8707277777778,277.5960626602173L298.6166166666667,277.6210310970034L298.7285,278.32347623791014L298.9709138888889,283.1714491077832L299.06415,282.0538467253957L300.2575722222222,276.98712235689163L300.61186944444444,279.1914584551539L300.77969444444443,280.3514699425016L301.61881944444445,277.5554640718869L302.0477055555555,275.9550572548594L302.085,278.0701579962458L302.10364722222226,275.3042985115733L303.20383333333336,277.12803448098043L306.1687416666667,272.3928946767535L307.15704444444447,281.7319728221212L307.52998888888885,277.2932023916926L308.10805277777774,276.46432604960034L308.2758777777778,277.15075582265854L308.59288055555555,279.8379477177348L308.9098833333333,277.7430355208261L309.4879472222222,275.1978760872569L310.43895555555554,275.5512125321797L310.86784166666666,276.6366589835712L311.12890277777774,278.73570583547865L312.5087972222222,282.39833282572886L314.63458055555554,280.6074525969369L316.42471388888885,274.84928422314783L316.51795,279.38708092485155L317.18925,279.1514665825026L317.7673138888889,277.366932792323L319.57609444444444,279.6093025803566L320.06092222222225,276.6435639858246L320.13551111111116,275.30798053741455L320.4338666666667,274.69359905379156L321.21705,280.6925854001727L322.41047222222227,278.59380498954226L322.4664138888889,278.21696071965357L322.7647694444444,279.0527581146785L324.5549027777778,281.8377532192639L325.5432055555556,282.2108608910016L327.31469166666665,282.98372036218643L329.51506388888885,276.78302191836497L330.0371861111111,278.1680414591517L331.1373722222222,279.5780519076756L332.0137916666667,277.2083360297339L333.35639166666664,278.46996436800276L333.71068888888885,279.3662824545588L334.5125194444445,278.405918947288L334.88546388888886,282.7839086651802L335.9670027777778,280.7199871199472L336.28400555555555,279.9022852608136L336.7874805555556,279.8615871582713L337.17907222222226,279.1879658273288L337.4028388888889,281.05150748150686L337.68254722222224,282.0953120504107L337.7571361111111,283.1663931437901L338.0741388888889,278.62866706507543L338.7454388888889,277.1010886004993L339.49132777777777,284.17851367167066L340.1066861111111,283.01681686299185L342.15788055555555,282.3192254475185L343.14618333333334,281.1819995045662L343.22077222222225,281.87886863946915L343.59371666666664,282.27584367139L344.5074305555556,279.66515894447053L345.0482,279.71155503817965L345.83138333333335,281.1974370479584L346.7823916666667,275.18361345359256L347.2112777777778,282.4026600888797L348.3114638888889,281.933505151953L348.36740555555554,280.0977215426309L349.579475,279.05152863264084L350.12024444444444,284.62294414213727L350.75425,281.37513411896566L351.4069027777778,282.8592762351036L351.8357888888889,283.8250841328076L352.1341444444444,282.568508548396L353.49539166666665,286.7717384696007L353.84968888888886,281.11808890955786L354.25992777777776,281.44437353951594L355.789,282.38095957040787L358.4182583333333,281.13789544786727L359.648975,282.0134696364403L359.77950555555555,286.08794742822647L359.94733055555554,284.19063835484644L360.26433333333335,285.27415551458085L360.4881,284.0688104884965L360.59998333333334,282.8487694604056L361.70016944444444,279.95207446813583L362.63253055555555,282.40346583298276L363.50894999999997,283.0401898622513L364.18025,283.66442967312673L364.62778333333335,281.081483730248L364.683725,280.21881428786685L366.08226666666667,281.6007264171328L366.19415000000004,281.0181060177939L366.75356666666664,284.12496539524625L366.9213916666667,283.93258195264L366.99598055555555,284.7894956214087L367.10786388888886,283.1397072843143L368.8234083333333,279.89800293956483L368.84205555555553,283.8789052707808L368.9912333333333,283.8814252274377L369.0658222222222,286.2937203475407L369.38282499999997,286.43295678070615L370.57624722222226,283.0074946284294L370.9305444444445,286.2610604252134L371.56455,283.63221274954935L373.44791944444444,282.52236605542043L374.62269444444445,281.34057700634L375.4804666666667,284.2853245224271L376.30094444444444,282.526507130691L376.6552416666667,280.4274313875607L377.9046055555556,285.6325447133609L378.98614444444445,282.7187236462321L379.4150305555555,280.88228516919276L380.9254555555556,286.21694673810686L381.76458055555554,286.5883273567472L381.801875,285.3697694114276L382.3985861111111,284.23279706920897L382.97664999999995,282.6239251238959L384.0768361111111,282.7824994155339L386.7433888888889,285.54727066414694L387.19092222222224,284.2829554421561L387.35874722222223,286.3214334504945L387.47063055555554,286.2479213391032L388.3284027777778,281.0858206238065L388.3843444444444,282.5491289581571L388.73864166666664,289.1776678902762L391.200075,284.07333678007126L391.4611361111111,284.05351098094667L393.36315277777777,281.7592525567327L393.75474444444444,286.9191286478724L395.09734444444445,289.7894299030304L396.234825,282.8483232515199L397.577425,287.7026104586465L397.98766388888885,280.31721137251174L398.30466666666666,284.1427174465997L399.16243888888886,285.72979898963655L399.79644444444443,286.22591585772375L401.00851388888884,280.6340549928801L402.0154638888889,284.245672924178L402.50029166666667,283.3795236945152L402.5935277777778,283.94297637258256L403.9174805555555,282.0589668921062L404.58878055555556,280.7703220503671L405.50249444444444,282.98314574786593L406.6586222222222,284.9543007867677L406.67726944444445,281.1760447025299L407.311275,288.7831068805286L407.5723361111111,290.3303891590663L408.35551944444444,286.83778059482574L411.4696055555556,285.64472396884645L412.04766944444447,284.37460161106924L412.681675,281.34947229283193L413.81915555555554,281.8525840469769L414.0056277777778,283.9186467528343L414.69557499999996,285.01307195425034L414.8447527777778,285.7213049701282L415.3109333333333,285.40978375502993L415.64658333333335,284.138752928802L415.68387777777775,282.42980499778474L416.1127638888889,285.8009099193982L416.1314111111111,282.772355386189L416.15005833333333,286.17089733907153L416.206,284.2113662021501L416.56029722222223,286.3299210497311L417.21295,282.6181211982455L417.79101388888887,285.81606176069806L418.18260555555554,281.62075124468123L418.5182555555556,283.67183545657565L418.7047277777778,284.9616905195372L420.36433055555557,283.14164941651484L420.62539166666664,280.74411129099985L420.9983361111111,287.2410635437284L421.1661611111111,287.3842259730611L421.2966916666667,288.3729702915464L421.3153388888889,288.50119916881835L421.85610833333334,287.97171935864856L422.0425805555556,289.51507885115484L422.41552499999995,286.1552928686142L423.7021833333333,286.3448481815202L424.61589722222226,281.0250591720853L425.23125555555555,286.5275562746184L425.93985000000004,283.0561153462955L428.00969166666664,287.34067726986746L428.4758722222222,283.6202903049333L428.53181388888885,284.46659447465623L428.69963888888884,283.6908972433635L429.2217611111111,284.30637659345354L429.8744138888889,285.7111802015986L430.09818055555553,283.30127984285355L430.82542222222224,284.0519412245069L431.29160277777777,283.2198226451874L431.6086055555556,285.43512135744095L432.8766166666667,284.3280899524689L433.2868555555556,285.03913183723176L433.8089777777778,283.1938654865537L434.81592777777774,288.64330867358615L437.29600833333336,289.766962162086L437.3146555555556,288.5567890916552L439.08614166666666,285.57433210951945L439.9252666666667,284.3868386490004L442.1815805555555,288.2880076255117L442.3121111111111,286.11127227544785L444.64301388888885,284.7570860896792L445.5380805555555,282.7825379371643L446.75014999999996,284.2464433567865L447.1044472222222,283.5129626223019L447.1976833333334,288.24180735009054L447.6265694444445,286.36350549118856L448.03680833333334,284.9756610308375L448.4284,287.850738968168L449.6964111111111,286.5610668829509L450.68471388888884,285.2220646398408L451.76625277777777,289.23814042976926L452.58673055555556,285.7972567847797L452.6613194444444,286.5052650911467L453.12750000000005,287.02394600425447L456.5772361111111,280.3311241013663L456.8569444444444,282.28475500856126L456.91288611111105,288.5803386483874L457.32312500000006,286.1118693607194L457.43500833333337,283.7765179872513L458.330075,284.8800984961646L458.6097833333333,284.25896288667406L459.4675555555556,285.53345423936844L459.7286166666666,285.21508259432653L459.9337361111111,285.8965559176036L460.1015611111111,280.7079394800322L460.95933333333335,283.8205514209611L461.1644527777778,288.5187778728349L461.27633611111116,286.8778398803302L462.3765222222222,290.45069221087863L462.87999722222224,290.1670510257993L463.30888333333337,288.3353988613401L464.6141888888889,289.457119848047L465.02442777777776,286.23961671761106L465.6397861111111,284.39812869685034L465.9567888888889,287.2715694648879L466.0873194444444,286.4989700147084L466.83320833333335,287.4152294652803L467.07562222222225,286.46506455966403L467.16885833333333,284.2493742108345L467.28074166666664,288.1034858056477L467.33668333333327,286.0043426496642L468.75387222222224,285.49167111090253L468.77251944444447,285.20810696908404L468.8098138888889,285.08469329561507L469.59299722222227,282.0919959800584L469.6489388888889,284.8504721522331L470.2270027777778,286.2917461139815L470.7304777777778,287.5742146543094L470.78641944444445,286.62829033817565L470.87965555555553,284.9718217083386L471.9239,288.62527413027624L472.2036083333333,283.2949205636978L472.3714333333333,283.7108129262924L472.4087277777778,284.7494202852249L473.3224416666667,283.61589241879324L474.38533333333334,285.91426623719076L475.22445833333336,281.6686657326562L475.9889944444444,287.1717117684228L476.2314083333333,290.455423951149L476.2500555555556,289.05199749129156L476.66029444444445,288.6713524205344L476.7535305555555,289.0908112440791L476.95865000000003,290.54798179864883L479.02849166666664,287.8418661526271L479.42008333333337,290.1363974383899L480.68809444444446,287.256247486387L480.70674166666663,284.9320705958775L480.7626833333333,285.814132469041L480.78133055555554,286.5319670013019L481.6763972222222,285.1034725904465L482.1239305555556,287.5726416877338L482.73928888888884,286.1900361691203L483.2054694444445,287.1079263687134L484.58536388888893,285.89952850341797L485.33125277777776,288.3515651055745L485.4804305555556,289.2239869407245L486.0771416666667,286.79780156271795L486.3195555555556,285.4830551062312L487.5129777777778,286.44632699659894L488.7250472222222,284.2301840186119L489.1539333333333,287.55330382926127L490.7203,289.6704590576036L490.77624166666664,288.50442856550217L490.86947777777783,290.1636097601482L492.1188416666667,288.9968024151666L492.4544916666666,286.914762863091L493.85303333333337,286.8249785729817L494.58027500000003,287.6306520530156L494.5989222222222,288.81831886087144L497.52653611111117,287.84128190789903L498.3097194444444,288.08373704978396L498.3283666666667,285.5168482065201L499.54043611111115,285.1798674038478L499.65231944444446,287.2314620273454L500.0252638888889,288.10774886608124L500.1371472222222,284.3171273384776L500.5287388888889,286.4395279288292L500.64062222222225,284.63644597360064L501.7594555555556,288.748646071979L502.8596416666666,292.5365775057248L503.4563527777778,293.7102994833674L503.5868833333333,288.64078550679346L507.5773888888889,289.43623791422164L508.0435694444445,288.22695726156235L508.2859833333333,283.3263574242592L508.7894583333333,286.42160253013884L508.91998888888884,286.5986800449235L509.12510833333334,285.2835612126759L509.2183444444444,286.545256963798L509.36752222222225,288.6274666530745L509.62858333333327,286.91567454167773L510.1507055555556,288.05736899375916L511.43736388888885,287.1656606623105L511.49330555555554,285.009659579822L512.2764888888888,284.7377193399838L512.9291416666666,288.98782045500616L513.6190888888889,287.48183015414645L515.3159861111111,283.74416623796736L515.6143416666667,286.7122450215476L517.6095944444444,289.87056929724554L517.740125,288.70102049623216L517.9638916666667,290.2691397666931L518.9149,287.4304230383464L519.1200194444444,286.4652025955064L519.1386666666667,289.7678321089063L520.8169166666667,288.2708430290222L520.8728583333334,289.72370558125635L523.614,287.0488951802254L523.688588888889,284.7802729010582L523.7072361111111,286.65451072795054L524.0242388888888,287.34993530171255L524.3039472222222,290.32803933961054L524.4904194444445,288.0965198108128L524.6955388888889,287.7992612293788L524.788775,288.40029496806005L524.8820111111112,285.66856564794267L524.9566000000001,285.3984423450061L525.0684833333333,284.90663668939044L525.5160166666666,285.8528755988393L525.7024888888889,285.6864300540515L526.1873166666667,287.0244339449065L527.0264416666666,286.7463174036571L527.4553277777778,286.94032838514875L528.4063361111112,287.7512311765126L528.8538694444445,287.7041545339993L529.2081666666667,286.1035647392273L529.4692277777777,287.14794713258743L530.0845861111111,290.5805935689381L532.1917222222222,288.69203211580003L533.1054361111112,290.06041352237975L534.615861111111,285.05533018282483L534.8209805555556,292.428550013474L535.193925,284.5327136431422L536.3127583333334,288.79025906324387L536.5551722222223,287.86232113838196L537.2451194444444,286.0529569472585L537.6180638888889,290.3069359064102L537.8231833333333,284.55627925055364L539.4268444444444,287.70352534736907L539.6133166666667,284.73525716577257L542.242575,289.9057106545993L542.9325222222222,285.95053114209855L542.9698166666667,286.7381668686867L543.5105861111111,284.2799186536244L544.2378277777779,290.62277796438764L545.1328944444444,287.9716679964747L546.0279611111112,288.10956901311874L546.0652555555555,287.8392017398562L546.2144333333333,289.10785064526965L546.7738499999999,289.05016771384646L547.2027361111111,289.68828815221786L547.4637972222222,284.1358830673354L548.5266888888889,286.29757251058305L550.3168222222222,289.89625359433035L551.1559472222222,287.2020892841475L551.2305361111111,286.9685711605208L552.3493694444444,287.6580441423825L553.2071416666666,288.9661327770778L553.7665583333334,285.5383882181985L554.1767972222223,286.6362643156733L554.325975,286.0288103052548L556.6009361111111,284.8647668872561L557.1603527777778,283.64201971462796L557.5705916666667,293.3076874528613L558.18595,289.04561574118475L558.7267194444445,291.05739825963974L559.5658444444445,287.9330436417035L560.2930861111112,289.3303483724594L561.8967472222222,289.39997300931384L563.2579944444444,286.15059001956666L563.724175,284.4193830064365L563.9665888888889,287.35007333755493L564.134413888889,288.88187313079834L565.6075444444444,287.9212239214352L566.7077305555556,289.5651280794825L568.8335138888889,285.4516342963491L569.1132222222221,288.2108937416758L570.0828777777778,284.46402957609723L570.5863527777777,285.65308316264833L571.7424805555556,288.22637622697016L572.2086611111112,291.46243715286255L573.8682638888889,288.3581940361432L574.5582111111112,289.463325040681L575.2108638888889,287.7827932323728L575.8262222222222,286.8631342479161L576.5907583333334,287.7155408859253L578.6046583333333,284.78668354238783L578.9030138888888,288.7286982876914L579.2946055555556,284.45245703629087L579.4624305555556,285.61885348388125L579.7607861111111,282.4638613292149L580.9355611111112,290.41738063097L580.9542083333333,286.1846399307251L581.2152694444444,285.83216059207916L583.2664638888889,287.5694668633597L583.5088777777778,285.5552927936826L583.7139972222222,286.8099583472524L585.5787194444445,287.8652295214789L586.8280833333333,287.93192009414946L587.6112666666667,293.32517627307345L590.5575277777778,286.835087290832L592.1238944444444,290.7828899111066L592.1611888888889,289.6547454425267L592.9070777777778,283.15397954838613L592.925725,288.32882771321704L592.9443722222222,288.02252617904117L593.2427277777778,286.48736216340745L593.4851416666667,285.3924522314753L593.5224361111111,288.1540647063937L595.368511111111,287.20861228023256L598.1655944444444,286.5897879685674L599.3590166666667,290.6322542854718L599.4709,291.1074378575597L599.5827833333334,287.4556161846433L599.6573722222223,289.25067280020033L599.6760194444444,290.3629945090839L601.0745611111112,290.48268763508116L601.8204499999999,286.98133466073443L602.8460472222222,290.0894299404962L604.8785944444444,288.02847456080576L605.0837138888888,285.3949561374528L605.2328916666667,287.6611868653979L606.1279583333334,291.5664327144623L606.5754916666666,287.143754695143L607.3213805555556,290.0430691582816L607.3773222222222,288.0445990732738L607.9553861111111,285.33704849651883L608.1418583333333,287.09354174988607L608.2723888888889,285.1088720389775L608.6080388888889,287.61897036858966L609.6709305555555,284.48789372614453L610.043875,287.15154890503203L610.0998166666667,286.6573709590094L610.4914083333333,284.4537603514535L612.0950694444444,292.96385943038126L613.7919666666667,287.55532942499434L613.8292611111111,288.3118749856949L614.4259722222222,289.5537224667413L614.7616222222222,288.30039553982874L620.0387861111111,284.01591065951754L620.5236138888889,289.3773736527988L621.3440916666667,287.6635848368917L622.3696888888888,291.2259239724704L623.5258166666666,286.22777773652757L623.7682305555555,285.79177066258023L625.4837749999999,284.89042871338984L626.0245444444444,290.74452878747667L626.7517861111111,289.06470962933133L627.9638555555556,289.9902945246015L631.9730083333333,290.145655470235L633.446138888889,289.1024447764669L633.9309666666667,287.28352080072676L634.3412055555556,288.5941582833018L634.6955027777778,286.83445168392996L635.0684472222222,285.6954441155706L635.1616833333334,285.60150911978315L635.4600388888889,286.01624583346506L635.6838055555555,286.95826020411084L635.982161111111,287.328838288784L636.4856361111111,286.77365492071425L637.7536472222223,287.3389245356832L638.6673611111111,281.87726357153485L638.909775,284.0934129697936L639.0589527777778,287.2750011001315L640.8304388888889,288.1188623564584L642.1730388888889,287.8912508828299L642.7883972222222,287.81145332540785L642.9189277777778,289.16191254343306L643.0867527777779,289.452086355005L644.0191138888889,288.2273585285459L644.0750555555555,289.8224557808467L644.4666472222223,290.39105430671145L644.6904138888889,289.03660488980154L645.0447111111112,292.5299903069224L645.3990083333333,288.5753950391497L647.9350305555556,286.1086110728128L649.4454555555556,289.48868190390726L649.4641027777777,286.60011818579267L650.0981083333334,286.6215747339385L650.4524055555556,285.17762351887563L651.3101777777778,284.37329508577074L652.6527777777778,285.41184466225764L652.7460138888889,286.6418467419488L653.2308416666666,291.1245992439134L654.0886138888889,291.9727299809456L654.3683222222222,289.8870051928929L655.2074472222222,289.09153673478534L655.8973944444444,291.8425461309297L656.699225,287.98636399848124L657.0721694444444,291.63080556903566L657.1840527777778,288.01583304575513L657.4264666666667,285.19303217104505L657.9485888888888,289.0013832790511L658.7504194444444,288.4072481223515L659.4963083333333,289.0248814736094L660.7456722222222,284.79704265083586L661.2118527777777,286.6802592277527L661.3423833333334,285.3509387544223L661.4169722222223,286.91192831311906L663.2630472222222,287.1151812757764L663.318988888889,285.6109083976064L664.0648777777777,288.47612479754855L664.6615888888889,285.5661237921033L665.8177166666667,287.8018742799759L666.0787777777778,286.1110090443066L666.3957805555555,283.9351308005197L666.4144277777777,291.0401341489383L667.1976111111111,289.2132201450212L669.0436861111111,289.13494419200083L669.5471611111111,290.61926607574736L672.2696555555556,287.26564997434616L673.2579583333334,287.43937289714813L675.2718583333333,286.7289216773851L675.4769777777777,289.2115637149129L677.7705861111111,286.4304111429623L678.8707722222222,287.89921844005585L679.5607194444444,287.37790200539996L679.952311111111,287.7692946110453L680.6422583333334,290.58944391352793L681.3135583333333,290.04110455513L681.3322055555556,292.284809759685L681.7983861111111,287.67016240528653L682.9545138888889,288.8669138976506L683.0663972222222,289.47635177203585L683.3461055555556,289.8222439118794L684.2784666666666,288.9147128207343L684.7632944444445,285.8646664278848L685.0802972222223,288.34586711440767L685.5091833333333,287.24266861166274L686.3669555555556,289.7970475554466L687.579025,286.7962542772293L687.7095555555555,288.2803610818727L687.8587333333334,288.3109312057495L688.7538,287.54028672831396L688.921625,285.91651012216295L690.0218111111111,288.6448623793466L690.264225,290.205909720489L692.9680722222222,286.29032081365585L693.1918388888889,286.23352066959654L693.8071972222223,290.1547048432486L693.8444916666666,294.2924351521901L694.5903805555556,293.22898455177034L695.80245,291.1450574398041L697.1823444444445,289.2154158779553L698.0587638888888,287.56261001314436L698.7300638888889,288.91022505078996L699.2708333333334,285.73796236515045L699.8116027777778,288.86325434276034L700.0540166666667,287.8776174357959L700.1099583333333,289.86748435667585L701.340675,287.68829325267245L701.3966166666667,284.04239749056956L702.1984472222223,286.8534749490874L702.9256888888889,287.8739386200905L703.1121611111112,285.95105439424515L703.1681027777778,289.47831958532333L704.1564055555556,286.17120551211497L706.2635416666667,286.3221493107932L706.6178388888889,288.39059072732925L706.7483694444445,287.140480356557L706.7670166666667,289.7590299163546L706.8975472222222,290.5398152129991L708.1096166666666,291.9869990348816L708.6317388888889,288.42088156938553L708.8555055555556,289.8351037161691L709.0979194444445,289.676288664341L709.22845,291.09922311987197L710.738875,289.2318967155048L711.3542333333334,289.641397697585L711.4288222222223,288.36102216584345L711.9322972222222,286.9146633488791L711.9695916666667,290.2035021185875L713.2189555555556,290.296092067446L713.6478416666667,289.4697645732335L714.9531472222222,288.6648005332265L715.1396194444445,286.070317362036L715.4566222222222,287.0409854054451L715.5871527777778,288.7504951102393L715.6430944444444,286.58345116036276L715.9041555555556,288.64556860923767L716.109275,285.5247034089906L718.6452972222222,289.58654931613376L719.3352444444445,288.5486706580434L720.3608416666667,288.5524746690478L720.4913722222221,287.0839883855411L721.7034416666667,290.6673185995647L722.1696222222222,295.506611262049L722.3374472222223,291.09525539193834L722.5612138888889,285.93971298422133L722.9155111111111,287.4414498550551L723.2325138888889,289.4455826197352L723.5122222222222,290.112841461386L724.2394638888888,289.9444120526314L724.4632305555556,293.96183609962463L724.9294111111111,286.77804959671835L725.4888277777778,288.47831411021093L725.6193583333334,287.29981224026L726.7008972222222,288.91522002220154L726.9060166666667,287.21862790414264L727.5586694444444,290.82684951169153L727.9129666666668,288.97048572131564L728.0434972222222,290.92432207720617L728.9012694444444,287.9818409170423L729.870925,288.4745004687991L729.9268666666667,285.866274705955L730.5795194444445,285.90554429803575L731.8475305555555,288.50295511313846L732.3137111111112,286.39987312044417L732.9477166666666,287.6387897474425L733.0036583333334,287.276647899832L733.9733138888888,287.85611273561204L733.9919611111111,287.51941121476034L734.1411388888889,288.2008845380374L734.3835527777778,288.3379348686763L735.40915,290.44395092555453L735.912625,292.49065330198835L737.0314583333333,289.7101491774831L737.0501055555555,286.16101654086793L737.5349333333334,291.24514626605173L737.7587,289.873220869473L738.0384083333333,290.3874974761691L738.4113527777778,287.7895345176969L738.5791777777778,289.3054505586624L738.7470027777778,289.2469201513699L739.3064194444444,290.45462141718184L740.2201333333334,285.45671273129324L741.2457305555556,290.44228486503874L741.8424416666667,288.96292585134506L742.2526805555556,290.70378895316804L743.6139277777777,287.5817937850952L745.0684111111111,288.34827150617326L746.4483055555555,288.68740631001333L747.3620194444445,287.72344745056967L748.0333194444445,282.65518221684863L749.1894472222222,292.99502021925787L750.1404555555555,290.717643899577L750.6252833333333,290.673713190215L750.6812249999999,289.8124048454421L752.0984138888889,286.6940660221236L752.4900055555555,290.9567540798869L752.6391833333333,290.1343814730644L752.8815972222222,288.14234450033734L752.9188916666667,287.79184902565817L753.030775,289.91851267644336L754.2241972222222,288.6185039537294L754.8582027777778,288.63937304701125L754.8954972222222,288.709527356284L754.9141444444444,288.6138556769916L756.5178055555556,286.1420960000583L756.5737472222222,285.8372871790614L757.0772222222223,287.71123609372546L760.2658972222222,290.3454254354749L760.3964277777777,285.84688869544436L761.086375,284.23140708037783L761.6271444444445,285.0227216226714L761.7203805555555,287.42256783587595L762.5035638888888,290.26999687297007L763.6596916666667,289.94399473496844L763.9766944444444,288.1717846563884L763.9953416666666,290.3954329320363L765.2260583333334,291.05762296915054L765.3752361111111,290.600705070155L765.5990027777777,288.8981645703316L766.28895,286.1714430621692L766.3075972222223,289.28625073603223L766.3635388888889,291.1270742586681L767.5942555555555,285.8804025139127L768.5639111111111,287.29718955925534L768.8436194444445,287.7977492553847L769.1233277777778,287.8005645445415L769.4216833333334,288.1146346075194L769.6640972222223,287.37661795105254L770.3167500000001,289.9501164640699L770.6710472222222,287.08237689733505L770.8015777777778,284.34755300624033L775.1463805555555,288.86016940219065L775.6685027777778,285.8256087047713" style="fill: none;" fill="none"></path></g></g></g></g></g></g><g transform="translate(48, 377)" clip-path="url(#clip_1)"><clipPath id="clip_1"><rect width="839" height="23"></rect></clipPath><g><g><line x1="0" y1="0" x2="0" y2="5" style="visibility: inherit;" fill="rgb(0, 0, 0)" stroke="rgb(204, 204, 204)" stroke-width="1px"></line><line x1="93.2361111111111" y1="0" x2="93.2361111111111" y2="5" style="visibility: inherit;" fill="rgb(0, 0, 0)" stroke="rgb(204, 204, 204)" stroke-width="1px"></line><line x1="186.4722222222222" y1="0" x2="186.4722222222222" y2="5" style="visibility: inherit;" fill="rgb(0, 0, 0)" stroke="rgb(204, 204, 204)" stroke-width="1px"></line><line x1="279.7083333333333" y1="0" x2="279.7083333333333" y2="5" style="visibility: inherit;" fill="rgb(0, 0, 0)" stroke="rgb(204, 204, 204)" stroke-width="1px"></line><line x1="372.9444444444444" y1="0" x2="372.9444444444444" y2="5" style="visibility: inherit;" fill="rgb(0, 0, 0)" stroke="rgb(204, 204, 204)" stroke-width="1px"></line><line x1="466.1805555555556" y1="0" x2="466.1805555555556" y2="5" style="visibility: inherit;" fill="rgb(0, 0, 0)" stroke="rgb(204, 204, 204)" stroke-width="1px"></line><line x1="559.4166666666666" y1="0" x2="559.4166666666666" y2="5" style="visibility: inherit;" fill="rgb(0, 0, 0)" stroke="rgb(204, 204, 204)" stroke-width="1px"></line><line x1="652.6527777777778" y1="0" x2="652.6527777777778" y2="5" style="visibility: inherit;" fill="rgb(0, 0, 0)" stroke="rgb(204, 204, 204)" stroke-width="1px"></line><line x1="745.8888888888888" y1="0" x2="745.8888888888888" y2="5" style="visibility: inherit;" fill="rgb(0, 0, 0)" stroke="rgb(204, 204, 204)" stroke-width="1px"></line><line x1="839.125" y1="0" x2="839.125" y2="5" style="visibility: inherit;" fill="rgb(0, 0, 0)" stroke="rgb(204, 204, 204)" stroke-width="1px"></line></g><g transform="translate(0, 8)"><text x="0" y="0" dx="0em" dy="0.95em" style="text-anchor: middle; visibility: hidden; font-family: &quot;Helvetica Neue&quot;, sans-serif; font-size: 12px; font-weight: 200;" fill="rgb(50, 49, 63)" stroke="none" stroke-width="1px">-5k</text><text x="93.2361111111111" y="0" dx="0em" dy="0.95em" style="text-anchor: middle; visibility: inherit; font-family: &quot;Helvetica Neue&quot;, sans-serif; font-size: 12px; font-weight: 200;" fill="rgb(50, 49, 63)" stroke="none" stroke-width="1px">0</text><text x="186.4722222222222" y="0" dx="0em" dy="0.95em" style="text-anchor: middle; visibility: inherit; font-family: &quot;Helvetica Neue&quot;, sans-serif; font-size: 12px; font-weight: 200;" fill="rgb(50, 49, 63)" stroke="none" stroke-width="1px">5k</text><text x="279.7083333333333" y="0" dx="0em" dy="0.95em" style="text-anchor: middle; visibility: inherit; font-family: &quot;Helvetica Neue&quot;, sans-serif; font-size: 12px; font-weight: 200;" fill="rgb(50, 49, 63)" stroke="none" stroke-width="1px">10k</text><text x="372.9444444444444" y="0" dx="0em" dy="0.95em" style="text-anchor: middle; visibility: inherit; font-family: &quot;Helvetica Neue&quot;, sans-serif; font-size: 12px; font-weight: 200;" fill="rgb(50, 49, 63)" stroke="none" stroke-width="1px">15k</text><text x="466.1805555555556" y="0" dx="0em" dy="0.95em" style="text-anchor: middle; visibility: inherit; font-family: &quot;Helvetica Neue&quot;, sans-serif; font-size: 12px; font-weight: 200;" fill="rgb(50, 49, 63)" stroke="none" stroke-width="1px">20k</text><text x="559.4166666666666" y="0" dx="0em" dy="0.95em" style="text-anchor: middle; visibility: inherit; font-family: &quot;Helvetica Neue&quot;, sans-serif; font-size: 12px; font-weight: 200;" fill="rgb(50, 49, 63)" stroke="none" stroke-width="1px">25k</text><text x="652.6527777777778" y="0" dx="0em" dy="0.95em" style="text-anchor: middle; visibility: inherit; font-family: &quot;Helvetica Neue&quot;, sans-serif; font-size: 12px; font-weight: 200;" fill="rgb(50, 49, 63)" stroke="none" stroke-width="1px">30k</text><text x="745.8888888888888" y="0" dx="0em" dy="0.95em" style="text-anchor: middle; visibility: inherit; font-family: &quot;Helvetica Neue&quot;, sans-serif; font-size: 12px; font-weight: 200;" fill="rgb(50, 49, 63)" stroke="none" stroke-width="1px">35k</text><text x="839.125" y="0" dx="0em" dy="0.95em" style="text-anchor: middle; visibility: hidden; font-family: &quot;Helvetica Neue&quot;, sans-serif; font-size: 12px; font-weight: 200;" fill="rgb(50, 49, 63)" stroke="none" stroke-width="1px">40k</text></g><line x1="0" y1="0" x2="839.125" y2="0" fill="rgb(0, 0, 0)" stroke="rgb(204, 204, 204)" stroke-width="1px"></line></g></g></g></g></svg>