<svg viewBox="0 0 330 200" xmlns="http://www.w3.org/2000/svg"><g><g><g><g><g><line x1="29.4375" y1="177" x2="24.4375" y2="177" style="visibility: inherit;" fill="rgb(0, 0, 0)" stroke="rgb(204, 204, 204)" stroke-width="1px"></line><line x1="29.4375" y1="154.875" x2="24.4375" y2="154.875" style="visibility: inherit;" fill="rgb(0, 0, 0)" stroke="rgb(204, 204, 204)" stroke-width="1px"></line><line x1="29.4375" y1="132.75" x2="24.4375" y2="132.75" style="visibility: inherit;" fill="rgb(0, 0, 0)" stroke="rgb(204, 204, 204)" stroke-width="1px"></line><line x1="29.4375" y1="110.625" x2="24.4375" y2="110.625" style="visibility: inherit;" fill="rgb(0, 0, 0)" stroke="rgb(204, 204, 204)" stroke-width="1px"></line><line x1="29.4375" y1="88.5" x2="24.4375" y2="88.5" style="visibility: inherit;" fill="rgb(0, 0, 0)" stroke="rgb(204, 204, 204)" stroke-width="1px"></line><line x1="29.4375" y1="66.375" x2="24.4375" y2="66.375" style="visibility: inherit;" fill="rgb(0, 0, 0)" stroke="rgb(204, 204, 204)" stroke-width="1px"></line><line x1="29.4375" y1="44.25" x2="24.4375" y2="44.25" style="visibility: inherit;" fill="rgb(0, 0, 0)" stroke="rgb(204, 204, 204)" stroke-width="1px"></line><line x1="29.4375" y1="22.125" x2="24.4375" y2="22.125" style="visibility: inherit;" fill="rgb(0, 0, 0)" stroke="rgb(204, 204, 204)" stroke-width="1px"></line><line x1="29.4375" y1="0" x2="24.4375" y2="0" style="visibility: inherit;" fill="rgb(0, 0, 0)" stroke="rgb(204, 204, 204)" stroke-width="1px"></line></g><g transform="translate(19.4375, 0)"><text x="0" y="177" dx="0em" dy="0.3em" style="text-anchor: end; visibility: hidden; font-family: &quot;Helvetica Neue&quot;, sans-serif; font-size: 12px; font-weight: 200;" fill="rgb(50, 49, 63)" stroke="none" stroke-width="1px">-1</text><text x="0" y="154.875" dx="0em" dy="0.3em" style="text-anchor: end; visibility: inherit; font-family: &quot;Helvetica Neue&quot;, sans-serif; font-size: 12px; font-weight: 200;" fill="rgb(50, 49, 63)" stroke="none" stroke-width="1px">0</text><text x="0" y="132.75" dx="0em" dy="0.3em" style="text-anchor: end; visibility: hidden; font-family: &quot;Helvetica Neue&quot;, sans-serif; font-size: 12px; font-weight: 200;" fill="rgb(50, 49, 63)" stroke="none" stroke-width="1px">1</text><text x="0" y="110.625" dx="0em" dy="0.3em" style="text-anchor: end; visibility: inherit; font-family: &quot;Helvetica Neue&quot;, sans-serif; font-size: 12px; font-weight: 200;" fill="rgb(50, 49, 63)" stroke="none" stroke-width="1px">2</text><text x="0" y="88.5" dx="0em" dy="0.3em" style="text-anchor: end; visibility: hidden; font-family: &quot;Helvetica Neue&quot;, sans-serif; font-size: 12px; font-weight: 200;" fill="rgb(50, 49, 63)" stroke="none" stroke-width="1px">3</text><text x="0" y="66.375" dx="0em" dy="0.3em" style="text-anchor: end; visibility: inherit; font-family: &quot;Helvetica Neue&quot;, sans-serif; font-size: 12px; font-weight: 200;" fill="rgb(50, 49, 63)" stroke="none" stroke-width="1px">4</text><text x="0" y="44.25" dx="0em" dy="0.3em" style="text-anchor: end; visibility: hidden; font-family: &quot;Helvetica Neue&quot;, sans-serif; font-size: 12px; font-weight: 200;" fill="rgb(50, 49, 63)" stroke="none" stroke-width="1px">5</text><text x="0" y="22.125" dx="0em" dy="0.3em" style="text-anchor: end; visibility: inherit; font-family: &quot;Helvetica Neue&quot;, sans-serif; font-size: 12px; font-weight: 200;" fill="rgb(50, 49, 63)" stroke="none" stroke-width="1px">6</text><text x="0" y="0" dx="0em" dy="0.3em" style="text-anchor: end; visibility: hidden; font-family: &quot;Helvetica Neue&quot;, sans-serif; font-size: 12px; font-weight: 200;" fill="rgb(50, 49, 63)" stroke="none" stroke-width="1px">7</text></g><line x1="29.4375" y1="0" x2="29.4375" y2="177" fill="rgb(0, 0, 0)" stroke="rgb(204, 204, 204)" stroke-width="1px"></line></g></g><g transform="translate(29, 0)" clip-path="url(#clip_0)"><clipPath id="clip_0"><rect width="300" height="177"></rect></clipPath><g><g><g><line x1="0" y1="0" x2="0" y2="177" fill="rgb(0, 0, 0)" stroke="rgb(60, 60, 60)" stroke-width="1px" opacity="0.25"></line><line x1="33.39583333333333" y1="0" x2="33.39583333333333" y2="177" fill="rgb(0, 0, 0)" stroke="rgb(60, 60, 60)" stroke-width="1px" opacity="0.25"></line><line x1="66.79166666666666" y1="0" x2="66.79166666666666" y2="177" fill="rgb(0, 0, 0)" stroke="rgb(60, 60, 60)" stroke-width="1px" opacity="0.25"></line><line x1="100.1875" y1="0" x2="100.1875" y2="177" fill="rgb(0, 0, 0)" stroke="rgb(60, 60, 60)" stroke-width="1px" opacity="0.25"></line><line x1="133.58333333333331" y1="0" x2="133.58333333333331" y2="177" fill="rgb(0, 0, 0)" stroke="rgb(60, 60, 60)" stroke-width="1px" opacity="0.25"></line><line x1="166.97916666666669" y1="0" x2="166.97916666666669" y2="177" fill="rgb(0, 0, 0)" stroke="rgb(60, 60, 60)" stroke-width="1px" opacity="0.25"></line><line x1="200.375" y1="0" x2="200.375" y2="177" fill="rgb(0, 0, 0)" stroke="rgb(60, 60, 60)" stroke-width="1px" opacity="0.25"></line><line x1="233.77083333333334" y1="0" x2="233.77083333333334" y2="177" fill="rgb(0, 0, 0)" stroke="rgb(60, 60, 60)" stroke-width="1px" opacity="0.25"></line><line x1="267.16666666666663" y1="0" x2="267.16666666666663" y2="177" fill="rgb(0, 0, 0)" stroke="rgb(60, 60, 60)" stroke-width="1px" opacity="0.25"></line><line x1="300.5625" y1="0" x2="300.5625" y2="177" fill="rgb(0, 0, 0)" stroke="rgb(60, 60, 60)" stroke-width="1px" opacity="0.25"></line></g><g><line x1="0" y1="177" x2="300.5625" y2="177" fill="rgb(0, 0, 0)" stroke="rgb(60, 60, 60)" stroke-width="1px" opacity="0.25"></line><line x1="0" y1="154.875" x2="300.5625" y2="154.875" fill="rgb(0, 0, 0)" stroke="rgb(60, 60, 60)" stroke-width="1px" opacity="0.25"></line><line x1="0" y1="132.75" x2="300.5625" y2="132.75" fill="rgb(0, 0, 0)" stroke="rgb(60, 60, 60)" stroke-width="1px" opacity="0.25"></line><line x1="0" y1="110.625" x2="300.5625" y2="110.625" fill="rgb(0, 0, 0)" stroke="rgb(60, 60, 60)" stroke-width="1px" opacity="0.25"></line><line x1="0" y1="88.5" x2="300.5625" y2="88.5" fill="rgb(0, 0, 0)" stroke="rgb(60, 60, 60)" stroke-width="1px" opacity="0.25"></line><line x1="0" y1="66.375" x2="300.5625" y2="66.375" fill="rgb(0, 0, 0)" stroke="rgb(60, 60, 60)" stroke-width="1px" opacity="0.25"></line><line x1="0" y1="44.25" x2="300.5625" y2="44.25" fill="rgb(0, 0, 0)" stroke="rgb(60, 60, 60)" stroke-width="1px" opacity="0.25"></line><line x1="0" y1="22.125" x2="300.5625" y2="22.125" fill="rgb(0, 0, 0)" stroke="rgb(60, 60, 60)" stroke-width="1px" opacity="0.25"></line><line x1="0" y1="0" x2="300.5625" y2="0" fill="rgb(0, 0, 0)" stroke="rgb(60, 60, 60)" stroke-width="1px" opacity="0.25"></line></g></g></g><g><g><line x1="0" y1="154.875" x2="300.5625" y2="154.875" fill="rgb(0, 0, 0)" stroke="rgb(153, 153, 153)" stroke-width="1.5px"></line></g></g><g><g><line x1="33.39583333333333" y1="0" x2="33.39583333333333" y2="177" fill="rgb(0, 0, 0)" stroke="rgb(153, 153, 153)" stroke-width="1.5px"></line></g></g><g><g><g><g><g><path stroke="rgb(255, 112, 67)" stroke-width="2px" d="M42.69323333333333,-7.315514318667596L42.987116666666665,0.6607760020143587L43.187491666666666,0.6643053429160943L43.56820416666667,11.041800007518049L43.761900000000004,8.697931471497213L43.868766666666666,20.084799280014806L43.975633333333334,27.117547625608495L44.349666666666664,35.58397721916353L44.69030416666667,38.21347417636801L44.81052916666666,36.26716956020894L44.870641666666664,30.422722342721528L44.97750833333333,35.318918754533684L44.997545833333334,41.546504861048874L45.29142916666667,45.10001364108069L45.71221666666666,53.750677959660834L45.85915833333333,52.352634153687745L45.879195833333334,54.03474831695806L45.932629166666665,50.58295683929565L46.19979583333333,55.62083712142277L46.313341666666666,59.42530927015298L46.400170833333334,58.67248111339181L46.994616666666666,58.081409987042946L47.39536666666666,62.58693040384689L48.003170833333336,66.53034289463666L48.08332083333333,70.13568249812309L48.29705416666666,73.40734332484358L48.33712916666667,77.73330212642165L48.4707125,76.62493765955811L48.504108333333335,76.49266977671172L48.80467083333333,81.99885157086484L48.884820833333336,77.92240238987227L49.11859166666667,76.87866458179246L49.352362500000005,76.7176799826723L49.35904166666666,75.25046621876369L49.66628333333333,79.78431014488582L49.779829166666666,81.05460457963017L49.793187499999995,82.53555635787407L49.82658333333333,81.16318383322572L49.9935625,85.63582500521191L50.00024166666667,84.0814004105559L50.08039166666667,84.97431726230568L50.1137875,83.27512747629515L50.30748333333333,83.31323644270914L50.407670833333334,85.29179740399371L50.44774583333333,85.47961900502592L51.329395833333336,87.11154469174237L51.696749999999994,89.3752581377154L52.024029166666665,91.56388899679932L52.738699999999994,94.37007710335227L53.212920833333335,94.73295673726543L53.50680416666667,98.67886610626306L53.68714166666666,99.48331622957662L53.70717916666667,99.74579679178879L54.09457083333333,98.82760065321735L54.50867916666667,102.06099278643495L54.742450000000005,104.59334428855638L54.969541666666665,104.60760041325605L55.063050000000004,104.18964201360534L55.076408333333326,105.63954109042639L55.0830875,107.13987178855987L55.470479166666664,104.87259908469828L56.63933333333333,106.33409841032214L57.44083333333334,108.2937583814346L57.56105833333333,108.79439409317274L57.57441666666667,108.76828609551012L57.90837500000001,107.18404189732682L58.282408333333336,108.93386321656114L58.38259583333333,111.30415352220659L58.7299125,110.4965552093704L58.870174999999996,112.4803036631417L58.91692916666666,112.37656298168133L59.6316,113.81003002457398L59.818616666666664,113.64578433711873L60.005633333333336,116.20714437293736L60.35295,116.87356035904722L60.76705833333334,119.00870607493303L61.42161666666667,118.06130072592487L61.62867083333333,117.35058202814335L61.66206666666667,116.69162726683183L62.142966666666666,117.51230904032448L62.229795833333334,117.20895103555713L62.24315416666666,118.94382461274739L62.78416666666667,117.8293549738233L63.39865,120.51514767538933L63.51219583333334,122.01012784201757L63.652458333333335,121.12181165789877L64.30701666666667,120.30134333953448L64.54746666666666,122.42325233093017L64.57418333333334,121.09624665779539L64.62761666666667,121.50030872108142L65.121875,121.77562826801301L65.37568333333333,122.33336205440139L65.46919166666666,122.97491301987992L65.723,123.21225828465478L65.80315,122.43679874859248L66.083675,123.52705732418295L66.53785833333333,123.1652274038386L66.59797083333333,123.25993852055024L66.61800833333334,124.22757075569601L67.125625,123.90471266711694L67.13898333333334,124.14472821357812L67.49965833333333,124.59813487531522L67.68667500000001,124.78186885715591L68.3879875,124.75798892498652L68.9891125,125.20258059811974L69.09597916666667,125.1589465660595L69.1894875,126.16236812607903L69.59691666666666,125.02099720082556L70.24479583333334,125.14527905250714L70.45852916666666,125.15945456186012L71.22663333333334,126.83356360053465L71.32682083333333,127.61827100786832L71.62070416666667,127.53089483662407L72.18843333333334,128.40662210037684L72.30197916666667,127.50859672337995L72.32201666666667,128.00644671625034L72.56246666666667,128.85215742412885L72.60922083333334,128.9902022541981L72.84967083333333,128.1587673998726L72.98993333333334,127.58990181546525L73.40404166666667,128.2238170150585L73.537625,128.91035731695098L74.27901250000001,128.15264063514473L74.34580416666667,127.63756427429439L74.80666666666666,129.3510093943019L74.89349583333333,129.1485788557374L74.93357083333333,128.68655843338036L75.0204,128.71402343392765L75.40111250000001,128.65088985729454L75.55473333333333,128.88279698710585L75.58812916666666,130.17735225809184L75.9822,130.7192851832662L76.14250000000001,131.25752795524323L76.7837,130.33566595784976L76.944,130.20521535081957L77.30467499999999,129.57722658874567L77.49837083333333,129.6886440453647L77.85904583333334,130.27574459539164L78.11953333333332,130.73355262175983L78.13957083333332,131.43733743247859L78.21972083333333,130.9255758250801L78.426775,130.6034565940528L79.12140833333333,131.1115705713647L79.17484166666667,131.68564598232612L79.27502916666667,131.84684261959853L79.92290833333333,131.39936936069765L80.09656666666666,131.26667052012226L80.24350833333332,131.22476437986816L80.85799166666666,131.71188968003347L80.911425,130.60513908613058L81.18527083333333,130.63872160284717L81.59270000000001,131.75189718764426L81.79975416666666,131.5018287608707L82.22722083333332,131.21040369329953L82.4142375,130.53496487294498L82.42091666666666,131.1295757076434L82.54782083333335,131.32369884737085L82.70144166666667,131.0622403436169L82.82834583333333,132.56207636077792L83.155625,132.4131327514624L83.22241666666667,132.68536490170808L83.24245416666668,132.56539231520088L83.34264166666667,132.07107449758763L83.56305416666667,132.65501344614455L84.7385875,131.88632805593747L84.77866250000001,132.73950926332438L85.22616666666667,132.6348198346422L85.41318333333332,132.61526443315302L85.479975,132.2527724966571L85.71374583333332,132.3354149142006L86.16125000000001,132.44619049305317L86.37498333333333,132.06555961772557L86.76905416666666,132.4637215864942L87.002825,131.27221300794395L87.15644583333334,132.22819346245356L87.26999166666666,132.52643723521368L88.03141666666666,132.48425714512905L88.26518750000001,132.71892273628856L88.3052625,132.2696055484065L88.766125,132.34210814310603L89.06000833333334,132.80959135158952L89.25370416666667,132.78630341210422L89.2871,133.18558187257324L89.3472125,133.27215094549103L89.94833750000001,133.11559757699158L89.96837500000001,132.7329483754014L90.15539166666666,133.49090580800623L90.22218333333333,133.80064805841118L90.60957499999999,133.50302967724605L90.84334583333333,134.11476660846114L91.06375833333334,133.94733356880212L91.0704375,133.5888761189405L91.4711875,134.169472185184L92.29940416666668,134.5390912845191L92.31944166666668,134.5737296166692L92.693475,134.98017553226197L92.86713333333334,135.001144851661L92.88717083333334,133.97706702674404L93.02743333333333,134.38956476047622L93.0741875,135.2203952240645L93.46157916666667,135.02741076455706L93.50165416666667,134.30859506670353L93.87568750000001,134.50252369668314L95.017825,134.02538568750757L95.06457916666668,133.86067395195806L95.24491666666667,133.8220390068617L95.61895,134.1208647601084L95.83268333333334,133.64574655963634L96.26015,133.6665740583757L96.28018750000001,133.8646011367094L96.41377083333333,133.86617129532408L96.63418333333334,134.67661025814957L97.16183749999999,134.51433529074637L97.20859166666666,134.53776648113518L97.29542083333334,135.25355569702023L97.4423625,135.13520350266475L97.69617083333334,134.5183208537637L97.89654583333333,134.38452442005507L98.05016666666667,134.47734446534653L98.17039166666666,134.65245535796367L98.63793333333334,134.77711170211722L99.13887083333333,135.0023788916784L99.5663375,134.31089485929712L100.00048333333334,133.8291679397005L100.57489166666666,134.8893720075356L100.74855,134.97117307572765L101.3096,135.12157718413593L102.03095,135.56460711403798L102.07770416666666,135.7271414103753L102.83245000000001,135.16849597708267L102.8524875,134.88144741306235L102.99275,135.04451696783025L103.38682083333333,135.4008811903579L103.4536125,135.55854142860073L103.48032916666666,135.45423431191145L103.674025,135.78777436013996L103.89443750000001,135.78141493854508L104.24175416666667,135.8586355880355L104.3553,135.72364369246097L104.44880833333333,134.91217082567653L104.555675,135.19964237706446L104.66922083333334,135.47594016311515L104.93638750000001,136.18743771921368L105.24362916666666,135.7599221385167L105.25030833333332,135.89361168841398L105.39725,135.70391154229569L105.63102083333334,135.30495125913575L105.69781250000001,135.10830900886032L105.80467916666667,134.46258306693062L105.86479166666666,134.7553601782979L105.9583,134.77782007881768L106.21210833333333,135.33750442462426L106.23214583333333,135.73636143682756L106.4592375,135.20778700875258L106.48595416666666,134.85860773722538L106.63957500000001,134.880086578728L106.67965,135.7242132918842L106.69300833333334,135.8730066446547L106.96017499999999,136.0834195928624L107.00025,136.5579494396955L107.08707916666667,137.2249458170003L107.120475,136.81251341915527L107.54794166666666,136.57748770902396L107.67484583333332,135.88472089582586L107.73495833333334,135.94659859188738L108.03552083333334,136.32074302880966L108.18914166666666,136.1883345749915L108.2025,135.89812063318135L108.20917916666667,136.46250331188227L108.60325,136.80981400480857L109.6652375,136.38776485843056L110.01923333333333,136.96346063150523L110.15281666666665,136.63634899993872L110.35987083333333,136.35014835739216L110.41998333333333,135.78532728996325L110.53352916666667,135.98073102501897L110.64707499999999,135.60663236062447L110.85412916666667,135.8664191775365L111.19476666666667,136.13820014076492L111.3483875,135.52739347325002L111.44189583333333,136.05579136196516L111.93615416666667,136.78314313819254L112.69757916666666,136.5433473708048L113.33877916666665,136.80748199354497L113.372175,136.4416308875733L113.612625,136.7069148406895L113.81967916666667,136.7381308517165L114.46755833333333,136.89422596641225L114.64121666666666,136.83616158454325L114.66793333333334,136.29736738853876L114.77480000000001,136.76537312539352L115.055325,136.71391997320612L115.48279166666667,137.05293027510143L115.50282916666667,136.6344158169621L115.60969583333333,137.24860624176227L116.25089583333333,137.16553945959785L116.60489166666666,137.17780051303612L117.2394125,138.06756521566336L118.02755416666666,138.15942505779043L118.21457083333334,137.8091020302902L118.60864166666666,137.64631315570654L118.9225625,137.33371214271534L119.4034625,137.4256522160825L119.53036666666667,137.80034425270898L119.81757083333333,137.1524057293674L119.95115416666667,136.99160696594362L120.33854583333333,137.5562828244474L120.45209166666666,137.1456606603686L120.63242916666667,137.2038237730875L120.77269166666667,137.08102201999512L120.85284166666666,137.23575474966339L120.95302916666667,137.3153467246817L120.97974583333333,137.61043240838802L121.09329166666667,137.8089262110803L121.33374166666667,137.63324801700196L121.60090833333332,137.8639046703391L121.82132083333333,138.03845517066793L122.55602916666666,137.92022183077142L122.91002499999999,138.31617833099727L122.93674166666666,138.6014478261588L123.070325,138.06903540523754L123.39760416666667,138.62102505524103L123.5913,138.35332046424833L123.871825,138.71556999370745L124.2124625,138.17056298008734L124.36608333333334,137.7886965468596L124.76015416666667,138.09648683041755L124.78019166666667,138.2142907403137L125.21433750000001,137.8705977572337L125.40803333333332,137.95788833041996L125.63512499999999,137.60286512994773L125.86889583333334,137.58151240661147L126.02251666666666,137.7049574733639L126.12938333333332,137.57061093633558L126.6169625,138.0675080602478L126.74386666666666,138.61958220214314L126.89080833333333,138.66062933868568L127.43849999999999,138.71833457747937L128.3802625,138.28390531957055L128.8210875,138.06808061134757L128.86784166666666,137.66534548838104L128.92795416666667,137.4988738497446L129.0415,137.16001915039718L129.12165,137.4401674246913L129.16172500000002,137.83987210250652L129.55579583333335,138.1385967377231L129.88975416666668,138.48918550571236L130.203675,138.14374777591485L130.44412499999999,138.04790550420438L130.604425,138.00691303580854L130.6244625,137.39969047289998L131.1254,137.69139265347667L131.16547500000001,137.84512665467946L131.36585,138.2209854101985L131.4259625,138.75505610560472L131.45267916666666,138.53404923233447L131.49275416666666,138.9467667845074L132.1072375,139.03652520222565L132.11391666666665,139.37992508258284L132.16735,139.37206014720118L132.19406666666666,138.43925837711998L132.3076125,138.09691199086018L132.73507916666668,138.0862095649356L132.86198333333334,138.1470793155023L133.089075,138.32303131325176L133.76367083333335,138.33302775146444L134.18445833333334,138.70868467463183L134.4917,137.96153717144207L134.78558333333334,137.98260702135488L134.9124875,137.833484387054L135.35999166666667,138.1204039458358L135.74738333333335,138.17100623869442L135.90100416666667,138.3120041139337L136.44201666666666,139.0098160175927L136.74257916666667,139.09975708535L136.75593750000002,138.8571458340328L136.96967083333334,139.13386587385185L137.176725,139.3547216152182L137.57079583333334,139.22347975939695L138.52591666666666,139.04770556491724L138.68621666666667,138.5628337675459L138.74632916666667,138.49757882738868L138.78640416666667,139.08427058330034L139.09364583333334,139.2368796686581L139.11368333333334,138.33056969465324L139.2405875,138.14307747496073L140.1222375,138.1206756395871L140.21574583333333,138.1237716980442L140.89702083333333,138.1186140959063L141.03728333333333,139.0535378268122L141.51818333333333,139.65126891498323L141.9256125,139.82037167289587L142.4065125,139.39937671446046L142.55345416666665,139.0537749643519L142.667,139.19757509323324L142.97424166666667,138.98475676830031L143.20133333333334,139.1730521235193L143.63547916666667,139.23157803495675L143.99615416666666,138.93437737989396L144.1698125,139.31554101269228L144.20320833333335,139.43637471116057L144.67742916666666,139.20704565475268L144.91787916666667,139.16754812914064L145.24515833333334,138.53975798438745L145.65926666666667,138.7603697076485L145.66594583333332,138.84150530666383L145.8930375,138.82487991911336L145.98654583333334,139.84103570855953L146.26707083333332,139.96543132947266L147.38249166666665,139.42568552605138L147.58954583333335,139.8239854759683L147.8166375,140.15129867116866L148.22406666666666,139.8362521107212L148.29085833333335,139.1514844372997L148.53798749999999,139.09926445037897L148.59142083333333,139.20774082392916L148.7584,139.08119657367746L148.878625,139.11034718889164L148.89198333333331,138.81483369909625L149.04560416666666,138.62137457634748L149.05228333333335,138.80332298520648L149.0589625,138.71836529340413L149.079,138.33102590540688L149.20590416666667,138.7941219311931L149.439675,138.55394444775453L149.64672916666666,138.109430825185L149.78699166666667,139.07492883829548L149.90721666666667,138.98760445313616L149.97400833333333,139.29346219835855L150.56845416666667,139.8799919106852L150.6619625,139.44194096137826L150.79554583333334,140.40732761508073L150.85565833333334,140.81995787790922L150.9024125,140.36696814639276L150.90909166666668,140.38948563720527L151.1027875,140.4999017774209L151.1695791666667,140.36355305666592L151.30316249999998,140.67279358181278L151.764025,140.2454486040647L152.09130416666667,140.09110886146874L152.31171666666665,139.9456087874785L152.565525,139.6934277223L153.3069125,139.62431114056403L153.47389166666667,140.11914629124817L153.49392916666665,140.3074470364047L153.55404166666665,140.60771094876486L153.74105833333334,139.49970262716982L153.97482916666667,139.46197037679417L154.05497916666667,139.3948890583662L154.31546666666668,139.59381137889312L154.48244583333332,139.40113573432973L154.59599166666666,139.45117307997353L155.050175,139.69456704733733L155.19711666666666,139.78723561333396L155.38413333333332,139.58497627715337L155.7448083333333,140.23299844646493L156.6331375,140.82411053230786L156.6398166666667,140.4699318197395L157.2743375,140.34319099706562L157.57489999999999,140.67153940154407L158.38307916666665,140.1665362569886L158.42983333333333,139.50335977990613L159.26472916666665,139.14828751098622L159.58532916666667,139.36802662975498L160.019475,139.19695259074513L160.14637916666666,139.6592328395852L160.179775,139.436531522656L160.33339583333336,139.42831884550125L160.48033750000002,139.50285611586017L160.6206,139.94884012959147L161.07478333333333,139.74205776048746L161.42877916666666,139.8417527257982L161.81617083333333,140.51254311380285L162.11005416666669,140.24185788737236L162.13677083333332,140.50800975028574L162.30375,140.44947577037752L163.53939583333334,140.25780993412934L163.63958333333332,140.1654386473358L163.65962083333332,139.52083986715436L163.8065625,139.02174818346478L163.8466375,139.23484806316839L164.1672375,139.72258876322357L164.267425,139.32494840060858L164.57466666666667,139.370146590681L164.668175,139.74287262452313L164.74164583333334,139.405726566271L164.8017583333333,139.3751621689534L165.109,139.1707992104373L165.18247083333335,138.70754126594554L165.22254583333336,139.1256938391095L165.61661666666666,139.44122695107254L165.79695416666667,140.17873651790018L165.95057500000001,140.34542828206656L166.41811666666666,140.50786782148145L166.56505833333333,140.77882032896676L166.78547083333333,140.81402194384097L166.89901666666668,140.4639852218828L166.9457708333333,140.6477032019497L167.2129375,140.4422446229339L167.29976666666667,140.09201476206067L167.3331625,140.02754680353215L167.3732375,140.62959841214305L167.393275,140.56682926310708L167.90089166666667,140.5414743744946L167.90757083333335,139.88009210369688L167.92092916666667,140.01754803920807L168.20145416666668,139.52735954204212L168.22149166666668,139.72184170591242L168.42854583333332,139.1987966525996L168.60888333333335,139.71812122037676L168.62892083333332,139.7881658194701L168.66231666666667,139.95822870244027L169.03635,139.94753891831303L169.1365375,139.84826269808806L169.19664999999998,140.09053626396297L169.21000833333335,139.73915788673185L169.53728750000002,139.25342102135912L169.918,139.99154026380594L170.21856250000002,139.77914255005965L170.49240833333334,140.46594566191942L170.5792375,140.80088101974553L170.5859166666667,140.6459293255295L170.73285833333333,140.33106127614292L170.76625416666667,140.66434069415635L170.83972500000002,140.4521490480942L171.5811125,140.88175970592752L171.721375,141.09447486864718L172.17555833333336,140.06165375511165L172.18223749999999,140.14062258720585L172.202275,140.01580220532531L172.20895416666667,139.64523347361154L172.52955416666666,139.48675837602178L172.6898541666667,139.5477498172877L172.91026666666664,139.3487510829662L173.07724583333334,139.5045829295811L173.57150416666667,139.36456679282765L173.83867083333334,139.4954415439259L173.89210416666668,139.41753541402164L174.1058375,139.66137310547916L174.19266666666667,139.9914138506847L174.62013333333334,139.95778671449406L175.05427916666665,139.69357523349512L175.2079,140.54284237341636L175.76895,140.74225943694444L175.7889875,140.7944533610936L175.82238333333333,140.64609439877248L176.2698875,140.2438557219957L176.3901125,139.62299657001822L176.89105,139.81533242842391L177.15153750000002,139.6133961354544L177.15821666666665,139.7495446517974L178.20684583333335,140.01682289331615L178.48737083333333,140.55387732320702L178.49405,139.6068278517346L178.92819583333335,139.4820250937951L178.96827083333332,139.73745197174622L179.10185416666667,139.758905617104L179.14192916666667,139.72725776595237L179.28219166666665,139.35642739988782L179.32226666666668,139.4781695446814L179.72301666666667,139.78894322761568L180.1170875,140.64343061833782L180.33082083333335,140.8067548500848L180.37757499999998,141.18366823657465L181.80691666666667,140.62707320191927L181.97389583333333,140.38937827550453L182.060725,140.30912302793908L182.24106249999997,140.4979814014545L182.28781666666666,140.31330577562517L182.3612875,140.33045265096584L182.39468333333332,140.3437506974826L182.44811666666666,139.71646574563323L182.54162499999998,139.36048321978174L182.72864166666668,139.26708377633048L183.18950416666667,139.7000803633544L183.20954166666667,139.72451312446674L183.49006666666665,139.47790148320246L183.72383749999997,139.52069050349263L183.97096666666667,139.61364193426053L184.57877083333335,139.6719506005435L184.6856375,139.8378726524108L185.40030833333333,140.3959150750633L185.4470625,140.49278899962877L185.5272125,140.65939184686647L185.86784999999998,140.19086877799694L185.94132083333332,140.31857093153394L185.948,140.06014409350155L186.549125,139.7340125244069L186.5691625,140.1871309310918L187.551,140.18961085264235L187.57771666666667,139.98576214244574L187.58439583333333,139.59655318159227L187.69794166666665,139.85687328576068L187.79812916666666,139.74009671329867L187.86492083333331,139.74812467109805L187.93839166666666,139.87348547107962L187.97178749999998,139.4942676605403L188.00518333333335,139.483453418709L188.0319,139.5542822932584L188.071975,139.09590096505778L188.232275,139.41431407768903L188.29906666666668,139.9940184303485L188.472725,139.64141663303153L188.7732875,139.14449961119996L188.92690833333333,138.91714268406693L189.26754583333334,139.37886414218224L189.42784583333335,139.86163247101473L189.55475,139.3766607312737L189.64825833333333,139.6900388698803L189.86867083333334,140.39827415651243L190.62341666666669,139.64803359392977L190.95069583333336,139.9523229210597L191.49170833333332,140.27031501883397L191.56517916666667,140.36796940716584L191.69876250000002,140.23695018501567L192.0995125,139.9855060792654L192.18634166666666,140.35778831044968L192.43347083333333,140.6526118940123L192.56705416666665,140.84719210124064L192.640525,140.6548414573434L193.21493333333333,140.234706869445L193.281725,139.9391447280179L194.2234875,139.20892614867273L194.47061666666667,139.39831611958732L194.48397500000002,139.58111499218697L194.67767083333334,139.13017036002012L194.93815833333335,139.81965717662055L195.25875833333333,140.36566975408005L195.57935833333335,140.1106823962522L195.59271666666666,140.3656698871608L195.64615,140.58912017696832L195.84652499999999,140.39703114183982L196.00014583333333,140.1032228163018L196.09365416666668,140.39452693409527L196.47436666666667,140.33172237900976L197.11556666666667,139.8829400988107L197.41612916666665,140.0737524480632L197.44284583333334,139.93977628654306L197.84359583333332,140.2706789821748L198.1508375,140.14834695162557L198.3512125,139.6295727467667L198.49815416666667,139.81406958854978L198.55158749999998,139.6312449780511L199.36644583333333,140.08282668634695L199.56682083333334,139.90224795189167L199.7137625,140.40199343649545L199.934175,140.7559697257757L200.12787083333333,140.8672730998564L200.42843333333334,140.84962646224307L200.68892083333336,140.6046934757126L201.26332916666667,140.16052057048634L201.7509083333333,140.46167026281927L201.91788749999998,140.4243649710451L202.00471666666667,140.22712994928565L202.06482916666667,140.07863011548164L202.59248333333332,139.8251060103729L202.98655416666668,140.11942100854841L203.74797916666665,139.9157940675743L203.84816666666666,139.33532335936593L204.19548333333333,139.90201323079805L204.37582083333334,139.5743832459911L204.78992916666667,140.7359243733206L204.95690833333333,140.87167069032898L205.55135416666667,140.72744348475405L205.79848333333334,140.9201514770333L206.0322541666667,140.6595677584257L206.25266666666664,140.39697669445553L206.52651250000002,140.25777803956913L207.2478625,140.39559145331054L207.35472916666666,140.16154146230022L207.49499166666666,139.95670674762607L207.55510416666667,139.98265881849218L207.66197083333336,139.89019308693938L208.08275833333332,139.65907529716333L208.0894375,140.00304176047229L208.18294583333332,139.90799168130627L208.91765416666667,140.0013268791489L209.00448333333333,139.59674093442274L209.07795416666667,139.66669993589588L209.74587083333336,140.62404378646772L210.193375,140.63584537443018L210.47390000000001,140.88850288472472L211.52920833333332,140.9042289309615L212.0902583333333,140.5475819559642L212.10361666666668,140.16545543085027L212.37078333333332,140.1405814469486L212.3774625,139.69604538563664L212.38414166666666,140.21430500259265L212.49100833333335,140.53426310664574L212.57783750000002,140.37934480158185L212.59119583333333,140.01220929353056L213.25243333333333,140.00387951569925L214.2543083333333,139.9437271883319L214.68177500000002,140.5579945433277L214.72185000000002,141.00245445299973L214.76192500000002,141.4262946059038L214.78864166666668,141.15224673209963L214.79532083333334,141.7390049031876L215.29625833333333,141.39940299281494L215.563425,141.5417121123613L215.93077916666667,140.96500826307184L216.65880833333333,140.55417664008166L216.73227916666667,140.6419097522308L216.7857125,140.73137447174844L217.1063125,140.07839277646815L217.2666125,139.79988989688084L217.53377916666668,140.37279573355391L217.55381666666668,140.50266338452263L217.76087083333334,140.45004960635046L217.8276625,140.5598252608701L217.87441666666666,139.8794084634974L217.99464166666667,140.03740339258877L218.37535416666665,139.94547181594115L218.5089375,139.71191779832685L218.528975,139.70370550191785L218.6692375,140.03920254550212L219.24364583333335,140.49626390303274L219.85145,140.59685104587734L219.86480833333334,141.05665248929893L220.07854166666667,141.03210565030238L220.19876666666664,141.13923399495877L222.08897083333332,141.21007891802668L222.26262916666667,140.77349195962356L222.55651250000003,140.43897251239542L222.92386666666664,140.03790537387803L223.337975,140.2460065893571L223.42480416666666,140.63828822447303L224.03928749999997,140.8064213870373L224.23298333333332,140.99761896898787L224.49347083333333,140.7595584933188L224.92761666666667,140.82640284265437L226.3636375,140.8033580748162L226.8912916666667,140.0608332734061L227.06494999999998,140.21603348736483L227.21189166666667,140.46351520946334L227.33879583333334,140.63963580567068L227.47237916666666,140.63586592637554L227.505775,140.5016601470891L227.61264166666666,140.4409105859866L227.69279166666666,140.11572256879032L227.79965833333333,139.74310352621092L227.97999583333333,140.27298408578403L228.43417916666667,139.80606884557346L228.7614583333333,139.884186320295L228.8482875,139.63290526735187L228.90172083333334,139.96764970879198L229.53624166666665,140.30281820035242L230.01714166666667,140.20441682717959L230.23755416666668,140.317354551445L230.2843083333333,140.776345238978L230.34442083333334,141.0257011418905L230.67837916666667,140.57893881293333L230.69841666666667,140.24274198765872L230.83867916666668,140.17796054217408L230.91882916666668,140.45216780145878L231.04573333333335,140.71460480236956L231.1726375,140.2821793958184L232.08100416666667,140.24001451758366L232.62201666666664,139.95789692954912L232.62869583333332,140.5862993070882L232.85578750000002,140.37148185487996L232.98269166666668,140.22372847149617L233.28993333333332,139.8712588956943L233.77083333333334,139.82992579704467L233.80422916666666,139.14219525257317L233.97788749999998,140.31789757191876L234.28512916666668,141.0559844695314L234.38531666666665,141.97359393374828L234.68587916666667,141.5986826588911L234.93300833333333,141.37370371640935L235.2202125,140.4647029001785L235.35379583333332,140.81096812541918L235.39387083333332,140.56356185350202L235.48069999999998,140.66086133821835L235.66771666666665,140.40083239378947L235.95492083333332,140.316268216982L236.22208750000001,140.06924971426398L236.66959166666666,140.1938458322577L236.83657083333333,140.19095745021656L236.883325,139.91844069561097L236.91004166666667,140.06687316954572L237.57127916666667,139.95367343223356L237.59131666666667,140.2530584126488L237.8584833333333,139.78708607195472L238.07221666666666,139.99289969050082L238.486325,139.91712695624346L238.57983333333334,139.906481553709L238.69337916666666,140.02658380245893L238.70005833333332,140.16909081444578L238.98058333333333,140.72168300870322L239.64182083333333,140.6942859549717L239.82215833333333,140.5954742049811L240.79731666666666,140.27383289728388L241.1513125,140.1175521671404L241.8726625,140.176022658326L241.94613333333334,140.37469043110477L242.76767083333334,140.3689767228047L243.16174166666667,139.88629633524894L243.40887083333334,140.01157985531614L243.54913333333332,140.096909111162L243.7962625,140.87972168649435L244.0367125,141.18375172928094L244.04339166666665,141.03599626252125L244.21037083333331,141.09989419239207L244.62447916666667,141.63214331363108L244.66455416666665,141.26562477048913L244.76474166666668,141.09713023243356L245.0987,141.2574514528394L245.27235833333333,140.8684375900197L245.38590416666668,140.82270836342383L245.539525,140.26602158253795L245.84676666666667,140.4905588078821L246.2809125,140.3549922137454L246.3276666666667,140.60125576430528L246.3811,140.23876682206372L246.7017,140.1016931103729L246.7618125,140.49036336344855L247.15588333333332,140.5680370891236L247.2427125,140.5374531426515L248.21119166666668,140.56525964906726L248.29134166666665,139.94249932689019L248.51175416666666,139.8044478101882L248.52511249999998,140.6270213814588L248.79227916666667,140.74413176727364L249.226425,141.4003203800444L249.72068333333334,141.03915889210248L250.03460416666667,141.40013901082722L250.27505416666668,140.51886118464498L250.46875,139.9674578339626L250.66244583333335,140.0825177836877L250.749275,140.05774295678506L250.7693125,140.21566052049857L251.2101375,140.14633394962826L251.230175,140.08227278999254L251.51737916666667,140.2503622723327L251.77786666666668,140.60255599634087L251.84465833333334,140.64213949809215L251.86469583333334,140.74546999853695L252.21869166666667,140.49888015164044L252.9734375,140.18530513866608L253.10034166666668,139.73104320778765L253.14709583333334,139.70377617367694L253.15377500000002,139.65017015509957L253.20052916666666,139.8487481878588L253.634675,140.51507770755228L253.82169166666665,140.73469475649796L253.90184166666668,140.83592108930947L253.98867083333334,140.8437949481356L254.03542499999998,140.76391916351008L254.5764375,140.44158603475384L254.79685,140.89950179592307L254.82356666666666,140.41536811611377L255.00390416666664,140.5494550861199L255.01726250000002,141.0076882628965L255.46476666666666,140.65182388355538L255.6183875,139.92187639790896L256.0859291666667,140.08541425298526L256.1527208333333,139.60917582649512L256.26626666666664,139.93393090092258L256.3130208333333,140.04575685395668L256.3330583333333,139.93719508489292L256.42656666666664,139.800993074419L256.5000375,140.47122469511146L257.4084041666667,140.7791931150348L257.6555333333333,140.54653300154155L258.0228875,140.04044604485003L258.06964166666666,140.29750539174537L258.5037875,141.01785993463312L258.6707666666667,140.94165390662263L258.7308791666667,141.31087795753425L258.8110291666667,141.06142827784507L258.9379333333333,141.0817599440544L259.0514791666667,141.31259707480248L259.15166666666664,140.97012489956364L259.41215416666665,141.09780443562119L259.49230416666666,141.2531654349151L259.65928333333335,140.76461741692918L259.85965833333336,140.59770643333852L259.9064125,140.80051586103593L260.2938041666667,140.86751864297483L260.367275,141.10413060154494L260.60104583333333,140.84424110392317L260.72795,140.3337412067627L260.77470416666665,140.68710250189156L261.08194583333335,140.74971619564445L261.4292625,140.78898402046053L261.4493,140.3539141535216L261.6830708333333,140.50000286218247L262.13725416666665,140.23681510160398L262.30423333333334,139.88554955226203L262.531325,139.54635952831518L262.55136250000004,139.3901370431257L262.8986791666667,139.7409656593366L262.9053583333333,139.97513602370998L262.9587916666667,139.55533658978334L263.0456208333334,139.81205661604994L263.41297499999996,140.90626598602648L263.5933125,141.43456980410883L263.9940625,141.62240347161097L264.00074166666667,141.32748826977135L264.1744,141.63154050491167L264.25455,141.79412567187495L264.3547375,141.64391688745707L264.4883208333333,141.23260516072207L264.5484333333333,141.25526621726092L264.6085458333333,141.3054861979898L264.80892083333333,141.30251010699368L265.1362,140.6864916142422L265.5035541666667,140.40204240719066L265.7172875,140.59596160256615L265.8642291666667,140.06364606442304L266.35180833333334,140.1437570668593L266.8727833333333,140.1315118293366L267.36704166666664,140.46223434331424L267.69432083333334,141.15214379741195L267.93477083333335,140.99024552472497L268.3488791666667,141.06817046325244L268.68951666666663,141.09428958309198L268.863175,141.45812919266524L268.8832125,141.16095412985982L269.39082916666666,141.03815170357527L269.53109166666667,140.70903047460257L269.584525,140.44266345523562L269.6713541666667,140.90559786214092L269.6847125,141.3640613952497L269.7247875,140.86385795171378L270.15225416666664,140.3814082932193L270.37934583333333,141.00216170202012L270.39270416666665,141.02163110703418L270.39938333333333,140.41370151060931L270.97379166666667,140.4221666104681L270.99382916666667,140.58699832541268L271.1741666666667,140.85503108908247L272.31630416666667,140.45921153491446L272.3630583333333,140.25368795195644L272.6101875,140.50811312436713L272.8038833333333,140.59946890675815L272.83727916666663,140.22737889590138L273.11780416666664,140.7392472660677L273.53191250000003,141.17048455096105L273.6454583333333,141.31193494091522L273.6521375,141.79898942583856L274.0929625,141.85634011670385L274.1463958333333,141.6935278901126L274.2265458333333,142.12148643902935L274.473675,141.63849929196832L274.4803541666667,140.96765391959667L274.5003916666667,140.78082976599882L274.94121666666666,140.27051361119956L275.28853333333336,140.23489980826503L275.3887208333333,140.5554271485193L275.48890833333337,140.0923993883004L275.595775,139.99976938053788L275.6826041666667,140.24159069707883L275.916375,140.35946284741695L276.04327916666665,140.11196423775277L276.09003333333334,140.09350569967222L277.64627916666666,139.90851504459258L277.82661666666667,140.4031932017462" style="fill: none;" fill="none"></path></g></g></g></g><g opacity="0.2"><g><g><g><path stroke="rgb(255, 112, 67)" stroke-width="2px" d="M41.818262499999996,-17.459653615951538L42.18561666666667,16.716151356697083L42.20565416666667,0.32208162546157837L42.299162499999994,-14.111994445323944L42.32587916666666,-5.309477984905243L42.64647916666667,2.831995189189911L42.69323333333333,-12.754438698291779L42.987116666666665,12.625211477279663L43.187491666666666,0.6695993542671204L43.56820416666667,26.608042001724243L43.761900000000004,5.182128667831421L43.868766666666666,37.16510099172592L43.975633333333334,37.66667014360428L44.349666666666664,48.28362160921097L44.69030416666667,42.15771961212158L44.81052916666666,33.34771263599396L44.870641666666664,21.656051516532898L44.97750833333333,42.66321337223053L44.997545833333334,50.88788402080536L45.29142916666667,50.430276811122894L45.71221666666666,66.72667443752289L45.85915833333333,50.25556844472885L45.879195833333334,56.557919561862946L45.932629166666665,45.405269622802734L46.19979583333333,63.177657544612885L46.313341666666666,65.13201749324799L46.400170833333334,57.54323887825012L46.994616666666666,57.194803297519684L47.39536666666666,69.34521102905273L48.003170833333336,72.44546163082123L48.08332083333333,75.54369190335274L48.29705416666666,78.31483456492424L48.33712916666667,84.22224032878876L48.4707125,74.96239095926285L48.504108333333335,76.29426795244217L48.80467083333333,90.2581242620945L48.884820833333336,71.80772861838341L49.11859166666667,75.31305786967278L49.352362500000005,76.476203083992L49.35904166666666,73.04964557290077L49.66628333333333,86.58507603406906L49.779829166666666,82.96004623174667L49.793187499999995,84.75698402523994L49.82658333333333,79.1046250462532L49.9935625,92.34478676319122L50.00024166666667,81.74976351857185L50.08039166666667,86.31369253993034L50.1137875,80.72634279727936L50.30748333333333,83.37039989233017L50.407670833333334,88.25963884592056L50.44774583333333,85.76135140657425L51.329395833333336,89.55943322181702L51.696749999999994,92.77082830667496L52.024029166666665,94.84683528542519L52.738699999999994,98.57935926318169L53.212920833333335,95.27727618813515L53.50680416666667,104.59773015975952L53.68714166666666,100.68999141454697L53.70717916666667,100.13951763510704L54.09457083333333,97.45030644536018L54.50867916666667,106.91108098626137L54.742450000000005,108.39187154173851L54.969541666666665,104.62898460030556L55.063050000000004,103.56270441412926L55.076408333333326,107.81438970565796L55.0830875,109.39036783576012L55.470479166666664,101.47169002890587L56.63933333333333,108.52634739875793L57.44083333333334,111.2332483381033L57.56105833333333,109.54534766077995L57.57441666666667,108.72912409901619L57.90837500000001,104.80767560005188L58.282408333333336,111.55859519541264L58.38259583333333,114.85958898067474L58.7299125,109.28515774011612L58.870174999999996,115.45592634379864L58.91692916666666,112.22095195949078L59.6316,115.96023058891296L59.818616666666664,113.39941580593586L60.005633333333336,120.0491844266653L60.35295,117.87318433821201L60.76705833333334,122.21142464876175L61.42161666666667,116.6401927024126L61.62867083333333,116.28450398147106L61.66206666666667,115.70319512486458L62.142966666666666,118.74333170056343L62.229795833333334,116.75391402840614L62.24315416666666,121.54613497853279L62.78416666666667,116.15765051543713L63.39865,124.54383672773838L63.51219583333334,124.25259809195995L63.652458333333335,119.78933738172054L64.30701666666667,119.07064086198807L64.54746666666666,125.60611581802368L64.57418333333334,119.10573814809322L64.62761666666667,122.10640181601048L65.121875,122.18860758841038L65.37568333333333,123.169962733984L65.46919166666666,123.93723946809769L65.723,123.56827618181705L65.80315,121.27360944449902L66.083675,125.16244518756866L66.53785833333333,122.6224825233221L66.59797083333333,123.40200519561768L66.61800833333334,125.67901910841465L67.125625,123.42042553424835L67.13898333333334,124.50475153326988L67.49965833333333,125.27824486792088L67.68667500000001,125.05746982991695L68.3879875,124.72216902673244L68.9891125,125.86946810781956L69.09597916666667,125.09349551796913L69.1894875,127.66750046610832L69.59691666666666,123.30894081294537L70.24479583333334,125.33170183002949L70.45852916666666,125.18071782588959L71.22663333333334,129.34472715854645L71.32682083333333,128.79533211886883L71.62070416666667,127.39983057975769L72.18843333333334,129.720212996006L72.30197916666667,126.1615586578846L72.32201666666667,128.75322170555592L72.56246666666667,130.12072348594666L72.60922083333334,129.1972694993019L72.84967083333333,126.91161511838436L72.98993333333334,126.73660343885422L73.40404166666667,129.17468981444836L73.537625,129.9401677697897L74.27901250000001,127.01606561243534L74.34580416666667,126.86494973301888L74.80666666666666,131.92117707431316L74.89349583333333,128.84493304789066L74.93357083333333,127.99352779984474L75.0204,128.75522093474865L75.40111250000001,128.55618949234486L75.55473333333333,129.23065768182278L75.58812916666666,132.1191851645708L75.9822,131.53218457102776L76.14250000000001,132.06489211320877L76.7837,128.95287296175957L76.944,130.00953944027424L77.30467499999999,128.63524344563484L77.49837083333333,129.85577023029327L77.85904583333334,131.1563954204321L78.11953333333332,131.4202646613121L78.13957083333332,132.4930146485567L78.21972083333333,130.1579334139824L78.426775,130.12027774751186L79.12140833333333,131.87374153733253L79.17484166666667,132.54675909876823L79.27502916666667,132.08863757550716L79.92290833333333,130.7281594723463L80.09656666666666,131.06762225925922L80.24350833333332,131.161905169487L80.85799166666666,132.44257763028145L80.911425,128.94501319527626L81.18527083333333,130.68909537792206L81.59270000000001,133.42166056483984L81.79975416666666,131.12672612071037L82.22722083333332,130.7732660919428L82.4142375,129.52180664241314L82.42091666666666,132.02149195969105L82.54782083333335,131.614883556962L82.70144166666667,130.670052587986L82.82834583333333,134.81183038651943L83.155625,132.18971733748913L83.22241666666667,133.09371312707663L83.24245416666668,132.38543343544006L83.34264166666667,131.32959777116776L83.56305416666667,133.53092186897993L84.7385875,130.73329997062683L84.77866250000001,134.01928107440472L85.22616666666667,132.47778569161892L85.41318333333332,132.58593133091927L85.479975,131.70903459191322L85.71374583333332,132.4593785405159L86.16125000000001,132.61235386133194L86.37498333333333,131.49461330473423L86.76905416666666,133.0609645396471L87.002825,129.4849501401186L87.15644583333334,133.66216414421797L87.26999166666666,132.97380289435387L88.03141666666666,132.42098701000214L88.26518750000001,133.0709211230278L88.3052625,131.59562976658344L88.766125,132.4508620351553L89.06000833333334,133.51081616431475L89.25370416666667,132.75137150287628L89.2871,133.78449956327677L89.3472125,133.40200455486774L89.94833750000001,132.8807675242424L89.96837500000001,132.15897457301617L90.15539166666666,134.62784195691347L90.22218333333333,134.2652614340186L90.60957499999999,133.0566021054983L90.84334583333333,135.03237200528383L91.06375833333334,133.69618400931358L91.0704375,133.05118994414806L91.4711875,135.04036628454924L92.29940416666668,135.09351993352175L92.31944166666668,134.6256871148944L92.693475,135.5898444056511L92.86713333333334,135.03259883075953L92.88717083333334,132.44095028936863L93.02743333333333,135.00831136107445L93.0741875,136.46664091944695L93.46157916666667,134.73793407529593L93.50165416666667,133.2303715199232L93.87568750000001,134.79341664165258L95.017825,133.3096786737442L95.06457916666668,133.61360634863377L95.24491666666667,133.7640865892172L95.61895,134.5691033899784L95.83268333333334,132.9330692589283L96.26015,133.6978153064847L96.28018750000001,134.16164175421L96.41377083333333,133.86852653324604L96.63418333333334,135.8922687023878L97.16183749999999,134.27092283964157L97.20859166666666,134.5729132667184L97.29542083333334,136.3272395208478L97.4423625,134.95767521113157L97.69617083333334,133.5929968804121L97.89654583333333,134.18382976949215L98.05016666666667,134.6165745332837L98.17039166666666,134.9151216968894L98.63793333333334,134.96409621834755L99.13887083333333,135.34027967602015L99.5663375,133.2736688107252L100.00048333333334,133.1065775603056L100.57489166666666,136.47967810928822L100.74855,135.0938746780157L101.3096,135.34718334674835L102.03095,136.2291520088911L102.07770416666666,135.9709428548813L102.83245000000001,134.33052782714367L102.8524875,134.45087456703186L102.99275,135.28912129998207L103.38682083333333,135.93542752414942L103.4536125,135.79503178596497L103.48032916666666,135.29777363687754L103.674025,136.28808443248272L103.89443750000001,135.77187580615282L104.24175416666667,135.97446656227112L104.3553,135.52115584909916L104.44880833333333,133.69496152549982L104.555675,135.63084970414639L104.66922083333334,135.89038684219122L104.93638750000001,137.25468405336142L105.24362916666666,135.1186487674713L105.25030833333332,136.0941460132599L105.39725,135.4193613231182L105.63102083333334,134.70651083439589L105.69781250000001,134.81334563344717L105.80467916666667,133.49399415403605L105.86479166666666,135.19452584534883L105.9583,134.81150992959738L106.21210833333333,136.1770309433341L106.23214583333333,136.33464695513248L106.4592375,134.4149253666401L106.48595416666666,134.3348388299346L106.63957500000001,134.91230484098196L106.67965,136.99040336161852L106.69300833333334,136.09619667381048L106.96017499999999,136.3990390151739L107.00025,137.2697442099452L107.08707916666667,138.22544038295746L107.120475,136.1938648223877L107.54794166666666,136.22494914382696L107.67484583333332,134.84557067602873L107.73495833333334,136.03941513597965L108.03552083333334,136.88195968419313L108.18914166666666,135.98972189426422L108.2025,135.46279972046614L108.20917916666667,137.30907732993364L108.60325,137.33078004419804L109.6652375,135.75469113886356L110.01923333333333,137.8270042911172L110.15281666666665,136.14568155258894L110.35987083333333,135.92084739357233L110.41998333333333,134.93809568881989L110.53352916666667,136.27383662760258L110.64707499999999,135.04548436403275L110.85412916666667,136.2560994029045L111.19476666666667,136.54587158560753L111.3483875,134.6111834719777L111.44189583333333,136.84838819503784L111.93615416666667,137.87417080253363L112.69757916666666,136.18365371972322L113.33877916666665,137.20368392765522L113.372175,135.89285422861576L113.612625,137.1048407703638L113.81967916666667,136.78495486825705L114.46755833333333,137.12836863845587L114.64121666666666,136.74906501173973L114.66793333333334,135.489176094532L114.77480000000001,137.4673817306757L115.055325,136.63674024492502L115.48279166666667,137.56144572794437L115.50282916666667,136.0066441297531L115.60969583333333,138.16989187896252L116.25089583333333,137.0409392863512L116.60489166666666,137.19619209319353L117.2394125,139.4022122696042L118.02755416666666,138.29721482098103L118.21457083333334,137.2836174890399L118.60864166666666,137.40212984383106L118.9225625,136.86481062322855L119.4034625,137.56356232613325L119.53036666666667,138.36238230764866L119.81757083333333,136.180497944355L119.95115416666667,136.75040882080793L120.33854583333333,138.40329661220312L120.45209166666666,136.52972741425037L120.63242916666667,137.29106844216585L120.77269166666667,136.89681939035654L120.85284166666666,137.4678538441658L120.95302916666667,137.43473468720913L120.97974583333333,138.05306093394756L121.09329166666667,138.1066669151187L121.33374166666667,137.36973072588444L121.60090833333332,138.20988965034485L121.82132083333333,138.30028092116117L122.55602916666666,137.74287182092667L122.91002499999999,138.91011308133602L122.93674166666666,139.02935206890106L123.070325,137.2704167738557L123.39760416666667,139.44900953024626L123.5913,137.95176357775927L123.871825,139.25894428789616L124.2124625,137.3530524596572L124.36608333333334,137.21589689701796L124.76015416666667,138.55817225575447L124.78019166666667,138.39099660515785L125.21433750000001,137.35505828261375L125.40803333333332,138.08882419019938L125.63512499999999,137.07033032923937L125.86889583333334,137.5494833216071L126.02251666666666,137.89012507349253L126.12938333333332,137.3690911307931L126.6169625,138.81285374611616L126.74386666666666,139.44769341498613L126.89080833333333,138.72220004349947L127.43849999999999,138.8048924356699L128.3802625,137.6322614327073L128.8210875,137.74434354901314L128.86784166666666,137.06124280393124L128.92795416666667,137.2491663917899L129.0415,136.65173710137606L129.12165,137.86038983613253L129.16172500000002,138.43942911922932L129.55579583333335,138.58668369054794L129.88975416666668,139.01506865769625L130.203675,137.62559118121862L130.44412499999999,137.90414209663868L130.604425,137.94542433321476L130.6244625,136.48885662853718L131.1254,138.12894592434168L131.16547500000001,138.07572765648365L131.36585,138.78477354347706L131.4259625,139.55616214871407L131.45267916666666,138.20253892242908L131.49275416666666,139.56584311276674L132.1072375,139.17116282880306L132.11391666666665,139.8950249031186L132.16735,139.3602627441287L132.19406666666666,137.04005572199821L132.3076125,137.5833924114704L132.73507916666668,138.07015592604876L132.86198333333334,138.23838394135237L133.089075,138.58695930987597L133.76367083333335,138.34802240878344L134.18445833333334,139.27217005938292L134.4917,136.84081591665745L134.78558333333334,138.01421179622412L134.9124875,137.60980043560266L135.35999166666667,138.5507832840085L135.74738333333335,138.24690967798233L135.90100416666667,138.52350092679262L136.44201666666666,140.0565338730812L136.74257916666667,139.23466868698597L136.75593750000002,138.493228957057L136.96967083333334,139.5489459335804L137.176725,139.68600522726774L137.57079583333334,139.0266169756651L138.52591666666666,138.78404427319765L138.68621666666667,137.83552607148886L138.74632916666667,138.39969641715288L138.78640416666667,139.96430821716785L139.09364583333334,139.46579329669476L139.11368333333334,136.97110473364592L139.2405875,137.86183914542198L140.1222375,138.08707288652658L140.21574583333333,138.12841578572989L140.89702083333333,138.11087769269943L141.03728333333333,140.45592342317104L141.51818333333333,140.54786554723978L141.9256125,140.07402580976486L142.4065125,138.7678842768073L142.55345416666665,138.53537233918905L142.667,139.4132752865553L142.97424166666667,138.66552928090096L143.20133333333334,139.45549515634775L143.63547916666667,139.31936690211296L143.99615416666666,138.48857639729977L144.1698125,139.88728646188974L144.20320833333335,139.61762525886297L144.67742916666666,138.86305207014084L144.91787916666667,139.10830184072256L145.24515833333334,137.5980727672577L145.65926666666667,139.09128729254007L145.66594583333332,138.96320870518684L145.8930375,138.79994183778763L145.98654583333334,141.3652693927288L146.26707083333332,140.15202476084232L147.38249166666665,138.6160668209195L147.58954583333335,140.42143540084362L147.8166375,140.64226846396923L148.22406666666666,139.36368227005005L148.29085833333335,138.12433292716742L148.53798749999999,139.02093446999788L148.59142083333333,139.37045538425446L148.7584,138.89138019829988L148.878625,139.15407311171293L148.89198333333331,138.37156346440315L149.04560416666666,138.3311858922243L149.05228333333335,139.076245598495L149.0589625,138.5909287557006L149.079,137.750016823411L149.20590416666667,139.48876596987247L149.439675,138.19367822259665L149.64672916666666,137.44266039133072L149.78699166666667,140.52317585796118L149.90721666666667,138.8566178753972L149.97400833333333,139.75224881619215L150.56845416666667,140.7597864791751L150.6619625,138.7848645374179L150.79554583333334,141.85540759563446L150.85565833333334,141.43890327215195L150.9024125,139.68748354911804L150.90909166666668,140.42326187342405L151.1027875,140.66552598774433L151.1695791666667,140.15902997553349L151.30316249999998,141.13665436953306L151.764025,139.6044311374426L152.09130416666667,139.8595992475748L152.31171666666665,139.72735867649317L152.565525,139.31515612453222L153.3069125,139.52063626796007L153.47389166666667,140.86139901727438L153.49392916666665,140.58989815413952L153.55404166666665,141.0581068173051L153.74105833333334,137.8376901447773L153.97482916666667,139.40537200123072L154.05497916666667,139.29426708072424L154.31546666666668,139.8921948596835L154.48244583333332,139.11212226748466L154.59599166666666,139.52622909843922L155.050175,140.05965799838305L155.19711666666666,139.9262384623289L155.38413333333332,139.28158727288246L155.7448083333333,141.2050317004323L156.6331375,141.71077866107225L156.6398166666667,139.93866375088692L157.2743375,140.15307976305485L157.57489999999999,141.16406200826168L158.38307916666665,139.4090315401554L158.42983333333333,138.50859506428242L159.26472916666665,138.6156791076064L159.58532916666667,139.69763530790806L160.019475,138.94034153223038L160.14637916666666,140.35265321284533L160.179775,139.1024795472622L160.33339583333336,139.41599982976913L160.48033750000002,139.61466202139854L160.6206,140.61781615018845L161.07478333333333,139.43188420683146L161.42877916666666,139.99129517376423L161.81617083333333,141.51872869580984L162.11005416666669,139.83583004772663L162.13677083333332,140.9072375446558L162.30375,140.36167480051517L163.53939583333334,139.97031117975712L163.63958333333332,140.02688171714544L163.65962083333332,138.55394169688225L163.8065625,138.27311065793037L163.8466375,139.5544978827238L164.1672375,140.45419981330633L164.267425,138.72848785668612L164.57466666666667,139.43794387578964L164.668175,140.3019616752863L164.74164583333334,138.9000074788928L164.8017583333333,139.32931557297707L165.109,138.86425477266312L165.18247083333335,138.01265434920788L165.22254583333336,139.7529226988554L165.61661666666666,139.91452661901712L165.79695416666667,141.28500086814165L165.95057500000001,140.59546592831612L166.41811666666666,140.7515271306038L166.56505833333333,141.1852490901947L166.78547083333333,140.8668243661523L166.89901666666668,139.93893013894558L166.9457708333333,140.92328017205L167.2129375,140.13405675441027L167.29976666666667,139.5666699707508L167.3331625,139.93084486573935L167.3732375,141.5326758250594L167.393275,140.47267553955317L167.90089166666667,140.5034420415759L167.90757083333335,138.88801869750023L167.92092916666667,140.22373194247484L168.20145416666668,138.79207679629326L168.22149166666668,140.01356495171785L168.42854583333332,138.4142290726304L168.60888333333335,140.49710807204247L168.62892083333332,139.89323271811008L168.66231666666667,140.21332302689552L169.03635,139.93150424212217L169.1365375,139.69934836775064L169.19664999999998,140.45394661277533L169.21000833333335,139.21209032088518L169.53728750000002,138.52481572329998L169.918,141.09871912747622L170.21856250000002,139.4605459794402L170.49240833333334,141.49615032970905L170.5792375,141.3032840564847L170.5859166666667,140.41350178420544L170.73285833333333,139.85875920206308L170.76625416666667,141.16425982117653L170.83972500000002,140.13386157900095L171.5811125,141.5261756926775L171.721375,141.4135476127267L172.17555833333336,138.51242208480835L172.18223749999999,140.25907583534718L172.202275,139.82857163250446L172.20895416666667,139.08938037604094L172.52955416666666,139.24904572963715L172.6898541666667,139.63923697918653L172.91026666666664,139.05025298148394L173.07724583333334,139.73833069950342L173.57150416666667,139.1545425876975L173.83867083333334,139.69175367057323L173.89210416666668,139.30067621916533L174.1058375,140.0271296426654L174.19266666666667,140.48647496849298L174.62013333333334,139.90734601020813L175.05427916666665,139.29725801199675L175.2079,141.8167430832982L175.76895,141.04138503223658L175.7889875,140.8727442473173L175.82238333333333,140.4235559552908L176.2698875,139.6404977068305L176.3901125,138.69170784205198L176.89105,140.1038362160325L177.15153750000002,139.3104916960001L177.15821666666665,139.95376742631197L178.20684583333335,140.41774025559425L178.48737083333333,141.35945896804333L178.49405,138.186253644526L178.92819583333335,139.29482095688581L178.96827083333332,140.12059228867292L179.10185416666667,139.7910860851407L179.14192916666667,139.6797859892249L179.28219166666665,138.80018185079098L179.32226666666668,139.66078276187181L179.72301666666667,140.25510375201702L180.1170875,141.92516170442104L180.33082083333335,141.05174119770527L180.37757499999998,141.74903831630945L181.80691666666667,139.7921806499362L181.97389583333333,140.03283588588238L182.060725,140.18874015659094L182.24106249999997,140.78126896172762L182.28781666666666,140.03629233688116L182.3612875,140.35617296397686L182.39468333333332,140.3636977672577L182.44811666666666,138.77553831785917L182.54162499999998,138.82650943100452L182.72864166666668,139.1269846111536L183.18950416666667,140.34957524389029L183.20954166666667,139.76116226613522L183.49006666666665,139.10798402130604L183.72383749999997,139.58487403392792L183.97096666666667,139.7530690804124L184.57877083333335,139.75941359996796L184.6856375,140.08675573021173L185.40030833333333,141.23297870904207L185.4470625,140.638099886477L185.5272125,140.909296117723L185.86784999999998,139.48808417469263L185.94132083333332,140.51012416183949L185.948,139.67250383645296L186.549125,139.24481517076492L186.5691625,140.8668085411191L187.551,140.19333073496819L187.57771666666667,139.67998907715082L187.58439583333333,139.0127397403121L187.69794166666665,140.24735344201326L187.79812916666666,139.56493185460567L187.86492083333331,139.76016660779715L187.93839166666666,140.06152667105198L187.97178749999998,138.92544094473124L188.00518333333335,139.46723205596209L188.0319,139.6605256050825L188.071975,138.40832897275686L188.232275,139.8919337466359L188.29906666666668,140.8635749593377L188.472725,139.11251393705606L188.7732875,138.3991240784526L188.92690833333333,138.5761072933674L189.26754583333334,140.07144632935524L189.42784583333335,140.58578496426344L189.55475,138.64920312166214L189.64825833333333,140.16010607779026L189.86867083333334,141.4606270864606L190.62341666666669,138.5226727500558L190.95069583333336,140.4087569117546L191.49170833333332,140.7473031654954L191.56517916666667,140.5144509896636L191.69876250000002,140.04042135179043L192.0995125,139.60833992064L192.18634166666666,140.91621165722609L192.43347083333333,141.09484726935625L192.56705416666665,141.13906241208315L192.640525,140.36631549149752L193.21493333333333,139.60450498759747L193.281725,139.49580151587725L194.2234875,138.11359827965498L194.47061666666667,139.6824010759592L194.48397500000002,139.85531330108643L194.67767083333334,138.45375341176987L194.93815833333335,140.8538874015212L195.25875833333333,141.1846886202693L195.57935833333335,139.72820135951042L195.59271666666666,140.7481511235237L195.64615,140.92429561167955L195.84652499999999,140.1088975891471L196.00014583333333,139.66251032799482L196.09365416666668,140.83148311078548L196.47436666666667,140.23751554638147L197.11556666666667,139.2097666785121L197.41612916666665,140.35997097194195L197.44284583333334,139.7388120442629L197.84359583333332,140.76703302562237L198.1508375,139.96484890580177L198.3512125,138.8514114394784L198.49815416666667,140.09081485122442L198.55158749999998,139.35700806230307L199.36644583333333,140.76019924879074L199.56682083333334,139.63137985020876L199.7137625,141.15161166340113L199.934175,141.2869341596961L200.12787083333333,141.03422816097736L200.42843333333334,140.82315650582314L200.68892083333336,140.23729399591684L201.26332916666667,139.49426121264696L201.7509083333333,140.91339480131865L201.91788749999998,140.36840703338385L202.00471666666667,139.93127741664648L202.06482916666667,139.85588036477566L202.59248333333332,139.44481985270977L202.98655416666668,140.5608935058117L203.74797916666665,139.61035365611315L203.84816666666666,138.46461729705334L204.19548333333333,140.75204803794622L204.37582083333334,139.0829382687807L204.78992916666667,142.47823606431484L204.95690833333333,141.07529016584158L205.55135416666667,140.5111026763916L205.79848333333334,141.2092134654522L206.0322541666667,140.26869218051434L206.25266666666664,140.00309009850025L206.52651250000002,140.04898005723953L207.2478625,140.60231157392263L207.35472916666666,139.81046647578478L207.49499166666666,139.64945467561483L207.55510416666667,140.02158692479134L207.66197083333336,139.7514944896102L208.08275833333332,139.31239861249924L208.0894375,140.51899145543575L208.18294583333332,139.76541656255722L208.91765416666667,140.14132967591286L209.00448333333333,138.9898620173335L209.07795416666667,139.77163843810558L209.74587083333336,142.06005956232548L210.193375,140.65354775637388L210.47390000000001,141.2674891501665L211.52920833333332,140.92781800031662L212.0902583333333,140.01261149346828L212.10361666666668,139.59226564317942L212.37078333333332,140.10327047109604L212.3774625,139.02924129366875L212.38414166666666,140.99169442802668L212.49100833333335,141.01420026272535L212.57783750000002,140.14696734398603L212.59119583333333,139.4615060314536L213.25243333333333,139.9913848489523L214.2543083333333,139.85349869728088L214.68177500000002,141.4793955758214L214.72185000000002,141.66914431750774L214.76192500000002,142.06205483525991L214.78864166666668,140.7411749213934L214.79532083333334,142.6191421598196L215.29625833333333,140.89000012725592L215.563425,141.7551757916808L215.93077916666667,140.09995248913765L216.65880833333333,139.93792920559645L216.73227916666667,140.7735094204545L216.7857125,140.8655715510249L217.1063125,139.0989202335477L217.2666125,139.38213557749987L217.53377916666668,141.23215448856354L217.55381666666668,140.69746486097574L217.76087083333334,140.37112893909216L217.8276625,140.72448874264956L217.87441666666666,138.8587832674384L217.99464166666667,140.2743957862258L218.37535416666665,139.8075744509697L218.5089375,139.36158677190542L218.528975,139.69138705730438L218.6692375,140.54244811087847L219.24364583333335,141.18185593932867L219.85145,140.74773176014423L219.86480833333334,141.74635465443134L220.07854166666667,140.99528539180756L220.19876666666664,141.29992651194334L222.08897083333332,141.31634630262852L222.26262916666667,140.1186115220189L222.55651250000003,139.9371933415532L222.92386666666664,139.43630466610193L223.337975,140.55815841257572L223.42480416666666,141.2267106771469L224.03928749999997,141.0586211308837L224.23298333333332,141.2844153419137L224.49347083333333,140.4024677798152L224.92761666666667,140.92666936665773L226.3636375,140.768790923059L226.8912916666667,138.94704607129097L227.06494999999998,140.44883380830288L227.21189166666667,140.83473779261112L227.33879583333334,140.9038166999817L227.47237916666666,140.63021110743284L227.505775,140.30035147815943L227.61264166666666,140.3497862443328L227.69279166666666,139.62794054299593L227.79965833333333,139.18417496234179L227.97999583333333,141.06780492514372L228.43417916666667,139.10569598525763L228.7614583333333,140.00136253237724L228.8482875,139.25598368793726L228.90172083333334,140.46976637095213L229.53624166666665,140.80557093769312L230.01714166666667,140.0568147674203L230.23755416666668,140.48676113784313L230.2843083333333,141.4648312702775L230.34442083333334,141.3997349962592L230.67837916666667,139.90879531949759L230.69841666666667,139.7384467497468L230.83867916666668,140.08078837394714L230.91882916666668,140.86347869038582L231.04573333333335,141.10826030373573L231.1726375,139.63354128599167L232.08100416666667,140.17676720023155L232.62201666666664,139.53472054749727L232.62869583333332,141.52890287339687L232.85578750000002,140.04925567656755L232.98269166666668,140.00209839642048L233.28993333333332,139.34255453199148L233.77083333333334,139.76792614907026L233.80422916666666,138.11059943586588L233.97788749999998,142.08145105093718L234.28512916666668,142.1631148159504L234.38531666666665,143.35000813007355L234.68587916666667,141.0363157466054L234.93300833333333,141.0362353026867L235.2202125,139.10120167583227L235.35379583333332,141.3303659632802L235.39387083333332,140.19245244562626L235.48069999999998,140.80681056529284L235.66771666666665,140.01078897714615L235.95492083333332,140.18942195177078L236.22208750000001,139.69872196018696L236.66959166666666,140.38074000924826L236.83657083333333,140.18662487715483L236.883325,139.50966556370258L236.91004166666667,140.28952188044786L237.57127916666667,139.78387382626534L237.59131666666667,140.7021358832717L237.8584833333333,139.08812756091356L238.07221666666666,140.30162011832L238.486325,139.80346785485744L238.57983333333334,139.8905134499073L238.69337916666666,140.20673717558384L238.70005833333332,140.38285133242607L238.98058333333333,141.55057130008936L239.64182083333333,140.6531903743744L239.82215833333333,140.44725657999516L240.79731666666666,139.7913709357381L241.1513125,139.88313107192516L241.8726625,140.2637283951044L241.94613333333334,140.6726920902729L242.76767083333334,140.36040616035461L243.16174166666667,139.1622757539153L243.40887083333334,140.19950513541698L243.54913333333332,140.22490299493074L243.7962625,142.05394054949284L244.0367125,141.63979679346085L244.04339166666665,140.81436306238174L244.21037083333331,141.19574108719826L244.62447916666667,142.4305169954896L244.66455416666665,140.71584695577621L244.76474166666668,140.8443884253502L245.0987,141.49793328344822L245.27235833333333,140.2849167957902L245.38590416666668,140.75411452353L245.539525,139.4309914112091L245.84676666666667,140.82736464589834L246.2809125,140.15164232254028L246.3276666666667,140.9706510901451L246.3811,139.69503340870142L246.7017,139.89608254283667L246.7618125,141.07336874306202L247.15588333333332,140.68454767763615L247.2427125,140.4915772229433L248.21119166666668,140.60696940869093L248.29134166666665,139.0083588436246L248.51175416666666,139.59737053513527L248.52511249999998,141.8608817383647L248.79227916666667,140.9197973459959L249.226425,142.38460329920053L249.72068333333334,140.49741666018963L250.03460416666667,141.9416091889143L250.27505416666668,139.19694444537163L250.46875,139.14035280793905L250.66244583333335,140.25510770827532L250.749275,140.02058071643114L250.7693125,140.45253686606884L251.2101375,140.04234409332275L251.230175,139.98618105053902L251.51737916666667,140.50249649584293L251.77786666666668,141.13084658235312L251.84465833333334,140.70151475071907L251.86469583333334,140.90046574920416L252.21869166666667,140.12899538129568L252.9734375,139.71494261920452L253.10034166666668,139.04965031147003L253.14709583333334,139.6628756225109L253.15377500000002,139.5697611272335L253.20052916666666,140.1466152369976L253.634675,141.5145719870925L253.82169166666665,141.06412032991648L253.90184166666668,140.98776058852673L253.98867083333334,140.85560573637486L254.03542499999998,140.6441054865718L254.5764375,139.9580863416195L254.79685,141.5863754376769L254.82356666666666,139.68916759639978L255.00390416666664,140.7505855411291L255.01726250000002,141.6950380280614L255.46476666666666,140.11802731454372L255.6183875,138.82695516943932L256.0859291666667,140.3307210355997L256.1527208333333,138.89481818675995L256.26626666666664,140.4210635125637L256.3130208333333,140.21349578350782L256.3330583333333,139.7743524312973L256.42656666666664,139.5966900587082L256.5000375,141.47657212615013L257.4084041666667,141.24114574491978L257.6555333333333,140.1975428313017L258.0228875,139.28131560981274L258.06964166666666,140.6830944120884L258.5037875,142.0983917489648L258.6707666666667,140.82734486460686L258.7308791666667,141.8647140339017L258.8110291666667,140.68725375831127L258.9379333333333,141.11225744336843L259.0514791666667,141.65885277092457L259.15166666666664,140.4564166367054L259.41215416666665,141.28932373970747L259.49230416666666,141.486206933856L259.65928333333335,140.03179538995028L259.85965833333336,140.3473399579525L259.9064125,141.10473000258207L260.2938041666667,140.96802281588316L260.367275,141.4590485394001L260.60104583333333,140.45440685749054L260.72795,139.567991361022L260.77470416666665,141.21714444458485L261.08194583333335,140.84363673627377L261.4292625,140.8478857576847L261.4493,139.70130935311317L261.6830708333333,140.71913592517376L262.13725416666665,139.84203346073627L262.30423333333334,139.35865122824907L262.531325,139.03757449239492L262.55136250000004,139.15580331534147L262.8986791666667,140.26720858365297L262.9053583333333,140.32639157027006L262.9587916666667,138.92563743889332L263.0456208333334,140.19713665544987L263.41297499999996,142.5475800409913L263.5933125,142.22702553123236L263.9940625,141.90415397286415L264.00074166666667,140.88511546701193L264.1744,142.08761885762215L264.25455,142.0380034223199L264.3547375,141.4186037108302L264.4883208333333,140.61563757061958L264.5484333333333,141.2892578020692L264.6085458333333,141.38081616908312L264.80892083333333,141.29804597049952L265.1362,139.76246387511492L265.5035541666667,139.9753685966134L265.7172875,140.8868403956294L265.8642291666667,139.26517275720835L266.35180833333334,140.26392357051373L266.8727833333333,140.1131439730525L267.36704166666664,140.9583181142807L267.69432083333334,142.18700797855854L267.93477083333335,140.74739811569452L268.3488791666667,141.18505787104368L268.68951666666663,141.13346826285124L268.863175,142.00388860702515L268.8832125,140.71519153565168L269.39082916666666,140.85394806414843L269.53109166666667,140.21534863114357L269.584525,140.04311292618513L269.6713541666667,141.5999994724989L269.6847125,142.0517566949129L269.7247875,140.11355278640985L270.15225416666664,139.65773380547762L270.37934583333333,141.9332918152213L270.39270416666665,141.05083521455526L270.39938333333333,139.50180711597204L270.97379166666667,140.4348642602563L270.99382916666667,140.83424589782953L271.1741666666667,141.2570802345872L272.31630416666667,139.8654822036624L272.3630583333333,139.94540257751942L272.6101875,140.8897508829832L272.8038833333333,140.73650258034468L272.83727916666663,139.66924387961626L273.11780416666664,141.5070498213172L273.53191250000003,141.81734047830105L273.6454583333333,141.52411052584648L273.6521375,142.52957115322351L274.0929625,141.94236615300179L274.1463958333333,141.44930955022573L274.2265458333333,142.76342426240444L274.473675,140.9140185713768L274.4803541666667,139.96138586103916L274.5003916666667,140.5005935356021L274.94121666666666,139.50503937900066L275.28853333333336,140.18147910386324L275.3887208333333,141.03621815890074L275.48890833333337,139.397857747972L275.595775,139.8608243688941L275.6826041666667,140.60432267189026L275.916375,140.53627107292414L276.04327916666665,139.7407163232565L276.09003333333334,140.06581789255142L277.64627916666666,139.6310290619731L277.82661666666667,141.14521043747663" style="fill: none;" fill="none"></path></g></g></g></g></g></g><g transform="translate(29, 177)" clip-path="url(#clip_1)"><clipPath id="clip_1"><rect width="300" height="23"></rect></clipPath><g><g><line x1="0" y1="0" x2="0" y2="5" style="visibility: inherit;" fill="rgb(0, 0, 0)" stroke="rgb(204, 204, 204)" stroke-width="1px"></line><line x1="33.39583333333333" y1="0" x2="33.39583333333333" y2="5" style="visibility: inherit;" fill="rgb(0, 0, 0)" stroke="rgb(204, 204, 204)" stroke-width="1px"></line><line x1="66.79166666666666" y1="0" x2="66.79166666666666" y2="5" style="visibility: inherit;" fill="rgb(0, 0, 0)" stroke="rgb(204, 204, 204)" stroke-width="1px"></line><line x1="100.1875" y1="0" x2="100.1875" y2="5" style="visibility: inherit;" fill="rgb(0, 0, 0)" stroke="rgb(204, 204, 204)" stroke-width="1px"></line><line x1="133.58333333333331" y1="0" x2="133.58333333333331" y2="5" style="visibility: inherit;" fill="rgb(0, 0, 0)" stroke="rgb(204, 204, 204)" stroke-width="1px"></line><line x1="166.97916666666669" y1="0" x2="166.97916666666669" y2="5" style="visibility: inherit;" fill="rgb(0, 0, 0)" stroke="rgb(204, 204, 204)" stroke-width="1px"></line><line x1="200.375" y1="0" x2="200.375" y2="5" style="visibility: inherit;" fill="rgb(0, 0, 0)" stroke="rgb(204, 204, 204)" stroke-width="1px"></line><line x1="233.77083333333334" y1="0" x2="233.77083333333334" y2="5" style="visibility: inherit;" fill="rgb(0, 0, 0)" stroke="rgb(204, 204, 204)" stroke-width="1px"></line><line x1="267.16666666666663" y1="0" x2="267.16666666666663" y2="5" style="visibility: inherit;" fill="rgb(0, 0, 0)" stroke="rgb(204, 204, 204)" stroke-width="1px"></line><line x1="300.5625" y1="0" x2="300.5625" y2="5" style="visibility: inherit;" fill="rgb(0, 0, 0)" stroke="rgb(204, 204, 204)" stroke-width="1px"></line></g><g transform="translate(0, 8)"><text x="0" y="0" dx="0em" dy="0.95em" style="text-anchor: middle; visibility: hidden; font-family: &quot;Helvetica Neue&quot;, sans-serif; font-size: 12px; font-weight: 200;" fill="rgb(50, 49, 63)" stroke="none" stroke-width="1px">-5k</text><text x="33.39583333333333" y="0" dx="0em" dy="0.95em" style="text-anchor: middle; visibility: inherit; font-family: &quot;Helvetica Neue&quot;, sans-serif; font-size: 12px; font-weight: 200;" fill="rgb(50, 49, 63)" stroke="none" stroke-width="1px">0</text><text x="66.79166666666666" y="0" dx="0em" dy="0.95em" style="text-anchor: middle; visibility: inherit; font-family: &quot;Helvetica Neue&quot;, sans-serif; font-size: 12px; font-weight: 200;" fill="rgb(50, 49, 63)" stroke="none" stroke-width="1px">5k</text><text x="100.1875" y="0" dx="0em" dy="0.95em" style="text-anchor: middle; visibility: inherit; font-family: &quot;Helvetica Neue&quot;, sans-serif; font-size: 12px; font-weight: 200;" fill="rgb(50, 49, 63)" stroke="none" stroke-width="1px">10k</text><text x="133.58333333333331" y="0" dx="0em" dy="0.95em" style="text-anchor: middle; visibility: inherit; font-family: &quot;Helvetica Neue&quot;, sans-serif; font-size: 12px; font-weight: 200;" fill="rgb(50, 49, 63)" stroke="none" stroke-width="1px">15k</text><text x="166.97916666666669" y="0" dx="0em" dy="0.95em" style="text-anchor: middle; visibility: inherit; font-family: &quot;Helvetica Neue&quot;, sans-serif; font-size: 12px; font-weight: 200;" fill="rgb(50, 49, 63)" stroke="none" stroke-width="1px">20k</text><text x="200.375" y="0" dx="0em" dy="0.95em" style="text-anchor: middle; visibility: inherit; font-family: &quot;Helvetica Neue&quot;, sans-serif; font-size: 12px; font-weight: 200;" fill="rgb(50, 49, 63)" stroke="none" stroke-width="1px">25k</text><text x="233.77083333333334" y="0" dx="0em" dy="0.95em" style="text-anchor: middle; visibility: inherit; font-family: &quot;Helvetica Neue&quot;, sans-serif; font-size: 12px; font-weight: 200;" fill="rgb(50, 49, 63)" stroke="none" stroke-width="1px">30k</text><text x="267.16666666666663" y="0" dx="0em" dy="0.95em" style="text-anchor: middle; visibility: inherit; font-family: &quot;Helvetica Neue&quot;, sans-serif; font-size: 12px; font-weight: 200;" fill="rgb(50, 49, 63)" stroke="none" stroke-width="1px">35k</text><text x="300.5625" y="0" dx="0em" dy="0.95em" style="text-anchor: middle; visibility: hidden; font-family: &quot;Helvetica Neue&quot;, sans-serif; font-size: 12px; font-weight: 200;" fill="rgb(50, 49, 63)" stroke="none" stroke-width="1px">40k</text></g><line x1="0" y1="0" x2="300.5625" y2="0" fill="rgb(0, 0, 0)" stroke="rgb(204, 204, 204)" stroke-width="1px"></line></g></g></g></g></svg>