<svg viewBox="0 0 888 400" xmlns="http://www.w3.org/2000/svg"><g><g><g><g><g><line x1="48.875" y1="351.8666666666668" x2="43.875" y2="351.8666666666668" style="visibility: inherit;" fill="rgb(0, 0, 0)" stroke="rgb(204, 204, 204)" stroke-width="1px"></line><line x1="48.875" y1="326.7333333333334" x2="43.875" y2="326.7333333333334" style="visibility: inherit;" fill="rgb(0, 0, 0)" stroke="rgb(204, 204, 204)" stroke-width="1px"></line><line x1="48.875" y1="301.6000000000001" x2="43.875" y2="301.6000000000001" style="visibility: inherit;" fill="rgb(0, 0, 0)" stroke="rgb(204, 204, 204)" stroke-width="1px"></line><line x1="48.875" y1="276.4666666666667" x2="43.875" y2="276.4666666666667" style="visibility: inherit;" fill="rgb(0, 0, 0)" stroke="rgb(204, 204, 204)" stroke-width="1px"></line><line x1="48.875" y1="251.33333333333334" x2="43.875" y2="251.33333333333334" style="visibility: inherit;" fill="rgb(0, 0, 0)" stroke="rgb(204, 204, 204)" stroke-width="1px"></line><line x1="48.875" y1="226.19999999999996" x2="43.875" y2="226.19999999999996" style="visibility: inherit;" fill="rgb(0, 0, 0)" stroke="rgb(204, 204, 204)" stroke-width="1px"></line><line x1="48.875" y1="201.06666666666675" x2="43.875" y2="201.06666666666675" style="visibility: inherit;" fill="rgb(0, 0, 0)" stroke="rgb(204, 204, 204)" stroke-width="1px"></line><line x1="48.875" y1="175.93333333333337" x2="43.875" y2="175.93333333333337" style="visibility: inherit;" fill="rgb(0, 0, 0)" stroke="rgb(204, 204, 204)" stroke-width="1px"></line><line x1="48.875" y1="150.8" x2="43.875" y2="150.8" style="visibility: inherit;" fill="rgb(0, 0, 0)" stroke="rgb(204, 204, 204)" stroke-width="1px"></line><line x1="48.875" y1="125.66666666666669" x2="43.875" y2="125.66666666666669" style="visibility: inherit;" fill="rgb(0, 0, 0)" stroke="rgb(204, 204, 204)" stroke-width="1px"></line><line x1="48.875" y1="100.5333333333333" x2="43.875" y2="100.5333333333333" style="visibility: inherit;" fill="rgb(0, 0, 0)" stroke="rgb(204, 204, 204)" stroke-width="1px"></line><line x1="48.875" y1="75.39999999999992" x2="43.875" y2="75.39999999999992" style="visibility: inherit;" fill="rgb(0, 0, 0)" stroke="rgb(204, 204, 204)" stroke-width="1px"></line><line x1="48.875" y1="50.266666666666765" x2="43.875" y2="50.266666666666765" style="visibility: inherit;" fill="rgb(0, 0, 0)" stroke="rgb(204, 204, 204)" stroke-width="1px"></line><line x1="48.875" y1="25.133333333333383" x2="43.875" y2="25.133333333333383" style="visibility: inherit;" fill="rgb(0, 0, 0)" stroke="rgb(204, 204, 204)" stroke-width="1px"></line><line x1="48.875" y1="0" x2="43.875" y2="0" style="visibility: inherit;" fill="rgb(0, 0, 0)" stroke="rgb(204, 204, 204)" stroke-width="1px"></line></g><g transform="translate(38.875, 0)"><text x="0" y="351.8666666666668" dx="0em" dy="0.3em" style="text-anchor: end; visibility: inherit; font-family: &quot;Helvetica Neue&quot;, sans-serif; font-size: 12px; font-weight: 200;" fill="rgb(50, 49, 63)" stroke="none" stroke-width="1px">0.58</text><text x="0" y="326.7333333333334" dx="0em" dy="0.3em" style="text-anchor: end; visibility: inherit; font-family: &quot;Helvetica Neue&quot;, sans-serif; font-size: 12px; font-weight: 200;" fill="rgb(50, 49, 63)" stroke="none" stroke-width="1px">0.6</text><text x="0" y="301.6000000000001" dx="0em" dy="0.3em" style="text-anchor: end; visibility: inherit; font-family: &quot;Helvetica Neue&quot;, sans-serif; font-size: 12px; font-weight: 200;" fill="rgb(50, 49, 63)" stroke="none" stroke-width="1px">0.62</text><text x="0" y="276.4666666666667" dx="0em" dy="0.3em" style="text-anchor: end; visibility: inherit; font-family: &quot;Helvetica Neue&quot;, sans-serif; font-size: 12px; font-weight: 200;" fill="rgb(50, 49, 63)" stroke="none" stroke-width="1px">0.64</text><text x="0" y="251.33333333333334" dx="0em" dy="0.3em" style="text-anchor: end; visibility: inherit; font-family: &quot;Helvetica Neue&quot;, sans-serif; font-size: 12px; font-weight: 200;" fill="rgb(50, 49, 63)" stroke="none" stroke-width="1px">0.66</text><text x="0" y="226.19999999999996" dx="0em" dy="0.3em" style="text-anchor: end; visibility: inherit; font-family: &quot;Helvetica Neue&quot;, sans-serif; font-size: 12px; font-weight: 200;" fill="rgb(50, 49, 63)" stroke="none" stroke-width="1px">0.68</text><text x="0" y="201.06666666666675" dx="0em" dy="0.3em" style="text-anchor: end; visibility: inherit; font-family: &quot;Helvetica Neue&quot;, sans-serif; font-size: 12px; font-weight: 200;" fill="rgb(50, 49, 63)" stroke="none" stroke-width="1px">0.7</text><text x="0" y="175.93333333333337" dx="0em" dy="0.3em" style="text-anchor: end; visibility: inherit; font-family: &quot;Helvetica Neue&quot;, sans-serif; font-size: 12px; font-weight: 200;" fill="rgb(50, 49, 63)" stroke="none" stroke-width="1px">0.72</text><text x="0" y="150.8" dx="0em" dy="0.3em" style="text-anchor: end; visibility: inherit; font-family: &quot;Helvetica Neue&quot;, sans-serif; font-size: 12px; font-weight: 200;" fill="rgb(50, 49, 63)" stroke="none" stroke-width="1px">0.74</text><text x="0" y="125.66666666666669" dx="0em" dy="0.3em" style="text-anchor: end; visibility: inherit; font-family: &quot;Helvetica Neue&quot;, sans-serif; font-size: 12px; font-weight: 200;" fill="rgb(50, 49, 63)" stroke="none" stroke-width="1px">0.76</text><text x="0" y="100.5333333333333" dx="0em" dy="0.3em" style="text-anchor: end; visibility: inherit; font-family: &quot;Helvetica Neue&quot;, sans-serif; font-size: 12px; font-weight: 200;" fill="rgb(50, 49, 63)" stroke="none" stroke-width="1px">0.78</text><text x="0" y="75.39999999999992" dx="0em" dy="0.3em" style="text-anchor: end; visibility: inherit; font-family: &quot;Helvetica Neue&quot;, sans-serif; font-size: 12px; font-weight: 200;" fill="rgb(50, 49, 63)" stroke="none" stroke-width="1px">0.8</text><text x="0" y="50.266666666666765" dx="0em" dy="0.3em" style="text-anchor: end; visibility: inherit; font-family: &quot;Helvetica Neue&quot;, sans-serif; font-size: 12px; font-weight: 200;" fill="rgb(50, 49, 63)" stroke="none" stroke-width="1px">0.82</text><text x="0" y="25.133333333333383" dx="0em" dy="0.3em" style="text-anchor: end; visibility: inherit; font-family: &quot;Helvetica Neue&quot;, sans-serif; font-size: 12px; font-weight: 200;" fill="rgb(50, 49, 63)" stroke="none" stroke-width="1px">0.84</text><text x="0" y="0" dx="0em" dy="0.3em" style="text-anchor: end; visibility: hidden; font-family: &quot;Helvetica Neue&quot;, sans-serif; font-size: 12px; font-weight: 200;" fill="rgb(50, 49, 63)" stroke="none" stroke-width="1px">0.86</text></g><line x1="48.875" y1="0" x2="48.875" y2="377" fill="rgb(0, 0, 0)" stroke="rgb(204, 204, 204)" stroke-width="1px"></line></g></g><g transform="translate(48, 0)" clip-path="url(#clip_0)"><clipPath id="clip_0"><rect width="839" height="377"></rect></clipPath><g><g><g><line x1="0" y1="0" x2="0" y2="377" fill="rgb(0, 0, 0)" stroke="rgb(60, 60, 60)" stroke-width="1px" opacity="0.25"></line><line x1="93.2361111111111" y1="0" x2="93.2361111111111" y2="377" fill="rgb(0, 0, 0)" stroke="rgb(60, 60, 60)" stroke-width="1px" opacity="0.25"></line><line x1="186.4722222222222" y1="0" x2="186.4722222222222" y2="377" fill="rgb(0, 0, 0)" stroke="rgb(60, 60, 60)" stroke-width="1px" opacity="0.25"></line><line x1="279.7083333333333" y1="0" x2="279.7083333333333" y2="377" fill="rgb(0, 0, 0)" stroke="rgb(60, 60, 60)" stroke-width="1px" opacity="0.25"></line><line x1="372.9444444444444" y1="0" x2="372.9444444444444" y2="377" fill="rgb(0, 0, 0)" stroke="rgb(60, 60, 60)" stroke-width="1px" opacity="0.25"></line><line x1="466.1805555555556" y1="0" x2="466.1805555555556" y2="377" fill="rgb(0, 0, 0)" stroke="rgb(60, 60, 60)" stroke-width="1px" opacity="0.25"></line><line x1="559.4166666666666" y1="0" x2="559.4166666666666" y2="377" fill="rgb(0, 0, 0)" stroke="rgb(60, 60, 60)" stroke-width="1px" opacity="0.25"></line><line x1="652.6527777777778" y1="0" x2="652.6527777777778" y2="377" fill="rgb(0, 0, 0)" stroke="rgb(60, 60, 60)" stroke-width="1px" opacity="0.25"></line><line x1="745.8888888888888" y1="0" x2="745.8888888888888" y2="377" fill="rgb(0, 0, 0)" stroke="rgb(60, 60, 60)" stroke-width="1px" opacity="0.25"></line><line x1="839.125" y1="0" x2="839.125" y2="377" fill="rgb(0, 0, 0)" stroke="rgb(60, 60, 60)" stroke-width="1px" opacity="0.25"></line></g><g><line x1="0" y1="351.8666666666668" x2="839.125" y2="351.8666666666668" fill="rgb(0, 0, 0)" stroke="rgb(60, 60, 60)" stroke-width="1px" opacity="0.25"></line><line x1="0" y1="326.7333333333334" x2="839.125" y2="326.7333333333334" fill="rgb(0, 0, 0)" stroke="rgb(60, 60, 60)" stroke-width="1px" opacity="0.25"></line><line x1="0" y1="301.6000000000001" x2="839.125" y2="301.6000000000001" fill="rgb(0, 0, 0)" stroke="rgb(60, 60, 60)" stroke-width="1px" opacity="0.25"></line><line x1="0" y1="276.4666666666667" x2="839.125" y2="276.4666666666667" fill="rgb(0, 0, 0)" stroke="rgb(60, 60, 60)" stroke-width="1px" opacity="0.25"></line><line x1="0" y1="251.33333333333334" x2="839.125" y2="251.33333333333334" fill="rgb(0, 0, 0)" stroke="rgb(60, 60, 60)" stroke-width="1px" opacity="0.25"></line><line x1="0" y1="226.19999999999996" x2="839.125" y2="226.19999999999996" fill="rgb(0, 0, 0)" stroke="rgb(60, 60, 60)" stroke-width="1px" opacity="0.25"></line><line x1="0" y1="201.06666666666675" x2="839.125" y2="201.06666666666675" fill="rgb(0, 0, 0)" stroke="rgb(60, 60, 60)" stroke-width="1px" opacity="0.25"></line><line x1="0" y1="175.93333333333337" x2="839.125" y2="175.93333333333337" fill="rgb(0, 0, 0)" stroke="rgb(60, 60, 60)" stroke-width="1px" opacity="0.25"></line><line x1="0" y1="150.8" x2="839.125" y2="150.8" fill="rgb(0, 0, 0)" stroke="rgb(60, 60, 60)" stroke-width="1px" opacity="0.25"></line><line x1="0" y1="125.66666666666669" x2="839.125" y2="125.66666666666669" fill="rgb(0, 0, 0)" stroke="rgb(60, 60, 60)" stroke-width="1px" opacity="0.25"></line><line x1="0" y1="100.5333333333333" x2="839.125" y2="100.5333333333333" fill="rgb(0, 0, 0)" stroke="rgb(60, 60, 60)" stroke-width="1px" opacity="0.25"></line><line x1="0" y1="75.39999999999992" x2="839.125" y2="75.39999999999992" fill="rgb(0, 0, 0)" stroke="rgb(60, 60, 60)" stroke-width="1px" opacity="0.25"></line><line x1="0" y1="50.266666666666765" x2="839.125" y2="50.266666666666765" fill="rgb(0, 0, 0)" stroke="rgb(60, 60, 60)" stroke-width="1px" opacity="0.25"></line><line x1="0" y1="25.133333333333383" x2="839.125" y2="25.133333333333383" fill="rgb(0, 0, 0)" stroke="rgb(60, 60, 60)" stroke-width="1px" opacity="0.25"></line><line x1="0" y1="0" x2="839.125" y2="0" fill="rgb(0, 0, 0)" stroke="rgb(60, 60, 60)" stroke-width="1px" opacity="0.25"></line></g></g></g><g><g><line x1="0" y1="1080.7333333333336" x2="839.125" y2="1080.7333333333336" fill="rgb(0, 0, 0)" stroke="rgb(153, 153, 153)" stroke-width="1.5px"></line></g></g><g><g><line x1="93.2361111111111" y1="0" x2="93.2361111111111" y2="377" fill="rgb(0, 0, 0)" stroke="rgb(153, 153, 153)" stroke-width="1.5px"></line></g></g><g><g><g><g><g><path stroke="rgb(255, 112, 67)" stroke-width="2px" d="M120.01352222222222,-45.962818556223795L120.5729388888889,0.12428044649033154L121.63583055555556,36.827479403886116L122.17660000000001,71.31790034450012L122.47495555555555,131.75023221844228L122.77331111111111,134.97328848135035L123.81755555555556,114.61683760511204L124.76856388888889,134.1356352411934L125.10421388888888,131.92945536790572L125.27203888888889,76.03219642474858L125.57039444444445,62.588833617154705L125.6263361111111,67.40807873983744L126.4468138888889,20.180686175274275L127.62158888888888,44.91859972206527L128.03182777777778,67.37645355857592L128.08776944444443,66.93550508179555L128.23694722222223,73.08717152213075L128.9828361111111,97.09397849044336L129.2998388888889,117.96888762832424L129.54225277777778,119.98827398451613L131.20185555555554,98.18902270535091L132.32068888888887,61.079096775091216L134.01758611111111,65.99271530916491L134.24135277777776,119.27183200087273L134.83806388888888,171.62351069509677L134.94994722222222,183.5040555671435L135.32289166666666,220.62723717901605L135.41612777777777,191.91698500760504L136.2552527777778,168.5309168270118L136.47901944444445,187.0110568959049L137.13167222222222,173.78733958315044L137.78432500000002,168.08438475396943L137.80297222222222,157.06002995808944L138.66074444444445,164.05697098795596L138.97774722222223,155.11088759714775L139.01504166666666,140.04213848480234L139.10827777777777,147.31776566725162L139.57445833333333,142.92285667869163L139.59310555555555,109.13221466906487L139.81687222222223,134.3768755314805L139.91010833333334,158.56121892202248L140.45087777777778,154.26615564863883L140.7305861111111,131.3530567632576L140.84246944444445,129.01166192927727L143.30390277777778,121.56819136443988L144.3295,121.93195532820587L145.24321388888887,103.51049986280185L147.23846666666665,80.24790048835985L148.56241944444446,153.0356424282291L149.38289722222223,220.52315135341678L149.8863722222222,196.892610628258L149.9423138888889,172.6449032077298L151.02385277777776,187.79841185465085L152.17998055555555,187.3131280409573L152.83263333333335,166.519162374374L153.46663888888887,173.24954377828251L153.7277,194.7561506876441L153.76499444444443,162.96790988102114L153.78364166666665,171.26880835168296L154.86518055555555,173.75932636423548L158.12844444444445,164.8930606216011L160.3661111111111,148.31412627278672L160.7017611111111,171.31852786289997L160.73905555555555,164.99519630758383L161.6714166666667,195.6226796195214L162.7156611111111,202.31427504491643L162.99536944444444,197.58554554465516L163.965025,227.58564796099932L164.35661666666667,240.84922241955925L164.4871472222222,236.83127896819465L166.48239999999998,214.8761185632186L167.00452222222222,237.32777905380948L167.52664444444446,223.4439577987763L168.49630000000002,191.95309545741307L169.65242777777777,166.70912619280315L171.47985555555556,184.92893109389647L172.05791944444445,173.3525312141687L172.15115555555556,160.92440840936365L173.49375555555557,182.2224722957809L173.73616944444444,188.90254469809133L173.77346388888887,168.61943009911286L175.2838888888889,238.7756657422679L176.99943333333334,256.5167386043726L177.3164361111111,244.28352725915062L177.70802777777777,213.20558734344615L179.53545555555556,218.51034049912593L180.20675555555556,230.21043188367872L180.28134444444444,216.57222231583552L180.43052222222224,253.7683935599929L181.81041666666667,210.53977014605638L182.5190111111111,193.41063965708673L182.78007222222223,214.4475402610541L183.4886666666667,201.34760237954302L183.71243333333334,211.46467016630714L184.49561666666665,196.81028223093355L185.76362777777777,187.5844994166852L185.9314527777778,188.6472200357533L185.98739444444445,186.71522424798903L187.40458333333333,193.7211015211445L187.4418777777778,211.43065820615897L188.44882777777778,192.3081786875808L188.97095000000002,256.3983573995959L190.92890833333334,239.78419314878772L192.60715833333333,259.5120451727962L192.9055138888889,249.36275839246053L193.166575,219.27807557406084L194.30405555555555,243.2542961920622L196.1128361111111,222.44389773082673L196.70954722222223,219.50391789836846L198.85397777777777,207.23505998152393L199.1336861111111,184.903717466779L199.95416388888887,166.82598056271914L201.53917777777778,197.17620191261324L201.85618055555554,223.60468060305806L201.91212222222222,211.41700218596714L202.58342222222223,244.738556051723L202.7139527777778,274.8760441782903L203.38525277777777,268.23126279529913L203.77684444444444,248.7665826289871L204.93297222222222,274.0804728807421L205.30591666666666,280.4746355395364L207.37575833333335,264.1038157825179L207.56223055555554,260.3371253993813L208.8488888888889,228.61397910595164L209.09130277777777,214.02122014014063L209.2031861111111,206.41032489248988L209.44559999999998,215.84696538672173L210.50849166666669,199.98162874197152L210.93737777777775,225.28032653857377L211.03061388888887,214.17362586813647L212.13080000000002,223.29383069132257L212.57833333333335,198.8782403913408L214.36846666666668,175.98111836556225L214.816,200.0945030969995L215.82295,189.04862658277864L216.36371944444443,229.383560794765L217.37066944444447,233.4170224949762L218.0979111111111,258.00298496355873L218.15385277777776,260.6283384037232L218.37761944444443,253.28213346991242L218.95568333333335,263.71066121216603L220.89499444444445,280.82589122587046L221.04417222222222,259.3375831039762L221.32388055555558,235.69898942422967L223.1326611111111,203.5247209047005L223.6174888888889,225.52269667792672L224.02772777777776,220.9655657848221L225.74327222222223,242.15844584309087L225.89245,225.79430635613022L226.65698611111114,200.77772972648438L227.7944666666667,213.52647919216815L228.37253055555553,206.83021377936444L229.56595277777777,184.704103777898L230.088075,248.37307896977222L230.1067222222222,282.2681909424001L230.46101944444447,283.3798614133557L230.88990555555554,334.83349019383354L231.24420277777776,313.38508395966875L232.15791666666667,297.21197149485545L232.34438888888891,303.42568684576077L232.40033055555557,300.45328817302845L232.68003888888887,296.8210889208408L233.29539722222222,308.1593647401388L236.57730833333332,273.50756014352186L236.6891916666667,285.53497186441314L237.93855555555555,288.5069858118241L238.46067777777776,267.04606261517677L238.64714999999998,259.42007112661645L239.29980277777776,222.80542414442482L240.54916666666668,214.89946648273335L241.1458777777778,223.4918920103319L242.2460638888889,231.2279113489553L242.89871666666664,216.08567816326004L243.32760277777777,181.04159595117355L243.64460555555553,229.62260283119716L245.77038888888887,255.01565188579107L246.42304166666668,237.32878154920945L246.53492500000002,249.22757875923762L247.82158333333334,278.69881784282796L248.64206111111113,266.6853904860974L249.18283055555554,232.92311156776117L249.27606666666665,211.15323948017695L249.44389166666667,221.11172700376483L251.1221416666667,232.23701169918684L251.17808333333335,230.1463244225425L251.70020555555553,226.2962175940976L251.88667777777778,255.01125635080575L252.96821666666665,239.84924253805306L253.62086944444442,211.87161157876545L254.2362277777778,237.68719981481811L254.254875,220.55592249216744L255.37370833333335,229.4879017510937L257.6859638888889,240.59228231105774L257.74190555555555,279.79931944525384L258.78615,293.4620599797336L259.2709777777778,282.9965008225621L259.32691944444446,274.05582572737825L259.7185111111111,271.78021768323265L259.84904166666666,269.54528697247315L260.93058055555554,258.2507458618184L261.0424638888889,254.2614378125013L262.0867083333334,236.96631667716554L265.2753833333333,205.3603672462895L265.4059138888889,216.32139310269716L265.9093888888889,207.20195940313232L266.9536333333333,190.49539290732648L267.5503444444444,211.53544558962096L268.74376666666666,207.947494948784L268.79970833333334,217.85320617807668L269.1726527777778,232.19486624987584L269.78801111111113,226.89193152144546L271.2611416666667,262.0672752242585L271.3916722222222,286.2899513924897L271.6340861111111,286.6335110214221L272.044325,280.47452519576956L272.75291944444444,268.9289518823696L273.3123361111111,282.53948791765004L273.74122222222223,253.84440146412155L274.0768722222222,255.9505398837271L275.38217777777777,265.1966837521917L276.78071944444446,248.73143689850122L277.97414166666664,238.44382681818303L279.1862111111111,213.47643744133822L280.7898722222222,219.0341534899648L281.2747,222.01371213080344L282.8410666666667,228.3284151586803L284.8549666666667,251.52066354311978L284.9854972222222,253.80372999881195L287.09263333333337,268.49369052474395L287.148575,269.1329745274268L287.54016666666666,258.6966321775207L288.64035277777776,279.8047747573588L288.826825,276.9397762847742L288.9014138888889,278.9731264189562L289.44218333333333,287.2492847900995L290.0575416666667,277.205702786927L291.0271972222222,261.00254972454985L291.3442,262.82149867183216L291.60526111111113,240.22252330918855L291.90361666666666,215.61039632562648L292.2206194444445,238.5278039352329L292.96650833333337,212.45951345778897L293.82428055555556,193.7641976166808L293.84292777777773,201.7999691912955L294.2531666666667,176.06018963512335L294.90581944444443,160.35673747454018L295.09229166666665,194.8057825779554L295.39064722222224,208.9304103121541L295.55847222222224,198.3158143972585L295.8195333333333,205.67656826825316L296.5281277777778,236.3649180657747L296.5840694444444,229.19433068158722L297.218075,200.65753689123693L297.29266388888885,189.88506228315927L297.72155,189.00524932655557L297.83343333333335,212.54815446603027L297.8707277777778,206.23830529571222L298.6166166666667,258.7355667320131L298.7285,288.77621801657915L298.9709138888889,318.68678314822967L299.06415,316.7730859335545L300.2575722222222,306.1913226510853L300.61186944444444,282.59548015350725L300.77969444444443,268.85117050342535L301.61881944444445,310.9658810492324L302.0477055555555,295.68632557129666L302.085,301.21252696356663L302.10364722222226,285.942224547713L303.20383333333336,249.1375674137169L306.1687416666667,205.0590676877117L307.15704444444447,199.09411991674992L307.52998888888885,191.32902279678558L308.10805277777774,199.99463929007598L308.2758777777778,197.67055499674967L308.59288055555555,211.03172935081773L308.9098833333333,198.46618130187156L309.4879472222222,213.70466686077899L310.43895555555554,213.41049804521396L310.86784166666666,212.3346493711042L311.12890277777774,211.88170123676278L312.5087972222222,262.5080147714207L314.63458055555554,281.71112617000665L316.42471388888885,283.5319838151022L316.51795,251.30226512261345L317.18925,240.52227091655016L317.7673138888889,250.8136490114424L319.57609444444444,247.9739392491913L320.06092222222225,208.63402676896666L320.13551111111116,191.74179283330696L320.4338666666667,208.9622887044144L321.21705,205.79937192374416L322.41047222222227,228.7368166019953L322.4664138888889,222.52988848668957L322.7647694444444,212.92529344866256L324.5549027777778,204.72524718787025L325.5432055555556,277.5534218347814L327.31469166666665,283.0506985082277L329.51506388888885,286.23239533428637L330.0371861111111,263.00801418179844L331.1373722222222,280.94980781607563L332.0137916666667,258.61640146731986L333.35639166666664,246.8399887380578L333.71068888888885,241.7111670448926L334.5125194444445,218.67283830053887L334.88546388888886,189.74061323766279L335.9670027777778,195.34053802786892L336.28400555555555,210.2347721689858L336.7874805555556,232.508900725479L337.17907222222226,228.46399352926122L337.4028388888889,238.96536636101067L337.68254722222224,249.584717361213L337.7571361111111,237.4687873983867L338.0741388888889,205.82202261832276L338.7454388888889,226.3514981652116L339.49132777777777,241.46166356473063L340.1066861111111,268.7982040186856L342.15788055555555,282.25044144591493L343.14618333333334,278.3793422798364L343.22077222222225,274.4712523170342L343.59371666666664,238.96191113639063L344.5074305555556,228.52295875776719L345.0482,224.48040640649546L345.83138333333335,230.81575951912416L346.7823916666667,246.00926420413504L347.2112777777778,240.9872438207649L348.3114638888889,242.95347450506986L348.36740555555554,224.73308208743123L349.579475,224.76658088024092L350.12024444444444,195.17101527644576L350.75425,222.0650136967105L351.4069027777778,214.21807677703703L351.8357888888889,199.25222506974706L352.1341444444444,228.76018006277826L353.49539166666665,259.5345375872021L353.84968888888886,269.2656222162465L354.25992777777776,284.26642878082316L355.789,295.137364726227L358.4182583333333,281.88689752238696L359.648975,270.1508312071426L359.77950555555555,248.1618443333147L359.94733055555554,232.85857970891627L360.26433333333335,232.671413077781L360.4881,199.26663135878417L360.59998333333334,195.550855769667L361.70016944444444,217.62141699192105L362.63253055555555,216.10084820705956L363.50894999999997,204.43414943924526L364.18025,204.28357568052002L364.62778333333335,213.3291711028412L364.683725,207.01761362806923L366.08226666666667,194.28774995479566L366.19415000000004,210.22973924760183L366.75356666666664,249.81198881159716L366.9213916666667,257.3101669610967L366.99598055555555,280.95696076282434L367.10786388888886,289.9333343791678L368.8234083333333,279.42701283580345L368.84205555555553,289.7626595720825L368.9912333333333,265.31960267137555L369.0658222222222,269.11653112517445L369.38282499999997,267.39126355298356L370.57624722222226,256.40497714945474L370.9305444444445,240.38855885030108L371.56455,251.23997693157958L373.44791944444444,232.18415863412685L374.62269444444445,195.80350765008558L375.4804666666667,187.07685002894507L376.30094444444444,191.1861045528132L376.6552416666667,189.00721129151262L377.9046055555556,208.1742973922019L378.98614444444445,215.04436464061303L379.4150305555555,211.5963909897206L380.9254555555556,254.0209887762665L381.76458055555554,281.51194519002047L381.801875,295.07325096805187L382.3985861111111,293.4343917219597L382.97664999999995,312.86935081534136L384.0768361111111,279.0360282106354L386.7433888888889,266.78725657481874L387.19092222222224,273.48437538476145L387.35874722222223,262.9907566567145L387.47063055555554,238.4123394660085L388.3284027777778,207.84343257339373L388.3843444444444,222.59323045646101L388.73864166666664,210.1103866813677L391.200075,191.96831107605092L391.4611361111111,205.20772898635425L393.36315277777777,184.071961629636L393.75474444444444,233.69624657884052L395.09734444444445,278.03427090478823L396.234825,279.5282844533496L397.577425,287.2578391545995L397.98766388888885,296.6698401256789L398.30466666666666,261.0898564126724L399.16243888888886,261.87811993916637L399.79644444444443,259.6464743830352L401.00851388888884,269.8844012008661L402.0154638888889,269.57727526107755L402.50029166666667,240.8711607937773L402.5935277777778,250.2754792597746L403.9174805555555,222.80481690487403L404.58878055555556,225.07128223531137L405.50249444444444,242.301735033707L406.6586222222222,201.9238191561596L406.67726944444445,197.86744473835023L407.311275,248.67659119006115L407.5723361111111,270.3781243612534L408.35551944444444,292.93583574753006L411.4696055555556,286.6142313666801L412.04766944444447,294.7222439655261L412.681675,251.7358503084538L413.81915555555554,264.01226206826124L414.0056277777778,248.83027742986067L414.69557499999996,278.5607773320924L414.8447527777778,259.7899131149282L415.3109333333333,256.2714535910027L415.64658333333335,267.15197322436995L415.68387777777775,256.2852820829679L416.1127638888889,240.8556251785832L416.1314111111111,214.36998202929965L416.15005833333333,194.63153935351022L416.206,221.5102368820392L416.56029722222223,235.3824505163441L417.21295,215.66640609382844L417.79101388888887,208.65266379204948L418.18260555555554,188.21538819921562L418.5182555555556,184.28815774710506L418.7047277777778,204.10522520258942L420.36433055555557,203.96041377374482L420.62539166666664,197.4474041715598L420.9983361111111,254.1062120049399L421.1661611111111,298.6418408637764L421.2966916666667,321.7166621990317L421.3153388888889,333.5732054035254L421.85610833333334,332.5990570394429L422.0425805555556,332.6739855707625L422.41552499999995,331.90621333088114L423.7021833333333,305.21727611839157L424.61589722222226,303.5600351720217L425.23125555555555,306.7600883715847L425.93985000000004,291.2650433202684L428.00969166666664,267.9879088230988L428.4758722222222,267.3476211858627L428.53181388888885,198.9951434131167L428.69963888888884,204.6639116856873L429.2217611111111,216.052367346292L429.8744138888889,204.78374139039036L430.09818055555553,224.89884199203044L430.82542222222224,237.4205571915765L431.29160277777777,236.88527062730358L431.6086055555556,227.00744288442348L432.8766166666667,240.44396478460908L433.2868555555556,236.13807617898803L433.8089777777778,254.33298206056776L434.81592777777774,292.1469649234949L437.29600833333336,286.3409302981421L437.3146555555556,269.66539313664384L439.08614166666666,268.2172786625446L439.9252666666667,246.0532888646257L442.1815805555555,225.72924726617327L442.3121111111111,243.86584242390794L444.64301388888885,230.9059406547181L445.5380805555555,222.45152667691897L446.75014999999996,244.89144191621108L447.1044472222222,222.06486498760196L447.1976833333334,227.65951126245864L447.6265694444445,231.95621396916036L448.03680833333334,260.09925686965545L448.4284,309.7608523204932L449.6964111111111,321.33425776134L450.68471388888884,315.0695164456172L451.76625277777777,300.82521654054733L452.58673055555556,291.1673132408771L452.6613194444444,293.33837361270866L453.12750000000005,305.40207865676103L456.5772361111111,254.97558671101416L456.8569444444444,251.06613265354122L456.91288611111105,260.2309502391737L457.32312500000006,239.06467171045477L457.43500833333337,258.67450693328584L458.330075,245.447377359943L458.6097833333333,203.73198695902605L459.4675555555556,207.39324360007794L459.7286166666666,236.32524607091L459.9337361111111,231.65120063886357L460.1015611111111,227.39892505962837L460.95933333333335,226.35113599077374L461.1644527777778,216.0392503486604L461.27633611111116,225.0226175729353L462.3765222222222,267.0559878729136L462.87999722222224,295.6697828139276L463.30888333333337,291.98681485208334L464.6141888888889,290.5132723161725L465.02442777777776,292.0279058418164L465.6397861111111,289.7720270133907L465.9567888888889,273.51175014993913L466.0873194444444,297.89602958215096L466.83320833333335,307.35402399293275L467.07562222222225,294.55026845688633L467.16885833333333,300.15703599148003L467.28074166666664,271.8515867040137L467.33668333333327,283.3509966575452L468.75387222222224,260.4879877688496L468.77251944444447,270.80097705614617L468.8098138888889,279.33030365362987L469.59299722222227,278.109593344064L469.6489388888889,288.5980215996492L470.2270027777778,248.08121117095072L470.7304777777778,228.2326573475594L470.78641944444445,236.79051671650382L470.87965555555553,219.65013806716428L471.9239,199.99723206934826L472.2036083333333,209.13948641962307L472.3714333333333,204.86139055299668L472.4087277777778,241.48920482282583L473.3224416666667,223.06983466635992L474.38533333333334,208.8644295689912L475.22445833333336,217.50288103724233L475.9889944444444,272.269483695257L476.2314083333333,269.31955788085554L476.2500555555556,289.32002906292496L476.66029444444445,319.45296111438563L476.7535305555555,316.35759411057177L476.95865000000003,292.32942500551746L479.02849166666664,276.53562350535526L479.42008333333337,288.4378459278592L480.68809444444446,293.0243820498695L480.70674166666663,299.58776652278357L480.7626833333333,246.66257611748688L480.78133055555554,249.22303103667753L481.6763972222222,277.7047307701643L482.1239305555556,291.25945950180704L482.73928888888884,275.11390220064186L483.2054694444445,239.99625240487816L484.58536388888893,217.58714287473538L485.33125277777776,219.3270665164418L485.4804305555556,211.73348671887072L486.0771416666667,223.01618345753602L486.3195555555556,224.34141962792228L487.5129777777778,203.44888768195557L488.7250472222222,207.12624960263236L489.1539333333333,251.65622373453573L490.7203,273.39197890141685L490.77624166666664,270.1445691373691L490.86947777777783,278.6123079427129L492.1188416666667,288.64659748840614L492.4544916666666,293.2775376397467L493.85303333333337,273.0263130774953L494.58027500000003,267.8219785057023L494.5989222222222,256.79853144024895L497.52653611111117,254.0074311276381L498.3097194444444,248.6613770687642L498.3283666666667,258.68281299217915L499.54043611111115,294.9886738138062L499.65231944444446,258.5657156846919L500.0252638888889,238.44918501587688L500.1371472222222,234.58529841390435L500.5287388888889,230.21153357676974L500.64062222222225,249.17913218728097L501.7594555555556,168.45749481911284L502.8596416666666,215.78905450102582L503.4563527777778,264.9191205127849L503.5868833333333,310.39384069743636L507.5773888888889,290.9755274631752L508.0435694444445,269.10711791146826L508.2859833333333,280.43392765300894L508.7894583333333,268.1660780591414L508.91998888888884,279.6062138463644L509.12510833333334,300.7202938881867L509.2183444444444,270.79529383067415L509.36752222222225,309.3812215241838L509.62858333333327,283.0850308302869L510.1507055555556,267.650912236601L511.43736388888885,257.22162205026336L511.49330555555554,266.9384073713171L512.2764888888888,223.58876475843272L512.9291416666666,222.05514806162816L513.6190888888889,234.83476788551513L515.3159861111111,206.22579589099223L515.6143416666667,213.37203428076026L517.6095944444444,244.32428724682137L517.740125,276.23337690462154L517.9638916666667,280.98681571898555L518.9149,284.76641994566353L519.1200194444444,293.1858600106873L519.1386666666667,283.97799779695504L520.8169166666667,307.1981510519319L520.8728583333334,281.51395625030995L523.614,293.9237351800364L523.688588888889,285.62789235186744L523.7072361111111,275.9545870658089L524.0242388888888,255.86995494741177L524.3039472222222,253.2798655389426L524.4904194444445,242.9609425218112L524.6955388888889,233.67791541682922L524.788775,248.8300312471424L524.8820111111112,237.66152121257983L524.9566000000001,245.76077229519007L525.0684833333333,261.1564725260296L525.5160166666666,241.0758330611602L525.7024888888889,223.62348526010211L526.1873166666667,256.50893777344214L527.0264416666666,221.83129543066184L527.4553277777778,231.3776318287859L528.4063361111112,226.73880494133695L528.8538694444445,210.53810391880714L529.2081666666667,219.31211495990152L529.4692277777777,229.9145709168589L530.0845861111111,249.61450143963162L532.1917222222222,292.6546404237155L533.1054361111112,264.71511575587226L534.615861111111,278.7610223687151L534.8209805555556,243.428875892746L535.193925,254.30159749113767L536.3127583333334,227.3694298374052L536.5551722222223,227.85154635115836L537.2451194444444,208.193023411459L537.6180638888889,244.5280802313644L537.8231833333333,211.3069232756391L539.4268444444444,213.26066580302484L539.6133166666667,212.42637523305595L542.242575,184.84749588504746L542.9325222222222,216.55443843246692L542.9698166666667,224.06541742667275L543.5105861111111,227.9688844962004L544.2378277777779,282.95375171759224L545.1328944444444,302.9463054561129L546.0279611111112,301.18356346191035L546.0652555555555,286.0378004274829L546.2144333333333,267.6845208320259L546.7738499999999,280.27076690633527L547.2027361111111,278.3421700964735L547.4637972222222,297.44563045881387L548.5266888888889,295.05415560632264L550.3168222222222,262.6874372686703L551.1559472222222,256.8173598062451L551.2305361111111,247.0992332004381L552.3493694444444,261.1750432250624L553.2071416666666,256.3057117317752L553.7665583333334,267.028324525434L554.1767972222223,266.42339109791004L554.325975,227.90337788867564L556.6009361111111,235.07130611781832L557.1603527777778,202.79648547834893L557.5705916666667,252.16699663241758L558.18595,269.11583672189744L558.7267194444445,286.71766251618095L559.5658444444445,277.2227450443969L560.2930861111112,242.33998399537796L561.8967472222222,271.58700236774683L563.2579944444444,239.30755720156748L563.724175,221.93348292043794L563.9665888888889,219.185025356994L564.134413888889,231.61520012147383L565.6075444444444,210.08517886118392L566.7077305555556,237.67770682881064L568.8335138888889,187.272246214011L569.1132222222221,196.65763060346768L570.0828777777778,189.00049952881855L570.5863527777777,174.27179198553554L571.7424805555556,232.85170516187196L572.2086611111112,286.39883785097345L573.8682638888889,295.3329013720069L574.5582111111112,300.82175347973384L575.2108638888889,274.9549909077256L575.8262222222222,266.9776226879459L576.5907583333334,243.53297184872437L578.6046583333333,225.7156298035451L578.9030138888888,204.37929690881984L579.2946055555556,231.43461259963757L579.4624305555556,245.83324360666265L579.7607861111111,232.3580701435662L580.9355611111112,219.33690706760032L580.9542083333333,194.29713920833882L581.2152694444444,223.7135990640455L583.2664638888889,226.80148972318182L583.5088777777778,212.492636721406L583.7139972222222,207.1312772137366L585.5787194444445,235.67577264283764L586.8280833333333,248.9170027683655L587.6112666666667,275.64017535868163L590.5575277777778,265.6365983996165L592.1238944444444,270.636739214661L592.1611888888889,279.7632738449588L592.9070777777778,233.31973257810364L592.925725,214.14099735071548L592.9443722222222,219.9185615916071L593.2427277777778,217.9921917219371L593.4851416666667,235.78339637077315L593.5224361111111,258.750568316518L595.368511111111,250.72991428105357L598.1655944444444,230.05330004848028L599.3590166666667,259.1622638234913L599.4709,250.84483235415348L599.5827833333334,257.3458380874188L599.6573722222223,272.25999395467005L599.6760194444444,312.1106892070204L601.0745611111112,299.87205739424815L601.8204499999999,305.31389071070873L602.8460472222222,295.9634092676066L604.8785944444444,253.75177613421806L605.0837138888888,218.65583490406203L605.2328916666667,228.6697830240413L606.1279583333334,258.15058832409886L606.5754916666666,230.70721490369L607.3213805555556,182.52056711983138L607.3773222222222,208.0144961734899L607.9553861111111,210.73401209236906L608.1418583333333,234.0655296054784L608.2723888888889,250.25113330487238L608.6080388888889,241.66224284849855L609.6709305555555,254.8046670604684L610.043875,251.9025370444221L610.0998166666667,242.9379867906589L610.4914083333333,255.90103563200756L612.0950694444444,268.4182282098016L613.7919666666667,275.35990884907324L613.8292611111111,274.4221537387805L614.4259722222222,280.2023011308772L614.7616222222222,267.409001184813L620.0387861111111,247.78353869675303L620.5236138888889,217.64383149162157L621.3440916666667,238.51352071135375L622.3696888888888,245.97547528526664L623.5258166666666,217.38041157115384L623.7682305555555,235.9211756479078L625.4837749999999,228.35483628817406L626.0245444444444,250.2669674073141L626.7517861111111,280.2961622838864L627.9638555555556,291.72354848333333L631.9730083333333,297.9815937563667L633.446138888889,289.85548978119425L633.9309666666667,273.27237199943875L634.3412055555556,252.91527508577673L634.6955027777778,247.42576364168107L635.0684472222222,240.0277525410369L635.1616833333334,227.60151149344335L635.4600388888889,247.75849101014072L635.6838055555555,251.66980698108955L635.982161111111,221.8749570926047L636.4856361111111,264.01903610070656L637.7536472222223,272.89764444573797L638.6673611111111,234.47482645994864L638.909775,231.93714396607743L639.0589527777778,223.4729580683621L640.8304388888889,268.55715958057516L642.1730388888889,270.48986109919554L642.7883972222222,297.8340723500284L642.9189277777778,295.66958644463404L643.0867527777779,273.42991597696425L644.0191138888889,277.27687065309857L644.0750555555555,268.8342213915184L644.4666472222223,263.4252457407948L644.6904138888889,253.44870193488424L645.0447111111112,234.97845453393666L645.3990083333333,272.7931855279538L647.9350305555556,260.1341694306334L649.4454555555556,243.20615433082975L649.4641027777777,245.43994754170978L650.0981083333334,235.91518904695272L650.4524055555556,232.49668538289887L651.3101777777778,207.3657292524036L652.6527777777778,211.80551356627873L652.7460138888889,223.82859520209428L653.2308416666666,268.1451303503469L654.0886138888889,291.8998765608602L654.3683222222222,304.32203088328845L655.2074472222222,299.23524443939687L655.8973944444444,275.4817639484129L656.699225,270.50490526680875L657.0721694444444,273.41759448403957L657.1840527777778,277.1795639917543L657.4264666666667,257.41506383132673L657.9485888888888,250.11811661071613L658.7504194444444,277.5891957339469L659.4963083333333,266.78362955749975L660.7456722222222,259.8004460158008L661.2118527777777,288.8252681403592L661.3423833333334,259.6215368073722L661.4169722222223,241.34202695617313L663.2630472222222,188.8235550542428L663.318988888889,217.26550869821034L664.0648777777777,226.88917076356333L664.6615888888889,217.0461169244873L665.8177166666667,222.67003973655065L666.0787777777778,222.6843870119185L666.3957805555555,200.86833881115507L666.4144277777777,192.9176366351581L667.1976111111111,235.745902978333L669.0436861111111,253.22616477347546L669.5471611111111,269.8516778934229L672.2696555555556,276.7246462592421L673.2579583333334,264.5565682877463L675.2718583333333,218.34795881843732L675.4769777777777,258.39682946484993L677.7705861111111,279.4178308058681L678.8707722222222,252.6650105537316L679.5607194444444,218.37787194935524L679.952311111111,200.11173755420086L680.6422583333334,250.20455239669178L681.3135583333333,282.3029406391921L681.3322055555556,280.7154924998686L681.7983861111111,276.8470731590195L682.9545138888889,283.68961548252923L683.0663972222222,276.81628359781115L683.3461055555556,281.8325385671442L684.2784666666666,297.385306790367L684.7632944444445,275.9595388397944L685.0802972222223,267.6553744625274L685.5091833333333,264.3492687092954L686.3669555555556,259.0964414103866L687.579025,230.4680795342152L687.7095555555555,222.3641733068482L687.8587333333334,240.24129353552598L688.7538,247.06046650522674L688.921625,240.13215595472093L690.0218111111111,262.6449527398044L690.264225,250.28928518783812L692.9680722222222,236.47157371496223L693.1918388888889,219.24227214289743L693.8071972222223,195.2836994928104L693.8444916666666,274.3455568926722L694.5903805555556,283.6461116872543L695.80245,299.17891868128265L697.1823444444445,282.0940069463286L698.0587638888888,277.4248741149762L698.7300638888889,268.87757222492655L699.2708333333334,266.7357902183483L699.8116027777778,268.61010677502657L700.0540166666667,249.47545647910903L700.1099583333333,246.6485291752716L701.340675,253.06885036191338L701.3966166666667,233.60386593715944L702.1984472222223,230.950497570693L702.9256888888889,220.34696601970558L703.1121611111112,220.60125384773946L703.1681027777778,217.56681649473987L704.1564055555556,218.89136816375054L706.2635416666667,214.97903413919173L706.6178388888889,202.74881955552635L706.7483694444445,190.74560151597976L706.7670166666667,199.0203135393131L706.8975472222222,203.50558069599083L708.1096166666666,265.3615866950298L708.6317388888889,271.8244534856764L708.8555055555556,290.4235227994137L709.0979194444445,294.1304884425013L709.22845,324.7445872683054L710.738875,294.34613911025093L711.3542333333334,283.8685367185614L711.4288222222223,298.02116288972354L711.9322972222222,289.29864180782914L711.9695916666667,298.9348765589763L713.2189555555556,251.00202598599418L713.6478416666667,227.5148696424236L714.9531472222222,228.8847773521147L715.1396194444445,233.03377099488202L715.4566222222222,248.2830720419926L715.5871527777778,238.15497354479098L715.6430944444444,239.18570623444387L715.9041555555556,241.45537125615402L716.109275,238.89347255914285L718.6452972222222,208.40311209930294L719.3352444444445,250.385903800567L720.3608416666667,262.45556947849593L720.4913722222221,239.59732018428494L721.7034416666667,273.2289341854103L722.1696222222222,304.5250311172236L722.3374472222223,301.3595958175001L722.5612138888889,277.7364977388623L722.9155111111111,276.69031831914447L723.2325138888889,274.6606630100465L723.5122222222222,289.42169348639186L724.2394638888888,279.9187957078731L724.4632305555556,278.65150448822067L724.9294111111111,314.568665528753L725.4888277777778,302.32960274246847L725.6193583333334,260.5363394659412L726.7008972222222,242.37885776370678L726.9060166666667,233.7074049521083L727.5586694444444,250.21135216366812L727.9129666666668,256.12779322670843L728.0434972222222,257.6680956900534L728.9012694444444,238.8924437749634L729.870925,234.50612982203074L729.9268666666667,222.1930467706293L730.5795194444445,231.7625256567024L731.8475305555555,216.35668108158245L732.3137111111112,197.7882090184664L732.9477166666666,193.17883203428434L733.0036583333334,209.67338758866856L733.9733138888888,228.6250153686258L733.9919611111111,235.54224953248027L734.1411388888889,227.0318869280453L734.3835527777778,227.80736590748845L735.40915,294.0931849813014L735.912625,315.2088134584158L737.0314583333333,301.5449623539445L737.0501055555555,304.6347991407551L737.5349333333334,294.6234398170692L737.7587,293.142123964094L738.0384083333333,299.44643569946066L738.4113527777778,309.06406958834197L738.5791777777778,283.2671881926212L738.7470027777778,260.5815167768092L739.3064194444444,255.02594988961772L740.2201333333334,238.9312367937153L741.2457305555556,247.6552274621241L741.8424416666667,239.35009484430435L742.2526805555556,232.4412248047606L743.6139277777777,231.08547660941375L745.0684111111111,230.94148226679056L746.4483055555555,201.0915319623591L747.3620194444445,212.77775183491156L748.0333194444445,255.43470403813672L749.1894472222222,283.6735265346171L750.1404555555555,299.81535611064044L750.6252833333333,304.361976530815L750.6812249999999,301.9456889327356L752.0984138888889,312.23297350343006L752.4900055555555,308.0809908688225L752.6391833333333,266.7594585184349L752.8815972222222,213.70098889216334L752.9188916666667,201.0583164728356L753.030775,237.98571962893053L754.2241972222222,241.08218097118575L754.8582027777778,230.51353194531623L754.8954972222222,255.50799392749968L754.9141444444444,272.2197739483323L756.5178055555556,245.59165729451612L756.5737472222222,221.13092466375295L757.0772222222223,230.88310542373492L760.2658972222222,224.31969278813574L760.3964277777777,245.36691594537788L761.086375,241.84325004826002L761.6271444444445,225.10462597296643L761.7203805555555,211.55583335291945L762.5035638888888,255.52917305786372L763.6596916666667,254.03913055514676L763.9766944444444,258.0321773782693L763.9953416666666,288.2574993921511L765.2260583333334,305.30018492022316L765.3752361111111,284.41572322693963L765.5990027777777,269.18143126078957L766.28895,280.5243264415375L766.3075972222223,305.2378835363295L766.3635388888889,288.49669846553246L767.5942555555555,268.4877984499454L768.5639111111111,263.03927223695433L768.8436194444445,258.8706593180485L769.1233277777778,242.20590129443744L769.4216833333334,238.52327129373205L769.6640972222223,240.94669406451337L770.3167500000001,227.61486191613008L770.6710472222222,225.53197455006364L770.8015777777778,233.68202073493114L775.1463805555555,241.73781595658374L775.6498555555556,246.58049119888406" style="fill: none;" fill="none"></path></g></g></g></g><g opacity="0.2"><g><g><g><path stroke="rgb(255, 112, 67)" stroke-width="2px" d="M107.61311944444444,-10.607730046908046L107.87418055555555,4.511924290657021L108.19118333333334,27.09845096270243L108.30306666666667,-97.23189820448567L110.85773611111112,-34.2513651609421L111.34256388888889,14.160426362355508L112.14439444444446,-115.93117504914608L113.11405,77.3279926220576L113.82264444444445,-23.788515822092677L116.75025833333333,-3.098387614885951L117.77585555555557,5.682885551452614L117.83179722222222,-12.519783274332667L118.16744722222221,-89.50653502941134L119.0625138888889,12.104259435335791L119.19304444444444,-81.39234949747731L120.01352222222222,-29.470220899581932L120.5729388888889,69.2549289306005L121.63583055555556,91.88227783044181L122.17660000000001,123.05353175004325L122.47495555555555,222.39873002370203L122.77331111111111,139.80787287553153L123.81755555555556,84.08216129144034L124.76856388888889,163.41383169492087L125.10421388888888,128.6201855580012L125.27203888888889,-7.813691989580775L125.57039444444445,42.42378940582273L125.6263361111111,74.63694642384849L126.4468138888889,-50.66040267149606L127.62158888888888,82.02547004222868L128.03182777777778,101.06323431332908L128.08776944444443,66.27408236662546L128.23694722222223,82.31467118263242L128.9828361111111,133.10418894290927L129.2998388888889,149.28125133514408L129.54225277777778,123.01735351880393L131.20185555555554,65.4901457866033L132.32068888888887,5.414207879702246L134.01758611111111,73.36314311027525L134.24135277777776,199.1905070384344L134.83806388888888,250.1510287364324L134.94994722222222,201.32487287521366L135.32289166666666,276.3120095968247L135.41612777777777,148.85160675048832L136.2552527777778,133.45181455612186L136.47901944444445,214.73126699924472L137.13167222222222,153.95176361401877L137.78432500000002,159.52995251019797L137.80297222222222,140.5234977642695L138.66074444444445,174.5523825327556L138.97774722222223,141.69176251093546L139.01504166666666,117.43901481628421L139.10827777777777,158.23120644092563L139.57445833333333,136.33049319585166L139.59310555555555,58.446251654624916L139.81687222222223,172.2438668251038L139.91010833333334,194.83773400783542L140.45087777777778,147.82356073856357L140.7305861111111,96.98340843518577L140.84246944444445,125.49956967830661L143.30390277777778,110.40298551718394L144.3295,122.47760127385459L145.24321388888887,75.87831666469572L147.23846666666665,45.354001426696755L148.56241944444446,262.21725533803306L149.38289722222223,321.7544147411983L149.8863722222222,161.44679954051975L149.9423138888889,136.27334207693735L151.02385277777776,210.5286748250326L152.17998055555555,186.58520232041678L152.83263333333335,135.328213874499L153.46663888888887,183.34511588414512L153.7277,227.01606105168665L153.76499444444443,115.28554867108664L153.78364166666665,183.7201560576757L154.86518055555555,177.4951033830643L158.12844444444445,151.59366200764975L160.3661111111111,123.44572474956516L160.7017611111111,205.8251302480698L160.73905555555555,155.5101989746094L161.6714166666667,241.56390458742783L162.7156611111111,212.35166818300888L162.99536944444444,190.49245129426325L163.965025,272.5858015855154L164.35661666666667,260.744584107399L164.4871472222222,230.80436379114792L166.48239999999998,181.9433779557546L167.00452222222222,271.0052697896958L167.52664444444446,202.61822591622675L168.49630000000002,144.71680194536845L169.65242777777777,128.84317229588828L171.47985555555556,212.25863844553635L172.05791944444445,155.98793139457706L172.15115555555556,142.2822242021561L173.49375555555557,214.16956812540695L173.73616944444444,198.92265330155695L173.77346388888887,138.19475820064548L175.2838888888889,344.0100192070008L176.99943333333334,283.12834789752964L177.3164361111111,225.93371024131778L177.70802777777777,166.58867746988938L179.53545555555556,226.46747023264572L180.20675555555556,247.76056896050775L180.28134444444444,196.11490796407068L180.43052222222224,309.5626504262289L181.81041666666667,145.6968350251516L182.5190111111111,167.71694392363236L182.78007222222223,246.00289116700495L183.4886666666667,181.69769555727646L183.71243333333334,226.6402718464534L184.49561666666665,174.82870032787326L185.76362777777777,173.74582519531253L185.9314527777778,190.2413009643555L185.98739444444445,183.8172305663427L187.40458333333333,204.22991743087772L187.4418777777778,237.99499323368076L188.44882777777778,163.62445940971378L188.97095000000002,352.5336254676184L190.92890833333334,214.8629467725754L192.60715833333333,289.10382320880893L192.9055138888889,234.13882822195694L193.166575,174.15105134646103L194.30405555555555,279.21862711906437L196.1128361111111,191.22830003897352L196.70954722222223,215.09394814968113L198.85397777777777,188.83177310625715L199.1336861111111,151.40670369466147L199.95416388888887,139.70937520662943L201.53917777777778,242.70153393745426L201.85618055555554,263.2473986387253L201.91212222222222,193.13548456033075L202.58342222222223,294.7208868503571L202.7139527777778,320.0822763681412L203.38525277777777,258.26409072081253L203.77684444444444,219.5695623795192L204.93297222222222,312.0513082583746L205.30591666666666,290.0658795277278L207.37575833333335,239.5475861469905L207.56223055555554,254.68708982467655L208.8488888888889,181.0292596658071L209.09130277777777,192.13208169142408L209.2031861111111,194.99398202101392L209.44559999999998,230.0019261280696L210.50849166666669,176.1836237748464L210.93737777777775,263.2283732334773L211.03061388888887,197.5135748624802L212.13080000000002,236.97413792610172L212.57833333333335,162.25485494136814L214.36846666666668,141.63543532689414L214.816,236.26458019415543L215.82295,172.47981181144718L216.36371944444443,289.88596211274466L217.37066944444447,239.46721504529322L218.0979111111111,294.88192866643277L218.15385277777776,264.56636856396995L218.37761944444443,242.2628260691961L218.95568333333335,279.3534528255463L220.89499444444445,306.498736246427L221.04417222222222,227.10512092113498L221.32388055555558,200.24109890460971L223.1326611111111,155.2633181254069L223.6174888888889,258.519660337766L224.02772777777776,214.12986944516504L225.74327222222223,273.94776593049374L225.89245,201.2480971256892L226.65698611111114,163.25286478201554L227.7944666666667,232.6496033906937L228.37253055555553,196.78581566015882L229.56595277777777,151.51493877569834L230.088075,343.8765417575837L230.1067222222222,333.1108589013418L230.46101944444447,285.04736711978916L230.88990555555554,412.0139333645503L231.24420277777776,281.21247460842136L232.15791666666667,272.95230279763547L232.34438888888891,312.7462598721187L232.40033055555557,295.99469016393033L232.68003888888887,291.37279004255936L233.29539722222222,325.1667784690857L236.57730833333332,221.52985324859623L236.6891916666667,303.57608944575L237.93855555555555,292.9650067329407L238.46067777777776,234.85467782020572L238.64714999999998,247.98108389377597L239.29980277777776,167.88345367113754L240.54916666666668,203.04052999019626L241.1458777777778,236.3805303017299L242.2460638888889,242.8319403568904L242.89871666666664,193.37232838471735L243.32760277777777,128.47547263304392L243.64460555555553,302.49411315123245L245.77038888888887,293.1052254676819L246.42304166666668,210.798476044337L246.53492500000002,267.0757745742798L247.82158333333334,322.90567646821347L248.64206111111113,248.66524945100153L249.18283055555554,182.2796931902568L249.27606666666665,178.4984313488007L249.44389166666667,236.04945828914646L251.1221416666667,248.9249387423198L251.17808333333335,227.01029350757602L251.70020555555553,220.5210573514303L251.88667777777778,298.0838144858679L252.96821666666665,217.10622181892398L253.62086944444442,169.90516513983414L254.2362277777778,276.41058216889707L254.254875,194.85900650819147L255.37370833333335,242.8858706394832L257.6859638888889,257.2488531510036L257.74190555555555,338.609875146548L258.78615,313.9561707814535L259.2709777777778,267.2981620868048L259.32691944444446,260.6448130846024L259.7185111111111,268.3668056170146L259.84904166666666,266.19289090633396L260.93058055555554,241.30893419583643L261.0424638888889,248.27747573852542L262.0867083333334,211.02363497416184L265.2753833333333,157.95144309997562L265.4059138888889,232.7629318873088L265.9093888888889,193.52280885378522L266.9536333333333,165.43554316361747L267.5503444444444,243.0955246130626L268.74376666666666,202.5655689875285L268.79970833333334,232.71177302201593L269.1726527777778,253.7073563575745L269.78801111111113,218.9375294288L271.2611416666667,314.83029077847806L271.3916722222222,322.62396564483646L271.6340861111111,287.1488504648209L272.044325,271.2360464572907L272.75291944444444,251.61059191226963L273.3123361111111,302.95529197057095L273.74122222222223,210.80177178382877L274.0768722222222,259.1097475131353L275.38217777777777,279.06589955488846L276.78071944444446,224.03356661796573L277.97414166666664,223.01241169770563L279.1862111111111,176.0253533760707L280.7898722222222,227.3707275629044L281.2747,226.4830500920614L282.8410666666667,237.80046970049546L284.8549666666667,286.30903611977897L284.9854972222222,257.2283296823502L287.09263333333337,290.5286313136419L287.148575,270.09190053145096L287.54016666666666,243.04211865266169L288.64035277777776,311.46698862711594L288.826825,272.64227857589725L288.9014138888889,282.02315162022916L289.44218333333333,299.66352234681455L290.0575416666667,262.1403297821681L291.0271972222222,236.69782013098404L291.3442,265.54992209275565L291.60526111111113,206.32406026522324L291.90361666666666,178.69220585028336L292.2206194444445,272.9039153496425L292.96650833333337,173.35707774162296L293.82428055555556,165.72122385501865L293.84292777777773,213.85362655321762L294.2531666666667,137.4505203008652L294.90581944444443,136.8015592336655L295.09229166666665,246.47935023307804L295.39064722222224,230.11735191345218L295.55847222222224,182.39392052491507L295.8195333333333,216.7176990747452L296.5281277777778,282.39744276205704L296.5840694444444,218.43844960530603L297.218075,157.8523462057114L297.29266388888885,173.72635037104294L297.72155,187.68552989164994L297.83343333333335,247.86251217524216L297.8707277777778,196.77353154023493L298.6166166666667,337.4814588864645L298.7285,333.8371949434281L298.9709138888889,363.5526308457057L299.06415,313.9025401115418L300.2575722222222,290.31867772738144L300.61186944444444,247.20171640714014L300.77969444444443,248.23470602830255L301.61881944444445,374.1379468679429L302.0477055555555,272.76699235439304L302.085,309.5018290519715L302.10364722222226,263.0367709239324L303.20383333333336,193.9305817127228L306.1687416666667,138.94131809870402L307.15704444444447,190.14669826030735L307.52998888888885,179.68137711683914L308.10805277777774,212.99306403001154L308.2758777777778,194.1844285567602L308.59288055555555,231.0734908819199L308.9098833333333,179.61785922845206L309.4879472222222,236.56239519913996L310.43895555555554,212.9692448218664L310.86784166666666,210.7208763599396L311.12890277777774,211.2022790352504L312.5087972222222,338.44748507340756L314.63458055555554,310.5157932678859L316.42471388888885,286.2632702827454L316.51795,202.95768708388013L317.18925,224.352279607455L317.7673138888889,266.2507161537807L319.57609444444444,243.71437460581467L320.06092222222225,149.6241580486298L320.13551111111116,166.40344192981723L320.4338666666667,234.79303251107538L321.21705,201.054996752739L322.41047222222227,263.1429836193721L322.4664138888889,213.21949631373093L322.7647694444444,198.51840089162195L324.5549027777778,192.42517779668177L325.5432055555556,386.79568380514786L327.31469166666665,291.29661351839707L329.51506388888885,291.0049405733745L330.0371861111111,228.17144245306656L331.1373722222222,307.86249826749173L332.0137916666667,225.11629194418595L333.35639166666664,229.17536964416507L333.71068888888885,234.0179345051448L334.5125194444445,184.11534518400833L334.88546388888886,146.34227564334873L335.9670027777778,203.74042521317804L336.28400555555555,232.57612338066104L336.7874805555556,265.92009356021885L337.17907222222226,222.39663273493454L337.4028388888889,254.71742560863498L337.68254722222224,265.51374386151633L337.7571361111111,219.29489245414737L338.0741388888889,158.35187544822696L338.7454388888889,257.1457114855449L339.49132777777777,264.1269116640091L340.1066861111111,309.8030146996181L342.15788055555555,302.428797586759L343.14618333333334,272.57269353071854L343.22077222222225,268.6091173728308L343.59371666666664,185.69789936542514L344.5074305555556,212.8645301898321L345.0482,218.41657787958786L345.83138333333335,240.31878918806717L346.7823916666667,268.79952123165134L347.2112777777778,233.45421324570978L348.3114638888889,245.90282053152725L348.36740555555554,197.40249346097315L349.579475,224.8168290694555L350.12024444444444,150.77766687075297L350.75425,262.40601132710776L351.4069027777778,202.4476713975271L351.8357888888889,176.80344750881198L352.1341444444444,273.022112552325L353.49539166666665,305.69607387383786L353.84968888888886,283.86224915981296L354.25992777777776,306.76763862768814L355.789,311.443768644333L358.4182583333333,262.0111967166265L359.648975,252.54673173427585L359.77950555555555,215.17836402257288L359.94733055555554,209.90368277231858L360.26433333333335,232.39066313107813L360.4881,149.15945878028873L360.59998333333334,189.97719238599146L361.70016944444444,250.72725882530216L362.63253055555555,213.8199950297674L363.50894999999997,186.93410128752396L364.18025,204.0577150424322L364.62778333333335,226.8975642363231L364.683725,197.55027741591138L366.08226666666667,175.1929544448853L366.19415000000004,234.14272318681085L366.75356666666664,309.1853631575903L366.9213916666667,268.55743418534604L366.99598055555555,316.427151465416L367.10786388888886,303.397894803683L368.8234083333333,263.66753052075705L368.84205555555553,305.266129676501L368.9912333333333,228.6550173203151L369.0658222222222,274.81192380587265L369.38282499999997,264.8033621946971L370.57624722222226,239.92554754416153L370.9305444444445,216.36393140157068L371.56455,267.51710405349735L373.44791944444444,203.60043118794763L374.62269444444445,141.23253117402396L375.4804666666667,173.9868635972341L376.30094444444444,197.34998633861545L376.6552416666667,185.73887139956162L377.9046055555556,236.9249265432358L378.98614444444445,225.3494655132294L379.4150305555555,206.424430513382L380.9254555555556,317.65788545608524L381.76458055555554,322.7483798106512L381.801875,315.41520963509885L382.3985861111111,290.9761028528214L382.97664999999995,342.0217894554139L384.0768361111111,228.2860443035762L386.7433888888889,248.41409912109378L387.19092222222224,283.5300535996755L387.35874722222223,247.2503285646439L387.47063055555554,201.54471367994947L388.3284027777778,161.99007223447165L388.3843444444444,244.71792728106186L388.73864166666664,191.38612101872766L391.200075,164.7551976680756L391.4611361111111,225.06685585180924L393.36315277777777,152.36831059455875L393.75474444444444,308.1326740026475L395.09734444444445,344.54130739370987L396.234825,281.76930477619175L397.577425,298.85217120647434L397.98766388888885,310.78784158229837L398.30466666666666,207.71988084316257L399.16243888888886,263.0605152289073L399.79644444444443,256.29900604883835L401.00851388888884,285.24129142761234L402.0154638888889,269.1165863513947L402.50029166666667,197.81198909282688L402.5935277777778,264.3819569587708L403.9174805555555,181.59882337252304L404.58878055555556,228.47098023096726L405.50249444444444,268.1474142313004L406.6586222222222,141.35694533983866L406.67726944444445,191.78288311163587L407.311275,324.89031086762753L407.5723361111111,302.930424118042L408.35551944444444,326.77240282694504L411.4696055555556,277.1318247954051L412.04766944444447,306.884262863795L412.681675,187.2562598228455L413.81915555555554,282.42687970797226L414.0056277777778,226.05730047225956L414.69557499999996,323.1565271854401L414.8447527777778,231.63361678918207L415.3109333333333,250.99376430511478L415.64658333333335,283.4727526744207L415.68387777777775,239.9852453708649L416.1127638888889,217.71113982200626L416.1314111111111,174.64151730537418L416.15005833333333,165.02387533982596L416.206,261.8282831748327L416.56029722222223,256.1907709678014L417.21295,186.0923394600551L417.79101388888887,198.13205033938092L418.18260555555554,157.5594748099645L418.5182555555556,178.39731206893924L418.7047277777778,233.83082638581598L420.36433055555557,203.74319663047794L420.62539166666664,187.67788976828263L420.9983361111111,339.09442375501004L421.1661611111111,365.44528415203104L421.2966916666667,356.3288942019145L421.3153388888889,351.3580202102662L421.85610833333334,331.13783449331925L422.0425805555556,332.786378367742L422.41552499999995,330.75455497105924L423.7021833333333,265.1838702996572L424.61589722222226,301.0741737524669L425.23125555555555,311.56016817092905L425.93985000000004,268.0224757432938L428.00969166666664,233.0722070773443L428.4758722222222,266.38718973000846L428.53181388888885,96.46642675399784L428.69963888888884,213.1670640945435L429.2217611111111,233.13505083719895L429.8744138888889,187.88080245653794L430.09818055555553,255.07149289449058L430.82542222222224,256.2031299908956L431.29160277777777,236.08234078089401L431.6086055555556,212.1907012701035L432.8766166666667,260.59874763488773L433.2868555555556,229.67924327055619L433.8089777777778,281.62534088293717L434.81592777777774,348.8679392178854L437.29600833333336,277.6318783601126L437.3146555555556,244.65208739439652L439.08614166666666,266.0451069513957L439.9252666666667,212.80730416774753L442.1815805555555,195.2431848684947L442.3121111111111,271.0707351605098L444.64301388888885,211.46608800093338L445.5380805555555,209.76990571022037L446.75014999999996,278.5513147751491L447.1044472222222,187.82499959468845L447.1976833333334,236.0514806747437L447.6265694444445,238.40126802921299L448.03680833333334,302.313821220398L448.4284,384.25324549674997L449.6964111111111,338.69436592261L450.68471388888884,305.67240447203324L451.76625277777777,279.4587666829428L452.58673055555556,276.68045829137174L452.6613194444444,296.59496417045597L453.12750000000005,323.4976362228394L456.5772361111111,179.33584879239402L456.8569444444444,245.201951567332L456.91288611111105,273.9781766176224L457.32312500000006,207.31525391737625L457.43500833333337,288.0892597675324L458.330075,225.60668299992884L458.6097833333333,141.1589013576508L459.4675555555556,212.88512856165573L459.7286166666666,279.7232497771582L459.9337361111111,224.64013249079392L460.1015611111111,221.0205116907756L460.95933333333335,224.77945238749192L461.1644527777778,200.57142188549045L461.27633611111116,238.49766840934757L462.3765222222222,330.10604332288113L462.87999722222224,338.59047522544864L463.30888333333337,286.46236290931705L464.6141888888889,288.30295851230625L465.02442777777776,294.29985613028214L465.6397861111111,286.388208770752L465.9567888888889,249.1213348547618L466.0873194444444,334.4724487304688L466.83320833333335,321.5410156091055L467.07562222222225,275.3446351528168L467.16885833333333,308.56718729337064L467.28074166666664,229.3934127728145L467.33668333333327,300.6001115878424L468.75387222222224,226.1934744358063L468.77251944444447,286.2704609870911L468.8098138888889,292.1242935498556L469.59299722222227,276.278527879715L469.6489388888889,304.3306639830272L470.2270027777778,187.3059955279033L470.7304777777778,198.45982661247257L470.78641944444445,249.62730576992038L470.87965555555553,193.93957009315494L471.9239,170.51787307262424L472.2036083333333,222.85286794503534L472.3714333333333,198.4442467530569L472.4087277777778,296.4309262275696L473.3224416666667,195.440779431661L474.38533333333334,187.55632192293808L475.22445833333336,230.460558239619L475.9889944444444,354.419387682279L476.2314083333333,264.89466915925345L476.2500555555556,319.3207358360291L476.66029444444445,364.6523591915767L476.7535305555555,311.71454360485086L476.95865000000003,256.287171347936L479.02849166666664,252.84492125511173L479.42008333333337,306.291179561615L480.68809444444446,299.9041862328848L480.70674166666663,309.43284323215494L480.7626833333333,167.27479050954184L480.78133055555554,253.06371341546378L481.6763972222222,320.42728037039444L482.1239305555556,311.5915525992712L482.73928888888884,250.89556624889377L483.2054694444445,187.31977771123252L484.58536388888893,183.9734785795212L485.33125277777776,221.9369519790014L485.4804305555556,200.34311702251438L486.0771416666667,239.940228565534L486.3195555555556,226.32927388350174L487.5129777777778,172.1100897630056L488.7250472222222,212.6422924836477L489.1539333333333,318.4511849323909L490.7203,305.99561165173856L490.77624166666664,265.27345449129746L490.86947777777783,291.3139161507289L492.1188416666667,303.69803180694583L492.4544916666666,300.2239478667578L493.85303333333337,242.6494762341182L494.58027500000003,260.01547664801285L494.5989222222222,240.26336084206903L497.52653611111117,249.82078065872196L498.3097194444444,240.64229598045353L498.3283666666667,273.7149668773016L499.54043611111115,349.4474650462469L499.65231944444446,203.93127849102024L500.0252638888889,208.27438901265467L500.1371472222222,228.78946851094568L500.5287388888889,223.65088632106784L500.64062222222225,277.63053010304776L501.7594555555556,47.37503876686094L502.8596416666666,286.7863940238953L503.4563527777778,338.61421953042355L503.5868833333333,378.6059209744136L507.5773888888889,261.84805761178336L508.0435694444445,236.30450358390812L508.2859833333333,297.42414226531986L508.7894583333333,249.76430366834006L508.91998888888884,296.7664175271988L509.12510833333334,332.39141395092014L509.2183444444444,225.90779374440515L509.36752222222225,367.2601130644481L509.62858333333327,243.64074478944147L510.1507055555556,244.49973434607193L511.43736388888885,241.57768677075708L511.49330555555554,281.5135853528977L512.2764888888888,158.5643008391063L512.9291416666666,219.75472301642105L513.6190888888889,254.00419762134555L515.3159861111111,163.3123378992081L515.6143416666667,224.09139186541245L517.6095944444444,290.75266669591275L517.740125,324.09701139132187L517.9638916666667,288.11697394053147L518.9149,290.43582628568015L519.1200194444444,305.815020108223L519.1386666666667,270.16620447635654L520.8169166666667,342.02838093439743L520.8728583333334,242.98766404787705L523.614,312.5384035746257L523.688588888889,273.1841281096141L523.7072361111111,261.44462913672135L524.0242388888888,225.74300676981613L524.3039472222222,249.39473142623905L524.4904194444445,227.48255799611414L524.6955388888889,219.75337475935623L524.788775,271.5582049926123L524.8820111111112,220.90875616073612L524.9566000000001,257.90964891910556L525.0684833333333,284.25002287228904L525.5160166666666,210.95487386385605L525.7024888888889,197.44496355851496L526.1873166666667,305.837116543452L527.0264416666666,169.81483191649124L527.4553277777778,245.69713642597202L528.4063361111112,219.78056461016342L528.8538694444445,186.23705238501236L529.2081666666667,232.4731315215429L529.4692277777777,245.81825485229496L530.0845861111111,279.16439722379056L532.1917222222222,357.2148488998414L533.1054361111112,222.8058287541072L534.615861111111,299.82988228797916L534.8209805555556,190.43065617879236L535.193925,270.6106798887253L536.3127583333334,186.9711783568065L536.5551722222223,228.57472112178806L537.2451194444444,178.70523900190994L537.6180638888889,299.0306654612224L537.8231833333333,161.47518784205124L539.4268444444444,216.19127959410355L539.6133166666667,211.17493937810266L542.242575,143.47917686303458L542.9325222222222,264.11485225359604L542.9698166666667,235.3318859179815L543.5105861111111,233.82408510049189L544.2378277777779,365.43105254968015L545.1328944444444,332.9351360638937L546.0279611111112,298.53945047060654L546.0652555555555,263.31915587584183L546.2144333333333,240.15460143884027L546.7738499999999,299.1501360177994L547.2027361111111,275.4492748816809L547.4637972222222,326.1008210023245L548.5266888888889,291.4669433275859L550.3168222222222,214.1373597621918L551.1559472222222,248.01224361260736L551.2305361111111,232.52204329172775L552.3493694444444,282.28875826199857L553.2071416666666,249.0017144918442L553.7665583333334,283.1122437159221L554.1767972222223,265.51599095662436L554.325975,170.12335807482407L556.6009361111111,245.82319846153263L557.1603527777778,154.3842545191447L557.5705916666667,326.22276336352036L558.18595,294.5390968561173L558.7267194444445,313.12040120760605L559.5658444444445,262.9803688367208L560.2930861111112,190.0158424218496L561.8967472222222,315.4575299263001L563.2579944444444,190.88838945229853L563.724175,195.87237149874372L563.9665888888889,215.06233901182816L564.134413888889,250.26046226819358L565.6075444444444,177.79014697074894L566.7077305555556,279.0664987802506L568.8335138888889,111.66405529181162L569.1132222222221,210.73570718765262L570.0828777777778,177.5148029168447L570.5863527777777,152.17873067061106L571.7424805555556,320.7215749263764L572.2086611111112,366.7195368846258L573.8682638888889,308.7339966535569L574.5582111111112,309.05503164132443L575.2108638888889,236.15484704971317L575.8262222222222,255.0115703582764L576.5907583333334,208.36599558989212L578.6046583333333,198.9896167357763L578.9030138888888,172.3747975667318L579.2946055555556,272.0175861358643L579.4624305555556,267.4311901172003L579.7607861111111,212.14530994892124L580.9355611111112,199.80516245365146L580.9542083333333,156.73748741944632L581.2152694444444,267.83828884760544L583.2664638888889,231.43332571188614L583.5088777777778,191.0293572187424L583.7139972222222,199.0892379522324L585.5787194444445,278.4925157864889L586.8280833333333,268.77884795665744L587.6112666666667,315.7249342441559L590.5575277777778,250.6312329610189L592.1238944444444,278.13695043722794L592.1611888888889,293.4530757904053L592.9070777777778,163.6544206778209L592.925725,185.3728945096334L592.9443722222222,228.5849079529445L593.2427277777778,215.1026369174322L593.4851416666667,262.47020334402725L593.5224361111111,293.20132623513547L595.368511111111,238.698933227857L598.1655944444444,199.0383786996206L599.3590166666667,302.8257094860077L599.4709,238.36868515014652L599.5827833333334,267.09734668731693L599.6573722222223,294.6312277555466L599.6760194444444,371.88673208554593L601.0745611111112,281.51410967508957L601.8204499999999,313.47664068539945L602.8460472222222,281.93768710295365L604.8785944444444,190.43432643413547L605.0837138888888,166.01192305882773L605.2328916666667,243.69070520401004L606.1279583333334,302.3717962741852L606.5754916666666,189.54215477307642L607.3213805555556,110.24059544404349L607.3773222222222,246.2553897539775L607.9553861111111,214.8132859706879L608.1418583333333,269.0628058751425L608.2723888888889,274.5295388539633L608.6080388888889,228.77890716393793L609.6709305555555,274.5183033784231L610.043875,247.54934202035273L610.0998166666667,229.4911614100139L610.4914083333333,275.3456088940303L612.0950694444444,287.19401707649234L613.7919666666667,285.77242980798087L613.8292611111111,273.0155210733414L614.4259722222222,288.87252221902213L614.7616222222222,248.2190512657166L620.0387861111111,218.34534496466324L620.5236138888889,172.4342706839244L621.3440916666667,269.8180545409521L622.3696888888888,257.168407146136L623.5258166666666,174.48781599998478L623.7682305555555,263.73232176303867L625.4837749999999,217.00532724857334L626.0245444444444,283.135164086024L626.7517861111111,325.3399545987448L627.9638555555556,308.8646277825038L631.9730083333333,307.36866166591653L633.446138888889,277.6663338184357L633.9309666666667,248.39769532680515L634.3412055555556,222.37962971528376L634.6955027777778,239.19149647553766L635.0684472222222,228.93073589007065L635.1616833333334,208.96214992205307L635.4600388888889,277.9939602851868L635.6838055555555,257.53678093751273L635.982161111111,177.18268225987754L636.4856361111111,327.23515461285916L637.7536472222223,286.2155569632848L638.6673611111111,176.8405994812648L638.909775,228.13062022527063L639.0589527777778,210.7766792217891L640.8304388888889,336.1834618488948L642.1730388888889,273.38891337712613L642.7883972222222,338.85038922627774L642.9189277777778,292.4228575865428L643.0867527777779,240.07041027545932L644.0191138888889,283.04730266729996L644.0750555555555,256.1702474991481L644.4666472222223,255.3117822647095L644.6904138888889,238.4838862260183L645.0447111111112,207.2730834325155L645.3990083333333,329.51528201897946L647.9350305555556,241.14564528465274L649.4454555555556,217.81413168112442L649.4641027777777,248.79063735802973L650.0981083333334,221.62805130481723L650.4524055555556,227.36892988681797L651.3101777777778,169.66929505666099L652.6527777777778,218.46519003709162L652.7460138888889,241.86321765581772L653.2308416666666,334.619933072726L654.0886138888889,327.5319958766302L654.3683222222222,322.9552623669307L655.2074472222222,291.6050647735596L655.8973944444444,239.85154321193698L656.699225,263.0396172444026L657.0721694444444,277.7866283098857L657.1840527777778,282.82251825332645L657.4264666666667,227.76831359068558L657.9485888888888,239.17269577980045L658.7504194444444,318.79581441879276L659.4963083333333,250.5752802928289L660.7456722222222,249.32567070325217L661.2118527777777,332.3625013271968L661.3423833333334,215.81593980789188L661.4169722222223,213.92276217937473L663.2630472222222,110.04584720134739L663.318988888889,259.9284391641617L664.0648777777777,241.32466386159265L664.6615888888889,202.28153616587323L665.8177166666667,231.10592395464585L666.0787777777778,222.70590792497003L666.3957805555555,168.1442665100098L666.4144277777777,180.99158337116245L667.1976111111111,299.98830249309543L669.0436861111111,279.4465574661891L669.5471611111111,294.78994757334397L672.2696555555556,287.03409880797074L673.2579583333334,246.30445133050287L675.2718583333333,149.03504461447397L675.4769777777777,318.47013543446866L677.7705861111111,310.9493328173956L678.8707722222222,212.53578017552698L679.5607194444444,166.94716404279075L679.952311111111,172.71253596146903L680.6422583333334,325.34377466042844L681.3135583333333,330.4505230029425L681.3322055555556,278.33432029088345L681.7983861111111,271.0444441477458L682.9545138888889,293.95342896779385L683.0663972222222,266.50628577073417L683.3461055555556,289.35692102114365L684.2784666666666,320.71445912520096L684.7632944444445,243.8208869139354L685.0802972222223,255.1991278966268L685.5091833333333,259.3901100794475L686.3669555555556,251.21720046202347L687.579025,187.52553671995804L687.7095555555555,210.20831396579746L687.8587333333334,267.05697387854264L688.7538,257.28922595977787L688.921625,229.73969012896225L690.0218111111111,296.41414791742966L690.264225,231.75578385988877L692.9680722222222,215.74500650564835L693.1918388888889,193.39831978480024L693.8071972222223,159.3458405176799L693.8444916666666,392.93834299246475L694.5903805555556,297.59694387912754L695.80245,322.47812917232517L697.1823444444445,256.46663934389755L698.0587638888888,270.42117486794797L698.7300638888889,256.0566193898519L699.2708333333334,263.52311720848087L699.8116027777778,271.4215816100439L700.0540166666667,220.77348103523258L700.1099583333333,242.40813821951554L701.340675,262.69933214187625L701.3966166666667,204.40638930002854L702.1984472222223,226.9704450209936L702.9256888888889,204.44166869322464L703.1121611111112,220.98268558979038L703.1681027777778,213.0151604652405L704.1564055555556,220.87819566726688L706.2635416666667,209.11053310235346L706.6178388888889,184.4034976800283L706.7483694444445,172.74077445666L706.7670166666667,211.4323815743129L706.8975472222222,210.23348143100742L708.1096166666666,358.14559569358835L708.6317388888889,281.51875367164615L708.8555055555556,318.32212677001957L709.0979194444445,299.69093690713254L709.22845,370.6657355070115L710.738875,248.74846687316898L711.3542333333334,268.15213313102726L711.4288222222223,319.25010214646665L711.9322972222222,276.21486018498746L711.9695916666667,313.389228685697L713.2189555555556,179.10275012652085L713.6478416666667,192.2841351270676L714.9531472222222,230.93963891665146L715.1396194444445,239.25726145903275L715.4566222222222,271.15702361265824L715.5871527777778,222.96282579898838L715.6430944444444,240.7318052689235L715.9041555555556,244.8598687887192L716.109275,235.05062451362613L718.6452972222222,162.66757140954337L719.3352444444445,313.3600913524628L720.3608416666667,280.5600679953894L720.4913722222221,205.3099462429683L721.7034416666667,323.67635518709824L722.1696222222222,351.4691765149435L722.3374472222223,296.6114428679149L722.5612138888889,242.3018506209056L722.9155111111111,275.1210491895676L723.2325138888889,271.6161800463995L723.5122222222222,311.56323920091L724.2394638888888,265.66444904009506L724.4632305555556,276.75056765874234L724.9294111111111,368.44440708955136L725.4888277777778,283.9710085630417L725.6193583333334,197.84644455115003L726.7008972222222,215.14263521035517L726.9060166666667,220.70022573471073L727.5586694444444,274.96727298100797L727.9129666666668,265.00245482126877L728.0434972222222,259.97854938507083L728.9012694444444,210.72896590232853L729.870925,227.92665889263156L729.9268666666667,203.72342219352726L730.5795194444445,246.11674398581192L731.8475305555555,193.24791421890262L732.3137111111112,169.93550092379257L732.9477166666666,186.2647665580114L733.0036583333334,234.4152209202449L733.9733138888888,257.05245703856156L733.9919611111111,245.91810077826187L734.1411388888889,214.26634302139286L734.3835527777778,228.97058437665308L735.40915,393.5219135920207L735.912625,346.8822561740876L737.0314583333333,281.0491856972377L737.0501055555555,309.2695543209712L737.5349333333334,279.6064008315405L737.7587,290.9201501846314L738.0384083333333,308.90290330251065L738.4113527777778,323.490520421664L738.5791777777778,244.57186609903977L738.7470027777778,226.55300965309146L739.3064194444444,246.6925995588303L740.2201333333334,214.7891671498617L741.2457305555556,260.741213464737L741.8424416666667,226.89239591757462L742.2526805555556,222.07791974544529L743.6139277777777,229.0518543163936L745.0684111111111,230.725490752856L746.4483055555555,156.3166065057119L747.3620194444445,230.3070816437404L748.0333194444445,319.4201323429744L749.1894472222222,326.0317602793376L750.1404555555555,324.02810047467557L750.6252833333333,311.18190716107694L750.6812249999999,298.3212575356166L752.0984138888889,327.6639003594717L752.4900055555555,301.85301691691086L752.6391833333333,204.77715999285385L752.8815972222222,134.11328445275626L752.9188916666667,182.09430784384415L753.030775,293.3768243630728L754.2241972222222,245.72687298456833L754.8582027777778,214.660558406512L754.8954972222222,292.9996869007747L754.9141444444444,297.28744397958127L756.5178055555556,205.64948231379196L756.5737472222222,184.4398257176082L757.0772222222223,245.51137656370804L760.2658972222222,214.47457383473719L760.3964277777777,276.9377506812414L761.086375,236.55775120258335L761.6271444444445,199.99668986002607L761.7203805555555,191.23264442284906L762.5035638888888,321.4891826152802L763.6596916666667,251.8040668010712L763.9766944444444,264.0217476129532L763.9953416666666,333.5954824129741L765.2260583333334,330.8642132123312L765.3752361111111,253.08903068701431L765.5990027777777,246.32999331156418L766.28895,297.5386692126593L766.3075972222223,342.30821917851773L766.3635388888889,263.3849208593369L767.5942555555555,238.47444842656458L768.5639111111111,254.8664829174678L768.8436194444445,252.61773993968967L769.1233277777778,217.20876425902054L769.4216833333334,232.9993262926738L769.6640972222223,244.58182822068537L770.3167500000001,207.61711369355524L770.6710472222222,222.4076435009639L770.8015777777778,245.90709001223252L775.1463805555555,253.82150878906253L775.6498555555556,253.84450406233475" style="fill: none;" fill="none"></path></g></g></g></g></g></g><g transform="translate(48, 377)" clip-path="url(#clip_1)"><clipPath id="clip_1"><rect width="839" height="23"></rect></clipPath><g><g><line x1="0" y1="0" x2="0" y2="5" style="visibility: inherit;" fill="rgb(0, 0, 0)" stroke="rgb(204, 204, 204)" stroke-width="1px"></line><line x1="93.2361111111111" y1="0" x2="93.2361111111111" y2="5" style="visibility: inherit;" fill="rgb(0, 0, 0)" stroke="rgb(204, 204, 204)" stroke-width="1px"></line><line x1="186.4722222222222" y1="0" x2="186.4722222222222" y2="5" style="visibility: inherit;" fill="rgb(0, 0, 0)" stroke="rgb(204, 204, 204)" stroke-width="1px"></line><line x1="279.7083333333333" y1="0" x2="279.7083333333333" y2="5" style="visibility: inherit;" fill="rgb(0, 0, 0)" stroke="rgb(204, 204, 204)" stroke-width="1px"></line><line x1="372.9444444444444" y1="0" x2="372.9444444444444" y2="5" style="visibility: inherit;" fill="rgb(0, 0, 0)" stroke="rgb(204, 204, 204)" stroke-width="1px"></line><line x1="466.1805555555556" y1="0" x2="466.1805555555556" y2="5" style="visibility: inherit;" fill="rgb(0, 0, 0)" stroke="rgb(204, 204, 204)" stroke-width="1px"></line><line x1="559.4166666666666" y1="0" x2="559.4166666666666" y2="5" style="visibility: inherit;" fill="rgb(0, 0, 0)" stroke="rgb(204, 204, 204)" stroke-width="1px"></line><line x1="652.6527777777778" y1="0" x2="652.6527777777778" y2="5" style="visibility: inherit;" fill="rgb(0, 0, 0)" stroke="rgb(204, 204, 204)" stroke-width="1px"></line><line x1="745.8888888888888" y1="0" x2="745.8888888888888" y2="5" style="visibility: inherit;" fill="rgb(0, 0, 0)" stroke="rgb(204, 204, 204)" stroke-width="1px"></line><line x1="839.125" y1="0" x2="839.125" y2="5" style="visibility: inherit;" fill="rgb(0, 0, 0)" stroke="rgb(204, 204, 204)" stroke-width="1px"></line></g><g transform="translate(0, 8)"><text x="0" y="0" dx="0em" dy="0.95em" style="text-anchor: middle; visibility: hidden; font-family: &quot;Helvetica Neue&quot;, sans-serif; font-size: 12px; font-weight: 200;" fill="rgb(50, 49, 63)" stroke="none" stroke-width="1px">-5k</text><text x="93.2361111111111" y="0" dx="0em" dy="0.95em" style="text-anchor: middle; visibility: inherit; font-family: &quot;Helvetica Neue&quot;, sans-serif; font-size: 12px; font-weight: 200;" fill="rgb(50, 49, 63)" stroke="none" stroke-width="1px">0</text><text x="186.4722222222222" y="0" dx="0em" dy="0.95em" style="text-anchor: middle; visibility: inherit; font-family: &quot;Helvetica Neue&quot;, sans-serif; font-size: 12px; font-weight: 200;" fill="rgb(50, 49, 63)" stroke="none" stroke-width="1px">5k</text><text x="279.7083333333333" y="0" dx="0em" dy="0.95em" style="text-anchor: middle; visibility: inherit; font-family: &quot;Helvetica Neue&quot;, sans-serif; font-size: 12px; font-weight: 200;" fill="rgb(50, 49, 63)" stroke="none" stroke-width="1px">10k</text><text x="372.9444444444444" y="0" dx="0em" dy="0.95em" style="text-anchor: middle; visibility: inherit; font-family: &quot;Helvetica Neue&quot;, sans-serif; font-size: 12px; font-weight: 200;" fill="rgb(50, 49, 63)" stroke="none" stroke-width="1px">15k</text><text x="466.1805555555556" y="0" dx="0em" dy="0.95em" style="text-anchor: middle; visibility: inherit; font-family: &quot;Helvetica Neue&quot;, sans-serif; font-size: 12px; font-weight: 200;" fill="rgb(50, 49, 63)" stroke="none" stroke-width="1px">20k</text><text x="559.4166666666666" y="0" dx="0em" dy="0.95em" style="text-anchor: middle; visibility: inherit; font-family: &quot;Helvetica Neue&quot;, sans-serif; font-size: 12px; font-weight: 200;" fill="rgb(50, 49, 63)" stroke="none" stroke-width="1px">25k</text><text x="652.6527777777778" y="0" dx="0em" dy="0.95em" style="text-anchor: middle; visibility: inherit; font-family: &quot;Helvetica Neue&quot;, sans-serif; font-size: 12px; font-weight: 200;" fill="rgb(50, 49, 63)" stroke="none" stroke-width="1px">30k</text><text x="745.8888888888888" y="0" dx="0em" dy="0.95em" style="text-anchor: middle; visibility: inherit; font-family: &quot;Helvetica Neue&quot;, sans-serif; font-size: 12px; font-weight: 200;" fill="rgb(50, 49, 63)" stroke="none" stroke-width="1px">35k</text><text x="839.125" y="0" dx="0em" dy="0.95em" style="text-anchor: middle; visibility: hidden; font-family: &quot;Helvetica Neue&quot;, sans-serif; font-size: 12px; font-weight: 200;" fill="rgb(50, 49, 63)" stroke="none" stroke-width="1px">40k</text></g><line x1="0" y1="0" x2="839.125" y2="0" fill="rgb(0, 0, 0)" stroke="rgb(204, 204, 204)" stroke-width="1px"></line></g></g></g></g></svg>