<svg viewBox="0 0 330 200" xmlns="http://www.w3.org/2000/svg"><g><g><g><g><g><line x1="48.875" y1="165.20000000000005" x2="43.875" y2="165.20000000000005" style="visibility: inherit;" fill="rgb(0, 0, 0)" stroke="rgb(204, 204, 204)" stroke-width="1px"></line><line x1="48.875" y1="153.40000000000003" x2="43.875" y2="153.40000000000003" style="visibility: inherit;" fill="rgb(0, 0, 0)" stroke="rgb(204, 204, 204)" stroke-width="1px"></line><line x1="48.875" y1="141.60000000000002" x2="43.875" y2="141.60000000000002" style="visibility: inherit;" fill="rgb(0, 0, 0)" stroke="rgb(204, 204, 204)" stroke-width="1px"></line><line x1="48.875" y1="129.8" x2="43.875" y2="129.8" style="visibility: inherit;" fill="rgb(0, 0, 0)" stroke="rgb(204, 204, 204)" stroke-width="1px"></line><line x1="48.875" y1="118" x2="43.875" y2="118" style="visibility: inherit;" fill="rgb(0, 0, 0)" stroke="rgb(204, 204, 204)" stroke-width="1px"></line><line x1="48.875" y1="106.19999999999999" x2="43.875" y2="106.19999999999999" style="visibility: inherit;" fill="rgb(0, 0, 0)" stroke="rgb(204, 204, 204)" stroke-width="1px"></line><line x1="48.875" y1="94.40000000000003" x2="43.875" y2="94.40000000000003" style="visibility: inherit;" fill="rgb(0, 0, 0)" stroke="rgb(204, 204, 204)" stroke-width="1px"></line><line x1="48.875" y1="82.60000000000002" x2="43.875" y2="82.60000000000002" style="visibility: inherit;" fill="rgb(0, 0, 0)" stroke="rgb(204, 204, 204)" stroke-width="1px"></line><line x1="48.875" y1="70.8" x2="43.875" y2="70.8" style="visibility: inherit;" fill="rgb(0, 0, 0)" stroke="rgb(204, 204, 204)" stroke-width="1px"></line><line x1="48.875" y1="59" x2="43.875" y2="59" style="visibility: inherit;" fill="rgb(0, 0, 0)" stroke="rgb(204, 204, 204)" stroke-width="1px"></line><line x1="48.875" y1="47.19999999999999" x2="43.875" y2="47.19999999999999" style="visibility: inherit;" fill="rgb(0, 0, 0)" stroke="rgb(204, 204, 204)" stroke-width="1px"></line><line x1="48.875" y1="35.39999999999998" x2="43.875" y2="35.39999999999998" style="visibility: inherit;" fill="rgb(0, 0, 0)" stroke="rgb(204, 204, 204)" stroke-width="1px"></line><line x1="48.875" y1="23.600000000000023" x2="43.875" y2="23.600000000000023" style="visibility: inherit;" fill="rgb(0, 0, 0)" stroke="rgb(204, 204, 204)" stroke-width="1px"></line><line x1="48.875" y1="11.800000000000011" x2="43.875" y2="11.800000000000011" style="visibility: inherit;" fill="rgb(0, 0, 0)" stroke="rgb(204, 204, 204)" stroke-width="1px"></line><line x1="48.875" y1="0" x2="43.875" y2="0" style="visibility: inherit;" fill="rgb(0, 0, 0)" stroke="rgb(204, 204, 204)" stroke-width="1px"></line></g><g transform="translate(38.875, 0)"><text x="0" y="165.20000000000005" dx="0em" dy="0.3em" style="text-anchor: end; visibility: inherit; font-family: &quot;Helvetica Neue&quot;, sans-serif; font-size: 12px; font-weight: 200;" fill="rgb(50, 49, 63)" stroke="none" stroke-width="1px">0.58</text><text x="0" y="153.40000000000003" dx="0em" dy="0.3em" style="text-anchor: end; visibility: hidden; font-family: &quot;Helvetica Neue&quot;, sans-serif; font-size: 12px; font-weight: 200;" fill="rgb(50, 49, 63)" stroke="none" stroke-width="1px">0.6</text><text x="0" y="141.60000000000002" dx="0em" dy="0.3em" style="text-anchor: end; visibility: hidden; font-family: &quot;Helvetica Neue&quot;, sans-serif; font-size: 12px; font-weight: 200;" fill="rgb(50, 49, 63)" stroke="none" stroke-width="1px">0.62</text><text x="0" y="129.8" dx="0em" dy="0.3em" style="text-anchor: end; visibility: inherit; font-family: &quot;Helvetica Neue&quot;, sans-serif; font-size: 12px; font-weight: 200;" fill="rgb(50, 49, 63)" stroke="none" stroke-width="1px">0.64</text><text x="0" y="118" dx="0em" dy="0.3em" style="text-anchor: end; visibility: hidden; font-family: &quot;Helvetica Neue&quot;, sans-serif; font-size: 12px; font-weight: 200;" fill="rgb(50, 49, 63)" stroke="none" stroke-width="1px">0.66</text><text x="0" y="106.19999999999999" dx="0em" dy="0.3em" style="text-anchor: end; visibility: hidden; font-family: &quot;Helvetica Neue&quot;, sans-serif; font-size: 12px; font-weight: 200;" fill="rgb(50, 49, 63)" stroke="none" stroke-width="1px">0.68</text><text x="0" y="94.40000000000003" dx="0em" dy="0.3em" style="text-anchor: end; visibility: inherit; font-family: &quot;Helvetica Neue&quot;, sans-serif; font-size: 12px; font-weight: 200;" fill="rgb(50, 49, 63)" stroke="none" stroke-width="1px">0.7</text><text x="0" y="82.60000000000002" dx="0em" dy="0.3em" style="text-anchor: end; visibility: hidden; font-family: &quot;Helvetica Neue&quot;, sans-serif; font-size: 12px; font-weight: 200;" fill="rgb(50, 49, 63)" stroke="none" stroke-width="1px">0.72</text><text x="0" y="70.8" dx="0em" dy="0.3em" style="text-anchor: end; visibility: hidden; font-family: &quot;Helvetica Neue&quot;, sans-serif; font-size: 12px; font-weight: 200;" fill="rgb(50, 49, 63)" stroke="none" stroke-width="1px">0.74</text><text x="0" y="59" dx="0em" dy="0.3em" style="text-anchor: end; visibility: inherit; font-family: &quot;Helvetica Neue&quot;, sans-serif; font-size: 12px; font-weight: 200;" fill="rgb(50, 49, 63)" stroke="none" stroke-width="1px">0.76</text><text x="0" y="47.19999999999999" dx="0em" dy="0.3em" style="text-anchor: end; visibility: hidden; font-family: &quot;Helvetica Neue&quot;, sans-serif; font-size: 12px; font-weight: 200;" fill="rgb(50, 49, 63)" stroke="none" stroke-width="1px">0.78</text><text x="0" y="35.39999999999998" dx="0em" dy="0.3em" style="text-anchor: end; visibility: hidden; font-family: &quot;Helvetica Neue&quot;, sans-serif; font-size: 12px; font-weight: 200;" fill="rgb(50, 49, 63)" stroke="none" stroke-width="1px">0.8</text><text x="0" y="23.600000000000023" dx="0em" dy="0.3em" style="text-anchor: end; visibility: inherit; font-family: &quot;Helvetica Neue&quot;, sans-serif; font-size: 12px; font-weight: 200;" fill="rgb(50, 49, 63)" stroke="none" stroke-width="1px">0.82</text><text x="0" y="11.800000000000011" dx="0em" dy="0.3em" style="text-anchor: end; visibility: hidden; font-family: &quot;Helvetica Neue&quot;, sans-serif; font-size: 12px; font-weight: 200;" fill="rgb(50, 49, 63)" stroke="none" stroke-width="1px">0.84</text><text x="0" y="0" dx="0em" dy="0.3em" style="text-anchor: end; visibility: hidden; font-family: &quot;Helvetica Neue&quot;, sans-serif; font-size: 12px; font-weight: 200;" fill="rgb(50, 49, 63)" stroke="none" stroke-width="1px">0.86</text></g><line x1="48.875" y1="0" x2="48.875" y2="177" fill="rgb(0, 0, 0)" stroke="rgb(204, 204, 204)" stroke-width="1px"></line></g></g><g transform="translate(48, 0)" clip-path="url(#clip_0)"><clipPath id="clip_0"><rect width="281" height="177"></rect></clipPath><g><g><g><line x1="0" y1="0" x2="0" y2="177" fill="rgb(0, 0, 0)" stroke="rgb(60, 60, 60)" stroke-width="1px" opacity="0.25"></line><line x1="31.23611111111111" y1="0" x2="31.23611111111111" y2="177" fill="rgb(0, 0, 0)" stroke="rgb(60, 60, 60)" stroke-width="1px" opacity="0.25"></line><line x1="62.47222222222222" y1="0" x2="62.47222222222222" y2="177" fill="rgb(0, 0, 0)" stroke="rgb(60, 60, 60)" stroke-width="1px" opacity="0.25"></line><line x1="93.70833333333333" y1="0" x2="93.70833333333333" y2="177" fill="rgb(0, 0, 0)" stroke="rgb(60, 60, 60)" stroke-width="1px" opacity="0.25"></line><line x1="124.94444444444444" y1="0" x2="124.94444444444444" y2="177" fill="rgb(0, 0, 0)" stroke="rgb(60, 60, 60)" stroke-width="1px" opacity="0.25"></line><line x1="156.18055555555557" y1="0" x2="156.18055555555557" y2="177" fill="rgb(0, 0, 0)" stroke="rgb(60, 60, 60)" stroke-width="1px" opacity="0.25"></line><line x1="187.41666666666666" y1="0" x2="187.41666666666666" y2="177" fill="rgb(0, 0, 0)" stroke="rgb(60, 60, 60)" stroke-width="1px" opacity="0.25"></line><line x1="218.65277777777777" y1="0" x2="218.65277777777777" y2="177" fill="rgb(0, 0, 0)" stroke="rgb(60, 60, 60)" stroke-width="1px" opacity="0.25"></line><line x1="249.88888888888889" y1="0" x2="249.88888888888889" y2="177" fill="rgb(0, 0, 0)" stroke="rgb(60, 60, 60)" stroke-width="1px" opacity="0.25"></line><line x1="281.125" y1="0" x2="281.125" y2="177" fill="rgb(0, 0, 0)" stroke="rgb(60, 60, 60)" stroke-width="1px" opacity="0.25"></line></g><g><line x1="0" y1="165.20000000000005" x2="281.125" y2="165.20000000000005" fill="rgb(0, 0, 0)" stroke="rgb(60, 60, 60)" stroke-width="1px" opacity="0.25"></line><line x1="0" y1="153.40000000000003" x2="281.125" y2="153.40000000000003" fill="rgb(0, 0, 0)" stroke="rgb(60, 60, 60)" stroke-width="1px" opacity="0.25"></line><line x1="0" y1="141.60000000000002" x2="281.125" y2="141.60000000000002" fill="rgb(0, 0, 0)" stroke="rgb(60, 60, 60)" stroke-width="1px" opacity="0.25"></line><line x1="0" y1="129.8" x2="281.125" y2="129.8" fill="rgb(0, 0, 0)" stroke="rgb(60, 60, 60)" stroke-width="1px" opacity="0.25"></line><line x1="0" y1="118" x2="281.125" y2="118" fill="rgb(0, 0, 0)" stroke="rgb(60, 60, 60)" stroke-width="1px" opacity="0.25"></line><line x1="0" y1="106.19999999999999" x2="281.125" y2="106.19999999999999" fill="rgb(0, 0, 0)" stroke="rgb(60, 60, 60)" stroke-width="1px" opacity="0.25"></line><line x1="0" y1="94.40000000000003" x2="281.125" y2="94.40000000000003" fill="rgb(0, 0, 0)" stroke="rgb(60, 60, 60)" stroke-width="1px" opacity="0.25"></line><line x1="0" y1="82.60000000000002" x2="281.125" y2="82.60000000000002" fill="rgb(0, 0, 0)" stroke="rgb(60, 60, 60)" stroke-width="1px" opacity="0.25"></line><line x1="0" y1="70.8" x2="281.125" y2="70.8" fill="rgb(0, 0, 0)" stroke="rgb(60, 60, 60)" stroke-width="1px" opacity="0.25"></line><line x1="0" y1="59" x2="281.125" y2="59" fill="rgb(0, 0, 0)" stroke="rgb(60, 60, 60)" stroke-width="1px" opacity="0.25"></line><line x1="0" y1="47.19999999999999" x2="281.125" y2="47.19999999999999" fill="rgb(0, 0, 0)" stroke="rgb(60, 60, 60)" stroke-width="1px" opacity="0.25"></line><line x1="0" y1="35.39999999999998" x2="281.125" y2="35.39999999999998" fill="rgb(0, 0, 0)" stroke="rgb(60, 60, 60)" stroke-width="1px" opacity="0.25"></line><line x1="0" y1="23.600000000000023" x2="281.125" y2="23.600000000000023" fill="rgb(0, 0, 0)" stroke="rgb(60, 60, 60)" stroke-width="1px" opacity="0.25"></line><line x1="0" y1="11.800000000000011" x2="281.125" y2="11.800000000000011" fill="rgb(0, 0, 0)" stroke="rgb(60, 60, 60)" stroke-width="1px" opacity="0.25"></line><line x1="0" y1="0" x2="281.125" y2="0" fill="rgb(0, 0, 0)" stroke="rgb(60, 60, 60)" stroke-width="1px" opacity="0.25"></line></g></g></g><g><g><line x1="0" y1="507.40000000000015" x2="281.125" y2="507.40000000000015" fill="rgb(0, 0, 0)" stroke="rgb(153, 153, 153)" stroke-width="1.5px"></line></g></g><g><g><line x1="31.23611111111111" y1="0" x2="31.23611111111111" y2="177" fill="rgb(0, 0, 0)" stroke="rgb(153, 153, 153)" stroke-width="1.5px"></line></g></g><g><g><g><g><g><path stroke="rgb(255, 112, 67)" stroke-width="2px" d="M39.11385833333333,-15.846794196835702L39.45745555555556,7.657537717324573L39.476197222222225,1.9346054548321945L39.56365833333333,6.515177469582142L39.58864722222222,-2.8189132832305575L39.888513888888895,9.292290765056293L39.93224444444444,-8.94877405209428L40.20712222222222,-22.23596798352449L40.39453888888889,17.537458466195943L40.75063055555556,30.583451309787648L40.9318,37.19007185439989L41.031755555555556,39.687155037858474L41.13171111111111,48.96755140190601L41.48155555555555,51.46588751537165L41.80016388888889,41.453858509355626L41.912613888888885,43.71417297763361L41.96883888888889,41.32534293795567L42.06879444444444,44.84899390975218L42.087536111111106,35.18606819413833L42.362413888888895,35.867601819651156L42.755988888888886,29.989004208930197L42.89342777777778,29.228427177839052L42.912169444444444,24.17241197953905L42.96214722222222,39.039855335536544L43.21203611111111,20.274700087536274L43.318238888888885,36.79814773692473L43.39945277777778,38.045119950138314L43.95545555555555,33.199414280034745L44.33028888888889,28.624158980236956L44.89878611111111,39.020113359562515L44.973752777777776,62.70539697806363L45.17366388888889,67.67206102848253L45.21114722222222,75.66049256229523L45.33609166666667,81.0512454027183L45.36732777777778,70.43284285511051L45.64845277777778,77.88230217722342L45.723419444444446,80.42339152590802L45.94207222222222,83.26940023956523L46.160725000000006,70.81208156143332L46.16697222222222,57.27245450135884L46.454344444444445,66.82951661179554L46.560547222222226,65.96989158290685L46.57304166666666,54.352862817633465L46.604277777777774,66.21194524680871L46.76045833333333,64.51339981982294L46.76670555555556,64.98995623367539L46.84167222222222,54.06369230137766L46.872908333333335,55.61676534763879L47.05407777777777,58.13350383253041L47.14778611111111,59.15447603113142L47.185269444444444,48.697371268550654L48.009902777777775,52.474733424353644L48.3535,65.53701649199016L48.659613888888885,61.63322450929934L49.328066666666665,62.26623842605389L49.77161944444445,70.28851093702576L50.04649722222222,76.82621225984734L50.21517222222222,83.35475885195643L50.23391388888889,104.98929856373738L50.59625277777777,106.07488651128936L50.983580555555555,97.9877403536578L51.20223333333333,84.81723848099352L51.41463888888889,89.59288487860465L51.5021,99.66435982959811L51.51459444444444,102.08421246872753L51.52084166666666,87.83344298759943L51.883180555555555,85.91299500322253L52.976444444444446,96.89458799276305L53.726111111111116,79.48550692506764L53.83856111111111,75.3047880226858L53.851055555555554,72.39084196415469L54.16341666666667,108.73325887874915L54.51326111111111,110.91749654505347L54.606969444444445,109.41437637742577L54.931824999999996,102.59385746441018L55.06301666666666,106.28879878116683L55.10674722222222,106.7134414124074L55.7752,115.95638164088619L55.95012222222222,118.67202497604785L56.12504444444445,113.27629191090648L56.4499,113.82066926962123L56.837227777777784,108.68666049960846L57.44945555555556,84.36904663278817L57.643119444444444,87.77452318688722L57.67435555555556,88.30413414490515L58.124155555555554,82.28374282748875L58.20536944444444,84.81685372490517L58.217863888888886,80.45419672667282L58.723888888888894,102.34440239154877L59.298633333333335,109.97540918280835L59.40483611111111,113.58602762752861L59.53602777777778,101.20019050916484L60.14825555555556,105.46403483200348L60.373155555555556,118.5497021034257L60.39814444444445,125.69461671798805L60.448122222222224,113.85362006359921L60.91041666666667,115.75144035061378L61.14781111111111,122.98049149537198L61.23527222222222,107.63729197516507L61.47266666666667,104.00981602868124L61.54763333333334,98.88725788236076L61.81001666666666,88.65537824893246L62.23482777777778,84.24047575154455L62.29105277777778,79.68295085047815L62.30979444444445,73.80254591235601L62.78458333333333,82.60642074542695L62.79707777777778,75.80120549558073L63.13442777777777,79.64745890831036L63.30935,99.62668088278227L63.96530833333333,118.92336786270774L64.52755833333333,129.67634018707656L64.62751388888888,114.70018464355701L64.714975,119.49435348289626L65.09605555555555,121.72275989399803L65.70203611111111,115.6754915877965L65.90194722222222,106.11741330175327L66.62037777777778,85.12727653711279L66.71408611111111,96.93200558024193L66.98896388888889,99.0657854270789L67.51997777777777,94.46603367041665L67.62618055555555,98.10731710738614L67.64492222222222,85.9246450385253L67.86982222222223,106.91038400416382L67.91355277777778,110.70613327076917L68.13845277777777,121.27750382453729L68.26964444444444,119.25036060351451L68.65697222222222,125.02146685801931L68.78191666666667,137.102345217961L69.47535833333333,127.52467007976651L69.53783055555556,126.066437990319L69.96888888888888,115.56667135170179L70.05010277777778,109.34163212544365L70.08758611111111,112.05513378004223L70.16879999999999,107.72605927956101L70.52489166666668,92.18368116481305L70.66857777777777,91.47313509621142L70.69981388888888,91.25054948233316L71.06840000000001,108.37026516379568L71.21833333333333,85.93985339034587L71.81806666666667,87.1424797393619L71.968,90.29376784430379L72.30534999999999,89.3362738672878L72.48651944444444,98.83424933814915L72.82386944444445,113.00792366065926L73.0675111111111,128.50275578140233L73.08625277777777,136.08026871466052L73.16121944444444,137.19028260101922L73.35488333333333,126.99086534613403L74.00459444444445,128.83908403655312L74.05457222222222,129.08274463618056L74.14828055555556,119.99006155374204L74.7542611111111,118.91875956560705L74.91668888888888,118.35673527542079L75.05412777777778,113.83411592378218L75.62887222222223,103.70621383031612L75.67885,105.34941609764346L75.93498611111112,109.08992010154876L76.31606666666667,104.79177398323148L76.50973055555555,92.49060485624754L76.90955277777778,84.30731396355316L77.084475,98.16803726004416L77.09072222222221,120.24531523017203L77.20941944444445,129.63300438659263L77.35310555555556,142.92026380024475L77.47180277777777,125.87881239010169L77.77791666666667,137.71317973943516L77.8403888888889,139.3536010313747L77.85913055555555,134.6207827501725L77.95283888888888,134.87690434057896L78.15899722222223,135.60549723386393L79.25850833333332,118.33095229196323L79.29599166666667,105.15616363363127L79.71455555555556,112.11871921823419L79.88947777777777,98.35648854616882L79.95195,105.13169380213974L80.17060277777777,106.99039939514493L80.58916666666667,97.77294514818011L80.78907777777778,91.98711986448183L81.15766388888889,91.18286722127088L81.37631666666667,101.43366901173283L81.52000277777778,118.17649890002066L81.62620555555554,120.69159103999407L82.33838888888889,117.04110877019093L82.55704166666668,122.97360497654631L82.594525,124.03897900307868L83.02558333333333,125.68165119007051L83.30046111111112,110.79369121262324L83.48163055555555,117.21794943254531L83.51286666666667,120.17351587916224L83.56909166666667,122.37140270414832L84.13134166666667,121.04489258493714L84.15008333333334,123.8842850039347L84.32500555555555,123.23105957924987L84.38747777777778,112.15902745973868L84.74981666666666,85.06755837113734L84.96846944444444,83.99815369791436L85.17462777777779,79.96352531162887L85.180875,86.85463387517923L85.55570833333334,87.33104367464065L86.3303638888889,95.15579469805527L86.34910555555555,120.05271387938006L86.69895,133.7958714153966L86.86137777777779,128.87327052036528L86.88011944444445,142.1097458033538L87.01131111111111,119.31675791673524L87.05504166666667,119.21622725446618L87.41738055555555,112.01729968619101L87.4548638888889,119.45992367882585L87.80470833333334,132.2954354942981L88.87298333333332,117.51333723194257L88.91671388888889,112.24714996413499L89.08538888888889,89.90793344733781L89.43523333333333,101.74291200016539L89.63514444444444,105.6904693852341L90.03496666666666,88.24174378934362L90.05370833333335,81.75616865290914L90.17865277777777,84.40956496318411L90.38481111111112,88.05858979654451L90.87834166666666,112.56694223661505L90.92207222222223,127.92722260820443L91.00328611111111,140.59897321145283L91.140725,138.10449893045748L91.37811944444445,138.67341022710997L91.56553611111111,140.09827241075635L91.70922222222222,133.03501831515197L91.82167222222222,124.70706141366699L92.25897777777779,119.6649362443336L92.72751944444444,118.78040129890726L93.12734166666667,103.68904619545152L93.53341111111112,105.2368365688944L94.07067222222221,110.85351862453362L94.2331,103.78173489298193L94.75786666666667,103.71290047482111L95.43256666666667,123.06820936867868L95.47629722222221,125.70511234682371L96.18223333333334,121.24743680048928L96.200975,115.51309998922912L96.33216666666667,124.3536942582927L96.70075277777778,124.8915508235456L96.763225,122.75537813931473L96.78821388888888,124.80203770893672L96.96938333333333,114.52824459611092L97.17554166666667,123.73025882088373L97.50039722222222,122.55911005403537L97.6066,106.83541182557309L97.69406111111111,112.40001867699368L97.79401666666666,103.31803073935353L97.90021944444445,95.28001728089242L98.15010833333334,93.66518960017913L98.43748055555555,109.1502059651551L98.44372777777777,102.96589472968208L98.58116666666668,105.0918193619182L98.79981944444445,105.84558411364144L98.86229166666668,102.71838925793402L98.96224722222223,98.4129508502163L99.01847222222221,101.95010730784402L99.10593333333333,110.40211905694758L99.34332777777779,100.80157913718674L99.36206944444444,95.15955610009466L99.574475,90.38286469300054L99.59946388888889,80.29261669826185L99.74315,91.28904792613791L99.78063333333333,94.44565824596285L99.79312777777778,99.74888518767477L100.04301666666666,113.88060491631578L100.0805,130.01671621173713L100.16171388888888,151.82065381151494L100.19295,130.81759695495404L100.59277222222222,135.18305395773194L100.71146944444443,126.59231071669547L100.76769444444444,132.8307492649477L101.04881944444445,134.24100556826124L101.19250555555554,127.94198103222564L101.205,128.85773409052678L101.21124722222223,127.12586320784081L101.57983333333334,115.1323010381841L102.57314166666667,121.48157627682586L102.90424444444444,109.27938690722402L103.02918888888888,106.46460666978605L103.22285277777777,109.94949751093533L103.27907777777779,108.81775192376699L103.38528055555555,119.4195618960662L103.49148333333332,101.71819961627737L103.68514722222223,99.73327869272484L104.00375555555556,90.50652901945264L104.14744166666667,100.5094942701921L104.23490277777778,92.58137587386761L104.69719722222221,112.77661536501883L105.40938055555556,115.78169088344004L106.00911388888888,127.88475092876091L106.04034999999999,122.85831505196174L106.26525,118.64859895549344L106.4589138888889,116.21473735715233L107.06489444444443,118.0113528951722L107.22732222222223,126.98888338474737L107.25231111111111,123.00962657015506L107.35226666666668,118.12686564851393L107.61465,110.13108847098701L108.01447222222222,99.35723156426639L108.0332138888889,105.39628317531526L108.13316944444445,109.91719749079098L108.73290277777778,124.60862100187512L109.06400555555555,131.4445160249685L109.65749166666667,141.3143972027191L110.39466388888889,143.05885474848085L110.56958611111111,134.92543455700473L110.93817222222222,130.34790080988643L111.23179166666667,123.78066894891404L111.68159166666666,122.23881406237213L111.80028888888889,116.37097356468158L112.06891944444445,104.65587014764382L112.19386388888888,110.87350027805473L112.55620277777778,120.71783024457633L112.66240555555555,108.44679636947839L112.83108055555556,114.25963447566349L112.96227222222223,103.1149771194191L113.0372388888889,95.96104179266283L113.13094722222223,102.02401964690202L113.1559361111111,103.75071908489411L113.2621388888889,98.75814663800922L113.48703888888889,89.56044209619361L113.73692777777777,115.92626503837108L113.94308611111111,121.96519902546402L114.63028055555554,127.22908785819527L114.96138333333333,117.60597088622757L114.98637222222223,115.41955835990734L115.11131666666667,117.11449528320212L115.41743055555555,114.19037710537661L115.5986,112.32091095751613L115.86098333333334,97.6631308812266L116.17959166666667,94.57693914046082L116.32327777777779,98.69341381234047L116.69186388888889,93.08271313573192L116.71060555555556,103.23365627804561L117.116675,98.34050972866515L117.29784444444444,92.00871034388243L117.51025,101.41077493145765L117.72890277777779,98.60791664191903L117.87258888888888,98.43329342883125L117.97254444444444,107.39589778352556L118.42859166666668,126.32406354766358L118.54728888888889,139.21911403191845L118.68472777777778,123.57756256015755L119.197,127.64742656082905L120.07785833333332,133.06130026060939L120.490175,125.27569394039273L120.53390555555555,117.77022847132181L120.59013055555555,122.61056925175365L120.69633333333334,125.81668721984491L120.7713,120.24015033811726L120.80878333333334,120.53114436966419L121.17736944444445,110.53571639360335L121.48973055555555,116.92767412365288L121.78335,115.98737421334275L122.00825,109.11231169879731L122.15818333333333,119.02998664009746L122.176925,108.7635336615335L122.64546666666668,94.31334195480889L122.68295,101.48229868141505L122.87036666666667,127.36838498430068L122.92659166666667,146.3307492275036L122.95158055555555,145.08264682883006L122.98906388888888,156.24318489905585L123.56380833333333,134.55660035059682L123.57005555555556,132.43204738763467L123.62003333333332,139.46613323490317L123.64502222222222,138.8396373117L123.75122499999999,121.5288583090323L124.15104722222223,111.60541027846443L124.26974444444446,109.67306616105144L124.48215,109.84270927785343L125.11311944444445,117.52652878212038L125.50669444444443,121.69229881910746L125.79406666666667,114.71487289993925L126.06894444444444,106.93658494906998L126.18764166666668,112.13094292615281L126.60620555555556,124.3552089460756L126.96854444444445,118.47360110807806L127.11223055555556,104.85022050218817L127.61825555555555,125.69399986074589L127.89938055555555,131.12877051237953L127.91187500000001,138.42223116042453L128.11178611111112,132.33334673572924L128.30544999999998,133.3579662247261L128.67403611111112,127.7973457672453L129.5673888888889,129.09188460458856L129.71732222222224,108.3344372794005L129.77354722222222,127.5124518898113L129.81103055555556,118.4617688767304L130.09840277777778,109.54546295834724L130.11714444444445,123.66532323857035L130.23584166666666,118.16826457798412L131.060475,103.2831792153116L131.1479361111111,114.19684621555781L131.7851527777778,101.81379131354791L131.91634444444446,121.01374748634043L132.36614444444444,130.87155817083567L132.74722500000001,131.07271833260097L133.197025,125.72765896701361L133.33446388888888,116.09205879916877L133.44066666666666,106.64910955280143L133.72803888888888,114.2311575213079L133.94044444444444,109.97561917060635L134.3465138888889,114.9263299641253L134.68386388888888,110.9318287668968L134.84629166666667,115.42800610413222L134.87752777777777,122.12286268919743L135.32108055555554,101.21072142630837L135.54598055555556,101.97396351641429L135.85209444444445,105.05772487727413L136.23942222222223,114.75807029013399L136.24566944444445,115.43307394745683L136.458075,135.04109981395447L136.54553611111112,130.620704390631L136.80791944444445,144.91216840387935L137.85120555555557,147.9152847268674L138.04486944444446,141.32428838601672L138.257275,128.0078400813995L138.63835555555556,124.38770586272825L138.7008277777778,126.63609866869895L138.931975,117.90682481630114L138.9819527777778,101.08696794809977L139.13813333333334,122.20947462261964L139.25058333333334,118.06057448113707L139.26307777777777,121.1068872721478L139.4067638888889,122.76192185112737L139.41301111111113,130.199374380284L139.41925833333335,124.68992278490873L139.438,117.50552915998938L139.55669722222223,115.19052110355281L139.77535,99.07537338639014L139.9690138888889,96.1908773845715L140.10020555555556,108.9513807074L140.21265555555556,102.76553320501867L140.27512777777778,107.35862231978555L140.83113055555557,115.86020070510375L140.91859166666666,113.42127199052138L141.0435361111111,133.9284202377699L141.0997611111111,145.97668124918354L141.14349166666668,146.24467699101098L141.1497388888889,148.83543993217066L141.33090833333335,151.73480045069644L141.39338055555558,160.44637778323528L141.51832499999998,147.11732633424785L141.94938333333334,147.53533864684695L142.25549722222223,130.8182359830606L142.46165555555555,131.56261351442745L142.69905000000003,134.60093033514266L143.39249166666667,115.56310847879553L143.54867222222222,108.92531459975903L143.5674138888889,114.69993173509039L143.62363888888888,118.28144152777912L143.79856111111113,110.83238740812261L144.0172138888889,120.16826375514579L144.09218055555556,112.94277726286838L144.33582222222222,114.0832563178193L144.49200277777777,104.68144126513316L144.59820555555555,102.94803822862333L145.02301666666668,98.29455756203669L145.16045555555556,111.70173273477752L145.33537777777778,105.13166892286425L145.67272777777777,128.28274858806301L146.50360833333335,118.58626178749665L146.50985555555556,128.87444141774338L147.10334166666667,121.6211378387747L147.38446666666667,129.68480152917732L148.14038055555554,124.20149109740751L148.1841111111111,121.7564631437045L148.96501388888888,111.991924303459L149.26488055555555,104.76802813630518L149.67095,114.08636153472202L149.78964722222221,100.89868792493782L149.82088333333334,92.07624985098624L149.96456944444446,77.43645207238065L150.10200833333334,93.60520440192143L150.23319999999998,127.1324569669433L150.6580111111111,128.1677712230127L150.98911388888888,128.93016127277852L151.35145277777775,120.5067836113539L151.62633055555557,117.7875753776888L151.65131944444443,126.28031586984757L151.8075,137.6903453408477L152.96323611111112,119.8648408829449L153.05694444444444,110.19459242458814L153.07568611111108,122.36007349750804L153.21312500000002,101.37819916404128L153.25060833333333,106.38573780057929L153.550475,97.97665624617399L153.64418333333333,94.20054377555165L153.93155555555555,87.3448148670156L154.01901666666666,99.7732776798224L154.0877361111111,109.78770886405799L154.1439611111111,102.11317174520786L154.43133333333333,112.20180288843335L154.5000527777778,110.52564149792207L154.5375361111111,100.4502735095931L154.90612222222222,118.8644912789889L155.07479722222223,131.12898935738963L155.21848333333335,139.95803775467732L155.65578888888888,141.7897563915149L155.7932277777778,140.45270306472156L155.9993861111111,133.2772308361779L156.10558888888892,127.91226107670374L156.14931944444444,117.83888764615958L156.39920833333335,115.1221576990849L156.48042222222222,124.14636200798552L156.51165833333332,124.09695780118113L156.54914166666666,124.71611350440864L156.56788333333333,124.99995734252866L157.04267222222222,116.37731253837549L157.04891944444446,113.41492589315777L157.0614138888889,115.19735270500782L157.32379722222223,112.39445833778743L157.3425388888889,118.04719556579806L157.53620277777776,126.38885201698434L157.7048777777778,125.01239070466691L157.72361944444444,113.07081367237288L157.75485555555554,119.26520573653531L158.1047,116.29335201476667L158.19840833333333,121.4668681043068L158.25463333333332,119.86410648689738L158.26712777777777,119.240922359622L158.5732416666667,115.35275731324938L158.92933333333335,103.13721649312849L159.21045833333335,98.33664790429995L159.46659444444444,128.66673546575504L159.54780833333334,139.87234587158554L159.55405555555558,148.9038178222525L159.69149444444446,148.01812030417608L159.72273055555556,156.8489180275374L159.79145,150.9169403093203L160.48489166666667,152.11745946032673L160.61608333333334,144.82151247276585L161.04089444444446,138.20023590811326L161.04714166666665,124.67367940001628L161.06588333333332,119.59034232171142L161.07213055555556,125.66837395114759L161.3719972222222,117.68062852909006L161.52193055555557,116.77241502219346L161.7280888888889,124.27583153017704L161.88426944444447,117.33024936061106L162.3465638888889,110.34835108960273L162.59645277777778,112.5003943589008L162.64643055555555,103.80243737141348L162.8463416666667,105.65070099973717L162.92755555555556,99.9727455433848L163.3273777777778,98.86323255399715L163.7334472222222,86.23583934128193L163.87713333333332,112.16721615207139L164.40189999999998,124.08311959869832L164.42064166666665,134.08241957644924L164.45187777777778,122.32798626315778L164.87044166666666,118.95748093063938L164.98289166666666,130.18503491839957L165.45143333333334,119.77544628597015L165.695075,122.50288079152534L165.70132222222222,111.69573106509466L166.68213611111113,103.57983107413062L166.94451944444444,104.30790775206815L166.95076666666665,117.65976731054266L167.3568361111111,111.97519599003957L167.39431944444445,106.5027116072379L167.5192638888889,104.87454758239997L167.5567472222222,102.5487233385635L167.68793888888888,99.34699467093904L167.72542222222225,101.30565074009397L168.10025555555555,91.92173517061887L168.46884166666666,136.66452020355234L168.6687527777778,147.4310853692781L168.71248333333332,134.76612722712107L170.0493888888889,128.16476243398992L170.20556944444445,133.51602608717926L170.28678333333335,126.97147422049909L170.45545833333333,135.18454102644006L170.49918888888888,130.40942729454443L170.56790833333335,129.55177506531004L170.59914444444445,128.6621234078689L170.64912222222222,126.46104911681911L170.73658333333333,133.51345070193352L170.91150555555555,138.14140368455733L171.3425638888889,128.26267840000446L171.36130555555553,122.83927008588584L171.6236888888889,114.12049650358844L171.84234166666664,113.84438081269079L172.0734888888889,104.42013858130343L172.64198611111112,107.81703395826084L172.7419416666667,107.07473395337144L173.41039444444445,130.67016763490125L173.454125,143.79217527271322L173.52909166666666,143.63819155431398L173.84769999999997,146.27540151439078L173.91641944444444,139.47864671803694L173.9226666666667,141.04953988705387L174.48491666666666,144.31637226292082L174.50365833333333,134.62594158857223L175.422,117.12135840063783L175.4469888888889,103.68802334192688L175.4532361111111,114.06474863841117L175.55943888888888,113.99343340965498L175.6531472222222,109.07031657083265L175.71561944444443,120.40861770739218L175.7843388888889,123.39194177883903L175.815575,125.3930913978698L175.84681111111112,105.78335612618221L175.8718,98.51010825159129L175.90928333333335,98.75951540185194L176.05921666666666,104.93451646157015L176.12168888888888,103.56587079040946L176.28411666666668,99.8050392894312L176.56524166666668,100.25327066113734L176.70892777777777,101.61519177633632L177.02753611111112,106.5764072029478L177.17746944444445,96.39142118982592L177.29616666666666,102.81433413441253L177.38362777777778,106.52809014091054L177.58978611111112,131.26905002456402L178.29572222222222,137.75045461572108L178.6018361111111,134.84656012485564L179.1078611111111,124.01331156510196L179.17658055555555,130.29417969952874L179.301525,125.0222740874938L179.67635833333333,127.0809556046874L179.75757222222222,127.43603946922724L179.98871944444443,119.98651025151315L180.11366388888888,118.03346533212127L180.18238333333335,118.9135473503653L180.71964444444444,122.80035787188913L180.78211666666667,116.1388597903485L181.662975,121.82807692157238L181.89412222222225,128.22089124838718L181.90661666666668,121.48376967144141L182.08778611111111,95.95769893665388L182.33142777777778,116.550168068047L182.63129444444445,124.07883155753356L182.93116111111112,128.88962973362294L182.94365555555555,136.1789845395451L182.99363333333335,128.26702632477077L183.18105,125.78059453708045L183.3247361111111,138.42094023550814L183.41219722222223,129.16075726226128L183.7682888888889,119.23014410421347L184.3680222222222,110.1765685181922L184.6491472222222,111.16831757194437L184.67413611111112,100.6904295156398L185.04896944444442,96.5730906981229L185.33634166666667,102.44758610832686L185.52375833333335,103.86036585872165L185.66119722222223,114.27693190994734L185.711175,107.96297679199499L186.4733361111111,108.61226656111316L186.6607527777778,96.08629233641767L186.79819166666667,113.4811105764112L187.00435000000002,121.37335025049455L187.18551944444445,130.08256385551218L187.46664444444446,132.28212060586412L187.71028611111112,133.44081911835548L188.24754722222224,127.64902655478404L188.70359444444443,128.05225168345027L188.85977499999998,120.36827867196592L188.94098888888888,114.07676993946188L188.9972138888889,111.52656753504255L189.49074444444443,106.00724359300122L189.85933055555557,114.94339498011104L190.5715138888889,100.57768384055989L190.6652222222222,99.34557958267149L190.99007777777777,114.23960708035241L191.15875277777778,100.67261538537272L191.54608055555556,122.47400209445914L191.7022611111111,134.1117458268354L192.25826388888888,126.88784480597673L192.48941111111114,130.64583536449732L192.7080638888889,121.2782611254672L192.9142222222222,110.20071060441849L193.17035833333335,108.14429798473668L193.84505833333333,107.99641342371558L193.9450138888889,107.77544167643703L194.07620555555553,110.37432968977639L194.13243055555557,93.12000497557845L194.2323861111111,96.38097583042462L194.6259611111111,96.76775725118443L194.63220833333335,90.00872030873371L194.71966944444443,94.56350880038302L195.4068638888889,85.0802580760215L195.48807777777776,96.97990939654676L195.55679722222223,96.50981449626546L196.18151944444446,113.5421866008202L196.60008333333334,141.08113105228904L196.86246666666668,147.95880942780593L197.84952777777775,127.2070435454775L198.37429444444444,120.4317130524116L198.3867888888889,122.33101899851546L198.63667777777778,129.0701463760685L198.642925,116.69134582887592L198.64917222222223,114.54269170409742L198.7491277777778,109.71610494402826L198.83034166666667,112.0641890856491L198.8428361111111,98.64551800804536L199.46131111111112,108.25060732315306L200.39839444444442,113.36407494992213L200.7982166666667,138.1333681705606L200.8357,143.18995047348812L200.87318333333334,157.17942263089463L200.89817222222223,149.5704384982756L200.90441944444444,159.33314560056752L201.37296111111112,155.10842318416258L201.62285,131.09229581761727L201.9664472222222,131.84596926455725L202.64739444444444,112.83587231686734L202.71611388888888,123.95859866172685L202.76609166666665,103.38173831957948L203.06595833333336,97.97824000751001L203.21589166666666,88.87975340506446L203.46578055555557,98.50705241573459L203.48452222222224,97.70279222138288L203.6781861111111,105.19830350284317L203.74065833333333,99.19726918819276L203.78438888888888,108.55566277672482L203.89683888888888,107.72501521211642L204.25293055555554,99.29962138236631L204.377875,105.62420161665126L204.39661666666666,104.02425924361138L204.52780833333335,113.72265763890975L205.06506944444445,138.17852176077503L205.63356666666667,154.1064800646743L205.64606111111112,148.9726868383193L205.84597222222223,146.0071388764444L205.9584222222222,146.95627088804622L207.7263861111111,123.98856633341059L207.88881388888888,127.71031777283997L208.1636916666667,106.8865484823075L208.50728888888887,94.02801574404754L208.89461666666665,101.47579583368136L208.97583055555555,103.21338669324776L209.55057499999998,110.05255943217789L209.73174444444444,129.90105676221202L209.9753861111111,144.0661296914062L210.38145555555556,135.47132426679383L211.72460833333332,135.2881293760553L212.21813888888892,136.58879259984582L212.38056666666665,123.2920428118759L212.51800555555556,124.3590473748239L212.6367027777778,118.64480298620418L212.76164722222222,112.18719026721693L212.79288333333335,113.80734142587886L212.8928388888889,109.00738841608946L212.96780555555554,108.28115439364781L213.0677611111111,106.57454424827978L213.23643611111112,100.47816972333005L213.66124722222224,107.65742620228419L213.9673611111111,112.33984347581084L214.048575,100.39927977323067L214.0985527777778,101.7340393757792L214.69203888888887,136.25324411725833L215.14183888888888,123.17221615991495L215.34799722222223,122.8808334343523L215.39172777777776,121.05721820788924L215.4479527777778,121.24542536137905L215.7603138888889,132.8451574766541L215.77905555555554,131.82286407255552L215.91024722222224,129.90924703659667L215.9852138888889,134.31145752180845L216.1039111111111,124.93108986800453L216.22260833333334,122.14318843236889L217.07223055555556,124.56993296832638L217.57825555555553,111.83197992259738L217.58450277777777,115.0316346336274L217.79690833333333,106.38065695815499L217.91560555555557,106.52673574479353L218.20297777777776,97.61286500568346L218.65277777777777,90.4454092805097L218.68401388888887,96.66108536627947L218.84644166666666,130.96767641012107L219.13381388888888,134.05910355153225L219.2275222222222,135.45205173434343L219.5086472222222,137.88676793063598L219.73979444444444,116.52465038469381L220.008425,124.17432431322898L220.13336944444444,127.59822462524517L220.17085277777778,123.92214446142643L220.25206666666665,120.6163119225224L220.42698888888887,123.31996216228727L220.69561944444445,132.29679779679253L220.94550833333335,116.50143688959291L221.36407222222223,117.37329971577176L221.52025277777778,112.20816901555928L221.56398333333334,110.44349959392112L221.58897222222222,108.82873990833026L222.20744722222224,106.71285755812679L222.22618888888888,105.06885862934327L222.47607777777776,116.79067832343418L222.67598888888887,117.39149198360819L223.06331666666665,115.4454640092109L223.1507777777778,102.63451927314134L223.25698055555554,106.74429790383532L223.2632277777778,100.96712332848281L223.52561111111112,123.83249220540267L224.1440861111111,116.81215650373781L224.31276111111112,114.80554270824248L225.22485555555554,120.87550521898542L225.55595833333334,130.70348116521996L226.23065833333334,125.86415628412344L226.29937777777778,123.29114278208601L227.06778611111113,120.50974675209156L227.43637222222222,104.59334338778751L227.66751944444445,104.39412664577067L227.79871111111112,111.53440442564907L228.02985833333335,129.81407571126715L228.2547583333333,139.95688081914003L228.26100555555556,140.93453857144007L228.4171861111111,149.15548090005095L228.8045138888889,145.5704789010535L228.8419972222222,128.46282386826576L228.93570555555556,125.30942402867738L229.24806666666666,131.16042516343754L229.41049444444445,134.60904798098187L229.51669722222223,131.47613236181607L229.66038333333333,111.19783367200297L229.94775555555555,98.4477899019933L230.353825,106.83717327743867L230.39755555555556,112.06922811883751L230.44753333333333,111.80332181583678L230.7474,117.7053143461396L230.80362499999998,125.1111236357599L231.1722111111111,117.54784002923424L231.253425,120.59414010419522L232.15927222222223,111.19424900277899L232.23423888888888,114.48697587528493L232.44039722222223,113.63526233600781L232.45289166666666,144.31399608950144L232.70278055555556,151.95379936039646L233.10885000000002,159.85560701453807L233.57114444444446,145.76870012142734L233.8647638888889,145.25218416129636L234.0896638888889,132.53651763483936L234.27083333333334,120.1449502651993L234.45200277777778,123.54159095913792L234.53321666666668,115.41372878927362L234.55195833333335,131.28765307175144L234.964275,130.3959004635038L234.98301666666666,122.93248056855333L235.25164722222223,128.64016552619063L235.4952888888889,109.9764624443765L235.55776111111112,111.02351060909719L235.5765027777778,104.84116569163018L235.90760555555556,105.57969026924142L236.61354166666666,108.26634458757026L236.7322388888889,113.63355425391548L236.77596944444446,108.64469683762763L236.78221666666667,99.4557482611917L236.8259472222222,103.07644760440479L237.23201666666665,117.61269133943733L237.40693888888887,128.28177473103062L237.48190555555556,121.09860834333331L237.56311944444445,124.48054677518027L237.60684999999998,137.9905815116871L238.112875,147.8703424067682L238.31903333333332,130.76547504016082L238.34402222222224,127.77049299566937L238.51269722222222,137.74562639051072L238.52519166666667,131.61183974536297L238.94375555555555,126.0089176594737L239.08744166666668,133.12329417821906L239.52474722222223,126.84594917271818L239.58721944444446,125.23825956329283L239.6934222222222,112.85397831526149L239.73715277777777,113.45922075227946L239.75589444444444,116.98688051769764L239.84335555555555,111.11363515418547L239.91207500000002,112.77429234243502L240.7616972222222,93.2729924014632L240.99284444444444,87.52696845837978L241.33644166666667,95.16458587353559L241.3801722222222,105.49511784377776L241.78624166666665,121.13916723527363L241.9424222222222,129.3007252347342L241.99864722222225,147.571965282671L242.0736138888889,145.01019988150142L242.1923111111111,142.255541487281L242.2985138888889,135.05998989328418L242.39222222222222,128.10779794445438L242.6358638888889,147.8224924683023L242.71083055555556,147.92556445833733L242.8670111111111,137.32437369010864L243.0544277777778,130.99032968510406L243.09815833333334,124.96254041093127L243.46049722222222,124.38192408023795L243.52921666666666,130.96116301023082L243.74786944444443,128.31582874180745L243.86656666666667,112.77159597707912L243.9102972222222,106.04650890727716L244.19766944444444,101.22231501042768L244.522525,115.50447256147814L244.54126666666667,113.85901060330838L244.75991944444445,104.05893421308974L245.18473055555555,102.62757950864305L245.3409111111111,100.6483543362741L245.55331666666666,100.3305911902502L245.57205833333336,108.401275828118L245.8969138888889,101.61185115017581L245.9031611111111,93.55943133257679L245.9531388888889,99.217641374009L246.0343527777778,106.06490037234853L246.37795,118.90982756014003L246.546625,131.45069147703254L246.92145833333333,133.00039469693428L246.92770555555555,127.1510256117244L247.09013333333334,143.93514538679477L247.1651,134.098288169348L247.25880833333332,145.89680402686818L247.38375277777777,142.13549854046477L247.43997777777776,132.95683166555392L247.4962027777778,136.86711582405462L247.68361944444445,126.50897780932846L247.98973333333333,131.78491183208143L248.33333055555556,127.39169086031146L248.53324166666667,122.45401071674837L248.67068055555555,118.90877414206992L249.12672777777777,120.46048117912017L249.6140111111111,112.40125481388684L250.07630555555556,115.86068092406822L250.38241944444445,116.48162920606752L250.60731944444444,122.36845560629739L250.9946472222222,145.34933436727272L251.31325555555554,147.8390833283409L251.4756833333333,148.05256795316603L251.49442499999998,130.270294100223L251.9692138888889,146.29555230508927L252.10040555555554,152.90969013435057L252.15038333333334,132.17076654948238L252.23159722222223,126.80422657321361L252.24409166666666,123.52402679437677L252.281575,116.06937495418956L252.68139722222222,116.45775271146641L252.89380277777778,119.16899362974854L252.9062972222222,107.13955040796691L252.91254444444445,120.39112180247366L253.44980555555554,114.10973312481914L253.4685472222222,112.97718164697095L253.63722222222222,111.74165052756551L254.70549722222222,107.76530120482975L254.74922777777778,116.52134184426629L254.980375,114.14708923093414L255.16154444444444,109.63401165242159L255.19278055555554,119.55997133395175L255.45516388888888,142.69545637214844L255.84249166666666,145.13704893734848L255.94869444444444,146.16413635818242L255.95494166666666,146.5297906184678L256.3672583333333,135.7672994103721L256.4172361111111,124.93741131584L256.4922027777778,130.00617104983422L256.72335,130.4811410416132L256.72959722222225,112.03448841982876L256.7483388888889,125.30103721388463L257.16065555555554,127.76979250769784L257.4855111111111,114.2626292506514L257.57921944444445,116.9913190817629L257.6729277777778,109.3987546906349L257.77288333333337,103.38881813916427L257.8540972222222,104.17418335099734L258.07275,109.31359033477139L258.1914472222222,92.34366806919475L258.2351777777778,101.0636407504982L259.69078055555553,88.34681545081769L259.86570277777776,105.72287504662899" style="fill: none;" fill="none"></path></g></g></g></g><g opacity="0.2"><g><g><g><path stroke="rgb(255, 112, 67)" stroke-width="2px" d="M36.05271944444444,-33.51647922992706L36.14018055555556,0.5013637781143245L36.246383333333334,11.142010593414312L36.28386666666667,20.18295755386353L36.45878888888889,-48.82660100460055L39.11385833333333,-10.001640415191645L39.45745555555556,42.91403522491456L39.476197222222225,-6.649792885780329L39.56365833333333,13.38603546619413L39.58864722222222,-16.820049381256098L39.888513888888895,27.45909681320191L39.93224444444444,-36.31037125587466L40.20712222222222,-42.166758871078486L40.39453888888889,77.19759812355043L40.75063055555556,50.15244057178498L40.9318,47.10000267028809L41.031755555555556,43.43277981281281L41.13171111111111,62.888145947456366L41.48155555555555,55.213391685485846L41.80016388888889,26.435815000534063L41.912613888888885,47.1046446800232L41.96883888888889,37.74209787845612L42.06879444444444,50.134470367431646L42.087536111111106,20.691679620742804L42.362413888888895,36.88990225791932L42.755988888888886,21.171107792854315L42.89342777777778,28.087561631202703L42.912169444444444,16.588389182090765L42.96214722222222,61.34102036952973L43.21203611111111,-7.873032784461998L43.318238888888885,61.58331921100617L43.39945277777778,39.9155782699585L43.95545555555555,25.93085577487946L44.33028888888889,21.761276030540472L44.89878611111111,54.614044928550726L44.973752777777776,98.23332240581514L45.17366388888889,75.12205710411072L45.21114722222222,87.64313986301423L45.33609166666667,89.13737466335297L45.36732777777778,54.50523903369904L45.64845277777778,89.05649116039278L45.723419444444446,84.23502554893494L45.94207222222222,87.53841331005098L46.160725000000006,52.126103544235235L46.16697222222222,36.96301391124726L46.454344444444445,81.16510977745057L46.560547222222226,64.68045403957368L46.57304166666666,36.927319669723516L46.604277777777774,84.00056889057161L46.76045833333333,61.96558167934418L46.76670555555556,65.70479085445405L46.84167222222222,37.67429640293122L46.872908333333335,57.94637491703034L47.05407777777777,61.908611559867865L47.14778611111111,60.685934329032904L47.185269444444444,33.01171412467957L48.009902777777775,58.14077665805817L48.3535,85.13044109344483L48.659613888888885,55.77753653526307L49.328066666666665,63.215759301185614L49.77161944444445,82.32191970348359L50.04649722222222,86.6327642440796L50.21517222222222,93.14757874011995L50.23391388888889,137.44110813140873L50.59625277777777,107.7032684326172L50.983580555555555,85.8570211172104L51.20223333333333,65.06148567199708L51.41463888888889,96.75635447502137L51.5021,114.77157225608828L51.51459444444444,105.71399142742159L51.52084166666666,66.4572887659073L51.883180555555555,83.03232302665711L52.976444444444446,113.36697747707369L53.726111111111116,53.37188532352448L53.83856111111111,69.03370966911316L53.851055555555554,68.01992287635804L54.16341666666667,163.2468842506409L54.51326111111111,114.19385304450991L54.606969444444445,107.15969612598421L54.931824999999996,92.3630790948868L55.06301666666666,111.8312107563019L55.10674722222222,107.35040535926821L55.7752,129.82079198360447L55.95012222222222,122.7454899787903L56.12504444444445,105.1826923131943L56.4499,114.63723530769349L56.837227777777784,100.98564734458924L57.44945555555556,47.892625832557684L57.643119444444444,92.8827380180359L57.67435555555556,89.09855058193207L58.124155555555554,73.25315585136414L58.20536944444444,88.61652007102967L58.217863888888886,73.91021122932436L58.723888888888894,135.17971088886264L59.298633333333335,121.42191936969759L59.40483611111111,119.00195529460909L59.53602777777778,82.62143483161927L60.14825555555556,111.85980131626131L60.373155555555556,138.17820301055912L60.39814444444445,136.41198863983158L60.448122222222224,96.092125082016L60.91041666666667,118.59817078113558L61.14781111111111,133.8240682125092L61.23527222222222,84.62249269485476L61.47266666666667,98.5686021089554L61.54763333333334,91.20342066287996L61.81001666666666,73.30755879878998L62.23482777777778,77.61812200546267L62.29105277777778,72.84666349887848L62.30979444444445,64.98193850517274L62.78458333333333,95.81223299503327L62.79707777777778,65.59338262081147L63.13442777777777,85.41683902740479L63.30935,129.59551384449009L63.96530833333333,147.86839833259586L64.52755833333333,145.8057986736298L64.62751388888888,92.23595132827761L64.714975,126.68560674190523L65.09605555555555,125.06536951065065L65.70203611111111,106.60458912849427L65.90194722222222,91.78029587268831L66.62037777777778,53.64207139015198L66.71408611111111,114.63909914493563L66.98896388888889,102.26645519733431L67.51997777777777,87.56640603542328L67.62618055555555,103.56924226284028L67.64492222222222,67.65063693523408L67.86982222222223,138.3889924526215L67.91355277777778,116.3997571706772L68.13845277777777,137.13455965518955L68.26964444444444,116.2096457719803L68.65697222222222,133.67812623977665L68.78191666666667,155.22366275787357L69.47535833333333,113.15815737247469L69.53783055555556,123.87908985614779L69.96888888888888,99.81702139377595L70.05010277777778,100.00407328605652L70.08758611111111,116.12538626194002L70.16879999999999,101.23244752883913L70.52489166666668,68.87011399269105L70.66857777777777,90.40731599330904L70.69981388888888,90.91667106151583L71.06840000000001,134.0498386859894L71.21833333333333,52.29423573017121L71.81806666666667,88.94641926288605L71.968,95.02070000171662L72.30534999999999,87.90003290176392L72.48651944444444,113.08121254444123L72.82386944444445,134.26843514442447L73.0675111111111,151.74500396251682L73.08625277777777,147.44653811454776L73.16121944444444,138.85530343055729L73.35488333333333,111.69173946380617L74.00459444444445,131.61141207218174L74.05457222222222,129.44823553562168L74.14828055555556,106.35103693008425L74.7542611111111,117.31180658340456L74.91668888888888,117.5136988401413L75.05412777777778,107.05018689632418L75.62887222222223,88.51436069011689L75.67885,107.81421949863436L75.93498611111112,114.70067610740664L76.31606666666667,98.34455480575562L76.50973055555555,74.03885116577149L76.90955277777778,72.03237762451172L77.084475,118.9591222047806L77.09072222222221,153.3612321853638L77.20941944444445,143.71453812122348L77.35310555555556,162.851152920723L77.47180277777777,100.3166352748871L77.77791666666667,155.4647307634354L77.8403888888889,141.8142329692841L77.85913055555555,127.52155532836917L77.95283888888888,135.2610867261887L78.15899722222223,136.69838657379154L79.25850833333332,92.41913487911225L79.29599166666667,85.39398064613343L79.71455555555556,122.56255259513857L79.88947777777777,77.71314253807068L79.95195,115.2945016860962L80.17060277777777,109.77845778465272L80.58916666666667,83.94676377773287L80.78907777777778,83.30838193893435L81.15766388888889,89.97648825645447L81.37631666666667,116.80987169742586L81.52000277777778,143.29074373245243L81.62620555555554,124.46422924995424L82.33838888888889,111.56538536548616L82.55704166666668,131.87234928607944L82.594525,125.63704004287722L83.02558333333333,128.1456594705582L83.30046111111112,88.46175124645235L83.48163055555555,126.8543367624283L83.51286666666667,124.60686554908754L83.56909166666667,125.66823294162754L84.13134166666667,119.05512740612032L84.15008333333334,128.14337363243106L84.32500555555555,122.25122144222262L84.38747777777778,95.55097928047182L84.74981666666666,44.43035473823548L84.96846944444444,82.39404668807984L85.17462777777779,73.91158273220064L85.180875,97.19129672050478L85.55570833333334,88.04565837383272L86.3303638888889,106.89292123317719L86.34910555555555,157.39809265136722L86.69895,154.41060771942142L86.86137777777779,121.4893691778183L86.88011944444445,161.96445872783664L87.01131111111111,85.12727608680726L87.05504166666667,119.06543126106264L87.41738055555555,101.21890833377839L87.4548638888889,130.62385966777805L87.80470833333334,151.54870321750644L88.87298333333332,95.34018983840944L88.91671388888889,104.34786906242373L89.08538888888889,56.399108672142034L89.43523333333333,119.49537982940676L89.63514444444444,111.61180546283724L90.03496666666666,62.06865539550782L90.05370833333335,72.02780594825745L90.17865277777777,88.3896594285965L90.38481111111112,93.5321270465851L90.87834166666666,149.32947089672092L90.92207222222223,150.9676431655884L91.00328611111111,159.6065991163254L91.140725,134.36278750896457L91.37811944444445,139.52677717208866L91.56553611111111,142.23556568622593L91.70922222222222,122.4401371717453L91.82167222222222,112.21512606143953L92.25897777777779,112.10174849033358L92.72751944444444,117.45359888076784L93.12734166666667,81.05201354026795L93.53341111111112,107.55852212905884L94.07067222222221,119.27854170799257L94.2331,93.17405929565432L94.75786666666667,103.60964884757996L95.43256666666667,152.10117270946506L95.47629722222221,129.66046681404117L96.18223333333334,114.56092348098757L96.200975,106.91159477233887L96.33216666666667,137.61458566188816L96.70075277777778,125.69833567142489L96.763225,119.55111911296845L96.78821388888888,127.87202706336979L96.96938333333333,99.11755492687226L97.17554166666667,137.53328015804294L97.50039722222222,120.80238690376284L97.6066,83.24986448287964L97.69406111111111,120.74692895412447L97.79401666666666,89.69504883289338L97.90021944444445,83.22299709320069L98.15010833333334,91.2429480791092L98.43748055555555,132.37773051261905L98.44372777777777,93.6894278764725L98.58116666666668,108.28070631027224L98.79981944444445,106.97623124122622L98.86229166666668,98.02759697437288L98.96224722222223,91.95479323863985L99.01847222222221,107.25584199428559L99.10593333333333,123.08013668060305L99.34332777777779,86.40076925754548L99.36206944444444,86.6965215444565L99.574475,83.21782758235932L99.59946388888889,65.15724470615388L99.74315,107.78369476795199L99.78063333333333,99.1805737257004L99.79312777777778,107.70372560024263L100.04301666666666,135.07818450927738L100.0805,154.2208831548691L100.16171388888888,184.52656021118167L100.19295,99.31301167011263L100.59277222222222,141.73123946189884L100.71146944444443,113.70619585514069L100.76769444444444,142.18840708732608L101.04881944444445,136.35639002323154L101.19250555555554,118.49344422817232L101.205,130.23136367797855L101.21124722222223,124.52805688381197L101.57983333333334,97.14195778369904L102.57314166666667,131.00548913478855L102.90424444444444,90.97610285282136L103.02918888888888,102.24243631362917L103.22285277777777,115.17683377265932L103.27907777777779,107.12013354301455L103.38528055555555,135.3222768545151L103.49148333333332,75.16615619659424L103.68514722222223,96.75589730739595L104.00375555555556,76.66640450954439L104.14744166666667,115.51394214630128L104.23490277777778,80.6891982793808L104.69719722222221,143.06947460174564L105.40938055555556,120.28930416107178L106.00911388888888,146.03934099674228L106.04034999999999,115.318661236763L106.26525,112.33402481079104L106.4589138888889,112.56394495964052L107.06489444444443,120.70627620220186L107.22732222222223,140.45517911911014L107.25231111111111,117.04074134826661L107.35226666666668,110.80272426605227L107.61465,98.13742270469668L108.01447222222222,83.1964462041855L108.0332138888889,114.45486059188845L108.13316944444445,116.69856896400454L108.73290277777778,146.64575626850132L109.06400555555555,141.6983585596085L109.65749166666667,156.11921896934513L110.39466388888889,145.67554106712345L110.56958611111111,122.72530426979066L110.93817222222222,123.481600189209L111.23179166666667,113.92982115745546L111.68159166666666,119.92603173255922L111.80028888888889,107.56921281814577L112.06891944444445,87.0832150220871L112.19386388888888,120.19994547367097L112.55620277777778,135.48432519435886L112.66240555555555,90.04024555683137L112.83108055555556,122.97889163494112L112.96227222222223,86.3979910850525L113.0372388888889,85.23013880252839L113.13094722222223,111.11848642826082L113.1559361111111,106.34076824188234L113.2621388888889,91.26928796768189L113.48703888888889,75.76388528347016L113.73692777777777,155.4749994516373L113.94308611111111,131.02360000610355L114.63028055555554,135.1249211072922L114.96138333333333,103.17129542827607L114.98637222222223,112.13993957042696L115.11131666666667,119.65690066814425L115.41743055555555,109.80419983863831L115.5986,109.51671173572541L115.86098333333334,75.6764607667923L116.17959166666667,89.94765152931215L116.32327777777779,104.86812582015993L116.69186388888889,84.6666621208191L116.71060555555556,118.46007099151613L117.116675,91.00078990459443L117.29784444444444,82.5110112667084L117.51025,115.51387181282045L117.72890277777779,94.40362920761109L117.87258888888888,98.17135860919954L117.97254444444444,120.83980431556702L118.42859166666668,154.71631219387058L118.54728888888889,158.56168975830082L118.68472777777778,100.1152353525162L119.197,133.75222256183628L120.07785833333332,141.18211081027988L120.490175,113.59728446006777L120.53390555555555,106.51203026771547L120.59013055555555,129.87108042240146L120.69633333333334,130.62586417198185L120.7713,111.87534501552584L120.80878333333334,120.96763541698458L121.17736944444445,95.54257442951203L121.48973055555555,126.51561071872715L121.78335,114.57692434787752L122.00825,98.79971792697908L122.15818333333333,133.90649905204776L122.176925,93.36385419368746L122.64546666666668,72.63805439472199L122.68295,112.23573377132418L122.87036666666667,166.19751443862918L122.92659166666667,174.77429559230808L122.95158055555555,143.21049323081974L122.98906388888888,172.98399200439457L123.56380833333333,102.02672352790833L123.57005555555556,129.24521794319156L123.62003333333332,150.017262005806L123.64502222222222,137.89989342689518L123.75122499999999,95.56268980503084L124.15104722222223,96.72023823261263L124.26974444444446,106.77454998493195L124.48215,110.09717395305634L125.11311944444445,129.05225803852085L125.50669444444443,127.94095387458803L125.79406666666667,104.24873402118685L126.06894444444444,95.26915302276612L126.18764166666668,119.92247989177704L126.60620555555556,142.6916079759598L126.96854444444445,109.65118935108187L127.11223055555556,84.41514959335328L127.61825555555555,156.9596688985825L127.89938055555555,139.28092648983005L127.91187500000001,149.3624221324921L128.11178611111112,123.20002009868624L128.30544999999998,134.89489545822147L128.67403611111112,119.45641508102419L129.5673888888889,131.03369286060337L129.71732222222224,77.19826629161835L129.77354722222222,156.27947380542759L129.81103055555556,104.88574435710909L130.09840277777778,96.17100408077242L130.11714444444445,144.84511365890506L130.23584166666666,109.9226765871048L131.060475,80.9555511713028L131.1479361111111,130.56734671592716L131.7851527777778,83.23920896053315L131.91634444444446,149.8136817455292L132.36614444444444,145.65827419757846L132.74722500000001,131.37445857524875L133.197025,117.71006991863253L133.33446388888888,101.63865854740145L133.44066666666666,92.48468568325043L133.72803888888888,125.60422947406771L133.94044444444444,103.59231164455416L134.3465138888889,122.3523961544037L134.68386388888888,104.9400769710541L134.84629166666667,122.17227210998536L134.87752777777777,132.16514756679538L135.32108055555554,69.8425095319748L135.54598055555556,103.1188266515732L135.85209444444445,109.68336691856386L136.23942222222223,129.30858840942386L136.24566944444445,116.44557943344118L136.458075,164.4531386137009L136.54553611111112,123.99011125564577L136.80791944444445,166.34936442375187L137.85120555555557,152.41995921134952L138.04486944444446,131.43779387474063L138.257275,108.03316762447358L138.63835555555556,118.9575045347214L138.7008277777778,130.00868787765506L138.931975,104.81291403770449L138.9819527777778,75.85718264579774L139.13813333333334,153.89323463439945L139.25058333333334,111.83722426891329L139.26307777777777,125.67635645866397L139.4067638888889,125.24447371959688L139.41301111111113,141.3555531740189L139.41925833333335,116.42574539184572L139.438,106.7289387226105L139.55669722222223,111.71800901889803L139.77535,74.90265181064608L139.9690138888889,91.86413338184357L140.10020555555556,128.0921356916428L140.21265555555556,93.48676195144655L140.27512777777778,114.24825599193574L140.83113055555557,128.6125682830811L140.91859166666666,109.76287891864779L141.0435361111111,164.6891426086426L141.0997611111111,164.04907276630405L141.14349166666668,146.64667060375217L141.1497388888889,152.72158434391025L141.33090833333335,156.08384122848514L141.39338055555558,173.5137437820435L141.51832499999998,127.12374916076662L141.94938333333334,148.16235711574558L142.25549722222223,105.742581987381L142.46165555555555,132.6791798114777L142.69905000000003,139.15840556621555L143.39249166666667,87.00637569427492L143.54867222222222,98.96862378120424L143.5674138888889,123.36185743808748L143.62363888888888,123.65370621681214L143.79856111111113,99.65880622863772L144.0172138888889,134.17207827568058L144.09218055555556,102.10454752445223L144.33582222222222,115.79397490024569L144.49200277777777,90.57871868610383L144.59820555555555,100.34793367385866L145.02301666666668,91.31433656215668L145.16045555555556,131.8124954938889L145.33537777777778,95.27657320499422L145.67272777777777,163.00936808586124L146.50360833333335,104.04153158664705L146.50985555555556,144.30671086311344L147.10334166666667,110.74118247032168L147.38446666666667,141.78029706478122L148.14038055555554,115.97652544975283L148.1841111111111,118.08892121315004L148.96501388888888,97.34511604309084L149.26488055555555,93.93218388557436L149.67095,128.06386163234714L149.78964722222221,81.11717751026154L149.82088333333334,78.8425927400589L149.96456944444446,55.47675540447236L150.10200833333334,117.85833289623262L150.23319999999998,177.42333581447605L150.6580111111111,129.72074260711673L150.98911388888888,130.0737463474274L151.35145277777775,107.87171711921694L151.62633055555557,113.70876302719118L151.65131944444443,139.01942660808567L151.8075,154.80538954734806L152.96323611111112,93.12658419609072L153.05694444444444,95.68921973705292L153.07568611111108,140.60829510688785L153.21312500000002,69.90538766384125L153.25060833333333,113.89704575538636L153.550475,85.36303391456605L153.64418333333333,88.53637506961824L153.93155555555555,77.06122150421143L154.01901666666666,118.41597189903261L154.0877361111111,124.80935564041138L154.1439611111111,90.60136606693268L154.43133333333333,127.3347496032715L154.5000527777778,108.01139941215517L154.5375361111111,85.33722152709962L154.90612222222222,146.48581793308261L155.07479722222223,149.52573647499088L155.21848333333335,153.20161035060886L155.65578888888888,144.53733434677127L155.7932277777778,138.4471230745316L155.9993861111111,122.51402249336245L156.10558888888892,119.86480643749239L156.14931944444444,102.72882750034333L156.39920833333335,111.04706277847292L156.48042222222222,137.6826684713364L156.51165833333332,124.02285149097443L156.54914166666666,125.6448470592499L156.56788333333333,125.42572309970858L157.04267222222222,103.44334533214571L157.04891944444446,108.97134592533114L157.0614138888889,117.87099292278292L157.32379722222223,108.1901167869568L157.3425388888889,126.52630140781405L157.53620277777776,138.90133669376377L157.7048777777778,122.9476987361908L157.72361944444444,95.15844812393189L157.75485555555554,128.55679383277896L158.1047,111.83557143211367L158.19840833333333,129.22714223861698L158.25463333333332,117.4599640607834L158.26712777777777,118.30614616870882L158.5732416666667,109.5205097436905L158.92933333333335,84.81390526294709L159.21045833333335,91.13579502105715L159.46659444444444,174.16186680793766L159.54780833333334,156.68076148033146L159.55405555555558,162.4510257482529L159.69149444444446,146.6895740270615L159.72273055555556,170.09511461257938L159.79145,142.01897373199466L160.48489166666667,153.91823818683628L160.61608333333334,133.8775919914246L161.04089444444446,128.26832106113437L161.04714166666665,104.38384463787081L161.06588333333332,111.96533670425417L161.07213055555556,134.78542139530185L161.3719972222222,105.69901039600374L161.52193055555557,115.41009476184847L161.7280888888889,135.53095629215244L161.88426944444447,106.91187610626223L162.3465638888889,99.87550368309023L162.59645277777778,115.72845926284792L162.64643055555555,90.7555018901825L162.8463416666667,108.4230964422226L162.92755555555556,91.4558123588562L163.3273777777778,97.19896306991579L163.7334472222222,67.29474952220917L163.87713333333332,151.06428136825565L164.40189999999998,141.95697476863864L164.42064166666665,149.0813695430756L164.45187777777778,104.69633629322054L164.87044166666666,113.9017229318619L164.98289166666666,147.0263659000397L165.45143333333334,104.16106333732607L165.695075,126.59403254985811L165.70132222222222,95.48500647544861L166.68213611111113,91.40598108768465L166.94451944444444,105.40002276897432L166.95076666666665,137.68755664825443L167.3568361111111,103.44833900928498L167.39431944444445,98.2939850330353L167.5192638888889,102.43230154514315L167.5567472222222,99.05998697280886L167.68793888888888,94.54440166950228L167.72542222222225,104.24363484382631L168.10025555555555,77.84586181640626L168.46884166666666,203.7786977529526L168.6687527777778,163.58093311786655L168.71248333333332,115.76869001388552L170.0493888888889,118.26271524429323L170.20556944444445,141.54292156696323L170.28678333333335,117.15464642047884L170.45545833333333,147.5041412353516L170.49918888888888,123.24675669670107L170.56790833333335,128.26529672145847L170.59914444444445,127.32764592170719L170.64912222222222,123.15943768024445L170.73658333333333,144.09205307960514L170.91150555555555,145.08333315849308L171.3425638888889,113.44459047317507L171.36130555555553,114.70415761470797L171.6236888888889,101.04233613014223L171.84234166666664,113.4302072763443L172.0734888888889,90.28377523422243L172.64198611111112,112.91237702369692L172.7419416666667,105.96128394603731L173.41039444444445,166.06331815719608L173.454125,163.4751867294312L173.52909166666666,143.40721597671512L173.84769999999997,150.23121645450595L173.91641944444444,129.2835145235062L173.9226666666667,143.40587964057926L174.48491666666666,149.21662082672123L174.50365833333333,120.09029557704928L175.422,90.86448361873627L175.4469888888889,83.53802075386048L175.4532361111111,129.62983658313755L175.55943888888888,113.88646056652071L175.6531472222222,101.68564131259919L175.71561944444443,137.41606941223148L175.7843388888889,127.86692788600924L175.815575,128.39481582641605L175.84681111111112,76.36875321865082L175.8718,87.60023643970491L175.90928333333335,99.13362612724306L176.05921666666666,114.19701805114748L176.12168888888888,101.51290228366854L176.28411666666668,94.16379203796387L176.56524166666668,100.9256177186966L176.70892777777777,103.65807344913483L177.02753611111112,114.01823034286501L177.17746944444445,81.11394217014313L177.29616666666666,112.44870355129244L177.38362777777778,112.09872415065767L177.58978611111112,168.38048985004428L178.29572222222222,147.4725615024567L178.6018361111111,130.49071838855747L179.1078611111111,107.76343872547152L179.17658055555555,139.71548190116886L179.301525,117.11441566944124L179.67635833333333,130.16897788047794L179.75757222222222,127.96866526603702L179.98871944444443,108.81221642494204L180.11366388888888,115.10389795303347L180.18238333333335,120.23367037773134L180.71964444444444,128.63057365417484L180.78211666666667,106.14661266803742L181.662975,130.36190261840824L181.89412222222225,137.81011273860935L181.90661666666668,111.37808730602266L182.08778611111111,57.66859283447266L182.33142777777778,147.43887176513675L182.63129444444445,135.37182679176334L182.93116111111112,136.105826997757L182.94365555555555,147.11301674842838L182.99363333333335,116.39908900260926L183.18105,122.05094685554505L183.3247361111111,157.38145878314975L183.41219722222223,115.27048280239107L183.7682888888889,104.33422436714173L184.3680222222222,96.59620513916016L184.6491472222222,112.65594115257265L184.67413611111112,84.97359743118288L185.04896944444442,90.39708247184755L185.33634166666667,111.25932922363283L185.52375833333335,105.97953548431398L185.66119722222223,129.90178098678592L185.711175,98.49204411506653L186.4733361111111,109.58620121479036L186.6607527777778,77.2973309993744L186.79819166666667,139.5733379364014L187.00435000000002,133.2117097616196L187.18551944444445,143.14638426303867L187.46664444444446,135.58145573139194L187.71028611111112,135.17886688709262L188.24754722222224,118.9613377094269L188.70359444444443,128.65708937644962L188.85977499999998,108.8423191547394L188.94098888888888,104.63950684070589L188.9972138888889,107.7012639284134L189.49074444444443,97.72825767993929L189.85933055555557,128.3476220607758L190.5715138888889,79.02911713123322L190.6652222222222,97.49742319583895L190.99007777777777,136.5806483268738L191.15875277777778,80.32212784290314L191.54608055555556,155.17608215808872L191.7022611111111,151.56836142539981L192.25826388888888,116.05199327468873L192.48941111111114,136.28282120227817L192.7080638888889,107.22689976692202L192.9142222222222,93.58438482284546L193.17035833333335,105.05967905521395L193.84505833333333,107.77458658218384L193.9450138888889,107.44398405551912L194.07620555555553,114.27266170978548L194.13243055555557,67.23851790428162L194.2323861111111,101.2724321126938L194.6259611111111,97.34792938232424L194.63220833333335,79.87016489505768L194.71966944444443,101.39569153785708L195.4068638888889,70.85538198947907L195.48807777777776,114.82938637733461L195.55679722222223,95.80467214584351L196.18151944444446,139.09074475765232L196.60008333333334,182.38954772949222L196.86246666666668,158.27532699108127L197.84952777777775,96.07939472198488L198.37429444444444,110.26871731281281L198.3867888888889,125.17997791767121L198.63667777777778,139.1788374423981L198.642925,98.12314500808718L198.64917222222223,111.31971051692965L198.7491277777778,102.47622480392458L198.83034166666667,115.58631529808045L198.8428361111111,78.51751139163973L199.46131111111112,122.65824129581453L200.39839444444442,121.0342763900757L200.7982166666667,175.28730800151828L200.8357,150.77482392787937L200.87318333333334,178.16363086700443L200.89817222222223,138.15696229934696L200.90441944444444,173.97720625400547L201.37296111111112,148.7713395595551L201.62285,95.0681047677994L201.9664472222222,132.97647943496708L202.64739444444444,84.32072689533234L202.71611388888888,140.64268817901615L202.76609166666665,72.51644780635834L203.06595833333336,89.87299253940583L203.21589166666666,75.2320235013962L203.46578055555557,112.94800093173983L203.48452222222224,96.49640192985535L203.6781861111111,116.44157042503359L203.74065833333333,90.19571771621705L203.78438888888888,122.59325315952303L203.89683888888888,106.47904386520386L204.25293055555554,86.6615306377411L204.377875,115.11107196807863L204.39661666666666,101.62434568405152L204.52780833333335,128.27025523185733L205.06506944444445,174.86231794357303L205.63356666666667,177.9984175205231L205.64606111111112,141.27199699878696L205.84597222222223,141.55881693363193L205.9584222222222,148.37996890544895L207.7263861111111,89.53700950145722L207.88881388888888,133.29294493198398L208.1636916666667,75.6508945465088L208.50728888888887,74.74021663665772L208.89461666666665,112.64746596813204L208.97583055555555,105.81977298259736L209.55057499999998,120.31131854057314L209.73174444444444,159.67380275726322L209.9753861111111,165.31373908519748L210.38145555555556,122.5791161298752L211.72460833333332,135.01333703994754L212.21813888888892,138.53978743553165L212.38056666666665,103.34691812992098L212.51800555555556,125.95955421924593L212.6367027777778,110.07343640327454L212.76164722222222,102.50077118873598L212.79288333333335,116.23756816387177L212.8928388888889,101.80745890140535L212.96780555555554,107.19180335998536L213.0677611111111,104.01462903022768L213.23643611111112,91.33360793590548L213.66124722222224,118.42631092071535L213.9673611111111,119.36346938610079L214.048575,82.48843421936037L214.0985527777778,103.73617877960207L214.69203888888887,188.03205122947696L215.14183888888888,103.55067422389985L215.34799722222223,122.44375934600832L215.39172777777776,118.3217953681946L215.4479527777778,121.52773609161379L215.7603138888889,150.24475564956668L215.77905555555554,130.2894239664078L215.91024722222224,127.0388214826584L215.9852138888889,140.9147732496262L216.1039111111111,110.8605383872986L216.22260833333334,117.96133627891541L217.07223055555556,128.2100497722626L217.57825555555553,92.72505035400393L217.58450277777777,119.83111670017243L217.79690833333333,93.4041904449463L217.91560555555557,106.74585392475129L218.20297777777776,84.24205889701845L218.65277777777777,79.69422569274903L218.68401388888887,105.9845994949341L218.84644166666666,182.42756297588352L219.13381388888888,138.69624426364902L219.2275222222222,137.54147400856021L219.5086472222222,141.5388422250748L219.73979444444444,84.48147406578065L220.008425,135.64883520603183L220.13336944444444,132.73407509326938L220.17085277777778,118.40802421569825L220.25206666666665,115.65756311416628L220.42698888888887,127.37543752193454L220.69561944444445,145.76205124855045L220.94550833333335,92.80839552879335L221.36407222222223,118.68109395504L221.52025277777778,104.4604729652405L221.56398333333334,107.79649546146395L221.58897222222222,106.40660037994387L222.20744722222224,103.53903403282168L222.22618888888888,102.60286023616791L222.47607777777776,134.37340786457065L222.67598888888887,118.29271247386933L223.06331666666665,112.52642204761507L223.1507777777778,83.41810216903689L223.25698055555554,112.90896584987642L223.2632277777778,92.30136146545412L223.52561111111112,158.1305455207825L224.1440861111111,106.28165295124055L224.31276111111112,111.79562201499941L225.22485555555554,129.98044898509983L225.55595833333334,145.44544508457187L226.23065833333334,118.60516896247866L226.29937777777778,119.43162252902987L227.06778611111113,116.33765270709993L227.43637222222222,80.71873834133149L227.66751944444445,104.09530153274538L227.79871111111112,122.24482109546663L228.02985833333335,157.23358263969425L228.2547583333333,155.17108848094944L228.26100555555556,142.40102519989017L228.4171861111111,161.48689439296726L228.8045138888889,140.1929759025574L228.8419972222222,102.80134131908419L228.93570555555556,120.57932426929474L229.24806666666666,139.93692686557773L229.41049444444445,139.7819822072983L229.51669722222223,126.77675893306734L229.66038333333333,80.78038563728335L229.94775555555555,79.32272424697877L230.353825,119.4212483406067L230.39755555555556,119.91731038093567L230.44753333333333,111.40446236133577L230.7474,126.55830314159395L230.80362499999998,136.21983757019046L231.1722111111111,106.20291461944582L231.253425,125.16359021663668L232.15927222222223,97.09441235065462L232.23423888888888,119.4260661840439L232.44039722222223,112.357692027092L232.45289166666666,190.33209671974186L232.70278055555556,163.41350426673893L233.10885000000002,171.70831849575046L233.57114444444446,124.63833978176118L233.8647638888889,144.4774102210999L234.0896638888889,113.46301784515381L234.27083333333334,101.55759921073916L234.45200277777778,128.6365520000458L234.53321666666668,103.22193553447724L234.55195833333335,155.09853949546817L234.964275,129.05827155113224L234.98301666666666,111.73735072612764L235.25164722222223,137.20169296264652L235.4952888888889,81.98090782165528L235.55776111111112,112.5940828561783L235.5765027777778,95.56764831542971L235.90760555555556,106.68747713565828L236.61354166666666,112.2963260650635L236.7322388888889,121.68436875343325L236.77596944444446,101.1614107131958L236.78221666666667,85.6723253965378L236.8259472222222,108.50749661922455L237.23201666666665,139.41705694198612L237.40693888888887,144.28539981842044L237.48190555555556,110.32385876178743L237.56311944444445,129.55345442295078L237.60684999999998,158.25563361644748L238.112875,162.68998374938968L238.31903333333332,105.10817399024964L238.34402222222224,123.2780199289322L238.51269722222222,152.70832648277286L238.52519166666667,122.41115977764132L238.94375555555555,117.60453453063965L239.08744166666668,143.794858956337L239.52474722222223,117.42993166446686L239.58721944444446,122.82672514915468L239.6934222222222,94.27755644321442L239.73715277777777,114.36708440780642L239.75589444444444,122.27837016582491L239.84335555555555,102.30376710891724L239.91207500000002,115.26527812480927L240.7616972222222,64.0210424900055L240.99284444444444,78.90793254375458L241.33644166666667,106.62101199626925L241.3801722222222,120.99091579914095L241.78624166666665,144.60524132251743L241.9424222222222,141.5430622339249L241.99864722222225,174.97882535457614L242.0736138888889,141.16755177974704L242.1923111111111,138.12355389595035L242.2985138888889,124.26666250228882L242.39222222222222,117.67951002120974L242.6358638888889,177.39453425407413L242.71083055555556,148.08017244338993L242.8670111111111,121.42258753776551L243.0544277777778,121.48926367759705L243.09815833333334,115.92085649967194L243.46049722222222,123.51099958419802L243.52921666666666,140.83002140522007L243.74786944444443,124.34782733917238L243.86656666666667,89.45524682998658L243.9102972222222,95.95887830257416L244.19766944444444,93.98602416515351L244.522525,136.92770888805393L244.54126666666667,111.39081766605379L244.75991944444445,89.35881962776185L245.18473055555555,100.48054745197298L245.3409111111111,97.67951657772066L245.55331666666666,99.8539464712143L245.57205833333336,120.50730278491976L245.8969138888889,91.42771413326265L245.9031611111111,81.4808016061783L245.9531388888889,107.70495643615723L246.0343527777778,116.3357888698578L246.37795,138.17721834182743L246.546625,150.26198735237125L246.92145833333333,135.32494952678684L246.92770555555555,118.37697198390963L247.09013333333334,169.11132504940036L247.1651,119.34300234317782L247.25880833333332,163.59457781314853L247.38375277777777,136.49354031085971L247.43997777777776,119.18883135318757L247.4962027777778,142.73254206180576L247.68361944444445,110.9717707872391L247.98973333333333,139.69881286621097L248.33333055555556,120.80185940265658L248.53324166666667,115.04749050140383L248.67068055555555,113.5909192800522L249.12672777777777,122.78804173469545L249.6140111111111,100.31241526603701L250.07630555555556,121.04982008934023L250.38241944444445,117.41305162906647L250.60731944444444,131.19869520664218L250.9946472222222,179.8206525087357L251.31325555555554,151.57370676994327L251.4756833333333,148.37279489040378L251.49442499999998,103.59688332080842L251.9692138888889,170.33343961238864L252.10040555555554,162.83089687824253L252.15038333333334,101.0623811721802L252.23159722222223,118.75441660881044L252.24409166666666,118.60372712612153L252.281575,104.88739719390871L252.68139722222222,117.0403193473816L252.89380277777778,123.23585500717165L252.9062972222222,89.0953855752945L252.91254444444445,140.26847889423374L253.44980555555554,104.68765010833741L253.4685472222222,111.27835443019869L253.63722222222222,109.88835384845736L254.70549722222222,101.80077722072603L254.74922777777778,129.65540280342105L254.980375,110.585710310936L255.16154444444444,102.86439528465272L255.19278055555554,134.44891085624698L255.45516388888888,177.3986839294434L255.84249166666666,148.79943778514865L255.94869444444444,147.70476748943332L255.95494166666666,147.0782720088959L256.3672583333333,119.62356259822847L256.4172361111111,108.69257917404177L256.4922027777778,137.60931065082553L256.72335,131.19359602928165L256.72959722222225,84.3645094871521L256.7483388888889,145.2008604049683L257.16065555555554,131.4729254484177L257.4855111111111,94.00188436508179L257.57921944444445,121.08435382843018L257.6729277777778,98.00990810394288L257.77288333333337,94.37391331195833L257.8540972222222,105.35223116874697L258.07275,117.02270081043244L258.1914472222222,66.88878467082978L258.2351777777778,114.14359977245331L259.69078055555553,69.271577501297L259.86570277777776,131.7869644403458" style="fill: none;" fill="none"></path></g></g></g></g></g></g><g transform="translate(48, 177)" clip-path="url(#clip_1)"><clipPath id="clip_1"><rect width="281" height="23"></rect></clipPath><g><g><line x1="0" y1="0" x2="0" y2="5" style="visibility: inherit;" fill="rgb(0, 0, 0)" stroke="rgb(204, 204, 204)" stroke-width="1px"></line><line x1="31.23611111111111" y1="0" x2="31.23611111111111" y2="5" style="visibility: inherit;" fill="rgb(0, 0, 0)" stroke="rgb(204, 204, 204)" stroke-width="1px"></line><line x1="62.47222222222222" y1="0" x2="62.47222222222222" y2="5" style="visibility: inherit;" fill="rgb(0, 0, 0)" stroke="rgb(204, 204, 204)" stroke-width="1px"></line><line x1="93.70833333333333" y1="0" x2="93.70833333333333" y2="5" style="visibility: inherit;" fill="rgb(0, 0, 0)" stroke="rgb(204, 204, 204)" stroke-width="1px"></line><line x1="124.94444444444444" y1="0" x2="124.94444444444444" y2="5" style="visibility: inherit;" fill="rgb(0, 0, 0)" stroke="rgb(204, 204, 204)" stroke-width="1px"></line><line x1="156.18055555555557" y1="0" x2="156.18055555555557" y2="5" style="visibility: inherit;" fill="rgb(0, 0, 0)" stroke="rgb(204, 204, 204)" stroke-width="1px"></line><line x1="187.41666666666666" y1="0" x2="187.41666666666666" y2="5" style="visibility: inherit;" fill="rgb(0, 0, 0)" stroke="rgb(204, 204, 204)" stroke-width="1px"></line><line x1="218.65277777777777" y1="0" x2="218.65277777777777" y2="5" style="visibility: inherit;" fill="rgb(0, 0, 0)" stroke="rgb(204, 204, 204)" stroke-width="1px"></line><line x1="249.88888888888889" y1="0" x2="249.88888888888889" y2="5" style="visibility: inherit;" fill="rgb(0, 0, 0)" stroke="rgb(204, 204, 204)" stroke-width="1px"></line><line x1="281.125" y1="0" x2="281.125" y2="5" style="visibility: inherit;" fill="rgb(0, 0, 0)" stroke="rgb(204, 204, 204)" stroke-width="1px"></line></g><g transform="translate(0, 8)"><text x="0" y="0" dx="0em" dy="0.95em" style="text-anchor: middle; visibility: hidden; font-family: &quot;Helvetica Neue&quot;, sans-serif; font-size: 12px; font-weight: 200;" fill="rgb(50, 49, 63)" stroke="none" stroke-width="1px">-5k</text><text x="31.23611111111111" y="0" dx="0em" dy="0.95em" style="text-anchor: middle; visibility: inherit; font-family: &quot;Helvetica Neue&quot;, sans-serif; font-size: 12px; font-weight: 200;" fill="rgb(50, 49, 63)" stroke="none" stroke-width="1px">0</text><text x="62.47222222222222" y="0" dx="0em" dy="0.95em" style="text-anchor: middle; visibility: inherit; font-family: &quot;Helvetica Neue&quot;, sans-serif; font-size: 12px; font-weight: 200;" fill="rgb(50, 49, 63)" stroke="none" stroke-width="1px">5k</text><text x="93.70833333333333" y="0" dx="0em" dy="0.95em" style="text-anchor: middle; visibility: inherit; font-family: &quot;Helvetica Neue&quot;, sans-serif; font-size: 12px; font-weight: 200;" fill="rgb(50, 49, 63)" stroke="none" stroke-width="1px">10k</text><text x="124.94444444444444" y="0" dx="0em" dy="0.95em" style="text-anchor: middle; visibility: inherit; font-family: &quot;Helvetica Neue&quot;, sans-serif; font-size: 12px; font-weight: 200;" fill="rgb(50, 49, 63)" stroke="none" stroke-width="1px">15k</text><text x="156.18055555555557" y="0" dx="0em" dy="0.95em" style="text-anchor: middle; visibility: inherit; font-family: &quot;Helvetica Neue&quot;, sans-serif; font-size: 12px; font-weight: 200;" fill="rgb(50, 49, 63)" stroke="none" stroke-width="1px">20k</text><text x="187.41666666666666" y="0" dx="0em" dy="0.95em" style="text-anchor: middle; visibility: inherit; font-family: &quot;Helvetica Neue&quot;, sans-serif; font-size: 12px; font-weight: 200;" fill="rgb(50, 49, 63)" stroke="none" stroke-width="1px">25k</text><text x="218.65277777777777" y="0" dx="0em" dy="0.95em" style="text-anchor: middle; visibility: inherit; font-family: &quot;Helvetica Neue&quot;, sans-serif; font-size: 12px; font-weight: 200;" fill="rgb(50, 49, 63)" stroke="none" stroke-width="1px">30k</text><text x="249.88888888888889" y="0" dx="0em" dy="0.95em" style="text-anchor: middle; visibility: inherit; font-family: &quot;Helvetica Neue&quot;, sans-serif; font-size: 12px; font-weight: 200;" fill="rgb(50, 49, 63)" stroke="none" stroke-width="1px">35k</text><text x="281.125" y="0" dx="0em" dy="0.95em" style="text-anchor: middle; visibility: hidden; font-family: &quot;Helvetica Neue&quot;, sans-serif; font-size: 12px; font-weight: 200;" fill="rgb(50, 49, 63)" stroke="none" stroke-width="1px">40k</text></g><line x1="0" y1="0" x2="281.125" y2="0" fill="rgb(0, 0, 0)" stroke="rgb(204, 204, 204)" stroke-width="1px"></line></g></g></g></g></svg>