<svg viewBox="0 0 903 400" xmlns="http://www.w3.org/2000/svg"><g><g><g><g><g><line x1="48.875" y1="377" x2="43.875" y2="377" style="visibility: inherit;" fill="rgb(0, 0, 0)" stroke="rgb(204, 204, 204)" stroke-width="1px"></line><line x1="48.875" y1="329.87500000000006" x2="43.875" y2="329.87500000000006" style="visibility: inherit;" fill="rgb(0, 0, 0)" stroke="rgb(204, 204, 204)" stroke-width="1px"></line><line x1="48.875" y1="282.75" x2="43.875" y2="282.75" style="visibility: inherit;" fill="rgb(0, 0, 0)" stroke="rgb(204, 204, 204)" stroke-width="1px"></line><line x1="48.875" y1="235.62500000000006" x2="43.875" y2="235.62500000000006" style="visibility: inherit;" fill="rgb(0, 0, 0)" stroke="rgb(204, 204, 204)" stroke-width="1px"></line><line x1="48.875" y1="188.5" x2="43.875" y2="188.5" style="visibility: inherit;" fill="rgb(0, 0, 0)" stroke="rgb(204, 204, 204)" stroke-width="1px"></line><line x1="48.875" y1="141.37499999999997" x2="43.875" y2="141.37499999999997" style="visibility: inherit;" fill="rgb(0, 0, 0)" stroke="rgb(204, 204, 204)" stroke-width="1px"></line><line x1="48.875" y1="94.25" x2="43.875" y2="94.25" style="visibility: inherit;" fill="rgb(0, 0, 0)" stroke="rgb(204, 204, 204)" stroke-width="1px"></line><line x1="48.875" y1="47.12499999999994" x2="43.875" y2="47.12499999999994" style="visibility: inherit;" fill="rgb(0, 0, 0)" stroke="rgb(204, 204, 204)" stroke-width="1px"></line><line x1="48.875" y1="0" x2="43.875" y2="0" style="visibility: inherit;" fill="rgb(0, 0, 0)" stroke="rgb(204, 204, 204)" stroke-width="1px"></line></g><g transform="translate(38.875, 0)"><text x="0" y="377" dx="0em" dy="0.3em" style="text-anchor: end; visibility: hidden; font-family: &quot;Helvetica Neue&quot;, sans-serif; font-size: 12px; font-weight: 200;" fill="rgb(50, 49, 63)" stroke="none" stroke-width="1px">0.55</text><text x="0" y="329.87500000000006" dx="0em" dy="0.3em" style="text-anchor: end; visibility: inherit; font-family: &quot;Helvetica Neue&quot;, sans-serif; font-size: 12px; font-weight: 200;" fill="rgb(50, 49, 63)" stroke="none" stroke-width="1px">0.6</text><text x="0" y="282.75" dx="0em" dy="0.3em" style="text-anchor: end; visibility: inherit; font-family: &quot;Helvetica Neue&quot;, sans-serif; font-size: 12px; font-weight: 200;" fill="rgb(50, 49, 63)" stroke="none" stroke-width="1px">0.65</text><text x="0" y="235.62500000000006" dx="0em" dy="0.3em" style="text-anchor: end; visibility: inherit; font-family: &quot;Helvetica Neue&quot;, sans-serif; font-size: 12px; font-weight: 200;" fill="rgb(50, 49, 63)" stroke="none" stroke-width="1px">0.7</text><text x="0" y="188.5" dx="0em" dy="0.3em" style="text-anchor: end; visibility: inherit; font-family: &quot;Helvetica Neue&quot;, sans-serif; font-size: 12px; font-weight: 200;" fill="rgb(50, 49, 63)" stroke="none" stroke-width="1px">0.75</text><text x="0" y="141.37499999999997" dx="0em" dy="0.3em" style="text-anchor: end; visibility: inherit; font-family: &quot;Helvetica Neue&quot;, sans-serif; font-size: 12px; font-weight: 200;" fill="rgb(50, 49, 63)" stroke="none" stroke-width="1px">0.8</text><text x="0" y="94.25" dx="0em" dy="0.3em" style="text-anchor: end; visibility: inherit; font-family: &quot;Helvetica Neue&quot;, sans-serif; font-size: 12px; font-weight: 200;" fill="rgb(50, 49, 63)" stroke="none" stroke-width="1px">0.85</text><text x="0" y="47.12499999999994" dx="0em" dy="0.3em" style="text-anchor: end; visibility: inherit; font-family: &quot;Helvetica Neue&quot;, sans-serif; font-size: 12px; font-weight: 200;" fill="rgb(50, 49, 63)" stroke="none" stroke-width="1px">0.9</text><text x="0" y="0" dx="0em" dy="0.3em" style="text-anchor: end; visibility: hidden; font-family: &quot;Helvetica Neue&quot;, sans-serif; font-size: 12px; font-weight: 200;" fill="rgb(50, 49, 63)" stroke="none" stroke-width="1px">0.95</text></g><line x1="48.875" y1="0" x2="48.875" y2="377" fill="rgb(0, 0, 0)" stroke="rgb(204, 204, 204)" stroke-width="1px"></line></g></g><g transform="translate(48, 0)" clip-path="url(#clip_0)"><clipPath id="clip_0"><rect width="854" height="377"></rect></clipPath><g><g><g><line x1="0" y1="0" x2="0" y2="377" fill="rgb(0, 0, 0)" stroke="rgb(60, 60, 60)" stroke-width="1px" opacity="0.25"></line><line x1="94.90277777777777" y1="0" x2="94.90277777777777" y2="377" fill="rgb(0, 0, 0)" stroke="rgb(60, 60, 60)" stroke-width="1px" opacity="0.25"></line><line x1="189.80555555555554" y1="0" x2="189.80555555555554" y2="377" fill="rgb(0, 0, 0)" stroke="rgb(60, 60, 60)" stroke-width="1px" opacity="0.25"></line><line x1="284.7083333333333" y1="0" x2="284.7083333333333" y2="377" fill="rgb(0, 0, 0)" stroke="rgb(60, 60, 60)" stroke-width="1px" opacity="0.25"></line><line x1="379.6111111111111" y1="0" x2="379.6111111111111" y2="377" fill="rgb(0, 0, 0)" stroke="rgb(60, 60, 60)" stroke-width="1px" opacity="0.25"></line><line x1="474.5138888888889" y1="0" x2="474.5138888888889" y2="377" fill="rgb(0, 0, 0)" stroke="rgb(60, 60, 60)" stroke-width="1px" opacity="0.25"></line><line x1="569.4166666666666" y1="0" x2="569.4166666666666" y2="377" fill="rgb(0, 0, 0)" stroke="rgb(60, 60, 60)" stroke-width="1px" opacity="0.25"></line><line x1="664.3194444444445" y1="0" x2="664.3194444444445" y2="377" fill="rgb(0, 0, 0)" stroke="rgb(60, 60, 60)" stroke-width="1px" opacity="0.25"></line><line x1="759.2222222222222" y1="0" x2="759.2222222222222" y2="377" fill="rgb(0, 0, 0)" stroke="rgb(60, 60, 60)" stroke-width="1px" opacity="0.25"></line><line x1="854.125" y1="0" x2="854.125" y2="377" fill="rgb(0, 0, 0)" stroke="rgb(60, 60, 60)" stroke-width="1px" opacity="0.25"></line></g><g><line x1="0" y1="377" x2="854.125" y2="377" fill="rgb(0, 0, 0)" stroke="rgb(60, 60, 60)" stroke-width="1px" opacity="0.25"></line><line x1="0" y1="329.87500000000006" x2="854.125" y2="329.87500000000006" fill="rgb(0, 0, 0)" stroke="rgb(60, 60, 60)" stroke-width="1px" opacity="0.25"></line><line x1="0" y1="282.75" x2="854.125" y2="282.75" fill="rgb(0, 0, 0)" stroke="rgb(60, 60, 60)" stroke-width="1px" opacity="0.25"></line><line x1="0" y1="235.62500000000006" x2="854.125" y2="235.62500000000006" fill="rgb(0, 0, 0)" stroke="rgb(60, 60, 60)" stroke-width="1px" opacity="0.25"></line><line x1="0" y1="188.5" x2="854.125" y2="188.5" fill="rgb(0, 0, 0)" stroke="rgb(60, 60, 60)" stroke-width="1px" opacity="0.25"></line><line x1="0" y1="141.37499999999997" x2="854.125" y2="141.37499999999997" fill="rgb(0, 0, 0)" stroke="rgb(60, 60, 60)" stroke-width="1px" opacity="0.25"></line><line x1="0" y1="94.25" x2="854.125" y2="94.25" fill="rgb(0, 0, 0)" stroke="rgb(60, 60, 60)" stroke-width="1px" opacity="0.25"></line><line x1="0" y1="47.12499999999994" x2="854.125" y2="47.12499999999994" fill="rgb(0, 0, 0)" stroke="rgb(60, 60, 60)" stroke-width="1px" opacity="0.25"></line><line x1="0" y1="0" x2="854.125" y2="0" fill="rgb(0, 0, 0)" stroke="rgb(60, 60, 60)" stroke-width="1px" opacity="0.25"></line></g></g></g><g><g><line x1="0" y1="895.3750000000001" x2="854.125" y2="895.3750000000001" fill="rgb(0, 0, 0)" stroke="rgb(153, 153, 153)" stroke-width="1.5px"></line></g></g><g><g><line x1="94.90277777777777" y1="0" x2="94.90277777777777" y2="377" fill="rgb(0, 0, 0)" stroke="rgb(153, 153, 153)" stroke-width="1.5px"></line></g></g><g><g><g><g><g><path stroke="rgb(255, 112, 67)" stroke-width="2px" d="M120.20385833333333,-15.503494805986634L120.27978055555555,13.988149606731895L121.19084722222223,17.68717175038148L121.32371111111111,31.097231032813625L122.15885555555555,3.3347049647071003L122.72827222222223,36.29648737843638L123.8101638888889,30.613901833514603L124.3606,48.03757373192502L124.66428888888889,90.47510849216599L124.96797777777778,94.57804656502282L126.03088888888888,69.82090366137464L126.99889722222223,63.47931078817737L127.34054722222221,58.263359104049414L127.51137222222222,68.91176186472433L127.8150611111111,91.9395316033183L127.87200277777777,92.05902521542436L128.70714722222223,116.99810951193786L129.90292222222223,96.44997455620347L130.32049444444445,85.96330709423529L130.3774361111111,86.53078914383599L130.52928055555554,88.00356712758287L131.28850277777778,99.8677765179865L131.61117222222222,122.51116766030816L131.85791944444443,124.26350514587904L133.54718888888888,89.53012028036756L134.68602222222222,118.04187072931677L136.41325277777779,62.29144619476142L136.64101944444445,99.24883824927417L137.24839722222222,139.90122643913517L137.36228055555557,179.55056996229715L137.74189166666667,186.11524829318185L137.83679444444445,183.77816583544052L138.69091944444446,162.49013584750904L138.91868611111113,176.70603117882024L139.58300555555556,137.78213295661686L140.24732500000002,140.14943782879874L140.26630555555556,157.48866944547876L141.13941111111112,186.5904890479826L141.46208055555556,176.92912038458485L141.50004166666665,140.89066851313765L141.59494444444445,133.77967466220764L142.06945833333333,140.58730234685842L142.0884388888889,150.9931822060543L142.31620555555557,143.16002999776595L142.41110833333335,145.70879560133218L142.96154444444443,136.47312113893267L143.24625277777778,128.52705504448554L143.3601361111111,148.10992670030205L145.86556944444445,147.75252596122513L146.90949999999998,124.80206709851322L147.83954722222222,135.80266717523034L149.87046666666666,136.0709154453855L151.21808611111112,124.58595694583539L152.05323055555556,159.66725793768094L152.56570555555555,163.05647761398035L152.62264722222224,170.37075033648892L153.72351944444443,165.563841252709L154.9003138888889,174.81347008298903L155.56463333333335,172.30001847595614L156.2099722222222,178.3794663825669L156.4757,160.29795014137255L156.5136611111111,147.13026295467745L156.53264166666665,159.45503463962402L157.6335138888889,189.34035351645193L160.9551111111111,189.0210653231814L163.23277777777778,157.62203778542724L163.57442777777777,163.73778092692882L163.6123888888889,164.63323284286616L164.56141666666667,182.29334624468305L165.62432777777778,200.6974181286038L165.9090361111111,203.83112014243247L166.89602499999998,219.96855309551498L167.29461666666666,235.53258207407922L167.42748055555555,232.56570441107354L169.45839999999998,239.4841728602672L169.98985555555555,209.35357096164375L170.52131111111112,204.38442561846335L171.5083,195.76708905590397L172.68509444444445,201.83665684874555L174.5451888888889,207.1772238970738L175.1335861111111,202.9843517399395L175.2284888888889,185.40199057200937L176.59508888888888,182.81331276857483L176.84183611111112,211.51238799073477L176.8797972222222,216.07291271673546L178.41722222222222,245.66614874831976L180.16343333333333,233.52204062123377L180.48610277777777,242.01447535502487L180.88469444444445,254.34149273006665L182.7447888888889,232.33432884078354L183.42808888888888,225.14460527337263L183.5040111111111,236.8097970332901L183.65585555555555,260.4095743802905L185.06041666666667,240.5159727995228L185.78167777777776,214.65440616992896L186.04740555555554,208.41893523924216L186.76866666666666,170.85808482165734L186.99643333333333,180.77827924725776L187.79361666666665,161.17721681736325L189.08429444444445,174.349178188696L189.25511944444446,198.73976370910077L189.31206111111112,193.60743054878276L190.75458333333333,198.78522880751825L190.79254444444445,204.1643725745614L191.81749444444443,206.01645686106303L192.34895,234.25383062289004L194.34190833333335,243.14617148116733L196.05015833333334,250.1593246166438L196.3538472222222,246.79668566611593L196.619575,224.77105733768454L197.77738888888888,213.95838678488917L199.6185027777778,233.8258169568169L200.22588055555556,237.104351751601L202.40864444444446,228.64331094777302L202.6933527777778,234.21863634798356L203.52849722222223,213.49667896874797L205.14184444444444,198.11810215740235L205.4645138888889,196.2411592270663L205.52145555555555,200.9793049851495L206.20475555555555,227.60333479401092L206.33761944444444,277.9894975123204L207.02091944444444,279.9200209794877L207.41951111111112,281.3778728376888L208.59630555555557,292.5163032133021L208.97591666666668,255.10665899030198L211.08275833333335,252.00910287804504L211.2725638888889,267.08245332066485L212.5822222222222,262.2748974503533L212.82896944444445,269.9729010427867L212.94285277777777,250.96495874910806L213.18959999999998,244.69781680219924L214.2714916666667,241.4444538194749L214.70804444444443,230.7428993367442L214.8029472222222,221.3492845286899L215.92280000000002,225.31782932221728L216.37833333333336,215.73501736605076L218.20046666666667,229.93180474450537L218.656,221.29002526289432L219.68095,220.29920553497197L220.2313861111111,254.98253392774893L221.25633611111112,272.8774643635692L221.99657777777776,290.0110934433903L222.05351944444442,279.359647372816L222.28128611111111,272.7268125292385L222.86968333333334,289.8187066958382L224.84366111111112,268.37222988879887L224.99550555555555,289.88074183151843L225.2802138888889,286.0652142982824L227.12132777777776,291.24151173956056L227.61482222222222,262.98116819695747L228.03239444444444,240.64278728149003L229.77860555555554,266.95941186178726L229.93045,244.83221835034487L230.7086527777778,244.63840007863882L231.8664666666667,238.5242527370598L232.45486388888887,254.00384599238305L233.66961944444444,237.08896743219898L234.201075,269.45006871796727L234.22005555555555,281.2969626699512L234.58068611111113,287.69481474844366L235.01723888888887,307.39055710248806L235.37786944444443,314.75751829870137L236.30791666666667,295.2904897733187L236.49772222222225,266.4600832583699L236.5546638888889,277.91032026542376L236.8393722222222,294.8639422317335L237.46573055555555,271.36357498526513L240.8063083333333,273.650565364122L240.92019166666668,268.5751920689104L242.19188888888888,261.7393882959459L242.72334444444442,244.52671279247846L242.91315,234.45781555018567L243.57746944444443,225.2196473493679L244.8491666666667,243.6224884995523L245.45654444444446,241.82894322924028L246.57639722222223,239.56104670555726L247.24071666666666,228.2182629024466L247.67726944444445,226.3007435509849L247.99993888888886,274.24092332776115L250.1637222222222,287.78698405179813L250.82804166666668,301.8136271509733L250.941925,287.2801879688028L252.25158333333334,294.5128818180516L253.0867277777778,282.39893068232266L253.63716388888886,287.1672148308643L253.73206666666664,285.96062858113567L253.90289166666668,269.6108268690641L255.61114166666667,261.53862448886247L255.66808333333333,278.22930536481863L256.19953888888887,284.85958865769584L256.3893444444444,266.5532040923112L257.49021666666664,250.6728407579227L258.1545361111111,246.88509686217097L258.78089444444447,265.12213699475166L258.799875,267.7340873864605L259.93870833333335,264.37850142641753L262.29229722222226,299.4680831976169L262.3492388888889,320.5586846201083L263.41215,284.8486152248657L263.9056444444445,293.5323896620914L263.96258611111114,293.9770824321655L264.3611777777778,309.9438347821562L264.49404166666665,306.14398531944335L265.59491388888887,301.79629872340433L265.70879722222224,307.01634141265436L266.7717083333333,282.8636213926023L270.0173833333333,254.88256509229814L270.1502472222222,244.87820356562892L270.6627222222222,249.95477672502503L271.72563333333335,255.68226909688175L272.3330111111111,235.06767863065636L273.54776666666663,246.01882796305802L273.60470833333335,252.2284093786382L273.98431944444445,255.16616938645262L274.6106777777778,248.4718604811109L276.11014166666666,293.37053581047513L276.24300555555556,311.6498184679059L276.48975277777777,292.51163923013854L276.907325,313.9566971496859L277.62858611111113,291.45319652772656L278.1980027777778,309.7378743661446L278.63455555555555,320.61621310549987L278.97620555555557,339.3208314552189L280.3048444444444,323.9879493102003L281.7283861111111,324.5744091024738L282.94314166666663,293.73298705522654L284.1768777777778,272.5748762780693L285.80920555555554,248.37598393525295L286.3027,247.12383511165152L287.89706666666666,261.9879917293749L289.9469666666667,282.604368471501L290.07983055555553,295.8343600531803L292.2246333333333,285.1198252260916L292.281575,304.21302632214025L292.68016666666665,318.019093869456L293.80001944444444,293.32351269622353L293.989825,278.1404492634517L294.0657472222222,278.9192902909507L294.6161833333333,270.4033603231186L295.2425416666667,284.302024803166L296.2295305555555,270.2478196630504L296.5522,268.3393102770821L296.81792777777775,266.23433549915404L297.1216166666667,281.32770874330197L297.4442861111111,270.49983973639485L298.20350833333333,286.024245913847L299.0766138888889,270.3114858484409L299.09559444444443,265.19933102227105L299.5131666666667,250.65738178310897L300.17748611111114,258.8749498189575L300.3672916666667,260.47520580655856L300.67098055555556,256.2175371454151L300.84180555555554,276.40940336024715L301.1075333333333,261.45322901985617L301.82879444444444,258.69979826797L301.8857361111111,256.947541845971L302.531075,255.21558782645081L302.6069972222222,250.60800591223244L303.04355,235.96308739848612L303.1574333333333,251.49745783726974L303.19539444444445,268.017166110996L303.95461666666665,294.4542183835051L304.0685,325.3980532740797L304.31524722222224,341.5641195687798L304.41015,343.13878026683017L305.62490555555553,305.3185120289259L305.9855361111111,319.9401068964442L306.1563611111111,325.27019951813463L307.0104861111111,314.86730747266444L307.44703888888887,307.6954321673145L307.485,297.83854401174966L307.5039805555556,292.1786249879825L308.6238333333333,308.999226486911L311.6417416666667,279.9116865016399L312.6477111111111,277.9088177452909L313.0273222222222,246.20761165442627L313.61571944444444,239.66444536103344L313.7865444444445,243.90374766620127L314.1092138888889,241.55989718933188L314.4318833333333,251.9522518902974L315.02028055555553,273.4566534990046L315.98828888888886,247.64995776617363L316.4248416666667,239.67460862996472L316.6905694444444,234.9703395140307L318.09513055555556,279.066472242602L320.25891388888886,266.69646068234937L322.0810472222222,266.78723423373526L322.17595,283.97773106510544L322.85925,283.1325054384179L323.44764722222226,273.81918410163564L325.2887611111111,295.32576527417564L325.78225555555554,277.21220630538977L325.8581777777778,282.11793704111886L326.1618666666667,284.2677239613504L326.95905,288.11454316596814L328.1738055555556,269.4801127589979L328.23074722222225,262.30103654129744L328.5344361111111,270.84915451087625L330.35656944444446,260.21820352004806L331.3625388888889,312.18422150329855L333.16569166666665,303.90998804400033L335.4053972222222,295.38436399596736L335.9368527777778,276.4790837210286L337.05670555555554,299.5106732035797L337.9487916666667,284.03395584733016L339.31539166666664,278.0160556168004L339.67602222222223,247.48399253670235L340.49218611111115,229.05132132759013L340.8717972222222,236.10528261655756L341.9726694444444,246.05274132009853L342.29533888888886,243.0381392545493L342.8078138888889,253.79742589634606L343.2064055555556,250.6863275232431L343.43417222222223,233.0594647206376L343.7188805555556,240.39635781511723L343.79480277777776,265.6387503031794L344.11747222222226,264.64876207613366L344.80077222222224,266.2482036167587L345.55999444444444,304.011780942333L346.1863527777778,310.26307699969556L348.2742138888889,299.8059441559979L349.2801833333333,296.07061227044284L349.3561055555556,274.7858663432647L349.73571666666663,258.6644651551753L350.6657638888889,272.8588305389708L351.2162,288.669880025138L352.01338333333337,292.0227490261492L352.9813916666667,289.5086186406194L353.41794444444446,295.36863491995206L354.53779722222225,297.5212646726553L354.5947388888889,279.32075307391796L355.828475,256.298153636591L356.3789111111111,260.50782476528667L357.02425,270.94668298163515L357.68856944444445,279.2260691714198L358.1251222222222,256.07860866736837L358.4288111111111,245.56196598739308L359.81439166666667,267.5369080455951L360.1750222222222,292.7696737022312L360.59259444444444,286.0630744559236L362.149,291.21220655814807L364.8252583333333,278.54168427929875L366.077975,285.43513427344317L366.2108388888889,288.0105967174015L366.38166388888885,281.4344005733753L366.70433333333335,261.194726607205L366.9321,283.6202108985195L367.04598333333337,293.7853048161274L368.1658361111111,265.30896039698166L369.1148638888889,281.059123133979L370.00694999999996,267.8249754282008L370.69025,267.86239350868294L371.1457833333333,258.7811879458012L371.202725,266.0510004485835L372.6262666666667,249.10784216673306L372.74015,247.6530360934206L373.3095666666667,284.04750574571295L373.48039166666666,308.00616438950544L373.5563138888889,312.534948347601L373.6701972222222,323.0822890392499L375.4164083333333,329.5777425045702L375.4353888888889,344.80758710354166L375.5872333333333,320.0487158158398L375.66315555555553,311.732327452837L375.985825,310.319959730827L377.2005805555556,315.1117590969344L377.5612111111111,305.7079245630229L378.20655000000005,291.8710746993616L380.12358611111114,274.6405593174693L381.3193611111111,276.12606006968L382.1924666666667,295.4191144830465L383.02761111111107,280.47540479460235L383.3882416666667,294.30580155586523L384.6599388888889,280.3183390530069L385.76081111111114,300.83465023232225L386.19736388888884,249.0025452220006L387.7347888888889,285.2015560772158L388.5889138888889,285.49646123088223L388.62687500000004,287.2846164574434L389.2342527777778,282.3664169710999L389.82264999999995,310.6697139502839L390.9425027777778,307.9639705873295L393.65672222222224,276.8616029177168L394.1122555555556,284.0993241640364L394.28308055555556,283.493786071088L394.3969638888889,282.5491846527732L395.27006944444446,282.5467817381666L395.3270111111111,257.62323509428774L395.68764166666665,255.51628914340665L398.193075,250.86224377670484L398.45880277777775,250.81333991598245L400.39481944444447,247.6165597481201L400.79341111111114,285.6179340030355L402.16001111111115,269.57960717353836L403.317825,279.9224780587769L404.684425,311.9471660845528L405.1019972222222,287.7381692524583L405.42466666666667,282.53502497648185L406.2977722222222,293.31310697540636L406.94311111111114,288.15101428118345L408.1768472222222,279.41024671367995L409.20179722222224,285.06430980188964L409.69529166666666,270.71950465812284L409.79019444444447,255.34225883706804L411.1378138888889,242.28991732969524L411.8211138888889,257.96335196479936L412.7511611111111,258.50965595236295L413.92795555555557,251.02395159000676L413.9469361111111,246.00814685818267L414.592275,298.43939900157886L414.85800277777776,311.68038847302216L415.6551861111111,322.1861762181212L418.8249388888889,290.4875404104762L419.4133361111111,296.6040052691206L420.058675,307.1266703676645L421.2164888888889,284.5281775159516L421.4062944444445,295.6459612108993L422.108575,310.4786875759201L422.2604194444445,302.88412847010113L422.73493333333334,296.78181852035414L423.07658333333336,303.9210951872629L423.11454444444445,317.4171893565632L423.5510972222222,296.5332512956129L423.5700777777778,270.07860632546345L423.58905833333336,271.5486971486067L423.646,279.78203340461585L424.00663055555555,273.55493872219756L424.67095,272.54562171014805L425.25934722222223,262.5483649117509L425.6579388888889,263.35841688768625L425.9995888888889,276.220616503099L426.1893944444445,257.6185876390573L427.8786638888889,228.65532110102387L428.14439166666665,240.82929095010408L428.52400277777775,293.1782672666338L428.69482777777773,318.08795292751944L428.8276916666667,312.60713048921207L428.84667222222225,313.3280389436852L429.39710833333334,309.2995159821969L429.58691388888894,316.3424928425111L429.966525,306.38506405582183L431.27618333333334,313.6504012765298L432.2062305555556,310.9277485502845L432.83258888888884,313.0109870489291L433.55385000000007,316.429107275954L435.66069166666665,305.1147071286148L436.13520555555556,297.46338475728663L436.1921472222222,274.0482936083355L436.3629722222222,279.8432908760952L436.8944277777778,277.0706683222918L437.5587472222222,275.99673254635735L437.78651388888886,261.1619879445243L438.52675555555555,256.9082462215905L439.0012694444444,251.91925125268006L439.3239388888889,253.7144139465505L440.6146166666667,265.44451758008086L441.0321888888889,247.78529673064284L441.56364444444444,257.0367374017509L442.5885944444444,297.9197343227072L445.1130083333333,310.28227647762316L445.13198888888894,299.54864385498064L446.93514166666665,298.19107882244884L447.78926666666666,307.888315892598L450.08591388888885,298.64862663530175L450.21877777777775,269.59323225607193L452.59134722222217,279.29883737677164L453.50241388888884,263.89933093377255L454.73615,268.92110829346365L455.09678055555554,282.94912033553715L455.19168333333334,278.8634948568093L455.62823611111116,275.0055953286021L456.04580833333335,264.1354005230623L456.4444,307.976122980902L457.7350777777778,303.7378599796233L458.74104722222216,304.2647486897431L459.8419194444444,304.73739209008954L460.67706388888894,289.04453638930767L460.75298611111106,261.8146394356468L461.2275,273.8269744553792L464.73890277777775,279.22782335511613L465.02361111111105,286.2713389267431L465.0805527777777,284.8340045851413L465.498125,281.6270748282638L465.61200833333334,254.58825849921504L466.523075,278.77623276371355L466.8077833333333,273.038960221163L467.6808888888889,277.90875879690145L467.9466166666666,292.9954670772857L468.1554027777778,283.09994115268626L468.3262277777778,272.33952807089946L469.19933333333336,258.14520597875867L469.4081194444445,254.48141684782962L469.5220027777778,261.6137114444521L470.64185555555554,302.2760298060863L471.1543305555556,317.5256314639741L471.59088333333335,321.34314812210164L472.9195222222222,316.0643182455716L473.33709444444446,301.26259551401245L473.9634527777778,321.94517654153884L474.2861222222223,293.19513348324995L474.41898611111105,281.5939452146524L475.1782083333333,261.93811114400836L475.4249555555556,270.6227254853858L475.51985833333333,285.6921519867309L475.63374166666665,308.3722595233756L475.6906833333333,323.5940079843424L477.13320555555555,304.2026564690722L477.1521861111112,303.0285901196751L477.1901472222222,298.5237956504794L477.98733055555556,272.4051542795164L478.0442722222222,290.2048555681981L478.63266944444445,287.02850366055236L479.14514444444444,294.327625503655L479.2020861111111,246.60206396014433L479.29698888888885,237.27718378681504L480.3599,271.394043979517L480.64460833333334,260.4274793013759L480.8154333333333,263.7463764515416L480.85339444444446,267.5478397349653L481.7834416666667,286.6423147285066L482.86533333333335,272.8238312461425L483.71945833333336,258.3171637331515L484.4976611111111,280.24877708405666L484.74440833333335,293.2437745645667L484.7633888888889,318.7044461557284L485.1809611111111,324.40274103814454L485.27586388888886,306.71187733610924L485.48465,301.17660301327976L487.5914916666666,277.0584833109395L487.99008333333336,294.7740355660925L489.28076111111113,287.9728748756892L489.29974166666665,285.26987247218165L489.3566833333333,294.7149470242827L489.3756638888889,288.592809509812L490.28673055555555,290.07553166841166L490.74226388888894,288.62883770879927L491.3686222222222,284.5225101018956L491.84313611111116,273.2029791298514L493.24769722222226,291.2624920620326L494.00691944444446,246.43423841081878L494.1587638888889,268.4123688321282L494.7661416666667,275.81634782439295L495.01288888888894,272.1345875661721L496.2276444444445,276.2797096610756L497.46138055555554,288.8608689690048L497.8979333333333,334.5834634294757L499.4923,320.0151273006587L499.54924166666666,301.00110338892875L499.64414444444446,318.0896526024719L500.91584166666667,313.88059037005786L501.2574916666666,309.69711143419676L502.68103333333335,303.29361720469905L503.42127500000004,304.91609643451756L503.4402555555555,300.69544610114326L506.42020277777783,277.2968677921976L507.21738611111107,268.52432749532966L507.23636666666664,261.34686252989354L508.4701027777778,253.24193892191641L508.58398611111113,245.01355535573248L508.96359722222223,249.0150426077037L509.07748055555555,243.48692504448832L509.4760722222222,251.062218856115L509.5899555555556,237.8998138018244L510.7287888888889,238.0996206943866L511.8486416666666,282.2090206709311L512.4560194444445,305.9616528491262L512.5888833333333,309.0942235553315L516.6507222222223,306.8486611344846L517.1252361111111,301.5336053787727L517.3719833333333,319.16952583903424L517.8844583333333,284.0777914387843L518.0173222222222,302.08418482916716L518.2261083333334,283.1784573696683L518.321011111111,284.0582745017189L518.4728555555556,292.35987795243136L518.7385833333333,280.1733704617588L519.270038888889,271.5703974730354L520.5796972222222,275.0835468153109L520.6366388888889,279.34568155884443L521.4338222222221,266.03566207337207L522.0981416666666,276.26053608565223L522.8004222222222,271.4468491143506L524.5276527777778,251.15189668336643L524.8313416666667,242.90089250087212L526.8622611111111,275.40152308034584L526.995125,319.5363107364636L527.2228916666667,319.7173619533337L528.1908999999999,314.28735266117786L528.3996861111111,331.1862845658573L528.4186666666667,320.8384281897135L530.1269166666667,308.4978187622778L530.1838583333333,306.0243662561268L532.974,293.89910845549645L533.0499222222222,270.3389409338937L533.0689027777777,275.1052022311393L533.3915722222222,283.2743728597942L533.6762805555555,280.78848265647787L533.866086111111,274.0833732905383L534.0748722222222,266.0689274562833L534.169775,265.9046010669134L534.2646777777778,274.84474306679135L534.3406,276.1877189837478L534.4544833333333,280.7786913014997L534.9100166666666,277.4675110994309L535.0998222222222,281.73700788131544L535.5933166666666,260.9654321224164L536.4474416666667,269.3918872684641L536.8839944444445,269.6364600783827L537.8520027777778,258.76852778948796L538.3075361111112,261.4567461750356L538.6681666666667,277.30567637332956L538.9338944444444,251.0657737091105L539.5602527777778,278.12384807079553L541.7050555555555,284.5787505329223L542.6351027777778,302.62146928433015L544.1725277777778,292.8028804810252L544.3813138888889,275.9382854194287L544.760925,288.8516015822198L545.8997583333334,302.06012227621716L546.1465055555556,308.16800887874984L546.848786111111,307.2725759118332L547.2283972222222,291.54906538543304L547.4371833333333,295.4469069326949L549.0695111111111,289.74804478198473L549.2593166666667,264.679022260369L551.935575,264.736694674409L552.6378555555556,273.72994948668276L552.6758166666667,273.11033888604044L553.2262527777777,277.2239316579449L553.9664944444445,299.42780682305977L554.8775611111112,304.33336754358106L555.7886277777778,306.51754536459623L555.8265888888889,310.84086729425064L555.9784333333333,302.04213319622204L556.5478499999999,297.4908391976519L556.9844027777777,308.58848385478046L557.2501305555555,297.3813836959898L558.3320222222222,292.54129037784935L560.1541555555556,274.0420797439063L561.0082805555555,300.3789106828954L561.0842027777778,295.1303570999495L562.2230361111111,276.2081228455182L563.0961416666667,284.25253869058344L563.6655583333334,285.4206252393821L564.0831305555556,268.8416753231108L564.234975,259.9786411177289L566.5506027777777,248.7757459194166L567.1200194444444,245.5659263319196L567.5375916666667,291.0009121529115L568.16395,323.7762975115689L568.7143861111111,321.93271635884713L569.5685111111111,305.3444419080894L570.3087527777778,310.3873765572834L571.9410805555556,318.1629571023541L573.3266611111111,306.80274218934517L573.801175,277.027862755166L574.0479222222222,281.20480336410196L574.2187472222223,281.2986437181378L575.7182111111111,277.36709565518765L576.8380638888889,275.2686500823406L579.0018472222222,274.4523503587191L579.2865555555555,265.26543608936936L580.2735444444444,267.77950677653115L580.7860194444445,266.63707356083376L581.962813888889,304.7930345799207L582.4373277777778,308.23631771002294L584.1265972222222,300.3555435633306L584.8288777777778,288.34658080909514L585.4931972222223,309.71553420170466L586.1195555555555,315.17104082789615L586.8977583333334,300.69667528561706L588.9476583333334,287.3892644911525L589.2513472222222,282.9258362811516L589.6499388888889,269.04192052851374L589.8207638888889,266.74151597362913L590.1244527777778,265.84797157014697L591.3202277777777,259.59638099172884L591.3392083333333,261.4446708220195L591.6049361111111,240.54588735449028L593.6927972222222,244.9477144738895L593.9395444444444,271.99554437761685L594.1483305555556,255.4589440725159L596.0463861111111,294.4759064735121L597.3180833333333,298.7036216986862L598.1152666666667,309.72024846867845L601.1141944444444,299.7847958373792L602.7085611111111,284.0676484923224L602.7465222222222,270.26920943383345L603.5057444444444,276.2121457631825L603.524725,271.1193557486199L603.5437055555556,281.4123704615392L603.8473944444445,252.55309027332999L604.0941416666667,259.979881917828L604.1321027777777,265.012044677373L606.0111777777778,268.97498745276704L608.8582611111111,269.1968001875531L610.0730166666667,279.05900069196525L610.1869,311.6517443187207L610.3007833333334,320.40299768013784L610.3767055555556,334.0579078719797L610.3956861111111,339.3365963414778L611.8192277777778,334.82746288272557L612.57845,341.1546984260846L613.6223805555555,335.8506865707379L615.6912611111111,312.8172165636623L615.9000472222223,329.12420832421805L616.0518916666666,298.61115692440524L616.9629583333334,292.8147921108237L617.4184916666667,281.33389905351584L618.1777138888889,276.1508634642255L618.2346555555556,262.6254866335089L618.8230527777778,275.80681229909027L619.0128583333334,277.68541562127933L619.1457222222223,268.29729605655587L619.4873722222222,241.32517774665783L620.5692638888888,250.16207488634848L620.9488749999999,269.2846120968977L621.0058166666666,252.5677869901371L621.4044083333333,237.3844062438794L623.0367361111112,291.99534365839884L624.7639666666666,291.4260479408927L624.8019277777778,299.8176932930009L625.4093055555555,285.3952862023745L625.7509555555555,312.28322396275007L631.1224527777778,308.7861727094448L631.6159472222222,295.83249514197087L632.4510916666667,257.10026162204014L633.4950222222221,274.36159748635805L634.6718166666667,279.12128956796L634.9185638888889,289.60459950972364L636.664775,248.78558479195092L637.2152111111111,291.4037837174252L637.9554527777777,299.3608930103013L639.1891888888889,322.1061444158571L643.2700083333333,289.0842308566103L644.7694722222222,288.2170831182677L645.2629666666667,284.7030346047329L645.6805388888889,279.18531279870547L646.0411694444444,253.3385179347317L646.4207805555556,264.591006774099L646.5156833333333,284.3152947297045L646.8193722222222,286.0100755375831L647.0471388888889,275.23400912774855L647.3508277777778,251.9096281176403L647.8633027777778,248.15784325871437L649.1539805555556,279.43650987549756L650.0840277777777,255.79214913132273L650.330775,281.2670534639507L650.4826194444445,272.8040657752126L652.2857722222222,295.3219718166214L653.6523722222222,304.1197705166353L654.2787305555556,295.1403616247662L654.4115944444444,306.26821367610023L654.5824194444444,279.14751340549316L655.5314472222223,287.0822623586722L655.5883888888889,263.49322054481917L655.9869805555556,274.27596716699844L656.2147472222223,276.1578783548942L656.5753777777778,294.45737091046993L656.9360083333333,285.61166537608165L659.5173638888889,264.23409644845407L661.0547888888889,266.19067697574667L661.0737694444445,259.6425503662227L661.7191083333333,285.7115401965975L662.0797388888889,259.26664039746527L662.9528444444444,237.8041191056705L664.3194444444445,238.93257037134987L664.4143472222222,248.4561849196674L664.9078416666666,297.51502060651313L665.7809472222223,314.5623113975498L666.0656555555555,319.7371487418158L666.9197805555556,316.41646021600627L667.6220611111112,318.0846324443583L668.438225,300.4388035106518L668.8178361111111,304.2473434309875L668.9317194444444,291.1407422602603L669.1784666666666,295.7917305815476L669.7099222222222,306.3307569258367L670.5260861111111,307.59034390645957L671.2853083333333,271.88673078654847L672.5570055555555,260.6927331306854L673.0315194444445,268.4500089537095L673.1643833333334,290.121872881114L673.2403055555556,278.3205891842005L675.1193805555556,277.5103153940652L675.1763222222222,278.4742465350994L675.9355444444444,282.10380084121033L676.5429222222222,293.493207697891L677.7197166666666,296.65163787890845L677.9854444444445,272.2318640153968L678.3081138888889,254.2387265683034L678.3270944444445,270.0272600722801L679.1242777777778,328.2628833217914L681.0033527777778,314.4533041932282L681.5158277777778,317.0824391971884L684.2869888888888,302.5270132262026L685.2929583333333,278.8006222509453L687.3428583333333,284.57889978069716L687.5516444444445,274.30901436793005L689.8862527777778,277.8885774778556L691.0061055555556,266.821575961544L691.7083861111112,274.37142112376324L692.1069777777777,258.6278339178684L692.8092583333333,299.16433491416706L693.4925583333332,333.7397080189463L693.5115388888888,345.7579110817002L693.9860527777778,356.14348394607816L695.1628472222222,363.79283456167775L695.2767305555556,356.9325515756679L695.5614388888889,343.62115624723873L696.5104666666666,332.74408285127896L697.0039611111112,304.3502327698876L697.3266305555557,316.66240050187173L697.7631833333332,276.5432342755226L698.6362888888889,271.9873510758535L699.870025,271.367641053227L700.002888888889,265.4797807941599L700.1547333333333,273.8608483081915L701.0658,292.23837977682706L701.236625,280.687592566223L702.3564777777777,287.0212283016509L702.603225,296.19028172977363L705.3554055555555,276.918883419559L705.5831722222222,285.09846027882435L706.2095305555556,275.37402188892094L706.2474916666666,305.3376063115295L707.006713888889,322.5667552236853L708.24045,313.959255366572L709.6450111111111,323.3598192268898L710.5370972222222,325.7611272415096L711.2203972222222,294.62613380435556L711.7708333333334,320.2607744960991L712.3212694444445,324.26123562032024L712.5680166666667,295.8942186628225L712.6249583333333,278.70570106473224L713.877675,269.95877085427435L713.9346166666667,288.0765817898511L714.7507805555556,273.342158897996L715.4910222222222,264.88025304334167L715.6808277777778,279.1020386854219L715.7377694444444,285.4199012422209L716.7437388888889,277.91164032838606L718.8885416666667,266.66083685291926L719.2491722222222,246.64312324364852L719.3820361111111,246.62582591438212L719.4010166666667,250.4099597290988L719.5338805555555,255.53452045654268L720.7676166666666,288.88720062336336L721.2990722222222,313.75296110487585L721.526838888889,299.4557991539037L721.7735861111112,286.04314650980206L721.90645,304.0359716408704L723.4438749999999,318.66763783653107L724.0702333333334,317.5770138332815L724.1461555555555,309.9727787393076L724.6586305555555,309.4531662593927L724.6965916666667,292.33474527184035L725.9682888888889,296.53799628248134L726.4048416666667,293.5927195491214L727.7334805555556,286.4802086080205L727.9232861111111,277.22127462179014L728.2459555555555,286.3652644082937L728.3788194444444,282.1270845487734L728.4357611111111,297.54947731226804L728.7014888888889,297.11818023520783L728.9102750000001,306.201520133007L731.4916305555555,291.230013613694L732.1939111111111,278.7797745375592L733.2378416666667,279.25052813939806L733.3707055555556,282.7633368149552L734.6044416666666,300.5307806477042L735.0789555555555,309.82056387335615L735.2497805555556,311.55172140640354L735.4775472222223,330.6400276138922L735.8381777777778,335.5219659396732L736.1608472222223,339.22001746825725L736.4455555555555,340.7593043537876L737.1857972222223,318.5542905504668L737.4135638888889,318.34137443156027L737.8880777777778,325.70092318922866L738.4574944444445,317.9701371340192L738.5903583333334,300.3215465991637L739.6912305555555,294.0392646461094L739.9000166666666,300.38137404140025L740.5643361111111,287.442230713464L740.9249666666667,277.59795711761546L741.0578305555555,279.98346603110923L741.9309361111111,284.2429203402728L742.917925,278.19167935918153L742.9748666666667,275.70688586277L743.6391861111111,262.4197266986503L744.9298638888889,267.8680269652923L745.4043777777778,265.28103233184345L746.0497166666667,268.77475502971356L746.1066583333334,260.8267881088469L747.0936472222222,252.30055034238183L747.1126277777778,250.70766856716924L747.2644722222223,251.82598581580427L747.5112194444445,221.58838519256176L748.5551499999999,276.3743078279547L749.067625,273.7977113704713L750.2064583333333,298.21498249654957L750.2254388888889,300.7455702941715L750.7189333333333,310.5443785620391L750.9467,323.44729634718067L751.2314083333333,303.95191733000263L751.6110194444444,317.7336923954343L751.7818444444443,308.4205640004549L751.9526694444445,313.06445253172353L752.5220861111111,312.7299300806454L753.4521333333333,317.450624548002L754.4960638888889,304.9043267861628L755.1034416666666,308.8568896231427L755.5210138888889,284.01704934700575L756.9065944444444,282.7344739524379L758.3870777777778,279.95413812922567L759.7916388888889,285.26350401000457L760.7216861111111,283.10339663121863L761.4049861111112,273.47856406982993L762.5817805555555,292.47600053916136L763.5497888888889,310.2657851527319L764.0432833333333,311.09663780630746L764.1002249999999,317.78124493420785L765.5427472222223,302.71277854478757L765.9413388888888,303.4354393102908L766.0931833333334,304.90328376401567L766.3399305555556,317.1065633827991L766.3778916666666,319.37135372963826L766.491775,311.38253699783854L767.7065305555556,290.1195228996538L768.3518694444444,301.5985901536144L768.3898305555556,297.4018294085024L768.4088111111112,308.9321846287821L770.0411388888889,283.04429226645084L770.0980805555555,285.6432549210087L770.6105555555556,297.38893934796425L773.8562305555555,286.4336576623332L773.9890944444444,277.950165686763L774.691375,265.5828080521564L775.2418111111111,274.06306316533926L775.3367138888889,262.7222769503548L776.1338972222222,307.52949013976774L777.3106916666667,337.2033619205268L777.6333611111111,330.8514575195379L777.6523416666666,320.516975309376L778.9050583333334,316.30611117239243L779.0569027777777,323.24626731607583L779.2846694444444,310.36724568446436L779.98695,312.8562506141661L780.0059305555556,321.72790047540644L780.0628722222223,299.84656829246507L781.3155888888889,286.15979279642477L782.3025777777777,285.5937831971954L782.5872861111111,276.84579472386304L782.8719944444445,256.19343432571566L783.1756833333334,252.16482971183103L783.4224305555556,239.42606251282476L784.08675,236.6823458960234L784.4473805555556,239.4115246945964L784.5802444444445,273.193929732701L789.0027138888889,288.3945778494244L789.4582472222222,275.23807477266587" style="fill: none;" fill="none"></path></g></g></g></g><g opacity="0.2"><g><g><g><path stroke="rgb(255, 112, 67)" stroke-width="2px" d="M119.8811888888889,-118.01040166616446L119.93813055555556,0.9794076383113293L120.20385833333333,39.21979805827135L120.27978055555555,58.22561612725252L121.19084722222223,23.235704958438816L121.32371111111111,51.21231994032854L122.15885555555555,-38.309084117412624L122.72827222222223,85.7391609847545L123.8101638888889,22.090023517608586L124.3606,74.17308157682413L124.66428888888889,154.1314106285572L124.96797777777778,100.73245367407799L126.03088888888888,32.685189306735936L126.99889722222223,53.966921478509846L127.34054722222221,50.43943157792086L127.51137222222222,84.88436600565905L127.8150611111111,126.48118621110916L127.87200277777777,92.23826563358301L128.70714722222223,154.40673595666885L129.90292222222223,65.62777212262148L130.32049444444445,70.23330590128893L130.3774361111111,87.38201221823687L130.52928055555554,90.21273410320276L131.28850277777778,117.66409060359001L131.61117222222222,156.47625437378883L131.85791944444443,126.89201137423515L133.54718888888888,37.430042982101384L134.68602222222222,160.80949640274048L136.41325277777779,-21.33419060707098L136.64101944444445,154.68492633104324L137.24839722222222,200.87980872392654L137.36228055555557,239.02458524703982L137.74189166666667,195.96226578950882L137.83679444444445,180.2725421488285L138.69091944444446,130.55809086561203L138.91868611111113,198.02987417578697L139.58300555555556,79.39628562331194L140.24732500000002,143.7003951370716L140.26630555555556,183.49751687049866L141.13941111111112,230.24321845173836L141.46208055555556,162.43706738948822L141.50004166666665,86.83299070596689L141.59494444444445,123.11318388581276L142.06945833333333,150.7987438738346L142.0884388888889,166.60200199484825L142.31620555555557,131.41030168533325L142.41110833333335,149.53194400668144L142.96154444444443,122.61960944533348L143.24625277777778,116.60795590281487L143.3601361111111,177.48423418402672L145.86556944444445,147.21642485260963L146.90949999999998,90.37637880444521L147.83954722222222,152.3035672903061L149.87046666666666,136.47328785061836L151.21808611111112,107.35851919651031L152.05323055555556,212.28920942544937L152.56570555555555,168.1403071284294L152.62264722222224,181.34215942025185L153.72351944444443,158.35347762703896L154.9003138888889,188.6879133284092L155.56463333333335,168.5298410654068L156.2099722222222,187.49863824248314L156.4757,133.17567577958107L156.5136611111111,127.37873217463493L156.53264166666665,177.9421921670437L157.6335138888889,234.16833183169365L160.9551111111111,188.5421330332756L163.23277777777778,110.523496478796L163.57442777777777,172.91139563918114L163.6123888888889,165.97641071677208L164.56141666666667,208.7835163474083L165.62432777777778,228.30352595448494L165.9090361111111,208.53167316317558L166.89602499999998,244.17470252513888L167.29461666666666,258.87862554192543L167.42748055555555,228.11538791656494L169.45839999999998,249.86187553405762L169.98985555555555,164.1576681137085L170.52131111111112,196.930707603693L171.5083,182.84108421206474L172.68509444444445,210.94100853800774L174.5451888888889,215.18807446956635L175.1335861111111,196.69504350423813L175.2284888888889,159.02844882011414L176.59508888888888,178.93029606342316L176.84183611111112,254.5610008239746L176.8797972222222,222.91369980573654L178.41722222222222,290.05600279569626L180.16343333333333,215.30587843060493L180.48610277777777,254.75312745571136L180.88469444444445,272.83201879262924L182.7447888888889,199.32358300685883L183.42808888888888,214.36001992225647L183.5040111111111,254.30758467316628L183.65585555555555,295.80924040079117L185.06041666666667,210.67557042837143L185.78167777777776,175.86205622553825L186.04740555555554,199.06572884321213L186.76866666666666,114.51680919528008L186.99643333333333,195.65857088565826L187.79361666666665,131.7756231725216L189.08429444444445,194.1071202456951L189.25511944444446,235.32564198970795L189.31206111111112,185.90893080830574L190.75458333333333,206.5519261956215L190.79254444444445,212.23308822512627L191.81749444444443,208.79458329081535L192.34895,276.6098912656307L194.34190833333335,256.4846827685833L196.05015833333334,260.67905431985855L196.3538472222222,241.75272724032405L196.619575,191.73261484503746L197.77738888888888,197.7393809556961L199.6185027777778,263.6269622147083L200.22588055555556,242.0221539437771L202.40864444444446,215.9517497420311L202.6933527777778,242.58162444829944L203.52849722222223,182.41374289989471L205.14184444444444,175.0502369403839L205.4645138888889,193.42574483156204L205.52145555555555,208.0865236222744L206.20475555555555,267.53937950730324L206.33761944444444,353.5687415897847L207.02091944444444,282.8158061802387L207.41951111111112,283.56465062499046L208.59630555555557,309.22394877672195L208.97591666666668,198.99219265580177L211.08275833333335,247.3627687096596L211.2725638888889,289.69247898459435L212.5822222222222,255.06356364488602L212.82896944444445,281.51990643143654L212.94285277777777,222.45304530858994L213.18959999999998,235.29710388183594L214.2714916666667,236.56440934538844L214.70804444444443,214.690567612648L214.8029472222222,207.25886231660843L215.92280000000002,231.2706465125084L216.37833333333336,201.36079943180084L218.20046666666667,251.2269858121872L218.656,208.32735604047775L219.68095,218.81297594308853L220.2313861111111,307.00752651691437L221.25633611111112,299.71986001729965L221.99657777777776,315.7115370631218L222.05351944444442,263.3824782669544L222.28128611111111,262.77756026387215L222.86968333333334,315.45654794573784L224.84366111111112,236.20251467823985L224.99550555555555,322.14350974559784L225.2802138888889,280.34192299842834L227.12132777777776,299.0059579014778L227.61482222222222,220.59065288305283L228.03239444444444,207.13521590828896L229.77860555555554,306.43434873223305L229.93045,211.64142808318138L230.7086527777778,244.34767267107966L231.8664666666667,229.3530317246914L232.45486388888887,277.2232358753681L233.66961944444444,211.71664959192276L234.201075,317.9917206466198L234.22005555555555,299.0673035979271L234.58068611111113,297.2915928661823L235.01723888888887,336.93417063355446L235.37786944444443,325.8079600930214L236.30791666666667,266.08994698524475L236.49772222222225,223.21447348594666L236.5546638888889,295.0856757760048L236.8393722222222,320.2943751811981L237.46573055555555,236.11302411556247L240.8063083333333,277.0810509324074L240.92019166666668,260.9621321260929L242.19188888888888,251.4856826364994L242.72334444444442,218.70769953727722L242.91315,219.3544696867466L243.57746944444443,211.36239504814148L244.8491666666667,271.2267502248287L245.45654444444446,239.13862532377246L246.57639722222223,236.15920192003253L247.24071666666666,211.2040871977806L247.67726944444445,223.42446452379227L247.99993888888886,346.1511929929257L250.1637222222222,308.1060751378536L250.82804166666668,322.853591799736L250.941925,265.4800291955471L252.25158333333334,305.36192259192467L253.0867277777778,264.22800397872925L253.63716388888886,294.3196410536766L253.73206666666664,284.15074920654297L253.90289166666668,245.08612430095675L255.61114166666667,249.43032091856003L255.66808333333333,303.2653266787529L256.19953888888887,294.80501359701157L256.3893444444444,239.0936272442341L257.49021666666664,226.85229575634003L258.1545361111111,241.20348101854327L258.78089444444447,292.4776971936226L258.799875,271.6520129740238L259.93870833333335,259.3451224863529L262.29229722222226,352.10245585441595L262.3492388888889,352.1945867538453L263.41215,231.28351113200188L263.9056444444445,306.5580513179302L263.96258611111114,294.64412158727646L264.3611777777778,333.89396330714226L264.49404166666665,300.44421112537384L265.59491388888887,295.2747688293457L265.70879722222224,314.8464054465294L266.7717083333333,246.63454136252406L270.0173833333333,212.9109806418419L270.1502472222222,229.87166127562523L270.6627222222222,257.56963646411896L271.72563333333335,264.2735076546669L272.3330111111111,204.14579293131828L273.54776666666663,262.4455519616604L273.60470833333335,261.54278150200844L273.98431944444445,259.5728093981743L274.6106777777778,238.4303971230984L276.11014166666666,360.7185488045216L276.24300555555556,339.06874245405197L276.48975277777777,263.8043703734875L276.907325,346.124284029007L277.62858611111113,257.6979455947876L278.1980027777778,337.16489112377167L278.63455555555555,336.93372121453285L278.97620555555557,367.3777589797974L280.3048444444444,300.98862609267235L281.7283861111111,325.454098790884L282.94314166666663,247.47085398435595L284.1768777777778,240.83771011233333L285.80920555555554,212.07764542102814L286.3027,245.24561187624934L287.89706666666666,284.2842266559601L289.9469666666667,313.5289335846901L290.07983055555553,315.67934742569923L292.2246333333333,269.0480229854584L292.281575,332.8528279662132L292.68016666666665,338.7281951904297L293.80001944444444,256.28014093637466L293.989825,255.36585411429405L294.0657472222222,280.0875518321991L294.6161833333333,257.6294653713703L295.2425416666667,305.1500215232372L296.2295305555555,249.16651195287704L296.5522,265.47654619812965L296.81792777777775,263.07687333226204L297.1216166666667,303.9677686095238L297.4442861111111,254.25803622603416L298.20350833333333,309.3108551800251L299.0766138888889,246.7423457503319L299.09559444444443,257.5310987830162L299.5131666666667,228.844457924366L300.17748611111114,271.20130187273026L300.3672916666667,262.87558978796005L300.67098055555556,249.83103415369987L300.84180555555554,306.6972026824951L301.1075333333333,239.01896750926974L301.82879444444444,254.56965214014053L301.8857361111111,254.31915721297264L302.531075,252.61765679717064L302.6069972222222,243.69663304090503L303.04355,213.99570962786674L303.1574333333333,274.79901349544525L303.19539444444445,292.79672852158546L303.95461666666665,334.10979679226875L304.0685,371.81380560994154L304.31524722222224,365.81321901083L304.41015,345.5007713139058L305.62490555555553,248.58810967206958L305.9855361111111,341.87249919772154L306.1563611111111,333.26533845067024L307.0104861111111,299.262969404459L307.44703888888887,296.93761920928955L307.485,283.05321177840233L307.5039805555556,283.68874645233154L308.6238333333333,334.2301287353039L311.6417416666667,236.28037652373317L312.6477111111111,274.90451461076736L313.0273222222222,198.65580251812935L313.61571944444444,229.8496959209442L313.7865444444445,250.26270112395287L314.1092138888889,238.04412147402766L314.4318833333333,267.54078394174576L315.02028055555553,305.7132559120655L315.98828888888886,208.93991416692734L316.4248416666667,227.71158492565155L316.6905694444444,227.91393584012985L318.09513055555556,345.2106713354588L320.25891388888886,248.14144334197047L322.0810472222222,266.9233945608139L322.17595,309.7634763121605L322.85925,281.8646669983864L323.44764722222226,259.84920209646225L325.2887611111111,327.5856370329857L325.78225555555554,250.041867852211L325.8581777777778,289.47653314471245L326.1618666666667,287.4924043416977L326.95905,293.88477197289467L328.1738055555556,241.52846714854243L328.23074722222225,251.53242221474648L328.5344361111111,283.6713314652443L330.35656944444446,244.27177703380588L331.3625388888889,390.13324847817427L333.16569166666665,291.49863785505295L335.4053972222222,282.59592792391777L335.9368527777778,248.12116330862048L337.05670555555554,334.0580574274063L337.9487916666667,260.81887981295586L339.31539166666664,268.98920527100563L339.67602222222223,201.6858979165554L340.49218611111115,201.40231451392174L340.8717972222222,246.6862245500088L341.9726694444444,260.9739293754101L342.29533888888886,238.51623615622523L342.8078138888889,269.9363558590412L343.2064055555556,246.01967996358874L343.43417222222223,206.61917051672935L343.7188805555556,251.4016974568367L343.79480277777776,303.5023390352726L344.11747222222226,263.1637797355652L344.80077222222224,268.6473659276962L345.55999444444444,360.65714693069464L346.1863527777778,319.64002108573914L348.2742138888889,284.12024489045143L349.2801833333333,290.46761444211006L349.3561055555556,242.8587474524975L349.73571666666663,234.48236337304115L350.6657638888889,294.1503786146641L351.2162,312.3864542543888L352.01338333333337,297.0520525276661L352.9813916666667,285.7374230623245L353.41794444444446,304.1586593389511L354.53779722222225,300.75020930171013L354.5947388888889,252.01998567581177L355.828475,221.76425448060036L356.3789111111111,266.82233145833015L357.02425,286.60497030615807L357.68856944444445,291.64514845609665L358.1251222222222,221.35741791129112L358.4288111111111,229.78700196743011L359.81439166666667,300.49932113289833L360.1750222222222,330.6188221871853L360.59259444444444,276.003175586462L362.149,298.9359047114849L364.8252583333333,259.53590086102486L366.077975,295.7753092646599L366.2108388888889,291.8737903833389L366.38166388888885,271.57010635733604L366.70433333333335,230.83521565794945L366.9321,317.2584373354912L367.04598333333337,309.0329456925392L368.1658361111111,222.59444376826286L369.1148638888889,304.68436723947525L370.00694999999996,247.97375386953357L370.69025,267.918520629406L371.1457833333333,245.1593796014786L371.202725,276.9557192027569L372.6262666666667,223.69310474395752L372.74015,245.47082698345187L373.3095666666667,338.6392102241516L373.48039166666666,343.94415235519415L373.5563138888889,319.32812428474426L373.6701972222222,338.9033000767231L375.4164083333333,339.3209227025509L375.4353888888889,367.65235400199896L375.5872333333333,282.9104088842869L375.66315555555553,299.2577449083328L375.985825,308.2014081478119L377.2005805555556,322.2994581460953L377.5612111111111,291.60217276215553L378.20655000000005,271.11579990386963L380.12358611111114,248.79478624463084L381.3193611111111,278.35431119799614L382.1924666666667,324.358696103096L383.02761111111107,258.0598402619362L383.3882416666667,315.0513966977596L384.6599388888889,259.3371452987194L385.76081111111114,331.6091170012951L386.19736388888884,171.25438770651817L387.7347888888889,339.50007236003876L388.5889138888889,285.9388189613819L388.62687500000004,289.9668492972851L389.2342527777778,274.9891177415848L389.82264999999995,353.1246594190598L390.9425027777778,303.9053555428982L393.65672222222224,230.20805141329765L394.1122555555556,294.95590603351593L394.28308055555556,282.5854789316654L394.3969638888889,281.132282525301L395.27006944444446,282.5431773662567L395.3270111111111,220.23791512846947L395.68764166666665,252.35587021708488L398.193075,243.88117572665217L398.45880277777775,250.7399841248989L400.39481944444447,242.82138949632647L400.79341111111114,342.61999538540846L402.16001111111115,245.5221169292927L403.317825,295.4367843866348L404.684425,359.9841981232167L405.1019972222222,251.42467400431633L405.42466666666667,274.73030856251717L406.2977722222222,309.48022997379303L406.94311111111114,280.4078752398491L408.1768472222222,266.29909536242485L409.20179722222224,293.5454044342041L409.69529166666666,249.20229694247246L409.79019444444447,232.27639010548592L411.1378138888889,222.71140506863594L411.8211138888889,281.4735039174557L412.7511611111111,259.3291119337082L413.92795555555557,239.79539504647258L413.9469361111111,238.48443976044658L414.592275,377.08627721667295L414.85800277777776,331.5418726801872L415.6551861111111,337.94485783576965L418.8249388888889,242.93958669900897L419.4133361111111,305.77870255708694L420.058675,322.91066801548004L421.2164888888889,250.63043823838234L421.4062944444445,312.3226367533207L422.108575,332.72777712345123L422.2604194444445,291.49228981137276L422.73493333333334,287.62835359573364L423.07658333333336,314.6300101876259L423.11454444444445,337.6613306105137L423.5510972222222,265.2073442041874L423.5700777777778,230.39663887023926L423.58905833333336,273.75383338332176L423.646,292.13203778862953L424.00663055555555,264.21429669857025L424.67095,271.0316461920738L425.25934722222223,247.55247971415523L425.6579388888889,264.5734948515892L425.9995888888889,295.51391592621803L426.1893944444445,229.7155443429947L427.8786638888889,185.21042129397392L428.14439166666665,259.09024572372437L428.52400277777775,371.70173174142843L428.69482777777773,355.4524814188481L428.8276916666667,304.38589683175087L428.84667222222225,314.4094016253948L429.39710833333334,303.2567315399647L429.58691388888894,326.90695813298225L429.966525,291.44892087578773L431.27618333333334,324.54840710759163L432.2062305555556,306.8437694609165L432.83258888888884,316.135844796896L433.55385000000007,321.5562876164913L435.66069166666665,288.1431069076061L436.13520555555556,285.9864012002945L436.1921472222222,238.9256568849087L436.3629722222222,288.53578677773476L436.8944277777778,272.9117344915867L437.5587472222222,274.3858288824558L437.78651388888886,238.90987104177478L438.52675555555555,250.52763363718987L439.0012694444444,244.43575879931453L439.3239388888889,256.4071579873562L440.6146166666667,283.03967303037643L441.0321888888889,221.29646545648575L441.56364444444444,270.91389840841293L442.5885944444444,359.2442297041417L445.1130083333333,328.8260897099972L445.13198888888894,283.4481949210167L446.93514166666665,296.1547312736511L447.78926666666666,322.4341714978218L450.08591388888885,284.7890927493572L450.21877777777775,226.01014068722725L452.59134722222217,293.8572450578213L453.50241388888884,240.8000712692738L454.73615,276.4537743330002L455.09678055555554,303.9911383986473L455.19168333333334,272.73505663871765L455.62823611111116,269.2187460362911L456.04580833333335,247.8301083147526L456.4444,373.7372066676617L457.7350777777778,297.380465477705L458.74104722222216,305.05508175492287L459.8419194444444,305.446357190609L460.67706388888894,265.50525283813477L460.75298611111106,220.96979400515556L461.2275,291.8454769849777L464.73890277777775,287.32909670472145L465.02361111111105,296.8366122841835L465.0805527777777,282.67800307273865L465.498125,276.8166801929474L465.61200833333334,214.03003400564194L466.523075,315.0581941604614L466.8077833333333,264.4330514073372L467.6808888888889,285.2134566605091L467.9466166666666,315.62552949786186L468.1554027777778,268.2566522657871L468.3262277777778,256.1989084482193L469.19933333333336,236.8537228405476L469.4081194444445,248.98573315143588L469.5220027777778,272.312153339386L470.64185555555554,363.2695073485375L471.1543305555556,340.40003395080566L471.59088333333335,327.069423109293L472.9195222222222,308.1460734307766L473.33709444444446,279.06001141667366L473.9634527777778,352.9690480828286L474.2861222222223,250.0700688958168L474.41898611111105,264.19216281175613L475.1782083333333,232.45436003804207L475.4249555555556,283.6496469974518L475.51985833333333,308.29629173874855L475.63374166666665,342.3924208283425L475.6906833333333,346.42663067579275L477.13320555555555,275.115629196167L477.1521861111112,301.26749059557915L477.1901472222222,291.7666039466858L477.98733055555556,233.22719222307205L478.0442722222222,316.9044075012207L478.63266944444445,282.2639757990837L479.14514444444444,305.27630826830864L479.2020861111111,175.0137216448784L479.29698888888885,223.28986352682114L480.3599,322.56933426856995L480.64460833333334,243.97763228416446L480.8154333333333,268.72472217679024L480.85339444444446,273.25003466010094L481.7834416666667,315.28402721881866L482.86533333333335,252.09610602259636L483.71945833333336,236.55716246366504L484.4976611111111,313.1461971104145L484.74440833333335,312.7362707853317L484.7633888888889,356.895453542471L485.1809611111111,332.9501833617687L485.27586388888886,280.17558178305626L485.48465,292.87369152903557L487.5914916666666,240.88130375742915L487.99008333333336,321.347363948822L489.28076111111113,277.7711338400841L489.29974166666665,281.21536886692047L489.3566833333333,308.88255885243416L489.3756638888889,279.4096032381058L490.28673055555555,292.29961490631104L490.74226388888894,286.45879676938057L491.3686222222222,278.36301869153976L491.84313611111116,256.22368267178535L493.24769722222226,318.35176146030426L494.00691944444446,179.1918579339981L494.1587638888889,301.37956446409225L494.7661416666667,286.9223163127899L495.01288888888894,266.61194717884064L496.2276444444445,282.49739280343056L497.46138055555554,307.73260793089867L497.8979333333333,403.1673551201821L499.4923,298.1626231074333L499.54924166666666,272.4800675213337L499.64414444444446,343.72247642278677L500.91584166666667,307.5669970214367L501.2574916666666,303.42189303040504L502.68103333333335,293.68837586045265L503.42127500000004,307.3498152792454L503.4402555555555,294.36447060108185L506.42020277777783,242.19900032877925L507.21738611111107,255.36551705002785L507.23636666666664,250.58066508173943L508.4701027777778,241.08455350995067L508.58398611111113,232.67098000645638L508.96359722222223,255.01727348566055L509.07748055555555,235.19474869966507L509.4760722222222,262.425159573555L509.5899555555556,218.1562062203884L510.7287888888889,238.39933103322986L511.8486416666666,348.37312063574797L512.4560194444445,341.59060111641884L512.5888833333333,313.7930796146393L516.6507222222223,303.4803175032139L517.1252361111111,293.5610217452049L517.3719833333333,345.62340652942663L517.8844583333333,231.44018983840942L518.0173222222222,329.0937749147415L518.2261083333334,254.81986618041992L518.321011111111,285.37800019979477L518.4728555555556,304.8122831285L518.7385833333333,261.89360922574997L519.270038888889,258.6659379899502L520.5796972222222,280.3532708287239L520.6366388888889,285.73888367414474L521.4338222222221,246.07063284516337L522.0981416666666,291.59784710407257L522.8004222222222,264.2263186573982L524.5276527777778,220.70946803689003L524.8313416666667,230.5243862271309L526.8622611111111,324.15246894955635L526.995125,385.73849222064024L527.2228916666667,319.98893877863884L528.1908999999999,306.14233872294426L528.3996861111111,356.5346824228764L528.4186666666667,305.3166436254978L530.1269166666667,289.98690462112427L530.1838583333333,302.31418749690056L532.974,275.71122175455093L533.0499222222222,234.99868965148926L533.0689027777777,282.2545941770077L533.3915722222222,295.52812880277634L533.6762805555555,277.0596473515034L533.866086111111,264.02570924162865L534.0748722222222,254.04725870490074L534.169775,265.65811148285866L534.2646777777778,288.25495606660843L534.3406,278.20218285918236L534.4544833333333,287.66514977812767L534.9100166666666,272.5007407963276L535.0998222222222,288.141253054142L535.5933166666666,229.80806848406792L536.4474416666667,282.0315699875355L536.8839944444445,270.0033192932606L537.8520027777778,242.4666293561459L538.3075361111112,265.48907375335693L538.6681666666667,301.07907167077065L538.9338944444444,211.7059197127819L539.5602527777778,318.7109596133232L541.7050555555555,294.26110422611237L542.6351027777778,329.6855474114418L544.1725277777778,278.07499727606773L544.3813138888889,250.641392827034L544.760925,308.2215758264065L545.8997583333334,321.87290331721306L546.1465055555556,317.3298387825489L546.848786111111,305.9294264614582L547.2283972222222,267.9637995958328L547.4371833333333,301.2936692535877L549.0695111111111,281.19975155591965L549.2593166666667,227.07548847794533L551.935575,264.8232032954693L552.6378555555556,287.2198317050934L552.6758166666667,272.1809229850769L553.2262527777777,283.3943208158016L553.9664944444445,332.7336195707321L554.8775611111112,311.69170862436295L555.7886277777778,309.7938120961189L555.8265888888889,317.32585018873215L555.9784333333333,288.8440320491791L556.5478499999999,290.6638981997967L556.9844027777777,325.2349508404732L557.2501305555555,280.5707334578037L558.3320222222222,285.2811504006386L560.1541555555556,246.29326379299167L561.0082805555555,339.88415709137917L561.0842027777778,287.2575267255306L562.2230361111111,247.82477146387103L563.0961416666667,296.3191624581814L563.6655583333334,287.1727550625801L564.0831305555556,243.9732504487038L564.234975,246.68408980965617L566.5506027777777,231.97140312194824L567.1200194444444,240.75119695067409L567.5375916666667,359.15339088439947L568.16395,372.9393755495549L568.7143861111111,319.16734462976456L569.5685111111111,280.46203023195267L570.3087527777778,317.9517785310745L571.9410805555556,329.82632791996L573.3266611111111,289.76241981983185L573.801175,232.3655436038971L574.0479222222222,287.4702142775059L574.2187472222223,281.4394042491913L575.7182111111111,271.4697735607624L576.8380638888889,272.12098172307014L579.0018472222222,273.2279007732868L579.2865555555555,251.4850646853447L580.2735444444444,271.55061280727386L580.7860194444445,264.9234237372875L581.962813888889,362.0269761085511L582.4373277777778,313.40124240517616L584.1265972222222,288.53438234329224L584.8288777777778,270.333136677742L585.4931972222223,341.76896429061895L586.1195555555555,323.3543007671833L586.8977583333334,278.9851269721985L588.9476583333334,267.42814829945564L589.2513472222222,276.2306939661503L589.6499388888889,248.21604689955714L589.8207638888889,263.2909091413021L590.1244527777778,264.50765496492386L591.3202277777777,250.21899512410164L591.3392083333333,264.2171055674553L591.6049361111111,209.19771215319633L593.6927972222222,251.55045515298843L593.9395444444444,312.5672892332077L594.1483305555556,230.65404361486435L596.0463861111111,353.00135007500654L597.3180833333333,305.0451945364475L598.1152666666667,326.24518862366676L601.1141944444444,284.88161689043045L602.7085611111111,260.49192747473717L602.7465222222222,249.57155084609985L603.5057444444444,285.12655025720596L603.524725,263.4801707267761L603.5437055555556,296.8518925309181L603.8473944444445,209.2641699910164L604.0941416666667,271.1200693845749L604.1321027777777,272.56028881669044L606.0111777777778,274.9194016158581L608.8582611111111,269.529519289732L610.0730166666667,293.8523014485836L610.1869,360.54085975885397L610.3007833333334,333.52987772226334L610.3767055555556,354.5402731597424L610.3956861111111,347.2546290457249L611.8192277777778,328.06376269459724L612.57845,350.64555174112326L613.6223805555555,327.8946687877178L615.6912611111111,278.2670115530491L615.9000472222223,353.5846959650517L616.0518916666666,252.84157982468605L616.9629583333334,284.12024489045143L617.4184916666667,264.1125594675541L618.1777138888889,268.37631008028984L618.2346555555556,242.33742138743403L618.8230527777778,295.57880079746246L619.0128583333334,280.50332060456276L619.1457222222223,254.21511670947075L619.4873722222222,200.86700028181076L620.5692638888888,263.4174205958843L620.9488749999999,297.96841791272163L621.0058166666666,227.4925493299961L621.4044083333333,214.60933512449265L623.0367361111112,373.9117497801781L624.7639666666666,290.57210436463356L624.8019277777778,312.4051613211632L625.4093055555555,263.76167556643486L625.7509555555555,352.6151306033135L631.1224527777778,303.54059582948685L631.6159472222222,276.40197879076004L632.4510916666667,199.001911342144L633.4950222222221,300.253601282835L634.6718166666667,286.26082769036293L634.9185638888889,305.329564422369L636.664775,187.55706271529198L637.2152111111111,355.33108210563665L637.9554527777777,311.2965569496155L639.1891888888889,356.22402152419096L643.2700083333333,239.55136051774028L644.7694722222222,286.91636151075363L645.2629666666667,279.4319618344307L645.6805388888889,270.90873008966446L646.0411694444444,214.56832563877106L646.4207805555556,281.4697400331497L646.5156833333333,313.90172666311264L646.8193722222222,288.5522467494011L647.0471388888889,259.0699095129967L647.3508277777778,216.92305660247803L647.8633027777778,242.5301659703255L649.1539805555556,326.35450980067253L650.0840277777777,220.32560801506042L650.330775,319.47940996289253L650.4826194444445,260.1095842421055L652.2857722222222,329.0988308787346L653.6523722222222,317.3164685666561L654.2787305555556,281.6712482869625L654.4115944444444,322.95999175310135L654.5824194444444,238.46646299958232L655.5314472222223,298.9843857884407L655.5883888888889,228.10965782403946L655.9869805555556,290.4500871002674L656.2147472222223,278.9807451367378L656.5753777777778,321.90660974383354L656.9360083333333,272.34310707449913L659.5173638888889,232.16774305701256L661.0547888888889,269.1255477666855L661.0737694444445,249.82036045193672L661.7191083333333,324.81502494215965L662.0797388888889,219.5992906987667L662.9528444444444,205.6103371679783L664.3194444444445,240.62524726986888L664.4143472222222,262.74160674214363L664.9078416666666,371.10327413678175L665.7809472222223,340.13324758410454L666.0656555555555,327.49940475821495L666.9197805555556,311.43542742729187L667.6220611111112,320.5868907868862L668.438225,273.97006011009216L668.8178361111111,309.960153311491L668.9317194444444,271.48084050416946L669.1784666666666,302.76821306347847L669.7099222222222,322.1392964422703L670.5260861111111,309.4797243773937L671.2853083333333,218.33131110668182L672.5570055555555,243.90173664689067L673.0315194444445,280.0859226882458L673.1643833333334,322.6296687722206L673.2403055555556,260.6186636388302L675.1193805555556,276.2949047088623L675.1763222222222,279.9201432466507L675.9355444444444,287.5481323003769L676.5429222222222,310.57731798291206L677.7197166666666,301.3892831504345L677.9854444444445,235.602203220129L678.3081138888889,227.24902039766312L678.3270944444445,293.71006032824516L679.1242777777778,415.61631819605833L681.0033527777778,293.7389355003834L681.5158277777778,321.0261417031288L684.2869888888888,280.6938742697239L685.2929583333333,243.21103578805926L687.3428583333333,293.246316075325L687.5516444444445,258.9041862487793L689.8862527777778,283.25792214274406L691.0061055555556,250.22107368707657L691.7083861111112,285.69618886709213L692.1069777777777,235.01245310902596L692.8092583333333,359.96908640861517L693.4925583333332,385.6027676761151L693.5115388888888,363.7852156758309L693.9860527777778,371.7218432426453L695.1628472222222,375.26686048507696L695.2767305555556,346.64212709665304L695.5614388888889,323.6540632545948L696.5104666666666,316.4284727573395L697.0039611111112,261.75945764780045L697.3266305555557,335.1306520998478L697.7631833333332,216.36448493599892L698.6362888888889,265.15352627635L699.870025,270.4380760192871L700.002888888889,256.64799040555954L700.1547333333333,286.4324495792389L701.0658,319.8046769797802L701.236625,263.3614117503166L702.3564777777777,296.5216819047928L702.603225,309.9438618719578L705.3554055555555,248.011785954237L705.5831722222222,297.3678255677223L706.2095305555556,260.7873643040657L706.2474916666666,350.28298294544226L707.006713888889,348.410478591919L708.24045,301.0480055809021L709.6450111111111,337.4606650173664L710.5370972222222,329.3630892634392L711.2203972222222,247.92364364862445L711.7708333333334,358.71273553371435L712.3212694444445,330.26192730665207L712.5680166666667,253.34369322657585L712.6249583333333,252.92292466759682L713.877675,256.83837553858757L713.9346166666667,315.2532981932163L714.7507805555556,251.2405245602131L715.4910222222222,252.18739426136017L715.6808277777778,300.4347171485424L715.7377694444444,294.8966950774193L716.7437388888889,266.649248957634L718.8885416666667,249.784631639719L719.2491722222222,216.61655282974243L719.3820361111111,246.59987992048266L719.4010166666667,256.0861604511738L719.5338805555555,263.2213615477085L720.7676166666666,338.9162208735943L721.2990722222222,351.0516018271447L721.526838888889,278.0100562274456L721.7735861111112,265.9241675436497L721.90645,331.0252093374729L723.4438749999999,340.61513713002205L724.0702333333334,315.9410778284073L724.1461555555555,298.5664260983467L724.6586305555555,308.67374753952026L724.6965916666667,266.6571137905121L725.9682888888889,302.84287279844284L726.4048416666667,289.1748044490814L727.7334805555556,275.81144219636917L727.9232861111111,263.3328736424446L728.2459555555555,300.08124908804893L728.3788194444444,275.7698147594929L728.4357611111111,320.68306645751L728.7014888888889,296.47123461961746L728.9102750000001,319.8265299797058L731.4916305555555,268.7727538347244L732.1939111111111,260.104415923357L733.2378416666667,279.9566585421562L733.3707055555556,288.03254982829094L734.6044416666666,327.1819463968277L735.0789555555555,323.75523871183395L735.2497805555556,314.1484577059746L735.4775472222223,359.2724869251252L735.8381777777778,342.8448734283448L736.1608472222223,344.76709476113325L736.4455555555555,343.0682346820832L737.1857972222223,285.2467698454857L737.4135638888889,318.02200025320053L737.8880777777778,336.7402463257313L738.4574944444445,306.3739580512047L738.5903583333334,273.8486607968807L739.6912305555555,284.61584171652794L739.9000166666666,309.89453813433647L740.5643361111111,268.0335157215595L740.9249666666667,262.8315467238426L741.0578305555555,283.56172940135L741.9309361111111,290.632101804018L742.917925,269.11481788754463L742.9748666666667,271.9796956181526L743.6391861111111,242.4889879524708L744.9298638888889,276.04047736525536L745.4043777777778,261.40054038167L746.0497166666667,274.015339076519L746.1066583333334,248.90483772754672L747.0936472222222,239.5111936926842L747.1126277777778,248.3183459043503L747.2644722222223,253.50346168875694L747.5112194444445,176.23198425769806L748.5551499999999,358.55319178104406L749.067625,269.93281668424606L750.2064583333333,334.84088918566704L750.2254388888889,304.5414519906044L750.7189333333333,325.2425909638405L750.9467,342.80167302489286L751.2314083333333,274.70884880423546L751.6110194444444,338.4063549935818L751.7818444444443,294.4508714079857L751.9526694444445,320.03028532862663L752.5220861111111,312.22814640402794L753.4521333333333,324.5316662490368L754.4960638888889,286.084880143404L755.1034416666666,314.7857338786125L755.5210138888889,246.75728893280032L756.9065944444444,280.81061086058617L758.3870777777778,275.7836343944073L759.7916388888889,293.22755283117294L760.7216861111111,279.8632355630398L761.4049861111112,259.04131522774696L762.5817805555555,320.97215524315834L763.5497888888889,336.9504620730877L764.0432833333333,312.3429167866707L764.1002249999999,327.8081556260586L765.5427472222223,280.1100789606571L765.9413388888888,304.5194304585457L766.0931833333334,307.10505044460297L766.3399305555556,335.4114828109741L766.3778916666666,322.768539249897L766.491775,299.39931190013885L767.7065305555556,258.22500175237656L768.3518694444444,318.81719103455544L768.3898305555556,291.1066882908344L768.4088111111112,326.2277174592018L770.0411388888889,244.21245372295382L770.0980805555555,289.5416989028454L770.6105555555556,315.0074659883976L773.8562305555555,270.00073513388634L773.9890944444444,265.22492772340775L774.691375,247.03177160024646L775.2418111111111,286.7834458351135L775.3367138888889,245.71109762787822L776.1338972222222,374.7403099238873L777.3106916666667,381.7141695916653L777.6333611111111,321.3236009180546L777.6523416666666,305.015251994133L778.9050583333334,309.98981496691704L779.0569027777777,333.65650153160095L779.2846694444444,291.0487132370472L779.98695,316.5897580087185L780.0059305555556,335.0353752672672L780.0628722222223,267.02457001805305L781.3155888888889,265.62962955236435L782.3025777777777,284.7447687983513L782.5872861111111,263.7238120138645L782.8719944444445,225.21489372849464L783.1756833333334,246.1219227910042L783.4224305555556,220.31791171431541L784.08675,232.56677097082138L784.4473805555556,243.50529289245608L784.5802444444445,323.86753728985786L789.0027138888889,311.19555002450943L789.4582472222222,255.50332015752792" style="fill: none;" fill="none"></path></g></g></g></g></g></g><g transform="translate(48, 377)" clip-path="url(#clip_1)"><clipPath id="clip_1"><rect width="854" height="23"></rect></clipPath><g><g><line x1="0" y1="0" x2="0" y2="5" style="visibility: inherit;" fill="rgb(0, 0, 0)" stroke="rgb(204, 204, 204)" stroke-width="1px"></line><line x1="94.90277777777777" y1="0" x2="94.90277777777777" y2="5" style="visibility: inherit;" fill="rgb(0, 0, 0)" stroke="rgb(204, 204, 204)" stroke-width="1px"></line><line x1="189.80555555555554" y1="0" x2="189.80555555555554" y2="5" style="visibility: inherit;" fill="rgb(0, 0, 0)" stroke="rgb(204, 204, 204)" stroke-width="1px"></line><line x1="284.7083333333333" y1="0" x2="284.7083333333333" y2="5" style="visibility: inherit;" fill="rgb(0, 0, 0)" stroke="rgb(204, 204, 204)" stroke-width="1px"></line><line x1="379.6111111111111" y1="0" x2="379.6111111111111" y2="5" style="visibility: inherit;" fill="rgb(0, 0, 0)" stroke="rgb(204, 204, 204)" stroke-width="1px"></line><line x1="474.5138888888889" y1="0" x2="474.5138888888889" y2="5" style="visibility: inherit;" fill="rgb(0, 0, 0)" stroke="rgb(204, 204, 204)" stroke-width="1px"></line><line x1="569.4166666666666" y1="0" x2="569.4166666666666" y2="5" style="visibility: inherit;" fill="rgb(0, 0, 0)" stroke="rgb(204, 204, 204)" stroke-width="1px"></line><line x1="664.3194444444445" y1="0" x2="664.3194444444445" y2="5" style="visibility: inherit;" fill="rgb(0, 0, 0)" stroke="rgb(204, 204, 204)" stroke-width="1px"></line><line x1="759.2222222222222" y1="0" x2="759.2222222222222" y2="5" style="visibility: inherit;" fill="rgb(0, 0, 0)" stroke="rgb(204, 204, 204)" stroke-width="1px"></line><line x1="854.125" y1="0" x2="854.125" y2="5" style="visibility: inherit;" fill="rgb(0, 0, 0)" stroke="rgb(204, 204, 204)" stroke-width="1px"></line></g><g transform="translate(0, 8)"><text x="0" y="0" dx="0em" dy="0.95em" style="text-anchor: middle; visibility: hidden; font-family: &quot;Helvetica Neue&quot;, sans-serif; font-size: 12px; font-weight: 200;" fill="rgb(50, 49, 63)" stroke="none" stroke-width="1px">-5k</text><text x="94.90277777777777" y="0" dx="0em" dy="0.95em" style="text-anchor: middle; visibility: inherit; font-family: &quot;Helvetica Neue&quot;, sans-serif; font-size: 12px; font-weight: 200;" fill="rgb(50, 49, 63)" stroke="none" stroke-width="1px">0</text><text x="189.80555555555554" y="0" dx="0em" dy="0.95em" style="text-anchor: middle; visibility: inherit; font-family: &quot;Helvetica Neue&quot;, sans-serif; font-size: 12px; font-weight: 200;" fill="rgb(50, 49, 63)" stroke="none" stroke-width="1px">5k</text><text x="284.7083333333333" y="0" dx="0em" dy="0.95em" style="text-anchor: middle; visibility: inherit; font-family: &quot;Helvetica Neue&quot;, sans-serif; font-size: 12px; font-weight: 200;" fill="rgb(50, 49, 63)" stroke="none" stroke-width="1px">10k</text><text x="379.6111111111111" y="0" dx="0em" dy="0.95em" style="text-anchor: middle; visibility: inherit; font-family: &quot;Helvetica Neue&quot;, sans-serif; font-size: 12px; font-weight: 200;" fill="rgb(50, 49, 63)" stroke="none" stroke-width="1px">15k</text><text x="474.5138888888889" y="0" dx="0em" dy="0.95em" style="text-anchor: middle; visibility: inherit; font-family: &quot;Helvetica Neue&quot;, sans-serif; font-size: 12px; font-weight: 200;" fill="rgb(50, 49, 63)" stroke="none" stroke-width="1px">20k</text><text x="569.4166666666666" y="0" dx="0em" dy="0.95em" style="text-anchor: middle; visibility: inherit; font-family: &quot;Helvetica Neue&quot;, sans-serif; font-size: 12px; font-weight: 200;" fill="rgb(50, 49, 63)" stroke="none" stroke-width="1px">25k</text><text x="664.3194444444445" y="0" dx="0em" dy="0.95em" style="text-anchor: middle; visibility: inherit; font-family: &quot;Helvetica Neue&quot;, sans-serif; font-size: 12px; font-weight: 200;" fill="rgb(50, 49, 63)" stroke="none" stroke-width="1px">30k</text><text x="759.2222222222222" y="0" dx="0em" dy="0.95em" style="text-anchor: middle; visibility: inherit; font-family: &quot;Helvetica Neue&quot;, sans-serif; font-size: 12px; font-weight: 200;" fill="rgb(50, 49, 63)" stroke="none" stroke-width="1px">35k</text><text x="854.125" y="0" dx="0em" dy="0.95em" style="text-anchor: middle; visibility: hidden; font-family: &quot;Helvetica Neue&quot;, sans-serif; font-size: 12px; font-weight: 200;" fill="rgb(50, 49, 63)" stroke="none" stroke-width="1px">40k</text></g><line x1="0" y1="0" x2="854.125" y2="0" fill="rgb(0, 0, 0)" stroke="rgb(204, 204, 204)" stroke-width="1px"></line></g></g></g></g></svg>