<svg viewBox="0 0 888 400" xmlns="http://www.w3.org/2000/svg"><g><g><g><g><g><line x1="48.875" y1="377" x2="43.875" y2="377" style="visibility: inherit;" fill="rgb(0, 0, 0)" stroke="rgb(204, 204, 204)" stroke-width="1px"></line><line x1="48.875" y1="329.87500000000006" x2="43.875" y2="329.87500000000006" style="visibility: inherit;" fill="rgb(0, 0, 0)" stroke="rgb(204, 204, 204)" stroke-width="1px"></line><line x1="48.875" y1="282.75" x2="43.875" y2="282.75" style="visibility: inherit;" fill="rgb(0, 0, 0)" stroke="rgb(204, 204, 204)" stroke-width="1px"></line><line x1="48.875" y1="235.62500000000006" x2="43.875" y2="235.62500000000006" style="visibility: inherit;" fill="rgb(0, 0, 0)" stroke="rgb(204, 204, 204)" stroke-width="1px"></line><line x1="48.875" y1="188.5" x2="43.875" y2="188.5" style="visibility: inherit;" fill="rgb(0, 0, 0)" stroke="rgb(204, 204, 204)" stroke-width="1px"></line><line x1="48.875" y1="141.37499999999997" x2="43.875" y2="141.37499999999997" style="visibility: inherit;" fill="rgb(0, 0, 0)" stroke="rgb(204, 204, 204)" stroke-width="1px"></line><line x1="48.875" y1="94.25" x2="43.875" y2="94.25" style="visibility: inherit;" fill="rgb(0, 0, 0)" stroke="rgb(204, 204, 204)" stroke-width="1px"></line><line x1="48.875" y1="47.12499999999994" x2="43.875" y2="47.12499999999994" style="visibility: inherit;" fill="rgb(0, 0, 0)" stroke="rgb(204, 204, 204)" stroke-width="1px"></line><line x1="48.875" y1="0" x2="43.875" y2="0" style="visibility: inherit;" fill="rgb(0, 0, 0)" stroke="rgb(204, 204, 204)" stroke-width="1px"></line></g><g transform="translate(38.875, 0)"><text x="0" y="377" dx="0em" dy="0.3em" style="text-anchor: end; visibility: hidden; font-family: &quot;Helvetica Neue&quot;, sans-serif; font-size: 12px; font-weight: 200;" fill="rgb(50, 49, 63)" stroke="none" stroke-width="1px">0.55</text><text x="0" y="329.87500000000006" dx="0em" dy="0.3em" style="text-anchor: end; visibility: inherit; font-family: &quot;Helvetica Neue&quot;, sans-serif; font-size: 12px; font-weight: 200;" fill="rgb(50, 49, 63)" stroke="none" stroke-width="1px">0.6</text><text x="0" y="282.75" dx="0em" dy="0.3em" style="text-anchor: end; visibility: inherit; font-family: &quot;Helvetica Neue&quot;, sans-serif; font-size: 12px; font-weight: 200;" fill="rgb(50, 49, 63)" stroke="none" stroke-width="1px">0.65</text><text x="0" y="235.62500000000006" dx="0em" dy="0.3em" style="text-anchor: end; visibility: inherit; font-family: &quot;Helvetica Neue&quot;, sans-serif; font-size: 12px; font-weight: 200;" fill="rgb(50, 49, 63)" stroke="none" stroke-width="1px">0.7</text><text x="0" y="188.5" dx="0em" dy="0.3em" style="text-anchor: end; visibility: inherit; font-family: &quot;Helvetica Neue&quot;, sans-serif; font-size: 12px; font-weight: 200;" fill="rgb(50, 49, 63)" stroke="none" stroke-width="1px">0.75</text><text x="0" y="141.37499999999997" dx="0em" dy="0.3em" style="text-anchor: end; visibility: inherit; font-family: &quot;Helvetica Neue&quot;, sans-serif; font-size: 12px; font-weight: 200;" fill="rgb(50, 49, 63)" stroke="none" stroke-width="1px">0.8</text><text x="0" y="94.25" dx="0em" dy="0.3em" style="text-anchor: end; visibility: inherit; font-family: &quot;Helvetica Neue&quot;, sans-serif; font-size: 12px; font-weight: 200;" fill="rgb(50, 49, 63)" stroke="none" stroke-width="1px">0.85</text><text x="0" y="47.12499999999994" dx="0em" dy="0.3em" style="text-anchor: end; visibility: inherit; font-family: &quot;Helvetica Neue&quot;, sans-serif; font-size: 12px; font-weight: 200;" fill="rgb(50, 49, 63)" stroke="none" stroke-width="1px">0.9</text><text x="0" y="0" dx="0em" dy="0.3em" style="text-anchor: end; visibility: hidden; font-family: &quot;Helvetica Neue&quot;, sans-serif; font-size: 12px; font-weight: 200;" fill="rgb(50, 49, 63)" stroke="none" stroke-width="1px">0.95</text></g><line x1="48.875" y1="0" x2="48.875" y2="377" fill="rgb(0, 0, 0)" stroke="rgb(204, 204, 204)" stroke-width="1px"></line></g></g><g transform="translate(48, 0)" clip-path="url(#clip_0)"><clipPath id="clip_0"><rect width="839" height="377"></rect></clipPath><g><g><g><line x1="0" y1="0" x2="0" y2="377" fill="rgb(0, 0, 0)" stroke="rgb(60, 60, 60)" stroke-width="1px" opacity="0.25"></line><line x1="93.2361111111111" y1="0" x2="93.2361111111111" y2="377" fill="rgb(0, 0, 0)" stroke="rgb(60, 60, 60)" stroke-width="1px" opacity="0.25"></line><line x1="186.4722222222222" y1="0" x2="186.4722222222222" y2="377" fill="rgb(0, 0, 0)" stroke="rgb(60, 60, 60)" stroke-width="1px" opacity="0.25"></line><line x1="279.7083333333333" y1="0" x2="279.7083333333333" y2="377" fill="rgb(0, 0, 0)" stroke="rgb(60, 60, 60)" stroke-width="1px" opacity="0.25"></line><line x1="372.9444444444444" y1="0" x2="372.9444444444444" y2="377" fill="rgb(0, 0, 0)" stroke="rgb(60, 60, 60)" stroke-width="1px" opacity="0.25"></line><line x1="466.1805555555556" y1="0" x2="466.1805555555556" y2="377" fill="rgb(0, 0, 0)" stroke="rgb(60, 60, 60)" stroke-width="1px" opacity="0.25"></line><line x1="559.4166666666666" y1="0" x2="559.4166666666666" y2="377" fill="rgb(0, 0, 0)" stroke="rgb(60, 60, 60)" stroke-width="1px" opacity="0.25"></line><line x1="652.6527777777778" y1="0" x2="652.6527777777778" y2="377" fill="rgb(0, 0, 0)" stroke="rgb(60, 60, 60)" stroke-width="1px" opacity="0.25"></line><line x1="745.8888888888888" y1="0" x2="745.8888888888888" y2="377" fill="rgb(0, 0, 0)" stroke="rgb(60, 60, 60)" stroke-width="1px" opacity="0.25"></line><line x1="839.125" y1="0" x2="839.125" y2="377" fill="rgb(0, 0, 0)" stroke="rgb(60, 60, 60)" stroke-width="1px" opacity="0.25"></line></g><g><line x1="0" y1="377" x2="839.125" y2="377" fill="rgb(0, 0, 0)" stroke="rgb(60, 60, 60)" stroke-width="1px" opacity="0.25"></line><line x1="0" y1="329.87500000000006" x2="839.125" y2="329.87500000000006" fill="rgb(0, 0, 0)" stroke="rgb(60, 60, 60)" stroke-width="1px" opacity="0.25"></line><line x1="0" y1="282.75" x2="839.125" y2="282.75" fill="rgb(0, 0, 0)" stroke="rgb(60, 60, 60)" stroke-width="1px" opacity="0.25"></line><line x1="0" y1="235.62500000000006" x2="839.125" y2="235.62500000000006" fill="rgb(0, 0, 0)" stroke="rgb(60, 60, 60)" stroke-width="1px" opacity="0.25"></line><line x1="0" y1="188.5" x2="839.125" y2="188.5" fill="rgb(0, 0, 0)" stroke="rgb(60, 60, 60)" stroke-width="1px" opacity="0.25"></line><line x1="0" y1="141.37499999999997" x2="839.125" y2="141.37499999999997" fill="rgb(0, 0, 0)" stroke="rgb(60, 60, 60)" stroke-width="1px" opacity="0.25"></line><line x1="0" y1="94.25" x2="839.125" y2="94.25" fill="rgb(0, 0, 0)" stroke="rgb(60, 60, 60)" stroke-width="1px" opacity="0.25"></line><line x1="0" y1="47.12499999999994" x2="839.125" y2="47.12499999999994" fill="rgb(0, 0, 0)" stroke="rgb(60, 60, 60)" stroke-width="1px" opacity="0.25"></line><line x1="0" y1="0" x2="839.125" y2="0" fill="rgb(0, 0, 0)" stroke="rgb(60, 60, 60)" stroke-width="1px" opacity="0.25"></line></g></g></g><g><g><line x1="0" y1="895.3750000000001" x2="839.125" y2="895.3750000000001" fill="rgb(0, 0, 0)" stroke="rgb(153, 153, 153)" stroke-width="1.5px"></line></g></g><g><g><line x1="93.2361111111111" y1="0" x2="93.2361111111111" y2="377" fill="rgb(0, 0, 0)" stroke="rgb(153, 153, 153)" stroke-width="1.5px"></line></g></g><g><g><g><g><g><path stroke="rgb(255, 112, 67)" stroke-width="2px" d="M120.01352222222222,-22.481613817315747L120.5729388888889,36.75343125743581L121.63583055555556,33.36809714808385L122.17660000000001,47.930390741388294L122.47495555555555,64.59520384490867L122.77331111111111,92.62249081686707L123.81755555555556,90.23233439535005L124.76856388888889,101.30474048867893L125.10421388888888,85.06725056172536L125.27203888888889,86.77790824891309L125.57039444444445,91.07243304444808L125.6263361111111,106.17483806011762L126.4468138888889,90.44515934822567L127.62158888888888,86.76166833184584L128.03182777777778,82.26412078584588L128.08776944444443,102.60557523277879L128.23694722222223,62.65229192320663L128.9828361111111,78.18229896392995L129.2998388888889,86.40133885482919L129.54225277777778,101.23465479576606L131.20185555555554,107.9647819111587L132.32068888888887,76.21955390631183L134.01758611111111,95.82492476617728L134.24135277777776,133.34280091473732L134.83806388888888,145.9824647423582L134.94994722222222,162.49230905276283L135.32289166666666,172.03647826851457L135.41612777777777,150.2577716633144L136.2552527777778,149.34153472926982L136.47901944444445,153.5538589927362L137.13167222222222,164.7700063212399L137.78432500000002,170.76100714347868L137.80297222222222,171.78189725483716L138.66074444444445,168.80804505828178L138.97774722222223,158.1883130722233L139.01504166666666,129.5449075492018L139.10827777777777,123.37693332384782L139.57445833333333,139.52150406092852L139.59310555555555,104.97581968099149L139.81687222222223,110.68669643038669L139.91010833333334,132.38929641267157L140.45087777777778,124.24553499234025L140.7305861111111,127.72851645715414L140.84246944444445,113.36343457560167L143.30390277777778,127.31850066340229L144.3295,124.1551337990538L145.24321388888887,131.22996668537715L147.23846666666665,128.59590157580524L148.56241944444446,152.36247061915486L149.38289722222223,165.96587826745082L149.8863722222222,185.04118742904888L149.9423138888889,161.4316667697539L151.02385277777776,188.34031373153388L152.17998055555555,191.95531758004586L152.83263333333335,155.05661646326874L153.46663888888887,135.1149873960048L153.7277,163.92806735205826L153.76499444444443,129.7004285488616L153.78364166666665,138.06133105958048L154.86518055555555,150.17927735212163L158.12844444444445,165.45965834356969L160.3661111111111,159.28802477060327L160.7017611111111,148.322635476223L160.73905555555555,157.5628840472885L161.6714166666667,173.3707973925226L162.7156611111111,182.51949232625682L162.99536944444444,187.86147961501902L163.965025,200.97613670518768L164.35661666666667,206.82317454869016L164.4871472222222,221.37056656631503L166.48239999999998,203.0111466166537L167.00452222222222,191.03027741415266L167.52664444444446,187.21597143592223L168.49630000000002,191.06681121934523L169.65242777777777,202.2022642943208L171.47985555555556,190.7826232703295L172.05791944444445,191.14435101698436L172.15115555555556,195.88409351796264L173.49375555555557,202.070043572726L173.73616944444444,189.1640981012238L173.77346388888887,208.05916919551208L175.2838888888889,239.02625047112656L176.99943333333334,243.6633190330574L177.3164361111111,255.1029884348339L177.70802777777777,267.15510797083533L179.53545555555556,241.03948828923797L180.20675555555556,241.35534436314163L180.28134444444444,231.8931350994637L180.43052222222224,226.07509644559204L181.81041666666667,219.16749772865285L182.5190111111111,210.28296101950824L182.78007222222223,208.83607323684225L183.4886666666667,190.0703223926897L183.71243333333334,194.84701894420834L184.49561666666665,191.57287196337245L185.76362777777777,172.60270506154927L185.9314527777778,187.4015774369921L185.98739444444445,198.0459940696172L187.40458333333333,203.00780598309115L187.4418777777778,186.3072610377459L188.44882777777778,210.47996913666654L188.97095000000002,234.48291891381228L190.92890833333334,230.66310690382176L192.60715833333333,237.2647727163974L192.9055138888889,250.52151030494838L193.166575,264.46457815285953L194.30405555555555,250.25475314924972L196.1128361111111,247.0032847265593L196.70954722222223,239.4111612880344L198.85397777777777,238.9946319367954L199.1336861111111,232.89808744826735L199.95416388888887,240.4677939333846L201.53917777777778,241.37930085172232L201.85618055555554,249.38186433261612L201.91212222222222,227.0041579028724L202.58342222222223,257.66769727592225L202.7139527777778,276.15768214776847L203.38525277777777,276.32710560986243L203.77684444444444,299.83274959819823L204.93297222222222,275.5543134051401L205.30591666666666,283.10489200579156L207.37575833333335,273.8089977921667L207.56223055555554,288.1752617729677L208.8488888888889,259.4920279367551L209.09130277777777,265.3522940387598L209.2031861111111,277.1952219194335L209.44559999999998,254.63752554572602L210.50849166666669,255.1170961303531L210.93737777777775,254.9400043870818L211.03061388888887,232.18801920329392L212.13080000000002,220.4978230518988L212.57833333333335,209.537469287091L214.36846666666668,194.47847299538464L214.816,222.36230854250442L215.82295,236.19787948165808L216.36371944444443,292.1964223434596L217.37066944444447,294.335564890508L218.0979111111111,297.96895012796176L218.15385277777776,300.90944319689413L218.37761944444443,299.7029444797286L218.95568333333335,282.41687569757994L220.89499444444445,274.3773596152108L221.04417222222222,267.9778071084286L221.32388055555558,283.5168665193716L223.1326611111111,282.0886936153888L223.6174888888889,278.03212867772106L224.02772777777776,284.94109434244353L225.74327222222223,277.10828832600913L225.89245,267.430996929493L226.65698611111114,254.90585266046915L227.7944666666667,253.7986948638749L228.37253055555553,236.2518173426147L229.56595277777777,217.2951741438958L230.088075,265.25568961035333L230.1067222222222,301.6289780314632L230.46101944444447,291.94672269677324L230.88990555555554,307.23300848636154L231.24420277777776,320.9582710160799L232.15791666666667,339.67952032649436L232.34438888888891,322.78230192520573L232.40033055555557,305.25017408286544L232.68003888888887,313.21734435412293L233.29539722222222,319.28019852073794L236.57730833333332,285.8994235076416L236.6891916666667,256.96142863499574L237.93855555555555,258.7212537841049L238.46067777777776,253.0280886003999L238.64714999999998,269.8219112342374L239.29980277777776,272.8532695284948L240.54916666666668,252.13075440594343L241.1458777777778,245.2683783499527L242.2460638888889,234.3659164505082L242.89871666666664,234.9082044003532L243.32760277777777,229.5398651145771L243.64460555555553,240.40724903243046L245.77038888888887,261.09311976371566L246.42304166666668,241.8320838352344L246.53492500000002,248.64762199761287L247.82158333333334,258.70695976520665L248.64206111111113,276.1415366059845L249.18283055555554,259.3929720596257L249.27606666666665,260.7640200898517L249.44389166666667,262.6420195964259L251.1221416666667,253.03698518677254L251.17808333333335,266.84519668104474L251.70020555555553,257.0013692002429L251.88667777777778,255.92079934006534L252.96821666666665,268.8212050230837L253.62086944444442,254.80801729151827L254.2362277777778,240.6697424756838L254.254875,254.4347718898864L255.37370833333335,263.5686735477694L257.6859638888889,286.99579915801564L257.74190555555555,310.67552897572443L258.78615,301.4442548587317L259.2709777777778,285.35385083165147L259.32691944444446,307.35183057192785L259.7185111111111,297.33037347199814L259.84904166666666,286.36908119083824L260.93058055555554,284.26326107478957L261.0424638888889,283.5887101620247L262.0867083333334,288.5057300168163L265.2753833333333,289.51753027664944L265.4059138888889,268.7340626801689L265.9093888888889,253.72856224093675L266.9536333333333,242.90066569157742L267.5503444444444,249.5846236533421L268.74376666666666,249.70244545856102L268.79970833333334,247.9016678519188L269.1726527777778,242.80020435971852L269.78801111111113,251.2825190086533L271.2611416666667,283.5090192830187L271.3916722222222,308.3306403801216L271.6340861111111,307.17933149608217L272.044325,309.2436195938126L272.75291944444444,311.5905945854387L273.3123361111111,306.516067490399L273.74122222222223,312.47503438318984L274.0768722222222,314.97520198062193L275.38217777777777,308.92719771644545L276.78071944444446,284.586739779598L277.97414166666664,279.10382853811177L279.1862111111111,247.90372241059058L280.7898722222222,234.47309590887494L281.2747,239.62408883280443L282.8410666666667,234.809493880909L284.8549666666667,262.26530701007925L284.9854972222222,286.7216901426701L287.09263333333337,280.5506119039767L287.148575,280.92282475871525L287.54016666666666,286.8503135194939L288.64035277777776,266.50366962853445L288.826825,289.16444233002295L288.9014138888889,290.68652239407317L289.44218333333333,282.4901816902472L290.0575416666667,291.58202654468494L291.0271972222222,302.1974974891394L291.3442,279.17241659288703L291.60526111111113,285.9007160098856L291.90361666666666,295.8838913221065L292.2206194444445,310.55445973747396L292.96650833333337,300.2012587706651L293.82428055555556,286.8830796790364L293.84292777777773,281.0518778033402L294.2531666666667,276.1698449294178L294.90581944444443,239.0289167785888L295.09229166666665,239.84939626599825L295.39064722222224,247.6554167613117L295.55847222222224,261.567241951509L295.8195333333333,262.00748350899437L296.5281277777778,265.03542060065877L296.5840694444444,253.2461118603266L297.218075,259.1729155960391L297.29266388888885,276.34610206977777L297.72155,264.66657015738645L297.83343333333335,254.23117707406143L297.8707277777778,273.7749747290293L298.6166166666667,299.21671290719985L298.7285,302.4600666375427L298.9709138888889,306.1141408092659L299.06415,311.55494105856906L300.2575722222222,307.52526060367404L300.61186944444444,314.0059714294957L300.77969444444443,294.241070340722L301.61881944444445,300.30617370048117L302.0477055555555,309.2930074801383L302.085,296.166257659813L302.10364722222226,294.19352885497824L303.20383333333336,278.153694155295L306.1687416666667,276.17324240355447L307.15704444444447,272.1849335512444L307.52998888888885,268.75893614774503L308.10805277777774,257.8681192760798L308.2758777777778,237.9585145929536L308.59288055555555,231.05534556025742L308.9098833333333,243.2558702618747L309.4879472222222,266.00525692646926L310.43895555555554,258.38856059041746L310.86784166666666,253.77108414010482L311.12890277777774,259.5090665998237L312.5087972222222,296.23248064411746L314.63458055555554,292.9255431764905L316.42471388888885,293.11859114608677L316.51795,292.24102412248556L317.18925,287.71701406589096L317.7673138888889,295.28221425504057L319.57609444444444,285.1312422221338L320.06092222222225,275.50880973729096L320.13551111111116,279.7120031070268L320.4338666666667,276.1653916091654L321.21705,280.7543290526232L322.41047222222227,271.80726952973373L322.4664138888889,283.99601484312643L322.7647694444444,291.56779032334106L324.5549027777778,291.7157398187185L325.5432055555556,309.50418108243133L327.31469166666665,325.10692308866015L329.51506388888885,320.3697992236796L330.0371861111111,305.57012511917253L331.1373722222222,321.0785606958169L332.0137916666667,310.77758239851585L333.35639166666664,302.9318979450833L333.71068888888885,295.9799538534148L334.5125194444445,287.1803107786932L334.88546388888886,278.620867152736L335.9670027777778,263.5585684536251L336.28400555555555,282.16994180431084L336.7874805555556,259.4339430817969L337.17907222222226,252.2587869697217L337.4028388888889,269.3953624685647L337.68254722222224,264.99355242967863L337.7571361111111,274.062393607618L338.0741388888889,263.9828326355943L338.7454388888889,263.59907903978404L339.49132777777777,291.5944986504863L340.1066861111111,287.7158013798326L342.15788055555555,283.3867133985477L343.14618333333334,290.8295961457799L343.22077222222225,281.4352881096787L343.59371666666664,292.7146330227248L344.5074305555556,294.88304300008963L345.0482,284.03263006746033L345.83138333333335,274.4514122494415L346.7823916666667,283.00634075929844L347.2112777777778,270.0530585272915L348.3114638888889,285.2196607603912L348.36740555555554,266.5460658677986L349.579475,274.32469427636687L350.12024444444444,264.83027347356926L350.75425,273.5713868286064L351.4069027777778,262.2339310852201L351.8357888888889,260.58427143141694L352.1341444444444,280.1801813366716L353.49539166666665,316.63662821785834L353.84968888888886,313.58875098667284L354.25992777777776,304.489503484021L355.789,303.1447231895031L358.4182583333333,283.68687573232063L359.648975,291.9921459982264L359.77950555555555,285.88668028291863L359.94733055555554,296.70285030470376L360.26433333333335,301.9852780000334L360.4881,301.00981039380815L360.59998333333334,284.870699266051L361.70016944444444,284.91149172750397L362.63253055555555,284.71339243392515L363.50894999999997,260.7953463300488L364.18025,248.19087110188136L364.62778333333335,241.82316867248136L364.683725,250.48019445977167L366.08226666666667,249.92200375224087L366.19415000000004,236.9620326437052L366.75356666666664,271.0533642576632L366.9213916666667,271.8945284012853L366.99598055555555,302.773481114143L367.10786388888886,312.1134695669615L368.8234083333333,306.6593053734662L368.84205555555553,315.9588545677878L368.9912333333333,298.97017648922315L369.0658222222222,294.1125172084981L369.38282499999997,302.3448166910656L370.57624722222226,311.8149917759805L370.9305444444445,296.34056155909957L371.56455,297.41543882507005L373.44791944444444,297.8423744882222L374.62269444444445,281.08932923347214L375.4804666666667,260.9307648841766L376.30094444444444,280.6628297271864L376.6552416666667,293.61305492535456L377.9046055555556,266.26190245995053L378.98614444444445,263.6215670993872L379.4150305555555,238.9262623483507L380.9254555555556,294.6767419156175L381.76458055555554,315.9770987616028L381.801875,334.72914788639815L382.3985861111111,319.19246445605916L382.97664999999995,314.3817899495945L384.0768361111111,314.5949608248822L386.7433888888889,279.3343736864538L387.19092222222224,280.56850400790046L387.35874722222223,276.18524581923765L387.47063055555554,294.8892792745511L388.3284027777778,301.48609900975714L388.3843444444444,288.6369755775004L388.73864166666664,286.1993664091986L391.200075,290.6088649026252L391.4611361111111,315.82227499435527L393.36315277777777,309.092849404515L393.75474444444444,326.2459975188382L395.09734444444445,331.9663960996514L396.234825,324.2662114896325L397.577425,310.62477787720843L397.98766388888885,309.1344634556036L398.30466666666666,293.6672787823236L399.16243888888886,286.1199277256701L399.79644444444443,265.26998895494785L401.00851388888884,272.08315606170083L402.0154638888889,277.3134794786763L402.50029166666667,284.29090293378783L402.5935277777778,283.1900770433614L403.9174805555555,277.55833300160583L404.58878055555556,277.8611743820143L405.50249444444444,277.3476279838343L406.6586222222222,277.4114168562567L406.67726944444445,266.65509469974495L407.311275,296.6530715326576L407.5723361111111,301.05351664424586L408.35551944444444,300.7357975947896L411.4696055555556,305.8054585163617L412.04766944444447,303.2373821321025L412.681675,292.19224530356496L413.81915555555554,298.4825444930634L414.0056277777778,272.1493123241568L414.69557499999996,281.44436941553977L414.8447527777778,281.72886550432344L415.3109333333333,269.96843191388785L415.64658333333335,276.885193386099L415.68387777777775,286.50969078446695L416.1127638888889,284.6347381729201L416.1314111111111,267.159453180928L416.15005833333333,255.51541029661828L416.206,249.22295494824604L416.56029722222223,243.8614595410225L417.21295,261.3103769348262L417.79101388888887,271.3852048829912L418.18260555555554,259.6565006563497L418.5182555555556,264.7937922352214L418.7047277777778,255.22371840916037L420.36433055555557,266.4227263715385L420.62539166666664,276.5272226325583L420.9983361111111,306.01620148372126L421.1661611111111,332.22951730937643L421.2966916666667,342.0225016763859L421.3153388888889,346.6127516562375L421.85610833333334,350.11055529920066L422.0425805555556,333.2107000041473L422.41552499999995,314.6720666222851L423.7021833333333,323.60742377835993L424.61589722222226,319.1742021536736L425.23125555555555,317.67561287259514L425.93985000000004,291.34727492675455L428.00969166666664,286.9372468515949L428.4758722222222,266.4836304619739L428.53181388888885,266.2044094583291L428.69963888888884,265.9629923689901L429.2217611111111,262.0965930812681L429.8744138888889,257.32932987172154L430.09818055555553,273.8441450378821L430.82542222222224,262.15087743887455L431.29160277777777,270.87624505930637L431.6086055555556,287.47716033323707L432.8766166666667,282.4937180749422L433.2868555555556,279.6886560602097L433.8089777777778,254.3725151230758L434.81592777777774,298.8166000729719L437.29600833333336,298.61147878682135L437.3146555555556,303.5629534847469L439.08614166666666,292.27575019162487L439.9252666666667,266.9015254924392L442.1815805555555,270.02121900020217L442.3121111111111,274.6641977339874L444.64301388888885,274.90679014384096L445.5380805555555,275.0113136330803L446.75014999999996,253.8411811089253L447.1044472222222,268.78738227461196L447.1976833333334,262.61147962197316L447.6265694444445,248.6837675582447L448.03680833333334,254.44294236964447L448.4284,296.6722531131891L449.6964111111111,317.77388551306655L450.68471388888884,320.6306541709419L451.76625277777777,331.3030970781038L452.58673055555556,315.2693855815524L452.6613194444444,289.0895957620975L453.12750000000005,290.35537947845665L456.5772361111111,282.12981744785435L456.8569444444444,291.13370554554064L456.91288611111105,282.88360983674283L457.32312500000006,287.05460133877136L457.43500833333337,285.3257813258572L458.330075,276.6486131312611L458.6097833333333,261.5608687735892L459.4675555555556,260.40840184314834L459.7286166666666,251.76678907647005L459.9337361111111,257.5470163570301L460.1015611111111,255.21119818368288L460.95933333333335,273.5768636422082L461.1644527777778,246.744372770591L461.27633611111116,244.56050906503404L462.3765222222222,287.6803395624412L462.87999722222224,302.9039058015021L463.30888333333337,303.36729200633L464.6141888888889,304.6099342462518L465.02442777777776,307.7683154915035L465.6397861111111,299.32335856999515L465.9567888888889,306.82717375424835L466.0873194444444,292.4613243130883L466.83320833333335,284.4711361043477L467.07562222222225,267.9036380119815L467.16885833333333,268.4704435269651L467.28074166666664,266.07291333679063L467.33668333333327,280.56020991089173L468.75387222222224,273.13305109788314L468.77251944444447,269.8894680979809L468.8098138888889,255.59730588453778L469.59299722222227,264.6550986949072L469.6489388888889,268.4627426972071L470.2270027777778,272.2457595294761L470.7304777777778,276.21942949450295L470.78641944444445,271.6082671055573L470.87965555555553,266.75015331324204L471.9239,289.60575822005427L472.2036083333333,287.0394564092741L472.3714333333333,280.94890325192125L472.4087277777778,282.48936088635634L473.3224416666667,282.78390953394245L474.38533333333334,286.8551241961269L475.22445833333336,284.2372375134914L475.9889944444444,307.76271532799535L476.2314083333333,321.0498800565346L476.2500555555556,329.812437301251L476.66029444444445,349.7790517481403L476.7535305555555,370.859912900462L476.95865000000003,355.846351747712L479.02849166666664,326.21931976377994L479.42008333333337,349.1192971485854L480.68809444444446,329.75022472250475L480.70674166666663,320.0143637139083L480.7626833333333,320.38669426908984L480.78133055555554,337.95272322696985L481.6763972222222,335.9637517106685L482.1239305555556,304.4446068866344L482.73928888888884,308.18174888272836L483.2054694444445,284.9099544500098L484.58536388888893,270.4091254600755L485.33125277777776,256.9899755197091L485.4804305555556,271.3054860161139L486.0771416666667,282.91744982757535L486.3195555555556,260.1162356707952L487.5129777777778,244.5461046679915L488.7250472222222,267.7554682722152L489.1539333333333,312.8113533395804L490.7203,326.8532815419601L490.77624166666664,335.22785635250614L490.86947777777783,330.3118344870675L492.1188416666667,328.00922746226L492.4544916666666,307.7869841978836L493.85303333333337,330.85155176674647L494.58027500000003,320.7853350136001L494.5989222222222,302.7251966293644L497.52653611111117,290.5363623437876L498.3097194444444,304.3384527288433L498.3283666666667,292.95611921087243L499.54043611111115,276.24408469876846L499.65231944444446,293.47361082006216L500.0252638888889,290.64889948468635L500.1371472222222,275.134505181916L500.5287388888889,264.2524076637074L500.64062222222225,289.5936541281012L501.7594555555556,272.61083191167523L502.8596416666666,306.26081812102325L503.4563527777778,345.82818509172637L503.5868833333333,372.9195633830502L507.5773888888889,359.5619912565872L508.0435694444445,336.0088527215197L508.2859833333333,317.8699720747873L508.7894583333333,302.2128923682932L508.91998888888884,298.20079686335106L509.12510833333334,264.43357459361187L509.2183444444444,263.9981479385783L509.36752222222225,282.65359022255484L509.62858333333327,301.83291925213183L510.1507055555556,292.37410811913884L511.43736388888885,285.2163903256229L511.49330555555554,271.7146469795687L512.2764888888888,279.7811806228151L512.9291416666666,253.60631212153373L513.6190888888889,262.6603118691346L515.3159861111111,262.5962721415462L515.6143416666667,255.74000445056572L517.6095944444444,277.3183383408106L517.740125,300.2053638853381L517.9638916666667,296.64357572542133L518.9149,316.0247979387433L519.1200194444444,315.48746622948596L519.1386666666667,305.070082314901L520.8169166666667,306.297872130926L520.8728583333334,296.231366637263L523.614,293.6640117662629L523.688588888889,305.3307879863667L523.7072361111111,286.9155563890033L524.0242388888888,282.2565492021497L524.3039472222222,274.1266984002266L524.4904194444445,285.95178292134256L524.6955388888889,290.72657310926235L524.788775,290.7806907770831L524.8820111111112,274.1847474621414L524.9566000000001,272.4561336425948L525.0684833333333,279.09110982346584L525.5160166666666,283.2787383981231L525.7024888888889,279.86810766385094L526.1873166666667,290.6534737153417L527.0264416666666,290.21754993221566L527.4553277777778,285.90371917022117L528.4063361111112,275.5770094056896L528.8538694444445,279.9020850813371L529.2081666666667,262.32967660164724L529.4692277777777,290.67502122721606L530.0845861111111,323.33459368706656L532.1917222222222,338.53816506481724L533.1054361111112,333.0133375001941L534.615861111111,322.1188318653698L534.8209805555556,306.0639279677746L535.193925,304.57308757271034L536.3127583333334,295.8078405974249L536.5551722222223,303.71013069855803L537.2451194444444,303.95297764961504L537.6180638888889,300.90345140233387L537.8231833333333,299.1446315046236L539.4268444444444,273.31379021382844L539.6133166666667,258.2135156343968L542.242575,250.83058267537308L542.9325222222222,258.22564407410357L542.9698166666667,249.0612389339336L543.5105861111111,260.4835366066294L544.2378277777779,297.2921985540388L545.1328944444444,323.0554634662628L546.0279611111112,301.0053827602959L546.0652555555555,305.1209535979805L546.2144333333333,310.14292873046264L546.7738499999999,313.140743679413L547.2027361111111,308.52395364440014L547.4637972222222,276.188467280844L548.5266888888889,273.9382861714239L550.3168222222222,260.44514519337866L551.1559472222222,258.61380223252814L551.2305361111111,252.64331673275487L552.3493694444444,251.78090935165318L553.2071416666666,233.71540486344477L553.7665583333334,256.6855131598042L554.1767972222223,263.99313535760206L554.325975,256.85440272373177L556.6009361111111,241.48051288296108L557.1603527777778,254.575226429518L557.5705916666667,310.14765856469626L558.18595,317.1855439055261L558.7267194444445,323.2883971159636L559.5658444444445,315.31114510446656L560.2930861111112,300.3820807084433L561.8967472222222,307.5551671233769L563.2579944444444,331.1985081939099L563.724175,318.1805727427124L563.9665888888889,298.05114620595697L564.134413888889,285.16734491389707L565.6075444444444,297.87704571844165L566.7077305555556,322.0831698105397L568.8335138888889,287.90186675343887L569.1132222222221,281.1730810758708L570.0828777777778,257.71003199560874L570.5863527777777,253.30210445489553L571.7424805555556,294.72539974550057L572.2086611111112,302.07897774755736L573.8682638888889,286.20913622605667L574.5582111111112,294.2764356841318L575.2108638888889,293.9710349744364L575.8262222222222,268.86427398358603L576.5907583333334,283.36484324833646L578.6046583333333,285.75140932739316L578.9030138888888,266.4765473219188L579.2946055555556,269.80996056869225L579.4624305555556,284.16229032560943L579.7607861111111,285.6756540363118L580.9355611111112,272.4684544578246L580.9542083333333,275.31648394912787L581.2152694444444,269.9503676381726L583.2664638888889,260.09662143510695L583.5088777777778,259.91909525467224L583.7139972222222,265.7394052486018L585.5787194444445,301.5459873879192L586.8280833333333,306.8591886165284L587.6112666666667,295.12637536540876L590.5575277777778,307.06850650796446L592.1238944444444,276.68862352901186L592.1611888888889,288.06695827325274L592.9070777777778,270.11254484939633L592.925725,276.9913906424526L592.9443722222222,275.7716229539683L593.2427277777778,281.0875716436845L593.4851416666667,271.8796250241363L593.5224361111111,260.2327587853291L595.368511111111,264.92398327889555L598.1655944444444,257.28954595507685L599.3590166666667,270.81941399682466L599.4709,272.80725936716135L599.5827833333334,296.94384130612224L599.6573722222223,311.7794158266497L599.6760194444444,327.772345519454L601.0745611111112,329.7828989722674L601.8204499999999,297.1597759663072L602.8460472222222,298.6591151439552L604.8785944444444,289.67408433457643L605.0837138888888,285.04287611782803L605.2328916666667,296.3968963345304L606.1279583333334,294.39559473517033L606.5754916666666,294.36876367284344L607.3213805555556,304.63157465907034L607.3773222222222,286.8083970835931L607.9553861111111,271.74025025910896L608.1418583333333,283.1944874581502L608.2723888888889,267.5912025008681L608.6080388888889,258.6148330470373L609.6709305555555,252.05766810777487L610.043875,247.82778625370685L610.0998166666667,257.93457590747846L610.4914083333333,255.7656527591286L612.0950694444444,276.51088603928906L613.7919666666667,315.994759753914L613.8292611111111,330.5597206327745L614.4259722222222,308.48679869016576L614.7616222222222,308.1797743001018L620.0387861111111,298.48403302183357L620.5236138888889,299.31106872171534L621.3440916666667,307.69347042328343L622.3696888888888,282.1591821580305L623.5258166666666,287.69742683584536L623.7682305555555,268.937158823103L625.4837749999999,276.7799806476178L626.0245444444444,300.3395432401026L626.7517861111111,307.01416102458984L627.9638555555556,309.69049400931567L631.9730083333333,300.06472820547805L633.446138888889,277.7407165676807L633.9309666666667,264.5966809219392L634.3412055555556,266.2500771061344L634.6955027777778,270.57107386444585L635.0684472222222,277.8818750468169L635.1616833333334,260.85886499209846L635.4600388888889,281.5035397107818L635.6838055555555,276.58373485180243L635.982161111111,274.70967110498253L636.4856361111111,291.16025805773444L637.7536472222223,307.0436794418223L638.6673611111111,299.1770365392046L638.909775,268.9182531210707L639.0589527777778,262.7938179238395L640.8304388888889,290.29703965567097L642.1730388888889,301.4077645825299L642.7883972222222,305.27308313172773L642.9189277777778,304.2185530789001L643.0867527777779,306.4414210395397L644.0191138888889,308.7363592193355L644.0750555555555,317.5202419642109L644.4666472222223,305.23707358142724L644.6904138888889,322.80761374295355L645.0447111111112,301.3910096720493L645.3990083333333,311.84919853422855L647.9350305555556,313.7052892053951L649.4454555555556,303.38089244394473L649.4641027777777,308.3857089926539L650.0981083333334,301.4878304630362L650.4524055555556,299.91465677200813L651.3101777777778,274.38926233875196L652.6527777777778,266.8213130118098L652.7460138888889,265.97856536398217L653.2308416666666,297.04768156343636L654.0886138888889,317.5428699215289L654.3683222222222,293.58699084282136L655.2074472222222,291.4878384170545L655.8973944444444,319.30980243072594L656.699225,315.3687154161077L657.0721694444444,308.8874973241771L657.1840527777778,285.0836613645723L657.4264666666667,296.29604698840205L657.9485888888888,307.13606688751827L658.7504194444444,298.9927713714483L659.4963083333333,319.03626942887564L660.7456722222222,305.42402427348287L661.2118527777777,309.08412745566835L661.3423833333334,306.6321180759172L661.4169722222223,308.8291379152716L663.2630472222222,309.2748252593864L663.318988888889,277.64029582997495L664.0648777777777,291.0299494544288L664.6615888888889,276.30354446647283L665.8177166666667,266.25892160223555L666.0787777777778,259.04619849852696L666.3957805555555,279.038133449149L666.4144277777777,262.692706207509L667.1976111111111,299.1786426663847L669.0436861111111,313.2109669304163L669.5471611111111,300.9240092549486L672.2696555555556,297.6769844361403L673.2579583333334,293.9271835129415L675.2718583333333,302.4215635085675L675.4769777777777,305.9672015204771L677.7705861111111,279.39632598726416L678.8707722222222,298.19991325240414L679.5607194444444,271.28758334458513L679.952311111111,276.7274213870803L680.6422583333334,316.3706030512118L681.3135583333333,333.9431817212262L681.3322055555556,323.0453069376086L681.7983861111111,340.1365623335323L682.9545138888889,321.3572063958813L683.0663972222222,315.3618846724134L683.3461055555556,307.33820639787325L684.2784666666666,288.89073858701107L684.7632944444445,287.2097224238093L685.0802972222223,287.2359899069414L685.5091833333333,300.88301132831253L686.3669555555556,291.5770269913273L687.579025,275.2276261975047L687.7095555555555,286.0908112960862L687.8587333333334,276.1335603259687L688.7538,265.83373142854475L688.921625,261.639457211352L690.0218111111111,282.6786963376145L690.264225,284.8558991332496L692.9680722222222,295.3907033550527L693.1918388888889,288.10778445886297L693.8071972222223,287.39630395702557L693.8444916666666,326.1568892510654L694.5903805555556,326.45756846141353L695.80245,329.19591176194865L697.1823444444445,325.3152658443625L698.0587638888888,323.5656625807867L698.7300638888889,314.198008428847L699.2708333333334,302.5195845906944L699.8116027777778,309.549773892463L700.0540166666667,300.1812089089756L700.1099583333333,289.45136660362516L701.340675,270.23034386649874L701.3966166666667,278.61818341502635L702.1984472222223,287.21855510526353L702.9256888888889,290.5952362612096L703.1121611111112,288.0519343492512L703.1681027777778,294.061811356373L704.1564055555556,269.81272413052767L706.2635416666667,279.92628662417917L706.6178388888889,256.61799247640727L706.7483694444445,249.39760368811108L706.7670166666667,265.5394179567517L706.8975472222222,256.45555474429256L708.1096166666666,295.72802473347735L708.6317388888889,304.10804237867217L708.8555055555556,311.331599712043L709.0979194444445,292.0749881265574L709.22845,299.9047107576139L710.738875,294.42077663414517L711.3542333333334,311.3380031637719L711.4288222222223,313.10159589364355L711.9322972222222,310.2371099562301L711.9695916666667,319.43799730365595L713.2189555555556,316.17310691014006L713.6478416666667,319.9701742061083L714.9531472222222,292.93146354723604L715.1396194444445,292.1011757061996L715.4566222222222,297.8662413123917L715.5871527777778,282.78604943535754L715.6430944444444,286.14371945251247L715.9041555555556,283.22799255722293L716.109275,255.18507185145333L718.6452972222222,271.1263479385621L719.3352444444445,258.945277630916L720.3608416666667,256.21340640761304L720.4913722222221,264.73128838764336L721.7034416666667,284.8998917783898L722.1696222222222,286.21994090352075L722.3374472222223,306.4873189704038L722.5612138888889,312.82419659950835L722.9155111111111,311.2966405287892L723.2325138888889,322.9693224034018L723.5122222222222,308.6963339687173L724.2394638888888,303.7956654692164L724.4632305555556,300.9843824544233L724.9294111111111,298.9287070416618L725.4888277777778,284.1900804271227L725.6193583333334,310.9951807874397L726.7008972222222,310.62541509973744L726.9060166666667,318.52986055199943L727.5586694444444,298.58290738811877L727.9129666666668,265.63048500389334L728.0434972222222,264.9719461951881L728.9012694444444,263.01742878879486L729.870925,282.5777211268269L729.9268666666667,273.51242475983634L730.5795194444445,270.822725100977L731.8475305555555,293.120424117841L732.3137111111112,294.83133924376835L732.9477166666666,272.5477595709078L733.0036583333334,287.6428014029451L733.9733138888888,270.0823108189933L733.9919611111111,288.9100441475888L734.1411388888889,298.33301130176665L734.3835527777778,291.9098912909096L735.40915,320.4911069056073L735.912625,336.6665969121862L737.0314583333333,347.7746400373226L737.0501055555555,341.57700363022366L737.5349333333334,329.3344934417145L737.7587,305.5945858975254L738.0384083333333,312.78729951500907L738.4113527777778,285.51133215498936L738.5791777777778,288.7224667911054L738.7470027777778,297.3339858677578L739.3064194444444,304.0126080767269L740.2201333333334,293.3061172280285L741.2457305555556,287.7965432473167L741.8424416666667,273.7431901376333L742.2526805555556,278.7563123155169L743.6139277777777,291.45754720261885L745.0684111111111,300.59799855644223L746.4483055555555,263.5519946199341L747.3620194444445,252.11161726604007L748.0333194444445,256.5462120049602L749.1894472222222,307.2499296708945L750.1404555555555,322.0636129405524L750.6252833333333,324.86361082949793L750.6812249999999,330.1943076882277L752.0984138888889,316.91430548629245L752.4900055555555,307.3194297778671L752.6391833333333,344.38824963736926L752.8815972222222,334.30806706052067L752.9188916666667,319.4034815651241L753.030775,302.5150918496885L754.2241972222222,288.72594439585436L754.8582027777778,298.70430617093706L754.8954972222222,275.5310846123676L754.9141444444444,268.3351125808705L756.5178055555556,265.4283680255502L756.5737472222222,268.79673231454433L757.0772222222223,266.8995810318692L760.2658972222222,268.0332607131424L760.3964277777777,279.5569158495201L761.086375,255.61813356284694L761.6271444444445,265.3111858117842L761.7203805555555,255.50523444105764L762.5035638888888,265.3287460690116L763.6596916666667,285.7378515413627L763.9766944444444,285.7876106030478L763.9953416666666,307.7210930184564L765.2260583333334,313.9064239618803L765.3752361111111,311.53253391728543L765.5990027777777,313.497044022952L766.28895,293.9568815327134L766.3075972222223,280.43515289404667L766.3635388888889,274.45872115241684L767.5942555555555,312.15923488823887L768.5639111111111,285.51530858688545L768.8436194444445,294.7172710586368L769.1233277777778,300.2549422197807L769.4216833333334,305.83203296740453L769.6640972222223,294.75344237613444L770.3167500000001,290.18956989602907L770.6710472222222,261.0490698489944L770.8015777777778,260.4986987872958L775.1463805555555,277.31257592225313L775.5006777777778,274.8497749482646" style="fill: none;" fill="none"></path></g></g></g></g><g opacity="0.2"><g><g><g><path stroke="rgb(255, 112, 67)" stroke-width="2px" d="M119.0625138888889,-51.59458452463156L119.19304444444444,1.112154781818333L120.01352222222222,0.5795370638369945L120.5729388888889,125.60599884390831L121.63583055555556,28.290095984935704L122.17660000000001,69.77383112907404L122.47495555555555,89.59242349863047L122.77331111111111,134.6634212732315L123.81755555555556,86.64709976315493L124.76856388888889,117.91334962844849L125.10421388888888,60.711015671491566L125.27203888888889,89.3438947796821L125.57039444444445,97.51422023773193L125.6263361111111,128.82844558358192L126.4468138888889,66.85064128041262L127.62158888888888,81.23643180727953L128.03182777777778,75.51779946684832L128.08776944444443,133.11775690317154L128.23694722222223,2.722366958856526L128.9828361111111,101.47730952501297L129.2998388888889,98.72989869117737L129.54225277777778,123.48462870717049L131.20185555555554,118.05997258424759L132.32068888888887,28.601711899042073L134.01758611111111,125.23298105597496L134.24135277777776,189.61961513757706L134.83806388888888,164.94196048378944L134.94994722222222,187.25707551836967L135.32289166666666,186.3527320921421L135.41612777777777,117.58971175551414L136.2552527777778,147.9671793282032L136.47901944444445,159.87234538793564L137.13167222222222,181.59422731399536L137.78432500000002,179.74750837683678L137.80297222222222,173.313232421875L138.66074444444445,164.34726676344872L138.97774722222223,142.25871509313583L139.01504166666666,86.57979926466936L139.10827777777777,114.12497198581696L139.57445833333333,163.73836016654968L139.59310555555555,53.157293111085835L139.81687222222223,119.2530115544796L139.91010833333334,164.94319638609886L140.45087777777778,112.02989286184311L140.7305861111111,132.95298865437508L140.84246944444445,91.81581175327295L143.30390277777778,148.25109979510307L144.3295,119.41008350253105L145.24321388888887,141.84221601486206L147.23846666666665,124.64480391144753L148.56241944444446,188.0123241841793L149.38289722222223,186.37098973989487L149.8863722222222,213.65415117144585L149.9423138888889,126.01738578081131L151.02385277777776,228.70328417420387L152.17998055555555,197.37782335281372L152.83263333333335,99.7085647881031L153.46663888888887,105.2025437951088L153.7277,207.14768728613853L153.76499444444443,78.35897034406656L153.78364166666665,150.6026848256588L154.86518055555555,168.3561967909336L158.12844444444445,188.38022983074188L160.3661111111111,150.0305744111538L160.7017611111111,131.8745515346527L160.73905555555555,171.4232569038868L161.6714166666667,197.0826674103737L162.7156611111111,196.24253472685814L162.99536944444444,195.87446054816246L163.965025,220.64812234044075L164.35661666666667,215.59373131394386L164.4871472222222,243.19165459275249L166.48239999999998,175.47201669216156L167.00452222222222,173.05897361040115L167.52664444444446,181.49451246857643L168.49630000000002,196.84307089447975L169.65242777777777,218.90544390678406L171.47985555555556,173.65316173434258L172.05791944444445,191.6869426369667L172.15115555555556,202.99370726943016L173.49375555555557,211.348968654871L173.73616944444444,169.8051798939705L173.77346388888887,236.4017758369446L175.2838888888889,285.4768723845482L176.99943333333334,250.61892187595367L177.3164361111111,272.2624925374985L177.70802777777777,285.2332872748375L179.53545555555556,201.8660587668419L180.20675555555556,241.82912847399714L180.28134444444444,217.69982120394707L180.43052222222224,217.34803846478462L181.81041666666667,208.80609965324402L182.5190111111111,196.95615595579147L182.78007222222223,206.66574156284332L183.4886666666667,161.92169612646103L183.71243333333334,202.01206377148628L184.49561666666665,186.66165149211884L185.76362777777777,144.14745470881462L185.9314527777778,209.5998860001564L185.98739444444445,214.0126190185547L187.40458333333333,210.450523853302L187.4418777777778,161.2564436197281L188.44882777777778,246.73903128504756L188.97095000000002,270.4873435795307L190.92890833333334,224.9333888888359L192.60715833333333,247.1672714352608L192.9055138888889,270.40661668777466L193.166575,285.3791799247265L194.30405555555555,228.94001564383507L196.1128361111111,242.1260820925236L196.70954722222223,228.02297613024712L198.85397777777777,238.36983790993693L199.1336861111111,223.75327071547508L199.95416388888887,251.82235366106033L201.53917777777778,242.746561229229L201.85618055555554,261.385709553957L201.91212222222222,193.4375982582569L202.58342222222223,303.6630063354969L202.7139527777778,303.8926594555378L203.38525277777777,276.5812408030033L203.77684444444444,335.0912155807018L204.93297222222222,239.13665911555293L205.30591666666666,294.4307599067688L207.37575833333335,259.8651564717293L207.56223055555554,309.72465774416924L208.8488888888889,216.467177182436L209.09130277777777,274.14269319176674L209.2031861111111,294.9596137404442L209.44559999999998,220.80098098516464L210.50849166666669,255.8364520072937L210.93737777777775,254.67436677217484L211.03061388888887,198.0600414276123L212.13080000000002,202.9625288248062L212.57833333333335,193.09693863987923L214.36846666666668,171.8899785578251L214.816,264.188061863184L215.82295,256.9512358903885L216.36371944444443,376.19423663616186L217.37066944444447,297.54427871108055L218.0979111111111,303.4190279841423L218.15385277777776,305.32018280029297L218.37761944444443,297.89319640398026L218.95568333333335,256.48777252435684L220.89499444444445,262.31808549165726L221.04417222222222,258.37847834825516L221.32388055555558,306.82545563578606L223.1326611111111,279.9464342594147L223.6174888888889,271.94728127121925L224.02772777777776,295.30454283952713L225.74327222222223,265.35907930135727L225.89245,252.9150598347187L226.65698611111114,236.11813625693324L227.7944666666667,252.13795816898346L228.37253055555553,209.93150106072426L229.56595277777777,188.86020934581757L230.088075,337.1964628100395L230.1067222222222,356.18891066312796L230.46101944444447,277.4233396947384L230.88990555555554,330.16243717074394L231.24420277777776,341.5461648106575L232.15791666666667,367.7613942921162L232.34438888888891,297.4364743232727L232.40033055555557,278.951982319355L232.68003888888887,325.1680997610092L233.29539722222222,328.3744797706604L236.57730833333332,235.82826098799708L236.6891916666667,213.55443632602692L237.93855555555555,261.36099150776863L238.46067777777776,244.48834082484248L238.64714999999998,295.01264518499374L239.29980277777776,277.40030696988106L240.54916666666668,221.04698172211647L241.1458777777778,234.97481426596642L242.2460638888889,218.01222360134125L242.89871666666664,235.72163632512095L243.32760277777777,221.4873561859131L243.64460555555553,256.7083249092102L245.77038888888887,292.1219258606434L246.42304166666668,212.9405299425125L246.53492500000002,258.8709292411804L247.82158333333334,273.79596641659737L248.64206111111113,302.29340186715126L249.18283055555554,234.2701252400875L249.27606666666665,262.82059213519096L249.44389166666667,265.459018856287L251.1221416666667,238.62943357229236L251.17808333333335,287.5575139224529L251.70020555555553,242.23562797904017L251.88667777777778,254.29994454979897L252.96821666666665,288.17181354761124L253.62086944444442,233.78823569417L254.2362277777778,219.46233025193214L254.254875,275.0823160111904L255.37370833333335,277.2695260345936L257.6859638888889,322.13648757338524L257.74190555555555,346.19512370228773L258.78615,287.5973436832428L259.2709777777778,261.2182447910309L259.32691944444446,340.34880018234253L259.7185111111111,282.2981878221035L259.84904166666666,269.9271427690983L260.93058055555554,281.1045309007168L261.0424638888889,282.5768837928772L262.0867083333334,295.8812597990036L265.2753833333333,291.035230666399L265.4059138888889,237.5588612854481L265.9093888888889,231.22031158208847L266.9536333333333,226.65882086753845L267.5503444444444,259.6105605959892L268.74376666666666,249.87917816638947L268.79970833333334,245.2005014419556L269.1726527777778,235.148009121418L269.78801111111113,264.00599098205566L271.2611416666667,331.8487696945667L271.3916722222222,345.56307202577597L271.6340861111111,305.45236817002296L272.044325,312.34005174040794L272.75291944444444,315.1110570728779L273.3123361111111,298.90427684783936L273.74122222222223,321.41348472237587L274.0768722222222,318.72545337677L275.38217777777777,299.8551913201809L276.78071944444446,248.07605287432673L277.97414166666664,270.87946167588234L279.1862111111111,201.10356321930885L280.7898722222222,214.3271561563015L281.2747,247.35057821869853L282.8410666666667,227.58760145306587L284.8549666666667,303.44902670383453L284.9854972222222,323.40626484155655L287.09263333333337,271.2939945459366L287.148575,281.481144040823L287.54016666666666,295.7415466606617L288.64035277777776,235.9837037920952L288.826825,323.15560138225555L288.9014138888889,292.96964249014854L289.44218333333333,270.19567063450813L290.0575416666667,305.21979382634163L291.0271972222222,318.12070390582085L291.3442,244.63479524850848L291.60526111111113,295.9931651353836L291.90361666666666,310.8586542904377L292.2206194444445,332.56031236052513L292.96650833333337,284.67145732045174L293.82428055555556,266.90581104159355L293.84292777777773,272.3050749897957L294.2531666666667,268.8467956185341L294.90581944444443,183.31752455234528L295.09229166666665,241.0801154971123L295.39064722222224,259.364447504282L295.55847222222224,282.43497973680496L295.8195333333333,262.6678458452225L296.5281277777778,269.57732623815536L296.5840694444444,235.56214874982834L297.218075,268.06312119960785L297.29266388888885,302.10588178038597L297.72155,247.14727228879931L297.83343333333335,238.57808744907382L297.8707277777778,303.0906712114811L298.6166166666667,337.37932017445564L298.7285,307.325097233057L298.9709138888889,311.59525206685066L299.06415,319.7161414325237L300.2575722222222,301.4807399213314L300.61186944444444,323.72703766822815L300.77969444444443,264.5937187075615L301.61881944444445,309.40382874011993L302.0477055555555,322.77325814962387L302.085,276.4761329293251L302.10364722222226,291.23443564772606L303.20383333333336,254.0939421057701L306.1687416666667,273.20256477594376L307.15704444444447,266.20247027277946L307.52998888888885,263.6199400424957L308.10805277777774,241.53189396858218L308.2758777777778,208.094107568264L308.59288055555555,220.7005920112133L308.9098833333333,261.55665731430054L309.4879472222222,300.1293369233608L310.43895555555554,246.96351608633998L310.86784166666666,246.84486946463588L311.12890277777774,268.116040289402L312.5087972222222,351.317601710558L314.63458055555554,287.96513697505L316.42471388888885,293.40816310048103L316.51795,290.9246735870838L317.18925,280.930998980999L317.7673138888889,306.63001453876495L319.57609444444444,269.90478417277336L320.06092222222225,261.07516101002693L320.13551111111116,286.01679316163063L320.4338666666667,270.84547436237335L321.21705,287.6377352178097L322.41047222222227,258.3866802453995L322.4664138888889,302.27913281321526L322.7647694444444,302.925453543663L324.5549027777778,291.93766406178474L325.5432055555556,336.18684297800064L327.31469166666665,348.51103609800344L329.51506388888885,313.2641134262085L330.0371861111111,283.3706139624119L331.1373722222222,344.34121406078344L332.0137916666667,295.32611495256424L333.35639166666664,291.16337126493454L333.71068888888885,285.55203771591187L334.5125194444445,273.9808461666107L334.88546388888886,265.78170171380043L335.9670027777778,240.96512040495875L336.28400555555555,310.08700183033943L336.7874805555556,225.3299449980259L337.17907222222226,241.49605280160907L337.4028388888889,295.1002257168293L337.68254722222224,258.39083737134933L337.7571361111111,287.665655374527L338.0741388888889,248.86349117755893L338.7454388888889,263.0234486460686L339.49132777777777,333.58762806653976L340.1066861111111,281.89775547385216L342.15788055555555,276.8930814266205L343.14618333333334,301.99392026662827L343.22077222222225,267.34382605552673L343.59371666666664,309.63365039229393L344.5074305555556,298.13565796613693L345.0482,267.75701066851616L345.83138333333335,260.07958552241325L346.7823916666667,295.8387335240841L347.2112777777778,250.62313517928123L348.3114638888889,307.96956411004066L348.36740555555554,238.5356735289097L349.579475,285.9926368892193L350.12024444444444,250.58864226937294L350.75425,286.6830568611622L351.4069027777778,245.22774747014049L351.8357888888889,258.1097819507122L352.1341444444444,309.5740461945534L353.49539166666665,371.3212985396386L353.84968888888886,309.0169351398945L354.25992777777776,290.8406322300434L355.789,301.12755274772644L358.4182583333333,254.50010454654694L359.648975,304.4500513970852L359.77950555555555,276.7284817099571L359.94733055555554,312.92710533738136L360.26433333333335,309.9089195430279L360.4881,299.54660898447037L360.59998333333334,260.6620325744152L361.70016944444444,284.97268041968346L362.63253055555555,284.416243493557L363.50894999999997,224.9182771742344L364.18025,229.2841582596302L364.62778333333335,232.27161502838135L364.683725,263.465733140707L366.08226666666667,249.08471769094467L366.19415000000004,217.52207598090172L366.75356666666664,322.1903616786003L366.9213916666667,273.1562746167183L366.99598055555555,349.0919101834298L367.10786388888886,326.1234522461891L368.8234083333333,298.47805908322334L368.84205555555553,329.9081783592701L368.9912333333333,273.48715937137604L369.0658222222222,286.82602828741074L369.38282499999997,314.693265914917L370.57624722222226,326.02025440335274L370.9305444444445,273.128916233778L371.56455,299.0277547240257L373.44791944444444,298.4827779829502L374.62269444444445,255.95976135134697L375.4804666666667,230.6929183602333L376.30094444444444,310.2609269917011L376.6552416666667,313.03839272260666L377.9046055555556,225.23517376184464L378.98614444444445,259.66106405854225L379.4150305555555,201.88330522179604L380.9254555555556,378.3024612665177L381.76458055555554,347.9276340305806L381.801875,362.8572215735913L382.3985861111111,295.8874393105507L382.97664999999995,307.16577818989754L384.0768361111111,314.91471713781357L386.7433888888889,226.44349297881126L387.19092222222224,282.41969949007034L387.35874722222223,269.61035853624344L387.47063055555554,322.94532945752144L388.3284027777778,311.381328612566L388.3843444444444,269.3632904291153L388.73864166666664,282.5429526567459L391.200075,297.22311264276505L391.4611361111111,353.64239013195044L393.36315277777777,298.9987110197544L393.75474444444444,351.97571969032293L395.09734444444445,340.546993970871L396.234825,312.71593457460403L397.577425,290.1626274585724L397.98766388888885,306.8989918231964L398.30466666666666,270.4665017724037L399.16243888888886,274.79890114068985L399.79644444444443,233.99508079886436L401.00851388888884,282.30290672183037L402.0154638888889,285.1589646041393L402.50029166666667,294.7570381164551L402.5935277777778,281.5388382077217L403.9174805555555,269.1107169389725L404.58878055555556,278.3154364526272L405.50249444444444,276.57730838656425L406.6586222222222,277.5071001648903L406.67726944444445,250.52061146497726L407.311275,341.6500367820263L407.5723361111111,307.65418431162834L408.35551944444444,300.2592190206051L411.4696055555556,313.4099498987198L412.04766944444447,299.38526755571365L412.681675,275.6245400607586L413.81915555555554,307.9179932773113L414.0056277777778,232.64946407079697L414.69557499999996,295.3869550526142L414.8447527777778,282.15560963749886L415.3109333333333,252.32778152823448L415.64658333333335,287.26033559441566L415.68387777777775,300.94643688201904L416.1127638888889,281.8223092556L416.1314111111111,240.9465256929398L416.15005833333333,238.04934597015384L416.206,239.78427192568782L416.56029722222223,235.81921643018725L417.21295,287.48375302553177L417.79101388888887,286.4974468052387L418.18260555555554,242.0634443163872L418.5182555555556,272.499729603529L418.7047277777778,240.86860767006877L420.36433055555557,283.22123831510544L420.62539166666664,291.6839670240879L420.9983361111111,350.2496697604657L421.1661611111111,371.54949104785925L421.2966916666667,356.71197822690016L421.3153388888889,353.49812662601477L421.85610833333334,355.35726076364523L422.0425805555556,307.8609170615673L422.41552499999995,286.8641165494919L423.7021833333333,337.01045951247215L424.61589722222226,312.5243697166443L425.23125555555555,315.4277289509773L425.93985000000004,251.8547680079937L428.00969166666664,280.32220473885536L428.4758722222222,235.80320587754252L428.53181388888885,265.7855779528618L428.69963888888884,265.60086673498154L429.2217611111111,256.2969941496849L429.8744138888889,250.17843505740166L430.09818055555553,298.6163677871227L430.82542222222224,244.61097604036334L431.29160277777777,283.964296489954L431.6086055555556,312.378533244133L432.8766166666667,275.0185546875L433.2868555555556,275.48106303811073L433.8089777777778,216.3983037173748L434.81592777777774,365.48272749781614L437.29600833333336,298.30379685759544L437.3146555555556,310.9901655316353L439.08614166666666,275.3449452519417L439.9252666666667,228.84018844366074L442.1815805555555,274.70075926184654L442.3121111111111,281.6286658346653L444.64301388888885,275.2706787586212L445.5380805555555,275.16809886693954L446.75014999999996,222.08598232269287L447.1044472222222,291.20668402314186L447.1976833333334,253.3476256430149L447.6265694444445,227.7921994626522L448.03680833333334,263.0817045867443L448.4284,360.01621922850615L449.6964111111111,349.42633411288267L450.68471388888884,324.9158071577549L451.76625277777777,347.31176143884664L452.58673055555556,291.21881833672523L452.6613194444444,249.81991103291512L453.12750000000005,292.2540550529957L456.5772361111111,269.79147440195084L456.8569444444444,304.63953769207L456.91288611111105,270.5084662735462L457.32312500000006,293.31108859181404L457.43500833333337,282.73255130648613L458.330075,263.6328608393669L458.6097833333333,238.92925223708156L459.4675555555556,258.6797014474869L459.7286166666666,238.80436992645267L459.9337361111111,266.2173572778702L460.1015611111111,251.70747092366219L460.95933333333335,301.1253618299961L461.1644527777778,206.49563646316528L461.27633611111116,241.28471350669864L462.3765222222222,352.36008530855185L462.87999722222224,325.7392551600933L463.30888333333337,304.06237131357193L464.6141888888889,306.4738976061344L465.02442777777776,312.5058873593807L465.6397861111111,286.6559231877327L465.9567888888889,318.0828965306282L466.0873194444444,270.9125501513481L466.83320833333335,272.4858537912369L467.07562222222225,243.0523908734322L467.16885833333333,269.3206517994404L467.28074166666664,262.47661805152893L467.33668333333327,302.2911547720432L468.75387222222224,261.9923128783703L468.77251944444447,265.02409359812737L468.8098138888889,234.15906256437302L469.59299722222227,278.2417879104614L469.6489388888889,274.1742087006569L470.2270027777778,277.9202847778797L470.7304777777778,282.1799344420433L470.78641944444445,264.6915235221386L470.87965555555553,259.4629826247692L471.9239,323.8891655802727L472.2036083333333,283.1900036931038L472.3714333333333,271.81307351589203L472.4087277777778,284.8000473380089L473.3224416666667,283.2257325053215L474.38533333333334,292.96194618940353L475.22445833333336,280.3104074895382L475.9889944444444,343.05093204975134L476.2314083333333,340.9806271493435L476.2500555555556,342.9562731683255L476.66029444444445,379.72897341847425L476.7535305555555,402.48120462894445L476.95865000000003,333.3260100185871L479.02849166666664,281.77877178788185L479.42008333333337,383.4692632257939L480.68809444444446,300.69661608338356L480.70674166666663,305.41057220101357L480.7626833333333,320.94519010186195L480.78133055555554,364.3017666637898L481.6763972222222,332.98029443621635L482.1239305555556,257.16588965058327L482.73928888888884,313.7874618768692L483.2054694444445,250.00226280093193L484.58536388888893,248.65788197517398L485.33125277777776,236.8612506091595L485.4804305555556,292.7787517607212L486.0771416666667,300.3353955447674L486.3195555555556,225.91441443562508L487.5129777777778,221.19090816378593L488.7250472222222,302.5695136785507L489.1539333333333,380.3951809406281L490.7203,347.9161738455296L490.77624166666664,347.7897185683251L490.86947777777783,322.93780168890953L492.1188416666667,324.5553169250488L492.4544916666666,277.4536193013191L493.85303333333337,365.44840312004095L494.58027500000003,305.6860098838806L494.5989222222222,275.63498905301094L497.52653611111117,272.25311091542244L498.3097194444444,325.041588306427L498.3283666666667,275.8826189339161L499.54043611111115,251.17603293061256L499.65231944444446,319.3179000020027L500.0252638888889,286.4118324816227L500.1371472222222,251.86291372776031L500.5287388888889,247.92926138639453L500.64062222222225,327.6055238246918L501.7594555555556,247.13659858703616L502.8596416666666,356.7357974350453L503.4563527777778,405.17923554778105L503.5868833333333,413.556630820036L507.5773888888889,339.5256330668926L508.0435694444445,300.6791449189186L508.2859833333333,290.66165110468864L508.7894583333333,278.7272728085518L508.91998888888884,292.18265360593796L509.12510833333334,213.782741189003L509.2183444444444,263.345007956028L509.36752222222225,310.6367536485195L509.62858333333327,330.60191279649734L510.1507055555556,278.1858914196491L511.43736388888885,274.4798136353493L511.49330555555554,251.46203196048737L512.2764888888888,291.88098108768463L512.9291416666666,214.34400936961174L513.6190888888889,276.24131149053574L515.3159861111111,262.50021255016327L515.6143416666667,245.45560291409495L517.6095944444444,309.685839176178L517.740125,334.53590220212936L517.9638916666667,291.3008934855461L518.9149,345.0966312587262L519.1200194444444,314.6814686655998L519.1386666666667,289.4440064430237L520.8169166666667,308.1395568549633L520.8728583333334,281.13160839676857L523.614,289.8129794597626L523.688588888889,322.8309523165226L523.7072361111111,259.29270899295807L524.0242388888888,275.2680384218693L524.3039472222222,261.9319221973419L524.4904194444445,303.6894097030163L524.6955388888889,297.8887583911419L524.788775,290.8618672788143L524.8820111111112,249.29083248972893L524.9566000000001,269.86321291327477L525.0684833333333,289.04357409477234L525.5160166666666,289.56018126010895L525.7024888888889,274.7521615624428L526.1873166666667,306.83152279257774L527.0264416666666,289.5636642575264L527.4553277777778,279.4329730272293L528.4063361111112,260.08694475889206L528.8538694444445,286.3896985948086L529.2081666666667,235.97106388211253L529.4692277777777,333.1930381655693L530.0845861111111,372.32395237684256L532.1917222222222,361.3435221314431L533.1054361111112,324.7260961532593L534.615861111111,305.7770734131336L534.8209805555556,281.98157212138176L535.193925,302.336826980114L536.3127583333334,282.6599701344967L536.5551722222223,315.5635658502579L537.2451194444444,304.3172480762005L537.6180638888889,296.3291620314121L537.8231833333333,296.50640165805817L539.4268444444444,234.56752827763557L539.6133166666667,235.56310376524925L542.242575,239.75618323683742L542.9325222222222,269.31823617219925L542.9698166666667,235.3146312236786L543.5105861111111,277.61698311567307L544.2378277777779,352.505191475153L545.1328944444444,361.7003608345986L546.0279611111112,267.93026170134544L546.0652555555555,311.29430985450745L546.2144333333333,317.67589142918587L546.7738499999999,317.6374661028385L547.2027361111111,301.5987685918808L547.4637972222222,227.68523773550987L548.5266888888889,270.5630145072937L550.3168222222222,240.20543372631076L551.1559472222222,255.86678779125214L551.2305361111111,243.6875884830952L552.3493694444444,250.4872982800007L553.2071416666666,206.61714813113213L553.7665583333334,291.1406756043434L554.1767972222223,274.9545686542988L554.325975,246.14630377292636L556.6009361111111,218.4196781218052L557.1603527777778,274.2172967493534L557.5705916666667,393.50630676746374L558.18595,327.74237191677094L558.7267194444445,332.44267693161964L559.5658444444445,303.34526708722115L560.2930861111112,277.9884841144085L561.8967472222222,318.31479674577713L563.2579944444444,366.6635197997094L563.724175,298.65366956591606L563.9665888888889,267.8570064008236L564.134413888889,265.8416429758072L565.6075444444444,316.94159692525864L566.7077305555556,358.39235594868666L568.8335138888889,236.62991216778758L569.1132222222221,271.0799025595188L570.0828777777778,222.51545837521553L570.5863527777777,246.69021314382556L571.7424805555556,356.860342681408L572.2086611111112,313.1093447506428L573.8682638888889,262.4043739438057L574.5582111111112,306.37738487124443L575.2108638888889,293.51293390989304L575.8262222222222,231.20413249731064L576.5907583333334,305.11569714546204L578.6046583333333,289.33125844597816L578.9030138888888,237.56425431370738L579.2946055555556,274.8100804388523L579.4624305555556,305.6907849609852L579.7607861111111,287.9456996023655L580.9355611111112,252.6576550900936L580.9542083333333,279.58852818608284L581.2152694444444,261.9011931717396L583.2664638888889,245.31600213050845L583.5088777777778,259.65280598402023L583.7139972222222,274.46987023949623L585.5787194444445,355.2558605968953L586.8280833333333,314.82899045944214L587.6112666666667,277.5271554887295L590.5575277777778,324.98170322179794L592.1238944444444,231.11879906058311L592.1611888888889,305.1344603896141L592.9070777777778,243.18092471361163L592.925725,287.309659332037L592.9443722222222,273.94197142124176L593.2427277777778,289.0614946782589L593.4851416666667,258.0677050948143L593.5224361111111,242.76245942711833L595.368511111111,271.96082001924515L598.1655944444444,245.83788996934894L599.3590166666667,291.11421605944633L599.4709,275.78902742266655L599.5827833333334,333.14871421456337L599.6573722222223,334.03277760744095L599.6760194444444,351.76174005866056L601.0745611111112,332.79872915148735L601.8204499999999,248.22509145736697L602.8460472222222,300.9081239104271L604.8785944444444,276.1965381205082L605.0837138888888,278.09606379270554L605.2328916666667,313.42792665958405L606.1279583333334,291.39364233613014L606.5754916666666,294.32851707935333L607.3213805555556,320.02579113841057L607.3773222222222,260.07363072037697L607.9553861111111,249.13803002238274L608.1418583333333,300.37584325671196L608.2723888888889,244.18627506494525L608.6080388888889,245.15027886629107L609.6709305555555,242.22192069888118L610.043875,241.48296347260478L610.0998166666667,273.0947603881359L610.4914083333333,252.51226803660393L612.0950694444444,307.6287359595299L613.7919666666667,375.2205703258515L613.8292611111111,352.4071619510651L614.4259722222222,275.37741577625275L614.7616222222222,307.7192377150059L620.0387861111111,283.94042110443115L620.5236138888889,300.5516222715378L621.3440916666667,320.26707297563553L622.3696888888888,243.85774976015094L623.5258166666666,296.0047938525677L623.7682305555555,240.79675680398944L625.4837749999999,288.5442133843899L626.0245444444444,335.67888712882996L626.7517861111111,317.02608770132065L627.9638555555556,313.7049934864044L631.9730083333333,285.6260794997215L633.446138888889,244.25469911098483L633.9309666666667,244.8806274533272L634.3412055555556,268.7301713824272L634.6955027777778,277.05256900191307L635.0684472222222,288.84807682037354L635.1616833333334,235.32434991002083L635.4600388888889,312.4705517888069L635.6838055555555,269.2040275633335L635.982161111111,271.89857548475266L636.4856361111111,315.8361384868622L637.7536472222223,330.8688115179539L638.6673611111111,287.37707218527794L638.909775,223.53007799386978L639.0589527777778,253.60716512799263L640.8304388888889,331.55187225341797L642.1730388888889,318.0738519728184L642.7883972222222,311.07106095552444L642.9189277777778,302.6367579996586L643.0867527777779,309.77572298049927L644.0191138888889,312.17876648902893L644.0750555555555,330.6960660815239L644.4666472222223,286.81232100725174L644.6904138888889,349.1634239852429L645.0447111111112,269.2661035656929L645.3990083333333,327.5364818274975L647.9350305555556,316.48942521214485L649.4454555555556,287.89429730176926L649.4641027777777,315.8929338157177L650.0981083333334,291.1410126686096L650.4524055555556,297.554896235466L651.3101777777778,236.1011706888676L652.6527777777778,255.46938902139664L652.7460138888889,264.7144438922405L653.2308416666666,343.65135586261755L654.0886138888889,348.2856524586678L654.3683222222222,257.65317222476006L655.2074472222222,288.33910977840424L655.8973944444444,361.04274845123297L656.699225,309.4570848941803L657.0721694444444,299.1656701862812L657.1840527777778,249.37790742516518L657.4264666666667,313.11462542414665L657.9485888888888,323.3960967361927L658.7504194444444,286.77782809734344L659.4963083333333,349.1015165150166L660.7456722222222,285.00565654039383L661.2118527777777,314.5742822289467L661.3423833333334,302.95410400629044L661.4169722222223,312.12466767430305L663.2630472222222,309.9433562755585L663.318988888889,230.18850168585777L664.0648777777777,311.11442989110947L664.6615888888889,254.21393698453903L665.8177166666667,251.1919873058796L666.0787777777778,248.2271138429642L666.3957805555555,309.026035875082L666.4144277777777,238.17456534504893L667.1976111111111,353.90754735469824L669.0436861111111,334.2594533264637L669.5471611111111,282.4935727417469L672.2696555555556,292.8064472079277L673.2579583333334,288.3024821281433L675.2718583333333,315.16313350200653L675.4769777777777,311.2856585383415L677.7705861111111,239.54001268744472L678.8707722222222,326.40529415011406L679.5607194444444,230.91908848285675L679.952311111111,284.88717845082283L680.6422583333334,375.8353755474091L681.3135583333333,360.30204972624784L681.3322055555556,306.69849476218224L681.7983861111111,365.7734454274178L682.9545138888889,293.1881724894047L683.0663972222222,306.3689020872116L683.3461055555556,295.302688986063L684.2784666666666,261.219536870718L684.7632944444445,284.6881981790066L685.0802972222223,287.2753911316395L685.5091833333333,321.3535434603691L686.3669555555556,277.6180504858494L687.579025,250.7035250067711L687.7095555555555,302.3855889439583L687.8587333333334,261.1976838707924L688.7538,250.3839880824089L688.921625,255.3480458855629L690.0218111111111,314.23755502700806L690.264225,288.1217033267021L692.9680722222222,311.1929096877575L693.1918388888889,277.18340611457825L693.8071972222223,286.3290832042694L693.8444916666666,384.2977671921254L694.5903805555556,326.9085872769356L695.80245,333.3034267127514L697.1823444444445,319.49429696798325L698.0587638888888,320.9412576854229L698.7300638888889,300.14652720093727L699.2708333333334,285.0019488334656L699.8116027777778,320.09505784511566L700.0540166666667,286.12836143374443L700.1099583333333,273.35660314559937L701.340675,241.39880976080897L701.3966166666667,291.19994273781776L702.1984472222223,300.1191126406193L702.9256888888889,295.66025799512863L703.1121611111112,284.2369814813137L703.1681027777778,303.0766268670559L704.1564055555556,233.4390932917595L706.2635416666667,295.09663036465645L706.6178388888889,221.6555512547493L706.7483694444445,238.56702050566676L706.7670166666667,289.7521393597126L706.8975472222222,242.8297599256039L708.1096166666666,354.6367297172547L708.6317388888889,316.67806884646416L708.8555055555556,322.1669357120991L709.0979194444445,263.19007074832916L709.22845,311.64929470419884L710.738875,286.1948754489422L711.3542333333334,336.7138429582119L711.4288222222223,315.746984988451L711.9322972222222,305.94038105010986L711.9695916666667,333.23932832479477L713.2189555555556,311.2757713198662L713.6478416666667,325.66577515006065L714.9531472222222,252.37339755892754L715.1396194444445,290.8557439446449L715.4566222222222,306.5138397216797L715.5871527777778,260.1657616198063L715.6430944444444,291.1802244782448L715.9041555555556,278.8544022142887L716.109275,213.120690792799L718.6452972222222,295.0382620692253L719.3352444444445,240.67367216944697L720.3608416666667,252.11559957265854L720.4913722222221,277.5081113576889L721.7034416666667,315.1527968645096L722.1696222222222,288.20001459121704L722.3374472222223,336.8883860707283L722.5612138888889,322.3295130431652L722.9155111111111,309.0053064227104L723.2325138888889,340.4783452153206L723.5122222222222,287.28685131669044L724.2394638888888,296.444662719965L724.4632305555556,296.7674579322338L724.9294111111111,295.8451939225197L725.4888277777778,262.0821405053139L725.6193583333334,351.20283132791525L726.7008972222222,310.0707665681839L726.9060166666667,330.38652873039246L727.5586694444444,268.66247764229774L727.9129666666668,216.20185142755508L728.0434972222222,263.98413798213005L728.9012694444444,260.08565267920494L729.870925,311.9181596338749L729.9268666666667,259.9144802093506L730.5795194444445,266.78817561268806L731.8475305555555,326.566972643137L732.3137111111112,297.39771193265915L732.9477166666666,239.12239006161693L733.0036583333334,310.285364151001L733.9733138888888,243.74157494306567L733.9919611111111,317.15164414048195L734.1411388888889,312.46746203303337L734.3835527777778,282.27521127462387L735.40915,363.36293032765394L735.912625,360.92983192205435L737.0314583333333,364.43670472502714L737.0501055555555,332.2805490195751L737.5349333333334,310.9707281589508L737.7587,269.9847245812416L738.0384083333333,323.5763699412346L738.4113527777778,244.59738111495975L738.5791777777778,293.5391687452793L738.7470027777778,310.2512644827366L739.3064194444444,314.0305413901806L740.2201333333334,277.24638095498085L741.2457305555556,279.53218227624893L741.8424416666667,252.6631604731083L742.2526805555556,286.27599558234215L743.6139277777777,310.5093995332718L745.0684111111111,314.3086755871773L746.4483055555555,207.9829887151718L747.3620194444445,234.95105123519897L748.0333194444445,263.1981041133404L749.1894472222222,383.30550616979605L750.1404555555555,344.2841378450394L750.6252833333333,329.0636076629162L750.6812249999999,338.1903529763222L752.0984138888889,296.99430218338966L752.4900055555555,292.92711621522903L752.6391833333333,399.99147942662245L752.8815972222222,319.18779319524765L752.9188916666667,297.0466033220291L753.030775,277.18250727653503L754.2241972222222,268.04222321510315L754.8582027777778,313.67184883356094L754.8954972222222,240.77125227451327L754.9141444444444,257.54115453362465L756.5178055555556,261.06825119256973L756.5737472222222,273.84927874803543L757.0772222222223,264.05385410785675L760.2658972222222,269.7337802350521L760.3964277777777,296.8423985540867L761.086375,219.7099601328373L761.6271444444445,279.8507641851902L761.7203805555555,240.79630738496783L762.5035638888888,280.06401351094246L763.6596916666667,316.3515097498894L763.9766944444444,285.8622491955757L763.9953416666666,340.62131664156914L765.2260583333334,323.18442037701607L765.3752361111111,307.9716988503933L765.5990027777777,316.4438091814518L766.28895,264.64663779735565L766.3075972222223,260.1525599360466L766.3635388888889,265.4940735399723L767.5942555555555,368.710005491972L768.5639111111111,245.5494191348553L768.8436194444445,308.52021476626396L769.1233277777778,308.56144896149635L769.4216833333334,314.1976690888405L769.6640972222223,278.1355564892292L770.3167500000001,283.3437611758709L770.6710472222222,217.33831977844238L770.8015777777778,259.6731421947479L775.1463805555555,302.5333916246891L775.5006777777778,271.1555734872818" style="fill: none;" fill="none"></path></g></g></g></g></g></g><g transform="translate(48, 377)" clip-path="url(#clip_1)"><clipPath id="clip_1"><rect width="839" height="23"></rect></clipPath><g><g><line x1="0" y1="0" x2="0" y2="5" style="visibility: inherit;" fill="rgb(0, 0, 0)" stroke="rgb(204, 204, 204)" stroke-width="1px"></line><line x1="93.2361111111111" y1="0" x2="93.2361111111111" y2="5" style="visibility: inherit;" fill="rgb(0, 0, 0)" stroke="rgb(204, 204, 204)" stroke-width="1px"></line><line x1="186.4722222222222" y1="0" x2="186.4722222222222" y2="5" style="visibility: inherit;" fill="rgb(0, 0, 0)" stroke="rgb(204, 204, 204)" stroke-width="1px"></line><line x1="279.7083333333333" y1="0" x2="279.7083333333333" y2="5" style="visibility: inherit;" fill="rgb(0, 0, 0)" stroke="rgb(204, 204, 204)" stroke-width="1px"></line><line x1="372.9444444444444" y1="0" x2="372.9444444444444" y2="5" style="visibility: inherit;" fill="rgb(0, 0, 0)" stroke="rgb(204, 204, 204)" stroke-width="1px"></line><line x1="466.1805555555556" y1="0" x2="466.1805555555556" y2="5" style="visibility: inherit;" fill="rgb(0, 0, 0)" stroke="rgb(204, 204, 204)" stroke-width="1px"></line><line x1="559.4166666666666" y1="0" x2="559.4166666666666" y2="5" style="visibility: inherit;" fill="rgb(0, 0, 0)" stroke="rgb(204, 204, 204)" stroke-width="1px"></line><line x1="652.6527777777778" y1="0" x2="652.6527777777778" y2="5" style="visibility: inherit;" fill="rgb(0, 0, 0)" stroke="rgb(204, 204, 204)" stroke-width="1px"></line><line x1="745.8888888888888" y1="0" x2="745.8888888888888" y2="5" style="visibility: inherit;" fill="rgb(0, 0, 0)" stroke="rgb(204, 204, 204)" stroke-width="1px"></line><line x1="839.125" y1="0" x2="839.125" y2="5" style="visibility: inherit;" fill="rgb(0, 0, 0)" stroke="rgb(204, 204, 204)" stroke-width="1px"></line></g><g transform="translate(0, 8)"><text x="0" y="0" dx="0em" dy="0.95em" style="text-anchor: middle; visibility: hidden; font-family: &quot;Helvetica Neue&quot;, sans-serif; font-size: 12px; font-weight: 200;" fill="rgb(50, 49, 63)" stroke="none" stroke-width="1px">-5k</text><text x="93.2361111111111" y="0" dx="0em" dy="0.95em" style="text-anchor: middle; visibility: inherit; font-family: &quot;Helvetica Neue&quot;, sans-serif; font-size: 12px; font-weight: 200;" fill="rgb(50, 49, 63)" stroke="none" stroke-width="1px">0</text><text x="186.4722222222222" y="0" dx="0em" dy="0.95em" style="text-anchor: middle; visibility: inherit; font-family: &quot;Helvetica Neue&quot;, sans-serif; font-size: 12px; font-weight: 200;" fill="rgb(50, 49, 63)" stroke="none" stroke-width="1px">5k</text><text x="279.7083333333333" y="0" dx="0em" dy="0.95em" style="text-anchor: middle; visibility: inherit; font-family: &quot;Helvetica Neue&quot;, sans-serif; font-size: 12px; font-weight: 200;" fill="rgb(50, 49, 63)" stroke="none" stroke-width="1px">10k</text><text x="372.9444444444444" y="0" dx="0em" dy="0.95em" style="text-anchor: middle; visibility: inherit; font-family: &quot;Helvetica Neue&quot;, sans-serif; font-size: 12px; font-weight: 200;" fill="rgb(50, 49, 63)" stroke="none" stroke-width="1px">15k</text><text x="466.1805555555556" y="0" dx="0em" dy="0.95em" style="text-anchor: middle; visibility: inherit; font-family: &quot;Helvetica Neue&quot;, sans-serif; font-size: 12px; font-weight: 200;" fill="rgb(50, 49, 63)" stroke="none" stroke-width="1px">20k</text><text x="559.4166666666666" y="0" dx="0em" dy="0.95em" style="text-anchor: middle; visibility: inherit; font-family: &quot;Helvetica Neue&quot;, sans-serif; font-size: 12px; font-weight: 200;" fill="rgb(50, 49, 63)" stroke="none" stroke-width="1px">25k</text><text x="652.6527777777778" y="0" dx="0em" dy="0.95em" style="text-anchor: middle; visibility: inherit; font-family: &quot;Helvetica Neue&quot;, sans-serif; font-size: 12px; font-weight: 200;" fill="rgb(50, 49, 63)" stroke="none" stroke-width="1px">30k</text><text x="745.8888888888888" y="0" dx="0em" dy="0.95em" style="text-anchor: middle; visibility: inherit; font-family: &quot;Helvetica Neue&quot;, sans-serif; font-size: 12px; font-weight: 200;" fill="rgb(50, 49, 63)" stroke="none" stroke-width="1px">35k</text><text x="839.125" y="0" dx="0em" dy="0.95em" style="text-anchor: middle; visibility: hidden; font-family: &quot;Helvetica Neue&quot;, sans-serif; font-size: 12px; font-weight: 200;" fill="rgb(50, 49, 63)" stroke="none" stroke-width="1px">40k</text></g><line x1="0" y1="0" x2="839.125" y2="0" fill="rgb(0, 0, 0)" stroke="rgb(204, 204, 204)" stroke-width="1px"></line></g></g></g></g></svg>