<svg viewBox="0 0 1193 400" xmlns="http://www.w3.org/2000/svg"><g><g><g><g><g><line x1="48.875" y1="377" x2="43.875" y2="377" style="visibility: inherit;" fill="rgb(0, 0, 0)" stroke="rgb(204, 204, 204)" stroke-width="1px"></line><line x1="48.875" y1="342.7272727272727" x2="43.875" y2="342.7272727272727" style="visibility: inherit;" fill="rgb(0, 0, 0)" stroke="rgb(204, 204, 204)" stroke-width="1px"></line><line x1="48.875" y1="308.4545454545454" x2="43.875" y2="308.4545454545454" style="visibility: inherit;" fill="rgb(0, 0, 0)" stroke="rgb(204, 204, 204)" stroke-width="1px"></line><line x1="48.875" y1="274.1818181818181" x2="43.875" y2="274.1818181818181" style="visibility: inherit;" fill="rgb(0, 0, 0)" stroke="rgb(204, 204, 204)" stroke-width="1px"></line><line x1="48.875" y1="239.9090909090908" x2="43.875" y2="239.9090909090908" style="visibility: inherit;" fill="rgb(0, 0, 0)" stroke="rgb(204, 204, 204)" stroke-width="1px"></line><line x1="48.875" y1="205.63636363636365" x2="43.875" y2="205.63636363636365" style="visibility: inherit;" fill="rgb(0, 0, 0)" stroke="rgb(204, 204, 204)" stroke-width="1px"></line><line x1="48.875" y1="171.36363636363635" x2="43.875" y2="171.36363636363635" style="visibility: inherit;" fill="rgb(0, 0, 0)" stroke="rgb(204, 204, 204)" stroke-width="1px"></line><line x1="48.875" y1="137.09090909090907" x2="43.875" y2="137.09090909090907" style="visibility: inherit;" fill="rgb(0, 0, 0)" stroke="rgb(204, 204, 204)" stroke-width="1px"></line><line x1="48.875" y1="102.8181818181817" x2="43.875" y2="102.8181818181817" style="visibility: inherit;" fill="rgb(0, 0, 0)" stroke="rgb(204, 204, 204)" stroke-width="1px"></line><line x1="48.875" y1="68.54545454545445" x2="43.875" y2="68.54545454545445" style="visibility: inherit;" fill="rgb(0, 0, 0)" stroke="rgb(204, 204, 204)" stroke-width="1px"></line><line x1="48.875" y1="34.27272727272714" x2="43.875" y2="34.27272727272714" style="visibility: inherit;" fill="rgb(0, 0, 0)" stroke="rgb(204, 204, 204)" stroke-width="1px"></line><line x1="48.875" y1="0" x2="43.875" y2="0" style="visibility: inherit;" fill="rgb(0, 0, 0)" stroke="rgb(204, 204, 204)" stroke-width="1px"></line></g><g transform="translate(38.875, 0)"><text x="0" y="377" dx="0em" dy="0.3em" style="text-anchor: end; visibility: hidden; font-family: &quot;Helvetica Neue&quot;, sans-serif; font-size: 12px; font-weight: 200;" fill="rgb(50, 49, 63)" stroke="none" stroke-width="1px">0.48</text><text x="0" y="342.7272727272727" dx="0em" dy="0.3em" style="text-anchor: end; visibility: inherit; font-family: &quot;Helvetica Neue&quot;, sans-serif; font-size: 12px; font-weight: 200;" fill="rgb(50, 49, 63)" stroke="none" stroke-width="1px">0.5</text><text x="0" y="308.4545454545454" dx="0em" dy="0.3em" style="text-anchor: end; visibility: inherit; font-family: &quot;Helvetica Neue&quot;, sans-serif; font-size: 12px; font-weight: 200;" fill="rgb(50, 49, 63)" stroke="none" stroke-width="1px">0.52</text><text x="0" y="274.1818181818181" dx="0em" dy="0.3em" style="text-anchor: end; visibility: inherit; font-family: &quot;Helvetica Neue&quot;, sans-serif; font-size: 12px; font-weight: 200;" fill="rgb(50, 49, 63)" stroke="none" stroke-width="1px">0.54</text><text x="0" y="239.9090909090908" dx="0em" dy="0.3em" style="text-anchor: end; visibility: inherit; font-family: &quot;Helvetica Neue&quot;, sans-serif; font-size: 12px; font-weight: 200;" fill="rgb(50, 49, 63)" stroke="none" stroke-width="1px">0.56</text><text x="0" y="205.63636363636365" dx="0em" dy="0.3em" style="text-anchor: end; visibility: inherit; font-family: &quot;Helvetica Neue&quot;, sans-serif; font-size: 12px; font-weight: 200;" fill="rgb(50, 49, 63)" stroke="none" stroke-width="1px">0.58</text><text x="0" y="171.36363636363635" dx="0em" dy="0.3em" style="text-anchor: end; visibility: inherit; font-family: &quot;Helvetica Neue&quot;, sans-serif; font-size: 12px; font-weight: 200;" fill="rgb(50, 49, 63)" stroke="none" stroke-width="1px">0.6</text><text x="0" y="137.09090909090907" dx="0em" dy="0.3em" style="text-anchor: end; visibility: inherit; font-family: &quot;Helvetica Neue&quot;, sans-serif; font-size: 12px; font-weight: 200;" fill="rgb(50, 49, 63)" stroke="none" stroke-width="1px">0.62</text><text x="0" y="102.8181818181817" dx="0em" dy="0.3em" style="text-anchor: end; visibility: inherit; font-family: &quot;Helvetica Neue&quot;, sans-serif; font-size: 12px; font-weight: 200;" fill="rgb(50, 49, 63)" stroke="none" stroke-width="1px">0.64</text><text x="0" y="68.54545454545445" dx="0em" dy="0.3em" style="text-anchor: end; visibility: inherit; font-family: &quot;Helvetica Neue&quot;, sans-serif; font-size: 12px; font-weight: 200;" fill="rgb(50, 49, 63)" stroke="none" stroke-width="1px">0.66</text><text x="0" y="34.27272727272714" dx="0em" dy="0.3em" style="text-anchor: end; visibility: inherit; font-family: &quot;Helvetica Neue&quot;, sans-serif; font-size: 12px; font-weight: 200;" fill="rgb(50, 49, 63)" stroke="none" stroke-width="1px">0.68</text><text x="0" y="0" dx="0em" dy="0.3em" style="text-anchor: end; visibility: hidden; font-family: &quot;Helvetica Neue&quot;, sans-serif; font-size: 12px; font-weight: 200;" fill="rgb(50, 49, 63)" stroke="none" stroke-width="1px">0.7</text></g><line x1="48.875" y1="0" x2="48.875" y2="377" fill="rgb(0, 0, 0)" stroke="rgb(204, 204, 204)" stroke-width="1px"></line></g></g><g transform="translate(48, 0)" clip-path="url(#clip_0)"><clipPath id="clip_0"><rect width="1144" height="377"></rect></clipPath><g><g><g><line x1="0" y1="0" x2="0" y2="377" fill="rgb(0, 0, 0)" stroke="rgb(60, 60, 60)" stroke-width="1px" opacity="0.25"></line><line x1="104.01136363636364" y1="0" x2="104.01136363636364" y2="377" fill="rgb(0, 0, 0)" stroke="rgb(60, 60, 60)" stroke-width="1px" opacity="0.25"></line><line x1="208.02272727272728" y1="0" x2="208.02272727272728" y2="377" fill="rgb(0, 0, 0)" stroke="rgb(60, 60, 60)" stroke-width="1px" opacity="0.25"></line><line x1="312.0340909090909" y1="0" x2="312.0340909090909" y2="377" fill="rgb(0, 0, 0)" stroke="rgb(60, 60, 60)" stroke-width="1px" opacity="0.25"></line><line x1="416.04545454545456" y1="0" x2="416.04545454545456" y2="377" fill="rgb(0, 0, 0)" stroke="rgb(60, 60, 60)" stroke-width="1px" opacity="0.25"></line><line x1="520.0568181818181" y1="0" x2="520.0568181818181" y2="377" fill="rgb(0, 0, 0)" stroke="rgb(60, 60, 60)" stroke-width="1px" opacity="0.25"></line><line x1="624.0681818181818" y1="0" x2="624.0681818181818" y2="377" fill="rgb(0, 0, 0)" stroke="rgb(60, 60, 60)" stroke-width="1px" opacity="0.25"></line><line x1="728.0795454545455" y1="0" x2="728.0795454545455" y2="377" fill="rgb(0, 0, 0)" stroke="rgb(60, 60, 60)" stroke-width="1px" opacity="0.25"></line><line x1="832.0909090909091" y1="0" x2="832.0909090909091" y2="377" fill="rgb(0, 0, 0)" stroke="rgb(60, 60, 60)" stroke-width="1px" opacity="0.25"></line><line x1="936.1022727272727" y1="0" x2="936.1022727272727" y2="377" fill="rgb(0, 0, 0)" stroke="rgb(60, 60, 60)" stroke-width="1px" opacity="0.25"></line><line x1="1040.1136363636363" y1="0" x2="1040.1136363636363" y2="377" fill="rgb(0, 0, 0)" stroke="rgb(60, 60, 60)" stroke-width="1px" opacity="0.25"></line><line x1="1144.125" y1="0" x2="1144.125" y2="377" fill="rgb(0, 0, 0)" stroke="rgb(60, 60, 60)" stroke-width="1px" opacity="0.25"></line></g><g><line x1="0" y1="377" x2="1144.125" y2="377" fill="rgb(0, 0, 0)" stroke="rgb(60, 60, 60)" stroke-width="1px" opacity="0.25"></line><line x1="0" y1="342.7272727272727" x2="1144.125" y2="342.7272727272727" fill="rgb(0, 0, 0)" stroke="rgb(60, 60, 60)" stroke-width="1px" opacity="0.25"></line><line x1="0" y1="308.4545454545454" x2="1144.125" y2="308.4545454545454" fill="rgb(0, 0, 0)" stroke="rgb(60, 60, 60)" stroke-width="1px" opacity="0.25"></line><line x1="0" y1="274.1818181818181" x2="1144.125" y2="274.1818181818181" fill="rgb(0, 0, 0)" stroke="rgb(60, 60, 60)" stroke-width="1px" opacity="0.25"></line><line x1="0" y1="239.9090909090908" x2="1144.125" y2="239.9090909090908" fill="rgb(0, 0, 0)" stroke="rgb(60, 60, 60)" stroke-width="1px" opacity="0.25"></line><line x1="0" y1="205.63636363636365" x2="1144.125" y2="205.63636363636365" fill="rgb(0, 0, 0)" stroke="rgb(60, 60, 60)" stroke-width="1px" opacity="0.25"></line><line x1="0" y1="171.36363636363635" x2="1144.125" y2="171.36363636363635" fill="rgb(0, 0, 0)" stroke="rgb(60, 60, 60)" stroke-width="1px" opacity="0.25"></line><line x1="0" y1="137.09090909090907" x2="1144.125" y2="137.09090909090907" fill="rgb(0, 0, 0)" stroke="rgb(60, 60, 60)" stroke-width="1px" opacity="0.25"></line><line x1="0" y1="102.8181818181817" x2="1144.125" y2="102.8181818181817" fill="rgb(0, 0, 0)" stroke="rgb(60, 60, 60)" stroke-width="1px" opacity="0.25"></line><line x1="0" y1="68.54545454545445" x2="1144.125" y2="68.54545454545445" fill="rgb(0, 0, 0)" stroke="rgb(60, 60, 60)" stroke-width="1px" opacity="0.25"></line><line x1="0" y1="34.27272727272714" x2="1144.125" y2="34.27272727272714" fill="rgb(0, 0, 0)" stroke="rgb(60, 60, 60)" stroke-width="1px" opacity="0.25"></line><line x1="0" y1="0" x2="1144.125" y2="0" fill="rgb(0, 0, 0)" stroke="rgb(60, 60, 60)" stroke-width="1px" opacity="0.25"></line></g></g></g><g><g><line x1="0" y1="1199.5454545454545" x2="1144.125" y2="1199.5454545454545" fill="rgb(0, 0, 0)" stroke="rgb(153, 153, 153)" stroke-width="1.5px"></line></g></g><g><g><line x1="104.01136363636364" y1="0" x2="104.01136363636364" y2="377" fill="rgb(0, 0, 0)" stroke="rgb(153, 153, 153)" stroke-width="1.5px"></line></g></g><g><g><g><g><g><path stroke="rgb(204, 51, 17)" stroke-width="2px" d="M104.01136363636364,82.56095035509622L124.81363636363636,80.43310449881983L145.61590909090907,76.45240574024604L166.4181818181818,75.2177616051415L187.22045454545454,77.17214523399747L208.02272727272728,76.57622115245465L228.82500000000002,77.5212474423505L249.62727272727273,78.76358571474458L270.42954545454546,75.02452163359442L291.23181818181814,73.26202037674153L312.0340909090909,73.12257904088256L332.8363636363636,73.83538114856702L353.63863636363635,70.73937424084119L374.4409090909091,69.22508237093365L395.2431818181818,70.36100088128222L416.04545454545456,68.88537085109607L436.8477272727273,68.45424936179035L457.65000000000003,67.17415342517256L478.4522727272727,68.44907643666511L499.25454545454545,67.05767092977698L520.0568181818181,67.58471140731217L540.8590909090909,66.42558879649289L561.6613636363636,70.49657821073862L582.4636363636363,68.17271312375914L603.2659090909091,67.45931372872388L624.0681818181818,68.5065979855035L644.8704545454545,69.13496739622553L665.6727272727272,68.26362439124324L686.475,68.42177071189383L707.2772727272727,67.60875013008229L728.0795454545455,69.39066768130527L748.8818181818182,71.02723004884194L769.6840909090909,68.37761638036301L790.4863636363636,68.94407907514784L811.2886363636363,69.05700007181906L832.0909090909091,70.03261995786335L852.8931818181818,70.16407866841786L873.6954545454546,68.42717847137357L894.4977272727273,68.51990310190854L915.3000000000001,67.66762974268937L936.1022727272727,66.81581039060956L956.9045454545454,68.12049419678686L977.7068181818181,67.99539634363487L998.5090909090909,66.44505840867612L1019.3113636363636,66.87667699603128L1040.1136363636363,66.6816940802903L1060.915909090909,67.92652567892088L1081.7181818181818,69.35433531209355L1102.5204545454546,69.87056575496774" style="fill: none;" fill="none"></path></g><g><path stroke="rgb(0, 119, 187)" stroke-width="2px" d="M104.01136363636364,93.05835729295552L124.81363636363636,98.02341607483947L145.61590909090907,97.9510316800098L166.4181818181818,101.96097709995536L187.22045454545454,103.26797706908934L208.02272727272728,100.29372597268014L228.82500000000002,96.38221391698835L249.62727272727273,95.14539621037721L270.42954545454546,94.98996579319805L291.23181818181814,94.21262209300215L312.0340909090909,92.95197403009797L332.8363636363636,93.67705721379053L353.63863636363635,92.29294561381624L374.4409090909091,89.75998392409036L395.2431818181818,85.5165539514195L416.04545454545456,85.24214323480533L436.8477272727273,84.73699252069616L457.65000000000003,82.39101731820642L478.4522727272727,83.13994684372074L499.25454545454545,86.42652051174667L520.0568181818181,85.56118414025383L540.8590909090909,85.72291410292496L561.6613636363636,86.6143663969799L582.4636363636363,84.53903607842273L603.2659090909091,83.63430048580983L624.0681818181818,84.5667833721867L644.8704545454545,84.55885956234164L665.6727272727272,85.34851517456929L686.475,85.02789853374804L707.2772727272727,84.38157445640621L728.0795454545455,85.4691003762506L748.8818181818182,86.23511457596044L769.6840909090909,85.55985826047129L790.4863636363636,85.72211645098696L811.2886363636363,85.13856067660731L832.0909090909091,86.15024858046314L852.8931818181818,84.94148588874708L873.6954545454546,83.8757729402364L894.4977272727273,84.14425331187982L915.3000000000001,82.94352018464576L936.1022727272727,84.8332242763671L956.9045454545454,86.30750206759768L977.7068181818181,86.05724485572364L998.5090909090909,84.54522832411777L1019.3113636363636,85.22683721568978L1040.1136363636363,83.47957179733481L1060.915909090909,80.6154371302095L1081.7181818181818,83.43637444225283L1102.5204545454546,82.85924820147136" style="fill: none;" fill="none"></path></g><g><path stroke="rgb(255, 112, 67)" stroke-width="2px" d="M228.82500000000002,399.6393848504423L249.62727272727273,350.74596113906574L270.42954545454546,307.38140931152975L291.23181818181814,268.62798130695955L312.0340909090909,237.55350202959966L332.8363636363636,206.92540467534747L353.63863636363635,185.75041953680673L374.4409090909091,168.9744331920577L395.2431818181818,155.28399987827171L416.04545454545456,146.50628869446246L436.8477272727273,139.19812836726504L457.65000000000003,132.20361487092853L478.4522727272727,127.89385578515373L499.25454545454545,122.01695258894009L520.0568181818181,119.85279941319976L540.8590909090909,117.41945821251977L561.6613636363636,113.91672583600172L582.4636363636363,109.8858208250549L603.2659090909091,109.62352692586086L624.0681818181818,108.33132524196304L644.8704545454545,107.32900794783603L665.6727272727272,109.791758998896L686.475,109.22663503064712L707.2772727272727,105.48300666026023L728.0795454545455,108.00324637427639L748.8818181818182,107.92657105208531L769.6840909090909,110.26375333550737L790.4863636363636,109.16937647247795L811.2886363636363,111.12293524081417L832.0909090909091,109.68488563218472L852.8931818181818,110.18391808921922L873.6954545454546,112.18561425280569L894.4977272727273,109.18762830542744L915.3000000000001,107.50233547251963L936.1022727272727,106.15070443693958L956.9045454545454,106.47459055893694L977.7068181818181,108.93865171690248L998.5090909090909,108.26085765773468L1019.3113636363636,104.6765436015732L1040.1136363636363,104.22827270951643L1060.915909090909,103.05140203807207L1081.7181818181818,103.13968904035266L1102.5204545454546,103.64661530982352" style="fill: none;" fill="none"></path></g></g></g></g><g opacity="0.2"><g><g><g><path stroke="rgb(204, 51, 17)" stroke-width="2px" d="M104.01136363636364,82.56095035509622L124.81363636363636,79.15639698505396L145.61590909090907,72.63093493201512L166.4181818181818,73.76582010225809L187.22045454545454,79.7237884998321L208.02272727272728,75.7518436150117L228.82500000000002,78.87265015732152L249.62727272727273,80.57492684234268L270.42954545454546,69.51012838970524L291.23181818181814,70.64491141926152L312.0340909090909,72.91468175974751L332.8363636363636,74.90070527250111L353.63863636363635,66.10547287897623L374.4409090909091,66.95661122148681L395.2431818181818,72.06354341723699L416.04545454545456,66.67296653444112L436.8477272727273,67.80774956399739L457.65000000000003,65.25433453646565L478.4522727272727,70.36126673221582L499.25454545454545,64.97068984941995L520.0568181818181,68.37524321946222L540.8590909090909,64.68694302168751L561.6613636363636,76.60298195752222L582.4636363636363,64.68694302168751L603.2659090909091,66.38921970670867L624.0681818181818,70.07751990448338L644.8704545454545,70.07751990448338L665.6727272727272,66.95661122148681L686.475,68.65899004719466L707.2772727272727,66.38921970670867L728.0795454545455,72.06354341723699L748.8818181818182,73.48207327452565L769.6840909090909,64.40319619395513L790.4863636363636,69.79377307675094L811.2886363636363,69.2263815619728L832.0909090909091,71.4960497617721L852.8931818181818,70.36126673221582L873.6954545454546,65.82182819193054L894.4977272727273,68.65899004719466L915.3000000000001,66.38921970670867L936.1022727272727,65.53808136419809L956.9045454545454,70.07751990448338L977.7068181818181,67.80774956399739L998.5090909090909,64.11955150690937L1019.3113636363636,67.5241048769517L1040.1136363636363,66.38921970670867L1060.915909090909,69.79377307675094L1081.7181818181818,71.4960497617721L1102.5204545454546,70.64491141926152" style="fill: none;" fill="none"></path></g><g><path stroke="rgb(0, 119, 187)" stroke-width="2px" d="M104.01136363636364,93.05835729295552L124.81363636363636,101.00245134396982L145.61590909090907,97.88154266097325L166.4181818181818,106.67667291381139L187.22045454545454,104.97439622879023L208.02272727272728,96.17926597595209L228.82500000000002,90.78868909315622L249.62727272727273,93.34210412068796L270.42954545454546,94.76073611866337L291.23181818181814,93.05835729295552L312.0340909090909,91.07243592088867L332.8363636363636,94.76073611866337L353.63863636363635,90.22129757837808L374.4409090909091,85.96550372513855L395.2431818181818,79.15639698505396L416.04545454545456,84.83072069558227L436.8477272727273,83.97948021238494L457.65000000000003,78.87265015732152L478.4522727272727,84.26322704011739L499.25454545454545,91.35608060793436L520.0568181818181,84.26322704011739L540.8590909090909,85.96550372513855L561.6613636363636,87.9515272378921L582.4636363636363,81.42606518485326L603.2659090909091,82.27720352736378L624.0681818181818,85.96550372513855L644.8704545454545,84.54697386784983L665.6727272727272,86.53299738060338L686.475,84.54697386784983L707.2772727272727,83.4120886976068L728.0795454545455,87.10038889538151L748.8818181818182,87.38413572311396L769.6840909090909,84.54697386784983L790.4863636363636,85.96550372513855L811.2886363636363,84.26322704011739L832.0909090909091,87.66778041015965L852.8931818181818,83.12834186987436L873.6954545454546,82.27720352736378L894.4977272727273,84.54697386784983L915.3000000000001,81.1424204978075L936.1022727272727,87.66778041015965L956.9045454545454,88.51891875267023L977.7068181818181,85.6818590380928L998.5090909090909,82.27720352736378L1019.3113636363636,86.24925055287093L1040.1136363636363,80.85867367007512L1060.915909090909,76.31923512978983L1081.7181818181818,87.66778041015965L1102.5204545454546,81.99355884031809" style="fill: none;" fill="none"></path></g><g><path stroke="rgb(255, 112, 67)" stroke-width="2px" d="M187.22045454545454,427.5579219243743L208.02272727272728,374.21959568153727L228.82500000000002,326.2717952511527L249.62727272727273,279.45887999101114L270.42954545454546,243.4271184964613L291.23181818181814,211.08365719968617L312.0340909090909,191.22362635352388L332.8363636363636,161.14993539723477L353.63863636363635,154.05708182941777L374.4409090909091,143.8433195786042L395.2431818181818,134.76444249803362L416.04545454545456,133.34591264074493L436.8477272727273,128.23898044499478L457.65000000000003,121.71362053264264L478.4522727272727,121.42987370491025L499.25454545454545,113.20213496685022L520.0568181818181,116.60668833689249L540.8590909090909,113.76952648162836L561.6613636363636,108.66269642656493L582.4636363636363,103.8395110585472L603.2659090909091,109.23008794134307L624.0681818181818,106.39302822676564L644.8704545454545,105.8255345713008L665.6727272727272,113.48588179458267L686.475,108.37894959883249L707.2772727272727,99.8675661737268L728.0795454545455,111.7836051095615L748.8818181818182,107.81155808405435L769.6840909090909,113.76952648162836L790.4863636363636,107.52781125632191L811.2886363636363,114.0532733093608L832.0909090909091,107.52781125632191L852.8931818181818,110.93246676705093L873.6954545454546,115.18815847960377L894.4977272727273,104.69064940105778L915.3000000000001,104.97439622879023L936.1022727272727,104.12325788627965L956.9045454545454,106.96041974154377L977.7068181818181,112.63474345207209L998.5090909090909,107.24416656927622L1019.3113636363636,99.30007251826191L1040.1136363636363,103.55586637150151L1060.915909090909,101.28609603101552L1081.7181818181818,103.27211954376907L1102.5204545454546,104.40700471401209" style="fill: none;" fill="none"></path></g></g></g></g></g></g><g transform="translate(48, 377)" clip-path="url(#clip_1)"><clipPath id="clip_1"><rect width="1144" height="23"></rect></clipPath><g><g><line x1="0" y1="0" x2="0" y2="5" style="visibility: inherit;" fill="rgb(0, 0, 0)" stroke="rgb(204, 204, 204)" stroke-width="1px"></line><line x1="104.01136363636364" y1="0" x2="104.01136363636364" y2="5" style="visibility: inherit;" fill="rgb(0, 0, 0)" stroke="rgb(204, 204, 204)" stroke-width="1px"></line><line x1="208.02272727272728" y1="0" x2="208.02272727272728" y2="5" style="visibility: inherit;" fill="rgb(0, 0, 0)" stroke="rgb(204, 204, 204)" stroke-width="1px"></line><line x1="312.0340909090909" y1="0" x2="312.0340909090909" y2="5" style="visibility: inherit;" fill="rgb(0, 0, 0)" stroke="rgb(204, 204, 204)" stroke-width="1px"></line><line x1="416.04545454545456" y1="0" x2="416.04545454545456" y2="5" style="visibility: inherit;" fill="rgb(0, 0, 0)" stroke="rgb(204, 204, 204)" stroke-width="1px"></line><line x1="520.0568181818181" y1="0" x2="520.0568181818181" y2="5" style="visibility: inherit;" fill="rgb(0, 0, 0)" stroke="rgb(204, 204, 204)" stroke-width="1px"></line><line x1="624.0681818181818" y1="0" x2="624.0681818181818" y2="5" style="visibility: inherit;" fill="rgb(0, 0, 0)" stroke="rgb(204, 204, 204)" stroke-width="1px"></line><line x1="728.0795454545455" y1="0" x2="728.0795454545455" y2="5" style="visibility: inherit;" fill="rgb(0, 0, 0)" stroke="rgb(204, 204, 204)" stroke-width="1px"></line><line x1="832.0909090909091" y1="0" x2="832.0909090909091" y2="5" style="visibility: inherit;" fill="rgb(0, 0, 0)" stroke="rgb(204, 204, 204)" stroke-width="1px"></line><line x1="936.1022727272727" y1="0" x2="936.1022727272727" y2="5" style="visibility: inherit;" fill="rgb(0, 0, 0)" stroke="rgb(204, 204, 204)" stroke-width="1px"></line><line x1="1040.1136363636363" y1="0" x2="1040.1136363636363" y2="5" style="visibility: inherit;" fill="rgb(0, 0, 0)" stroke="rgb(204, 204, 204)" stroke-width="1px"></line><line x1="1144.125" y1="0" x2="1144.125" y2="5" style="visibility: inherit;" fill="rgb(0, 0, 0)" stroke="rgb(204, 204, 204)" stroke-width="1px"></line></g><g transform="translate(0, 8)"><text x="0" y="0" dx="0em" dy="0.95em" style="text-anchor: middle; visibility: hidden; font-family: &quot;Helvetica Neue&quot;, sans-serif; font-size: 12px; font-weight: 200;" fill="rgb(50, 49, 63)" stroke="none" stroke-width="1px">-5</text><text x="104.01136363636364" y="0" dx="0em" dy="0.95em" style="text-anchor: middle; visibility: inherit; font-family: &quot;Helvetica Neue&quot;, sans-serif; font-size: 12px; font-weight: 200;" fill="rgb(50, 49, 63)" stroke="none" stroke-width="1px">0</text><text x="208.02272727272728" y="0" dx="0em" dy="0.95em" style="text-anchor: middle; visibility: inherit; font-family: &quot;Helvetica Neue&quot;, sans-serif; font-size: 12px; font-weight: 200;" fill="rgb(50, 49, 63)" stroke="none" stroke-width="1px">5</text><text x="312.0340909090909" y="0" dx="0em" dy="0.95em" style="text-anchor: middle; visibility: inherit; font-family: &quot;Helvetica Neue&quot;, sans-serif; font-size: 12px; font-weight: 200;" fill="rgb(50, 49, 63)" stroke="none" stroke-width="1px">10</text><text x="416.04545454545456" y="0" dx="0em" dy="0.95em" style="text-anchor: middle; visibility: inherit; font-family: &quot;Helvetica Neue&quot;, sans-serif; font-size: 12px; font-weight: 200;" fill="rgb(50, 49, 63)" stroke="none" stroke-width="1px">15</text><text x="520.0568181818181" y="0" dx="0em" dy="0.95em" style="text-anchor: middle; visibility: inherit; font-family: &quot;Helvetica Neue&quot;, sans-serif; font-size: 12px; font-weight: 200;" fill="rgb(50, 49, 63)" stroke="none" stroke-width="1px">20</text><text x="624.0681818181818" y="0" dx="0em" dy="0.95em" style="text-anchor: middle; visibility: inherit; font-family: &quot;Helvetica Neue&quot;, sans-serif; font-size: 12px; font-weight: 200;" fill="rgb(50, 49, 63)" stroke="none" stroke-width="1px">25</text><text x="728.0795454545455" y="0" dx="0em" dy="0.95em" style="text-anchor: middle; visibility: inherit; font-family: &quot;Helvetica Neue&quot;, sans-serif; font-size: 12px; font-weight: 200;" fill="rgb(50, 49, 63)" stroke="none" stroke-width="1px">30</text><text x="832.0909090909091" y="0" dx="0em" dy="0.95em" style="text-anchor: middle; visibility: inherit; font-family: &quot;Helvetica Neue&quot;, sans-serif; font-size: 12px; font-weight: 200;" fill="rgb(50, 49, 63)" stroke="none" stroke-width="1px">35</text><text x="936.1022727272727" y="0" dx="0em" dy="0.95em" style="text-anchor: middle; visibility: inherit; font-family: &quot;Helvetica Neue&quot;, sans-serif; font-size: 12px; font-weight: 200;" fill="rgb(50, 49, 63)" stroke="none" stroke-width="1px">40</text><text x="1040.1136363636363" y="0" dx="0em" dy="0.95em" style="text-anchor: middle; visibility: inherit; font-family: &quot;Helvetica Neue&quot;, sans-serif; font-size: 12px; font-weight: 200;" fill="rgb(50, 49, 63)" stroke="none" stroke-width="1px">45</text><text x="1144.125" y="0" dx="0em" dy="0.95em" style="text-anchor: middle; visibility: hidden; font-family: &quot;Helvetica Neue&quot;, sans-serif; font-size: 12px; font-weight: 200;" fill="rgb(50, 49, 63)" stroke="none" stroke-width="1px">50</text></g><line x1="0" y1="0" x2="1144.125" y2="0" fill="rgb(0, 0, 0)" stroke="rgb(204, 204, 204)" stroke-width="1px"></line></g></g></g></g></svg>