<svg viewBox="0 0 330 200" xmlns="http://www.w3.org/2000/svg"><g><g><g><g><g><line x1="48.875" y1="177" x2="43.875" y2="177" style="visibility: inherit;" fill="rgb(0, 0, 0)" stroke="rgb(204, 204, 204)" stroke-width="1px"></line><line x1="48.875" y1="163.38461538461536" x2="43.875" y2="163.38461538461536" style="visibility: inherit;" fill="rgb(0, 0, 0)" stroke="rgb(204, 204, 204)" stroke-width="1px"></line><line x1="48.875" y1="149.76923076923077" x2="43.875" y2="149.76923076923077" style="visibility: inherit;" fill="rgb(0, 0, 0)" stroke="rgb(204, 204, 204)" stroke-width="1px"></line><line x1="48.875" y1="136.15384615384613" x2="43.875" y2="136.15384615384613" style="visibility: inherit;" fill="rgb(0, 0, 0)" stroke="rgb(204, 204, 204)" stroke-width="1px"></line><line x1="48.875" y1="122.53846153846155" x2="43.875" y2="122.53846153846155" style="visibility: inherit;" fill="rgb(0, 0, 0)" stroke="rgb(204, 204, 204)" stroke-width="1px"></line><line x1="48.875" y1="108.9230769230769" x2="43.875" y2="108.9230769230769" style="visibility: inherit;" fill="rgb(0, 0, 0)" stroke="rgb(204, 204, 204)" stroke-width="1px"></line><line x1="48.875" y1="95.30769230769228" x2="43.875" y2="95.30769230769228" style="visibility: inherit;" fill="rgb(0, 0, 0)" stroke="rgb(204, 204, 204)" stroke-width="1px"></line><line x1="48.875" y1="81.69230769230768" x2="43.875" y2="81.69230769230768" style="visibility: inherit;" fill="rgb(0, 0, 0)" stroke="rgb(204, 204, 204)" stroke-width="1px"></line><line x1="48.875" y1="68.07692307692305" x2="43.875" y2="68.07692307692305" style="visibility: inherit;" fill="rgb(0, 0, 0)" stroke="rgb(204, 204, 204)" stroke-width="1px"></line><line x1="48.875" y1="54.46153846153847" x2="43.875" y2="54.46153846153847" style="visibility: inherit;" fill="rgb(0, 0, 0)" stroke="rgb(204, 204, 204)" stroke-width="1px"></line><line x1="48.875" y1="40.84615384615381" x2="43.875" y2="40.84615384615381" style="visibility: inherit;" fill="rgb(0, 0, 0)" stroke="rgb(204, 204, 204)" stroke-width="1px"></line><line x1="48.875" y1="27.230769230769198" x2="43.875" y2="27.230769230769198" style="visibility: inherit;" fill="rgb(0, 0, 0)" stroke="rgb(204, 204, 204)" stroke-width="1px"></line><line x1="48.875" y1="13.615384615384556" x2="43.875" y2="13.615384615384556" style="visibility: inherit;" fill="rgb(0, 0, 0)" stroke="rgb(204, 204, 204)" stroke-width="1px"></line><line x1="48.875" y1="0" x2="43.875" y2="0" style="visibility: inherit;" fill="rgb(0, 0, 0)" stroke="rgb(204, 204, 204)" stroke-width="1px"></line></g><g transform="translate(38.875, 0)"><text x="0" y="177" dx="0em" dy="0.3em" style="text-anchor: end; visibility: hidden; font-family: &quot;Helvetica Neue&quot;, sans-serif; font-size: 12px; font-weight: 200;" fill="rgb(50, 49, 63)" stroke="none" stroke-width="1px">0.5</text><text x="0" y="163.38461538461536" dx="0em" dy="0.3em" style="text-anchor: end; visibility: inherit; font-family: &quot;Helvetica Neue&quot;, sans-serif; font-size: 12px; font-weight: 200;" fill="rgb(50, 49, 63)" stroke="none" stroke-width="1px">0.55</text><text x="0" y="149.76923076923077" dx="0em" dy="0.3em" style="text-anchor: end; visibility: hidden; font-family: &quot;Helvetica Neue&quot;, sans-serif; font-size: 12px; font-weight: 200;" fill="rgb(50, 49, 63)" stroke="none" stroke-width="1px">0.6</text><text x="0" y="136.15384615384613" dx="0em" dy="0.3em" style="text-anchor: end; visibility: inherit; font-family: &quot;Helvetica Neue&quot;, sans-serif; font-size: 12px; font-weight: 200;" fill="rgb(50, 49, 63)" stroke="none" stroke-width="1px">0.65</text><text x="0" y="122.53846153846155" dx="0em" dy="0.3em" style="text-anchor: end; visibility: hidden; font-family: &quot;Helvetica Neue&quot;, sans-serif; font-size: 12px; font-weight: 200;" fill="rgb(50, 49, 63)" stroke="none" stroke-width="1px">0.7</text><text x="0" y="108.9230769230769" dx="0em" dy="0.3em" style="text-anchor: end; visibility: inherit; font-family: &quot;Helvetica Neue&quot;, sans-serif; font-size: 12px; font-weight: 200;" fill="rgb(50, 49, 63)" stroke="none" stroke-width="1px">0.75</text><text x="0" y="95.30769230769228" dx="0em" dy="0.3em" style="text-anchor: end; visibility: hidden; font-family: &quot;Helvetica Neue&quot;, sans-serif; font-size: 12px; font-weight: 200;" fill="rgb(50, 49, 63)" stroke="none" stroke-width="1px">0.8</text><text x="0" y="81.69230769230768" dx="0em" dy="0.3em" style="text-anchor: end; visibility: inherit; font-family: &quot;Helvetica Neue&quot;, sans-serif; font-size: 12px; font-weight: 200;" fill="rgb(50, 49, 63)" stroke="none" stroke-width="1px">0.85</text><text x="0" y="68.07692307692305" dx="0em" dy="0.3em" style="text-anchor: end; visibility: hidden; font-family: &quot;Helvetica Neue&quot;, sans-serif; font-size: 12px; font-weight: 200;" fill="rgb(50, 49, 63)" stroke="none" stroke-width="1px">0.9</text><text x="0" y="54.46153846153847" dx="0em" dy="0.3em" style="text-anchor: end; visibility: inherit; font-family: &quot;Helvetica Neue&quot;, sans-serif; font-size: 12px; font-weight: 200;" fill="rgb(50, 49, 63)" stroke="none" stroke-width="1px">0.95</text><text x="0" y="40.84615384615381" dx="0em" dy="0.3em" style="text-anchor: end; visibility: hidden; font-family: &quot;Helvetica Neue&quot;, sans-serif; font-size: 12px; font-weight: 200;" fill="rgb(50, 49, 63)" stroke="none" stroke-width="1px">1</text><text x="0" y="27.230769230769198" dx="0em" dy="0.3em" style="text-anchor: end; visibility: inherit; font-family: &quot;Helvetica Neue&quot;, sans-serif; font-size: 12px; font-weight: 200;" fill="rgb(50, 49, 63)" stroke="none" stroke-width="1px">1.05</text><text x="0" y="13.615384615384556" dx="0em" dy="0.3em" style="text-anchor: end; visibility: hidden; font-family: &quot;Helvetica Neue&quot;, sans-serif; font-size: 12px; font-weight: 200;" fill="rgb(50, 49, 63)" stroke="none" stroke-width="1px">1.1</text><text x="0" y="0" dx="0em" dy="0.3em" style="text-anchor: end; visibility: hidden; font-family: &quot;Helvetica Neue&quot;, sans-serif; font-size: 12px; font-weight: 200;" fill="rgb(50, 49, 63)" stroke="none" stroke-width="1px">1.15</text></g><line x1="48.875" y1="0" x2="48.875" y2="177" fill="rgb(0, 0, 0)" stroke="rgb(204, 204, 204)" stroke-width="1px"></line></g></g><g transform="translate(48, 0)" clip-path="url(#clip_0)"><clipPath id="clip_0"><rect width="281" height="177"></rect></clipPath><g><g><g><line x1="0" y1="0" x2="0" y2="177" fill="rgb(0, 0, 0)" stroke="rgb(60, 60, 60)" stroke-width="1px" opacity="0.25"></line><line x1="31.23611111111111" y1="0" x2="31.23611111111111" y2="177" fill="rgb(0, 0, 0)" stroke="rgb(60, 60, 60)" stroke-width="1px" opacity="0.25"></line><line x1="62.47222222222222" y1="0" x2="62.47222222222222" y2="177" fill="rgb(0, 0, 0)" stroke="rgb(60, 60, 60)" stroke-width="1px" opacity="0.25"></line><line x1="93.70833333333333" y1="0" x2="93.70833333333333" y2="177" fill="rgb(0, 0, 0)" stroke="rgb(60, 60, 60)" stroke-width="1px" opacity="0.25"></line><line x1="124.94444444444444" y1="0" x2="124.94444444444444" y2="177" fill="rgb(0, 0, 0)" stroke="rgb(60, 60, 60)" stroke-width="1px" opacity="0.25"></line><line x1="156.18055555555557" y1="0" x2="156.18055555555557" y2="177" fill="rgb(0, 0, 0)" stroke="rgb(60, 60, 60)" stroke-width="1px" opacity="0.25"></line><line x1="187.41666666666666" y1="0" x2="187.41666666666666" y2="177" fill="rgb(0, 0, 0)" stroke="rgb(60, 60, 60)" stroke-width="1px" opacity="0.25"></line><line x1="218.65277777777777" y1="0" x2="218.65277777777777" y2="177" fill="rgb(0, 0, 0)" stroke="rgb(60, 60, 60)" stroke-width="1px" opacity="0.25"></line><line x1="249.88888888888889" y1="0" x2="249.88888888888889" y2="177" fill="rgb(0, 0, 0)" stroke="rgb(60, 60, 60)" stroke-width="1px" opacity="0.25"></line><line x1="281.125" y1="0" x2="281.125" y2="177" fill="rgb(0, 0, 0)" stroke="rgb(60, 60, 60)" stroke-width="1px" opacity="0.25"></line></g><g><line x1="0" y1="177" x2="281.125" y2="177" fill="rgb(0, 0, 0)" stroke="rgb(60, 60, 60)" stroke-width="1px" opacity="0.25"></line><line x1="0" y1="163.38461538461536" x2="281.125" y2="163.38461538461536" fill="rgb(0, 0, 0)" stroke="rgb(60, 60, 60)" stroke-width="1px" opacity="0.25"></line><line x1="0" y1="149.76923076923077" x2="281.125" y2="149.76923076923077" fill="rgb(0, 0, 0)" stroke="rgb(60, 60, 60)" stroke-width="1px" opacity="0.25"></line><line x1="0" y1="136.15384615384613" x2="281.125" y2="136.15384615384613" fill="rgb(0, 0, 0)" stroke="rgb(60, 60, 60)" stroke-width="1px" opacity="0.25"></line><line x1="0" y1="122.53846153846155" x2="281.125" y2="122.53846153846155" fill="rgb(0, 0, 0)" stroke="rgb(60, 60, 60)" stroke-width="1px" opacity="0.25"></line><line x1="0" y1="108.9230769230769" x2="281.125" y2="108.9230769230769" fill="rgb(0, 0, 0)" stroke="rgb(60, 60, 60)" stroke-width="1px" opacity="0.25"></line><line x1="0" y1="95.30769230769228" x2="281.125" y2="95.30769230769228" fill="rgb(0, 0, 0)" stroke="rgb(60, 60, 60)" stroke-width="1px" opacity="0.25"></line><line x1="0" y1="81.69230769230768" x2="281.125" y2="81.69230769230768" fill="rgb(0, 0, 0)" stroke="rgb(60, 60, 60)" stroke-width="1px" opacity="0.25"></line><line x1="0" y1="68.07692307692305" x2="281.125" y2="68.07692307692305" fill="rgb(0, 0, 0)" stroke="rgb(60, 60, 60)" stroke-width="1px" opacity="0.25"></line><line x1="0" y1="54.46153846153847" x2="281.125" y2="54.46153846153847" fill="rgb(0, 0, 0)" stroke="rgb(60, 60, 60)" stroke-width="1px" opacity="0.25"></line><line x1="0" y1="40.84615384615381" x2="281.125" y2="40.84615384615381" fill="rgb(0, 0, 0)" stroke="rgb(60, 60, 60)" stroke-width="1px" opacity="0.25"></line><line x1="0" y1="27.230769230769198" x2="281.125" y2="27.230769230769198" fill="rgb(0, 0, 0)" stroke="rgb(60, 60, 60)" stroke-width="1px" opacity="0.25"></line><line x1="0" y1="13.615384615384556" x2="281.125" y2="13.615384615384556" fill="rgb(0, 0, 0)" stroke="rgb(60, 60, 60)" stroke-width="1px" opacity="0.25"></line><line x1="0" y1="0" x2="281.125" y2="0" fill="rgb(0, 0, 0)" stroke="rgb(60, 60, 60)" stroke-width="1px" opacity="0.25"></line></g></g></g><g><g><line x1="0" y1="313.1538461538462" x2="281.125" y2="313.1538461538462" fill="rgb(0, 0, 0)" stroke="rgb(153, 153, 153)" stroke-width="1.5px"></line></g></g><g><g><line x1="31.23611111111111" y1="0" x2="31.23611111111111" y2="177" fill="rgb(0, 0, 0)" stroke="rgb(153, 153, 153)" stroke-width="1.5px"></line></g></g><g><g><g><g><g><path stroke="rgb(255, 112, 67)" stroke-width="2px" d="M40.39453888888889,-0.2469412291272306L40.75063055555556,21.466060975135946L40.9318,27.70408879494329L41.031755555555556,29.068781176069564L41.13171111111111,23.897053825976087L41.48155555555555,30.287102617092273L41.80016388888889,31.624301978473937L41.912613888888885,32.824626860753995L41.96883888888889,29.212924274588687L42.06879444444444,33.819042896599996L42.087536111111106,40.807332468032286L42.362413888888895,43.96387203730234L42.755988888888886,48.762103254321005L42.89342777777778,39.93989882979733L42.912169444444444,45.051352088030825L42.96214722222222,39.18580272550244L43.21203611111111,43.14119299916743L43.318238888888885,44.72186405506878L43.39945277777778,41.96616365891822L43.95545555555555,48.508896548458154L44.33028888888889,49.494962517381026L44.89878611111111,53.403366746878845L44.973752777777776,67.61113333201826L45.17366388888889,73.39966939112475L45.21114722222222,69.98008826369147L45.33609166666667,73.1628450572139L45.36732777777778,76.18393260265951L45.64845277777778,76.37740668807226L45.723419444444446,78.04035810644783L45.94207222222222,71.35905026848482L46.160725000000006,73.88161221693102L46.16697222222222,73.48713406147951L46.454344444444445,75.75853476656908L46.560547222222226,77.86456419437422L46.57304166666666,80.62716145621852L46.604277777777774,77.92200324855978L46.76045833333333,75.38480896078417L46.76670555555556,70.89431994795675L46.84167222222222,71.05673231588803L46.872908333333335,64.93198444145962L47.05407777777777,70.16251651602275L47.14778611111111,69.92417944855173L47.185269444444444,71.55882672072686L48.009902777777775,75.3935551307825L48.3535,75.035546385366L48.659613888888885,73.5575626428557L49.328066666666665,74.19565636452903L49.77161944444445,79.3830575965823L50.04649722222222,88.20807886994233L50.21517222222222,88.13657130250222L50.23391388888889,87.01261735642669L50.59625277777777,84.65222809906248L50.983580555555555,84.95316808431916L51.20223333333333,84.06811491761044L51.41463888888889,84.97670982135014L51.5021,86.96401908034763L51.51459444444444,77.36889339706111L51.52084166666666,75.92693934434674L51.883180555555555,79.30799824857817L52.976444444444446,81.0447258404738L53.726111111111116,80.01832181157516L53.83856111111111,85.12396090087705L53.851055555555554,80.65860185767428L54.16341666666667,89.21643249011397L54.51326111111111,88.85685463942595L54.606969444444445,96.48716912203918L54.931824999999996,98.0581600280636L55.06301666666666,93.82185583369747L55.10674722222222,93.38969469516945L55.7752,98.15685704572529L55.95012222222222,99.69474651350696L56.12504444444445,87.5626880467596L56.4499,88.11920435350036L56.837227777777784,84.63910260043313L57.44945555555556,86.28105543262365L57.643119444444444,83.46579103868093L57.67435555555556,83.93549154520564L58.124155555555554,86.69668391033635L58.20536944444444,91.40177141469263L58.217863888888886,85.37796490235516L58.723888888888894,87.35989965428024L59.298633333333335,101.47918709909843L59.40483611111111,102.33531861046052L59.53602777777778,102.80008436854447L60.14825555555556,103.68689128298253L60.373155555555556,95.98221283463468L60.39814444444445,98.9010614894912L60.448122222222224,107.25954764650466L60.91041666666667,108.85899014672897L61.14781111111111,102.62686462595663L61.23527222222222,97.04254301333877L61.47266666666667,100.43352455326131L61.54763333333334,99.47462098395216L61.81001666666666,97.86232528307806L62.23482777777778,95.31505445693274L62.29105277777778,103.15867589286036L62.30979444444445,96.33753101038191L62.78458333333333,98.50589591910942L62.79707777777778,95.424234411559L63.13442777777777,96.07637832158986L63.30935,104.57459382310479L63.96530833333333,107.65669000205381L64.52755833333333,110.27363224246906L64.62751388888888,114.68475948317442L64.714975,111.93934873483121L65.09605555555555,111.57890633832493L65.70203611111111,106.19224061103233L65.90194722222222,98.40471565169115L66.62037777777778,100.75537962030732L66.71408611111111,100.70268794850558L66.98896388888889,105.8060251604725L67.51997777777777,106.42248691277193L67.62618055555555,105.27264139241177L67.64492222222222,107.31284608264178L67.86982222222223,116.21559961559788L67.91355277777778,121.2346872435127L68.13845277777777,127.7998741961419L68.26964444444444,125.8782705383103L68.65697222222222,115.82617964981065L68.78191666666667,110.80149461227877L69.47535833333333,106.32444403087949L69.53783055555556,110.05502280075098L69.96888888888888,114.37254245383177L70.05010277777778,110.01137523602259L70.08758611111111,106.87475683036241L70.16879999999999,112.60026066425044L70.52489166666668,113.0727207202149L70.66857777777777,115.4967345659532L70.69981388888888,110.57835818547365L71.06840000000001,114.05195823075158L71.21833333333333,113.85650843102346L71.81806666666667,115.10613837166102L71.968,119.23960383222887L72.30534999999999,117.6528735643731L72.48651944444444,121.17445380100554L72.82386944444445,128.0410536353021L73.0675111111111,126.65841414981152L73.08625277777777,128.36154992391965L73.16121944444444,127.44016275916371L73.35488333333333,130.3701492105449L74.00459444444445,131.2861389463169L74.05457222222222,130.36279388338465L74.14828055555556,121.8781956291711L74.7542611111111,116.41184939666299L74.91668888888888,117.94322830090533L75.05412777777778,110.11162707688483L75.62887222222223,110.62968799117294L75.67885,110.3647270552746L75.93498611111112,102.86418162025676L76.31606666666667,102.74082806160342L76.50973055555555,111.03989130160156L76.90955277777778,102.67045441990277L77.084475,116.64330532570405L77.09072222222221,127.3923438143072L77.20941944444445,135.51862962414384L77.35310555555556,131.7457331876591L77.47180277777777,134.73195252046338L77.77791666666667,130.95022753932363L77.8403888888889,131.79935059765563L77.85913055555555,128.3041204340892L77.95283888888888,129.4346788280711L78.15899722222223,126.20844742974674L79.25850833333332,132.59174837569705L79.29599166666667,122.8305671786822L79.71455555555556,114.72861898258208L79.88947777777777,119.74698419942004L79.95195,111.44556843613478L80.17060277777777,113.46571366047566L80.58916666666667,115.75311748097684L80.78907777777778,112.99841059484592L81.15766388888889,113.27314367482325L81.37631666666667,111.88118330408075L81.52000277777778,106.86491320545682L81.62620555555554,130.05892603864933L82.33838888888889,133.75212857563616L82.55704166666668,132.258441579668L82.594525,126.4778158463087L83.02558333333333,122.34817151180414L83.30046111111112,122.76343470141043L83.48163055555555,115.06304382050118L83.51286666666667,122.02092945022446L83.56909166666667,122.54152919547366L84.13134166666667,120.55565274589605L84.15008333333334,115.49845593839126L84.32500555555555,121.18861011986553L84.38747777777778,124.56232688253664L84.74981666666666,120.45235207563732L84.96846944444444,116.59279042276935L85.17462777777779,118.98205815980599L85.180875,116.82961758924765L85.55570833333334,115.99580346822378L86.3303638888889,122.11022305242616L86.34910555555555,128.81880687052524L86.69895,129.28346427902292L86.86137777777779,131.08303954423445L86.88011944444445,132.11544269638463L87.01131111111111,133.7504069943261L87.05504166666667,133.00095471330522L87.41738055555555,128.45226539448797L87.4548638888889,128.70096921764278L87.80470833333334,128.19399311998808L88.87298333333332,129.44531570818387L88.91671388888889,122.54100022238157L89.08538888888889,121.2232459012277L89.43523333333333,122.22857713656651L89.63514444444444,119.76765991332044L90.03496666666666,126.90595250774568L90.05370833333335,121.41860775894335L90.17865277777777,123.48716381407853L90.38481111111112,124.87523815532003L90.87834166666666,129.2798203429319L90.92207222222223,137.5898727408262L91.00328611111111,142.2428221271852L91.140725,131.9891096003397L91.37811944444445,131.88838775991508L91.56553611111111,131.23421239509418L91.70922222222222,130.81064141874361L91.82167222222222,131.97862883077357L92.25897777777779,130.18038397553414L92.72751944444444,124.66477295792885L93.12734166666667,130.05002042764804L93.53341111111112,125.51930663149494L94.07067222222221,122.69688435109403L94.2331,124.63719620349558L94.75786666666667,125.78456171042788L95.43256666666667,132.3194202294404L95.47629722222221,136.07822207779108L96.18223333333334,137.81929835457777L96.200975,134.11410991326167L96.33216666666667,140.15874729508505L96.70075277777778,133.84922023984402L96.763225,138.28460063239424L96.78821388888888,134.8602255207329L96.96938333333333,133.48876145567516L97.17554166666667,124.4376058835792L97.50039722222222,126.6556591041597L97.6066,123.29621089247675L97.69406111111111,129.2423287858053L97.79401666666666,127.28828674180367L97.90021944444445,126.76515856940001L98.15010833333334,126.88183943045132L98.43748055555555,126.71207353654086L98.44372777777777,120.46623819212432L98.58116666666668,115.63181852140065L98.79981944444445,121.58760840016807L98.86229166666668,116.05777012849617L98.96224722222223,112.08972610972569L99.01847222222221,117.0819952842131L99.10593333333333,124.47536561230031L99.34332777777779,125.22530746341195L99.36206944444444,121.57447572783587L99.574475,121.8714316877344L99.59946388888889,117.50090317040247L99.74315,120.35899469184157L99.78063333333333,120.57859009965321L99.79312777777778,118.10173264284904L100.04301666666666,127.63232133426102L100.0805,141.05811818989048L100.16171388888888,141.63017670153428L100.19295,137.59238689766713L100.59277222222222,139.69499081333922L100.71146944444443,136.6579482708921L100.76769444444444,136.49717918363513L101.04881944444445,138.7829451887676L101.19250555555554,135.337420505172L101.205,128.78063304903498L101.21124722222223,132.65921877524994L101.57983333333334,136.80729104515342L102.57314166666667,142.7594307471576L102.90424444444444,135.82561281424495L103.02918888888888,127.01594353470551L103.22285277777777,126.31363641014167L103.27907777777779,129.28223718325728L103.38528055555555,126.50876157218018L103.49148333333332,127.04664436190833L103.68514722222223,127.16482696062036L104.00375555555556,129.13031273925952L104.14744166666667,122.69659787140466L104.23490277777778,126.21099023194878L104.69719722222221,133.15809302615799L105.40938055555556,138.27746029731853L106.00911388888888,141.7799435636098L106.04034999999999,144.44588243020974L106.26525,137.9736010990208L106.4589138888889,139.34011158714685L107.06489444444443,137.5043468336921L107.22732222222223,129.67099352519602L107.25231111111111,124.68120327084414L107.35226666666668,123.52318229141555L107.61465,122.61553193432339L108.01447222222222,121.16413323371648L108.0332138888889,123.7836438563042L108.13316944444445,124.68400525269804L108.73290277777778,123.89063437069044L109.06400555555555,133.54199034191078L109.65749166666667,137.83997254776028L110.39466388888889,134.02444215356934L110.56958611111111,135.92255429882965L110.93817222222222,135.0253517159907L111.23179166666667,128.1506803855444L111.68159166666666,131.65988008942458L111.80028888888889,128.882518563803L112.06891944444445,123.09509420595572L112.19386388888888,127.87217907659186L112.55620277777778,122.22633454761853L112.66240555555555,119.38920138446429L112.83108055555556,120.822719170581L112.96227222222223,124.6649867425102L113.0372388888889,126.13409085496845L113.13094722222223,126.87782521821882L113.1559361111111,126.56412015012216L113.2621388888889,131.5078174102614L113.48703888888889,128.7152948277181L113.73692777777777,132.81166916746733L113.94308611111111,140.8885264477202L114.63028055555554,136.9935936535959L114.96138333333333,135.55687872663069L114.98637222222223,139.5881383094577L115.11131666666667,134.9067551381498L115.41743055555555,127.03556366486009L115.5986,126.82569378357417L115.86098333333334,125.89375665675524L116.17959166666667,119.84144132209832L116.32327777777779,125.844540080359L116.69186388888889,125.46990447283228L116.71060555555556,121.08873900703546L117.116675,117.51010275075775L117.29784444444444,124.06394299840431L117.51025,124.47550674799841L117.72890277777779,122.889643215587L117.87258888888888,125.14012498052548L117.97254444444444,123.41131379746074L118.42859166666668,131.99599135887382L118.54728888888889,138.8121821883242L118.68472777777778,137.28900574554828L119.197,137.60539476771893L120.07785833333332,135.40591760098783L120.490175,132.5672098999106L120.53390555555555,125.77289518697208L120.59013055555555,126.22321372984965L120.69633333333334,123.314965605217L120.7713,124.14932509354497L120.80878333333334,125.37238033239322L121.17736944444445,123.93916751564267L121.48973055555555,121.56447738733173L121.78335,128.51473182817682L122.00825,123.74642531640023L122.15818333333333,123.63805579743337L122.176925,118.50320634604427L122.64546666666668,121.02131352502204L122.68295,118.78229095285454L122.87036666666667,136.34985374610662L122.92659166666667,145.52315400087537L122.95158055555555,143.01684969322872L122.98906388888888,145.89796144299365L123.56380833333333,142.70989618160382L123.57005555555556,136.6703558165086L123.62003333333332,138.07290235380614L123.64502222222222,136.66293220055272L123.75122499999999,136.50292877798734L124.15104722222223,137.559183910164L124.26974444444446,133.7296219060396L124.48215,130.39038002703958L125.11311944444445,126.98279900128423L125.50669444444443,127.40196946037372L125.79406666666667,129.33345725905124L126.06894444444444,126.83945833904282L126.18764166666668,124.39366736522803L126.60620555555556,121.89168682678357L126.96854444444445,125.63908581861608L127.11223055555556,128.66135797503995L127.61825555555555,131.92715093027823L127.89938055555555,139.66792196627148L127.91187500000001,144.75710859745465L128.11178611111112,142.4488006853353L128.30544999999998,141.8407520289732L128.67403611111112,136.46240299784984L129.5673888888889,127.84418944210734L129.71732222222224,126.60965959474763L129.77354722222222,123.03198555212259L129.81103055555556,126.63155942344369L130.09840277777778,132.80290259003093L130.11714444444445,124.42857553135104L130.23584166666666,130.08945072083276L131.060475,124.60064981582158L131.1479361111111,124.19908813725576L131.7851527777778,124.20681352852795L131.91634444444446,135.75480903327792L132.36614444444444,136.7032565019792L132.74722500000001,137.4137017719996L133.197025,139.3757600009885L133.33446388888888,140.04106891093716L133.44066666666666,137.93262112103739L133.72803888888888,129.41440898983154L133.94044444444444,136.82878610194194L134.3465138888889,123.98328373116075L134.68386388888888,126.16761163778654L134.84629166666667,133.0691228145811L134.87752777777777,133.4424380808972L135.32108055555554,133.4335866293024L135.54598055555556,132.05570164904796L135.85209444444445,132.872488815333L136.23942222222223,129.2457542045159L136.24566944444445,126.10690218807254L136.458075,137.64915310319248L136.54553611111112,148.5624120156067L136.80791944444445,148.32104832466413L137.85120555555557,148.4001178103995L138.04486944444446,138.4777626241998L138.257275,135.52553540649245L138.63835555555556,137.90271448372374L138.7008277777778,140.7993574136135L138.931975,131.43370133141957L138.9819527777778,127.89220757828477L139.13813333333334,125.87562921510393L139.25058333333334,124.62296921531112L139.26307777777777,125.69810467718048L139.4067638888889,127.668294702518L139.41301111111113,123.07838448969787L139.41925833333335,126.44599618460006L139.438,125.17390454241334L139.55669722222223,124.44498744449851L139.77535,122.71945676113269L139.9690138888889,128.10635557347368L140.10020555555556,128.109142826823L140.21265555555556,128.19498812458878L140.27512777777778,122.40771053521702L140.83113055555557,124.4670873980134L140.91859166666666,130.0396360879005L141.0435361111111,140.40503928947078L141.0997611111111,147.37741645140792L141.14349166666668,152.62265540614658L141.1497388888889,149.89494916609348L141.33090833333335,156.6408601093973L141.39338055555558,156.46939115044202L141.51832499999998,155.87844302843052L141.94938333333334,146.21807943934226L142.25549722222223,140.67290636622096L142.46165555555555,138.00861009698713L142.69905000000003,138.19199274945296L143.39249166666667,127.84073077100263L143.54867222222222,131.1065747811018L143.5674138888889,133.58899222225887L143.62363888888888,131.9070735744982L143.79856111111113,121.59470512151967L144.0172138888889,120.39622395856713L144.09218055555556,120.61982680701564L144.33582222222222,127.56173925466885L144.49200277777777,117.50943669139335L144.59820555555555,115.33818164878937L145.02301666666668,117.5584867809278L145.16045555555556,126.7160140559435L145.33537777777778,119.76664623164069L145.67272777777777,126.72888300559069L146.50360833333335,134.15759256557084L146.50985555555556,130.2132091742208L147.10334166666667,134.3207284399127L147.38446666666667,131.66701849629015L148.14038055555554,125.44172272145008L148.1841111111111,127.30459475048244L148.96501388888888,131.86069677878442L149.26488055555555,126.05372229994134L149.67095,121.4988694287953L149.78964722222221,119.12582058388007L149.82088333333334,119.58336211480275L149.96456944444446,119.33669646340539L150.10200833333334,126.92551846726722L150.23319999999998,141.55508910899522L150.6580111111111,141.04499453888815L150.98911388888888,143.91829246448748L151.35145277777775,143.2168049024502L151.62633055555557,140.9922221518043L151.65131944444443,139.41532839359814L151.8075,134.4539640872688L152.96323611111112,132.09277987148735L153.05694444444444,132.6162865802246L153.07568611111108,126.88255309132323L153.21312500000002,120.75875743163485L153.25060833333333,124.78770366775402L153.550475,128.65477429586025L153.64418333333333,126.9342543216145L153.93155555555555,128.12000495796363L154.01901666666666,121.53865678395883L154.0877361111111,112.98704527282655L154.1439611111111,120.76274820292511L154.43133333333333,116.84656122538618L154.5000527777778,118.71378702098187L154.5375361111111,111.03904623813939L154.90612222222222,125.96503248185272L155.07479722222223,135.02366385955747L155.21848333333335,139.589663694129L155.65578888888888,145.24625706616422L155.7932277777778,143.91857503343726L155.9993861111111,137.51655402750163L156.10558888888892,136.1648869526455L156.14931944444444,138.34009481648712L156.39920833333335,144.61813639463895L156.48042222222222,144.12223301722676L156.51165833333332,139.3216493932664L156.54914166666666,137.6757167307568L156.56788333333333,134.25051771340196L157.04267222222222,129.54886844506012L157.04891944444446,136.08606663289066L157.0614138888889,135.6331452930208L157.32379722222223,132.47960038393765L157.3425388888889,133.04766718256033L157.53620277777776,132.22872547562224L157.7048777777778,126.60595953616681L157.72361944444444,128.23928853456394L157.75485555555554,130.7158958414861L158.1047,131.06876188010293L158.19840833333333,131.19700323589677L158.25463333333332,120.40552950254974L158.26712777777777,114.68446868959515L158.5732416666667,114.74107185783058L158.92933333333335,115.3810010603606L159.21045833333335,122.44360951125628L159.46659444444444,134.65254406838235L159.54780833333334,145.46508639281163L159.55405555555558,145.61577508262818L159.69149444444446,145.37965699634017L159.72273055555556,145.7735961601431L159.79145,145.79973180215555L160.48489166666667,145.07893075052272L160.61608333333334,142.30777964571064L161.04089444444446,146.56489142845516L161.04714166666665,142.530049664202L161.06588333333332,139.17428279892732L161.07213055555556,139.71057799627675L161.3719972222222,136.36478437699438L161.52193055555557,133.6659928479233L161.7280888888889,132.23194385739333L161.88426944444447,127.68489525466617L162.3465638888889,125.68111176616544L162.59645277777778,123.88080798811438L162.64643055555555,121.03986922866903L162.8463416666667,117.31864814371716L162.92755555555556,123.96142512162879L163.3273777777778,117.77231237008233L163.7334472222222,123.72389203460526L163.87713333333332,138.71646258646234L164.40189999999998,146.97799605515453L164.42064166666665,143.26157739301325L164.45187777777778,138.12421151354562L164.87044166666666,141.6066390150375L164.98289166666666,141.7361091593441L165.45143333333334,140.43516629317162L165.695075,136.40939429077912L165.70132222222222,137.12080183155456L166.68213611111113,131.659033021951L166.94451944444444,133.0444842219864L166.95076666666665,135.9405728107539L167.3568361111111,138.92316103639976L167.39431944444445,139.45646278336233L167.5192638888889,133.73498826924177L167.5567472222222,131.74161350275082L167.68793888888888,129.04058416352137L167.72542222222225,129.02897802667025L168.10025555555555,131.97803965155464L168.46884166666666,143.5966202049413L168.6687527777778,149.4214648098967L168.71248333333332,153.52458521763123L170.0493888888889,142.45218790930753L170.20556944444445,138.33852147584201L170.28678333333335,142.89242932696777L170.45545833333333,139.24771740230017L170.49918888888888,135.33822420399795L170.56790833333335,129.69929830161348L170.59914444444445,128.70860337801116L170.64912222222222,125.9787320992742L170.73658333333333,123.28868971016826L170.91150555555555,123.71910924118697L171.3425638888889,124.99076037738196L171.36130555555553,124.8677829241455L171.6236888888889,129.0003649352335L171.84234166666664,130.5512589943338L172.0734888888889,128.6608558522512L172.64198611111112,126.14247054113352L172.7419416666667,127.1968216883651L173.41039444444445,136.8956409593621L173.454125,140.03479840894198L173.52909166666666,146.91826973374785L173.84769999999997,144.64965049404793L173.91641944444444,141.32163670233837L173.9226666666667,139.38180503911025L174.48491666666666,136.63425358151528L174.50365833333333,135.32929635056934L175.422,128.61342455429204L175.4469888888889,128.26509310432158L175.4532361111111,124.94892768729761L175.55943888888888,127.41841440416182L175.6531472222222,132.66210798539498L175.71561944444443,138.70092595427363L175.7843388888889,132.42665342483093L175.815575,123.89475240153132L175.84681111111112,125.45558065815464L175.8718,123.54438317847621L175.90928333333335,124.77317908792347L176.05921666666666,129.4115886303335L176.12168888888888,122.11501337089516L176.28411666666668,125.53079480619564L176.56524166666668,132.2460872370405L176.70892777777777,131.19255419006367L177.02753611111112,125.4097772215859L177.17746944444445,123.15960919800045L177.29616666666666,125.38671899357863L177.38362777777778,127.50362807730187L177.58978611111112,137.18900354497777L178.29572222222222,141.4502065902998L178.6018361111111,139.64163440116852L179.1078611111111,139.66237362230368L179.17658055555555,132.8798043508067L179.301525,134.63866633416848L179.67635833333333,136.01489247411092L179.75757222222222,131.34309927494928L179.98871944444443,133.84569115929003L180.11366388888888,130.51602434259127L180.18238333333335,130.15751590583835L180.71964444444444,129.78362814156065L180.78211666666667,123.74248722258992L181.662975,129.91186539568776L181.89412222222225,129.8809269332416L181.90661666666668,129.53582606327467L182.08778611111111,128.5587372802565L182.33142777777778,136.91548131932342L182.63129444444445,134.9052321192777L182.93116111111112,135.07936958626152L182.94365555555555,141.0490216282781L182.99363333333335,142.2253299010767L183.18105,141.4908258442175L183.3247361111111,137.2732998894416L183.41219722222223,143.92745179381697L183.7682888888889,144.72513005174466L184.3680222222222,140.19955312723584L184.6491472222222,134.2618147069173L184.67413611111112,132.63488322194465L185.04896944444442,131.53316283686738L185.33634166666667,131.1860213564126L185.52375833333335,135.24628191233484L185.66119722222223,128.701071318081L185.711175,125.87652939691833L186.4733361111111,125.70213060184211L186.6607527777778,120.44299073029048L186.79819166666667,137.96223259664973L187.00435000000002,142.83158692995684L187.18551944444445,146.425875432968L187.46664444444446,149.32947450141899L187.71028611111112,140.96632284219004L188.24754722222224,134.6103644251063L188.70359444444443,133.80272764806588L188.85977499999998,127.04417402422442L188.94098888888888,131.61536969468602L188.9972138888889,124.3120314132401L189.49074444444443,120.43473501052293L189.85933055555557,127.30905418744263L190.5715138888889,124.84309556436423L190.6652222222222,125.91688543767862L190.99007777777777,134.6956743904007L191.15875277777778,136.48752376576886L191.54608055555556,140.5375967992398L191.7022611111111,140.33054410425373L192.25826388888888,143.5310821675787L192.48941111111114,141.19428604688042L192.7080638888889,135.41285199018412L192.9142222222222,137.8015715943837L193.17035833333335,133.02361254633314L193.84505833333333,127.75937867422792L193.9450138888889,124.27420966596723L194.07620555555553,126.70850941310806L194.13243055555557,130.76995213124212L194.2323861111111,133.6099584537331L194.6259611111111,129.7116537905133L194.63220833333335,123.22222087297601L194.71966944444443,119.61093814541695L195.4068638888889,125.24680256467934L195.48807777777776,134.8075243597234L195.55679722222223,123.78325739431867L196.18151944444446,135.7080595722888L196.60008333333334,137.82004978016812L196.86246666666668,136.84904859562351L197.84952777777775,140.1018646053604L198.37429444444444,134.4332829686207L198.3867888888889,136.34743639523538L198.63667777777778,130.13949216193043L198.642925,127.20539946474437L198.64917222222223,129.10937879293303L198.7491277777778,131.0840819815117L198.83034166666667,125.4122335150202L198.8428361111111,132.38995017476577L199.46131111111112,129.41430973469298L200.39839444444442,121.91507244154494L200.7982166666667,134.11330003765033L200.8357,146.91519021710457L200.87318333333334,147.91334301708713L200.89817222222223,144.5494970634449L200.90441944444444,145.60095377524672L201.37296111111112,144.6540184318468L201.62285,145.00398832051928L201.9664472222222,141.47859371229168L202.64739444444444,142.89601724827014L202.71611388888888,134.31938710730276L202.76609166666665,137.12773616587793L203.06595833333336,135.62758030578897L203.21589166666666,137.41077617090951L203.46578055555557,133.39809555396033L203.48452222222224,132.49937407126777L203.6781861111111,131.64256928487913L203.74065833333333,128.99878428514916L203.78438888888888,128.19235793616656L203.89683888888888,126.5973543195824L204.25293055555554,129.24506423242138L204.377875,130.7577430054656L204.39661666666666,121.99255112219977L204.52780833333335,127.57846270539147L205.06506944444445,137.98617608409256L205.63356666666667,141.46237442850824L205.64606111111112,145.29600811622547L205.84597222222223,147.61415907423594L205.9584222222222,146.9923261664701L207.7263861111111,135.651702590223L207.88881388888888,134.55235840892178L208.1636916666667,130.12266091667686L208.50728888888887,130.34935480911912L208.89461666666665,132.26850666874734L208.97583055555555,123.27989433433603L209.55057499999998,124.63845543170795L209.73174444444444,134.68803619483924L209.9753861111111,140.82964085653086L210.38145555555556,139.3996542804473L211.72460833333332,134.42418671511427L212.21813888888892,134.08330655245442L212.38056666666665,132.31662856337198L212.51800555555556,126.72102767337194L212.6367027777778,122.98282757145384L212.76164722222222,117.51001661357918L212.79288333333335,124.52909210708933L212.8928388888889,130.77427003751973L212.96780555555554,133.2141803620504L213.0677611111111,138.5331630722248L213.23643611111112,134.901947528593L213.66124722222224,129.4757720688737L213.9673611111111,127.38881447487995L214.048575,119.25844749370954L214.0985527777778,118.67479397300417L214.69203888888887,133.22923813359827L215.14183888888888,132.70409466085965L215.34799722222223,128.30796137239184L215.39172777777776,137.17892722726484L215.4479527777778,137.78086850172193L215.7603138888889,137.2861115944554L215.77905555555554,134.98812925337924L215.91024722222224,135.43370161320118L215.9852138888889,129.49223040812268L216.1039111111111,124.78769858733952L216.22260833333334,131.20841546458917L217.07223055555556,130.79187165353753L217.57825555555553,125.097173086727L217.58450277777777,118.62552200166155L217.79690833333333,128.31585221625335L217.91560555555557,131.52300678527385L218.20297777777776,133.08144423634656L218.65277777777777,127.50297498543492L218.68401388888887,124.9243310772055L218.84644166666666,136.90883683367306L219.13381388888888,146.16820810283537L219.2275222222222,151.30545269461277L219.5086472222222,145.85368853676937L219.73979444444444,141.95959442775617L220.008425,139.14037544221844L220.13336944444444,138.22936390316724L220.17085277777778,135.3521564612898L220.25206666666665,138.53681211073336L220.42698888888887,140.1741748961984L220.69561944444445,135.66750370205057L220.94550833333335,127.41025500097089L221.36407222222223,126.51411299878671L221.52025277777778,129.14034372506973L221.56398333333334,134.13356868175342L221.58897222222222,132.2360593010461L222.20744722222224,126.62793454520144L222.22618888888888,131.96380252329163L222.47607777777776,131.46875137317156L222.67598888888887,123.53521214492672L223.06331666666665,129.139436836141L223.1507777777778,135.56417887285437L223.25698055555554,131.3570607567641L223.2632277777778,126.43680520077197L223.52561111111112,139.18711002875082L224.1440861111111,138.5749895365024L224.31276111111112,141.08038114255572L225.22485555555554,138.0676807585573L225.55595833333334,135.35846537581685L226.23065833333334,124.49570034330206L226.29937777777778,119.62110501573935L227.06778611111113,123.82304682667618L227.43637222222222,123.80730490059227L227.66751944444445,121.53943436247451L227.79871111111112,120.59183142906448L228.02985833333335,137.56577504334004L228.2547583333333,139.04972299637382L228.26100555555556,146.03519338145887L228.4171861111111,141.2428298799237L228.8045138888889,138.486513413395L228.8419972222222,139.14784635792657L228.93570555555556,139.42875169697922L229.24806666666666,133.43447188358388L229.41049444444445,134.79644036369663L229.51669722222223,137.5376403483074L229.66038333333333,140.76376645555942L229.94775555555555,138.79580408714415L230.353825,142.00585498212328L230.39755555555556,136.25513757347196L230.44753333333333,138.60560920148112L230.7474,131.01952798825832L230.80362499999998,131.52113210403473L231.1722111111111,128.7470974785393L231.253425,130.2204740222141L232.15927222222223,125.93494366080019L232.23423888888888,123.96505461294646L232.44039722222223,119.17110523997339L232.45289166666666,132.10543375860806L232.70278055555556,144.60486708488145L233.10885000000002,148.23680456935398L233.57114444444446,147.81786342674377L233.8647638888889,147.43719117768933L234.0896638888889,146.4657416545741L234.27083333333334,145.88267717106572L234.45200277777778,145.1651328790484L234.53321666666668,139.70200553420818L234.55195833333335,137.35213504272573L234.964275,141.67029045292617L234.98301666666666,142.68176423288102L235.25164722222223,130.90903180016798L235.4952888888889,125.83732741028456L235.55776111111112,128.92451686325214L235.5765027777778,128.5670456238036L235.90760555555556,127.93218507545167L236.61354166666666,128.26171697483647L236.7322388888889,131.91530523895318L236.77596944444446,128.67047670281312L236.78221666666667,129.73245887589133L236.8259472222222,127.51637684208235L237.23201666666665,137.24894845198074L237.40693888888887,138.07346536207027L237.48190555555556,141.78100458445078L237.56311944444445,145.2757572740798L237.60684999999998,144.65322220021167L238.112875,140.29053977453606L238.31903333333332,141.07915915489687L238.34402222222224,140.08720863357252L238.51269722222222,139.05217705985024L238.52519166666667,143.16276837709387L238.94375555555555,144.90037308527732L239.08744166666668,140.78581891019445L239.52474722222223,129.53714374591337L239.58721944444446,133.68135912352457L239.6934222222222,127.67236130271394L239.73715277777777,134.81633146122903L239.75589444444444,132.24442658869373L239.84335555555555,134.7813894834075L239.91207500000002,133.64235173150848L240.7616972222222,136.0860530231111L240.99284444444444,129.6641553476144L241.33644166666667,124.17621777539512L241.3801722222222,119.88124857641448L241.78624166666665,134.94426762042755L241.9424222222222,137.99274383999665L241.99864722222225,139.7864139590038L242.0736138888889,143.63162352980947L242.1923111111111,147.53823650362085L242.2985138888889,147.0120723918153L242.39222222222222,147.68212903818693L242.6358638888889,144.48593677220697L242.71083055555556,140.15224686897415L242.8670111111111,138.27374533289947L243.0544277777778,135.36497615170737L243.09815833333334,138.59722157400358L243.46049722222222,137.73103552830202L243.52921666666666,138.4260307252571L243.74786944444443,135.00641653584586L243.86656666666667,129.49021552590818L243.9102972222222,126.6372621855588L244.19766944444444,122.24504443690805L244.522525,124.35158840918228L244.54126666666667,128.19129133286287L244.75991944444445,132.57722649978157L245.18473055555555,132.28714562658405L245.3409111111111,129.55055840549613L245.55331666666666,127.77124803093338L245.57205833333336,126.0855019251908L245.8969138888889,125.17073791066164L245.9031611111111,121.48103728427868L245.9531388888889,117.9992146184568L246.0343527777778,124.49535246985153L246.37795,140.02098390499486L246.546625,144.53047385652087L246.92145833333333,149.75072827014094L246.92770555555555,141.86059435649372L247.09013333333334,142.78727283375423L247.1651,143.43471777341023L247.25880833333332,142.68197099003257L247.38375277777777,140.68635152818138L247.43997777777776,139.53811373872844L247.4962027777778,132.97463957590446L247.68361944444445,126.96292063712778L247.98973333333333,124.99285018377861L248.33333055555556,136.43135465618906L248.53324166666667,137.86653263324968L248.67068055555555,130.50473143614627L249.12672777777777,133.2853627358239L249.6140111111111,129.4096107501557L250.07630555555556,129.1566578436082L250.38241944444445,132.34952228319833L250.60731944444444,133.0109958858116L250.9946472222222,137.4111102890084L251.31325555555554,142.2075839763624L251.4756833333333,146.7480477985724L251.49442499999998,143.5902700023504L251.9692138888889,145.0621510925498L252.10040555555554,139.95225690132781L252.15038333333334,141.77311011197165L252.23159722222223,135.2905633213639L252.24409166666666,137.35936961959305L252.281575,138.63008309101897L252.68139722222222,133.95795780743356L252.89380277777778,131.59543983855042L252.9062972222222,137.1021325631034L252.91254444444445,135.42218140712242L253.44980555555554,132.00792271328027L253.4685472222222,129.7919889613375L253.63722222222222,124.02843944208897L254.70549722222222,121.72208648447901L254.74922777777778,127.72894500944302L254.980375,128.36819227580506L255.16154444444444,125.72446859459495L255.19278055555554,127.62750650348362L255.45516388888888,139.39800584670542L255.84249166666666,139.66050780765656L255.94869444444444,143.98165799305156L255.95494166666666,143.90693894103356L256.3672583333333,140.8613111550888L256.4172361111111,135.74952756477614L256.4922027777778,133.27230427837L256.72335,133.3553007053793L256.72959722222225,131.2204454261385L256.7483388888889,134.79837903306208L257.16065555555554,140.36833246855971L257.4855111111111,145.64575640422447L257.57921944444445,140.7479426534407L257.6729277777778,133.65385713452847L257.77288333333337,134.65159601136892L257.8540972222222,130.0338799055462L258.07275,133.17548264103934L258.1914472222222,139.8939645113814L258.2351777777778,135.33845230290285L259.69078055555553,138.9237966906735L259.77199444444443,137.35528626089928" style="fill: none;" fill="none"></path></g></g></g></g><g opacity="0.2"><g><g><g><path stroke="rgb(255, 112, 67)" stroke-width="2px" d="M40.20712222222222,-9.003674543820921L40.39453888888889,39.18863175465509L40.75063055555556,54.03556427588828L40.9318,37.06113052368161L41.031755555555556,31.11581974763135L41.13171111111111,16.139462801126314L41.48155555555555,39.87217580355127L41.80016388888889,33.63010102051953L41.912613888888885,34.625114184159486L41.96883888888889,23.795370395366945L42.06879444444444,40.728220829596864L42.087536111111106,51.289766825162445L42.362413888888895,48.698681391202484L42.755988888888886,55.95945007984453L42.89342777777778,26.706592193016604L42.912169444444444,52.71853197537935L42.96214722222222,30.38747868171103L43.21203611111111,49.07427840966443L43.318238888888885,47.09287063892069L43.39945277777778,37.832613064692566L43.95545555555555,58.322995882767884L44.33028888888889,50.97406147076532L44.89878611111111,59.265973091125474L44.973752777777776,88.92278320972736L45.17366388888889,82.08247347978444L45.21114722222222,64.85071657254144L45.33609166666667,77.93698024749754L45.36732777777778,80.71556392082799L45.64845277777778,76.66761781619145L45.723419444444446,80.53478523401112L45.94207222222222,61.337088511540315L46.160725000000006,77.66545513960031L46.16697222222222,72.89541682830222L46.454344444444445,79.16563582420348L46.560547222222226,81.02360833608186L46.57304166666666,84.77105734898493L46.604277777777774,73.86426593707158L46.76045833333333,71.5790175291208L46.76670555555556,64.15858642871561L46.84167222222222,71.30035086778493L46.872908333333335,55.744862629817064L47.05407777777777,78.00831462786748L47.14778611111111,69.56667384734519L47.185269444444444,74.01079762898958L48.009902777777775,81.14564774586603L48.3535,74.49853326724126L48.659613888888885,71.34058702909029L49.328066666666665,75.15279694703908L49.77161944444445,87.16415944466222L50.04649722222222,101.44561077998233L50.21517222222222,88.02930995134206L50.23391388888889,85.32668643731336L50.59625277777777,81.1116442130162L50.983580555555555,85.40457806220421L51.20223333333333,82.74053516754735L51.41463888888889,86.33960217695969L51.5021,89.94498296884389L51.51459444444444,62.97620487213133L51.52084166666666,73.76400826527521L51.883180555555555,84.37958660492528L52.976444444444446,83.64981722831725L53.726111111111116,78.4787157682272L53.83856111111111,92.78241953482993L53.851055555555554,73.96056329287015L54.16341666666667,102.05317843877351L54.51326111111111,88.31748786339391L54.606969444444445,107.93264084595899L54.931824999999996,100.4146463871002L55.06301666666666,87.46739954214829L55.10674722222222,92.74145298737744L55.7752,105.30760057155902L55.95012222222222,102.00158071517943L56.12504444444445,69.36460034663858L56.4499,88.95397881361154L56.837227777777784,79.41894997083223L57.44945555555556,88.74398468090936L57.643119444444444,79.24289444776682L57.67435555555556,84.64004230499266L58.124155555555554,90.83847245803244L58.20536944444444,98.45940267122708L58.217863888888886,76.34225513384892L58.723888888888894,90.33280178216786L59.298633333333335,122.65811826632573L59.40483611111111,103.61951587750362L59.53602777777778,103.49723300567038L60.14825555555556,105.0171016546396L60.373155555555556,84.42519516211289L60.39814444444445,103.27933447177593L60.448122222222224,119.7972768820249L60.91041666666667,111.25815389706538L61.14781111111111,93.27867634479816L61.23527222222222,88.66606059441197L61.47266666666667,105.5199968631451L61.54763333333334,98.03626562998843L61.81001666666666,95.44388173176691L62.23482777777778,91.49414821771474L62.29105277777778,114.92410804675175L62.30979444444445,86.10581368666428L62.78458333333333,101.75844328220073L62.79707777777778,90.80174215023334L63.13442777777777,97.05459418663611L63.30935,117.32191707537724L63.96530833333333,112.27983427047728L64.52755833333333,114.19904560309189L64.62751388888888,121.3014503442324L64.714975,107.82123261231641L65.09605555555555,111.03824274356548L65.70203611111111,98.11224202009348L65.90194722222222,86.72342821267934L66.62037777777778,104.28137557323161L66.71408611111111,100.62365044080293L66.98896388888889,113.4610309784229L67.51997777777777,107.34717954122102L67.62618055555555,103.54787311187155L67.64492222222222,110.37315311798682L67.86982222222223,129.569729915032L67.91355277777778,128.7633186853849L68.13845277777777,137.6476546250857L68.26964444444444,122.99586505156296L68.65697222222222,100.74804331706119L68.78191666666667,103.26446705598096L69.47535833333333,99.60886815878061L69.53783055555556,115.65089095555817L69.96888888888888,120.8488219334529L70.05010277777778,103.46962440930879L70.08758611111111,102.16982922187216L70.16879999999999,121.18851641508249L70.52489166666668,113.78141080416165L70.66857777777777,119.13275533456068L70.69981388888888,103.2007936147543L71.06840000000001,119.26235829866849L71.21833333333333,113.56333373143121L71.81806666666667,116.9805832826174L71.968,125.43980202308067L72.30534999999999,115.27277816258942L72.48651944444444,126.45682415595421L72.82386944444445,138.34095338674692L73.0675111111111,124.58445492157568L73.08625277777777,130.91625358508185L73.16121944444444,126.05808201202979L73.35488333333333,134.76512888761667L74.00459444444445,132.66012354997486L74.05457222222222,128.9777762889862L74.14828055555556,109.15129824785085L74.7542611111111,108.21233004790085L74.91668888888888,120.24029665726881L75.05412777777778,98.3642252408541L75.62887222222223,111.40677936260516L75.67885,109.96728565142705L75.93498611111112,91.61336346773L76.31606666666667,102.55579772362341L76.50973055555555,123.48848616159879L76.90955277777778,90.11629909735458L77.084475,137.60258168440598L77.09072222222221,143.51590154721185L77.20941944444445,147.70805833889887L77.35310555555556,126.08638853293198L77.47180277777777,139.21128151966974L77.77791666666667,125.27764006761403L77.8403888888889,133.07303518515366L77.85913055555555,123.06127518873947L77.95283888888888,131.13051641904391L78.15899722222223,121.36910033226013L79.25850833333332,142.16669979462256L79.29599166666667,108.18879538315991L79.71455555555556,102.57569668843196L79.88947777777777,127.27453202467697L79.95195,98.99344479120694L80.17060277777777,116.49593149698697L80.58916666666667,119.18422321172861L80.78907777777778,108.86635026564963L81.15766388888889,113.68524329478923L81.37631666666667,109.79324274796704L81.52000277777778,99.34050805752094L81.62620555555554,164.84994528843805L82.33838888888889,139.29193238111642L82.55704166666668,130.01791108571567L82.594525,117.8068772462698L83.02558333333333,116.1537050100473L83.30046111111112,123.38632948581989L83.48163055555555,103.51245749913728L83.51286666666667,132.45775789480942L83.56909166666667,123.32242881334744L84.13134166666667,117.57683807152968L84.15008333333334,107.91266072713411L84.32500555555555,129.7238413920769L84.38747777777778,129.62290202654324L84.74981666666666,114.28738986528836L84.96846944444444,110.80344794346736L85.17462777777779,122.5659597653609L85.180875,113.60095673341017L85.55570833333334,114.74508228668799L86.3303638888889,131.2818524287297L86.34910555555555,138.88168259767386L86.69895,129.9804503917694L86.86137777777779,133.78240244205182L86.88011944444445,133.66404742460983L87.01131111111111,136.2028534412384L87.05504166666667,131.87677629177387L87.41738055555555,121.6292314162621L87.4548638888889,129.07402495237497L87.80470833333334,127.43352897350604L88.87298333333332,131.32229959047757L88.91671388888889,112.18452699367816L89.08538888888889,119.24661441949696L89.43523333333333,123.73657398957472L89.63514444444444,116.0762840784513L90.03496666666666,137.61339139938354L90.05370833333335,113.18759063573984L90.17865277777777,126.58999789678134L90.38481111111112,126.95734966718234L90.87834166666666,135.88669362434973L90.92207222222223,150.0549513376676L91.00328611111111,149.22224620672372L91.140725,116.6085408100715L91.37811944444445,131.73730499927814L91.56553611111111,130.25294934786282L91.70922222222222,130.17528495421777L91.82167222222222,133.73060994881848L92.25897777777779,127.48301669267506L92.72751944444444,116.39135643152089L93.12734166666667,138.1278916322268L93.53341111111112,118.72323593726523L94.07067222222221,118.46325093049269L94.2331,127.54766398209792L94.75786666666667,127.50560997082636L95.43256666666667,142.12170800795923L95.47629722222221,141.71642485031714L96.18223333333334,140.43091276975778L96.200975,128.5563272512876L96.33216666666667,149.22570336782016L96.70075277777778,124.38492965698242L96.763225,144.93767122121957L96.78821388888888,129.72366285324097L96.96938333333333,131.43156535808856L97.17554166666667,110.86087252543523L97.50039722222222,129.9827389350304L97.6066,118.25703857495233L97.69406111111111,138.16150562579816L97.79401666666666,124.3572236758012L97.90021944444445,125.98046631079453L98.15010833333334,127.05686072202829L98.43748055555555,126.45742469567519L98.44372777777777,111.09748517549954L98.58116666666668,108.38018901531512L98.79981944444445,130.52129321831922L98.86229166666668,107.76301272098834L98.96224722222223,106.13766008156995L99.01847222222221,124.57039904594421L99.10593333333333,135.56542110443115L99.34332777777779,126.35022024007944L99.36206944444444,116.0982281244718L99.574475,122.31686562758225L99.59946388888889,110.94511039440448L99.74315,124.64613197400018L99.78063333333333,120.9079832113706L99.79312777777778,114.38644645764276L100.04301666666666,141.92820437137897L100.0805,161.1968134733347L100.16171388888888,142.488264469L100.19295,131.53570219186633L100.59277222222222,142.84889668684738L100.71146944444443,132.1023844572214L100.76769444444444,136.25602555274963L101.04881944444445,142.2115941964663L101.19250555555554,130.16913347977857L101.205,118.94545186482941L101.21124722222223,138.4770973645724L101.57983333333334,143.02939945000867L102.57314166666667,151.68764030016385L102.90424444444444,125.4248859148759L103.02918888888888,113.80143961539633L103.22285277777777,125.26017572329594L103.27907777777779,133.73513834293072L103.38528055555555,122.34854815556452L103.49148333333332,127.85346854650058L103.68514722222223,127.34210085868835L104.00375555555556,132.07854140721835L104.14744166666667,113.04602556962232L104.23490277777778,131.48257877276495L104.69719722222221,143.57874721747177L105.40938055555556,145.9565112040593L106.00911388888888,147.03366846304672L106.04034999999999,148.4447907301096L106.26525,128.2651791022374L106.4589138888889,141.38987731933594L107.06489444444443,134.75069970350998L107.22732222222223,117.92096356245187L107.25231111111111,117.19651788931625L107.35226666666668,121.78615082227265L107.61465,121.25405639868515L108.01447222222222,118.98703518280615L108.0332138888889,127.71290979018578L108.13316944444445,126.03454734728886L108.73290277777778,122.70057804767902L109.06400555555555,148.01902429874127L109.65749166666667,144.28694585653452L110.39466388888889,128.30114656228284L110.56958611111111,138.7697225167201L110.93817222222222,133.6795478417323L111.23179166666667,117.83867338987497L111.68159166666666,136.92367964524487L111.80028888888889,124.71647627537067L112.06891944444445,114.41395766918475L112.19386388888888,135.03780638254605L112.55620277777778,113.7575677541586L112.66240555555555,115.13350163973294L112.83108055555556,122.97299584975609L112.96227222222223,130.428388100404L113.0372388888889,128.33774702365582L113.13094722222223,127.99342676309438L113.1559361111111,126.09356254797714L113.2621388888889,138.9233633004702L113.48703888888889,124.5265109539032L113.73692777777777,138.95623067709116L113.94308611111111,153.0038123680995L114.63028055555554,131.1511944624094L114.96138333333333,133.4018063361828L114.98637222222223,145.6350276836982L115.11131666666667,127.88468038118802L115.41743055555555,115.22877645492554L115.5986,126.51088896164526L115.86098333333334,124.4958509665269L116.17959166666667,110.76296832011296L116.32327777777779,134.84918821774994L116.69186388888889,124.9079510615422L116.71060555555556,114.51699080834021L117.116675,112.14214836634122L117.29784444444444,133.8947033698742L117.51025,125.09285237238957L117.72890277777779,120.51084791696988L117.87258888888888,128.5158476279332L117.97254444444444,120.81809702286353L118.42859166666668,144.87300770099347L118.54728888888889,149.03646843249982L118.68472777777778,135.00424108138452L119.197,138.07997830097491L120.07785833333332,132.1067018508911L120.490175,128.30914834829477L120.53390555555555,115.58142311756427L120.59013055555555,126.89869154416598L120.69633333333334,118.95259341826805L120.7713,125.40086432603688L120.80878333333334,127.20696319066562L121.17736944444445,121.78934829051677L121.48973055555555,118.0024421948653L121.78335,138.94011348944443L122.00825,116.5939655487354L122.15818333333333,123.4755015189831L122.176925,110.80093216896056L122.64546666666668,124.79847429348871L122.68295,115.42375709460332L122.87036666666667,162.70119793598468L122.92659166666667,159.28310438302847L122.95158055555555,139.2573932317587L122.98906388888888,150.21962906764102L123.56380833333333,137.9277982895191L123.57005555555556,127.61104526886572L123.62003333333332,140.17672215975247L123.64502222222222,134.5479769706726L123.75122499999999,136.26292364413922L124.15104722222223,139.14356660842896L124.26974444444446,127.98527889985304L124.48215,125.38151720853952L125.11311944444445,121.87142746265117L125.50669444444443,128.03072514900794L125.79406666666667,132.23068895706763L126.06894444444444,123.09845995903015L126.18764166666668,120.7249809045058L126.60620555555556,118.13871601911691L126.96854444444445,131.2601843063648L127.11223055555556,133.19476620967572L127.61825555555555,136.82584036313568L127.89938055555555,151.27907852026132L127.91187500000001,152.39088854422937L128.11178611111112,138.98633881715628L128.30544999999998,140.92867904443006L128.67403611111112,128.39487945116483L129.5673888888889,114.9168691084935L129.71732222222224,124.75786482370816L129.77354722222222,117.665474488185L129.81103055555556,132.0309202304253L130.09840277777778,142.0599173399118L130.11714444444445,111.8670849433312L130.23584166666666,138.58076350505536L131.060475,116.36744845830475L131.1479361111111,123.59674561940705L131.7851527777778,124.21840161543625L131.91634444444446,153.07680229040292L132.36614444444444,138.1259277050312L132.74722500000001,138.47936967703012L133.197025,142.31884734447186L133.33446388888888,141.0390322758601L133.44066666666666,134.76994943618774L133.72803888888888,116.63709079302274L133.94044444444444,147.95035177010755L134.3465138888889,104.71503017498897L134.68386388888888,129.44410349772528L134.84629166666667,143.42138957977295L134.87752777777777,134.00241098037134L135.32108055555554,133.42030945191016L135.54598055555556,129.98887417866632L135.85209444444445,134.09766956476065L136.23942222222223,123.80565228829016L136.24566944444445,121.39862416340753L136.458075,154.96252947587232L136.54553611111112,164.93230038422806L136.80791944444445,147.95900278825025L137.85120555555557,148.51872203900263L138.04486944444446,123.59422984490027L138.257275,131.0971945799314L138.63835555555556,141.46848309957062L138.7008277777778,145.1443218084482L138.931975,117.38521720812871L138.9819527777778,122.57996694858257L139.13813333333334,122.85076167033269L139.25058333333334,122.74397921562195L139.26307777777777,127.31080786998454L139.4067638888889,130.6235797405243L139.41301111111113,116.19351917046767L139.41925833333335,131.49741372695337L139.438,123.26576707913324L139.55669722222223,123.35161179762619L139.77535,120.13116073608398L139.9690138888889,136.18670379198514L140.10020555555556,128.11332370684698L140.21265555555556,128.32375607123743L140.27512777777778,113.72679415115942L140.83113055555557,127.55615269220792L140.91859166666666,138.39845912273114L141.0435361111111,155.95314409182623L141.0997611111111,157.83598219431363L141.14349166666668,160.4905138382545L141.1497388888889,145.80338980601383L141.33090833333335,166.75972652435303L141.39338055555558,156.21218771200913L141.51832499999998,154.9920208454132L141.94938333333334,131.72753405570984L142.25549722222223,132.35514675653897L142.46165555555555,134.01216569313635L142.69905000000003,138.46706672815176L143.39249166666667,112.31383780332712L143.54867222222222,136.00534079625055L143.5674138888889,137.31261838399445L143.62363888888888,129.38419560285715L143.79856111111113,106.1261524420518L144.0172138888889,118.59850221413832L144.09218055555556,120.95523107968842L144.33582222222222,137.97460792614862L144.49200277777777,102.43098284648013L144.59820555555555,112.08129908488347L145.02301666666668,120.88894447913536L145.16045555555556,140.4523049684671L145.33537777777778,109.34259449518643L145.67272777777777,137.17223816651563L146.50360833333335,145.30065690554105L146.50985555555556,124.29663408719574L147.10334166666667,140.4820073384505L147.38446666666667,127.68645358085632L148.14038055555554,116.10377905919L148.1841111111111,130.098902794031L148.96501388888888,138.69484982123743L149.26488055555555,117.34326058167677L149.67095,114.66659012207617L149.78964722222221,115.56624731650717L149.82088333333334,120.2696744111868L149.96456944444446,118.96669798630934L150.10200833333334,138.30875147306L150.23319999999998,163.4994450715872L150.6580111111111,140.27985268372754L150.98911388888888,148.22823935288648L151.35145277777775,142.16457355939423L151.62633055555557,137.65534802583548L151.65131944444443,137.04998775628897L151.8075,127.01191762777475L152.96323611111112,128.55100354781518L153.05694444444444,133.4015466433305L153.07568611111108,118.28195285797119L153.21312500000002,111.57306394210227L153.25060833333333,130.83112302193274L153.550475,134.4553802380195L153.64418333333333,124.35347436024591L153.93155555555555,129.8986309124873L154.01901666666666,111.66663452295155L154.0877361111111,100.15962800612814L154.1439611111111,132.42630259807294L154.43133333333333,110.9722807590778L154.5000527777778,121.51462571437541L154.5375361111111,99.52693506387563L154.90612222222222,148.35401184742267L155.07479722222223,148.6116109261146L155.21848333333335,146.43866344598624L155.65578888888888,153.7311471242171L155.7932277777778,141.92705198434683L155.9993861111111,127.91352251859811L156.10558888888892,134.1373863403614L156.14931944444444,141.6029066122495L156.39920833333335,154.03519876186664L156.48042222222222,143.3783779511085L156.51165833333332,132.12077395732587L156.54914166666666,135.20681773699246L156.56788333333333,129.11271918736972L157.04267222222222,122.49639454254736L157.04891944444446,145.89186391463647L157.0614138888889,134.95376328321603L157.32379722222223,127.74928302031296L157.3425388888889,133.89976738049432L157.53620277777776,131.00031291521512L157.7048777777778,118.17181062698364L157.72361944444444,130.68928203215967L157.75485555555554,134.43080680186932L158.1047,131.5980609380282L158.19840833333333,131.38936526958759L158.25463333333332,104.21831890252919L158.26712777777777,106.10287747016318L158.5732416666667,114.82597661018372L158.92933333333335,116.34089486415569L159.21045833333335,133.03752218759976L159.46659444444444,152.9659459040715L159.54780833333334,161.68389987945557L159.55405555555558,145.841808117353L159.69149444444446,145.02547986690814L159.72273055555556,146.3645049058474L159.79145,145.83893526517429L160.48489166666667,143.9977291730734L160.61608333333334,138.15105298849252L161.04089444444446,152.95055910257193L161.04714166666665,136.47778701782227L161.06588333333332,134.1406325010153L161.07213055555556,140.51502079230087L161.3719972222222,131.3460939480708L161.52193055555557,129.6178055543166L161.7280888888889,130.08087037159845L161.88426944444447,120.86432235057536L162.3465638888889,122.6754365334144L162.59645277777778,121.18035232103787L162.64643055555555,116.77846108950101L162.8463416666667,111.73681651628934L162.92755555555556,133.92559058849628L163.3273777777778,108.48864324276263L163.7334472222222,132.65126153138965L163.87713333333332,161.20531841424796L164.40189999999998,159.3702962581928L164.42064166666665,137.6869493998014L164.45187777777778,130.41816269434415L164.87044166666666,146.8302802672753L164.98289166666666,141.93031437580402L165.45143333333334,138.4837519939129L165.695075,130.37073628719037L165.70132222222222,138.1879131427178L166.68213611111113,123.46637980754558L166.94451944444444,135.12266102203955L166.95076666666665,140.28470569390515L167.3568361111111,143.39704337486853L167.39431944444445,140.25641540380624L167.5192638888889,125.15277649806096L167.5567472222222,128.7515513530144L167.68793888888888,124.98904015467717L167.72542222222225,129.01156882139352L168.10025555555555,136.40163208888129L168.46884166666666,161.02449103502127L168.6687527777778,158.15873171732977L168.71248333333332,159.67926582923303L170.0493888888889,125.84359194682195L170.20556944444445,132.16802182564368L170.28678333333335,149.72329110365646L170.45545833333333,133.7806495152987L170.49918888888888,129.47398440654462L170.56790833333335,121.24090944803677L170.59914444444445,127.2225609926077L170.64912222222222,121.88392518116876L170.73658333333333,119.25362612650945L170.91150555555555,124.36473853771503L171.3425638888889,126.89823708167442L171.36130555555553,124.68331674429086L171.6236888888889,135.19923795186554L171.84234166666664,132.87760008298432L172.0734888888889,125.82525113912729L172.64198611111112,122.36489257445702L172.7419416666667,128.77834840921253L173.41039444444445,151.44386986585764L173.454125,144.74353458331183L173.52909166666666,157.24347672095666L173.84769999999997,141.246721634498L173.91641944444444,136.32961601477402L173.9226666666667,136.4720575442681L174.48491666666666,132.5129263951228L174.50365833333333,133.3718605041504L175.422,118.53961685987619L175.4469888888889,127.74259592936589L175.4532361111111,119.9746795617617L175.55943888888888,131.12264447945813L175.6531472222222,140.52764835724463L175.71561944444443,147.75915290759158L175.7843388888889,123.01524463066687L175.815575,111.09690086658183L175.84681111111112,127.79682304308965L175.8718,120.67758695895854L175.90928333333335,126.61637295209445L176.05921666666666,136.3692029439486L176.12168888888888,111.17015048173756L176.28411666666668,130.65446695914636L176.56524166666668,142.3190258833078L176.70892777777777,129.6122546195984L177.02753611111112,116.73561176886923L177.17746944444445,119.7843571626223L177.29616666666666,128.72738368694598L177.38362777777778,130.67899170288672L177.58978611111112,151.71706674649164L178.29572222222222,147.84201115828293L178.6018361111111,136.92877611747156L179.1078611111111,139.69348245400647L179.17658055555555,122.70595044356125L179.301525,137.27695930921112L179.67635833333333,138.0792316840245L179.75757222222222,124.33540947620685L179.98871944444443,137.5995789858011L180.11366388888888,125.52152411754314L180.18238333333335,129.61975325070895L180.71964444444444,129.22279649514417L180.78211666666667,114.6807758441338L181.662975,139.16593265533447L181.89412222222225,129.8345192395724L181.90661666666668,129.01817475832425L182.08778611111111,127.09310410572931L182.33142777777778,149.45059737792383L182.63129444444445,131.88985831920917L182.93116111111112,135.3405757867373L182.94365555555555,150.00349969130295L182.99363333333335,143.98979231027457L183.18105,140.38906975892874L183.3247361111111,130.9470109572777L183.41219722222223,153.90867965038007L183.7682888888889,145.9216474386362L184.3680222222222,133.41118774047266L184.6491472222222,125.35520707643948L184.67413611111112,130.19448599448572L185.04896944444442,129.88058225925153L185.33634166666667,130.66530913573044L185.52375833333335,141.33667274621817L185.66119722222223,118.88325542670029L185.711175,121.63971651517426L186.4733361111111,125.4405324092278L186.6607527777778,112.55428092296306L186.79819166666667,164.2410953961886L187.00435000000002,150.13561842991754L187.18551944444445,151.81730818748474L187.46664444444446,153.68487310409546L187.71028611111112,128.42159535334662L188.24754722222224,125.07642679948073L188.70359444444443,132.59127248250522L188.85977499999998,116.90634358846222L188.94098888888888,138.47216320037842L188.9972138888889,113.35702399107126L189.49074444444443,114.61879040644719L189.85933055555557,137.62053295282217L190.5715138888889,121.14415762974664L190.6652222222222,127.52757024765015L190.99007777777777,147.86385781948383L191.15875277777778,139.17529782882104L191.54608055555556,146.61270634944623L191.7022611111111,140.0199650617746L192.25826388888888,148.3318892625662L192.48941111111114,137.68909186583298L192.7080638888889,126.74070090513962L192.9142222222222,141.3846510006831L193.17035833333335,125.85667397425725L193.84505833333333,119.86302786607008L193.9450138888889,119.04645615357619L194.07620555555553,130.35995903381934L194.13243055555557,136.86211620844327L194.2323861111111,137.86996793746948L194.6259611111111,123.86419679568364L194.63220833333335,113.48807149667006L194.71966944444443,114.19401405407831L195.4068638888889,133.700599193573L195.48807777777776,149.14860705228952L195.55679722222223,107.24685694621158L196.18151944444446,153.59526283924396L196.60008333333334,140.988035091987L196.86246666666668,135.39254681880658L197.84952777777775,144.98108861996576L198.37429444444444,125.93041051351108L198.3867888888889,139.2186665351574L198.63667777777778,120.82757581197296L198.642925,122.80426041896526L198.64917222222223,131.96534778521612L198.7491277777778,134.04613676437964L198.83034166666667,116.90446081528296L198.8428361111111,142.8565251643841L199.46131111111112,124.95084907458379L200.39839444444442,110.66621650182283L200.7982166666667,152.41064143180847L200.8357,166.11802548628586L200.87318333333334,149.41057221706097L200.89817222222223,139.5037281329815L200.90441944444444,147.1781388429495L201.37296111111112,143.2336154167469L201.62285,145.52894315352808L201.9664472222222,136.19050179995023L202.64739444444444,145.02215255223788L202.71611388888888,121.45444189585172L202.76609166666665,141.34025975374075L203.06595833333336,133.37734651565552L203.21589166666666,140.08556996859036L203.46578055555557,127.37907462853651L203.48452222222224,131.151291847229L203.6781861111111,130.3573621052962L203.74065833333333,125.03310678555414L203.78438888888888,126.98271841269272L203.89683888888888,124.20484889470612L204.25293055555554,133.21662910167987L204.377875,133.026761165032L204.39661666666666,108.84476329730107L204.52780833333335,135.95733008017908L205.06506944444445,153.5977461521442L205.63356666666667,146.67667194513174L205.64606111111112,151.04645864780133L205.84597222222223,151.0913855112516L205.9584222222222,146.0595768048213L207.7263861111111,118.64076722585236L207.88881388888888,132.9033421369699L208.1636916666667,123.47811467830951L208.50728888888887,130.68939564778253L208.89461666666665,135.14723445818976L208.97583055555555,109.79697583271907L209.55057499999998,126.67629707776584L209.73174444444444,149.76240733953622L209.9753861111111,150.04204784906827L210.38145555555556,137.25467441632196L211.72460833333332,126.96098536711472L212.21813888888892,133.57198630846463L212.38056666666665,129.6666115797483L212.51800555555556,118.32762633837186L212.6367027777778,117.37552741857675L212.76164722222222,109.30080017676718L212.79288333333335,135.05770534735458L212.8928388888889,140.14203693316534L212.96780555555554,136.87404584884644L213.0677611111111,146.5116371374864L213.23643611111112,129.45512421314533L213.66124722222224,121.33650887929474L213.9673611111111,124.2583780838893L214.048575,107.06289702195386L214.0985527777778,117.79931369194617L214.69203888888887,155.0609043744894L215.14183888888888,131.9163794517517L215.34799722222223,121.71376143969022L215.39172777777776,150.4853760095743L215.4479527777778,138.68378041340753L215.7603138888889,136.54397623355572L215.77905555555554,131.54115574176495L215.91024722222224,136.10206015293414L215.9852138888889,120.58002360050494L216.1039111111111,117.73090085616477L216.22260833333334,140.83949078046356L217.07223055555556,130.16705593696008L217.57825555555553,116.55512523651123L217.58450277777777,108.91804537406333L217.79690833333333,142.8513475381411L217.91560555555557,136.3337386388045L218.20297777777776,135.41910041295563L218.65277777777777,119.13527110906747L218.68401388888887,121.05636521486134L218.84644166666666,154.8855954683744L219.13381388888888,160.0572650065789L219.2275222222222,159.0113195822789L219.5086472222222,137.6760423000042L219.73979444444444,136.11845326423645L220.008425,134.9115469639118L220.13336944444444,136.8628465945904L220.17085277777778,131.03634529847363L220.25206666666665,143.31379558489874L220.42698888888887,142.630219074396L220.69561944444445,128.9074969108288L220.94550833333335,115.02438194935138L221.36407222222223,125.16989999551039L221.52025277777778,133.0796898144942L221.56398333333334,141.62340611677902L221.58897222222222,129.38979522998517L222.20744722222224,118.21574741143446L222.22618888888888,139.96760449042688L222.47607777777776,130.72617464799146L222.67598888888887,111.63490330255948L223.06331666666665,137.54577387296234L223.1507777777778,145.20129192792453L223.25698055555554,125.04638358262868L223.2632277777778,119.05642186678372L223.52561111111112,158.3125672707191L224.1440861111111,137.65680879812973L224.31276111111112,144.83846855163574L225.22485555555554,133.54863018255966L225.55595833333334,131.29464230170618L226.23065833333334,108.20155279452983L226.29937777777778,112.30921202439526L227.06778611111113,130.12595954308142L227.43637222222222,123.78369201146637L227.66751944444445,118.13762855529785L227.79871111111112,119.17042702894943L228.02985833333335,163.02669046475336L228.2547583333333,141.27564492592444L228.26100555555556,156.5133989590865L228.4171861111111,134.05428462762097L228.8045138888889,134.35203871360193L228.8419972222222,140.13984577472394L228.93570555555556,139.85010970555817L229.24806666666666,124.44305216349088L229.41049444444445,136.83939308386582L229.51669722222223,141.64944032522348L229.66038333333333,145.60295561643747L229.94775555555555,135.84386053452124L230.353825,146.820931324592L230.39755555555556,127.629061460495L230.44753333333333,142.1313166434948L230.7474,119.64040616842416L230.80362499999998,132.2735382776994L231.1722111111111,124.58604554029611L231.253425,132.4305388377263L232.15927222222223,119.50664811867934L232.23423888888888,121.01022104116586L232.44039722222223,111.98018118051381L232.45289166666666,151.50692653656006L232.70278055555556,163.35401707429153L233.10885000000002,153.68471079606275L233.57114444444446,147.1894517128284L233.8647638888889,146.86618280410767L234.0896638888889,145.00856736990121L234.27083333333334,145.00808044580313L234.45200277777778,144.08881644102243L234.53321666666668,131.50731451694782L234.55195833333335,133.82732930550208L234.964275,148.14752356822675L234.98301666666666,144.19897490281323L235.25164722222223,113.24993315109839L235.4952888888889,118.2297708254594L235.55776111111112,133.5553010427035L235.5765027777778,128.03083876463083L235.90760555555556,126.97989425292381L236.61354166666666,128.75601482391357L236.7322388888889,137.3956876351283L236.77596944444446,123.803233898603L236.78221666666667,131.3254321355086L236.8259472222222,124.19225379136891L237.23201666666665,151.84780586682834L237.40693888888887,139.31024072720453L237.48190555555556,147.34231341802158L237.56311944444445,150.51788630852332L237.60684999999998,143.71941958940945L238.112875,133.7465161360227L238.31903333333332,142.26208822543805L238.34402222222224,138.59928285158597L238.51269722222222,137.49962969926688L238.52519166666667,149.32865535295926L238.94375555555555,147.5067801475525L239.08744166666668,134.6139876475701L239.52474722222223,112.66413099949176L239.58721944444446,139.8976821899414L239.6934222222222,118.65886457149799L239.73715277777777,145.5322866990016L239.75589444444444,128.3865692798908L239.84335555555555,138.58683382547818L239.91207500000002,131.93379510366L240.7616972222222,139.75160496051495L240.99284444444444,120.03130883436936L241.33644166666667,115.94431141706613L241.3801722222222,113.43879477794353L241.78624166666665,157.53879618644714L241.9424222222222,142.56545816935025L241.99864722222225,142.47691913751456L242.0736138888889,149.399437886018L242.1923111111111,153.39815596433786L242.2985138888889,146.222826224107L242.39222222222222,148.68721400774442L242.6358638888889,139.691648373237L242.71083055555556,133.65171201412494L242.8670111111111,135.45599302878747L243.0544277777778,131.0018223799192L243.09815833333334,143.44558970744794L243.46049722222222,136.43175645974966L243.52921666666666,139.46852352068976L243.74786944444443,129.87699525172894L243.86656666666667,121.21591401100159L243.9102972222222,122.35783217503473L244.19766944444444,115.65671781393198L244.522525,127.51140436759361L244.54126666666667,133.9508457183838L244.75991944444445,139.1561292501596L245.18473055555555,131.85202431678772L245.3409111111111,125.44567757386427L245.55331666666666,125.1022824690892L245.57205833333336,123.5568827665769L245.8969138888889,123.79859188886789L245.9031611111111,115.94648634470425L245.9531388888889,112.77648061972397L246.0343527777778,134.23955924694354L246.37795,163.3094310577099L246.546625,151.29470878380994L246.92145833333333,157.581109890571L246.92770555555555,130.02539348602295L247.09013333333334,144.17729054964505L247.1651,144.4058851828942L247.25880833333332,141.55285081496606L247.38375277777777,137.6929223354046L247.43997777777776,137.815757054549L247.4962027777778,123.12942833166855L247.68361944444445,117.94534222896282L247.98973333333333,122.03774450375482L248.33333055555556,153.58911136480478L248.53324166666667,140.01929959884058L248.67068055555555,119.46202964049118L249.12672777777777,137.45630968534027L249.6140111111111,123.59598277165338L250.07630555555556,128.77722848378696L250.38241944444445,137.13881894258353L250.60731944444444,134.00320628973154L250.9946472222222,144.01128189380353L251.31325555555554,149.40229450739346L251.4756833333333,153.55874353188733L251.49442499999998,138.85360330801743L251.9692138888889,147.26997272784894L252.10040555555554,132.2874156144949L252.15038333333334,144.50438992793744L252.23159722222223,125.56674313545227L252.24409166666666,140.46257906693677L252.281575,140.5361532981579L252.68139722222222,126.94976988205542L252.89380277777778,128.0516628852257L252.9062972222222,145.36217164993286L252.91254444444445,132.90225467315088L253.44980555555554,126.88653467251703L253.4685472222222,126.46808833342331L253.63722222222222,115.38311516321622L254.70549722222222,118.26255704806401L254.74922777777778,136.7392327968891L254.980375,129.32706317534814L255.16154444444444,121.75888307277972L255.19278055555554,130.4820633668166L255.45516388888888,157.0537548615382L255.84249166666666,140.0542607490833L255.94869444444444,150.46338327114398L255.95494166666666,143.7948603630066L256.3672583333333,136.29286947617163L256.4172361111111,128.0818521793072L256.4922027777778,129.55646934876074L256.72335,133.47979534589325L256.72959722222225,128.01816250727728L256.7483388888889,140.1652794434474L257.16065555555554,148.7232626218062L257.4855111111111,153.56189230772165L257.57921944444445,133.4012220272651L257.6729277777778,123.01272885616008L257.77288333333337,136.14820432662964L257.8540972222222,123.10730574681207L258.07275,137.88788674427911L258.1914472222222,149.97168731689453L258.2351777777778,128.50518399018506L259.69078055555553,144.30181327232947L259.77199444444443,135.00252061623792" style="fill: none;" fill="none"></path></g></g></g></g></g></g><g transform="translate(48, 177)" clip-path="url(#clip_1)"><clipPath id="clip_1"><rect width="281" height="23"></rect></clipPath><g><g><line x1="0" y1="0" x2="0" y2="5" style="visibility: inherit;" fill="rgb(0, 0, 0)" stroke="rgb(204, 204, 204)" stroke-width="1px"></line><line x1="31.23611111111111" y1="0" x2="31.23611111111111" y2="5" style="visibility: inherit;" fill="rgb(0, 0, 0)" stroke="rgb(204, 204, 204)" stroke-width="1px"></line><line x1="62.47222222222222" y1="0" x2="62.47222222222222" y2="5" style="visibility: inherit;" fill="rgb(0, 0, 0)" stroke="rgb(204, 204, 204)" stroke-width="1px"></line><line x1="93.70833333333333" y1="0" x2="93.70833333333333" y2="5" style="visibility: inherit;" fill="rgb(0, 0, 0)" stroke="rgb(204, 204, 204)" stroke-width="1px"></line><line x1="124.94444444444444" y1="0" x2="124.94444444444444" y2="5" style="visibility: inherit;" fill="rgb(0, 0, 0)" stroke="rgb(204, 204, 204)" stroke-width="1px"></line><line x1="156.18055555555557" y1="0" x2="156.18055555555557" y2="5" style="visibility: inherit;" fill="rgb(0, 0, 0)" stroke="rgb(204, 204, 204)" stroke-width="1px"></line><line x1="187.41666666666666" y1="0" x2="187.41666666666666" y2="5" style="visibility: inherit;" fill="rgb(0, 0, 0)" stroke="rgb(204, 204, 204)" stroke-width="1px"></line><line x1="218.65277777777777" y1="0" x2="218.65277777777777" y2="5" style="visibility: inherit;" fill="rgb(0, 0, 0)" stroke="rgb(204, 204, 204)" stroke-width="1px"></line><line x1="249.88888888888889" y1="0" x2="249.88888888888889" y2="5" style="visibility: inherit;" fill="rgb(0, 0, 0)" stroke="rgb(204, 204, 204)" stroke-width="1px"></line><line x1="281.125" y1="0" x2="281.125" y2="5" style="visibility: inherit;" fill="rgb(0, 0, 0)" stroke="rgb(204, 204, 204)" stroke-width="1px"></line></g><g transform="translate(0, 8)"><text x="0" y="0" dx="0em" dy="0.95em" style="text-anchor: middle; visibility: hidden; font-family: &quot;Helvetica Neue&quot;, sans-serif; font-size: 12px; font-weight: 200;" fill="rgb(50, 49, 63)" stroke="none" stroke-width="1px">-5k</text><text x="31.23611111111111" y="0" dx="0em" dy="0.95em" style="text-anchor: middle; visibility: inherit; font-family: &quot;Helvetica Neue&quot;, sans-serif; font-size: 12px; font-weight: 200;" fill="rgb(50, 49, 63)" stroke="none" stroke-width="1px">0</text><text x="62.47222222222222" y="0" dx="0em" dy="0.95em" style="text-anchor: middle; visibility: inherit; font-family: &quot;Helvetica Neue&quot;, sans-serif; font-size: 12px; font-weight: 200;" fill="rgb(50, 49, 63)" stroke="none" stroke-width="1px">5k</text><text x="93.70833333333333" y="0" dx="0em" dy="0.95em" style="text-anchor: middle; visibility: inherit; font-family: &quot;Helvetica Neue&quot;, sans-serif; font-size: 12px; font-weight: 200;" fill="rgb(50, 49, 63)" stroke="none" stroke-width="1px">10k</text><text x="124.94444444444444" y="0" dx="0em" dy="0.95em" style="text-anchor: middle; visibility: inherit; font-family: &quot;Helvetica Neue&quot;, sans-serif; font-size: 12px; font-weight: 200;" fill="rgb(50, 49, 63)" stroke="none" stroke-width="1px">15k</text><text x="156.18055555555557" y="0" dx="0em" dy="0.95em" style="text-anchor: middle; visibility: inherit; font-family: &quot;Helvetica Neue&quot;, sans-serif; font-size: 12px; font-weight: 200;" fill="rgb(50, 49, 63)" stroke="none" stroke-width="1px">20k</text><text x="187.41666666666666" y="0" dx="0em" dy="0.95em" style="text-anchor: middle; visibility: inherit; font-family: &quot;Helvetica Neue&quot;, sans-serif; font-size: 12px; font-weight: 200;" fill="rgb(50, 49, 63)" stroke="none" stroke-width="1px">25k</text><text x="218.65277777777777" y="0" dx="0em" dy="0.95em" style="text-anchor: middle; visibility: inherit; font-family: &quot;Helvetica Neue&quot;, sans-serif; font-size: 12px; font-weight: 200;" fill="rgb(50, 49, 63)" stroke="none" stroke-width="1px">30k</text><text x="249.88888888888889" y="0" dx="0em" dy="0.95em" style="text-anchor: middle; visibility: inherit; font-family: &quot;Helvetica Neue&quot;, sans-serif; font-size: 12px; font-weight: 200;" fill="rgb(50, 49, 63)" stroke="none" stroke-width="1px">35k</text><text x="281.125" y="0" dx="0em" dy="0.95em" style="text-anchor: middle; visibility: hidden; font-family: &quot;Helvetica Neue&quot;, sans-serif; font-size: 12px; font-weight: 200;" fill="rgb(50, 49, 63)" stroke="none" stroke-width="1px">40k</text></g><line x1="0" y1="0" x2="281.125" y2="0" fill="rgb(0, 0, 0)" stroke="rgb(204, 204, 204)" stroke-width="1px"></line></g></g></g></g></svg>