<svg viewBox="0 0 888 400" xmlns="http://www.w3.org/2000/svg"><g><g><g><g><g><line x1="48.875" y1="377" x2="43.875" y2="377" style="visibility: inherit;" fill="rgb(0, 0, 0)" stroke="rgb(204, 204, 204)" stroke-width="1px"></line><line x1="48.875" y1="348" x2="43.875" y2="348" style="visibility: inherit;" fill="rgb(0, 0, 0)" stroke="rgb(204, 204, 204)" stroke-width="1px"></line><line x1="48.875" y1="319" x2="43.875" y2="319" style="visibility: inherit;" fill="rgb(0, 0, 0)" stroke="rgb(204, 204, 204)" stroke-width="1px"></line><line x1="48.875" y1="290" x2="43.875" y2="290" style="visibility: inherit;" fill="rgb(0, 0, 0)" stroke="rgb(204, 204, 204)" stroke-width="1px"></line><line x1="48.875" y1="261" x2="43.875" y2="261" style="visibility: inherit;" fill="rgb(0, 0, 0)" stroke="rgb(204, 204, 204)" stroke-width="1px"></line><line x1="48.875" y1="231.99999999999997" x2="43.875" y2="231.99999999999997" style="visibility: inherit;" fill="rgb(0, 0, 0)" stroke="rgb(204, 204, 204)" stroke-width="1px"></line><line x1="48.875" y1="202.99999999999994" x2="43.875" y2="202.99999999999994" style="visibility: inherit;" fill="rgb(0, 0, 0)" stroke="rgb(204, 204, 204)" stroke-width="1px"></line><line x1="48.875" y1="173.99999999999997" x2="43.875" y2="173.99999999999997" style="visibility: inherit;" fill="rgb(0, 0, 0)" stroke="rgb(204, 204, 204)" stroke-width="1px"></line><line x1="48.875" y1="144.99999999999994" x2="43.875" y2="144.99999999999994" style="visibility: inherit;" fill="rgb(0, 0, 0)" stroke="rgb(204, 204, 204)" stroke-width="1px"></line><line x1="48.875" y1="116" x2="43.875" y2="116" style="visibility: inherit;" fill="rgb(0, 0, 0)" stroke="rgb(204, 204, 204)" stroke-width="1px"></line><line x1="48.875" y1="86.99999999999994" x2="43.875" y2="86.99999999999994" style="visibility: inherit;" fill="rgb(0, 0, 0)" stroke="rgb(204, 204, 204)" stroke-width="1px"></line><line x1="48.875" y1="57.99999999999994" x2="43.875" y2="57.99999999999994" style="visibility: inherit;" fill="rgb(0, 0, 0)" stroke="rgb(204, 204, 204)" stroke-width="1px"></line><line x1="48.875" y1="28.999999999999886" x2="43.875" y2="28.999999999999886" style="visibility: inherit;" fill="rgb(0, 0, 0)" stroke="rgb(204, 204, 204)" stroke-width="1px"></line><line x1="48.875" y1="0" x2="43.875" y2="0" style="visibility: inherit;" fill="rgb(0, 0, 0)" stroke="rgb(204, 204, 204)" stroke-width="1px"></line></g><g transform="translate(38.875, 0)"><text x="0" y="377" dx="0em" dy="0.3em" style="text-anchor: end; visibility: hidden; font-family: &quot;Helvetica Neue&quot;, sans-serif; font-size: 12px; font-weight: 200;" fill="rgb(50, 49, 63)" stroke="none" stroke-width="1px">0.5</text><text x="0" y="348" dx="0em" dy="0.3em" style="text-anchor: end; visibility: inherit; font-family: &quot;Helvetica Neue&quot;, sans-serif; font-size: 12px; font-weight: 200;" fill="rgb(50, 49, 63)" stroke="none" stroke-width="1px">0.55</text><text x="0" y="319" dx="0em" dy="0.3em" style="text-anchor: end; visibility: inherit; font-family: &quot;Helvetica Neue&quot;, sans-serif; font-size: 12px; font-weight: 200;" fill="rgb(50, 49, 63)" stroke="none" stroke-width="1px">0.6</text><text x="0" y="290" dx="0em" dy="0.3em" style="text-anchor: end; visibility: inherit; font-family: &quot;Helvetica Neue&quot;, sans-serif; font-size: 12px; font-weight: 200;" fill="rgb(50, 49, 63)" stroke="none" stroke-width="1px">0.65</text><text x="0" y="261" dx="0em" dy="0.3em" style="text-anchor: end; visibility: inherit; font-family: &quot;Helvetica Neue&quot;, sans-serif; font-size: 12px; font-weight: 200;" fill="rgb(50, 49, 63)" stroke="none" stroke-width="1px">0.7</text><text x="0" y="231.99999999999997" dx="0em" dy="0.3em" style="text-anchor: end; visibility: inherit; font-family: &quot;Helvetica Neue&quot;, sans-serif; font-size: 12px; font-weight: 200;" fill="rgb(50, 49, 63)" stroke="none" stroke-width="1px">0.75</text><text x="0" y="202.99999999999994" dx="0em" dy="0.3em" style="text-anchor: end; visibility: inherit; font-family: &quot;Helvetica Neue&quot;, sans-serif; font-size: 12px; font-weight: 200;" fill="rgb(50, 49, 63)" stroke="none" stroke-width="1px">0.8</text><text x="0" y="173.99999999999997" dx="0em" dy="0.3em" style="text-anchor: end; visibility: inherit; font-family: &quot;Helvetica Neue&quot;, sans-serif; font-size: 12px; font-weight: 200;" fill="rgb(50, 49, 63)" stroke="none" stroke-width="1px">0.85</text><text x="0" y="144.99999999999994" dx="0em" dy="0.3em" style="text-anchor: end; visibility: inherit; font-family: &quot;Helvetica Neue&quot;, sans-serif; font-size: 12px; font-weight: 200;" fill="rgb(50, 49, 63)" stroke="none" stroke-width="1px">0.9</text><text x="0" y="116" dx="0em" dy="0.3em" style="text-anchor: end; visibility: inherit; font-family: &quot;Helvetica Neue&quot;, sans-serif; font-size: 12px; font-weight: 200;" fill="rgb(50, 49, 63)" stroke="none" stroke-width="1px">0.95</text><text x="0" y="86.99999999999994" dx="0em" dy="0.3em" style="text-anchor: end; visibility: inherit; font-family: &quot;Helvetica Neue&quot;, sans-serif; font-size: 12px; font-weight: 200;" fill="rgb(50, 49, 63)" stroke="none" stroke-width="1px">1</text><text x="0" y="57.99999999999994" dx="0em" dy="0.3em" style="text-anchor: end; visibility: inherit; font-family: &quot;Helvetica Neue&quot;, sans-serif; font-size: 12px; font-weight: 200;" fill="rgb(50, 49, 63)" stroke="none" stroke-width="1px">1.05</text><text x="0" y="28.999999999999886" dx="0em" dy="0.3em" style="text-anchor: end; visibility: inherit; font-family: &quot;Helvetica Neue&quot;, sans-serif; font-size: 12px; font-weight: 200;" fill="rgb(50, 49, 63)" stroke="none" stroke-width="1px">1.1</text><text x="0" y="0" dx="0em" dy="0.3em" style="text-anchor: end; visibility: hidden; font-family: &quot;Helvetica Neue&quot;, sans-serif; font-size: 12px; font-weight: 200;" fill="rgb(50, 49, 63)" stroke="none" stroke-width="1px">1.15</text></g><line x1="48.875" y1="0" x2="48.875" y2="377" fill="rgb(0, 0, 0)" stroke="rgb(204, 204, 204)" stroke-width="1px"></line></g></g><g transform="translate(48, 0)" clip-path="url(#clip_0)"><clipPath id="clip_0"><rect width="839" height="377"></rect></clipPath><g><g><g><line x1="0" y1="0" x2="0" y2="377" fill="rgb(0, 0, 0)" stroke="rgb(60, 60, 60)" stroke-width="1px" opacity="0.25"></line><line x1="93.2361111111111" y1="0" x2="93.2361111111111" y2="377" fill="rgb(0, 0, 0)" stroke="rgb(60, 60, 60)" stroke-width="1px" opacity="0.25"></line><line x1="186.4722222222222" y1="0" x2="186.4722222222222" y2="377" fill="rgb(0, 0, 0)" stroke="rgb(60, 60, 60)" stroke-width="1px" opacity="0.25"></line><line x1="279.7083333333333" y1="0" x2="279.7083333333333" y2="377" fill="rgb(0, 0, 0)" stroke="rgb(60, 60, 60)" stroke-width="1px" opacity="0.25"></line><line x1="372.9444444444444" y1="0" x2="372.9444444444444" y2="377" fill="rgb(0, 0, 0)" stroke="rgb(60, 60, 60)" stroke-width="1px" opacity="0.25"></line><line x1="466.1805555555556" y1="0" x2="466.1805555555556" y2="377" fill="rgb(0, 0, 0)" stroke="rgb(60, 60, 60)" stroke-width="1px" opacity="0.25"></line><line x1="559.4166666666666" y1="0" x2="559.4166666666666" y2="377" fill="rgb(0, 0, 0)" stroke="rgb(60, 60, 60)" stroke-width="1px" opacity="0.25"></line><line x1="652.6527777777778" y1="0" x2="652.6527777777778" y2="377" fill="rgb(0, 0, 0)" stroke="rgb(60, 60, 60)" stroke-width="1px" opacity="0.25"></line><line x1="745.8888888888888" y1="0" x2="745.8888888888888" y2="377" fill="rgb(0, 0, 0)" stroke="rgb(60, 60, 60)" stroke-width="1px" opacity="0.25"></line><line x1="839.125" y1="0" x2="839.125" y2="377" fill="rgb(0, 0, 0)" stroke="rgb(60, 60, 60)" stroke-width="1px" opacity="0.25"></line></g><g><line x1="0" y1="377" x2="839.125" y2="377" fill="rgb(0, 0, 0)" stroke="rgb(60, 60, 60)" stroke-width="1px" opacity="0.25"></line><line x1="0" y1="348" x2="839.125" y2="348" fill="rgb(0, 0, 0)" stroke="rgb(60, 60, 60)" stroke-width="1px" opacity="0.25"></line><line x1="0" y1="319" x2="839.125" y2="319" fill="rgb(0, 0, 0)" stroke="rgb(60, 60, 60)" stroke-width="1px" opacity="0.25"></line><line x1="0" y1="290" x2="839.125" y2="290" fill="rgb(0, 0, 0)" stroke="rgb(60, 60, 60)" stroke-width="1px" opacity="0.25"></line><line x1="0" y1="261" x2="839.125" y2="261" fill="rgb(0, 0, 0)" stroke="rgb(60, 60, 60)" stroke-width="1px" opacity="0.25"></line><line x1="0" y1="231.99999999999997" x2="839.125" y2="231.99999999999997" fill="rgb(0, 0, 0)" stroke="rgb(60, 60, 60)" stroke-width="1px" opacity="0.25"></line><line x1="0" y1="202.99999999999994" x2="839.125" y2="202.99999999999994" fill="rgb(0, 0, 0)" stroke="rgb(60, 60, 60)" stroke-width="1px" opacity="0.25"></line><line x1="0" y1="173.99999999999997" x2="839.125" y2="173.99999999999997" fill="rgb(0, 0, 0)" stroke="rgb(60, 60, 60)" stroke-width="1px" opacity="0.25"></line><line x1="0" y1="144.99999999999994" x2="839.125" y2="144.99999999999994" fill="rgb(0, 0, 0)" stroke="rgb(60, 60, 60)" stroke-width="1px" opacity="0.25"></line><line x1="0" y1="116" x2="839.125" y2="116" fill="rgb(0, 0, 0)" stroke="rgb(60, 60, 60)" stroke-width="1px" opacity="0.25"></line><line x1="0" y1="86.99999999999994" x2="839.125" y2="86.99999999999994" fill="rgb(0, 0, 0)" stroke="rgb(60, 60, 60)" stroke-width="1px" opacity="0.25"></line><line x1="0" y1="57.99999999999994" x2="839.125" y2="57.99999999999994" fill="rgb(0, 0, 0)" stroke="rgb(60, 60, 60)" stroke-width="1px" opacity="0.25"></line><line x1="0" y1="28.999999999999886" x2="839.125" y2="28.999999999999886" fill="rgb(0, 0, 0)" stroke="rgb(60, 60, 60)" stroke-width="1px" opacity="0.25"></line><line x1="0" y1="0" x2="839.125" y2="0" fill="rgb(0, 0, 0)" stroke="rgb(60, 60, 60)" stroke-width="1px" opacity="0.25"></line></g></g></g><g><g><line x1="0" y1="667" x2="839.125" y2="667" fill="rgb(0, 0, 0)" stroke="rgb(153, 153, 153)" stroke-width="1.5px"></line></g></g><g><g><line x1="93.2361111111111" y1="0" x2="93.2361111111111" y2="377" fill="rgb(0, 0, 0)" stroke="rgb(153, 153, 153)" stroke-width="1.5px"></line></g></g><g><g><g><g><g><path stroke="rgb(255, 112, 67)" stroke-width="2px" d="M120.01352222222222,-37.32560521333198L120.5729388888889,3.4210686875315446L121.63583055555556,22.246301759824973L122.17660000000001,51.63394515074532L122.47495555555555,66.5100991275944L122.77331111111111,32.13858320320196L123.81755555555556,42.93625832813336L124.76856388888889,63.161650951175545L125.10421388888888,68.9649043890928L125.27203888888889,85.6105193623248L125.57039444444445,84.38276803066185L125.6263361111111,85.3355455611349L126.4468138888889,85.87872582758706L127.62158888888888,109.05672005466641L128.03182777777778,100.01645791322994L128.08776944444443,103.50215027207776L128.23694722222223,86.69776366635796L128.9828361111111,92.63538488438536L129.2998388888889,95.19573936874167L129.54225277777778,114.29852472552386L131.20185555555554,106.09413120036544L132.32068888888887,101.51756156018502L134.01758611111111,112.86302182990988L134.24135277777776,111.38432491969263L134.83806388888888,136.39596341342454L134.94994722222222,126.68264631206225L135.32289166666666,156.25042803153062L135.41612777777777,142.2971688214818L136.2552527777778,146.81367965363734L136.47901944444445,160.0755022753672L137.13167222222222,133.2840564006207L137.78432500000002,137.86971419773337L137.80297222222222,146.99955402446878L138.66074444444445,166.5671729244774L138.97774722222223,172.3686926363698L139.01504166666666,170.17149243347583L139.10827777777777,187.6249070262476L139.57445833333333,185.98184967610626L139.59310555555555,174.2204682384335L139.81687222222223,171.6798165532591L139.91010833333334,139.65418624238023L140.45087777777778,158.64889726254847L140.7305861111111,164.47487779386938L140.84246944444445,156.00242373900474L143.30390277777778,170.40472296212235L144.3295,163.60817191203904L145.24321388888887,171.88420322656916L147.23846666666665,179.3590044684427L148.56241944444446,209.9452293221484L149.38289722222223,171.5706868829924L149.8863722222222,196.3529444135784L149.9423138888889,183.88708527073612L151.02385277777776,187.36419810763203L152.17998055555555,178.51888049788002L152.83263333333335,178.26197050301266L153.46663888888887,180.6263410466196L153.7277,196.81507111890804L153.76499444444443,186.6680954057198L153.78364166666665,188.48321312416917L154.86518055555555,185.04107524007156L158.12844444444445,168.6669407907104L160.3661111111111,168.46660944360346L160.7017611111111,160.81525409542235L160.73905555555555,159.49246390058224L161.6714166666667,169.377096363268L162.7156611111111,190.78308746121033L162.99536944444444,182.86667616904793L163.965025,186.95995759809622L164.35661666666667,169.9884824743546L164.4871472222222,166.98109064046605L166.48239999999998,172.9485623928551L167.00452222222222,178.33457599238417L167.52664444444446,184.64041768405357L168.49630000000002,185.28349320229003L169.65242777777777,196.56299285969797L171.47985555555556,203.1921886258224L172.05791944444445,186.37013743239038L172.15115555555556,190.38762687395453L173.49375555555557,200.4941378042128L173.73616944444444,201.0018562558309L173.77346388888887,194.8458607246289L175.2838888888889,220.76408171950632L176.99943333333334,230.70879550158293L177.3164361111111,224.40724503624025L177.70802777777777,237.60106479899633L179.53545555555556,242.0645325408968L180.20675555555556,224.59844957748604L180.28134444444444,216.01765739297596L180.43052222222224,216.01161429509955L181.81041666666667,203.19902084604166L182.5190111111111,213.99573725661793L182.78007222222223,194.88160783172341L183.4886666666667,214.26205385995323L183.71243333333334,198.40569327636007L184.49561666666665,200.55304216363098L185.76362777777777,204.9301908911351L185.9314527777778,207.7473103583505L185.98739444444445,215.31507017497117L187.40458333333333,213.62339049746927L187.4418777777778,201.23819207054578L188.44882777777778,185.93731726945754L188.97095000000002,211.23377212131808L190.92890833333334,210.8314353003787L192.60715833333333,214.1249696358852L192.9055138888889,212.17684631018716L193.166575,230.32828862946553L194.30405555555555,236.9331900088866L196.1128361111111,246.3442924385595L196.70954722222223,234.87494799884126L198.85397777777777,236.76087034578302L199.1336861111111,237.12726367017737L199.95416388888887,238.05235565007396L201.53917777777778,231.0006689327995L201.85618055555554,240.174789196136L201.91212222222222,219.9373418366208L202.58342222222223,244.92404765339458L202.7139527777778,252.04070111782414L203.38525277777777,258.56553213996324L203.77684444444444,258.25301566840784L204.93297222222222,260.17380647135724L205.30591666666666,246.79939878149597L207.37575833333335,251.06124794580796L207.56223055555554,240.17890336572086L208.8488888888889,249.00499683892104L209.09130277777777,258.0872086899005L209.2031861111111,260.76591593125596L209.44559999999998,240.25758975803336L210.50849166666669,239.04276205336737L210.93737777777775,238.92643047115612L211.03061388888887,229.5570180460299L212.13080000000002,234.42447867658643L212.57833333333335,219.05022677580652L214.36846666666668,222.7633291769036L214.816,210.31490773487135L215.82295,206.4808250577929L216.36371944444443,216.768145913582L217.37066944444447,250.19488432091532L218.0979111111111,257.2166556482438L218.15385277777776,254.75067419796727L218.37761944444443,262.62657887333353L218.95568333333335,275.7992080127818L220.89499444444445,270.40475321266786L221.04417222222222,270.81849670680606L221.32388055555558,252.80771913690705L223.1326611111111,255.63778728582466L223.6174888888889,237.1775044103742L224.02772777777776,239.87478315235853L225.74327222222223,247.79569213033724L225.89245,248.79408140445355L226.65698611111114,252.1166357246912L227.7944666666667,251.38382659243803L228.37253055555553,243.46378966502698L229.56595277777777,238.43890793521612L230.088075,258.68977937340384L230.1067222222222,274.6859047486761L230.46101944444447,281.5683285280692L230.88990555555554,284.4114349296467L231.24420277777776,281.46033589904164L232.15791666666667,286.5102669767419L232.34438888888891,290.0575691444802L232.40033055555557,275.3880225886779L232.68003888888887,276.1895632785485L233.29539722222222,266.07123737585107L236.57730833333332,270.0374418082926L236.6891916666667,262.0172626008447L237.93855555555555,250.63529890953632L238.46067777777776,242.5250137458988L238.64714999999998,236.54458769623923L239.29980277777776,232.09690461435605L240.54916666666668,225.85162459539586L241.1458777777778,226.00892607407098L242.2460638888889,226.17597456000047L242.89871666666664,221.63322116864794L243.32760277777777,233.96056195457624L243.64460555555553,265.64899103855987L245.77038888888887,270.14270272860466L246.42304166666668,270.8772917688462L246.53492500000002,286.01148896816807L247.82158333333334,289.2994939172473L248.64206111111113,279.6180319597844L249.18283055555554,271.22977999511505L249.27606666666665,263.53470561303584L249.44389166666667,262.713965686547L251.1221416666667,253.30309855484205L251.17808333333335,254.6791307660534L251.70020555555553,272.4086025555488L251.88667777777778,269.07618522641394L252.96821666666665,260.97043018339474L253.62086944444442,261.61016147612565L254.2362277777778,253.1461427764835L254.254875,256.27578228454246L255.37370833333335,245.9626532658366L257.6859638888889,262.2015179314868L257.74190555555555,285.10377037040325L258.78615,290.9983072013374L259.2709777777778,289.5740655738542L259.32691944444446,274.57891753187357L259.7185111111111,279.01894580644716L259.84904166666666,276.6872347552916L260.93058055555554,277.0555449699963L261.0424638888889,265.30026089999706L262.0867083333334,277.46402656944764L265.2753833333333,260.16910912938215L265.4059138888889,272.13414722888047L265.9093888888889,269.4404298198722L266.9536333333333,274.7468287308516L267.5503444444444,260.943887433976L268.74376666666666,246.57898037527207L268.79970833333334,250.39622102316736L269.1726527777778,249.05949117026637L269.78801111111113,246.83861666489778L271.2611416666667,278.0915569160529L271.3916722222222,276.9401566799967L271.6340861111111,293.54361041882566L272.044325,301.7559215575393L272.75291944444444,300.774042722579L273.3123361111111,308.7606047373987L273.74122222222223,294.65077993762355L274.0768722222222,300.7231064170114L275.38217777777777,297.275320072741L276.78071944444446,284.0308002589767L277.97414166666664,275.90029673329735L279.1862111111111,275.09272148938027L280.7898722222222,277.3057829065981L281.2747,272.8851356222547L282.8410666666667,274.3363854237984L284.8549666666667,281.0561095326299L284.9854972222222,284.25701662595L287.09263333333337,285.8177905839379L287.148575,289.9717632747707L287.54016666666666,283.36411694389676L288.64035277777776,279.29910819352926L288.826825,276.5651042975262L288.9014138888889,273.76759317620247L289.44218333333333,265.0160331434229L290.0575416666667,270.14526603855006L291.0271972222222,263.69379500292126L291.3442,263.47176616038314L291.60526111111113,252.01155777362243L291.90361666666666,251.30191805116684L292.2206194444445,265.68699389786934L292.96650833333337,267.2469358330453L293.82428055555556,270.1181131294658L293.84292777777773,249.66736999102176L294.2531666666667,258.9636717733606L294.90581944444443,256.3537988243618L295.09229166666665,245.5437959419559L295.39064722222224,257.94557583253805L295.55847222222224,263.01754176569716L295.8195333333333,261.8284801718755L296.5281277777778,259.52647834284096L296.5840694444444,248.37377379693376L297.218075,260.79292749379744L297.29266388888885,248.498842376558L297.72155,250.8003741133738L297.83343333333335,255.87943091562562L297.8707277777778,246.85101737124427L298.6166166666667,267.68378756965814L298.7285,290.37552637175094L298.9709138888889,305.3872533459387L299.06415,305.8309350382639L300.2575722222222,311.4269909126373L300.61186944444444,309.53126178162165L300.77969444444443,297.52832432971513L301.61881944444445,279.90492193929026L302.0477055555555,292.55815539974964L302.085,297.04337932001954L302.10364722222226,287.59211054641844L303.20383333333336,289.6425893258979L306.1687416666667,284.30573076915334L307.15704444444447,281.6178339654898L307.52998888888885,261.3595718583283L308.10805277777774,260.79365153555966L308.2758777777778,263.8064748492533L308.59288055555555,276.2874972371277L308.9098833333333,266.8420572488318L309.4879472222222,266.8632350092417L310.43895555555554,255.1353882864288L310.86784166666666,253.70523094625304L311.12890277777774,260.67986015970126L312.5087972222222,282.8377340584673L314.63458055555554,281.198789784293L316.42471388888885,292.2607241803292L316.51795,303.9324011524846L317.18925,305.43367498638213L317.7673138888889,277.52732993079405L319.57609444444444,281.27102881022205L320.06092222222225,268.4350776514286L320.13551111111116,266.06282834058254L320.4338666666667,255.68804747966078L321.21705,254.7363990253636L322.41047222222227,252.94484320321249L322.4664138888889,262.2016105117712L322.7647694444444,263.61960541381325L324.5549027777778,262.1072603414886L325.5432055555556,285.85922610464297L327.31469166666665,293.3464142066395L329.51506388888885,285.1112356890533L330.0371861111111,293.7294738238628L331.1373722222222,269.03519520435185L332.0137916666667,267.7930875854102L333.35639166666664,264.7031555793528L333.71068888888885,270.07621377836733L334.5125194444445,267.7386196740333L334.88546388888886,267.1517656497875L335.9670027777778,273.8367254169416L336.28400555555555,268.4475423950929L336.7874805555556,269.831073216139L337.17907222222226,271.08747602196854L337.4028388888889,273.8369179290075L337.68254722222224,270.17324717769253L337.7571361111111,263.12396049457334L338.0741388888889,261.05516748403033L338.7454388888889,273.01422718032904L339.49132777777777,283.071365421204L340.1066861111111,284.6992815406253L342.15788055555555,284.54573545879896L343.14618333333334,281.06227804438333L343.22077222222225,288.5051692558292L343.59371666666664,275.0263215203859L344.5074305555556,280.9778813063966L345.0482,276.54524519085084L345.83138333333335,279.31819916986944L346.7823916666667,273.19890528454494L347.2112777777778,277.10974691828557L348.3114638888889,273.0633561999825L348.36740555555554,265.6032456154363L349.579475,271.5213977095328L350.12024444444444,271.8925871608759L350.75425,279.03501242149497L351.4069027777778,266.99939404576196L351.8357888888889,267.2148153939794L352.1341444444444,264.237988147673L353.49539166666665,277.4073537788015L353.84968888888886,294.00669702298774L354.25992777777776,292.9756847405871L355.789,296.8708484282756L358.4182583333333,300.54725681010865L359.648975,293.24407292761794L359.77950555555555,271.19879198883996L359.94733055555554,271.5928502131404L360.26433333333335,280.690445426041L360.4881,281.30303478415857L360.59998333333334,278.2365707407954L361.70016944444444,274.63297847810765L362.63253055555555,262.84964687766654L363.50894999999997,253.60967311347738L364.18025,267.14345718076953L364.62778333333335,266.57503362090074L364.683725,266.03687121624154L366.08226666666667,263.41354299875735L366.19415000000004,269.2583340245047L366.75356666666664,275.3955821178888L366.9213916666667,289.0113773812374L366.99598055555555,310.89293311056616L367.10786388888886,314.8761894584723L368.8234083333333,320.7223553109781L368.84205555555553,301.13460489801264L368.9912333333333,290.7591957848769L369.0658222222222,304.99385498771085L369.38282499999997,313.5169641423763L370.57624722222226,299.30171853593237L370.9305444444445,293.82165106708555L371.56455,284.71633077010364L373.44791944444444,287.58818822112585L374.62269444444445,285.5334587395603L375.4804666666667,276.1244306743392L376.30094444444444,270.4769119370132L376.6552416666667,279.44862684894497L377.9046055555556,255.48507767491867L378.98614444444445,261.2447922561964L379.4150305555555,267.82867419328693L380.9254555555556,287.79314443830486L381.76458055555554,293.9846647582283L381.801875,294.2243648530144L382.3985861111111,303.737645015782L382.97664999999995,291.55326005558123L384.0768361111111,299.4482445999381L386.7433888888889,283.41563255097844L387.19092222222224,273.4467906862877L387.35874722222223,257.88077449264426L387.47063055555554,274.4374908415216L388.3284027777778,257.4332753543698L388.3843444444444,245.41377952841776L388.73864166666664,252.94800412146964L391.200075,253.23620092564062L391.4611361111111,256.83214318569435L393.36315277777777,247.5517317045685L393.75474444444444,280.9082885497186L395.09734444444445,277.44220833262045L396.234825,286.72952883410596L397.577425,297.08065581898774L397.98766388888885,292.63450074542095L398.30466666666666,293.46796164720377L399.16243888888886,286.5624285805769L399.79644444444443,282.4935463588564L401.00851388888884,286.88469984061294L402.0154638888889,287.97305861667854L402.50029166666667,289.47547583315406L402.5935277777778,286.8894622119286L403.9174805555555,277.4596907014858L404.58878055555556,269.0393527814871L405.50249444444444,256.5667026799396L406.6586222222222,255.8741106010363L406.67726944444445,262.6706520448259L407.311275,300.47340896905246L407.5723361111111,300.74060055721276L408.35551944444444,299.5518149203567L411.4696055555556,291.2592092792099L412.04766944444447,282.84354379414947L412.681675,289.35233055734295L413.81915555555554,284.18240825643335L414.0056277777778,272.3280401725185L414.69557499999996,282.01934865108797L414.8447527777778,289.51021777982515L415.3109333333333,280.7606234275997L415.64658333333335,275.8171078517258L415.68387777777775,261.2769375893008L416.1127638888889,265.4954118402321L416.1314111111111,271.9557599825572L416.15005833333333,271.8226118923968L416.206,278.4287090803234L416.56029722222223,293.52038338810485L417.21295,283.05019189733434L417.79101388888887,272.28700982223853L418.18260555555554,272.1275906246359L418.5182555555556,267.8960810471448L418.7047277777778,274.8658861618562L420.36433055555557,264.04031292804024L420.62539166666664,259.8952368748661L420.9983361111111,281.8087540061758L421.1661611111111,290.67926638075625L421.2966916666667,302.5593164011771L421.3153388888889,320.91780228882635L421.85610833333334,327.04936844986446L422.0425805555556,315.34871906567673L422.41552499999995,320.9746349962298L423.7021833333333,317.7696391291465L424.61589722222226,303.0114832608131L425.23125555555555,302.644497149481L425.93985000000004,288.7635574777685L428.00969166666664,288.57701437710296L428.4758722222222,275.599466473094L428.53181388888885,276.97928809537376L428.69963888888884,272.6783420527809L429.2217611111111,259.8791612794896L429.8744138888889,274.206139708215L430.09818055555553,277.4141107467735L430.82542222222224,265.52051682877084L431.29160277777777,267.02549903158865L431.6086055555556,266.8112741503985L432.8766166666667,255.21250101291366L433.2868555555556,251.05465257384319L433.8089777777778,263.2584346068974L434.81592777777774,270.0349431951687L437.29600833333336,278.49812999486L437.3146555555556,275.81670512628006L439.08614166666666,272.042521702477L439.9252666666667,276.8610351963214L442.1815805555555,271.6354698230845L442.3121111111111,272.2415785247101L444.64301388888885,275.41650492274846L445.5380805555555,270.6343961138969L446.75014999999996,263.35538990375073L447.1044472222222,275.8753000204364L447.1976833333334,288.08515449193715L447.6265694444445,274.806781457827L448.03680833333334,271.78546877322526L448.4284,279.27880775700766L449.6964111111111,300.25818717343066L450.68471388888884,302.5282741776851L451.76625277777777,300.8285659546701L452.58673055555556,296.87482302159356L452.6613194444444,296.4137005375045L453.12750000000005,289.3335974434744L456.5772361111111,275.4809394490558L456.8569444444444,276.56997369598383L456.91288611111105,272.30805000585934L457.32312500000006,282.91631489349976L457.43500833333337,291.29922054620727L458.330075,279.91449421889865L458.6097833333333,278.6241790905433L459.4675555555556,272.1267424854539L459.7286166666666,267.2470950861515L459.9337361111111,275.9098785269107L460.1015611111111,279.23922383474377L460.95933333333335,290.3933218222086L461.1644527777778,286.23452376730586L461.27633611111116,246.35267114286023L462.3765222222222,264.4904245355391L462.87999722222224,285.8949991594949L463.30888333333337,300.33507593460075L464.6141888888889,308.4060271739196L465.02442777777776,297.35833054537954L465.6397861111111,273.5657363757812L465.9567888888889,279.96738209875366L466.0873194444444,284.9274367246147L466.83320833333335,305.5648626657198L467.07562222222225,301.63416830133616L467.16885833333333,303.74227151531704L467.28074166666664,289.90706916605666L467.33668333333327,289.61467769119287L468.75387222222224,286.14845844729626L468.77251944444447,272.92249906434944L468.8098138888889,273.9599268220325L469.59299722222227,264.17946704521535L469.6489388888889,279.62708006080845L470.2270027777778,272.2295034991315L470.7304777777778,279.00375472704235L470.78641944444445,274.71767136573584L470.87965555555553,264.0460524387347L471.9239,267.8539780513756L472.2036083333333,253.20761159278817L472.3714333333333,271.18095209132355L472.4087277777778,270.5224577065153L473.3224416666667,269.72273184513114L474.38533333333334,269.9864151576463L475.22445833333336,270.3788761674943L475.9889944444444,287.7191024529685L476.2314083333333,299.797358650431L476.2500555555556,303.54079378751817L476.66029444444445,312.99113858406486L476.7535305555555,314.375008086352L476.95865000000003,319.435870063298L479.02849166666664,304.4320577931362L479.42008333333337,291.8291773409818L480.68809444444446,302.18694703645554L480.70674166666663,313.0187601141157L480.7626833333333,310.37336010289323L480.78133055555554,296.87119213671764L481.6763972222222,294.2290187831597L482.1239305555556,303.460594520323L482.73928888888884,286.3884392889455L483.2054694444445,286.0936515517304L484.58536388888893,271.39888511820254L485.33125277777776,279.73547813131574L485.4804305555556,268.17661955853794L486.0771416666667,269.9698515111238L486.3195555555556,266.4393701657075L487.5129777777778,272.6907708230268L488.7250472222222,276.7132124175222L489.1539333333333,285.93691049036926L490.7203,297.8823336721512L490.77624166666664,298.4426854587229L490.86947777777783,297.5303551755328L492.1188416666667,301.8278046847569L492.4544916666666,297.55362994677944L493.85303333333337,288.5253594828077L494.58027500000003,283.13651009276083L494.5989222222222,289.01458342000586L497.52653611111117,277.9502575822159L498.3097194444444,265.55322158500456L498.3283666666667,274.63719198802056L499.54043611111115,272.5093185764488L499.65231944444446,271.2338667310438L500.0252638888889,258.49289238435995L500.1371472222222,272.164058375257L500.5287388888889,274.1487899827348L500.64062222222225,275.47358347221535L501.7594555555556,280.6312949731608L502.8596416666666,294.3950326487219L503.4563527777778,315.0863626029966L503.5868833333333,303.0028042332456L507.5773888888889,299.3813475332335L508.0435694444445,285.31275303135374L508.2859833333333,270.79509162288934L508.7894583333333,256.6325995408418L508.91998888888884,265.7700301338984L509.12510833333334,274.91494929371794L509.2183444444444,267.80349638210845L509.36752222222225,272.01330348340935L509.62858333333327,280.75234349064976L510.1507055555556,285.02375020678613L511.43736388888885,270.6736704236017L511.49330555555554,268.0881467655746L512.2764888888888,270.34480833980126L512.9291416666666,280.2641372202199L513.6190888888889,273.6943951319672L515.3159861111111,266.681759588183L515.6143416666667,271.40331835285485L517.6095944444444,293.2275813742618L517.740125,285.5689367487514L517.9638916666667,289.5726707955887L518.9149,294.6093363869602L519.1200194444444,292.13040543248735L519.1386666666667,299.64471626669456L520.8169166666667,299.8649879478829L520.8728583333334,290.7038155188213L523.614,284.1602561348707L523.688588888889,268.8606802388448L523.7072361111111,272.61658314254396L524.0242388888888,258.3650246345193L524.3039472222222,266.6496717860216L524.4904194444445,277.9013467270085L524.6955388888889,282.2704723619192L524.788775,278.40782689707095L524.8820111111112,289.1161037424601L524.9566000000001,276.93382249709356L525.0684833333333,272.3672926094317L525.5160166666666,267.6630125323643L525.7024888888889,261.57810489414396L526.1873166666667,271.5652437691585L527.0264416666666,285.22505810765597L527.4553277777778,283.4115554029236L528.4063361111112,268.61216342058714L528.8538694444445,247.05824806455928L529.2081666666667,252.9453549514065L529.4692277777777,268.6384414750248L530.0845861111111,292.45232367026273L532.1917222222222,292.24958605472716L533.1054361111112,309.2594923669366L534.615861111111,305.11599844063926L534.8209805555556,307.3885166249609L535.193925,311.11010839950654L536.3127583333334,296.43597518450986L536.5551722222223,293.9332487764774L537.2451194444444,292.93819805281265L537.6180638888889,286.3685547607953L537.8231833333333,285.3432078419814L539.4268444444444,281.6945180927926L539.6133166666667,276.6469854375847L542.242575,274.9175772107319L542.9325222222222,258.0717219016955L542.9698166666667,250.13501321685345L543.5105861111111,257.9369046891453L544.2378277777779,295.14192720679773L545.1328944444444,296.2960325981875L546.0279611111112,293.9277725282729L546.0652555555555,296.9263893165243L546.2144333333333,302.12163225400764L546.7738499999999,293.21681918852516L547.2027361111111,294.9768537888109L547.4637972222222,297.30450912768714L548.5266888888889,292.532404496998L550.3168222222222,284.52947516127256L551.1559472222222,286.8529864959945L551.2305361111111,280.2007781036514L552.3493694444444,279.6727728466879L553.2071416666666,275.0134756815845L553.7665583333334,278.98968788697806L554.1767972222223,264.1579097551971L554.325975,282.87626402633606L556.6009361111111,281.8166481557919L557.1603527777778,285.96081637760597L557.5705916666667,312.4879714931285L558.18595,323.65071117193907L558.7267194444445,320.3601071078265L559.5658444444445,303.1703249000719L560.2930861111112,295.5389754881388L561.8967472222222,294.9363902634339L563.2579944444444,287.83402396595216L563.724175,278.0266213497861L563.9665888888889,276.54250364788436L564.134413888889,285.8862029867653L565.6075444444444,287.424392232733L566.7077305555556,287.8868517931921L568.8335138888889,279.89591636995215L569.1132222222221,272.48320583546L570.0828777777778,276.17711622741126L570.5863527777777,275.660317225613L571.7424805555556,298.0945601244914L572.2086611111112,310.2137491095154L573.8682638888889,302.93617211509275L574.5582111111112,286.5435739203008L575.2108638888889,284.530146160347L575.8262222222222,284.5832284203903L576.5907583333334,279.79250745247225L578.6046583333333,278.08985545796406L578.9030138888888,285.47215105630306L579.2946055555556,275.73242526970716L579.4624305555556,286.5604729039813L579.7607861111111,276.8912014593687L580.9355611111112,272.3556588906053L580.9542083333333,278.87326834309124L581.2152694444444,269.57952979629056L583.2664638888889,278.22670728817474L583.5088777777778,261.3575143745833L583.7139972222222,267.6125512082155L585.5787194444445,284.9075225805507L586.8280833333333,296.83938459248935L587.6112666666667,316.0143761854863L590.5575277777778,298.6031290186343L592.1238944444444,290.2401638682423L592.1611888888889,289.48060926531184L592.9070777777778,284.3916014715101L592.925725,281.47093443179523L592.9443722222222,278.1874949699902L593.2427277777778,268.0000464776911L593.4851416666667,268.1922486698483L593.5224361111111,268.48483467554183L595.368511111111,270.98793430599653L598.1655944444444,256.5731700150554L599.3590166666667,281.8215129785767L599.4709,298.1870891340393L599.5827833333334,318.22373428868167L599.6573722222223,323.17157558755224L599.6760194444444,310.0991464862594L601.0745611111112,301.4919117694717L601.8204499999999,305.68707468543175L602.8460472222222,285.4656856681926L604.8785944444444,281.93160714066164L605.0837138888888,287.0691527685889L605.2328916666667,276.78771463402325L606.1279583333334,275.3049093208802L606.5754916666666,281.98233619463997L607.3213805555556,286.0389059968743L607.3773222222222,283.08337348627765L607.9553861111111,287.33016697125265L608.1418583333333,294.02685079310316L608.2723888888889,272.2650935729383L608.6080388888889,283.30208440304034L609.6709305555555,273.80128161716607L610.043875,254.71574631099793L610.0998166666667,256.95375618198443L610.4914083333333,252.65273037468745L612.0950694444444,283.4848288948259L613.7919666666667,299.3188396128965L613.8292611111111,307.529593219337L614.4259722222222,319.1409666478498L614.7616222222222,316.55726313232555L620.0387861111111,299.71387867712485L620.5236138888889,283.9751618658513L621.3440916666667,258.1035922977334L622.3696888888888,266.29546903449335L623.5258166666666,283.2096404485586L623.7682305555555,277.8194183977057L625.4837749999999,265.14069602916294L626.0245444444444,284.54752835053L626.7517861111111,288.4290688062775L627.9638555555556,298.8385332599323L631.9730083333333,298.01402102560047L633.446138888889,294.4433792749062L633.9309666666667,304.03008396142803L634.3412055555556,309.8624214095717L634.6955027777778,283.4129136420992L635.0684472222222,275.3741487513606L635.1616833333334,276.2721460730209L635.4600388888889,287.7732423824295L635.6838055555555,276.2654757906332L635.982161111111,275.35997898634287L636.4856361111111,274.6986565545559L637.7536472222223,283.9612468692875L638.6673611111111,291.83235486824606L638.909775,281.98771744060093L639.0589527777778,284.50064132861837L640.8304388888889,283.17831419856867L642.1730388888889,289.49749249787044L642.7883972222222,285.24699870688266L642.9189277777778,290.07112927402585L643.0867527777779,289.6258573243947L644.0191138888889,300.97079666316097L644.0750555555555,302.35493206894154L644.4666472222223,288.7814507002578L644.6904138888889,297.6145733544198L645.0447111111112,305.7445007532219L645.3990083333333,287.8087445956099L647.9350305555556,283.87526569733785L649.4454555555556,278.2546640990363L649.4641027777777,275.1687973951212L650.0981083333334,267.2757720360107L650.4524055555556,274.46896196657104L651.3101777777778,280.87305646689936L652.6527777777778,276.46691792936446L652.7460138888889,259.5827362640579L653.2308416666666,279.53546538972137L654.0886138888889,286.0342577876047L654.3683222222222,278.4916291583416L655.2074472222222,280.5184430330298L655.8973944444444,290.05435605342996L656.699225,291.43249718842395L657.0721694444444,281.1583171874135L657.1840527777778,298.1853932970672L657.4264666666667,288.9327239772027L657.9485888888888,276.82852390887416L658.7504194444444,270.5750809400205L659.4963083333333,260.14181370073106L660.7456722222222,275.7943632753703L661.2118527777777,275.1062540621766L661.3423833333334,278.15015370912596L661.4169722222223,291.16539539854074L663.2630472222222,274.4537822601816L663.318988888889,270.915692150451L664.0648777777777,270.1850552438838L664.6615888888889,264.1603670048202L665.8177166666667,259.63787974879057L666.0787777777778,276.0401834843451L666.3957805555555,276.81887212979166L666.4144277777777,270.0313422178469L667.1976111111111,280.91327678532843L669.0436861111111,299.4191778860775L669.5471611111111,306.024614927905L672.2696555555556,305.43468167646955L673.2579583333334,299.22900949874065L675.2718583333333,292.06898881768313L675.4769777777777,287.3668122397371L677.7705861111111,272.11743860879585L678.8707722222222,267.48620413207436L679.5607194444444,273.6613838104214L679.952311111111,280.43916255401405L680.6422583333334,310.67356346945064L681.3135583333333,319.5788505488639L681.3322055555556,316.0976319082979L681.7983861111111,313.3073368888141L682.9545138888889,301.5769460213806L683.0663972222222,297.6759604938403L683.3461055555556,303.6234164910063L684.2784666666666,303.7288053915826L684.7632944444445,294.2311676076607L685.0802972222223,295.7169144470427L685.5091833333333,302.49016510957085L686.3669555555556,298.3021046847916L687.579025,297.66364997212986L687.7095555555555,286.92029329290926L687.8587333333334,279.3702987441477L688.7538,291.17362740093813L688.921625,270.4614504006764L690.0218111111111,262.96142224235894L690.264225,263.16035086967685L692.9680722222222,267.4636331978925L693.1918388888889,273.45836619040296L693.8071972222223,277.38384883106306L693.8444916666666,293.078614047173L694.5903805555556,297.7820217913409L695.80245,320.40158278381944L697.1823444444445,304.7222116865881L698.0587638888888,297.62637281883764L698.7300638888889,287.7075588254274L699.2708333333334,292.7942090241993L699.8116027777778,290.12259208016894L700.0540166666667,290.6768193891842L700.1099583333333,285.88369726247777L701.340675,279.9035277790259L701.3966166666667,284.0382563845176L702.1984472222223,279.5882778510962L702.9256888888889,281.6020942893931L703.1121611111112,286.4632619599884L703.1681027777778,274.5716887700787L704.1564055555556,271.08453385759776L706.2635416666667,278.98607540565365L706.6178388888889,279.38276396058575L706.7483694444445,267.5277409187709L706.7670166666667,265.7165716905448L706.8975472222222,273.345114446822L708.1096166666666,297.0505507809777L708.6317388888889,301.9153874410902L708.8555055555556,293.2762001808711L709.0979194444445,306.6782386098044L709.22845,293.87134193144664L710.738875,289.15411619402425L711.3542333333334,302.2602207425681L711.4288222222223,304.74159978410285L711.9322972222222,296.6159161959927L711.9695916666667,296.9266079565788L713.2189555555556,296.86324283486033L713.6478416666667,298.29298480156314L714.9531472222222,291.4679219234183L715.1396194444445,265.6287750427839L715.4566222222222,280.38930211215717L715.5871527777778,285.1513419255585L715.6430944444444,283.4332312646491L715.9041555555556,277.68143238443037L716.109275,272.33529823909936L718.6452972222222,269.587546264474L719.3352444444445,274.2334164114859L720.3608416666667,275.7624960978071L720.4913722222221,273.7973564767385L721.7034416666667,295.01055471322206L722.1696222222222,297.151281596549L722.3374472222223,301.82323088725065L722.5612138888889,301.8167157082537L722.9155111111111,303.13039254598493L723.2325138888889,291.0795268979828L723.5122222222222,291.28806772036313L724.2394638888888,286.7428435695348L724.4632305555556,300.1333963043795L724.9294111111111,293.13799428744954L725.4888277777778,286.7440205562343L725.6193583333334,293.46259466101105L726.7008972222222,282.2021808581911L726.9060166666667,286.06300754292977L727.5586694444444,284.74865419235334L727.9129666666668,285.3214084539801L728.0434972222222,297.61281730139194L728.9012694444444,294.2499497497316L729.870925,271.2791528561256L729.9268666666667,272.2774164115513L730.5795194444445,280.323233904548L731.8475305555555,293.1489586723491L732.3137111111112,272.4800932820227L732.9477166666666,279.38475043866555L733.0036583333334,270.53023600157206L733.9733138888888,264.94123835310995L733.9919611111111,275.00837675896685L734.1411388888889,273.898887158438L734.3835527777778,269.6830182081487L735.40915,309.39475021398226L735.912625,322.35197502157786L737.0314583333333,322.38897374738275L737.0501055555555,322.11194288414134L737.5349333333334,320.1763409357155L737.7587,304.8360723722508L738.0384083333333,299.1707334082443L738.4113527777778,302.34211909539215L738.5791777777778,305.26502106050674L738.7470027777778,302.3710366574527L739.3064194444444,302.9292412571669L740.2201333333334,303.0513468249178L741.2457305555556,287.1392595567427L741.8424416666667,288.4367647527529L742.2526805555556,275.91930982821424L743.6139277777777,270.4573026022508L745.0684111111111,273.0758397293803L746.4483055555555,271.67413123325804L747.3620194444445,268.96648225710567L748.0333194444445,270.69952312425244L749.1894472222222,287.6625678021637L750.1404555555555,295.7179752516107L750.6252833333333,304.84867503210046L750.6812249999999,315.0972837088355L752.0984138888889,299.22542850243144L752.4900055555555,302.0192313675111L752.6391833333333,307.41590054536016L752.8815972222222,306.52629947486014L752.9188916666667,295.3401741017252L753.030775,292.870074118933L754.2241972222222,293.30538778648435L754.8582027777778,280.30670974937476L754.8954972222222,287.01250876359586L754.9141444444444,293.68711789472366L756.5178055555556,285.0834396363704L756.5737472222222,276.7441582489853L757.0772222222223,275.2891328697708L760.2658972222222,278.85836884768645L760.3964277777777,275.26891907091044L761.086375,268.4199820043748L761.6271444444445,265.67161267293125L761.7203805555555,262.7063188153066L762.5035638888888,281.231423735473L763.6596916666667,295.776798367413L763.9766944444444,292.56185348028663L763.9953416666666,293.2136303376837L765.2260583333334,290.80715292642617L765.3752361111111,287.50657130450077L765.5990027777777,297.1040998528604L766.28895,275.1785850185277L766.3075972222223,296.22862699378265L766.3635388888889,305.1291933700367L767.5942555555555,284.4225895312383L768.5639111111111,290.6081977311942L768.8436194444445,300.97319052363474L769.1233277777778,290.1554993018212L769.4216833333334,276.7791352286757L769.6640972222223,276.86400261013637L770.3167500000001,272.17572340064606L770.6710472222222,276.424774269422L770.8015777777778,273.97839380512244L775.1463805555555,267.8134315085984L775.6498555555556,257.23592315152746" style="fill: none;" fill="none"></path></g></g></g></g><g opacity="0.2"><g><g><g><path stroke="rgb(255, 112, 67)" stroke-width="2px" d="M119.19304444444444,-33.90118408203131L120.01352222222222,23.153736114501896L120.5729388888889,64.54107952117914L121.63583055555556,50.484151363372746L122.17660000000001,95.71541023254389L122.47495555555555,88.82433009147638L122.77331111111111,-19.41869068145752L123.81755555555556,59.13277101516718L124.76856388888889,93.49973988533014L125.10421388888888,77.66978454589844L125.27203888888889,110.578941822052L125.57039444444445,82.54114103317255L125.6263361111111,86.76471185684198L126.4468138888889,86.69349622726435L127.62158888888888,143.82371139526364L128.03182777777778,86.45606470108032L128.08776944444443,108.73068881034845L128.23694722222223,61.491183757781926L128.9828361111111,101.54181671142572L129.2998388888889,99.03627109527582L129.54225277777778,142.95270276069638L131.20185555555554,93.78754091262812L132.32068888888887,94.6527070999145L134.01758611111111,129.88121223449704L134.24135277777776,109.16627955436707L134.83806388888888,173.91342115402222L134.94994722222222,112.11267066001892L135.32289166666666,200.602100610733L135.41612777777777,121.36728000640866L136.2552527777778,153.58844590187073L136.47901944444445,179.968236207962L137.13167222222222,93.09688758850092L137.78432500000002,144.74820089340204L137.80297222222222,160.69431376457212L138.66074444444445,195.91860127449033L138.97774722222223,181.07097220420835L139.01504166666666,166.8756921291351L139.10827777777777,213.80502891540525L139.57445833333333,183.51726365089414L139.59310555555555,156.5783960819244L139.81687222222223,167.8688390254974L139.91010833333334,91.61574077606195L140.45087777777778,187.14096379280087L140.7305861111111,173.2138485908508L140.84246944444445,143.2937426567077L143.30390277777778,192.00817179679868L144.3295,153.41334533691403L145.24321388888887,184.29825019836423L147.23846666666665,190.57120633125302L148.56241944444446,255.8245666027069L149.38289722222223,114.00887322425837L149.8863722222222,233.52633070945737L149.9423138888889,165.18829655647275L151.02385277777776,192.57986736297605L152.17998055555555,165.25090408325192L152.83263333333335,177.87660551071164L153.46663888888887,184.17289686203003L153.7277,221.09816622734067L153.76499444444443,171.44763183593747L153.78364166666665,191.20588970184323L154.86518055555555,179.87786841392514L158.12844444444445,144.10573911666867L160.3661111111111,168.16611242294312L160.7017611111111,149.3382210731506L160.73905555555555,157.50827860832214L161.6714166666667,184.2040450572967L162.7156611111111,222.89207410812375L162.99536944444444,170.99205923080444L163.965025,193.09987974166867L164.35661666666667,144.53126978874204L164.4871472222222,162.47000288963312L166.48239999999998,181.89977002143857L167.00452222222222,186.41359639167783L167.52664444444446,194.0991802215576L168.49630000000002,186.24810647964475L169.65242777777777,213.4822423458099L171.47985555555556,213.13598227500913L172.05791944444445,161.1370606422424L172.15115555555556,196.41386103630063L173.49375555555557,215.6539041996002L173.73616944444444,201.76343393325803L173.77346388888887,185.6118674278259L175.2838888888889,259.6414132118225L176.99943333333334,245.62586617469788L177.3164361111111,214.9549193382263L177.70802777777777,257.3917944431305L179.53545555555556,248.75973415374756L180.20675555555556,198.39932513236997L180.28134444444444,203.1464691162109L180.43052222222224,216.00254964828488L181.81041666666667,183.9801306724548L182.5190111111111,230.19081187248227L182.78007222222223,166.21041369438169L183.4886666666667,243.33272290229795L183.71243333333334,174.62115240097043L184.49561666666665,203.77406549453733L185.76362777777777,211.49591398239133L185.9314527777778,211.97298955917356L185.98739444444445,226.66670989990232L187.40458333333333,211.0858709812164L187.4418777777778,182.6603944301605L188.44882777777778,162.9860050678253L188.97095000000002,249.1784543991089L190.92890833333334,210.2279300689697L192.60715833333333,219.06527113914487L192.9055138888889,209.25466132164L193.166575,257.5554521083832L194.30405555555555,246.84054207801816L196.1128361111111,260.46094608306885L196.70954722222223,217.6709313392639L198.85397777777777,239.58975386619565L199.1336861111111,237.6768536567688L199.95416388888887,239.43999361991882L201.53917777777778,220.4231388568878L201.85618055555554,253.93596959114072L201.91212222222222,189.581170797348L202.58342222222223,282.4041063785553L202.7139527777778,262.7156813144684L203.38525277777777,268.352778673172L203.77684444444444,257.78424096107483L204.93297222222222,263.05499267578125L205.30591666666666,226.73778724670407L207.37575833333335,257.454021692276L207.56223055555554,223.85538649559018L208.8488888888889,262.2441370487213L209.09130277777777,271.71052646636963L209.2031861111111,264.7839767932892L209.44559999999998,209.49510049819943L210.50849166666669,237.22052049636838L210.93737777777775,238.75193309783936L211.03061388888887,215.50289940834043L212.13080000000002,241.72566962242126L212.57833333333335,195.9888489246368L214.36846666666668,228.3329827785492L214.816,191.6422755718231L215.82295,200.72970104217526L216.36371944444443,232.1991271972656L217.37066944444447,300.3349919319153L218.0979111111111,267.74931263923645L218.15385277777776,251.0517020225525L218.37761944444443,274.44043588638306L218.95568333333335,295.55815172195435L220.89499444444445,262.31307101249695L221.04417222222222,271.4391119480133L221.32388055555558,225.7915527820587L223.1326611111111,259.88288950920105L223.6174888888889,209.48708009719846L224.02772777777776,243.92070126533508L225.74327222222223,259.6770555973053L225.89245,250.29166531562805L226.65698611111114,257.1004672050476L227.7944666666667,250.28461289405823L228.37253055555553,231.5837342739105L229.56595277777777,230.90158534049985L230.088075,289.0660865306854L230.1067222222222,298.6800928115845L230.46101944444447,291.8919641971588L230.88990555555554,288.67609453201294L231.24420277777776,277.03368735313416L232.15791666666667,294.08516359329224L232.34438888888891,295.37852239608765L232.40033055555557,253.38370275497437L232.68003888888887,277.3918743133545L233.29539722222222,250.8937485218048L236.57730833333332,275.98674845695496L236.6891916666667,249.98699378967285L237.93855555555555,233.56235337257382L238.46067777777776,230.35958600044248L238.64714999999998,227.57394862174985L239.29980277777776,225.42537999153134L240.54916666666668,216.48370456695554L241.1458777777778,226.2448782920837L242.2460638888889,226.42654728889465L242.89871666666664,214.81909108161923L243.32760277777777,252.45157313346863L243.64460555555553,313.1816346645355L245.77038888888887,276.8832702636719L246.42304166666668,271.9791753292084L246.53492500000002,308.7127847671509L247.82158333333334,294.2315013408661L248.64206111111113,265.0958390235901L249.18283055555554,258.64740204811096L249.27606666666665,251.99209403991696L249.44389166666667,261.48285579681396L251.1221416666667,239.18679785728452L251.17808333333335,256.7431790828705L251.70020555555553,299.00281023979187L251.88667777777778,264.0775592327118L252.96821666666665,248.81179761886597L253.62086944444442,262.56975841522217L254.2362277777778,240.45011472702024L254.254875,260.97024154663086L255.37370833333335,230.4929597377777L257.6859638888889,286.55981492996216L257.74190555555555,319.4571490287781L258.78615,299.84011244773865L259.2709777777778,287.4377031326294L259.32691944444446,252.0861954689026L259.7185111111111,285.6789882183075L259.84904166666666,273.18966817855835L260.93058055555554,277.6080102920532L261.0424638888889,247.66733479499814L262.0867083333334,295.70967507362366L265.2753833333333,234.22673296928406L265.4059138888889,290.08170437812805L265.9093888888889,265.39985370635986L266.9536333333333,282.70642709732056L267.5503444444444,240.2394754886627L268.74376666666666,225.0316197872162L268.79970833333334,256.1220819950104L269.1726527777778,247.0543963909149L269.78801111111113,243.5073049068451L271.2611416666667,324.97096729278564L271.3916722222222,275.2130563259125L271.6340861111111,318.4487910270691L272.044325,314.07438826560974L272.75291944444444,299.30122447013855L273.3123361111111,320.7404477596283L273.74122222222223,273.4860427379608L274.0768722222222,309.83159613609314L275.38217777777777,292.10364055633545L276.78071944444446,264.1640205383301L277.97414166666664,263.70454144477844L279.1862111111111,273.88135862350464L280.7898722222222,280.6253750324249L281.2747,266.25416469573975L282.8410666666667,276.5132601261139L284.8549666666667,291.1356956958771L284.9854972222222,289.0583772659302L287.09263333333337,288.1589515209198L287.148575,296.2027223110199L287.54016666666666,273.45264744758606L288.64035277777776,273.2015950679779L288.826825,272.46409845352173L288.9014138888889,269.5713264942169L289.44218333333333,251.88869309425354L290.0575416666667,277.83911538124084L291.0271972222222,254.01658844947815L291.3442,263.1387228965759L291.60526111111113,234.82124519348145L291.90361666666666,250.23745846748352L292.2206194444445,287.264607667923L292.96650833333337,269.5868487358093L293.82428055555556,274.4248790740967L293.84292777777773,218.99125528335568L294.2531666666667,272.9081244468689L294.90581944444443,252.43898940086365L295.09229166666665,229.32879161834714L295.39064722222224,276.54824566841125L295.55847222222224,270.6254906654358L295.8195333333333,260.0448877811432L296.5281277777778,256.07347559928894L296.5840694444444,231.6447169780731L297.218075,279.421658039093L297.29266388888885,230.05771470069882L297.72155,254.25267171859738L297.83343333333335,263.4980161190033L297.8707277777778,233.3083970546722L298.6166166666667,298.93294286727905L298.7285,324.41313457489014L298.9709138888889,327.90484380722046L299.06415,306.4964575767517L300.2575722222222,319.8210747241974L300.61186944444444,306.68766808509827L300.77969444444443,279.52391815185547L301.61881944444445,253.46981835365295L302.0477055555555,311.53800559043884L302.085,303.7712152004242L302.10364722222226,273.41520738601685L303.20383333333336,292.7183074951172L306.1687416666667,276.30044293403625L307.15704444444447,277.5859887599945L307.52998888888885,230.97217869758603L308.10805277777774,259.94477105140686L308.2758777777778,268.3257098197937L308.59288055555555,295.0090308189392L308.9098833333333,252.67389726638794L309.4879472222222,266.89500164985657L310.43895555555554,237.54361820220944L310.86784166666666,251.55999493598938L311.12890277777774,271.14180397987366L312.5087972222222,316.0745449066162L314.63458055555554,278.7403733730316L316.42471388888885,308.85362577438354L316.51795,321.4399166107178L317.18925,307.6855857372284L317.7673138888889,235.66781234741208L319.57609444444444,286.886577129364L320.06092222222225,249.18115091323853L320.13551111111116,262.50445437431335L320.4338666666667,240.1258761882782L321.21705,253.30892634391785L322.41047222222227,250.25750946998596L322.4664138888889,276.0867614746094L322.7647694444444,265.7465977668762L324.5549027777778,259.8387427330017L325.5432055555556,321.4871747493744L327.31469166666665,304.5771963596344L329.51506388888885,272.75846791267395L330.0371861111111,306.65683102607727L331.1373722222222,231.99377727508542L332.0137916666667,265.9299261569977L333.35639166666664,260.0682575702667L333.71068888888885,278.13580107688904L334.5125194444445,264.23222851753235L334.88546388888886,266.2714846134186L335.9670027777778,283.86416506767273L336.28400555555555,260.36376786231995L336.7874805555556,271.90636944770813L337.17907222222226,272.9720802307129L337.4028388888889,277.96108078956604L337.68254722222224,264.6777410507202L337.7571361111111,252.5500304698944L338.0741388888889,257.95197796821594L338.7454388888889,290.9528167247772L339.49132777777777,298.1570727825165L340.1066861111111,287.1411557197571L342.15788055555555,284.31541633605957L343.14618333333334,275.83709192276L343.22077222222225,299.66950607299805L343.59371666666664,254.80804991722107L344.5074305555556,289.9052209854126L345.0482,269.89629101753235L345.83138333333335,283.4776301383972L346.7823916666667,264.0199644565582L347.2112777777778,282.9760093688965L348.3114638888889,266.9937701225281L348.36740555555554,254.41307973861694L349.579475,280.3986258506775L350.12024444444444,272.4493713378906L350.75425,289.7486503124237L351.4069027777778,248.94596648216245L351.8357888888889,267.53794741630554L352.1341444444444,259.7727472782135L353.49539166666665,297.1614022254944L353.84968888888886,318.90571188926697L354.25992777777776,291.4291663169861L355.789,302.71359395980835L358.4182583333333,306.0618693828583L359.648975,282.28929710388184L359.77950555555555,238.1308705806732L359.94733055555554,272.18393754959106L360.26433333333335,294.33683824539185L360.4881,282.22191882133484L360.59998333333334,273.63687467575073L361.70016944444444,269.2275900840759L362.63253055555555,245.174649477005L363.50894999999997,239.7497124671936L364.18025,287.44413328170776L364.62778333333335,265.7223982810974L364.683725,265.22962760925293L366.08226666666667,259.4785506725311L366.19415000000004,278.0255205631256L366.75356666666664,284.6014542579651L366.9213916666667,309.4350702762604L366.99598055555555,343.7152667045593L367.10786388888886,320.8510739803314L368.8234083333333,329.49160408973694L368.84205555555553,271.75297927856445L368.9912333333333,275.19608211517334L369.0658222222222,326.34584379196167L369.38282499999997,326.3016278743744L370.57624722222226,277.9788501262665L370.9305444444445,285.6015498638153L371.56455,271.05835032463074L373.44791944444444,291.8959743976593L374.62269444444445,282.4513645172119L375.4804666666667,262.01088857650757L376.30094444444444,262.00563383102417L376.6552416666667,292.90619921684265L377.9046055555556,219.53975391387937L378.98614444444445,269.8843641281128L379.4150305555555,277.70449709892273L380.9254555555556,317.7398498058319L381.76458055555554,303.2719452381134L381.801875,294.5839149951935L382.3985861111111,318.0075652599335L382.97664999999995,273.27668261528015L384.0768361111111,311.2907214164734L386.7433888888889,259.36671447753906L387.19092222222224,258.4935278892517L387.35874722222223,234.53175020217893L387.47063055555554,299.27256536483765L388.3284027777778,231.92695212364194L388.3843444444444,227.38453578948972L388.73864166666664,264.24934101104736L391.200075,253.66849613189694L391.4611361111111,262.22605657577515L393.36315277777777,233.6311144828796L393.75474444444444,330.94312381744385L395.09734444444445,272.24308800697327L396.234825,300.66050958633423L397.577425,312.6073462963104L397.98766388888885,285.9652681350708L398.30466666666666,294.71815299987793L399.16243888888886,276.2041289806366L399.79644444444443,276.39022302627563L401.00851388888884,293.4714300632477L402.0154638888889,289.605596780777L402.50029166666667,291.72910165786743L402.5935277777778,283.01044178009033L403.9174805555555,263.31503343582153L404.58878055555556,256.40884590148926L405.50249444444444,237.85772752761838L406.6586222222222,254.83522248268127L406.67726944444445,272.86546421051025L407.311275,357.17754435539246L407.5723361111111,301.1413879394531L408.35551944444444,297.76863646507263L411.4696055555556,278.8203008174896L412.04766944444447,270.22004556655884L412.681675,299.1155107021332L413.81915555555554,276.42752480506897L414.0056277777778,254.54648804664612L414.69557499999996,296.55631136894226L414.8447527777778,300.7465214729309L415.3109333333333,267.6362318992615L415.64658333333335,268.40183448791504L415.68387777777775,239.46668219566342L416.1127638888889,271.823123216629L416.1314111111111,281.6462821960449L416.15005833333333,271.6228897571564L416.206,288.33785486221313L416.56029722222223,316.1578948497772L417.21295,267.3449046611786L417.79101388888887,256.1422367095947L418.18260555555554,271.8884618282318L418.5182555555556,261.5488166809082L418.7047277777778,285.32059383392334L420.36433055555557,247.80195307731628L420.62539166666664,253.67762279510498L420.9983361111111,314.67902970314026L421.1661611111111,303.98503494262695L421.2966916666667,320.3793914318085L421.3153388888889,348.4555311203003L421.85610833333334,336.2467176914215L422.0425805555556,297.79774498939514L422.41552499999995,329.4135088920593L423.7021833333333,312.96214532852173L424.61589722222226,280.874249458313L425.23125555555555,302.0940179824829L425.93985000000004,267.9421479701996L428.00969166666664,288.29719972610474L428.4758722222222,256.1331446170807L428.53181388888885,279.04902052879333L428.69963888888884,266.2269229888916L429.2217611111111,240.6803901195526L429.8744138888889,295.6966073513031L430.09818055555553,282.2260673046112L430.82542222222224,247.68012595176694L431.29160277777777,269.28297233581543L431.6086055555556,266.4899368286133L432.8766166666667,237.81434130668637L433.2868555555556,244.81787991523743L433.8089777777778,281.5641076564789L434.81592777777774,280.1997060775757L437.29600833333336,291.192910194397L437.3146555555556,271.79456782341003L439.08614166666666,266.38124656677246L439.9252666666667,284.088805437088L442.1815805555555,263.79712176322937L442.3121111111111,273.15074157714844L444.64301388888885,280.1788945198059L445.5380805555555,263.4612329006195L446.75014999999996,252.4368805885315L447.1044472222222,294.6551651954651L447.1976833333334,306.39993619918823L447.6265694444445,254.889221906662L448.03680833333334,267.25349974632263L448.4284,290.5188162326813L449.6964111111111,331.7272562980652L450.68471388888884,305.9334046840668L451.76625277777777,298.2790036201477L452.58673055555556,290.94420862197876L452.6613194444444,295.72201681137085L453.12750000000005,278.7134428024292L456.5772361111111,254.70195245742798L456.8569444444444,278.20352506637573L456.91288611111105,265.9151644706726L457.32312500000006,298.8287122249603L457.43500833333337,303.87357902526855L458.330075,262.8374047279358L458.6097833333333,276.68870639801025L459.4675555555556,262.3805875778198L459.7286166666666,259.9276239871979L459.9337361111111,288.9040536880493L460.1015611111111,284.23324179649353L460.95933333333335,307.12446880340576L461.1644527777778,279.9963266849518L461.27633611111116,186.529892206192L462.3765222222222,291.6970546245575L462.87999722222224,318.00186109542847L463.30888333333337,321.9951910972595L464.6141888888889,320.51245403289795L465.02442777777776,280.7867856025696L465.6397861111111,237.87684512138367L465.9567888888889,289.5698506832123L466.0873194444444,292.3675186634064L466.83320833333335,336.5210015773773L467.07562222222225,295.73812675476074L467.16885833333333,306.90442633628845L467.28074166666664,269.15426564216614L467.33668333333327,289.1760904788971L468.75387222222224,280.9491295814514L468.77251944444447,253.0835599899292L468.8098138888889,275.51606845855713L469.59299722222227,249.50877737998962L469.6489388888889,302.798499584198L470.2270027777778,261.1331386566162L470.7304777777778,289.1651315689087L470.78641944444445,268.28854632377625L470.87965555555553,248.038624048233L471.9239,273.5658664703369L472.2036083333333,231.2380619049072L472.3714333333333,298.1409628391266L472.4087277777778,269.534716129303L473.3224416666667,268.5231430530548L474.38533333333334,270.38194012641907L475.22445833333336,270.96756768226624L475.9889944444444,313.7294418811798L476.2314083333333,317.91474294662476L476.2500555555556,309.1559464931488L476.66029444444445,327.1666557788849L476.7535305555555,316.4508123397827L476.95865000000003,327.02716302871704L479.02849166666664,281.9263393878937L479.42008333333337,272.92485666275024L480.68809444444446,317.72360157966614L480.70674166666663,329.2664797306061L480.7626833333333,306.40526008605957L480.78133055555554,276.6179401874542L481.6763972222222,290.2657587528229L482.1239305555556,317.3079581260681L482.73928888888884,260.7802064418793L483.2054694444445,285.6514699459076L484.58536388888893,249.35673546791077L485.33125277777776,292.2403676509857L485.4804305555556,250.83833169937134L486.0771416666667,272.65969944000244L486.3195555555556,261.143648147583L487.5129777777778,282.06787180900574L488.7250472222222,282.74687480926514L489.1539333333333,299.7724575996399L490.7203,315.8004684448242L490.77624166666664,299.2832131385803L490.86947777777783,296.1618597507477L492.1188416666667,308.27397894859314L492.4544916666666,291.14236783981323L493.85303333333337,274.98295378685L494.58027500000003,275.05323600769043L494.5989222222222,297.8316934108734L497.52653611111117,261.353768825531L498.3097194444444,246.9576675891876L498.3283666666667,288.26314759254456L499.54043611111115,269.3175084590912L499.65231944444446,269.3206889629364L500.0252638888889,239.38143086433408L500.1371472222222,292.6708073616028L500.5287388888889,277.1258873939514L500.64062222222225,277.46077370643616L501.7594555555556,288.36786222457886L502.8596416666666,315.0406391620636L503.4563527777778,346.12335753440857L503.5868833333333,284.8774666786194L507.5773888888889,293.94916248321533L508.0435694444445,264.20986127853394L508.2859833333333,249.01859951019287L508.7894583333333,235.38886141777039L508.91998888888884,279.4761760234833L509.12510833333334,288.63232803344727L509.2183444444444,257.1363170146942L509.36752222222225,278.3280141353607L509.62858333333327,293.8609035015106L510.1507055555556,291.4308602809906L511.43736388888885,249.14855074882504L511.49330555555554,264.20986127853394L512.2764888888888,273.72980070114136L512.9291416666666,295.1431305408478L513.6190888888889,263.839781999588L515.3159861111111,256.1628062725067L515.6143416666667,278.48565649986267L517.6095944444444,325.96397590637207L517.740125,274.08096981048584L517.9638916666667,295.5782718658447L518.9149,302.16433477401733L519.1200194444444,288.4120090007782L519.1386666666667,310.91618251800537L520.8169166666667,300.1953954696655L520.8728583333334,276.9620568752289L523.614,274.3449170589447L523.688588888889,245.9113163948059L523.7072361111111,278.25043749809265L524.0242388888888,236.98768687248227L524.3039472222222,279.07664251327515L524.4904194444445,294.77885913848877L524.6955388888889,288.8241608142853L524.788775,272.6138586997986L524.8820111111112,305.1785190105438L524.9566000000001,258.6604006290436L525.0684833333333,265.51749777793884L525.5160166666666,260.6065924167633L525.7024888888889,252.45074343681335L526.1873166666667,286.5459520816803L527.0264416666666,305.7147796154022L527.4553277777778,280.6913013458252L528.4063361111112,246.4130754470825L528.8538694444445,214.72737503051755L529.2081666666667,261.77601528167725L529.4692277777777,292.17807126045227L530.0845861111111,328.1731469631195L532.1917222222222,291.94547963142395L533.1054361111112,334.77435183525085L534.615861111111,298.90075755119324L534.8209805555556,310.7972939014435L535.193925,316.6924960613251L536.3127583333334,274.42477536201477L536.5551722222223,290.1791591644287L537.2451194444444,291.4456219673157L537.6180638888889,276.51408982276917L537.8231833333333,283.8051874637604L539.4268444444444,276.2214834690094L539.6133166666667,269.07568645477295L542.242575,272.3234648704529L542.9325222222222,232.80293893814084L542.9698166666667,238.22995018959043L543.5105861111111,269.639741897583L544.2378277777779,350.94946098327637L545.1328944444444,298.0271906852722L546.0279611111112,290.3753824234009L546.0652555555555,301.42431449890137L546.2144333333333,309.91449666023254L546.7738499999999,279.8595995903015L547.2027361111111,297.6169056892395L547.4637972222222,300.7959921360016L548.5266888888889,285.37424755096436L550.3168222222222,272.5250811576843L551.1559472222222,290.3382534980774L551.2305361111111,270.2224655151367L552.3493694444444,278.8807649612427L553.2071416666666,268.02452993392944L553.7665583333334,284.95400619506836L554.1767972222223,241.9102425575256L554.325975,310.95379543304443L556.6009361111111,280.2272243499756L557.1603527777778,292.17706871032715L557.5705916666667,352.27870416641235L558.18595,340.39482069015503L558.7267194444445,315.4242010116577L559.5658444444445,277.38565158843994L560.2930861111112,284.09195137023926L561.8967472222222,294.03251242637634L563.2579944444444,277.1804745197296L563.724175,263.3155174255371L563.9665888888889,274.31632709503174L564.134413888889,299.90175199508667L565.6075444444444,289.73167610168457L566.7077305555556,288.5805411338806L568.8335138888889,267.90951323509216L569.1132222222221,261.3641400337219L570.0828777777778,281.71798181533813L570.5863527777777,274.88511872291565L571.7424805555556,331.74592447280884L572.2086611111112,328.3925325870514L573.8682638888889,292.01980662345886L574.5582111111112,261.9546766281128L575.2108638888889,281.51000452041626L575.8262222222222,284.6628518104553L576.5907583333334,272.6064260005951L578.6046583333333,275.5358774662018L578.9030138888888,296.54559445381165L579.2946055555556,261.12283658981323L579.4624305555556,302.80254435539246L579.7607861111111,262.38729429244995L580.9355611111112,265.5523450374603L580.9542083333333,288.64968252182007L581.2152694444444,255.63892197608948L583.2664638888889,291.197473526001L583.5088777777778,236.05372500419614L583.7139972222222,276.99510645866394L585.5787194444445,310.84997963905334L586.8280833333333,314.73717761039734L587.6112666666667,344.7768635749817L590.5575277777778,272.4862582683563L592.1238944444444,277.6957161426544L592.1611888888889,288.34127736091614L592.9070777777778,276.7580897808075L592.925725,277.0899338722229L592.9443722222222,273.2623357772827L593.2427277777778,252.71887373924253L593.4851416666667,268.4805519580841L593.5224361111111,268.92371368408203L595.368511111111,274.74258375167847L598.1655944444444,234.95102357864377L599.3590166666667,319.69402742385864L599.4709,322.7354533672333L599.5827833333334,348.27870202064514L599.6573722222223,330.59333753585815L599.6760194444444,290.49050283432007L601.0745611111112,288.58105969429016L601.8204499999999,311.97981905937195L602.8460472222222,255.13360214233396L604.8785944444444,276.63048934936523L605.0837138888888,294.77547121047974L605.2328916666667,261.3655574321747L606.1279583333334,273.08070135116577L606.5754916666666,291.99847650527954L607.3213805555556,292.12376070022583L607.3773222222222,278.6500747203827L607.9553861111111,293.7003571987152L608.1418583333333,304.0718765258789L608.2723888888889,239.62245774269104L608.6080388888889,299.85757064819336L609.6709305555555,259.5500774383545L610.043875,226.08744335174558L610.0998166666667,260.31077098846436L610.4914083333333,246.20119166374207L612.0950694444444,329.73297667503357L613.7919666666667,323.06985569000244L613.8292611111111,319.8457236289978L614.4259722222222,336.5580267906189L614.7616222222222,312.6817078590393L620.0387861111111,274.44880199432373L620.5236138888889,260.36708664894104L621.3440916666667,219.2962379455566L622.3696888888888,278.5832841396332L623.5258166666666,308.5808975696564L623.7682305555555,269.7340853214264L625.4837749999999,246.12261247634885L626.0245444444444,313.65777683258057L626.7517861111111,294.2513794898987L627.9638555555556,314.45272994041443L631.9730083333333,296.7772526741028L633.446138888889,289.08741664886475L633.9309666666667,318.41014099121094L634.3412055555556,318.6109275817871L634.6955027777778,243.73865199089047L635.0684472222222,263.3160014152527L635.1616833333334,277.6191420555115L635.4600388888889,305.02488684654236L635.6838055555555,259.00382590293884L635.982161111111,274.0017337799072L636.4856361111111,273.7066729068756L637.7536472222223,297.8551323413849L638.6673611111111,303.63901686668396L638.909775,267.2207612991333L639.0589527777778,288.27002716064453L640.8304388888889,281.19482350349426L642.1730388888889,298.9762599468231L642.7883972222222,278.871258020401L642.9189277777778,297.3073251247406L643.0867527777779,288.9579493999481L644.0191138888889,317.9882056713104L644.0750555555555,304.4311351776123L644.4666472222223,268.42122864723206L644.6904138888889,310.86425733566284L645.0447111111112,317.93939185142517L645.3990083333333,260.9051103591919L647.9350305555556,277.9750473499298L649.4454555555556,269.82376170158386L649.4641027777777,270.53999733924866L650.0981083333334,255.43623399734497L650.4524055555556,285.2587468624115L651.3101777777778,290.47919821739197L652.6527777777778,269.85771012306213L652.7460138888889,234.25646376609802L653.2308416666666,309.46455907821655L654.0886138888889,295.78244638442993L654.3683222222222,267.177686214447L655.2074472222222,283.55866384506226L655.8973944444444,304.35822558403015L656.699225,293.4997088909149L657.0721694444444,265.7470471858978L657.1840527777778,323.72600746154785L657.4264666666667,275.053719997406L657.9485888888888,258.6722238063812L658.7504194444444,261.1949164867401L659.4963083333333,244.49191284179688L660.7456722222222,299.2731876373291L661.2118527777777,274.07409024238586L661.3423833333334,282.71600317955017L661.4169722222223,310.68825793266296L663.2630472222222,249.3863625526428L663.318988888889,265.6085569858551L664.0648777777777,269.0890998840332L664.6615888888889,255.12333464622495L665.8177166666667,252.85414886474607L666.0787777777778,300.643639087677L666.3957805555555,277.9869050979614L666.4144277777777,259.8500473499298L667.1976111111111,297.2361786365509L669.0436861111111,327.1780295372009L669.5471611111111,315.93277049064636L672.2696555555556,304.5497817993164L673.2579583333334,289.9205012321472L675.2718583333333,281.3289577960968L675.4769777777777,280.313547372818L677.7705861111111,249.243378162384L678.8707722222222,260.5393524169922L679.5607194444444,282.9241533279419L679.952311111111,290.6058306694031L680.6422583333334,356.0251648426056L681.3135583333333,332.936781167984L681.3322055555556,310.87580394744873L681.7983861111111,309.1218943595886L682.9545138888889,283.9813597202301L683.0663972222222,291.8244822025299L683.3461055555556,312.54460048675537L684.2784666666666,303.8868887424469L684.7632944444445,279.98471093177795L685.0802972222223,297.9455347061157L685.5091833333333,312.65004110336304L686.3669555555556,292.0200140476227L687.579025,296.7059679031372L687.7095555555555,270.80525827407837L687.8587333333334,268.04530692100525L688.7538,308.87862038612366L688.921625,239.3931849002838L690.0218111111111,251.7113800048828L690.264225,263.4587438106537L692.9680722222222,273.91855669021606L693.1918388888889,282.4504656791687L693.8071972222223,283.2720727920532L693.8444916666666,316.6207618713379L694.5903805555556,304.8371334075928L695.80245,354.33092427253723L697.1823444444445,281.20315504074097L698.0587638888888,286.9826145172119L698.7300638888889,272.8293378353119L699.2708333333334,300.4241843223572L699.8116027777778,286.11516666412354L700.0540166666667,291.5081603527069L700.1099583333333,278.6940140724182L701.340675,270.93327355384827L701.3966166666667,290.2403492927551L702.1984472222223,272.91331005096436L702.9256888888889,284.6228189468384L703.1121611111112,293.75501346588135L703.1681027777778,256.73432898521423L704.1564055555556,265.85380148887634L706.2635416666667,290.8383877277374L706.6178388888889,279.977796792984L706.7483694444445,249.74520635604858L706.7670166666667,262.99981784820557L706.8975472222222,284.7879285812378L708.1096166666666,332.6087052822113L708.6317388888889,309.21264243125916L708.8555055555556,280.3174192905426L709.0979194444445,326.78129625320435L709.22845,274.6609969139099L710.738875,282.0782775878906L711.3542333333334,321.9193775653839L711.4288222222223,308.46366834640503L711.9322972222222,284.4273908138275L711.9695916666667,297.3926455974579L713.2189555555556,296.7681951522827L713.6478416666667,300.43759775161743L714.9531472222222,281.2303276062012L715.1396194444445,226.87005472183225L715.4566222222222,302.53009271621704L715.5871527777778,292.2944016456604L715.6430944444444,280.8560652732849L715.9041555555556,269.0537340641022L716.109275,264.3160970211029L718.6452972222222,265.465918302536L719.3352444444445,281.2022216320038L720.3608416666667,278.0561156272888L720.4913722222221,270.8496470451355L721.7034416666667,326.8303520679474L722.1696222222222,300.3623719215393L722.3374472222223,308.8311548233032L722.5612138888889,301.8069429397583L722.9155111111111,305.1009078025818L723.2325138888889,273.0032284259796L723.5122222222222,291.6008789539337L724.2394638888888,279.92500734329224L724.4632305555556,320.21922540664673L724.9294111111111,282.64489126205444L725.4888277777778,277.1530599594116L725.6193583333334,303.54045581817627L726.7008972222222,265.3115601539612L726.9060166666667,291.85424757003784L727.5586694444444,282.77712416648865L727.9129666666668,286.1805398464203L728.0434972222222,316.04993057250977L728.9012694444444,289.2056484222412L729.870925,236.82295751571655L729.9268666666667,273.77481174468994L730.5795194444445,292.39196014404297L731.8475305555555,312.3875458240509L732.3137111111112,241.47679519653317L732.9477166666666,289.74173617362976L733.0036583333334,257.248464345932L733.9733138888888,256.55774188041687L733.9919611111111,290.1090843677521L734.1411388888889,272.23465275764465L734.3835527777778,263.35921478271484L735.40915,368.96234822273254L735.912625,341.7878122329712L737.0314583333333,322.4444718360901L737.0501055555555,321.6963965892792L737.5349333333334,317.2729380130768L737.7587,281.82566952705383L738.0384083333333,290.6727249622345L738.4113527777778,307.0991976261139L738.5791777777778,309.6493740081787L738.7470027777778,298.0300600528717L739.3064194444444,303.7665481567383L740.2201333333334,303.2345051765442L741.2457305555556,263.27112865448L741.8424416666667,290.3830225467682L742.2526805555556,257.14312744140625L743.6139277777777,262.26429176330566L745.0684111111111,277.00364542007446L746.4483055555555,269.5715684890747L747.3620194444445,264.9050087928772L748.0333194444445,273.29908442497253L749.1894472222222,313.10713481903076L750.1404555555555,307.80108642578125L750.6252833333333,318.5447247028351L750.6812249999999,330.470196723938L752.0984138888889,275.4176456928253L752.4900055555555,306.2099356651306L752.6391833333333,315.5109043121338L752.8815972222222,305.1918978691101L752.9188916666667,278.5609860420227L753.030775,289.1649241447449L754.2241972222222,293.9583582878113L754.8582027777778,260.8086926937103L754.8954972222222,297.07120728492737L754.9141444444444,303.6990315914154L756.5178055555556,272.17792224884033L756.5737472222222,264.2352361679077L757.0772222222223,273.1065948009491L760.2658972222222,284.21222281455994L760.3964277777777,269.88474440574646L761.086375,258.14657640457153L761.6271444444445,261.549058675766L761.7203805555555,258.25837802886963L762.5035638888888,309.01908111572266L763.6596916666667,317.5948603153229L763.9766944444444,287.73943614959717L763.9953416666666,294.1912956237793L765.2260583333334,287.1974368095398L765.3752361111111,282.55569887161255L765.5990027777777,311.5003926753998L766.28895,242.29031276702878L766.3075972222223,327.80368995666504L766.3635388888889,318.4800429344177L767.5942555555555,253.36268377304077L768.5639111111111,299.88661003112793L768.8436194444445,316.52067971229553L769.1233277777778,273.92896246910095L769.4216833333334,256.7145891189575L769.6640972222223,276.99130368232727L770.3167500000001,265.1433045864105L770.6710472222222,282.79835057258606L770.8015777777778,270.3088231086731L775.1463805555555,258.56598806381226L775.6498555555556,241.369660615921" style="fill: none;" fill="none"></path></g></g></g></g></g></g><g transform="translate(48, 377)" clip-path="url(#clip_1)"><clipPath id="clip_1"><rect width="839" height="23"></rect></clipPath><g><g><line x1="0" y1="0" x2="0" y2="5" style="visibility: inherit;" fill="rgb(0, 0, 0)" stroke="rgb(204, 204, 204)" stroke-width="1px"></line><line x1="93.2361111111111" y1="0" x2="93.2361111111111" y2="5" style="visibility: inherit;" fill="rgb(0, 0, 0)" stroke="rgb(204, 204, 204)" stroke-width="1px"></line><line x1="186.4722222222222" y1="0" x2="186.4722222222222" y2="5" style="visibility: inherit;" fill="rgb(0, 0, 0)" stroke="rgb(204, 204, 204)" stroke-width="1px"></line><line x1="279.7083333333333" y1="0" x2="279.7083333333333" y2="5" style="visibility: inherit;" fill="rgb(0, 0, 0)" stroke="rgb(204, 204, 204)" stroke-width="1px"></line><line x1="372.9444444444444" y1="0" x2="372.9444444444444" y2="5" style="visibility: inherit;" fill="rgb(0, 0, 0)" stroke="rgb(204, 204, 204)" stroke-width="1px"></line><line x1="466.1805555555556" y1="0" x2="466.1805555555556" y2="5" style="visibility: inherit;" fill="rgb(0, 0, 0)" stroke="rgb(204, 204, 204)" stroke-width="1px"></line><line x1="559.4166666666666" y1="0" x2="559.4166666666666" y2="5" style="visibility: inherit;" fill="rgb(0, 0, 0)" stroke="rgb(204, 204, 204)" stroke-width="1px"></line><line x1="652.6527777777778" y1="0" x2="652.6527777777778" y2="5" style="visibility: inherit;" fill="rgb(0, 0, 0)" stroke="rgb(204, 204, 204)" stroke-width="1px"></line><line x1="745.8888888888888" y1="0" x2="745.8888888888888" y2="5" style="visibility: inherit;" fill="rgb(0, 0, 0)" stroke="rgb(204, 204, 204)" stroke-width="1px"></line><line x1="839.125" y1="0" x2="839.125" y2="5" style="visibility: inherit;" fill="rgb(0, 0, 0)" stroke="rgb(204, 204, 204)" stroke-width="1px"></line></g><g transform="translate(0, 8)"><text x="0" y="0" dx="0em" dy="0.95em" style="text-anchor: middle; visibility: hidden; font-family: &quot;Helvetica Neue&quot;, sans-serif; font-size: 12px; font-weight: 200;" fill="rgb(50, 49, 63)" stroke="none" stroke-width="1px">-5k</text><text x="93.2361111111111" y="0" dx="0em" dy="0.95em" style="text-anchor: middle; visibility: inherit; font-family: &quot;Helvetica Neue&quot;, sans-serif; font-size: 12px; font-weight: 200;" fill="rgb(50, 49, 63)" stroke="none" stroke-width="1px">0</text><text x="186.4722222222222" y="0" dx="0em" dy="0.95em" style="text-anchor: middle; visibility: inherit; font-family: &quot;Helvetica Neue&quot;, sans-serif; font-size: 12px; font-weight: 200;" fill="rgb(50, 49, 63)" stroke="none" stroke-width="1px">5k</text><text x="279.7083333333333" y="0" dx="0em" dy="0.95em" style="text-anchor: middle; visibility: inherit; font-family: &quot;Helvetica Neue&quot;, sans-serif; font-size: 12px; font-weight: 200;" fill="rgb(50, 49, 63)" stroke="none" stroke-width="1px">10k</text><text x="372.9444444444444" y="0" dx="0em" dy="0.95em" style="text-anchor: middle; visibility: inherit; font-family: &quot;Helvetica Neue&quot;, sans-serif; font-size: 12px; font-weight: 200;" fill="rgb(50, 49, 63)" stroke="none" stroke-width="1px">15k</text><text x="466.1805555555556" y="0" dx="0em" dy="0.95em" style="text-anchor: middle; visibility: inherit; font-family: &quot;Helvetica Neue&quot;, sans-serif; font-size: 12px; font-weight: 200;" fill="rgb(50, 49, 63)" stroke="none" stroke-width="1px">20k</text><text x="559.4166666666666" y="0" dx="0em" dy="0.95em" style="text-anchor: middle; visibility: inherit; font-family: &quot;Helvetica Neue&quot;, sans-serif; font-size: 12px; font-weight: 200;" fill="rgb(50, 49, 63)" stroke="none" stroke-width="1px">25k</text><text x="652.6527777777778" y="0" dx="0em" dy="0.95em" style="text-anchor: middle; visibility: inherit; font-family: &quot;Helvetica Neue&quot;, sans-serif; font-size: 12px; font-weight: 200;" fill="rgb(50, 49, 63)" stroke="none" stroke-width="1px">30k</text><text x="745.8888888888888" y="0" dx="0em" dy="0.95em" style="text-anchor: middle; visibility: inherit; font-family: &quot;Helvetica Neue&quot;, sans-serif; font-size: 12px; font-weight: 200;" fill="rgb(50, 49, 63)" stroke="none" stroke-width="1px">35k</text><text x="839.125" y="0" dx="0em" dy="0.95em" style="text-anchor: middle; visibility: hidden; font-family: &quot;Helvetica Neue&quot;, sans-serif; font-size: 12px; font-weight: 200;" fill="rgb(50, 49, 63)" stroke="none" stroke-width="1px">40k</text></g><line x1="0" y1="0" x2="839.125" y2="0" fill="rgb(0, 0, 0)" stroke="rgb(204, 204, 204)" stroke-width="1px"></line></g></g></g></g></svg>