<svg viewBox="0 0 330 200" xmlns="http://www.w3.org/2000/svg"><g><g><g><g><g><line x1="48.875" y1="177" x2="43.875" y2="177" style="visibility: inherit;" fill="rgb(0, 0, 0)" stroke="rgb(204, 204, 204)" stroke-width="1px"></line><line x1="48.875" y1="159.29999999999998" x2="43.875" y2="159.29999999999998" style="visibility: inherit;" fill="rgb(0, 0, 0)" stroke="rgb(204, 204, 204)" stroke-width="1px"></line><line x1="48.875" y1="141.60000000000002" x2="43.875" y2="141.60000000000002" style="visibility: inherit;" fill="rgb(0, 0, 0)" stroke="rgb(204, 204, 204)" stroke-width="1px"></line><line x1="48.875" y1="123.89999999999999" x2="43.875" y2="123.89999999999999" style="visibility: inherit;" fill="rgb(0, 0, 0)" stroke="rgb(204, 204, 204)" stroke-width="1px"></line><line x1="48.875" y1="106.20000000000002" x2="43.875" y2="106.20000000000002" style="visibility: inherit;" fill="rgb(0, 0, 0)" stroke="rgb(204, 204, 204)" stroke-width="1px"></line><line x1="48.875" y1="88.5" x2="43.875" y2="88.5" style="visibility: inherit;" fill="rgb(0, 0, 0)" stroke="rgb(204, 204, 204)" stroke-width="1px"></line><line x1="48.875" y1="70.79999999999998" x2="43.875" y2="70.79999999999998" style="visibility: inherit;" fill="rgb(0, 0, 0)" stroke="rgb(204, 204, 204)" stroke-width="1px"></line><line x1="48.875" y1="53.10000000000001" x2="43.875" y2="53.10000000000001" style="visibility: inherit;" fill="rgb(0, 0, 0)" stroke="rgb(204, 204, 204)" stroke-width="1px"></line><line x1="48.875" y1="35.400000000000006" x2="43.875" y2="35.400000000000006" style="visibility: inherit;" fill="rgb(0, 0, 0)" stroke="rgb(204, 204, 204)" stroke-width="1px"></line><line x1="48.875" y1="17.700000000000017" x2="43.875" y2="17.700000000000017" style="visibility: inherit;" fill="rgb(0, 0, 0)" stroke="rgb(204, 204, 204)" stroke-width="1px"></line><line x1="48.875" y1="0" x2="43.875" y2="0" style="visibility: inherit;" fill="rgb(0, 0, 0)" stroke="rgb(204, 204, 204)" stroke-width="1px"></line></g><g transform="translate(38.875, 0)"><text x="0" y="177" dx="0em" dy="0.3em" style="text-anchor: end; visibility: hidden; font-family: &quot;Helvetica Neue&quot;, sans-serif; font-size: 12px; font-weight: 200;" fill="rgb(50, 49, 63)" stroke="none" stroke-width="1px">0.5</text><text x="0" y="159.29999999999998" dx="0em" dy="0.3em" style="text-anchor: end; visibility: inherit; font-family: &quot;Helvetica Neue&quot;, sans-serif; font-size: 12px; font-weight: 200;" fill="rgb(50, 49, 63)" stroke="none" stroke-width="1px">0.55</text><text x="0" y="141.60000000000002" dx="0em" dy="0.3em" style="text-anchor: end; visibility: hidden; font-family: &quot;Helvetica Neue&quot;, sans-serif; font-size: 12px; font-weight: 200;" fill="rgb(50, 49, 63)" stroke="none" stroke-width="1px">0.6</text><text x="0" y="123.89999999999999" dx="0em" dy="0.3em" style="text-anchor: end; visibility: inherit; font-family: &quot;Helvetica Neue&quot;, sans-serif; font-size: 12px; font-weight: 200;" fill="rgb(50, 49, 63)" stroke="none" stroke-width="1px">0.65</text><text x="0" y="106.20000000000002" dx="0em" dy="0.3em" style="text-anchor: end; visibility: hidden; font-family: &quot;Helvetica Neue&quot;, sans-serif; font-size: 12px; font-weight: 200;" fill="rgb(50, 49, 63)" stroke="none" stroke-width="1px">0.7</text><text x="0" y="88.5" dx="0em" dy="0.3em" style="text-anchor: end; visibility: inherit; font-family: &quot;Helvetica Neue&quot;, sans-serif; font-size: 12px; font-weight: 200;" fill="rgb(50, 49, 63)" stroke="none" stroke-width="1px">0.75</text><text x="0" y="70.79999999999998" dx="0em" dy="0.3em" style="text-anchor: end; visibility: hidden; font-family: &quot;Helvetica Neue&quot;, sans-serif; font-size: 12px; font-weight: 200;" fill="rgb(50, 49, 63)" stroke="none" stroke-width="1px">0.8</text><text x="0" y="53.10000000000001" dx="0em" dy="0.3em" style="text-anchor: end; visibility: inherit; font-family: &quot;Helvetica Neue&quot;, sans-serif; font-size: 12px; font-weight: 200;" fill="rgb(50, 49, 63)" stroke="none" stroke-width="1px">0.85</text><text x="0" y="35.400000000000006" dx="0em" dy="0.3em" style="text-anchor: end; visibility: hidden; font-family: &quot;Helvetica Neue&quot;, sans-serif; font-size: 12px; font-weight: 200;" fill="rgb(50, 49, 63)" stroke="none" stroke-width="1px">0.9</text><text x="0" y="17.700000000000017" dx="0em" dy="0.3em" style="text-anchor: end; visibility: inherit; font-family: &quot;Helvetica Neue&quot;, sans-serif; font-size: 12px; font-weight: 200;" fill="rgb(50, 49, 63)" stroke="none" stroke-width="1px">0.95</text><text x="0" y="0" dx="0em" dy="0.3em" style="text-anchor: end; visibility: hidden; font-family: &quot;Helvetica Neue&quot;, sans-serif; font-size: 12px; font-weight: 200;" fill="rgb(50, 49, 63)" stroke="none" stroke-width="1px">1</text></g><line x1="48.875" y1="0" x2="48.875" y2="177" fill="rgb(0, 0, 0)" stroke="rgb(204, 204, 204)" stroke-width="1px"></line></g></g><g transform="translate(48, 0)" clip-path="url(#clip_0)"><clipPath id="clip_0"><rect width="281" height="177"></rect></clipPath><g><g><g><line x1="0" y1="0" x2="0" y2="177" fill="rgb(0, 0, 0)" stroke="rgb(60, 60, 60)" stroke-width="1px" opacity="0.25"></line><line x1="35.140625" y1="0" x2="35.140625" y2="177" fill="rgb(0, 0, 0)" stroke="rgb(60, 60, 60)" stroke-width="1px" opacity="0.25"></line><line x1="70.28125" y1="0" x2="70.28125" y2="177" fill="rgb(0, 0, 0)" stroke="rgb(60, 60, 60)" stroke-width="1px" opacity="0.25"></line><line x1="105.421875" y1="0" x2="105.421875" y2="177" fill="rgb(0, 0, 0)" stroke="rgb(60, 60, 60)" stroke-width="1px" opacity="0.25"></line><line x1="140.5625" y1="0" x2="140.5625" y2="177" fill="rgb(0, 0, 0)" stroke="rgb(60, 60, 60)" stroke-width="1px" opacity="0.25"></line><line x1="175.703125" y1="0" x2="175.703125" y2="177" fill="rgb(0, 0, 0)" stroke="rgb(60, 60, 60)" stroke-width="1px" opacity="0.25"></line><line x1="210.84375" y1="0" x2="210.84375" y2="177" fill="rgb(0, 0, 0)" stroke="rgb(60, 60, 60)" stroke-width="1px" opacity="0.25"></line><line x1="245.984375" y1="0" x2="245.984375" y2="177" fill="rgb(0, 0, 0)" stroke="rgb(60, 60, 60)" stroke-width="1px" opacity="0.25"></line><line x1="281.125" y1="0" x2="281.125" y2="177" fill="rgb(0, 0, 0)" stroke="rgb(60, 60, 60)" stroke-width="1px" opacity="0.25"></line></g><g><line x1="0" y1="177" x2="281.125" y2="177" fill="rgb(0, 0, 0)" stroke="rgb(60, 60, 60)" stroke-width="1px" opacity="0.25"></line><line x1="0" y1="159.29999999999998" x2="281.125" y2="159.29999999999998" fill="rgb(0, 0, 0)" stroke="rgb(60, 60, 60)" stroke-width="1px" opacity="0.25"></line><line x1="0" y1="141.60000000000002" x2="281.125" y2="141.60000000000002" fill="rgb(0, 0, 0)" stroke="rgb(60, 60, 60)" stroke-width="1px" opacity="0.25"></line><line x1="0" y1="123.89999999999999" x2="281.125" y2="123.89999999999999" fill="rgb(0, 0, 0)" stroke="rgb(60, 60, 60)" stroke-width="1px" opacity="0.25"></line><line x1="0" y1="106.20000000000002" x2="281.125" y2="106.20000000000002" fill="rgb(0, 0, 0)" stroke="rgb(60, 60, 60)" stroke-width="1px" opacity="0.25"></line><line x1="0" y1="88.5" x2="281.125" y2="88.5" fill="rgb(0, 0, 0)" stroke="rgb(60, 60, 60)" stroke-width="1px" opacity="0.25"></line><line x1="0" y1="70.79999999999998" x2="281.125" y2="70.79999999999998" fill="rgb(0, 0, 0)" stroke="rgb(60, 60, 60)" stroke-width="1px" opacity="0.25"></line><line x1="0" y1="53.10000000000001" x2="281.125" y2="53.10000000000001" fill="rgb(0, 0, 0)" stroke="rgb(60, 60, 60)" stroke-width="1px" opacity="0.25"></line><line x1="0" y1="35.400000000000006" x2="281.125" y2="35.400000000000006" fill="rgb(0, 0, 0)" stroke="rgb(60, 60, 60)" stroke-width="1px" opacity="0.25"></line><line x1="0" y1="17.700000000000017" x2="281.125" y2="17.700000000000017" fill="rgb(0, 0, 0)" stroke="rgb(60, 60, 60)" stroke-width="1px" opacity="0.25"></line><line x1="0" y1="0" x2="281.125" y2="0" fill="rgb(0, 0, 0)" stroke="rgb(60, 60, 60)" stroke-width="1px" opacity="0.25"></line></g></g></g><g><g><line x1="0" y1="354" x2="281.125" y2="354" fill="rgb(0, 0, 0)" stroke="rgb(153, 153, 153)" stroke-width="1.5px"></line></g></g><g><g><line x1="35.140625" y1="0" x2="35.140625" y2="177" fill="rgb(0, 0, 0)" stroke="rgb(153, 153, 153)" stroke-width="1.5px"></line></g></g><g><g><g><g><g><path stroke="rgb(255, 112, 67)" stroke-width="2px" d="M44.509115625,-7.025096892611856L44.537228125000006,8.285916301632625L44.874578125,2.402830389206656L44.923775,-6.271887147390004L45.233012499999994,-2.702559663196894L45.443856249999996,17.553821499673774L45.844459375,27.253951369059024L46.048275000000004,26.77366579668626L46.160725000000006,31.546238786738343L46.273175,39.80169632856385L46.66675,29.828630750189973L47.025184375,38.146350756241986L47.151690625,41.54295037685736L47.214943749999996,34.629486456486774L47.32739375,43.55540064275223L47.348478125,32.53872429906144L47.657715625,48.84014246213755L48.1004875,42.285364421295526L48.25510625,37.86209880833968L48.276190625,35.10646254733254L48.332415624999996,41.903867953509945L48.613540625,54.14765696137658L48.73301875,49.809569861945434L48.824384375,44.17471720365097L49.4498875,36.11069298736692L49.871575,31.07773604960701L50.511134375,36.614147990771954L50.595471875,42.733194261687316L50.820371875,44.3900319992884L50.862540625,53.36569902058743L51.003103125,48.10915687534995L51.03824375,68.88958570273988L51.354509375,72.57775166578452L51.438846875,65.35065180627919L51.68483125,71.19523076157816L51.930815625,67.70055301154287L51.93784375,56.852519888667075L52.261137500000004,67.45855358778701L52.380615625,60.49544493877451L52.394671875,59.43758421256281L52.4298125,66.3608023471483L52.605515625,63.9044016448765L52.61254375,57.55296527434044L52.696881250000004,63.781707066825945L52.732021875,60.02876559408422L52.9358375,50.0200167626853L53.041259375,48.93945871178599L53.083428125,47.835185685064175L54.011140624999996,53.984948395672916L54.3976875,47.47811679779497L54.742065625,48.17586152994042L55.494074999999995,54.430063207408224L55.993071875,67.7500532385471L56.302309375,72.3484343002297L56.492068749999994,68.825245482329L56.513153125,63.24391127979962L56.920784375,67.47508221480972L57.356528125000004,72.90794280537206L57.6025125,66.95215575318477L57.84146875,76.71751537573897L57.939862500000004,79.10723399312833L57.95391875,78.6378158521148L57.960946875,83.65750044533566L58.368578125,71.33806968896961L59.5985,58.74402652483808L60.441874999999996,59.069328035721924L60.56838125,56.41022999632939L60.5824375,57.04677605359903L60.93384375,73.3319589598724L61.32741875,79.62807709597045L61.432840625,80.52218217028674L61.798303125,81.94090558513103L61.945893749999996,86.93624740495743L61.995090625,84.37327855619465L62.7471,84.03753300781653L62.943887499999995,81.96855452224972L63.140675,85.12772513964988L63.506137499999994,79.51636348688135L63.94188125,74.20402957513055L64.63063749999999,81.852396592582L64.84850937499999,75.41882964675709L64.88365,79.48552034321479L65.389675,82.23497957004939L65.48104062499999,86.5144886613717L65.495096875,85.74077422862231L66.064375,93.40335421231376L66.71096250000001,93.13329079429501L66.830440625,100.22869736361618L66.97803125,100.5016199493892L67.6667875,86.45396197703403L67.91980000000001,80.54907596628026L67.9479125,83.27399690461253L68.0041375,93.60625266737995L68.52421875,85.73471245591196L68.7912875,86.24008389368267L68.88968125,82.18223989042406L69.15675,74.19867761154627L69.24108749999999,80.58900637161526L69.53626874999999,78.21202580172888L70.01418125,75.39656834625646L70.077434375,74.32852981581358L70.09851875,81.79639462288657L70.63265625,83.81743914876249L70.6467125,80.93401555415313L71.02623125,83.9819651376982L71.22301875000001,99.96485557149528L71.960971875,100.58451369995281L72.593503125,102.26481516119483L72.705953125,90.25949310634519L72.80434687500001,94.07264985665073L73.2330625,103.49570111050836L73.91479062500001,98.42808453807015L74.139690625,90.1363550220059L74.947925,88.54688693249983L75.053346875,91.71742916801432L75.362584375,90.37135205685414L75.959975,89.55634609472347L76.079453125,90.07434634930841L76.1005375,93.66531718115179L76.35355,108.98297660553553L76.40274687499999,114.56899262073097L76.655759375,117.49280305267843L76.80335,123.63996660447998L77.23909375,115.8968600019031L77.37965625,122.01298921014151L78.159778125,109.31248436394503L78.230059375,108.66221815361482L78.715,101.98695448645294L78.806365625,101.18393056159222L78.848534375,102.14852424004677L78.9399,99.49607875072363L79.340503125,103.6531412728036L79.50215,109.14611707493094L79.537290625,106.33774415471811L79.95195,104.31801462065376L80.12062499999999,111.34373545581816L80.79532499999999,104.66046338042449L80.964,93.89256108260649L81.34351875,99.17729437623318L81.547334375,113.98346679373915L81.926853125,122.389541202571L82.20094999999999,127.33844664918541L82.22203437499999,117.08014685646987L82.306371875,115.88742474756415L82.52424375,122.95938737417325L83.25516875000001,122.81360382571859L83.31139375000001,120.95253993710898L83.416815625,126.2072287657322L84.09854375,124.18788105597866L84.28127500000001,117.49943522423965L84.43589375,117.20721704846898L85.08248124999999,116.69489311627314L85.13870625,117.40809945733407L85.426859375,119.74694454950725L85.855575,112.52412307430887L86.07344687499999,111.27159369092934L86.52324687500001,102.66628511012642L86.720034375,104.2666685060325L86.7270625,117.18311201784985L86.860596875,126.91149551423771L87.02224375,130.06399230213395L87.155778125,128.57619168789046L87.50015625,120.12888523597036L87.5704375,123.39080727492878L87.591521875,122.20725267168942L87.69694375,124.31821270607153L87.92887187500001,124.54763715161226L89.16582187499999,121.61675458367672L89.20799062500001,116.9428403688431L89.678875,123.03337585407257L89.87566249999999,121.16282779859161L89.94594375,116.8664530687729L90.191928125,111.7539389951944L90.6628125,105.52642040395257L90.88771249999999,109.322844487092L91.30237187499999,101.8371683011419L91.54835625,99.88950796425144L91.710003125,98.38910090625164L91.82948125,112.0212927085154L92.63068750000001,118.82080837619262L92.876671875,118.59986455757591L92.918840625,121.23007054042324L93.40378125,120.37606798953712L93.71301874999999,115.25714699832739L93.91683437500001,120.11981616263469L93.951975,119.16122981217431L94.015228125,112.28534314815357L94.647759375,112.090808473731L94.66884375,115.59694838685093L94.86563125,118.8224794874328L94.9359125,114.99184813557494L95.34354375,113.76719149624364L95.589528125,114.35655188962852L95.82145625,107.89400139096398L95.828484375,102.68860310699353L96.25017187499999,109.49882608882072L97.121659375,122.55923069853475L97.14274375000001,126.30350812279518L97.53631874999999,131.0425299644669L97.71905000000001,127.7350185299039L97.740134375,132.92737944031478L97.887725,133.79302486839723L97.936921875,139.1985409323146L98.344553125,133.5483169593674L98.38672187499999,133.25072322119846L98.780296875,131.37458401816832L99.98210625,116.9249568337068L100.031303125,114.95564305507332L100.2210625,107.14235308005325L100.6146375,106.73785687824434L100.8395375,111.511795957925L101.2893375,113.00061376097328L101.310421875,104.13245005132273L101.450984375,112.40696865750262L101.6829125,118.91935962696617L102.238134375,129.31044956600516L102.28733125000001,133.84453280303387L102.378696875,133.81121597011986L102.533315625,136.65967560601294L102.800384375,140.73537455077204L103.011228125,137.40655580803892L103.172875,138.7573267438718L103.29938125,132.38377283923077L103.79135,135.49503936119228L104.318459375,136.4674612387857L104.768259375,124.8380061927343L105.2250875,120.01526380437045L105.82950625000001,114.61996336494343L106.0122375,115.71245310136351L106.6026,112.95910819428369L107.3616375,120.30063219104531L107.410834375,122.72348439237068L108.20501250000001,123.67081153118963L108.22609687500001,121.85640513732645L108.3736875,126.61415312191615L108.788346875,129.70279296339015L108.858628125,129.64768042624274L108.88674062499999,133.32632168805767L109.09055625,131.70598373816114L109.322484375,127.97771006825985L109.687946875,128.5507147193159L109.807425,129.44100865603716L109.90581875000001,124.6595521502568L110.01826874999999,117.98769911127533L110.13774687499999,120.45707650182987L110.418871875,124.77641412733999L110.74216562500001,124.59162224006062L110.74919375,116.81548083228711L110.9038125,120.58795688392428L111.14979687499999,121.48037007952755L111.220078125,122.44470593634264L111.33252812500001,124.98164475740799L111.39578125,119.52495153416282L111.494175,108.05544209283046L111.76124375,109.68324923396975L111.782328125,105.58384523320717L112.02128437500001,114.7874717326672L112.049396875,111.05329454014965L112.21104375,116.11104877036968L112.2532125,113.55656122709608L112.26726875,114.8324449512082L112.54839375,126.38108527974589L112.5905625,131.97502491662684L112.681928125,132.16561401957145L112.71706875,144.62589033290072L113.16686875,141.62829799559307L113.300403125,132.8728976434862L113.36365625,135.5340308300492L113.67992187499999,139.33050007533058L113.84156875,140.05434648341554L113.855625,134.8771650799907L113.86265312500001,136.1954426770685L114.2773125,131.99673829110137L115.394784375,126.93249584216878L115.767275,120.85182195293312L115.9078375,127.23278349272849L116.12570937500001,113.34318905849723L116.1889625,119.1558220254151L116.308440625,115.11677970092106L116.42791875,121.58848308086755L116.645790625,109.75551694965579L117.004225,116.74903074703346L117.16587187500001,120.05758676410753L117.26426562500001,111.31393867421767L117.784346875,125.42683785968197L118.585553125,127.87004209645494L119.260253125,123.45125513725222L119.29539375,120.17191904457056L119.54840625,130.79610639614847L119.766278125,128.8687304365813L120.44800625,124.81232321907157L120.6307375,123.48290584474252L120.65885,129.79292348616985L120.7713,124.21832144018217L121.06648125,120.26224129054665L121.51628125,119.35778928192687L121.537365625,119.97335014577052L121.649815625,111.00314875742998L122.32451562499999,115.80875384987118L122.69700625,124.40962121594382L123.36467812500001,133.86577304427882L124.193996875,134.0282423032824L124.390784375,129.44936325153728L124.80544375000001,132.1614612698616L125.135765625,125.78290753126508L125.641790625,127.46469300127248L125.77532500000001,126.1743321009649L126.077534375,132.2893812887772L126.218096875,126.24215270476962L126.62572812500001,119.1967140281047L126.74520625,115.20545903705629L126.934965625,117.04834608950063L127.08255625,118.45031450222638L127.16689375,124.7398308159751L127.27231562499999,124.29830036412729L127.300428125,111.63219400555523L127.41990625,114.34048416799683L127.67291875,114.45575009933938L127.95404375,129.64104887933627L128.185971875,138.82460129911362L128.959065625,134.56993611249123L129.33155625,134.5496909117269L129.35966875,136.0184714970331L129.50023125,135.60898262127284L129.844609375,126.19673799195313L130.048425,130.91988572310458L130.34360625,124.7788452197972L130.702040625,128.78322896300932L130.8636875,126.10868216120707L131.27834687499998,126.87210488655273L131.29943125,132.0872732182628L131.756259375,118.00713592650212L131.960075,111.85443452526161L132.19903125,116.85829384046212L132.445015625,109.34754614184749L132.6066625,111.43093674272569L132.7191125,127.51919742161195L133.232165625,131.31980335553982L133.3657,136.59894740486442L133.52031875,133.6342123741168L134.096625,130.38471515144457L135.087590625,123.51473969915835L135.551446875,129.39093443572122L135.60064375,116.92913930904626L135.663896875,121.08674479300832L135.783375,117.33036933407223L135.8677125,112.19662433901449L135.90988124999998,120.58135646604907L136.324540625,119.71185532822255L136.675946875,117.28334364661004L137.00626875,118.56789198737397L137.25928125000002,115.00157441628608L137.42795625,121.61116198261162L137.449040625,115.75507180428254L137.97615,107.08460064253656L138.01831875,109.50400840950876L138.2291625,123.08442270584624L138.292415625,132.96884200470276L138.320528125,138.1771040290393L138.36269687499998,137.83644649564013L139.009284375,138.46920889126534L139.0163125,141.454206952496L139.07253749999998,136.59442964139203L139.10065,137.29816612567078L139.220128125,140.09749680140956L139.669928125,135.5165010772904L139.8034625,135.7209476758695L140.04241875,134.9376978951488L140.752259375,126.88087263570988L141.19503125,120.21593508044934L141.51832499999998,116.60469008040465L141.8275625,119.44064541192076L141.96109687499998,116.70392558295264L142.43198125,114.8453481514378L142.8396125,117.36035458559533L143.001259375,107.86252036282262L143.5705375,118.46762146108651L143.886803125,117.88502019377532L143.90085937499998,126.81077724535453L144.125759375,135.5596840729665L144.34363125,140.26430942716308L144.758290625,134.34879671396084L145.76331249999998,133.94930369175236L145.9319875,123.01107520173049L145.995240625,115.75271440929205L146.037409375,118.65144582620877L146.36070312500001,111.96868641395338L146.3817875,113.51795558463913L146.515321875,113.48193686205973L147.443034375,112.88196497558852L147.541428125,117.58346045851289L148.258296875,115.07740681671847L148.4058875,130.9275229054913L148.9119125,138.9470263527766L149.340628125,132.39624487202974L149.846653125,140.5855570008851L150.00127187500001,141.26156331124884L150.12075000000002,131.539390617746L150.44404375,133.45268128760927L150.68300000000002,134.4431902792947L151.139828125,130.21617776315787L151.519346875,129.47697662211283L151.702078125,123.25908278761403L151.73721874999998,124.49105157457647L152.236215625,126.7360586047343L152.489228125,124.79276412249632L152.83360625,123.73056589079513L153.26935,131.6118665368117L153.27637812499998,128.0856006521438L153.51533437499998,139.4713036762747L153.61372812500002,144.61855371875004L153.908909375,146.81129970599673L155.08260625,150.4289452460376L155.300478125,142.18087088030384L155.53943437499998,136.10903126574638L155.96814999999998,130.91953901396445L156.03843125,126.15271427599345L156.298471875,122.69513370017859L156.354696875,128.1621209706107L156.5304,125.42573699505559L156.65690625000002,128.58788028449675L156.6709625,128.21997522765912L156.832609375,128.5305313077838L156.83963749999998,129.74597319407886L156.846665625,115.69413404729141L156.86775,116.72757356802329L157.001284375,117.38675676250281L157.24726875000002,109.32739454784289L157.465140625,110.74993218349395L157.61273125,113.54709800104487L157.7392375,122.53193769466988L157.80951875,122.95085240371294L158.43502187500002,121.16224895100157L158.533415625,115.01396075594641L158.673978125,130.65981082742343L158.73723125,138.92240155115678L158.78642812500001,143.2775581620631L158.79345625,150.69963073387726L158.99727187500002,142.41725048813214L159.06755312500002,141.47691799040433L159.208115625,139.4873936226117L159.69305625,144.05701260865612L160.037434375,145.21843288600974L160.26936250000003,136.83899973786194L160.53643125,138.45359157893847L161.316553125,135.45099763496987L161.49225625,138.77008440747426L161.51334062499998,136.30135847720243L161.57659375,132.20458675380192L161.77338125,126.52922273251797L162.019365625,117.77069521292078L162.103703125,118.93828869071024L162.3778,112.68443055275927L162.553503125,107.58246399953278L162.67298125,107.89499546286054L163.15089375000002,112.42969737766138L163.3055125,123.48675776909559L163.5023,124.12243710393173L163.88181874999998,139.2010045673517L164.816559375,149.4358918563168L164.8235875,142.775022262075L165.491259375,139.98051094635633L165.807525,136.0812520958442L166.657928125,127.08532490595927L166.707125,130.95535534778088L167.585640625,120.18266083096772L167.922990625,116.3184936123807L168.37981875,111.98201036916487L168.513353125,117.54188761989067L168.54849375,112.81965643095846L168.710140625,114.58902229027674L168.86475937499998,122.72283647749859L169.01235,133.00028842862866L169.4902625,144.0055905471827L169.862753125,140.57067896667633L170.270384375,143.67470213021943L170.579621875,143.4205199494726L170.607734375,144.68203432647982L170.78343750000002,146.40036224894882L172.08364062500002,132.65103964551187L172.1890625,129.2838697227472L172.210146875,124.35793131545985L172.36476562500002,127.1527126905668L172.406934375,124.23269211514878L172.744284375,124.451440782929L172.84970625,115.99712417816194L173.173,112.89131997999591L173.27139375,107.56110019074106L173.348703125,122.75357276550666L173.41195625,120.00985239953837L173.73525,124.9582448900404L173.812559375,121.77402639989032L173.854728125,123.49123435380442L174.2693875,134.12307518221365L174.459146875,133.00932608543292L174.62079375,139.89744979440243L175.1127625,139.73314808785364L175.26738125,139.38561186182167L175.499309375,134.0351275026063L175.6187875,137.92824274416327L175.66798437499997,145.75783757040236L175.94910937499998,144.37113506596884L176.040475,138.1334257066345L176.075615625,124.95021829248047L176.117784375,131.2297613217865L176.13886875,140.0132714983484L176.67300625,132.6223551319039L176.680034375,130.0696591786144L176.694090625,126.131539359784L176.989271875,122.60249334281437L177.01035625,122.13714855733963L177.22822812500002,130.93939229144723L177.4179875,125.8413651245479L177.43907187500002,121.48519150362279L177.4742125,123.08093771902244L177.86778750000002,116.08885093669605L177.973209375,124.52614471996134L178.0364625,122.48989218285267L178.05051874999998,121.54857712871184L178.394896875,123.18686903647394L178.7955,120.05816295821553L179.111765625,121.1148751442378L179.39991875,132.6612798610178L179.491284375,142.07621866696164L179.4983125,147.571219147641L179.65293125,147.85383335435301L179.68807187500002,147.71049666216322L179.76538125,142.30295376664608L180.545503125,133.58088186196213L180.69309375,136.98415691144302L181.17100625,131.0411731152954L181.178034375,131.5112980216278L181.19911875,129.98346180972658L181.206146875,126.95312644992588L181.543496875,124.81448308202219L181.712171875,121.01518430455084L181.9441,123.38281382407878L182.119803125,128.84747665695033L182.639884375,133.93115526182464L182.921009375,137.2017650469721L182.977234375,128.55402430680877L183.202134375,135.6832058953493L183.2935,132.6995903806239L183.74329999999998,134.12302533127962L184.200128125,123.5118117769843L184.36177500000002,135.1278495574168L184.95213750000002,143.7503146519763L184.973221875,133.96919642630235L185.0083625,140.30340692247762L185.479246875,138.8567488959182L185.60575312499998,142.96608571831874L186.13286250000002,129.0326237000495L186.40695937499999,125.68362975820719L186.41398750000002,126.3851501983691L187.517403125,129.81178064598376L187.812584375,126.37626139792044L187.8196125,120.63148136420395L188.276440625,122.98102338006106L188.318609375,118.8060310774446L188.459171875,123.32001605590584L188.501340625,118.91163219785929L188.64893125,118.81249102220681L188.6911,125.83182640234081L189.1127875,122.18376242732671L189.52744687499998,130.6746354795436L189.752346875,141.9999770579898L189.80154375,155.87026316274188L191.3055625,149.8789244076549L191.481265625,150.85510814076298L191.57263125,142.98760893276713L191.762390625,142.90728765923606L191.8115875,137.0373985660006L191.888896875,133.4221438343483L191.9240375,137.0740543231462L191.98026249999998,126.92078008801306L192.07865625,127.03688744634728L192.27544375,130.51727273422685L192.760384375,122.7504328391445L192.78146875,119.27247154125526L193.07665,122.69238431101417L193.322634375,119.48227633741722L193.582675,116.62817252699867L194.222234375,115.47596705570422L194.334684375,115.72995951542018L195.08669375,132.42547332506632L195.135890625,134.53332030332834L195.22022812499998,139.55229184363336L195.5786625,131.11406491597918L195.655971875,138.06405915260572L195.66299999999998,133.25926159286652L196.29553125,133.12401393928621L196.316615625,132.532362436524L197.34975,127.549389109177L197.3778625,125.37539190361656L197.384890625,128.11674138492202L197.50436875,131.13080890527877L197.60979062500002,133.8545018169374L197.680071875,120.84175048667731L197.75738125,121.91664439677324L197.79252187499998,123.68680390262082L197.8276625,130.0576369794814L197.855775,134.41646619037436L197.89794375,128.05399028894692L198.06661875,117.56555695794458L198.1369,110.9751888958361L198.31963125000001,107.73383727358261L198.635896875,114.70685872248697L198.79754375,127.45599823481973L199.155978125,124.58986976913891L199.324653125,118.14388405783345L199.4581875,120.46832849683386L199.55658125,125.71961904824985L199.788509375,137.04081159389744L200.58268750000002,136.29192398522335L200.927065625,134.84164752086426L201.49634375,135.88527253580344L201.573653125,139.1876083571449L201.71421562499998,140.45566799394697L202.135903125,133.98958669991737L202.22726875,126.32737519080311L202.487309375,128.44303580364507L202.627871875,124.4510095372255L202.70518124999998,126.6089301260981L203.3096,121.12445770219999L203.37988125,127.47533818790934L204.370846875,123.65377791350853L204.6308875,122.95329584852323L204.64494375,113.97575706348101L204.848759375,120.13224932018088L205.12285625,138.17030923642616L205.46020625,143.20051627801598L205.79755624999999,149.2681286182805L205.8116125,144.9069178013089L205.86783749999998,145.58494634080427L206.07868125,144.87868549018202L206.240328125,142.2428256606406L206.338721875,136.167751499137L206.739325,130.13365027196448L207.414025,131.06893384985472L207.730290625,135.13822267372814L207.758403125,126.32484668445234L208.180090625,125.28045355052737L208.503384375,120.58164417011135L208.714228125,103.65805084265824L208.868846875,111.54325107787585L208.92507187500001,110.97977931531987L209.782503125,111.62501739998295L209.993346875,115.67028336250561L210.147965625,128.55904743983612L210.37989374999998,134.77877439209385L210.583709375,139.06777833192686L210.89997499999998,138.34932059221947L211.174071875,140.46064092024258L211.77849062500002,139.2941253739839L212.29154375,137.44147842873605L212.467246875,129.09145256131572L212.5586125,124.29686005264332L212.621865625,127.87406792253141L213.1770875,115.61009210354018L213.59174687499998,113.96905056241711L214.392953125,110.1786599135611L214.498375,114.35769681788761L214.8638375,121.4579487124519L215.05359687499998,121.77852746721723L215.489340625,129.38324430511366L215.66504375,137.0003902132867L216.29054687500002,127.29565382096516L216.5505875,129.96005158480017L216.796571875,130.66445348773007L217.0285,128.16740554638864L217.316653125,129.22077137272453L218.075690625,135.70637358451424L218.188140625,130.18595045342767L218.33573124999998,129.6965617748184L218.398984375,121.7117851979782L218.51143437500002,125.81395490212736L218.95420625,123.1559217884749L218.961234375,124.02893777576745L219.059628125,120.9813960783938L219.832721875,114.49956014116165L219.92408749999998,112.30393969034887L220.001396875,110.30570275196872L220.704209375,117.64417609339621L221.17509374999997,128.94764132956067L221.470275,139.17080008780596L222.58071875,134.07726895687364L223.17108125,124.58586466239322L223.18513750000002,112.73573405698792L223.46626250000003,115.90986790153895L223.473290625,121.69825023349232L223.48031875,116.65838237962788L223.59276875,119.35592434621847L223.684134375,123.02334822307228L223.698190625,123.9346489256036L224.393975,128.16864519985984L225.44819375,126.93894613786023L225.89799374999998,139.03783658148936L225.94016249999999,136.28136808277424L225.98233125,141.5403003609255L226.01044375,150.057670492892L226.017471875,149.52084296880037L226.54458125,142.59762293063324L226.82570625,146.24112786032393L227.212253125,146.82601598011038L227.97831875,141.89510137502302L228.055628125,140.05751356282204L228.11185312499998,137.70253820895178L228.44920312500003,130.60584251689326L228.617878125,123.9205857313121L228.899003125,132.842568743017L228.9200875,130.0397221254031L229.137959375,127.47182073633192L229.208240625,128.79523366952134L229.2574375,126.88124267020339L229.38394375,121.27111711358143L229.784546875,120.58973544988103L229.925109375,115.05030409188907L229.94619375,123.53309063727761L230.09378437499998,129.36945093044702L230.69820312500002,138.66657150011696L231.3377625,143.8576327098694L231.35181874999998,138.70369381506958L231.57671875,142.67583629369568L231.703225,146.71093452501194L233.69218437499998,135.02878296689926L233.874915625,130.1302391786381L234.184153125,129.20428500765587L234.57070000000002,117.03846379634157L235.00644375,118.24461834738503L235.097809375,128.0574842995992L235.74439687499998,126.91953901687805L235.9482125,132.729609943864L236.222309375,142.0204772337897L236.6791375,150.1528800120725L238.190184375,140.70805867855393L238.74540624999997,140.77546582427408L238.9281375,131.8945244419979L239.08275625000002,140.01516157796425L239.216290625,135.60216554647948L239.356853125,129.8595315971748L239.39199375,129.32131788484907L239.50444375,124.7030030092755L239.58878124999998,126.31929564482923L239.70123125,128.16956763271662L239.890990625,128.36472318651778L240.368903125,129.7128690605313L240.71328125,125.54888127594889L240.804646875,119.28304194420397L240.860871875,119.11137298947467L241.52854374999998,121.79632890347179L242.03456875,130.84572637154778L242.266496875,131.60492069765402L242.31569375,137.15474757697865L242.378946875,134.96017103878668L242.730353125,128.9720947592736L242.7514375,128.58955320413594L242.899028125,122.35795188364796L242.983365625,125.16203885327226L243.11690000000002,127.99440124660995L243.250434375,136.2019247712509L244.206259375,134.51095889221523L244.7755375,124.43944701082049L244.782565625,119.29629640893063L245.021521875,126.77207539746712L245.15505625,128.99160903852913L245.47835,131.86006232596475L245.984375,123.26478250322961L246.01951562500003,119.2128349274291L246.202246875,127.34941254436335L246.525540625,132.56940714346982L246.63096249999998,144.28810911075843L246.947228125,146.6926138680969L247.20726875,141.07659231911865L247.50947812500002,137.4678821283029L247.65004062499997,131.41367309793506L247.692209375,136.82880445423527L247.78357499999998,134.61752097667937L247.9803625,134.33955812967827L248.282571875,133.7191969902337L248.563696875,122.94800917810326L249.03458125,123.87828779522258L249.21028437500001,128.39085645856665L249.25948125000002,129.35628516305812L249.28759375,126.26437944668132L249.983378125,124.62330862580296L250.0044625,123.41292097984882L250.2855875,127.83980027925449L250.5104875,127.38728365952656L250.94623125,130.68577457460694L251.044625,125.24649868603308L251.164103125,125.41056782123897L251.17113125,121.24197267363938L251.4663125,127.11105965894745L252.162096875,135.6026947934764L252.35185625,136.39270980592593L253.3779625,137.27062430045618L253.750453125,129.1392145994998L254.509490625,133.30010037682635L254.58679999999998,125.098563367499L255.451259375,124.92211271189038L255.86591875,121.54546537913313L256.125959375,127.25655092547791L256.27355,125.06187194437062L256.533590625,138.78657714039252L256.786603125,139.23329796499115L256.79363125,148.27786854568782L256.969334375,151.7387957314471L257.405078125,141.31094253896592L257.447246875,136.4153691580231L257.55266875,137.21767881216616L257.904075,139.75949236572984L258.08680625,142.82262180341007L258.206284375,135.4024668103023L258.36793125,135.43807470593234L258.69122500000003,130.22056009646283L259.148053125,131.35246282980458L259.19725,118.87793816426766L259.253475,122.78458865463361L259.590825,128.53233680712952L259.654078125,120.26733833305704L260.0687375,120.55432509036461L260.16010312500003,125.30064381749392L261.17918125,119.79339145178173L261.26351875,124.51860279175385L261.49544687499997,117.98242346246687L261.509503125,128.96435232043058L261.790628125,133.81453682827822L262.24745624999997,135.38900629191326L262.7675375,136.06125263874964L263.097859375,137.41976569000028L263.350871875,137.4945320481249L263.5546875,134.32213307584456L263.758503125,133.90990977981767L263.84986875,132.0511738628094L263.870953125,134.37368656217723L264.334809375,133.60754557263652L264.35589375,128.81453645117165L264.65810312499997,129.09986364774159L264.9322,126.19218370874079L265.00248125,123.70912483667944L265.023565625,119.06599762043724L265.39605624999996,118.59458514452795L266.190234375,120.42840969801438L266.32376875,121.42242772722534L266.372965625,119.11428241338908L266.37999375,118.56353061441524L266.429190625,116.19475618030992L266.88601875,132.25099577323414L267.08280625,141.590883432721L267.16714375,143.71041380101136L267.258509375,144.68873168667372L267.30770624999997,150.9435150244249L267.876984375,145.08847143759803L268.1089125,143.86233560151146L268.137025,138.84700808469228L268.326784375,130.46542802777154L268.340840625,131.9274190862552L268.811725,141.3350662111983L268.973371875,138.7386186432687L269.465340625,135.16318919133232L269.535621875,125.4180247418349L269.6551,117.80645597173358L269.704296875,124.98930223103514L269.72538125,131.3790692288646L269.823775,133.68893231147342L269.901084375,134.4906405758489L270.856909375,128.39450322101288L271.11695000000003,121.26912981575593L271.503496875,116.06853379193464L271.55269375,109.99296306004238L272.00952187499996,127.36870850580998L272.185225,138.78428800975124L272.248478125,144.38712949797417L272.33281562499997,143.8839224055106L272.46635,148.86850451676216L272.585828125,148.96618451624016L272.69124999999997,150.35929435461105L272.965346875,149.17165757399403L273.049684375,144.7411126684046L273.2253875,138.00980198329069L273.43623125,139.03157422510014L273.485428125,133.95488403777614L273.893059375,131.04738749587733L273.97036875000003,132.4102846474898L274.216353125,134.90240428992823L274.3498875,132.08986572115845L274.39908437500003,134.7058316450669L274.722378125,124.98351995833833L275.087840625,124.61455488615105L275.108925,120.24912715204279L275.354909375,122.11395063547923L275.832821875,124.1155861768045L276.008525,110.38101933913933L276.24748125,115.29794611047213L276.268565625,113.93583548969329L276.634028125,117.37462528292116L276.64105625,117.9364031299578L276.69728125,118.52539592651286L276.788646875,123.20575235884046L277.17519375,138.27890709996615L277.364953125,136.56308557963604L277.786640625,137.77505036816737L277.79366875,142.53025300875748L277.9764,142.4354030106988L278.0607375,139.49226859894551L278.166159375,140.809298537297L278.306721875,134.92142001516993L278.369975,135.6466818316422L278.433228125,142.71719515702978L278.644071875,138.81774723757417L278.98845,136.70575640338132L279.37499687499997,139.7386496409027L279.599896875,137.85717618133117L279.754515625,129.34717590609483L280.26756875,131.00393404364166L280.8157625,132.047557150123L281.33584375,115.13215858626216" style="fill: none;" fill="none"></path></g></g></g></g><g opacity="0.2"><g><g><g><path stroke="rgb(255, 112, 67)" stroke-width="2px" d="M43.4338125,-5.554755449295044L44.003090625,1.5779668092727661L44.389637500000006,-3.4598164558410645L44.410721875,10.099578380584717L44.509115625,-13.821372985839844L44.537228125000006,31.25243604183197L44.874578125,-6.421798467636108L44.923775,-19.283963441848755L45.233012499999994,2.6514315605163574L45.443856249999996,47.938393235206604L45.844459375,41.80414617061615L46.048275000000004,26.053237438201904L46.160725000000006,38.705098271369934L46.273175,52.18488264083862L46.66675,14.869032382965088L47.025184375,50.62293076515198L47.151690625,46.63784980773926L47.214943749999996,24.25929057598114L47.32739375,56.94427192211151L47.348478125,16.013709783554077L47.657715625,73.29226970672607L48.1004875,32.45319736003876L48.25510625,31.227200388908386L48.276190625,30.973008155822754L48.332415624999996,52.09997606277466L48.613540625,72.51334047317505L48.73301875,43.30243921279907L48.824384375,35.72243821620941L49.4498875,24.01465666294098L49.871575,23.528300642967224L50.511134375,44.918765902519226L50.595471875,51.9117636680603L50.820371875,46.87528860569L50.862540625,66.82919955253601L51.003103125,40.22434365749359L51.03824375,100.06022894382477L51.354509375,78.11000061035156L51.438846875,54.51000201702118L51.68483125,79.96209919452667L51.930815625,62.45853638648987L51.93784375,40.58047020435333L52.261137500000004,83.36760413646698L52.380615625,50.05078196525574L52.394671875,57.85079312324524L52.4298125,76.74562954902649L52.605515625,60.21980059146881L52.61254375,48.02581071853638L52.696881250000004,73.1248197555542L52.732021875,54.39935338497162L52.9358375,35.00689351558685L53.041259375,47.31862163543701L53.083428125,46.178776144981384L54.011140624999996,63.209592461586L54.3976875,37.71786940097809L54.742065625,49.22247862815857L55.494074999999995,63.811365723609924L55.993071875,87.73003828525543L56.302309375,79.2460058927536L56.492068749999994,63.540462255477905L56.513153125,54.871909976005554L56.920784375,73.82183861732483L57.356528125000004,81.05723369121552L57.6025125,58.01847517490387L57.84146875,91.36555480957031L57.939862500000004,82.69181191921234L57.95391875,77.93368864059448L57.960946875,91.18702733516693L58.368578125,52.85892355442047L59.5985,39.85296177864075L60.441874999999996,59.55728030204773L60.56838125,52.4215829372406L60.5824375,58.00159513950348L60.93384375,97.75973331928253L61.32741875,89.07225430011749L61.432840625,81.86333978176117L61.798303125,84.06899070739746L61.945893749999996,94.42926013469696L61.995090625,80.52882528305054L62.7471,83.53391468524933L62.943887499999995,78.86508679389954L63.140675,89.86648106575012L63.506137499999994,71.09932100772858L63.94188125,66.23552870750427L64.63063749999999,93.32494711875916L64.84850937499999,65.76847922801971L64.88365,85.5855563879013L65.389675,86.35916841030121L65.48104062499999,92.9337522983551L65.495096875,84.58020257949829L66.064375,104.89722418785095L66.71096250000001,92.72819566726685L66.830440625,110.87180721759796L66.97803125,100.9110038280487L67.6667875,65.38247501850128L67.91980000000001,71.69174695014954L67.9479125,87.3613783121109L68.0041375,109.10463631153107L68.52421875,73.92740213871002L68.7912875,86.99814105033875L68.88968125,76.0954738855362L69.15675,62.223334193229675L69.24108749999999,90.17449951171875L69.53626874999999,74.64655494689941L70.01418125,71.17338216304779L70.077434375,72.72647202014923L70.09851875,92.9981918334961L70.63265625,86.8490059375763L70.6467125,76.60888016223907L71.02623125,88.55388951301575L71.22301875000001,123.93919122219086L71.960971875,101.51400089263916L72.593503125,104.78526735305786L72.705953125,72.25151002407074L72.80434687500001,99.79238498210907L73.2330625,117.63027799129486L73.91479062500001,90.82665967941284L74.139690625,77.69876074790955L74.947925,86.16268479824066L75.053346875,96.47324252128601L75.362584375,88.35223639011383L75.959975,88.3338371515274L76.079453125,90.85134673118591L76.1005375,99.05177342891693L76.35355,131.9594657421112L76.40274687499999,122.94801664352417L76.655759375,121.87851870059967L76.80335,132.8607119321823L77.23909375,104.28220009803772L77.37965625,131.18718302249908L78.159778125,90.26172709465027L78.230059375,107.6868188381195L78.715,91.97405898571014L78.806365625,99.97939467430115L78.848534375,103.59541475772858L78.9399,95.51741051673889L79.340503125,109.88873505592346L79.50215,117.38558077812195L79.537290625,102.1251847743988L79.95195,101.28842031955719L80.12062499999999,121.88231670856476L80.79532499999999,94.63555526733398L80.964,77.74070763587952L81.34351875,107.10439431667328L81.547334375,136.19272541999817L81.926853125,134.9986528158188L82.20094999999999,134.76180481910706L82.22203437499999,101.69269716739655L82.306371875,114.09834158420563L82.52424375,133.5673313140869L83.25516875000001,122.5949285030365L83.31139375000001,118.16094410419464L83.416815625,134.089262008667L84.09854375,121.15885949134827L84.28127500000001,107.46676647663116L84.43589375,116.76888978481293L85.08248124999999,115.92640721797943L85.13870625,118.47790896892548L85.426859375,123.25521218776703L85.855575,101.68989086151123L86.07344687499999,109.39279961585999L86.52324687500001,89.75832223892212L86.720034375,106.66724359989166L86.7270625,136.55777728557587L86.860596875,141.50407075881958L87.02224375,134.79273748397827L87.155778125,126.34449076652527L87.50015625,107.45792555809021L87.5704375,128.2836903333664L87.591521875,120.43192076683044L87.69694375,127.48465275764465L87.92887187500001,124.8917738199234L89.16582187499999,117.22043073177338L89.20799062500001,109.93196904659271L89.678875,132.1691790819168L89.87566249999999,118.35700571537018L89.94594375,110.4218909740448L90.191928125,104.08516788482666L90.6628125,96.18514251708984L90.88771249999999,115.01748061180115L91.30237187499999,90.6086540222168L91.54835625,96.96801745891571L91.710003125,96.13849031925201L91.82948125,132.469580411911L92.63068750000001,129.02008187770844L92.876671875,118.26844882965088L92.918840625,125.17537951469421L93.40378125,119.09506416320801L93.71301874999999,107.57876551151276L93.91683437500001,127.41381990909576L93.951975,117.72335028648376L94.015228125,101.9715131521225L94.647759375,111.79900646209717L94.66884375,120.85615825653076L94.86563125,123.66077613830566L94.9359125,109.24590110778809L95.34354375,111.9302065372467L95.589528125,115.24059247970581L95.82145625,98.20017564296722L95.828484375,94.8805056810379L96.25017187499999,119.71416056156158L97.121659375,142.14983761310577L97.14274375000001,131.9199242591858L97.53631874999999,138.1510627269745L97.71905000000001,122.77375137805939L97.740134375,140.7159208059311L97.887725,135.09149301052094L97.936921875,147.3068150281906L98.344553125,125.0729809999466L98.38672187499999,132.804332613945L98.780296875,128.56037521362305L99.98210625,95.25051605701447L100.031303125,112.00167238712311L100.2210625,95.4224181175232L100.6146375,106.131112575531L100.8395375,118.67270457744598L101.2893375,115.23384046554565L101.310421875,90.83020448684692L101.450984375,124.81874656677246L101.6829125,128.6879460811615L102.238134375,144.8970844745636L102.28733125000001,140.64565765857697L102.378696875,133.7612407207489L102.533315625,140.9323650598526L102.800384375,146.84892296791077L103.011228125,132.4133276939392L103.172875,140.78348314762115L103.29938125,122.82344198226929L103.79135,140.16193914413452L104.318459375,137.92609405517578L104.768259375,107.39382362365723L105.2250875,112.78115022182465L105.82950625000001,106.52701270580292L106.0122375,117.35118770599365L106.6026,108.82909083366394L107.3616375,131.31291818618774L107.410834375,126.35776269435883L108.20501250000001,125.09180223941803L108.22609687500001,119.13479554653168L108.3736875,133.75077509880066L108.788346875,134.3357527256012L108.858628125,129.56501162052155L108.88674062499999,138.84428358078003L109.09055625,129.27547681331635L109.322484375,122.3852995634079L109.687946875,129.41022169589996L109.807425,130.77644956111908L109.90581875000001,117.4873673915863L110.01826874999999,107.97991955280304L110.13774687499999,124.16114258766174L110.418871875,131.25542056560516L110.74216562500001,124.31443440914154L110.74919375,105.15126872062683L110.9038125,126.24667096138L111.14979687499999,122.81898987293243L111.220078125,123.89120972156525L111.33252812500001,128.78705298900604L111.39578125,111.33991169929504L111.494175,90.85117793083191L111.76124375,112.12495994567871L111.782328125,99.4347392320633L112.02128437500001,128.5929114818573L112.049396875,105.45202875137329L112.21104375,123.69768011569977L112.2532125,109.72482991218567L112.26726875,116.7462705373764L112.54839375,143.7040457725525L112.5905625,140.36593437194824L112.681928125,132.45149767398834L112.71706875,163.3163048028946L113.16686875,137.13190948963165L113.300403125,119.73979711532593L113.36365625,139.5257306098938L113.67992187499999,145.02520394325256L113.84156875,141.1401160955429L113.855625,127.11139297485352L113.86265312500001,138.17285907268524L114.2773125,125.69868171215057L115.394784375,119.33613216876984L115.767275,111.73081111907959L115.9078375,136.80422580242157L116.12570937500001,92.50879740715027L116.1889625,127.87477147579193L116.308440625,109.05821621417999L116.42791875,131.29603815078735L116.645790625,92.00606775283813L117.004225,127.23930144309998L117.16587187500001,125.02042078971863L117.26426562500001,98.19846653938293L117.784346875,146.59618663787842L118.585553125,131.53484845161438L119.260253125,116.82307469844818L119.29539375,115.2529149055481L119.54840625,146.73238742351532L119.766278125,125.97766649723053L120.44800625,118.727712392807L120.6307375,121.4887797832489L120.65885,139.25794994831085L120.7713,115.85641837120056L121.06648125,114.32812106609344L121.51628125,118.00111126899719L121.537365625,120.89669144153595L121.649815625,97.54784667491913L122.32451562499999,123.01716148853302L122.69700625,137.3109222650528L123.36467812500001,148.0500007867813L124.193996875,134.27194619178772L124.390784375,122.58104467391968L124.80544375000001,136.22960829734802L125.135765625,116.21507692337036L125.641790625,129.98737120628357L125.77532500000001,124.23879075050354L126.077534375,141.4619550704956L126.218096875,117.17130982875824L126.62572812500001,108.6285560131073L126.74520625,109.2185765504837L126.934965625,119.81267666816711L127.08255625,120.553267121315L127.16689375,134.1741052865982L127.27231562499999,123.63600468635559L127.300428125,92.63303446769714L127.41990625,118.40291941165924L127.67291875,114.62864899635315L127.95404375,152.41899704933167L128.185971875,152.5999299287796L128.959065625,128.18793833255768L129.33155625,134.51932311058044L129.35966875,138.22164237499237L129.50023125,134.99474930763245L129.844609375,112.07837104797363L130.048425,138.00460731983185L130.34360625,115.56728446483612L130.702040625,134.78980457782745L130.8636875,122.09686195850372L131.27834687499998,128.01723897457123L131.29943125,139.91002571582794L131.756259375,96.88692998886108L131.960075,102.62538242340088L132.19903125,124.36408281326294L132.445015625,98.08142459392548L132.6066625,114.55602264404297L132.7191125,151.6515884399414L133.232165625,137.02071225643158L133.3657,144.51766347885132L133.52031875,129.1871098279953L134.096625,125.51046931743622L135.087590625,113.20977652072906L135.551446875,138.2052265405655L135.60064375,98.23644661903381L135.663896875,127.32315301895142L135.783375,111.69580614566803L135.8677125,104.49600684642792L135.90988124999998,133.15845465660095L136.324540625,118.40760362148285L136.675946875,113.64057612419128L137.00626875,120.4947144985199L137.25928125000002,109.65209805965424L137.42795625,131.52554333209991L137.449040625,106.97093653678894L137.97615,94.0788938999176L138.01831875,113.13312005996704L138.2291625,143.45504415035248L138.292415625,147.79547095298767L138.320528125,145.98949706554413L138.36269687499998,137.32546019554138L139.009284375,139.41835248470306L139.0163125,145.93170404434204L139.07253749999998,129.30476367473602L139.10065,138.35377085208893L139.220128125,144.2964928150177L139.669928125,128.64500749111176L139.8034625,136.0276175737381L140.04241875,133.7628232240677L140.752259375,114.79563474655151L141.19503125,110.2185287475586L141.51832499999998,111.18782258033752L141.8275625,123.69457840919495L141.96109687499998,112.59884583950043L142.43198125,112.05748200416565L142.8396125,121.13286423683167L143.001259375,93.61576902866364L143.5705375,134.37527310848236L143.886803125,117.01111829280853L143.90085937499998,140.1994128227234L144.125759375,148.68304431438446L144.34363125,147.32124745845795L144.758290625,125.47552764415741L145.76331249999998,133.35006415843964L145.9319875,106.60373246669769L145.995240625,104.86517322063446L146.037409375,122.99954295158386L146.36070312500001,101.94454729557037L146.3817875,115.84185934066772L146.515321875,113.42790877819061L147.443034375,111.98200714588165L147.541428125,124.63570368289948L148.258296875,111.3183263540268L148.4058875,154.7026970386505L148.9119125,150.97628152370453L149.340628125,122.57007265090942L149.846653125,152.8695251941681L150.00127187500001,142.27557277679443L150.12075000000002,116.95613157749176L150.44404375,136.32261729240417L150.68300000000002,135.92895376682281L151.139828125,123.87565898895264L151.519346875,128.36817491054535L151.702078125,113.93224203586578L151.73721874999998,126.33900475502014L152.236215625,130.103569149971L152.489228125,121.8778223991394L152.83360625,122.13726854324341L153.26935,143.4338175058365L153.27637812499998,122.7962018251419L153.51533437499998,156.549858212471L153.61372812500002,152.33942878246307L153.908909375,150.10041868686676L155.08260625,155.85541355609894L155.300478125,129.8087593317032L155.53943437499998,127.00127184391022L155.96814999999998,123.1353006362915L156.03843125,119.00247716903687L156.298471875,117.5087628364563L156.354696875,136.36260187625885L156.5304,121.32116103172302L156.65690625000002,133.33109521865845L156.6709625,127.66811764240265L156.832609375,128.9963654279709L156.83963749999998,131.56913602352142L156.846665625,94.61637532711029L156.86775,118.2777328491211L157.001284375,118.3755315542221L157.24726875000002,97.23835122585297L157.465140625,112.88373863697052L157.61273125,117.74284672737122L157.7392375,136.00919723510742L157.80951875,123.57922446727753L158.43502187500002,118.47934377193451L158.533415625,105.79152846336365L158.673978125,154.12858593463898L158.73723125,151.3162876367569L158.78642812500001,149.81029307842255L158.79345625,161.8327395915985L158.99727187500002,129.99368011951447L159.06755312500002,140.06641924381256L159.208115625,136.50310707092285L159.69305625,150.91144108772278L160.037434375,146.9605633020401L160.26936250000003,124.26985001564026L160.53643125,140.87547934055328L161.316553125,130.94710671901703L161.49225625,143.74871456623077L161.51334062499998,132.59826958179474L161.57659375,126.05942916870117L161.77338125,118.01617670059204L162.019365625,104.63290393352509L162.103703125,120.68967890739441L162.3778,103.30364334583282L162.553503125,99.929514169693L162.67298125,108.36379265785217L163.15089375000002,119.23175024986267L163.3055125,140.07234835624695L163.5023,125.07595610618591L163.88181874999998,161.8188557624817L164.816559375,164.7882227897644L164.8235875,132.78371787071228L165.491259375,135.78874397277832L165.807525,130.232363820076L166.657928125,113.5914341211319L166.707125,136.7604010105133L167.585640625,104.02361905574799L167.922990625,110.52224278450012L168.37981875,105.47728550434113L168.513353125,125.88170349597931L168.54849375,105.73630964756012L168.710140625,117.24307107925415L168.86475937499998,134.9235577583313L169.01235,148.4164663553238L169.4902625,160.51354372501373L169.862753125,135.41831159591675L170.270384375,148.33073687553406L170.579621875,143.03924667835236L170.607734375,146.57430589199066L170.78343750000002,148.97785413265228L172.08364062500002,112.02705574035645L172.1890625,124.23311483860016L172.210146875,116.96902370452881L172.36476562500002,131.34488475322723L172.406934375,119.85266125202179L172.744284375,124.7795637845993L172.84970625,103.31564927101135L173.173,108.23261368274689L173.27139375,99.56577050685883L173.348703125,145.54228162765503L173.41195625,115.89427185058594L173.73525,132.38083362579346L173.812559375,116.99769866466522L173.854728125,126.0670462846756L174.2693875,150.07083642482758L174.459146875,131.33870244026184L174.62079375,150.22963535785675L175.1127625,139.4866955280304L175.26738125,138.86430752277374L175.499309375,126.00940096378326L175.6187875,143.76791560649872L175.66798437499997,157.50222980976105L175.94910937499998,142.29108130931854L176.040475,128.77686166763306L176.075615625,105.17540717124939L176.117784375,140.64907586574554L176.13886875,153.18853676319122L176.67300625,121.53598058223724L176.680034375,126.24061524868011L176.694090625,120.22435963153839L176.989271875,117.30892431735992L177.01035625,121.4391313791275L177.22822812500002,144.14275789260864L177.4179875,118.19432437419891L177.43907187500002,114.95093107223511L177.4742125,125.47455704212189L177.86778750000002,105.60072076320648L177.973209375,137.1820853948593L178.0364625,119.43551337718964L178.05051874999998,120.13660454750061L178.394896875,125.64430689811707L178.7955,115.36510384082794L179.111765625,122.69994342327118L179.39991875,149.98088693618774L179.491284375,156.19862687587738L179.4983125,155.81371986865997L179.65293125,148.27775466442108L179.68807187500002,147.49549162387848L179.76538125,134.19163942337036L180.545503125,120.49777400493622L180.69309375,142.08906948566437L181.17100625,122.12669742107391L181.178034375,132.2164853811264L181.19911875,127.6917074918747L181.206146875,122.40762341022491L181.543496875,121.60651803016663L181.712171875,115.31623613834381L181.9441,126.93425810337067L182.119803125,137.04447090625763L182.639884375,141.55667316913605L182.921009375,142.1076797246933L182.977234375,115.58241319656372L183.202134375,146.3769782781601L183.2935,128.22416710853577L183.74329999999998,136.25817775726318L184.200128125,107.59499144554138L184.36177500000002,152.5519062280655L184.95213750000002,156.6840122938156L184.973221875,119.29751908779144L185.0083625,149.80472266674042L185.479246875,136.6867618560791L185.60575312499998,149.13009095191956L186.13286250000002,108.13243067264557L186.40695937499999,120.66013884544373L186.41398750000002,127.43743085861206L187.517403125,134.9517263174057L187.812584375,121.2229825258255L187.8196125,112.01431131362915L188.276440625,126.50533640384674L188.318609375,112.5435426235199L188.459171875,130.09099352359772L188.501340625,112.29905641078949L188.64893125,118.66377925872803L188.6911,136.3608294725418L189.1127875,116.7116664648056L189.52744687499998,143.41094505786896L189.752346875,158.98798942565918L189.80154375,176.67569231987L191.3055625,140.8919162750244L191.481265625,152.3193837404251L191.57263125,131.18636012077332L191.762390625,142.7868057489395L191.8115875,128.23256492614746L191.888896875,127.99926173686981L191.9240375,142.55192005634308L191.98026249999998,111.69086873531342L192.07865625,127.21104848384857L192.27544375,135.73785066604614L192.760384375,111.100172996521L192.78146875,114.05552959442139L193.07665,127.82225346565247L193.322634375,114.66711437702179L193.582675,112.34701681137085L194.222234375,113.74765884876251L194.334684375,116.1109482049942L195.08669375,157.46874403953552L195.135890625,137.69509077072144L195.22022812499998,147.08074915409088L195.5786625,118.45672452449799L195.655971875,148.48905050754547L195.66299999999998,126.05206525325775L196.29553125,132.9211424589157L196.316615625,131.64488518238068L197.34975,120.07492911815643L197.3778625,122.11439609527588L197.384890625,132.2287656068802L197.50436875,135.6519101858139L197.60979062500002,137.94004118442535L197.680071875,101.32262349128723L197.75738125,123.52898526191711L197.79252187499998,126.34204316139221L197.8276625,139.61388659477234L197.855775,140.95471000671387L197.89794375,118.51027643680573L198.06661875,101.83290696144104L198.1369,101.08963680267334L198.31963125000001,102.87180984020233L198.635896875,125.1663908958435L198.79754375,146.5797075033188L199.155978125,120.29067707061768L199.324653125,108.47490549087524L199.4581875,123.95499515533447L199.55658125,133.59655487537384L199.788509375,154.02260041236877L200.58268750000002,135.16859257221222L200.927065625,132.66623282432556L201.49634375,137.45071005821228L201.573653125,144.1411120891571L201.71421562499998,142.35775744915009L202.135903125,124.29046475887299L202.22726875,114.83405792713165L202.487309375,131.61652672290802L202.627871875,118.46297013759613L202.70518124999998,129.84581100940704L203.3096,112.89774906635284L203.37988125,137.0016589164734L204.370846875,117.92143750190735L204.6308875,121.90257275104523L204.64494375,100.50944888591766L204.848759375,129.3669877052307L205.12285625,165.22739911079407L205.46020625,150.7458268404007L205.79755624999999,158.36954712867737L205.8116125,138.36510157585144L205.86783749999998,146.6019891500473L206.07868125,143.81929421424866L206.240328125,138.28903591632843L206.338721875,127.05514025688171L206.739325,121.08249843120575L207.414025,132.47185921669006L207.730290625,141.24215590953827L207.758403125,113.10478270053864L208.180090625,123.71386384963989L208.503384375,113.5334300994873L208.714228125,78.27266085147858L208.868846875,123.37105143070221L208.92507187500001,110.1345716714859L209.782503125,112.59287452697754L209.993346875,121.73818230628967L210.147965625,147.8921935558319L210.37989374999998,144.10836482048035L210.583709375,145.50128424167633L210.89997499999998,137.2716339826584L211.174071875,143.62762141227722L211.77849062500002,137.54435205459595L212.29154375,134.66250801086426L212.467246875,116.56641376018524L212.5586125,117.1049712896347L212.621865625,133.2398797273636L213.1770875,97.2141283750534L213.59174687499998,111.50748825073242L214.392953125,104.4930739402771L214.498375,120.62625217437744L214.8638375,132.1083265542984L215.05359687499998,122.25939559936523L215.489340625,140.7903195619583L215.66504375,148.42610907554626L216.29054687500002,112.73854923248291L216.5505875,133.95664823055267L216.796571875,131.72105634212494L217.0285,124.42183363437653L217.316653125,130.8008201122284L218.075690625,145.4347769021988L218.188140625,121.90531575679779L218.33573124999998,128.9624787569046L218.398984375,109.7346203327179L218.51143437500002,131.96720945835114L218.95420625,119.16887211799622L218.961234375,125.33846175670624L219.059628125,116.41008353233337L219.832721875,104.77680623531342L219.92408749999998,109.01050901412964L220.001396875,107.3083473443985L220.704209375,128.65188610553741L221.17509374999997,145.90283918380737L221.470275,154.50553822517395L222.58071875,126.43697226047516L223.17108125,110.34875822067261L223.18513750000002,94.96053814888L223.46626250000003,120.67106866836548L223.473290625,130.38082373142242L223.48031875,109.09858059883118L223.59276875,123.40223729610443L223.684134375,128.52448403835297L223.698190625,125.30159997940063L224.393975,134.5196396112442L225.44819375,125.09439754486084L225.89799374999998,157.18617224693298L225.94016249999999,132.14666533470154L225.98233125,149.42869877815247L226.01044375,162.83372569084167L226.017471875,148.71560168266296L226.54458125,132.21279287338257L226.82570625,151.70638525485992L227.212253125,147.70334815979004L227.97831875,134.49872946739197L228.055628125,137.30113184452057L228.11185312499998,134.17007517814636L228.44920312500003,119.96079897880554L228.617878125,113.89270055294037L228.899003125,146.22554326057434L228.9200875,125.83545219898224L229.137959375,123.61996865272522L229.208240625,130.78035306930542L229.2574375,124.0102561712265L229.38394375,112.85592877864838L229.784546875,119.56766295433044L229.925109375,106.74115705490112L229.94619375,136.2572704553604L230.09378437499998,138.1239913702011L230.69820312500002,152.6122523546219L231.3377625,151.644224524498L231.35181874999998,130.97278547286987L231.57671875,148.63405001163483L231.703225,152.7635818719864L233.69218437499998,117.50555562973022L233.874915625,122.78242349624634L234.184153125,127.81535375118256L234.57070000000002,98.78973197937012L235.00644375,120.0538501739502L235.097809375,142.77678322792053L235.74439687499998,125.21262109279633L235.9482125,141.44471633434296L236.222309375,155.95677816867828L236.6791375,162.35148417949677L238.190184375,126.54082667827606L238.74540624999997,140.8765765428543L238.9281375,118.57311236858368L239.08275625000002,152.19611728191376L239.216290625,128.98267149925232L239.356853125,121.24558067321777L239.39199375,128.51399731636047L239.50444375,117.77553069591522L239.58878124999998,128.7437345981598L239.70123125,130.94497561454773L239.890990625,128.65745651721954L240.368903125,131.7350878715515L240.71328125,119.30289959907532L240.804646875,109.88428294658661L240.860871875,118.85386955738068L241.52854374999998,125.82376277446747L242.03456875,144.4198225736618L242.266496875,132.74371218681335L242.31569375,145.47948789596558L242.378946875,131.66830623149872L242.730353125,119.98998034000397L242.7514375,128.01574087142944L242.899028125,113.01054990291595L242.983365625,129.36816930770874L243.11690000000002,132.24294483661652L243.250434375,148.51321005821228L244.206259375,131.9745100736618L244.7755375,109.33217918872833L244.782565625,111.58157050609589L245.021521875,137.9857438802719L245.15505625,132.32090950012207L245.47835,136.16274225711823L245.984375,110.37186276912689L246.01951562500003,113.13491356372833L246.202246875,139.5542789697647L246.525540625,140.39939904212952L246.63096249999998,161.86616206169128L246.947228125,150.29937100410461L247.20726875,132.65255999565125L247.50947812500002,132.05481684207916L247.65004062499997,122.33235955238342L247.692209375,144.9515014886856L247.78357499999998,131.30059576034546L247.9803625,133.92261385917664L248.282571875,132.7886552810669L248.563696875,106.79122745990753L249.03458125,125.27370572090149L249.21028437500001,135.15970945358276L249.25948125000002,130.80442821979523L249.28759375,121.62652087211609L249.983378125,122.16170239448547L250.0044625,121.59733951091766L250.2855875,134.48011922836304L250.5104875,126.70850872993469L250.94623125,135.63351094722748L251.044625,117.0875848531723L251.164103125,125.65667152404785L251.17113125,114.98907995223999L251.4663125,135.91469013690948L252.162096875,148.34014749526978L252.35185625,137.57773232460022L253.3779625,138.5874960422516L253.750453125,116.94210004806519L254.509490625,139.54142904281616L254.58679999999998,112.796257853508L255.451259375,124.65743672847748L255.86591875,116.48049437999725L256.125959375,135.82317924499512L256.27355,121.76985347270966L256.533590625,159.37363493442535L256.786603125,139.90337920188904L256.79363125,161.8447244167328L256.969334375,156.93018651008606L257.405078125,125.66916275024414L257.447246875,129.0720090866089L257.55266875,138.42114329338074L257.904075,143.57221269607544L258.08680625,147.41731595993042L258.206284375,124.27223432064056L258.36793125,135.49148654937744L258.69122500000003,122.3942881822586L259.148053125,133.0503169298172L259.19725,100.16615116596222L259.253475,128.6445643901825L259.590825,137.1539590358734L259.654078125,107.86984062194824L260.0687375,120.98480522632599L260.16010312500003,132.42012190818787L261.17918125,111.5325129032135L261.26351875,131.60641980171204L261.49544687499997,108.17815446853638L261.509503125,145.4372456073761L261.790628125,141.08981359004974L262.24745624999997,137.75071048736572L262.7675375,137.0696221590042L263.097859375,139.45753526687622L263.350871875,137.6066815853119L263.5546875,129.563534617424L263.758503125,133.29157483577728L263.84986875,129.26306998729706L263.870953125,137.85745561122894L264.334809375,132.4583340883255L264.35589375,121.6250227689743L264.65810312499997,129.52785444259644L264.9322,121.83066380023956L265.00248125,119.98453652858734L265.023565625,112.10130679607391L265.39605624999996,117.88746643066406L266.190234375,123.17914652824402L266.32376875,122.91345477104187L266.372965625,115.65206444263458L266.37999375,117.73740291595459L266.429190625,112.64159452915192L266.88601875,156.33535516262054L267.08280625,155.6007149219513L267.16714375,146.88970935344696L267.258509375,146.15620851516724L267.30770624999997,160.32569003105164L267.876984375,136.3059060573578L268.1089125,142.0231318473816L268.137025,131.3240168094635L268.326784375,117.89305794239044L268.340840625,134.1204056739807L268.811725,155.44653689861298L268.973371875,134.8439472913742L269.465340625,129.80004501342773L269.535621875,110.8002780675888L269.6551,106.38910281658173L269.704296875,135.7635716199875L269.72538125,140.96371972560883L269.823775,137.15372693538666L269.901084375,135.6932029724121L270.856909375,119.25029718875885L271.11695000000003,110.58106970787048L271.503496875,108.2676397562027L271.55269375,100.87960696220398L272.00952187499996,153.43232667446136L272.185225,155.90765726566315L272.248478125,152.79139173030853L272.33281562499997,143.12911176681519L272.46635,156.34537768363953L272.585828125,149.11270451545715L272.69124999999997,152.44895911216736L272.965346875,147.39020240306854L273.049684375,138.09529531002045L273.2253875,127.91283595561981L273.43623125,140.56423258781433L273.485428125,126.33984875679016L273.893059375,126.68614268302917L273.97036875000003,134.45463037490845L274.216353125,138.64058375358582L274.3498875,127.87105786800385L274.39908437500003,138.62978053092957L274.722378125,110.40005242824554L275.087840625,124.06110727787018L275.108925,113.70098555088043L275.354909375,124.91118586063385L275.832821875,127.11803948879242L276.008525,89.7791690826416L276.24748125,122.67333626747131L276.268565625,111.89266955852509L276.634028125,122.53280997276306L276.64105625,118.7790699005127L276.69728125,119.40888512134552L276.788646875,130.22628700733185L277.17519375,160.88863921165466L277.364953125,133.98935329914093L277.786640625,139.59299755096436L277.79366875,149.66305696964264L277.9764,142.29312801361084L278.0607375,135.0775669813156L278.166159375,142.78484344482422L278.306721875,126.08960223197937L278.369975,136.7345745563507L278.433228125,153.32296514511108L278.644071875,132.9685753583908L278.98845,133.53777015209198L279.37499687499997,144.28798949718475L279.599896875,135.03496599197388L279.754515625,116.58217549324036L280.26756875,133.48907124996185L280.8157625,133.61299180984497L281.33584375,89.75906074047089" style="fill: none;" fill="none"></path></g></g></g></g></g></g><g transform="translate(48, 177)" clip-path="url(#clip_1)"><clipPath id="clip_1"><rect width="281" height="23"></rect></clipPath><g><g><line x1="0" y1="0" x2="0" y2="5" style="visibility: inherit;" fill="rgb(0, 0, 0)" stroke="rgb(204, 204, 204)" stroke-width="1px"></line><line x1="35.140625" y1="0" x2="35.140625" y2="5" style="visibility: inherit;" fill="rgb(0, 0, 0)" stroke="rgb(204, 204, 204)" stroke-width="1px"></line><line x1="70.28125" y1="0" x2="70.28125" y2="5" style="visibility: inherit;" fill="rgb(0, 0, 0)" stroke="rgb(204, 204, 204)" stroke-width="1px"></line><line x1="105.421875" y1="0" x2="105.421875" y2="5" style="visibility: inherit;" fill="rgb(0, 0, 0)" stroke="rgb(204, 204, 204)" stroke-width="1px"></line><line x1="140.5625" y1="0" x2="140.5625" y2="5" style="visibility: inherit;" fill="rgb(0, 0, 0)" stroke="rgb(204, 204, 204)" stroke-width="1px"></line><line x1="175.703125" y1="0" x2="175.703125" y2="5" style="visibility: inherit;" fill="rgb(0, 0, 0)" stroke="rgb(204, 204, 204)" stroke-width="1px"></line><line x1="210.84375" y1="0" x2="210.84375" y2="5" style="visibility: inherit;" fill="rgb(0, 0, 0)" stroke="rgb(204, 204, 204)" stroke-width="1px"></line><line x1="245.984375" y1="0" x2="245.984375" y2="5" style="visibility: inherit;" fill="rgb(0, 0, 0)" stroke="rgb(204, 204, 204)" stroke-width="1px"></line><line x1="281.125" y1="0" x2="281.125" y2="5" style="visibility: inherit;" fill="rgb(0, 0, 0)" stroke="rgb(204, 204, 204)" stroke-width="1px"></line></g><g transform="translate(0, 8)"><text x="0" y="0" dx="0em" dy="0.95em" style="text-anchor: middle; visibility: hidden; font-family: &quot;Helvetica Neue&quot;, sans-serif; font-size: 12px; font-weight: 200;" fill="rgb(50, 49, 63)" stroke="none" stroke-width="1px">-5k</text><text x="35.140625" y="0" dx="0em" dy="0.95em" style="text-anchor: middle; visibility: inherit; font-family: &quot;Helvetica Neue&quot;, sans-serif; font-size: 12px; font-weight: 200;" fill="rgb(50, 49, 63)" stroke="none" stroke-width="1px">0</text><text x="70.28125" y="0" dx="0em" dy="0.95em" style="text-anchor: middle; visibility: inherit; font-family: &quot;Helvetica Neue&quot;, sans-serif; font-size: 12px; font-weight: 200;" fill="rgb(50, 49, 63)" stroke="none" stroke-width="1px">5k</text><text x="105.421875" y="0" dx="0em" dy="0.95em" style="text-anchor: middle; visibility: inherit; font-family: &quot;Helvetica Neue&quot;, sans-serif; font-size: 12px; font-weight: 200;" fill="rgb(50, 49, 63)" stroke="none" stroke-width="1px">10k</text><text x="140.5625" y="0" dx="0em" dy="0.95em" style="text-anchor: middle; visibility: inherit; font-family: &quot;Helvetica Neue&quot;, sans-serif; font-size: 12px; font-weight: 200;" fill="rgb(50, 49, 63)" stroke="none" stroke-width="1px">15k</text><text x="175.703125" y="0" dx="0em" dy="0.95em" style="text-anchor: middle; visibility: inherit; font-family: &quot;Helvetica Neue&quot;, sans-serif; font-size: 12px; font-weight: 200;" fill="rgb(50, 49, 63)" stroke="none" stroke-width="1px">20k</text><text x="210.84375" y="0" dx="0em" dy="0.95em" style="text-anchor: middle; visibility: inherit; font-family: &quot;Helvetica Neue&quot;, sans-serif; font-size: 12px; font-weight: 200;" fill="rgb(50, 49, 63)" stroke="none" stroke-width="1px">25k</text><text x="245.984375" y="0" dx="0em" dy="0.95em" style="text-anchor: middle; visibility: inherit; font-family: &quot;Helvetica Neue&quot;, sans-serif; font-size: 12px; font-weight: 200;" fill="rgb(50, 49, 63)" stroke="none" stroke-width="1px">30k</text><text x="281.125" y="0" dx="0em" dy="0.95em" style="text-anchor: middle; visibility: hidden; font-family: &quot;Helvetica Neue&quot;, sans-serif; font-size: 12px; font-weight: 200;" fill="rgb(50, 49, 63)" stroke="none" stroke-width="1px">35k</text></g><line x1="0" y1="0" x2="281.125" y2="0" fill="rgb(0, 0, 0)" stroke="rgb(204, 204, 204)" stroke-width="1px"></line></g></g></g></g></svg>