<svg viewBox="0 0 330 200" xmlns="http://www.w3.org/2000/svg"><g><g><g><g><g><line x1="48.875" y1="177" x2="43.875" y2="177" style="visibility: inherit;" fill="rgb(0, 0, 0)" stroke="rgb(204, 204, 204)" stroke-width="1px"></line><line x1="48.875" y1="159.29999999999998" x2="43.875" y2="159.29999999999998" style="visibility: inherit;" fill="rgb(0, 0, 0)" stroke="rgb(204, 204, 204)" stroke-width="1px"></line><line x1="48.875" y1="141.60000000000002" x2="43.875" y2="141.60000000000002" style="visibility: inherit;" fill="rgb(0, 0, 0)" stroke="rgb(204, 204, 204)" stroke-width="1px"></line><line x1="48.875" y1="123.89999999999999" x2="43.875" y2="123.89999999999999" style="visibility: inherit;" fill="rgb(0, 0, 0)" stroke="rgb(204, 204, 204)" stroke-width="1px"></line><line x1="48.875" y1="106.20000000000002" x2="43.875" y2="106.20000000000002" style="visibility: inherit;" fill="rgb(0, 0, 0)" stroke="rgb(204, 204, 204)" stroke-width="1px"></line><line x1="48.875" y1="88.5" x2="43.875" y2="88.5" style="visibility: inherit;" fill="rgb(0, 0, 0)" stroke="rgb(204, 204, 204)" stroke-width="1px"></line><line x1="48.875" y1="70.79999999999998" x2="43.875" y2="70.79999999999998" style="visibility: inherit;" fill="rgb(0, 0, 0)" stroke="rgb(204, 204, 204)" stroke-width="1px"></line><line x1="48.875" y1="53.10000000000001" x2="43.875" y2="53.10000000000001" style="visibility: inherit;" fill="rgb(0, 0, 0)" stroke="rgb(204, 204, 204)" stroke-width="1px"></line><line x1="48.875" y1="35.400000000000006" x2="43.875" y2="35.400000000000006" style="visibility: inherit;" fill="rgb(0, 0, 0)" stroke="rgb(204, 204, 204)" stroke-width="1px"></line><line x1="48.875" y1="17.700000000000017" x2="43.875" y2="17.700000000000017" style="visibility: inherit;" fill="rgb(0, 0, 0)" stroke="rgb(204, 204, 204)" stroke-width="1px"></line><line x1="48.875" y1="0" x2="43.875" y2="0" style="visibility: inherit;" fill="rgb(0, 0, 0)" stroke="rgb(204, 204, 204)" stroke-width="1px"></line></g><g transform="translate(38.875, 0)"><text x="0" y="177" dx="0em" dy="0.3em" style="text-anchor: end; visibility: hidden; font-family: &quot;Helvetica Neue&quot;, sans-serif; font-size: 12px; font-weight: 200;" fill="rgb(50, 49, 63)" stroke="none" stroke-width="1px">0.5</text><text x="0" y="159.29999999999998" dx="0em" dy="0.3em" style="text-anchor: end; visibility: inherit; font-family: &quot;Helvetica Neue&quot;, sans-serif; font-size: 12px; font-weight: 200;" fill="rgb(50, 49, 63)" stroke="none" stroke-width="1px">0.55</text><text x="0" y="141.60000000000002" dx="0em" dy="0.3em" style="text-anchor: end; visibility: hidden; font-family: &quot;Helvetica Neue&quot;, sans-serif; font-size: 12px; font-weight: 200;" fill="rgb(50, 49, 63)" stroke="none" stroke-width="1px">0.6</text><text x="0" y="123.89999999999999" dx="0em" dy="0.3em" style="text-anchor: end; visibility: inherit; font-family: &quot;Helvetica Neue&quot;, sans-serif; font-size: 12px; font-weight: 200;" fill="rgb(50, 49, 63)" stroke="none" stroke-width="1px">0.65</text><text x="0" y="106.20000000000002" dx="0em" dy="0.3em" style="text-anchor: end; visibility: hidden; font-family: &quot;Helvetica Neue&quot;, sans-serif; font-size: 12px; font-weight: 200;" fill="rgb(50, 49, 63)" stroke="none" stroke-width="1px">0.7</text><text x="0" y="88.5" dx="0em" dy="0.3em" style="text-anchor: end; visibility: inherit; font-family: &quot;Helvetica Neue&quot;, sans-serif; font-size: 12px; font-weight: 200;" fill="rgb(50, 49, 63)" stroke="none" stroke-width="1px">0.75</text><text x="0" y="70.79999999999998" dx="0em" dy="0.3em" style="text-anchor: end; visibility: hidden; font-family: &quot;Helvetica Neue&quot;, sans-serif; font-size: 12px; font-weight: 200;" fill="rgb(50, 49, 63)" stroke="none" stroke-width="1px">0.8</text><text x="0" y="53.10000000000001" dx="0em" dy="0.3em" style="text-anchor: end; visibility: inherit; font-family: &quot;Helvetica Neue&quot;, sans-serif; font-size: 12px; font-weight: 200;" fill="rgb(50, 49, 63)" stroke="none" stroke-width="1px">0.85</text><text x="0" y="35.400000000000006" dx="0em" dy="0.3em" style="text-anchor: end; visibility: hidden; font-family: &quot;Helvetica Neue&quot;, sans-serif; font-size: 12px; font-weight: 200;" fill="rgb(50, 49, 63)" stroke="none" stroke-width="1px">0.9</text><text x="0" y="17.700000000000017" dx="0em" dy="0.3em" style="text-anchor: end; visibility: inherit; font-family: &quot;Helvetica Neue&quot;, sans-serif; font-size: 12px; font-weight: 200;" fill="rgb(50, 49, 63)" stroke="none" stroke-width="1px">0.95</text><text x="0" y="0" dx="0em" dy="0.3em" style="text-anchor: end; visibility: hidden; font-family: &quot;Helvetica Neue&quot;, sans-serif; font-size: 12px; font-weight: 200;" fill="rgb(50, 49, 63)" stroke="none" stroke-width="1px">1</text></g><line x1="48.875" y1="0" x2="48.875" y2="177" fill="rgb(0, 0, 0)" stroke="rgb(204, 204, 204)" stroke-width="1px"></line></g></g><g transform="translate(48, 0)" clip-path="url(#clip_0)"><clipPath id="clip_0"><rect width="281" height="177"></rect></clipPath><g><g><g><line x1="0" y1="0" x2="0" y2="177" fill="rgb(0, 0, 0)" stroke="rgb(60, 60, 60)" stroke-width="1px" opacity="0.25"></line><line x1="31.23611111111111" y1="0" x2="31.23611111111111" y2="177" fill="rgb(0, 0, 0)" stroke="rgb(60, 60, 60)" stroke-width="1px" opacity="0.25"></line><line x1="62.47222222222222" y1="0" x2="62.47222222222222" y2="177" fill="rgb(0, 0, 0)" stroke="rgb(60, 60, 60)" stroke-width="1px" opacity="0.25"></line><line x1="93.70833333333333" y1="0" x2="93.70833333333333" y2="177" fill="rgb(0, 0, 0)" stroke="rgb(60, 60, 60)" stroke-width="1px" opacity="0.25"></line><line x1="124.94444444444444" y1="0" x2="124.94444444444444" y2="177" fill="rgb(0, 0, 0)" stroke="rgb(60, 60, 60)" stroke-width="1px" opacity="0.25"></line><line x1="156.18055555555557" y1="0" x2="156.18055555555557" y2="177" fill="rgb(0, 0, 0)" stroke="rgb(60, 60, 60)" stroke-width="1px" opacity="0.25"></line><line x1="187.41666666666666" y1="0" x2="187.41666666666666" y2="177" fill="rgb(0, 0, 0)" stroke="rgb(60, 60, 60)" stroke-width="1px" opacity="0.25"></line><line x1="218.65277777777777" y1="0" x2="218.65277777777777" y2="177" fill="rgb(0, 0, 0)" stroke="rgb(60, 60, 60)" stroke-width="1px" opacity="0.25"></line><line x1="249.88888888888889" y1="0" x2="249.88888888888889" y2="177" fill="rgb(0, 0, 0)" stroke="rgb(60, 60, 60)" stroke-width="1px" opacity="0.25"></line><line x1="281.125" y1="0" x2="281.125" y2="177" fill="rgb(0, 0, 0)" stroke="rgb(60, 60, 60)" stroke-width="1px" opacity="0.25"></line></g><g><line x1="0" y1="177" x2="281.125" y2="177" fill="rgb(0, 0, 0)" stroke="rgb(60, 60, 60)" stroke-width="1px" opacity="0.25"></line><line x1="0" y1="159.29999999999998" x2="281.125" y2="159.29999999999998" fill="rgb(0, 0, 0)" stroke="rgb(60, 60, 60)" stroke-width="1px" opacity="0.25"></line><line x1="0" y1="141.60000000000002" x2="281.125" y2="141.60000000000002" fill="rgb(0, 0, 0)" stroke="rgb(60, 60, 60)" stroke-width="1px" opacity="0.25"></line><line x1="0" y1="123.89999999999999" x2="281.125" y2="123.89999999999999" fill="rgb(0, 0, 0)" stroke="rgb(60, 60, 60)" stroke-width="1px" opacity="0.25"></line><line x1="0" y1="106.20000000000002" x2="281.125" y2="106.20000000000002" fill="rgb(0, 0, 0)" stroke="rgb(60, 60, 60)" stroke-width="1px" opacity="0.25"></line><line x1="0" y1="88.5" x2="281.125" y2="88.5" fill="rgb(0, 0, 0)" stroke="rgb(60, 60, 60)" stroke-width="1px" opacity="0.25"></line><line x1="0" y1="70.79999999999998" x2="281.125" y2="70.79999999999998" fill="rgb(0, 0, 0)" stroke="rgb(60, 60, 60)" stroke-width="1px" opacity="0.25"></line><line x1="0" y1="53.10000000000001" x2="281.125" y2="53.10000000000001" fill="rgb(0, 0, 0)" stroke="rgb(60, 60, 60)" stroke-width="1px" opacity="0.25"></line><line x1="0" y1="35.400000000000006" x2="281.125" y2="35.400000000000006" fill="rgb(0, 0, 0)" stroke="rgb(60, 60, 60)" stroke-width="1px" opacity="0.25"></line><line x1="0" y1="17.700000000000017" x2="281.125" y2="17.700000000000017" fill="rgb(0, 0, 0)" stroke="rgb(60, 60, 60)" stroke-width="1px" opacity="0.25"></line><line x1="0" y1="0" x2="281.125" y2="0" fill="rgb(0, 0, 0)" stroke="rgb(60, 60, 60)" stroke-width="1px" opacity="0.25"></line></g></g></g><g><g><line x1="0" y1="354" x2="281.125" y2="354" fill="rgb(0, 0, 0)" stroke="rgb(153, 153, 153)" stroke-width="1.5px"></line></g></g><g><g><line x1="31.23611111111111" y1="0" x2="31.23611111111111" y2="177" fill="rgb(0, 0, 0)" stroke="rgb(153, 153, 153)" stroke-width="1.5px"></line></g></g><g><g><g><g><g><path stroke="rgb(255, 112, 67)" stroke-width="2px" d="M39.56365833333333,-3.1153402942457546L39.58864722222222,10.977017623067496L39.888513888888895,7.32998713074511L39.93224444444444,-7.246278148641977L40.20712222222222,-0.9927416913041611L40.39453888888889,14.851562343461694L40.75063055555556,36.92338991539032L40.9318,45.64202084820022L41.031755555555556,48.1414188784137L41.13171111111111,46.11421906000439L41.48155555555555,33.315848559243335L41.80016388888889,27.386340647949226L41.912613888888885,34.68780743484072L41.96883888888889,29.628350468885372L42.06879444444444,27.174581749680158L42.087536111111106,34.15328492132116L42.362413888888895,46.64581340198876L42.755988888888886,39.95420089748342L42.89342777777778,43.43934540383205L42.912169444444444,38.5358180787091L42.96214722222222,39.19605315839797L43.21203611111111,41.95090907284958L43.318238888888885,46.497018489059L43.39945277777778,44.690098948965186L43.95545555555555,43.169294469171575L44.33028888888889,38.830898876556006L44.89878611111111,43.96069857810036L44.973752777777776,59.84777382215326L45.17366388888889,64.41481563568394L45.21114722222222,58.236541540147556L45.33609166666667,63.35289818687539L45.36732777777778,54.22620295669611L45.64845277777778,57.4748093556522L45.723419444444446,51.49650932974572L45.94207222222222,63.249084243935044L46.160725000000006,62.72932563409907L46.16697222222222,67.35015441289961L46.454344444444445,59.55455947703966L46.560547222222226,72.33250108234198L46.57304166666666,58.75629853529995L46.604277777777774,60.2849219758705L46.76045833333333,48.2789688181517L46.76670555555556,58.41413884589895L46.84167222222222,57.170909102140826L46.872908333333335,51.76450320206817L47.05407777777777,44.176768232123464L47.14778611111111,43.001121812305655L47.185269444444444,47.19116366698847L48.009902777777775,40.980092601743394L48.3535,46.36209430501884L48.659613888888885,43.03672694090622L49.328066666666665,51.697915070793755L49.77161944444445,62.240805240596416L50.04649722222222,57.34270840413872L50.21517222222222,67.29972470717134L50.23391388888889,70.00915840218364L50.59625277777777,64.6420698341721L50.983580555555555,58.4700386629697L51.20223333333333,57.1023922983525L51.41463888888889,64.99152294538726L51.5021,68.35159101332607L51.51459444444444,67.20730942633976L51.52084166666666,70.9518088468744L51.883180555555555,57.186874959995365L52.976444444444446,67.25756526835562L53.726111111111116,57.083835845278514L53.83856111111111,68.99012332265782L53.851055555555554,65.6080121344638L54.16341666666667,74.80114155687762L54.51326111111111,85.16930354641603L54.606969444444445,81.28531358842089L54.931824999999996,72.2085855853798L55.06301666666666,83.51628775908004L55.10674722222222,79.84655453868778L55.7752,76.84807821576638L55.95012222222222,79.77270152845884L56.12504444444445,84.37079087900463L56.4499,85.33052811626995L56.837227777777784,78.43216930392029L57.44945555555556,78.85939771272328L57.643119444444444,74.10115732155792L57.67435555555556,67.74789327026936L58.124155555555554,59.43797088647803L58.20536944444444,69.94885211577962L58.217863888888886,71.13571675652832L58.723888888888894,78.6306220056687L59.298633333333335,86.06579695713961L59.40483611111111,94.76921774490144L59.53602777777778,83.84909492458975L60.14825555555556,84.93406408861921L60.373155555555556,86.97434002063063L60.39814444444445,93.69650191009872L60.448122222222224,96.00995131695767L60.91041666666667,95.68114412048159L61.14781111111111,92.79016907345473L61.23527222222222,89.75106958944332L61.47266666666667,99.27372825383385L61.54763333333334,97.70242345475698L61.81001666666666,91.6808936842891L62.23482777777778,94.58747593454196L62.29105277777778,92.6110232823591L62.30979444444445,99.48179846724868L62.78458333333333,88.22880481315255L62.79707777777778,81.3488047518289L63.13442777777777,86.92290890204642L63.30935,100.28986709110578L63.96530833333333,104.2172073411503L64.52755833333333,108.75651234910241L64.62751388888888,106.19303194597572L64.714975,106.15769729563718L65.09605555555555,109.93869071930126L65.70203611111111,101.12905458050653L65.90194722222222,100.31725875996162L66.62037777777778,87.5153852013505L66.71408611111111,90.32327030347325L66.98896388888889,95.32254823593222L67.51997777777777,95.81974258749442L67.62618055555555,94.01749071317168L67.64492222222222,94.6576331188515L67.86982222222223,98.89975193323106L67.91355277777778,108.06839463222867L68.13845277777777,108.97004912560492L68.26964444444444,118.64417909541909L68.65697222222222,126.15601357793324L68.78191666666667,123.96696458444302L69.47535833333333,122.04503523221791L69.53783055555556,120.26056429690829L69.96888888888888,113.37690394488999L70.05010277777778,104.0744707665922L70.08758611111111,103.42703676713L70.16879999999999,105.49180255229763L70.52489166666668,104.88485547241862L70.66857777777777,106.29544570647057L70.69981388888888,103.51101395250784L71.06840000000001,103.60023363090413L71.21833333333333,94.01035313401731L71.81806666666667,93.58383152839012L71.968,91.48499850008767L72.30534999999999,96.81031353219677L72.48651944444444,115.33608574238019L72.82386944444445,126.20545503238796L73.0675111111111,128.48624623262862L73.08625277777777,122.9323112752675L73.16121944444444,119.14985259691707L73.35488333333333,124.65956702422994L74.00459444444445,113.37618364448488L74.05457222222222,119.29425166580164L74.14828055555556,122.83243245204142L74.7542611111111,125.44615327310473L74.91668888888888,118.19788419599479L75.05412777777778,113.29833819505657L75.62887222222223,111.51025100968528L75.67885,114.26028783573061L75.93498611111112,112.31408590944618L76.31606666666667,111.99034120364193L76.50973055555555,104.28815003468516L76.90955277777778,107.0430478825207L77.084475,114.49705551707954L77.09072222222221,122.19512514259942L77.20941944444445,121.70367968074399L77.35310555555556,118.8408779382224L77.47180277777777,127.32067947861641L77.77791666666667,125.03527653978519L77.8403888888889,125.31783936480437L77.85913055555555,120.64408134257646L77.95283888888888,127.16126059791955L78.15899722222223,123.50018863261644L79.25850833333332,119.21044638383924L79.29599166666667,117.8916147865566L79.71455555555556,113.10576517091468L79.88947777777777,113.72968873206543L79.95195,114.76423793330054L80.17060277777777,106.32653277691756L80.58916666666667,115.90492654786436L80.78907777777778,108.0706239279862L81.15766388888889,106.13960884432528L81.37631666666667,97.5386850262912L81.52000277777778,104.38547383697224L81.62620555555554,117.21093756527537L82.33838888888889,121.52154082400105L82.55704166666668,115.6852630754858L82.594525,119.2574297416538L83.02558333333333,119.26399578024922L83.30046111111112,114.7705622516273L83.48163055555555,120.80333724035015L83.51286666666667,116.57056168564071L83.56909166666667,121.78313701062147L84.13134166666667,117.83668981020895L84.15008333333334,120.51270266786366L84.32500555555555,110.61967246779888L84.38747777777778,117.25516787200621L84.74981666666666,121.26003808396726L84.96846944444444,130.69476095806164L85.17462777777779,125.92945513707755L85.180875,113.84517193783736L85.55570833333334,109.58334732621559L86.3303638888889,114.62686829906492L86.34910555555555,125.7894111462938L86.69895,128.39914088180703L86.86137777777779,116.77483466107276L86.88011944444445,123.6292958905615L87.01131111111111,120.97082494797213L87.05504166666667,127.89117164076508L87.41738055555555,124.27421676314555L87.4548638888889,131.78054100988317L87.80470833333334,122.37564214895968L88.87298333333332,110.67520084876301L88.91671388888889,106.41818098365356L89.08538888888889,101.70854890429432L89.43523333333333,107.71995770980986L89.63514444444444,116.47706215411466L90.03496666666666,123.06439185637262L90.05370833333335,119.04557276068944L90.17865277777777,113.02878170191534L90.38481111111112,112.71373217689566L90.87834166666666,122.9970089041446L90.92207222222223,131.1655036117586L91.00328611111111,141.47537733947945L91.140725,141.37601195475884L91.37811944444445,138.3393959206428L91.56553611111111,139.4271055222801L91.70922222222222,139.73208695419146L91.82167222222222,134.89640496830648L92.25897777777779,128.1941013256342L92.72751944444444,124.13610634324735L93.12734166666667,122.395424849497L93.53341111111112,119.61357922953766L94.07067222222221,119.81345469714645L94.2331,118.13044871664907L94.75786666666667,113.81112850771464L95.43256666666667,122.25335720220875L95.47629722222221,129.61009170436662L96.18223333333334,129.97352315082435L96.200975,130.845742470588L96.33216666666667,135.6409468213115L96.70075277777778,131.41911146398746L96.763225,130.3503617605946L96.78821388888888,123.85914999016414L96.96938333333333,125.52831891637021L97.17554166666667,124.19238269007784L97.50039722222222,116.51245972917431L97.6066,116.25162990931246L97.69406111111111,121.3214188578342L97.79401666666666,122.9023251630434L97.90021944444445,122.62959838495067L98.15010833333334,122.22065320363888L98.43748055555555,114.43491520137336L98.44372777777777,114.62093046695442L98.58116666666668,122.44374491805108L98.79981944444445,115.19047037383481L98.86229166666668,116.5876347042356L98.96224722222223,110.57827686174117L99.01847222222221,114.41380376162172L99.10593333333333,118.25592109288002L99.34332777777779,124.96927769616381L99.36206944444444,124.22352480670892L99.574475,119.42120118010689L99.59946388888889,110.0372122470656L99.74315,107.80000984335653L99.78063333333333,113.51004059114878L99.79312777777778,114.87749652265802L100.04301666666666,126.24885308861312L100.0805,129.27696755003677L100.16171388888888,134.10217925591314L100.19295,138.82879856039912L100.59277222222222,131.32787534481184L100.71146944444443,134.04986656240163L100.76769444444444,128.53115909416402L101.04881944444445,136.08839860629396L101.19250555555554,137.62097405833813L101.205,129.76709561015852L101.21124722222223,135.49634487906505L101.57983333333334,132.2954913585151L102.57314166666667,123.68283013157634L102.90424444444444,119.51297852785939L103.02918888888888,114.82084921235773L103.22285277777777,113.63025815030895L103.27907777777779,115.58660363400557L103.38528055555555,116.73122534301625L103.49148333333332,115.97948175160138L103.68514722222223,126.21794589452773L104.00375555555556,121.42320876176854L104.14744166666667,121.66091869387446L104.23490277777778,121.24082335301293L104.69719722222221,133.07418785374196L105.40938055555556,126.38864456344143L106.00911388888888,129.07324883179965L106.04034999999999,125.07667463324726L106.26525,125.74547806562342L106.4589138888889,119.9596194695315L107.06489444444443,109.33434530919082L107.22732222222223,115.3530767251568L107.25231111111111,120.33174192246895L107.35226666666668,125.14946271978081L107.61465,119.93813396693623L108.01447222222222,118.38316341162539L108.0332138888889,123.58217465830334L108.13316944444445,118.64052050085361L108.73290277777778,121.99776802522834L109.06400555555555,137.60519548692042L109.65749166666667,137.11431925557696L110.39466388888889,136.2892455641189L110.56958611111111,128.68173091314785L110.93817222222222,128.83388381423086L111.23179166666667,120.09991324675998L111.68159166666666,112.44047835310054L111.80028888888889,111.7031377484784L112.06891944444445,116.9993715006343L112.19386388888888,118.2958486865897L112.55620277777778,115.1764893049561L112.66240555555555,117.68344513860723L112.83108055555556,114.81906547717679L112.96227222222223,125.05899747951287L113.0372388888889,120.17195482697161L113.13094722222223,114.2024875858192L113.1559361111111,117.17443034522321L113.2621388888889,112.10523847027171L113.48703888888889,106.09896456768244L113.73692777777777,122.76904270392734L113.94308611111111,129.26869324053573L114.63028055555554,137.4301607799843L114.96138333333333,135.5810870762059L114.98637222222223,141.45614574166473L115.11131666666667,135.24037927277286L115.41743055555555,130.15238882236122L115.5986,121.95015407283569L115.86098333333334,123.42497935700095L116.17959166666667,125.48676747565074L116.32327777777779,118.68005615761638L116.69186388888889,113.248935021703L116.71060555555556,118.21823303565056L117.116675,121.29639096656244L117.29784444444444,118.36151773690466L117.51025,114.9312089381175L117.72890277777779,110.6466060696576L117.87258888888888,115.83843246808848L117.97254444444444,120.84163622684002L118.42859166666668,132.21730516330433L118.54728888888889,138.7296831487181L118.68472777777778,141.57440199128166L119.197,140.82532318634617L120.07785833333332,137.7330869209935L120.490175,130.98638354373986L120.53390555555555,127.96460014958986L120.59013055555555,130.7370254896868L120.69633333333334,131.68910536186627L120.7713,128.61344695697264L120.80878333333334,130.39473595982813L121.17736944444445,117.29298972347992L121.48973055555555,114.49572472131024L121.78335,125.4161937019573L122.00825,131.65243018754398L122.15818333333333,126.90542171649979L122.176925,120.9312197581103L122.64546666666668,111.47416802735154L122.68295,114.01225989157575L122.87036666666667,122.9707030838407L122.92659166666667,140.30648100290756L122.95158055555555,142.10350162931718L122.98906388888888,139.80374040096066L123.56380833333333,142.59343808823263L123.57005555555556,137.78580418785475L123.62003333333332,142.87350420689623L123.64502222222222,141.96170442423846L123.75122499999999,140.6674635477163L124.15104722222223,145.15949879093756L124.26974444444446,137.72130552532548L124.48215,128.41969365836545L125.11311944444445,126.24526116228915L125.50669444444443,117.6940024672557L125.79406666666667,120.58568663469609L126.06894444444444,123.43026406211649L126.18764166666668,122.93391269828676L126.60620555555556,114.91179768077015L126.96854444444445,116.15913658041646L127.11223055555556,120.70742156922157L127.61825555555555,142.0399724174698L127.89938055555555,149.70010606820347L127.91187500000001,149.84885397180892L128.11178611111112,140.30587343350038L128.30544999999998,135.48200228199357L128.67403611111112,132.32945724955198L129.5673888888889,126.55455992597933L129.71732222222224,119.25614017235398L129.77354722222222,120.60717669717764L129.81103055555556,124.66788906808074L130.09840277777778,125.15347391936409L130.11714444444445,128.975588074763L130.23584166666666,128.59283079590762L131.060475,123.33059643439273L131.1479361111111,113.61190165717497L131.7851527777778,110.41026514553484L131.91634444444446,134.62604309191377L132.36614444444444,138.2289279047851L132.74722500000001,142.47470172311094L133.197025,137.54682545700803L133.33446388888888,136.99066861175976L133.44066666666666,141.0047821027248L133.72803888888888,140.5371116055375L133.94044444444444,136.674599555333L134.3465138888889,131.05509576034518L134.68386388888888,124.07520151634196L134.84629166666667,127.78024292289723L134.87752777777777,123.49840264498894L135.32108055555554,119.95372527229608L135.54598055555556,130.52250319354428L135.85209444444445,128.82117579956468L136.23942222222223,125.85252455818423L136.24566944444445,120.87112386195518L136.458075,135.20028824310694L136.54553611111112,142.4786796253991L136.80791944444445,141.2238693047805L137.85120555555557,142.10480173881314L138.04486944444446,139.74008093151724L138.257275,130.6927806489067L138.63835555555556,128.83426632597428L138.7008277777778,129.48042906590925L138.931975,125.8895445660867L138.9819527777778,131.18331260658013L139.13813333333334,125.51186067567292L139.25058333333334,124.1926104468466L139.26307777777777,122.59751154436834L139.4067638888889,118.20364323529105L139.41301111111113,123.24255618615447L139.41925833333335,126.54493938185871L139.438,128.24142586170495L139.55669722222223,125.71169134961879L139.77535,115.11369979970048L139.9690138888889,108.93620488996736L140.10020555555556,126.14034975740572L140.21265555555556,118.63172100289617L140.27512777777778,112.19165281238529L140.83113055555557,119.60103638042432L140.91859166666666,113.03498386782059L141.0435361111111,135.7047532048324L141.0997611111111,138.87875349798796L141.14349166666668,140.4606015174329L141.1497388888889,146.47063190273877L141.33090833333335,148.84409526903892L141.39338055555558,152.20189106416382L141.51832499999998,147.81656219930457L141.94938333333334,150.93569241983298L142.25549722222223,144.52546226395728L142.46165555555555,135.3814912999485L142.69905000000003,132.59573714523398L143.39249166666667,131.78061728828482L143.54867222222222,123.44588216038542L143.5674138888889,129.60355472500322L143.62363888888888,129.82975830993175L143.79856111111113,121.91354321456623L144.0172138888889,123.10111340890333L144.09218055555556,124.42327800399067L144.33582222222222,119.06955994967225L144.49200277777777,119.0648481238103L144.59820555555555,126.38545814682342L145.02301666666668,130.72514157014666L145.16045555555556,121.4686420709942L145.33537777777778,116.64310745901196L145.67272777777777,134.61028664413885L146.50360833333335,138.9004062241542L146.50985555555556,135.15024610914156L147.10334166666667,133.6611020359836L147.38446666666667,136.48377226552023L148.14038055555554,136.57698668694886L148.1841111111111,135.55439079795119L148.96501388888888,127.2140139400592L149.26488055555555,122.03747642395678L149.67095,121.10098450397123L149.78964722222221,116.82825832971733L149.82088333333334,118.05304273014548L149.96456944444446,113.41103129413892L150.10200833333334,117.22194302575095L150.23319999999998,132.45541813669388L150.6580111111111,141.22990695654025L150.98911388888888,143.60051817905108L151.35145277777775,143.2214475346279L151.62633055555557,136.6067094726963L151.65131944444443,130.29288367769738L151.8075,132.11500556672587L152.96323611111112,131.7895792448817L153.05694444444444,123.06854673172822L153.07568611111108,121.76938903299443L153.21312500000002,127.15927727203051L153.25060833333333,126.4791520069866L153.550475,129.5071515340107L153.64418333333333,125.99987836471183L153.93155555555555,128.33551237458576L154.01901666666666,116.01359280034654L154.0877361111111,121.77465596249553L154.1439611111111,121.64577178031715L154.43133333333333,121.5738344423205L154.5000527777778,122.07139021350326L154.5375361111111,115.97876247282852L154.90612222222222,129.56484222719686L155.07479722222223,138.0434985656119L155.21848333333335,148.6842155753718L155.65578888888888,150.0425477206198L155.7932277777778,139.87544661638069L155.9993861111111,139.81713298485832L156.10558888888892,139.05386411861275L156.14931944444444,130.32723433801948L156.39920833333335,130.64455179589638L156.48042222222222,128.76685097347286L156.51165833333332,131.79009434301008L156.54914166666666,127.48417509030314L156.56788333333333,130.09350478906043L157.04267222222222,122.18125813161498L157.04891944444446,119.4087307986925L157.0614138888889,126.69713605268657L157.32379722222223,127.1901258279315L157.3425388888889,124.33578436669296L157.53620277777776,123.24647479710931L157.7048777777778,122.16416147624226L157.72361944444444,129.57889811560375L157.75485555555554,122.85814471462285L158.1047,115.75341651093316L158.19840833333333,111.17479632646652L158.25463333333332,118.57377461404093L158.26712777777777,122.17341358548693L158.5732416666667,128.76726154736454L158.92933333333335,126.23931572587354L159.21045833333335,125.56586636156477L159.46659444444444,135.74171341091775L159.54780833333334,142.30031555074683L159.55405555555558,149.35083084808727L159.69149444444446,144.1236022323784L159.72273055555556,150.42114548745255L159.79145,145.39686801947653L160.48489166666667,143.9592091257423L160.61608333333334,148.73476505369246L161.04089444444446,134.88804488235888L161.04714166666665,134.6591859629999L161.06588333333332,134.57718648739166L161.07213055555556,141.198048390314L161.3719972222222,142.2527163728267L161.52193055555557,134.96693219567481L161.7280888888889,132.04230016365736L161.88426944444447,129.13518844780378L162.3465638888889,124.54702369414004L162.59645277777778,128.0643068316116L162.64643055555555,126.16325446143948L162.8463416666667,124.10878012284758L162.92755555555556,119.1021331650324L163.3273777777778,118.27466519488735L163.7334472222222,119.12247667201665L163.87713333333332,126.41162057810013L164.40189999999998,129.43458592947115L164.42064166666665,129.23260195288535L164.45187777777778,133.95064763565944L164.87044166666666,139.90591895783L164.98289166666666,134.83744046809704L165.45143333333334,128.58715480400582L165.695075,135.02534233232416L165.70132222222222,134.1767668884997L166.68213611111113,123.45273571980027L166.94451944444444,117.90266207320704L166.95076666666665,123.11884476818571L167.3568361111111,124.13847399996477L167.39431944444445,119.88844686297631L167.5192638888889,117.94698117702043L167.5567472222222,116.88126353340645L167.68793888888888,116.38189504097284L167.72542222222225,114.5809635970019L168.10025555555555,113.62343486863509L168.46884166666666,126.3706415696033L168.6687527777778,142.77206574696828L168.71248333333332,142.87576467286664L170.0493888888889,139.53926486069628L170.20556944444445,135.9561529773156L170.28678333333335,136.87545608387472L170.45545833333333,129.18825558964062L170.49918888888888,131.29551446523456L170.56790833333335,139.10628511957043L170.59914444444445,130.72100001842807L170.64912222222222,132.36872724456208L170.73658333333333,128.59264442779195L170.91150555555555,134.46047943507176L171.3425638888889,129.1676581959399L171.36130555555553,120.57313648822736L171.6236888888889,120.4816156861951L171.84234166666664,120.44076427446423L172.0734888888889,119.9047799147762L172.64198611111112,121.48643861041054L172.7419416666667,111.59800377980221L173.41039444444445,125.57562827763168L173.454125,136.20236935435062L173.52909166666666,132.151945294251L173.84769999999997,129.02995544750092L173.91641944444444,139.21382478522418L173.9226666666667,137.75237018851735L174.48491666666666,139.60497383468328L174.50365833333333,139.2656800996839L175.422,138.42500912258498L175.4469888888889,135.1193224615423L175.4532361111111,125.11226415792513L175.55943888888888,121.71423912143354L175.6531472222222,118.74657483157901L175.71561944444443,111.90894553218713L175.7843388888889,113.64018414708633L175.815575,117.1062932866374L175.84681111111112,122.86321540221925L175.8718,120.3121863576493L175.90928333333335,114.28290445642003L176.05921666666666,121.71297244451245L176.12168888888888,120.70706393850924L176.28411666666668,122.94569479544805L176.56524166666668,112.6524605460158L176.70892777777777,116.47851489229151L177.02753611111112,116.55714053060503L177.17746944444445,122.37712766019041L177.29616666666666,120.91581702999791L177.38362777777778,120.7505072639735L177.58978611111112,130.72895573892302L178.29572222222222,133.50419296811882L178.6018361111111,130.1127941011838L179.1078611111111,137.9396175026567L179.17658055555555,134.23632408855389L179.301525,124.80519720124025L179.67635833333333,124.66297571782358L179.75757222222222,121.86497049882462L179.98871944444443,117.02105944963961L180.11366388888888,122.01979375846784L180.18238333333335,122.22061987499953L180.71964444444444,123.1737064110074L180.78211666666667,117.32232506196702L181.662975,121.96259526682496L181.89412222222225,121.36014964743018L181.90661666666668,119.25095717050766L182.08778611111111,120.7524424072393L182.33142777777778,133.29402540184788L182.63129444444445,147.19612597261505L182.93116111111112,135.5177824904599L182.94365555555555,130.03731396258343L182.99363333333335,132.1446686414508L183.18105,136.5446408645885L183.3247361111111,134.28651056626896L183.41219722222223,134.71749793255006L183.7682888888889,130.18575574614806L184.3680222222222,125.55452314411521L184.6491472222222,128.73820032712771L184.67413611111112,125.75909594319432L185.04896944444442,125.01426245941022L185.33634166666667,125.34563328131019L185.52375833333335,121.93254175963386L185.66119722222223,123.3549604843997L185.711175,130.0511827725734L186.4733361111111,132.51704165092502L186.6607527777778,127.8469744011843L186.79819166666667,137.70618440419935L187.00435000000002,138.45528017109933L187.18551944444445,140.31105558053437L187.46664444444446,139.86069526657928L187.71028611111112,133.85151180258674L188.24754722222224,137.6816995181518L188.70359444444443,134.33558407055597L188.85977499999998,126.0574036516384L188.94098888888888,126.99818706975195L188.9972138888889,124.20395207682738L189.49074444444443,125.28655414747888L189.85933055555557,124.85281379799662L190.5715138888889,119.36841807234656L190.6652222222222,115.23484230916723L190.99007777777777,121.27835512686389L191.15875277777778,117.35770283060444L191.54608055555556,132.30073076437216L191.7022611111111,139.16083062857567L192.25826388888888,135.50826781493532L192.48941111111114,141.52904458941285L192.7080638888889,135.3428611046151L192.9142222222222,139.98918238199212L193.17035833333335,140.4950813228873L193.84505833333333,131.3096691474311L193.9450138888889,129.69608953624916L194.07620555555553,123.23907753843041L194.13243055555557,123.5572887719749L194.2323861111111,124.27472913629282L194.6259611111111,128.9697317383675L194.63220833333335,126.90104337346483L194.71966944444443,123.31424815542655L195.4068638888889,129.1057975237796L195.48807777777776,127.73360809953388L195.55679722222223,135.00038057131397L196.18151944444446,136.62690800167815L196.60008333333334,136.04563275419292L196.86246666666668,138.73004960681567L197.84952777777775,135.19843325415593L198.37429444444444,129.44415369867886L198.3867888888889,127.735884423492L198.63667777777778,126.26280855860568L198.642925,133.2736965163127L198.64917222222223,126.26447544953677L198.7491277777778,128.03873755014808L198.83034166666667,119.47772470400852L198.8428361111111,117.86826791337802L199.46131111111112,121.27264932377145L200.39839444444442,118.12717396964433L200.7982166666667,129.85570511191966L200.8357,137.72647810560395L200.87318333333334,138.3183043991442L200.89817222222223,143.17579513757917L200.90441944444444,144.94982374888357L201.37296111111112,141.71487057913362L201.62285,135.70765006964814L201.9664472222222,140.05971400991325L202.64739444444444,135.51516776713873L202.71611388888888,129.5344755973407L202.76609166666665,126.23674294507435L203.06595833333336,126.54738219473319L203.21589166666666,125.25779232915374L203.46578055555557,125.5172231765755L203.48452222222224,122.11968487335253L203.6781861111111,128.6698758234561L203.74065833333333,130.08315179526687L203.78438888888888,132.00208810436655L203.89683888888888,127.31574284713226L204.25293055555554,129.0383014421508L204.377875,123.19683450107844L204.39661666666666,121.54259701755686L204.52780833333335,108.91934721581367L205.06506944444445,126.40297432489533L205.63356666666667,136.91633531896676L205.64606111111112,144.82105134396792L205.84597222222223,137.4374154476466L205.9584222222222,138.8304832022275L207.7263861111111,128.96284532790693L207.88881388888888,129.5378015055973L208.1636916666667,127.31694231121057L208.50728888888887,126.95471654944609L208.89461666666665,121.66428901322479L208.97583055555555,110.25817938785428L209.55057499999998,112.2212669619362L209.73174444444444,130.87419303467513L209.9753861111111,134.36945433742187L210.38145555555556,129.73160359457958L211.72460833333332,135.1061786961307L212.21813888888892,130.73792935322223L212.38056666666665,130.04709363526402L212.51800555555556,135.3427705797332L212.6367027777778,129.64036660389766L212.76164722222222,127.7761834442417L212.79288333333335,124.52948088525535L212.8928388888889,125.74052421497584L212.96780555555554,125.72793126253653L213.0677611111111,121.51169314472895L213.23643611111112,121.30854243331565L213.66124722222224,119.92196599419957L213.9673611111111,117.37364969120053L214.048575,107.24754815975206L214.0985527777778,110.12964938687907L214.69203888888887,126.6257001317002L215.14183888888888,135.15714491346228L215.34799722222223,130.3037426289245L215.39172777777776,135.00073169567133L215.4479527777778,139.8731072836992L215.7603138888889,132.01395426356058L215.77905555555554,136.665734256287L215.91024722222224,139.0103253155825L215.9852138888889,133.40126459776627L216.1039111111111,127.73188901531256L216.22260833333334,123.88560977332327L217.07223055555556,115.32024430485089L217.57825555555553,115.67424430401041L217.58450277777777,114.31671661109277L217.79690833333333,113.70212713462442L217.91560555555557,114.69623374690015L218.20297777777776,130.26027574389818L218.65277777777777,122.5136828318217L218.68401388888887,123.9066781935083L218.84644166666666,136.2195321999185L219.13381388888888,136.81695496333793L219.2275222222222,144.29748379762862L219.5086472222222,142.49136249766286L219.73979444444444,150.21694131222685L220.008425,142.75735499577118L220.13336944444444,143.76390954325433L220.17085277777778,133.8323538569798L220.25206666666665,134.51303888965788L220.42698888888887,138.91324068074908L220.69561944444445,135.22114563563753L220.94550833333335,132.03770885812813L221.36407222222223,133.13842054574235L221.52025277777778,132.69952681284275L221.56398333333334,130.53185249937255L221.58897222222222,134.5805902097981L222.20744722222224,130.75067350950007L222.22618888888888,128.8613047461877L222.47607777777776,124.81204561359704L222.67598888888887,125.13643414954558L223.06331666666665,121.6848867844356L223.1507777777778,117.22483411495762L223.25698055555554,115.38655867019224L223.2632277777778,123.64749764108018L223.52561111111112,134.0807716292343L224.1440861111111,131.06448136819608L224.31276111111112,139.86218897732024L225.22485555555554,134.16683244843438L225.55595833333334,129.43072228514643L226.23065833333334,123.13296177913841L226.29937777777778,122.21991092521006L227.06778611111113,126.07510260676179L227.43637222222222,123.89540207347173L227.66751944444445,116.300224327808L227.79871111111112,112.22685729489648L228.02985833333335,126.64830500498965L228.2547583333333,139.03883546957707L228.26100555555556,132.8437320850452L228.4171861111111,142.17559574020865L228.8045138888889,137.57663210614302L228.8419972222222,133.08131108512745L228.93570555555556,135.84297000068582L229.24806666666666,133.49277154623366L229.41049444444445,127.46983675967988L229.51669722222223,130.56213415152632L229.66038333333333,135.750906017344L229.94775555555555,138.70754772837208L230.353825,133.246369781585L230.39755555555556,127.487124647195L230.44753333333333,126.44056117862156L230.7474,125.26700971323068L230.80362499999998,124.94627507804525L231.1722111111111,121.42061810659582L231.253425,109.77294133286007L232.15927222222223,112.36489476072984L232.23423888888888,118.51287968938468L232.44039722222223,124.52882828703474L232.45289166666666,143.3454272174296L232.70278055555556,148.82574259182556L233.10885000000002,146.84704849088635L233.57114444444446,144.39189661124018L233.8647638888889,144.77836926328342L234.0896638888889,143.5990565749836L234.27083333333334,136.19190107183647L234.45200277777778,135.1660343789875L234.53321666666668,133.22400522135612L234.55195833333335,132.33285198153806L234.964275,135.62123485530466L234.98301666666666,130.55967862680586L235.25164722222223,129.49612230822459L235.4952888888889,130.0135451004804L235.55776111111112,124.95522755658037L235.5765027777778,126.61378995344283L235.90760555555556,122.76037354329371L236.61354166666666,122.5289062205502L236.7322388888889,119.04768597743205L236.77596944444446,124.07230202949816L236.78221666666667,125.4184379613207L236.8259472222222,119.20123958801071L237.23201666666665,131.81025467047L237.40693888888887,130.8995143039757L237.48190555555556,137.70056125305499L237.56311944444445,141.54697049130442L237.60684999999998,144.4565217761364L238.112875,136.68427578617136L238.31903333333332,132.9194355965197L238.34402222222224,133.1319459057176L238.51269722222222,131.35423625566506L238.52519166666667,135.21193879281248L238.94375555555555,129.6692076768563L239.08744166666668,131.4599752572826L239.52474722222223,130.42449046061344L239.58721944444446,130.49317102960293L239.6934222222222,124.43280361492364L239.73715277777777,119.35057181357698L239.75589444444444,119.3986179485283L239.84335555555555,112.78395321693192L239.91207500000002,113.83421346382005L240.7616972222222,114.34851348898235L240.99284444444444,118.8255169659938L241.33644166666667,122.56961619079621L241.3801722222222,123.2662437154085L241.78624166666665,133.89258199889844L241.9424222222222,147.82196449017158L241.99864722222225,148.45433606371662L242.0736138888889,149.5068588594519L242.1923111111111,148.51433589100375L242.2985138888889,149.08443075442037L242.39222222222222,150.85186318173243L242.6358638888889,150.2931558824434L242.71083055555556,142.79919288974128L242.8670111111111,134.65747860921098L243.0544277777778,131.82420990379256L243.09815833333334,132.53145144886736L243.46049722222222,134.22801088396886L243.52921666666666,129.69747046890365L243.74786944444443,126.55403096832339L243.86656666666667,136.25425476644935L243.9102972222222,127.25685765036644L244.19766944444444,123.99176889472423L244.522525,132.5797584403349L244.54126666666667,132.85625598125418L244.75991944444445,138.71727588947272L245.18473055555555,132.08291818604263L245.3409111111111,125.86596895399924L245.55331666666666,118.70352273668789L245.57205833333336,114.80011099270547L245.8969138888889,126.69168115670423L245.9031611111111,127.85497313150728L245.9531388888889,119.75109861736873L246.0343527777778,119.20048355129586L246.37795,131.95894460122122L246.546625,143.22154643678866L246.92145833333333,148.29134031858564L246.92770555555555,141.8166831298263L247.09013333333334,141.95567569515651L247.1651,146.67563715804548L247.25880833333332,139.47450079458315L247.38375277777777,140.2194163199506L247.43997777777776,138.3189181921626L247.4962027777778,141.5599928639975L247.68361944444445,137.69051203385868L247.98973333333333,133.85396695885586L248.33333055555556,135.43211017104105L248.53324166666667,132.48038312227794L248.67068055555555,130.11600520867864L249.12672777777777,128.95922156964997L249.6140111111111,123.05758450505294L250.07630555555556,118.74837497518752L250.38241944444445,117.44925987509663L250.60731944444444,120.82106416098938L250.9946472222222,135.39306044979492L251.31325555555554,135.01015992405175L251.4756833333333,136.93983189727163L251.49442499999998,142.33075971880731L251.9692138888889,139.66168439077842L252.10040555555554,142.37121455483145L252.15038333333334,139.12585239775484L252.23159722222223,138.79516013364494L252.24409166666666,139.6665170186788L252.281575,140.20775570833865L252.68139722222222,130.05413254716507L252.89380277777778,132.90565972696848L252.9062972222222,132.08104279739325L252.91254444444445,126.5739486879269L253.44980555555554,134.74241084254743L253.4685472222222,132.79672633646106L253.63722222222222,128.8684508027922L254.70549722222222,132.04176488055532L254.74922777777778,129.9560725601539L254.980375,128.87900261354594L255.16154444444444,123.4811572806367L255.19278055555554,116.88081635095648L255.45516388888888,127.55767028962356L255.84249166666666,141.95617557427158L255.94869444444444,142.49301367319146L255.95494166666666,145.61015499422862L256.3672583333333,135.54933536523527L256.4172361111111,141.74971297069754L256.4922027777778,142.77303315808993L256.72335,140.1303262806572L256.72959722222225,138.288142496147L256.7483388888889,136.86766508448017L257.16065555555554,137.09841858880458L257.4855111111111,131.09382068834745L257.57921944444445,128.6378240330341L257.6729277777778,131.8406626071526L257.77288333333337,125.55829718625505L257.8540972222222,127.60123960325693L258.07275,123.73244156926614L258.1914472222222,124.63663367324918L258.2351777777778,128.79256527360587L259.69078055555553,124.54145288906284L259.85945555555554,115.95895800853839" style="fill: none;" fill="none"></path></g></g></g></g><g opacity="0.2"><g><g><g><path stroke="rgb(255, 112, 67)" stroke-width="2px" d="M38.13304444444445,-11.050177574157715L38.60783333333333,8.024853229522705L39.11385833333333,1.9001222848892212L39.45745555555556,-42.08707666397095L39.476197222222225,17.50940752029419L39.56365833333333,4.431009292602539L39.58864722222222,32.115554451942444L39.888513888888895,1.8594413995742798L39.93224444444444,-29.110676050186157L40.20712222222222,8.387562990188599L40.39453888888889,38.61801838874817L40.75063055555556,70.03113126754761L40.9318,58.7199672460556L41.031755555555556,51.89051592350006L41.13171111111111,43.07341933250427L41.48155555555555,14.118292808532715L41.80016388888889,18.49207878112793L41.912613888888885,45.64000761508942L41.96883888888889,22.039165019989014L42.06879444444444,23.49392867088318L42.087536111111106,44.62133967876434L42.362413888888895,65.38460612297058L42.755988888888886,29.91678214073181L42.89342777777778,48.667062163352966L42.912169444444444,31.180527091026306L42.96214722222222,40.18640577793121L43.21203611111111,46.08319294452667L43.318238888888885,53.3161826133728L43.39945277777778,41.97971963882446L43.95545555555555,40.8880877494812L44.33028888888889,32.32330548763275L44.89878611111111,51.65539813041687L44.973752777777776,83.67838668823242L45.17366388888889,71.26537835597992L45.21114722222222,48.96913039684296L45.33609166666667,71.02743315696716L45.36732777777778,40.53616011142731L45.64845277777778,62.347718954086304L45.723419444444446,42.529059290885925L45.94207222222222,80.87794661521912L46.160725000000006,61.94968771934509L46.16697222222222,74.28139758110046L46.454344444444445,47.86116707324982L46.560547222222226,91.49941349029541L46.57304166666666,38.39199471473694L46.604277777777774,62.57785713672638L46.76045833333333,30.270039081573486L46.76670555555556,73.61689388751984L46.84167222222222,55.3060644865036L46.872908333333335,43.65489435195923L47.05407777777777,32.79516577720642L47.14778611111111,41.23765218257904L47.185269444444444,53.476226449012756L48.009902777777775,31.663486003875732L48.3535,54.435096859931946L48.659613888888885,38.048675894737244L49.328066666666665,64.689697265625L49.77161944444445,78.0551404953003L50.04649722222222,49.99556314945221L50.21517222222222,82.23524916172028L50.23391388888889,74.07330894470215L50.59625277777777,56.591436982154846L50.983580555555555,49.21199190616608L51.20223333333333,55.0509227514267L51.41463888888889,76.82521891593933L51.5021,73.39169311523438L51.51459444444444,65.49088704586029L51.52084166666666,76.56855797767639L51.883180555555555,36.53947412967682L52.976444444444446,82.363600730896L53.726111111111116,41.82324171066284L53.83856111111111,86.8495545387268L53.851055555555554,60.53484535217285L54.16341666666667,88.59083569049835L54.51326111111111,100.72154653072357L54.606969444444445,75.45932865142822L54.931824999999996,58.593493580818176L55.06301666666666,100.47784101963043L55.10674722222222,74.34195470809937L55.7752,72.35036373138428L55.95012222222222,84.15963649749756L56.12504444444445,91.2679249048233L56.4499,86.77013397216797L56.837227777777784,68.08463108539581L57.44945555555556,79.50024032592773L57.643119444444444,66.96379673480988L57.67435555555556,58.21799719333649L58.124155555555554,46.973087310791016L58.20536944444444,85.71517395973206L58.217863888888886,72.91601371765137L58.723888888888894,89.87297987937927L59.298633333333335,97.21855938434601L59.40483611111111,107.82434892654419L59.53602777777778,67.46891069412231L60.14825555555556,86.56151783466339L60.373155555555556,90.03475391864777L60.39814444444445,103.77974474430084L60.448122222222224,99.4801254272461L60.91041666666667,95.18793332576752L61.14781111111111,88.45370650291443L61.23527222222222,85.19242036342621L61.47266666666667,113.55771625041962L61.54763333333334,95.34546625614166L61.81001666666666,82.64859902858734L62.23482777777778,98.94734930992126L62.29105277777778,89.64634430408478L62.30979444444445,109.78796124458313L62.78458333333333,71.34931433200836L62.79707777777778,71.02880465984344L63.13442777777777,95.28406512737274L63.30935,120.34030437469482L63.96530833333333,110.10821771621704L64.52755833333333,115.56546986103058L64.62751388888888,102.3478113412857L64.714975,106.1046953201294L65.09605555555555,115.61018085479736L65.70203611111111,87.91460037231445L65.90194722222222,99.09956502914429L66.62037777777778,68.31257486343384L66.71408611111111,94.53509795665741L66.98896388888889,102.82146513462067L67.51997777777777,96.56553411483765L67.62618055555555,91.31411290168762L67.64492222222222,95.61784672737122L67.86982222222223,105.26293015480042L67.91355277777778,121.8213586807251L68.13845277777777,110.32253086566925L68.26964444444444,133.15537405014038L68.65697222222222,137.4237653017044L68.78191666666667,120.68339109420776L69.47535833333333,119.16214120388031L69.53783055555556,117.58385789394379L69.96888888888888,103.05141341686249L70.05010277777778,90.12082099914551L70.08758611111111,102.4558857679367L70.16879999999999,108.58895123004913L70.52489166666668,103.9744348526001L70.66857777777777,108.41133105754852L70.69981388888888,99.33436632156372L71.06840000000001,103.73406314849854L71.21833333333333,79.62553238868713L71.81806666666667,92.94404911994934L71.968,88.33674895763397L72.30534999999999,104.79828608036041L72.48651944444444,143.12474405765533L72.82386944444445,142.5095089673996L73.0675111111111,131.9074330329895L73.08625277777777,114.60140883922577L73.16121944444444,113.47616457939148L73.35488333333333,132.92413866519928L74.00459444444445,96.45110857486725L74.05457222222222,128.1713536977768L74.14828055555556,128.13970363140106L74.7542611111111,129.3667345046997L74.91668888888888,107.3254805803299L75.05412777777778,105.94901919364929L75.62887222222223,108.82812023162842L75.67885,118.38534307479858L75.93498611111112,109.39478302001953L76.31606666666667,111.50472414493561L76.50973055555555,92.73486328125L76.90955277777778,111.17539465427399L77.084475,125.67806696891785L77.09072222222221,133.7422295808792L77.20941944444445,120.96651148796082L77.35310555555556,114.54667532444L77.47180277777777,140.04038178920746L77.77791666666667,121.60717213153839L77.8403888888889,125.74168360233307L77.85913055555555,113.63344430923462L77.95283888888888,136.93702948093414L78.15899722222223,118.00858068466187L79.25850833333332,112.77583301067352L79.29599166666667,115.91336739063263L79.71455555555556,105.92699074745178L79.88947777777777,114.6655740737915L79.95195,116.3160617351532L80.17060277777777,93.66997504234314L80.58916666666667,130.27251720428467L80.78907777777778,96.31916999816895L81.15766388888889,103.24308621883392L81.37631666666667,84.63729929924011L81.52000277777778,114.65565705299377L81.62620555555554,136.4491331577301L82.33838888888889,127.98744571208954L82.55704166666668,106.93084645271301L82.594525,124.61567974090576L83.02558333333333,119.2738448381424L83.30046111111112,108.03041195869446L83.48163055555555,129.85249972343445L83.51286666666667,110.22139835357666L83.56909166666667,129.60199999809265L84.13134166666667,111.91701900959015L84.15008333333334,124.5267219543457L84.32500555555555,95.78012716770172L84.38747777777778,127.20841097831726L84.74981666666666,127.26734340190887L84.96846944444444,144.8468452692032L85.17462777777779,118.7814964056015L85.180875,95.71874713897705L85.55570833333334,103.19061040878296L86.3303638888889,122.19214975833893L86.34910555555555,142.53322541713715L86.69895,132.3137354850769L86.86137777777779,99.33837532997131L86.88011944444445,133.91098773479462L87.01131111111111,116.98311853408813L87.05504166666667,138.27169167995453L87.41738055555555,118.84878444671631L87.4548638888889,143.04002737998962L87.80470833333334,108.26829385757446L88.87298333333332,93.12453889846802L88.91671388888889,100.03265118598938L89.08538888888889,94.64410078525543L89.43523333333333,116.73707091808319L89.63514444444444,129.6127188205719L90.03496666666666,132.94538640975952L90.05370833333335,113.01734411716461L90.17865277777777,104.00359511375427L90.38481111111112,112.24115788936615L90.87834166666666,138.421923995018L90.92207222222223,143.41824567317963L91.00328611111111,156.9401879310608L91.140725,141.22696387767792L91.37811944444445,133.7844718694687L91.56553611111111,141.05866992473602L91.70922222222222,140.1895591020584L91.82167222222222,127.64288198947906L92.25897777777779,118.14064586162567L92.72751944444444,118.04911386966705L93.12734166666667,119.78440260887146L93.53341111111112,115.4408107995987L94.07067222222221,120.11326789855957L94.2331,115.60593974590302L94.75786666666667,107.33214819431305L95.43256666666667,134.9167002439499L95.47629722222221,140.64519345760345L96.18223333333334,130.51867032051086L96.200975,132.15407145023346L96.33216666666667,142.83375334739685L96.70075277777778,125.0863584280014L96.763225,128.74723720550537L96.78821388888888,114.12233233451843L96.96938333333333,128.03207230567932L97.17554166666667,122.18847835063934L97.50039722222222,104.99257528781891L97.6066,115.86038517951965L97.69406111111111,128.92610228061676L97.79401666666666,125.27368462085724L97.90021944444445,122.22050821781158L98.15010833333334,121.60723543167114L98.43748055555555,102.75630819797516L98.44372777777777,114.89995336532593L98.58116666666668,134.17796659469604L98.79981944444445,104.31055855751038L98.86229166666668,118.68338119983673L98.96224722222223,101.56424009799957L99.01847222222221,120.16709411144257L99.10593333333333,124.01909708976746L99.34332777777779,135.03931260108948L99.36206944444444,123.10489547252655L99.574475,112.21771574020386L99.59946388888889,95.96122884750366L99.74315,104.44420623779297L99.78063333333333,122.07508671283722L99.79312777777778,116.92868041992188L100.04301666666666,143.30588793754578L100.0805,133.81913924217224L100.16171388888888,141.33999681472778L100.19295,145.918727517128L100.59277222222222,120.07649052143097L100.71146944444443,138.13285338878632L100.76769444444444,120.25309789180756L101.04881944444445,147.42425787448883L101.19250555555554,139.91983723640442L101.205,117.9862779378891L101.21124722222223,144.09021878242493L101.57983333333334,127.49421107769012L102.57314166666667,110.76383829116821L102.90424444444444,113.25820112228394L103.02918888888888,107.78265523910522L103.22285277777777,111.84437155723572L103.27907777777779,118.52112185955048L103.38528055555555,118.44815790653229L103.49148333333332,114.85186636447906L103.68514722222223,141.57564210891724L104.00375555555556,114.2311030626297L104.14744166666667,122.01748359203339L104.23490277777778,120.61068034172058L104.69719722222221,150.8242346048355L105.40938055555556,116.36032962799072L106.00911388888888,133.10015523433685L106.04034999999999,119.0818133354187L106.26525,126.74868321418762L106.4589138888889,111.28083157539368L107.06489444444443,93.39643406867981L107.22732222222223,124.38117384910583L107.25231111111111,127.7997397184372L107.35226666666668,132.3760439157486L107.61465,112.12114083766937L108.01447222222222,116.05070757865906L108.0332138888889,131.3806915283203L108.13316944444445,111.22803926467896L108.73290277777778,127.03363931179047L109.06400555555555,161.01633667945862L109.65749166666667,136.3780049085617L110.39466388888889,135.05163502693176L110.56958611111111,117.27045893669128L110.93817222222222,129.0621131658554L111.23179166666667,106.99895739555359L111.68159166666666,100.95132601261139L111.80028888888889,110.5971268415451L112.06891944444445,124.9437221288681L112.19386388888888,120.24056446552277L112.55620277777778,110.4974502325058L112.66240555555555,121.44387888908386L112.83108055555556,110.52249598503113L112.96227222222223,140.41889548301697L113.0372388888889,112.84139084815979L113.13094722222223,105.24828672409058L113.1559361111111,121.63234448432922L113.2621388888889,104.50145065784454L113.48703888888889,97.08955371379852L113.73692777777777,147.77415990829468L113.94308611111111,139.0181690454483L114.63028055555554,149.6723620891571L114.96138333333333,132.80747652053833L114.98637222222223,150.2687337398529L115.11131666666667,125.91672956943512L115.41743055555555,122.52040314674377L115.5986,109.64680194854736L115.86098333333334,125.6372172832489L116.17959166666667,128.5794496536255L116.32327777777779,108.46998918056488L116.69186388888889,105.10225331783295L116.71060555555556,125.67218005657196L117.116675,125.9136278629303L117.29784444444444,113.95920789241791L117.51025,109.78574573993683L117.72890277777779,104.21970176696777L117.87258888888888,123.62617206573486L117.97254444444444,128.34644186496735L118.42859166666668,149.2808085680008L118.54728888888889,148.49825012683868L118.68472777777778,145.84148025512695L119.197,139.70170497894287L120.07785833333332,133.09473252296448L120.490175,120.8663284778595L120.53390555555555,123.43192505836487L120.59013055555555,134.89566349983215L120.69633333333334,133.1172251701355L120.7713,123.99995934963226L120.80878333333334,133.06666946411133L121.17736944444445,97.64037036895752L121.48973055555555,110.29982721805573L121.78335,141.79689717292786L122.00825,141.00678491592407L122.15818333333333,119.78490900993347L122.176925,111.96991682052612L122.64546666666668,97.28859043121338L122.68295,117.81939768791199L122.87036666666667,136.40836787223816L122.92659166666667,166.31014788150787L122.95158055555555,144.79903256893158L122.98906388888888,136.3540985584259L123.56380833333333,146.77798461914062L123.57005555555556,130.5743533372879L123.62003333333332,150.50505423545837L123.64502222222222,140.59400475025177L123.75122499999999,138.72610223293304L124.15104722222223,151.89755165576935L124.26974444444446,126.56401562690735L124.48215,114.46727585792542L125.11311944444445,122.98361241817474L125.50669444444443,104.8671144247055L125.79406666666667,124.92321288585663L126.06894444444444,127.69713020324707L126.18764166666668,122.18938565254211L126.60620555555556,102.87862515449524L126.96854444444445,118.03014492988586L127.11223055555556,127.5298490524292L127.61825555555555,174.03879868984222L127.89938055555555,161.1903065443039L127.91187500000001,150.0719758272171L128.11178611111112,125.9914026260376L128.30544999999998,128.24619555473328L128.67403611111112,127.60063970088959L129.5673888888889,117.89221394062042L129.71732222222224,108.3085105419159L129.77354722222222,122.63373148441315L129.81103055555556,130.75895762443542L130.09840277777778,125.88185119628906L130.11714444444445,134.70875930786133L130.23584166666666,128.0186948776245L131.060475,115.43724489212036L131.1479361111111,99.03385949134827L131.7851527777778,105.60781037807465L131.91634444444446,170.94971001148224L132.36614444444444,143.6332551240921L132.74722500000001,148.84336245059967L133.197025,130.1550110578537L133.33446388888888,136.15643334388733L133.44066666666666,147.02595233917236L133.72803888888888,139.83560585975647L133.94044444444444,130.88083148002625L134.3465138888889,122.62584006786346L134.68386388888888,113.60536015033722L134.84629166666667,133.3378050327301L134.87752777777777,117.07564222812653L135.32108055555554,114.63670921325684L135.54598055555556,146.37567007541656L135.85209444444445,126.26918470859528L136.23942222222223,121.39954769611359L136.24566944444445,113.3990228176117L136.458075,156.6940348148346L136.54553611111112,153.39626669883728L136.80791944444445,139.34165382385254L137.85120555555557,143.42620038986206L138.04486944444446,136.19299972057343L138.257275,117.12183022499084L138.63835555555556,126.04649484157562L138.7008277777778,130.44967317581177L138.931975,120.50321781635284L138.9819527777778,139.12396466732025L139.13813333333334,117.00468277931213L139.25058333333334,122.21373510360718L139.26307777777777,120.20486319065094L139.4067638888889,111.61284077167511L139.41301111111113,130.80092561244965L139.41925833333335,131.49851417541504L139.438,130.7861555814743L139.55669722222223,121.91708958148956L139.77535,99.216712474823L139.9690138888889,99.66996252536774L140.10020555555556,151.94656705856323L140.21265555555556,107.3687778711319L140.27512777777778,102.53155052661896L140.83113055555557,130.7151117324829L140.91859166666666,103.1859050989151L141.0435361111111,169.70940721035004L141.0997611111111,143.63975393772125L141.14349166666668,142.83337354660034L141.1497388888889,155.48567748069763L141.33090833333335,152.40429031848907L141.39338055555558,157.2385847568512L141.51832499999998,141.2385689020157L141.94938333333334,155.6143877506256L142.25549722222223,134.91011703014374L142.46165555555555,121.66553485393524L142.69905000000003,128.41710591316223L143.39249166666667,130.55793750286102L143.54867222222222,110.94377946853638L143.5674138888889,138.84006357192993L143.62363888888888,130.16906368732452L143.79856111111113,110.03922057151794L144.0172138888889,124.88246870040894L144.09218055555556,126.4065248966217L144.33582222222222,111.03898286819458L144.49200277777777,119.0577803850174L144.59820555555555,137.36637318134308L145.02301666666668,137.23466670513153L145.16045555555556,107.58389282226562L145.33537777777778,109.40480554103851L145.67272777777777,161.56105542182922L146.50360833333335,145.33558559417725L146.50985555555556,129.52500593662262L147.10334166666667,131.42738592624664L147.38446666666667,140.71777760982513L148.14038055555554,136.7168083190918L148.1841111111111,134.02049696445465L148.96501388888888,114.70344865322113L149.26488055555555,114.27267014980316L149.67095,119.69624662399292L149.78964722222221,110.41916906833649L149.82088333333334,119.89021933078766L149.96456944444446,106.44801414012909L150.10200833333334,122.93831062316895L150.23319999999998,155.30563080310822L150.6580111111111,154.39164018630981L150.98911388888888,147.15643501281738L151.35145277777775,142.65284156799316L151.62633055555557,126.68460237979889L151.65131944444443,120.82214498519897L151.8075,134.84818840026855L152.96323611111112,131.30143976211548L153.05694444444444,109.98699796199799L153.07568611111108,119.8206524848938L153.21312500000002,135.24410963058472L153.25060833333333,125.45896410942078L153.550475,134.0491508245468L153.64418333333333,120.73896861076355L153.93155555555555,131.83896338939667L154.01901666666666,97.53071343898773L154.0877361111111,130.416250705719L154.1439611111111,121.45244550704956L154.43133333333333,121.46592843532562L154.5000527777778,122.8177238702774L154.5375361111111,106.8398208618164L154.90612222222222,149.9439618587494L155.07479722222223,150.76148307323456L155.21848333333335,164.6452910900116L155.65578888888888,152.08004593849182L155.7932277777778,124.62479496002197L155.9993861111111,139.72966253757477L156.10558888888892,137.90896081924438L156.14931944444444,117.23728966712952L156.39920833333335,131.1205279827118L156.48042222222222,125.95029973983765L156.51165833333332,136.32495939731598L156.54914166666666,121.02529621124268L156.56788333333333,134.00749933719635L157.04267222222222,110.31288814544678L157.04891944444446,115.24993979930878L157.0614138888889,137.62974393367767L157.32379722222223,127.92961049079895L157.3425388888889,120.0542721748352L157.53620277777776,121.61251044273376L157.7048777777778,120.54069149494171L157.72361944444444,140.701003074646L157.75485555555554,112.77701461315155L158.1047,105.09632420539856L158.19840833333333,104.30686604976654L158.25463333333332,129.67224204540253L158.26712777777777,127.57287204265594L158.5732416666667,138.65803349018097L158.92933333333335,122.44739699363708L159.21045833333335,124.55569231510162L159.46659444444444,151.0054839849472L159.54780833333334,152.13821876049042L159.55405555555558,159.9266037940979L159.69149444444446,136.282759308815L159.72273055555556,159.86746037006378L159.79145,137.8604518175125L160.48489166666667,141.802720785141L160.61608333333334,155.89809894561768L161.04089444444446,114.11796462535858L161.04714166666665,134.3158975839615L161.06588333333332,134.4541872739792L161.07213055555556,151.12934124469757L161.3719972222222,143.83471834659576L161.52193055555557,124.0382559299469L161.7280888888889,127.6553521156311L161.88426944444447,124.77452087402344L162.3465638888889,117.66477656364441L162.59645277777778,133.3402315378189L162.64643055555555,123.31167590618134L162.8463416666667,121.02706861495972L162.92755555555556,111.59216272830963L163.3273777777778,117.0334632396698L163.7334472222222,120.39419388771057L163.87713333333332,137.34533643722534L164.40189999999998,133.9690339565277L164.42064166666665,128.9296259880066L164.45187777777778,141.02771615982056L164.87044166666666,148.83882594108582L164.98289166666666,127.23472273349762L165.45143333333334,119.21172630786896L165.695075,144.68262362480164L165.70132222222222,132.90390372276306L166.68213611111113,107.3666889667511L166.94451944444444,109.57755160331726L166.95076666666665,130.9431188106537L167.3568361111111,125.66791784763336L167.39431944444445,113.51340615749359L167.5192638888889,115.03478264808655L167.5567472222222,115.28268706798553L167.68793888888888,115.63284230232239L167.72542222222225,111.87956643104553L168.10025555555555,112.1871417760849L168.46884166666666,145.4914516210556L168.6687527777778,167.37420201301575L168.71248333333332,143.03131306171417L170.0493888888889,134.5345151424408L170.20556944444445,130.58148515224457L170.28678333333335,138.25441074371338L170.45545833333333,117.65745484828949L170.49918888888888,134.4564027786255L170.56790833333335,150.82244110107422L170.59914444444445,118.14307236671448L170.64912222222222,134.84031808376312L170.73658333333333,122.92852020263672L170.91150555555555,143.26223194599152L171.3425638888889,121.22842633724213L171.36130555555553,107.68135392665863L171.6236888888889,120.34433448314667L171.84234166666664,120.37948715686798L172.0734888888889,119.10080337524414L172.64198611111112,123.858926653862L172.7419416666667,96.76535153388977L173.41039444444445,146.54206502437592L173.454125,152.14248096942902L173.52909166666666,126.07630920410156L173.84769999999997,124.3469706773758L173.91641944444444,154.48962879180908L173.9226666666667,135.56018829345703L174.48491666666666,142.3838793039322L174.50365833333333,138.75673949718475L175.422,137.16400265693665L175.4469888888889,130.16079246997833L175.4532361111111,110.10167670249939L175.55943888888888,116.61720156669617L175.6531472222222,114.29507839679718L175.71561944444443,101.65250158309937L175.7843388888889,116.23704206943512L175.815575,122.30545699596405L175.84681111111112,131.49859857559204L175.8718,116.48564279079437L175.90928333333335,105.23898160457611L176.05921666666666,132.858074426651L176.12168888888888,119.1982011795044L176.28411666666668,126.30364108085632L176.56524166666668,97.21260917186737L176.70892777777777,122.21759641170502L177.02753611111112,116.67507898807526L177.17746944444445,131.10710835456848L177.29616666666666,118.72385108470917L177.38362777777778,120.50254261493683L177.58978611111112,145.69662845134735L178.29572222222222,137.66704881191254L178.6018361111111,125.02569580078125L179.1078611111111,149.67985260486603L179.17658055555555,128.6813839673996L179.301525,110.65850687026978L179.67635833333333,124.44964349269867L179.75757222222222,117.66796267032623L179.98871944444443,109.75519287586212L180.11366388888888,129.5178952217102L180.18238333333335,122.52185904979706L180.71964444444444,124.60333621501923L180.78211666666667,108.54525303840637L181.662975,128.92300057411194L181.89412222222225,120.45648121833801L181.90661666666668,116.0871684551239L182.08778611111111,123.00467026233673L182.33142777777778,152.10639989376068L182.63129444444445,168.04927682876587L182.93116111111112,118.00026726722717L182.94365555555555,121.81661117076874L182.99363333333335,135.3057006597519L183.18105,143.14459919929504L183.3247361111111,130.89931511878967L183.41219722222223,135.36397898197174L183.7682888888889,123.3881424665451L184.3680222222222,118.60767424106598L184.6491472222222,133.51371610164642L184.67413611111112,121.29043936729431L185.04896944444442,123.89701223373413L185.33634166666667,125.84268951416016L185.52375833333335,116.81290447711945L185.66119722222223,125.48858857154846L185.711175,140.09551620483398L186.4733361111111,136.21582996845245L186.6607527777778,120.84187352657318L186.79819166666667,152.49499940872192L187.00435000000002,139.57892382144928L187.18551944444445,143.0947186946869L187.46664444444446,139.18515479564667L187.71028611111112,124.8377366065979L188.24754722222224,143.42698109149933L188.70359444444443,129.3164108991623L188.85977499999998,113.64013302326202L188.94098888888888,128.4093621969223L188.9972138888889,120.01259958744049L189.49074444444443,126.91045725345612L189.85933055555557,124.2022032737732L190.5715138888889,111.14182448387146L190.6652222222222,109.0344786643982L190.99007777777777,130.3436243534088L191.15875277777778,111.47672438621521L191.54608055555556,154.7152726650238L191.7022611111111,149.45098042488098L192.25826388888888,130.0294235944748L192.48941111111114,150.56020975112915L192.7080638888889,126.06358587741852L192.9142222222222,146.95866429805756L193.17035833333335,141.25392973423004L193.84505833333333,117.53155088424683L193.9450138888889,127.27572011947632L194.07620555555553,113.55355954170227L194.13243055555557,124.03460562229156L194.2323861111111,125.35088968276978L194.6259611111111,136.0122356414795L194.63220833333335,123.79801082611084L194.71966944444443,117.93405532836914L195.4068638888889,137.7931215763092L195.48807777777776,125.67532396316528L195.55679722222223,145.90053927898407L196.18151944444446,139.06669914722443L196.60008333333334,135.1737198829651L196.86246666666668,142.75667488574982L197.84952777777775,129.90100872516632L198.37429444444444,120.81273436546326L198.3867888888889,125.17348051071167L198.63667777777778,124.05319476127625L198.642925,143.79002845287323L198.64917222222223,115.75064384937286L198.7491277777778,130.70013070106506L198.83034166666667,106.6362054347992L198.8428361111111,115.45408272743225L199.46131111111112,126.37922143936157L200.39839444444442,113.40896093845367L200.7982166666667,147.44850182533264L200.8357,149.53263759613037L200.87318333333334,139.20604383945465L200.89817222222223,150.46203124523163L200.90441944444444,147.61086666584015L201.37296111111112,136.86244082450867L201.62285,126.69681930541992L201.9664472222222,146.58780992031097L202.64739444444444,128.698348402977L202.71611388888888,120.56343734264374L202.76609166666665,121.2901439666748L203.06595833333336,127.0133410692215L203.21589166666666,123.3234075307846L203.46578055555557,125.90636944770813L203.48452222222224,117.02337741851807L203.6781861111111,138.49516224861145L203.74065833333333,132.2030657529831L203.78438888888888,134.88049256801605L203.89683888888888,120.28622496128082L204.25293055555554,131.62213933467865L204.377875,114.43463408946991L204.39661666666666,119.06124079227448L204.52780833333335,89.98447251319885L205.06506944444445,152.62841498851776L205.63356666666667,152.68637681007385L205.64606111111112,156.67812538146973L205.84597222222223,126.36196160316467L205.9584222222222,140.92008483409882L207.7263861111111,114.16138851642609L207.88881388888888,130.40023577213287L208.1636916666667,123.98565351963043L208.50728888888887,126.41137790679932L208.89461666666665,113.72864770889282L208.97583055555555,93.14901494979858L209.55057499999998,115.16589832305908L209.73174444444444,158.85358214378357L209.9753861111111,139.61234629154205L210.38145555555556,122.77482748031616L211.72460833333332,143.16804134845734L212.21813888888892,124.18555533885956L212.38056666666665,129.01084005832672L212.51800555555556,143.28628599643707L212.6367027777778,121.08676064014435L212.76164722222222,124.97990870475769L212.79288333333335,119.65942704677582L212.8928388888889,127.55708920955658L212.96780555555554,125.70904183387756L213.0677611111111,115.18733596801758L213.23643611111112,121.00381636619568L213.66124722222224,117.84210133552551L213.9673611111111,113.55117523670197L214.048575,92.05839586257935L214.0985527777778,114.45280122756958L214.69203888888887,151.36977624893188L215.14183888888888,147.95431208610535L215.34799722222223,123.02363920211792L215.39172777777776,142.04621529579163L215.4479527777778,147.18167066574097L215.7603138888889,120.22522473335266L215.77905555555554,143.6434042453766L215.91024722222224,142.52721190452576L215.9852138888889,124.98767352104187L216.1039111111111,119.22782564163208L216.22260833333334,118.11619091033936L217.07223055555556,102.47219610214233L217.57825555555553,116.20524430274963L217.58450277777777,112.28042507171631L217.79690833333333,112.78024291992188L217.91560555555557,116.18739366531372L218.20297777777776,153.60633873939514L218.65277777777777,110.89379346370697L218.68401388888887,125.99617123603821L218.84644166666666,154.6888132095337L219.13381388888888,137.7130891084671L219.2275222222222,155.51827704906464L219.5086472222222,139.78218054771423L219.73979444444444,161.80530953407288L220.008425,131.56797552108765L220.13336944444444,145.27374136447906L220.17085277777778,118.93502032756805L220.25206666666665,135.53406643867493L220.42698888888887,145.51354336738586L220.69561944444445,129.68300306797028L220.94550833333335,127.26255369186401L221.36407222222223,134.7894880771637L221.52025277777778,132.04118621349335L221.56398333333334,127.28034102916718L221.58897222222222,140.6536967754364L222.20744722222224,125.00579845905304L222.22618888888888,126.02725160121918L222.47607777777776,118.738156914711L222.67598888888887,125.62301695346832L223.06331666666665,116.50756573677063L223.1507777777778,110.53475511074066L223.25698055555554,112.62914550304413L223.2632277777778,136.0389060974121L223.52561111111112,149.73068261146545L224.1440861111111,126.5400459766388L224.31276111111112,153.05875039100647L225.22485555555554,125.62379765510559L225.55595833333334,122.32655704021454L226.23065833333334,113.68632102012634L226.29937777777778,120.85033464431763L227.06778611111113,131.85789012908936L227.43637222222222,120.62585127353668L227.66751944444445,104.90745770931244L227.79871111111112,106.11680674552917L228.02985833333335,148.2804765701294L228.2547583333333,157.62463116645813L228.26100555555556,123.55107700824738L228.4171861111111,156.1733912229538L228.8045138888889,130.67818665504456L228.8419972222222,126.33832955360413L228.93570555555556,139.98545837402344L229.24806666666666,129.96747386455536L229.41049444444445,118.43543457984924L229.51669722222223,135.20058023929596L229.66038333333333,143.53406381607056L229.94775555555555,143.14251029491425L230.353825,125.05460286140442L230.39755555555556,118.84825694561005L230.44753333333333,124.87071597576141L230.7474,123.50668251514435L230.80362499999998,124.46517312526703L231.1722111111111,116.13213264942169L231.253425,92.30142617225647L232.15927222222223,116.25282490253448L232.23423888888888,127.73485708236694L232.44039722222223,133.55275118350983L232.45289166666666,171.57032561302185L232.70278055555556,157.0462156534195L233.10885000000002,143.87900733947754L233.57114444444446,140.70916879177094L233.8647638888889,145.35807824134827L234.0896638888889,141.83008754253387L234.27083333333334,125.08116781711578L234.45200277777778,133.62723433971405L234.53321666666668,130.31096148490906L234.55195833333335,130.9961221218109L234.964275,140.5538091659546L234.98301666666666,122.96734428405762L235.25164722222223,127.90078783035278L235.4952888888889,130.78967928886414L235.55776111111112,117.36775124073029L235.5765027777778,129.10163354873657L235.90760555555556,116.98024892807007L236.61354166666666,122.18170523643494L236.7322388888889,113.82585561275482L236.77596944444446,131.60922610759735L236.78221666666667,127.43764185905457L236.8259472222222,109.87544202804565L237.23201666666665,150.72377729415894L237.40693888888887,129.5334037542343L237.48190555555556,147.9021316766739L237.56311944444445,147.3165843486786L237.60684999999998,148.8208487033844L238.112875,125.02590680122375L238.31903333333332,127.27217531204224L238.34402222222224,133.45071136951447L238.51269722222222,128.68767178058624L238.52519166666667,140.99849259853363L238.94375555555555,121.35511100292206L239.08744166666668,134.14612662792206L239.52474722222223,128.87126326560974L239.58721944444446,130.59619188308716L239.6934222222222,115.34225249290466L239.73715277777777,111.727224111557L239.75589444444444,119.4706871509552L239.84335555555555,102.86195611953735L239.91207500000002,115.40960383415222L240.7616972222222,115.11996352672577L240.99284444444444,125.54102218151093L241.33644166666667,128.18576502799988L241.3801722222222,124.31118500232697L241.78624166666665,149.8320894241333L241.9424222222222,168.7160382270813L241.99864722222225,149.40289342403412L242.0736138888889,151.0856430530548L242.1923111111111,147.0255514383316L242.2985138888889,149.9395730495453L242.39222222222222,153.5030118227005L242.6358638888889,149.45509493350983L242.71083055555556,131.55824840068817L242.8670111111111,122.44490718841553L243.0544277777778,127.57430684566498L243.09815833333334,133.5923137664795L243.46049722222222,136.7728500366211L243.52921666666666,122.90165984630585L243.74786944444443,121.838871717453L243.86656666666667,150.8045904636383L243.9102972222222,113.76076197624207L244.19766944444444,119.09413576126099L244.522525,145.46174275875092L244.54126666666667,133.27100229263306L244.75991944444445,147.50880575180054L245.18473055555555,122.13138163089752L245.3409111111111,116.54054510593414L245.55331666666666,107.95985341072083L245.57205833333336,108.94499337673187L245.8969138888889,144.52903640270233L245.9031611111111,129.59991109371185L245.9531388888889,107.59528684616089L246.0343527777778,118.37456095218658L246.37795,151.0966361761093L246.546625,160.11544919013977L246.92145833333333,155.89603114128113L246.92770555555555,132.10469734668732L247.09013333333334,142.16416454315186L247.1651,153.75557935237885L247.25880833333332,128.67279624938965L247.38375277777777,141.3367896080017L247.43997777777776,135.46817100048065L247.4962027777778,146.42160487174988L247.68361944444445,131.8862907886505L247.98973333333333,128.09914934635162L248.33333055555556,137.79932498931885L248.53324166666667,128.0527925491333L248.67068055555555,126.56943833827972L249.12672777777777,127.22404611110687L249.6140111111111,114.20512890815735L250.07630555555556,112.2845606803894L250.38241944444445,115.50058722496033L250.60731944444444,125.87877058982849L250.9946472222222,157.25105488300323L251.31325555555554,134.435809135437L251.4756833333333,139.83433985710144L251.49442499999998,150.41715145111084L251.9692138888889,135.65807139873505L252.10040555555554,146.43550980091095L252.15038333333334,134.2578091621399L252.23159722222223,138.29912173748016L252.24409166666666,140.97355234622955L252.281575,141.01961374282837L252.68139722222222,114.82369780540466L252.89380277777778,137.18295049667358L252.9062972222222,130.8441174030304L252.91254444444445,118.31330752372742L253.44980555555554,146.99510407447815L253.4685472222222,129.87819957733154L253.63722222222222,122.97603750228882L254.70549722222222,136.8017359972L254.74922777777778,126.8275340795517L254.980375,127.26339769363403L255.16154444444444,115.38438928127289L255.19278055555554,106.98030495643616L255.45516388888888,143.5729511976242L255.84249166666666,163.5539335012436L255.94869444444444,143.29827082157135L255.95494166666666,150.2858669757843L256.3672583333333,120.4581059217453L256.4172361111111,151.050279378891L256.4922027777778,144.30801343917847L256.72335,136.16626596450806L256.72959722222225,135.5248668193817L256.7483388888889,134.73694896697998L257.16065555555554,137.44454884529114L257.4855111111111,122.08692383766174L257.57921944444445,124.95382905006409L257.6729277777778,136.64492046833038L257.77288333333337,116.13474905490875L257.8540972222222,130.66565322875977L258.07275,117.92924451828003L258.1914472222222,125.99292182922363L258.2351777777778,135.02646267414093L259.69078055555553,118.16478431224823L259.85945555555554,103.08521568775177" style="fill: none;" fill="none"></path></g></g></g></g></g></g><g transform="translate(48, 177)" clip-path="url(#clip_1)"><clipPath id="clip_1"><rect width="281" height="23"></rect></clipPath><g><g><line x1="0" y1="0" x2="0" y2="5" style="visibility: inherit;" fill="rgb(0, 0, 0)" stroke="rgb(204, 204, 204)" stroke-width="1px"></line><line x1="31.23611111111111" y1="0" x2="31.23611111111111" y2="5" style="visibility: inherit;" fill="rgb(0, 0, 0)" stroke="rgb(204, 204, 204)" stroke-width="1px"></line><line x1="62.47222222222222" y1="0" x2="62.47222222222222" y2="5" style="visibility: inherit;" fill="rgb(0, 0, 0)" stroke="rgb(204, 204, 204)" stroke-width="1px"></line><line x1="93.70833333333333" y1="0" x2="93.70833333333333" y2="5" style="visibility: inherit;" fill="rgb(0, 0, 0)" stroke="rgb(204, 204, 204)" stroke-width="1px"></line><line x1="124.94444444444444" y1="0" x2="124.94444444444444" y2="5" style="visibility: inherit;" fill="rgb(0, 0, 0)" stroke="rgb(204, 204, 204)" stroke-width="1px"></line><line x1="156.18055555555557" y1="0" x2="156.18055555555557" y2="5" style="visibility: inherit;" fill="rgb(0, 0, 0)" stroke="rgb(204, 204, 204)" stroke-width="1px"></line><line x1="187.41666666666666" y1="0" x2="187.41666666666666" y2="5" style="visibility: inherit;" fill="rgb(0, 0, 0)" stroke="rgb(204, 204, 204)" stroke-width="1px"></line><line x1="218.65277777777777" y1="0" x2="218.65277777777777" y2="5" style="visibility: inherit;" fill="rgb(0, 0, 0)" stroke="rgb(204, 204, 204)" stroke-width="1px"></line><line x1="249.88888888888889" y1="0" x2="249.88888888888889" y2="5" style="visibility: inherit;" fill="rgb(0, 0, 0)" stroke="rgb(204, 204, 204)" stroke-width="1px"></line><line x1="281.125" y1="0" x2="281.125" y2="5" style="visibility: inherit;" fill="rgb(0, 0, 0)" stroke="rgb(204, 204, 204)" stroke-width="1px"></line></g><g transform="translate(0, 8)"><text x="0" y="0" dx="0em" dy="0.95em" style="text-anchor: middle; visibility: hidden; font-family: &quot;Helvetica Neue&quot;, sans-serif; font-size: 12px; font-weight: 200;" fill="rgb(50, 49, 63)" stroke="none" stroke-width="1px">-5k</text><text x="31.23611111111111" y="0" dx="0em" dy="0.95em" style="text-anchor: middle; visibility: inherit; font-family: &quot;Helvetica Neue&quot;, sans-serif; font-size: 12px; font-weight: 200;" fill="rgb(50, 49, 63)" stroke="none" stroke-width="1px">0</text><text x="62.47222222222222" y="0" dx="0em" dy="0.95em" style="text-anchor: middle; visibility: inherit; font-family: &quot;Helvetica Neue&quot;, sans-serif; font-size: 12px; font-weight: 200;" fill="rgb(50, 49, 63)" stroke="none" stroke-width="1px">5k</text><text x="93.70833333333333" y="0" dx="0em" dy="0.95em" style="text-anchor: middle; visibility: inherit; font-family: &quot;Helvetica Neue&quot;, sans-serif; font-size: 12px; font-weight: 200;" fill="rgb(50, 49, 63)" stroke="none" stroke-width="1px">10k</text><text x="124.94444444444444" y="0" dx="0em" dy="0.95em" style="text-anchor: middle; visibility: inherit; font-family: &quot;Helvetica Neue&quot;, sans-serif; font-size: 12px; font-weight: 200;" fill="rgb(50, 49, 63)" stroke="none" stroke-width="1px">15k</text><text x="156.18055555555557" y="0" dx="0em" dy="0.95em" style="text-anchor: middle; visibility: inherit; font-family: &quot;Helvetica Neue&quot;, sans-serif; font-size: 12px; font-weight: 200;" fill="rgb(50, 49, 63)" stroke="none" stroke-width="1px">20k</text><text x="187.41666666666666" y="0" dx="0em" dy="0.95em" style="text-anchor: middle; visibility: inherit; font-family: &quot;Helvetica Neue&quot;, sans-serif; font-size: 12px; font-weight: 200;" fill="rgb(50, 49, 63)" stroke="none" stroke-width="1px">25k</text><text x="218.65277777777777" y="0" dx="0em" dy="0.95em" style="text-anchor: middle; visibility: inherit; font-family: &quot;Helvetica Neue&quot;, sans-serif; font-size: 12px; font-weight: 200;" fill="rgb(50, 49, 63)" stroke="none" stroke-width="1px">30k</text><text x="249.88888888888889" y="0" dx="0em" dy="0.95em" style="text-anchor: middle; visibility: inherit; font-family: &quot;Helvetica Neue&quot;, sans-serif; font-size: 12px; font-weight: 200;" fill="rgb(50, 49, 63)" stroke="none" stroke-width="1px">35k</text><text x="281.125" y="0" dx="0em" dy="0.95em" style="text-anchor: middle; visibility: hidden; font-family: &quot;Helvetica Neue&quot;, sans-serif; font-size: 12px; font-weight: 200;" fill="rgb(50, 49, 63)" stroke="none" stroke-width="1px">40k</text></g><line x1="0" y1="0" x2="281.125" y2="0" fill="rgb(0, 0, 0)" stroke="rgb(204, 204, 204)" stroke-width="1px"></line></g></g></g></g></svg>