<svg viewBox="0 0 888 400" xmlns="http://www.w3.org/2000/svg"><g><g><g><g><g><line x1="48.875" y1="377" x2="43.875" y2="377" style="visibility: inherit;" fill="rgb(0, 0, 0)" stroke="rgb(204, 204, 204)" stroke-width="1px"></line><line x1="48.875" y1="339.29999999999995" x2="43.875" y2="339.29999999999995" style="visibility: inherit;" fill="rgb(0, 0, 0)" stroke="rgb(204, 204, 204)" stroke-width="1px"></line><line x1="48.875" y1="301.6" x2="43.875" y2="301.6" style="visibility: inherit;" fill="rgb(0, 0, 0)" stroke="rgb(204, 204, 204)" stroke-width="1px"></line><line x1="48.875" y1="263.9" x2="43.875" y2="263.9" style="visibility: inherit;" fill="rgb(0, 0, 0)" stroke="rgb(204, 204, 204)" stroke-width="1px"></line><line x1="48.875" y1="226.20000000000005" x2="43.875" y2="226.20000000000005" style="visibility: inherit;" fill="rgb(0, 0, 0)" stroke="rgb(204, 204, 204)" stroke-width="1px"></line><line x1="48.875" y1="188.5" x2="43.875" y2="188.5" style="visibility: inherit;" fill="rgb(0, 0, 0)" stroke="rgb(204, 204, 204)" stroke-width="1px"></line><line x1="48.875" y1="150.79999999999995" x2="43.875" y2="150.79999999999995" style="visibility: inherit;" fill="rgb(0, 0, 0)" stroke="rgb(204, 204, 204)" stroke-width="1px"></line><line x1="48.875" y1="113.10000000000002" x2="43.875" y2="113.10000000000002" style="visibility: inherit;" fill="rgb(0, 0, 0)" stroke="rgb(204, 204, 204)" stroke-width="1px"></line><line x1="48.875" y1="75.39999999999998" x2="43.875" y2="75.39999999999998" style="visibility: inherit;" fill="rgb(0, 0, 0)" stroke="rgb(204, 204, 204)" stroke-width="1px"></line><line x1="48.875" y1="37.700000000000045" x2="43.875" y2="37.700000000000045" style="visibility: inherit;" fill="rgb(0, 0, 0)" stroke="rgb(204, 204, 204)" stroke-width="1px"></line><line x1="48.875" y1="0" x2="43.875" y2="0" style="visibility: inherit;" fill="rgb(0, 0, 0)" stroke="rgb(204, 204, 204)" stroke-width="1px"></line></g><g transform="translate(38.875, 0)"><text x="0" y="377" dx="0em" dy="0.3em" style="text-anchor: end; visibility: hidden; font-family: &quot;Helvetica Neue&quot;, sans-serif; font-size: 12px; font-weight: 200;" fill="rgb(50, 49, 63)" stroke="none" stroke-width="1px">0.5</text><text x="0" y="339.29999999999995" dx="0em" dy="0.3em" style="text-anchor: end; visibility: inherit; font-family: &quot;Helvetica Neue&quot;, sans-serif; font-size: 12px; font-weight: 200;" fill="rgb(50, 49, 63)" stroke="none" stroke-width="1px">0.55</text><text x="0" y="301.6" dx="0em" dy="0.3em" style="text-anchor: end; visibility: inherit; font-family: &quot;Helvetica Neue&quot;, sans-serif; font-size: 12px; font-weight: 200;" fill="rgb(50, 49, 63)" stroke="none" stroke-width="1px">0.6</text><text x="0" y="263.9" dx="0em" dy="0.3em" style="text-anchor: end; visibility: inherit; font-family: &quot;Helvetica Neue&quot;, sans-serif; font-size: 12px; font-weight: 200;" fill="rgb(50, 49, 63)" stroke="none" stroke-width="1px">0.65</text><text x="0" y="226.20000000000005" dx="0em" dy="0.3em" style="text-anchor: end; visibility: inherit; font-family: &quot;Helvetica Neue&quot;, sans-serif; font-size: 12px; font-weight: 200;" fill="rgb(50, 49, 63)" stroke="none" stroke-width="1px">0.7</text><text x="0" y="188.5" dx="0em" dy="0.3em" style="text-anchor: end; visibility: inherit; font-family: &quot;Helvetica Neue&quot;, sans-serif; font-size: 12px; font-weight: 200;" fill="rgb(50, 49, 63)" stroke="none" stroke-width="1px">0.75</text><text x="0" y="150.79999999999995" dx="0em" dy="0.3em" style="text-anchor: end; visibility: inherit; font-family: &quot;Helvetica Neue&quot;, sans-serif; font-size: 12px; font-weight: 200;" fill="rgb(50, 49, 63)" stroke="none" stroke-width="1px">0.8</text><text x="0" y="113.10000000000002" dx="0em" dy="0.3em" style="text-anchor: end; visibility: inherit; font-family: &quot;Helvetica Neue&quot;, sans-serif; font-size: 12px; font-weight: 200;" fill="rgb(50, 49, 63)" stroke="none" stroke-width="1px">0.85</text><text x="0" y="75.39999999999998" dx="0em" dy="0.3em" style="text-anchor: end; visibility: inherit; font-family: &quot;Helvetica Neue&quot;, sans-serif; font-size: 12px; font-weight: 200;" fill="rgb(50, 49, 63)" stroke="none" stroke-width="1px">0.9</text><text x="0" y="37.700000000000045" dx="0em" dy="0.3em" style="text-anchor: end; visibility: inherit; font-family: &quot;Helvetica Neue&quot;, sans-serif; font-size: 12px; font-weight: 200;" fill="rgb(50, 49, 63)" stroke="none" stroke-width="1px">0.95</text><text x="0" y="0" dx="0em" dy="0.3em" style="text-anchor: end; visibility: hidden; font-family: &quot;Helvetica Neue&quot;, sans-serif; font-size: 12px; font-weight: 200;" fill="rgb(50, 49, 63)" stroke="none" stroke-width="1px">1</text></g><line x1="48.875" y1="0" x2="48.875" y2="377" fill="rgb(0, 0, 0)" stroke="rgb(204, 204, 204)" stroke-width="1px"></line></g></g><g transform="translate(48, 0)" clip-path="url(#clip_0)"><clipPath id="clip_0"><rect width="839" height="377"></rect></clipPath><g><g><g><line x1="0" y1="0" x2="0" y2="377" fill="rgb(0, 0, 0)" stroke="rgb(60, 60, 60)" stroke-width="1px" opacity="0.25"></line><line x1="104.890625" y1="0" x2="104.890625" y2="377" fill="rgb(0, 0, 0)" stroke="rgb(60, 60, 60)" stroke-width="1px" opacity="0.25"></line><line x1="209.78125" y1="0" x2="209.78125" y2="377" fill="rgb(0, 0, 0)" stroke="rgb(60, 60, 60)" stroke-width="1px" opacity="0.25"></line><line x1="314.671875" y1="0" x2="314.671875" y2="377" fill="rgb(0, 0, 0)" stroke="rgb(60, 60, 60)" stroke-width="1px" opacity="0.25"></line><line x1="419.5625" y1="0" x2="419.5625" y2="377" fill="rgb(0, 0, 0)" stroke="rgb(60, 60, 60)" stroke-width="1px" opacity="0.25"></line><line x1="524.453125" y1="0" x2="524.453125" y2="377" fill="rgb(0, 0, 0)" stroke="rgb(60, 60, 60)" stroke-width="1px" opacity="0.25"></line><line x1="629.34375" y1="0" x2="629.34375" y2="377" fill="rgb(0, 0, 0)" stroke="rgb(60, 60, 60)" stroke-width="1px" opacity="0.25"></line><line x1="734.234375" y1="0" x2="734.234375" y2="377" fill="rgb(0, 0, 0)" stroke="rgb(60, 60, 60)" stroke-width="1px" opacity="0.25"></line><line x1="839.125" y1="0" x2="839.125" y2="377" fill="rgb(0, 0, 0)" stroke="rgb(60, 60, 60)" stroke-width="1px" opacity="0.25"></line></g><g><line x1="0" y1="377" x2="839.125" y2="377" fill="rgb(0, 0, 0)" stroke="rgb(60, 60, 60)" stroke-width="1px" opacity="0.25"></line><line x1="0" y1="339.29999999999995" x2="839.125" y2="339.29999999999995" fill="rgb(0, 0, 0)" stroke="rgb(60, 60, 60)" stroke-width="1px" opacity="0.25"></line><line x1="0" y1="301.6" x2="839.125" y2="301.6" fill="rgb(0, 0, 0)" stroke="rgb(60, 60, 60)" stroke-width="1px" opacity="0.25"></line><line x1="0" y1="263.9" x2="839.125" y2="263.9" fill="rgb(0, 0, 0)" stroke="rgb(60, 60, 60)" stroke-width="1px" opacity="0.25"></line><line x1="0" y1="226.20000000000005" x2="839.125" y2="226.20000000000005" fill="rgb(0, 0, 0)" stroke="rgb(60, 60, 60)" stroke-width="1px" opacity="0.25"></line><line x1="0" y1="188.5" x2="839.125" y2="188.5" fill="rgb(0, 0, 0)" stroke="rgb(60, 60, 60)" stroke-width="1px" opacity="0.25"></line><line x1="0" y1="150.79999999999995" x2="839.125" y2="150.79999999999995" fill="rgb(0, 0, 0)" stroke="rgb(60, 60, 60)" stroke-width="1px" opacity="0.25"></line><line x1="0" y1="113.10000000000002" x2="839.125" y2="113.10000000000002" fill="rgb(0, 0, 0)" stroke="rgb(60, 60, 60)" stroke-width="1px" opacity="0.25"></line><line x1="0" y1="75.39999999999998" x2="839.125" y2="75.39999999999998" fill="rgb(0, 0, 0)" stroke="rgb(60, 60, 60)" stroke-width="1px" opacity="0.25"></line><line x1="0" y1="37.700000000000045" x2="839.125" y2="37.700000000000045" fill="rgb(0, 0, 0)" stroke="rgb(60, 60, 60)" stroke-width="1px" opacity="0.25"></line><line x1="0" y1="0" x2="839.125" y2="0" fill="rgb(0, 0, 0)" stroke="rgb(60, 60, 60)" stroke-width="1px" opacity="0.25"></line></g></g></g><g><g><line x1="0" y1="754" x2="839.125" y2="754" fill="rgb(0, 0, 0)" stroke="rgb(153, 153, 153)" stroke-width="1.5px"></line></g></g><g><g><line x1="104.890625" y1="0" x2="104.890625" y2="377" fill="rgb(0, 0, 0)" stroke="rgb(153, 153, 153)" stroke-width="1.5px"></line></g></g><g><g><g><g><g><path stroke="rgb(255, 112, 67)" stroke-width="2px" d="M132.854465625,-14.96305948313369L132.938378125,17.64853359161299L133.945328125,5.117892975880807L134.092175,-13.358765280034106L135.0152125,-5.7562993956227615L135.64455625,37.38864805297749L136.840309375,58.04937664483191L137.448675,57.0263955104561L137.78432500000002,67.19170634237486L138.119975,84.77536449643259L139.29475,63.53329826452892L140.364634375,81.24957194973575L140.74224062500002,88.48413724336285L140.93104375,73.75884968415545L141.26669375,92.77054261196378L141.329628125,69.30564441099528L142.25266562500002,104.0267441142704L143.5742875,90.06543721371986L144.03580625,80.64413136013593L144.09874062499998,74.77478180985514L144.266565625,89.25287129080931L145.105690625,115.33145013807331L145.46231875,106.0915697059516L145.735034375,94.0896518970419L147.6020875,76.91373591094538L148.860775,66.19382198136634L150.769784375,77.98606662441256L151.021521875,91.01928947263343L151.692821875,94.54826024707188L151.818690625,113.66592390260712L152.238253125,102.46978611303354L152.34314375,146.7309254798471L153.28715937500002,154.5865106101738L153.538896875,139.19319622015396L154.27313125,151.64181919273994L155.007365625,144.19835302458566L155.02834375,121.0926553560875L155.9933375,143.6829079242695L156.34996562499998,128.85187989784177L156.391921875,126.59869631715355L156.4968125,141.34475980155315L157.021265625,136.11276508541494L157.04224375,122.58456445438611L157.29398125,135.8514325660643L157.398871875,127.8578792597161L158.0072375,106.53980971487209L158.32190937500002,104.23828211493401L158.44777812499999,101.88624295632314L161.216890625,114.9848900856988L162.3706875,101.12570639982317L163.39861562500002,102.61186325868664L165.643275,115.93295948696556L167.132721875,144.30378571148168L168.055759375,154.0980775773254L168.62216875,146.5938844454126L168.685103125,134.705957923641L169.901834375,143.71811296600714L171.202478125,155.2897990826286L171.9367125,142.6043091466139L172.64996875,163.40397342742142L172.94366250000002,168.4939390701095L172.98561875,167.4941049505496L173.00659687499999,178.18574953611042L174.223328125,151.9460580380878L177.8945,125.12145762635004L180.411875,125.81433146591621L180.78948125,120.15060287353776L180.8314375,121.506410012468L181.88034375,156.1929295359994L183.05511875000002,169.60330545299922L183.369790625,171.50769874688194L184.460653125,174.52949946663503L184.90119375,185.16929532016354L185.048040625,179.71031647279878L187.2927,178.99519742342844L187.8800875,174.58839014061098L188.467475,181.31724507145765L189.5583375,169.36536177714274L190.85898125,158.05039067697297L192.9148375,174.34098031301363L193.56515937499998,160.6378461967651L193.67005,169.29966762368346L195.180475,175.1558604401617L195.453190625,184.27097302450358L195.495146875,182.62300499542718L197.19437499999998,198.9438674465666L199.12436250000002,198.36864762400688L199.480990625,213.48146274623332L199.92153125,214.06277243457473L201.9773875,184.142054606451L202.73260000000002,171.56498101292462L202.8165125,177.36890866123684L202.9843375,199.376029692668L204.53671875,182.6100937620272L205.3338875,183.68650637242013L205.62758125,175.04352790220267L206.42475,158.0389912969093L206.67648749999998,171.65003052033305L207.55756875,166.58719619916266L208.98408125,160.59043088439935L209.172884375,158.31556915571593L209.23581875,174.22169928151544L210.83015625,178.5264099383246L210.87211250000001,172.38488058709453L212.00493125,178.87684099950405L212.59231875,212.91949463533174L214.795021875,214.23933144001248L216.683053125,217.81827862017204L217.018703125,192.24762091012508L217.31239687500002,200.3694293556911L218.5920625,220.4399961506308L220.626940625,209.64625915735846L221.29824062499998,191.9853437474363L223.710725,188.5998665172454L224.025396875,195.3529423522113L224.948434375,192.4858741549944L226.731575,190.74995750119064L227.088203125,191.8532687779055L227.1511375,199.50183377002386L227.90635,232.12758293947397L228.053196875,244.02548145771513L228.808409375,250.25303249073315L229.24895,263.3461435586947L230.54959374999999,246.85376395885575L230.96915625,259.8807736283805L233.29772812500002,232.82941584862868L233.50750937499998,231.4443855588293L234.955,217.22645108131502L235.227715625,215.516055489945L235.35358437499997,217.5705855282352L235.6263,211.9210264916543L236.822053125,220.77533480139522L237.30455,232.4750629223105L237.40944062499997,226.49338726739396L238.64714999999998,222.19147746885008L239.150625,237.15586591436977L241.164525,222.9208739797742L241.66799999999998,199.98585044148388L242.80081875,211.24203378440626L243.40918437500002,242.77834452677774L244.54200312499998,260.68280809813143L245.36015,271.22369710024236L245.42308437499997,249.3740981067183L245.674821875,246.833667400179L246.32514375,261.8965482489453L248.50686875000002,261.5860375270955L248.67469375,257.62207658920954L248.989365625,268.8142669191019L251.02424375,264.5131703847681L251.56967500000002,250.2671586414596L252.03119375,249.6447504365695L253.96118124999998,248.5535294058473L254.12900625,250.07261861816355L254.989109375,255.05422652635158L256.268775,239.67002485318895L256.919096875,237.00220803096246L258.26169687500004,218.67338692947834L258.849084375,222.08211314561726L258.8700625,249.59340808321693L259.268646875,270.31431530433684L259.75114375,277.02895535539267L260.149728125,273.86002410358594L261.17765625000004,255.86773860994816L261.3874375,262.8154482635489L261.450371875,260.29454382614074L261.76504375,264.79076943609584L262.45732187500005,265.27943054326454L266.14947187499996,259.0368162601476L266.275340625,249.08164304550198L267.680875,262.0541395309907L268.2682625,258.0699778534974L268.47804375,248.9189424120191L269.212278125,238.02957627789996L270.6178125,224.76531351576338L271.2891125,232.85148232561403L272.526821875,216.90741496909885L273.26105625,212.75900848882932L273.743553125,209.5632262240501L274.10018125,238.5990245825441L276.4916875,253.081608801269L277.225921875,252.61101095031705L277.35179062500004,258.2132010945738L278.79928125,256.3942239099181L279.72231875,245.49121140321708L280.33068437500003,255.84842199612024L280.435575,253.80668722706054L280.62437812499996,239.16143710086948L282.512409375,238.74708923500899L282.57534375,246.21496916295365L283.16273125000004,253.08516817379757L283.3725125,244.92613981419066L284.58924375,242.31769036205566L285.323478125,243.5729947027681L286.01575625,229.80812725645998L286.036734375,218.72092300190147L287.295421875,233.22631319483284L289.896709375,261.04423713755705L289.95964375,269.0193365101344L291.13441875,279.1131852915481L291.67985000000004,272.06837280098176L291.742784375,283.1278081864332L292.183325,284.97158404172745L292.330171875,296.4850278614836L293.546903125,284.4503700207995L293.67277187499997,283.8165121717052L294.847546875,279.82044166581613L298.43480625,249.04355212603085L298.581653125,244.849025038207L299.1480625,228.20715882022643L300.3228375,227.3456047632662L300.9941375,237.5138252889137L302.3367375,240.68492309540636L302.399671875,221.796235420049L302.819234375,239.42049256428524L303.51151250000004,253.2915173975494L305.16878437500003,275.42395190047426L305.31563125,285.0812930324507L305.588346875,285.0103300606508L306.049865625,291.0773881551801L306.84703437499996,299.7583966420399L307.476378125,292.66820078887383L307.958875,295.54526656745577L308.33648125,281.9699568383616L309.80494999999996,288.59677875237L311.378309375,290.6679824125548L312.72090937499996,265.8979001958239L314.0844875,255.6257313799303L315.88860625,244.1340462631846L316.4340375,246.4609876791754L318.1962,240.59651858330483L320.4618375,256.23354992104L320.608684375,261.3940882255579L322.9792125,263.41184150993496L323.042146875,259.5472583998422L323.4826875,269.68099280769707L324.720396875,276.2596211706106L324.930178125,276.1422345801893L325.014090625,283.97753263501545L325.62245625,280.5263043462528L326.314734375,272.5852920662936L327.405596875,273.8057595998988L327.762225,275.70203538602266L328.05591875,265.51780316749614L328.39156875,251.30713313531524L328.74819687499996,256.5667674643495L329.587321875,265.76671257631176L330.552315625,265.3731162966263L330.57329375,248.81037442809173L331.0348125,256.84553528383873L331.76904687499996,258.7463249716491L331.978828125,260.8003058644134L332.314478125,266.20384222340573L332.50328125,254.58139394564625L332.79697500000003,230.151986830492L333.59414375,233.61912407461355L333.657078125,224.88762515773504L334.370334375,244.49082962268662L334.454246875,236.53724317308712L334.93674375,247.3099739346292L335.0626125,241.8690597887866L335.10456875,244.58662003731916L335.94369374999997,269.1845714715492L336.0695625,281.09934685631816L336.342278125,281.5052908778443L336.44716875,308.0449754548224L337.78976875,301.66027313185646L338.188353125,283.01176503725594L338.37715625,288.6798283781274L339.321171875,296.76609338078885L339.80366875,298.3078453347325L339.84562500000004,287.2807414415621L339.86660312500004,290.0885982443775L341.1043125,281.1455951172046L344.439834375,270.3590448163708L345.551675,257.4075529731965L345.9712375,270.998640546659L346.621559375,241.41458912459578L346.8103625,253.79516894678812L347.166990625,245.1922369900974L347.52361875,258.9765995564241L348.173940625,233.773050226103L349.243825,248.6688395007436L349.726321875,255.7158768930426L350.02001562500004,237.0924004529947L351.572396875,267.1520783790966L353.963903125,272.35596536928534L355.97780312500004,262.9441987951643L356.08269375,255.95939819097796L356.83790625,278.5883170132654L357.488228125,274.4831151106844L359.52310625,265.84319691293774L360.0685375,263.01161301394313L360.15245000000004,276.45159409201153L360.4881,264.57800668332584L361.36918125,256.1517794719553L362.71178125,254.2253477925787L362.774715625,255.53645765511573L363.11036562500004,236.43043548898927L365.12426562499996,246.66610283277646L366.23610625,264.98546439780125L368.229028125,285.1265335462888L370.704446875,285.47258388891225L371.291834375,275.71983020242686L372.52954375,281.49644575558096L373.515515625,267.91048666263805L375.02594062500003,271.4925946976256L375.424525,268.7441988817162L376.32658437500004,281.7689081687514L376.746146875,268.8886529361477L377.96287812500003,253.8822666022343L378.31950624999996,245.38111896593344L378.885915625,249.3063642697273L379.32645625,252.2924777815782L379.57819374999997,265.68879218995824L379.892865625,264.7483572727457L379.97677812499995,237.7702663282165L380.33340625,243.5387713634735L381.08861875,243.7842812850336L381.92774375,276.1281097599423L382.620021875,295.6885575692985L384.927615625,286.62636109835705L386.03945625,286.5832399645257L386.12336875,289.7116596292739L386.54293125,288.83947145886924L387.570859375,268.7919221636516L388.17922500000003,278.85195998649965L389.06030625,265.77189066589574L390.13019062499995,274.3010018025679L390.6126875,268.6043682190682L391.850396875,270.230415492827L391.91333125,281.33842939709086L393.276909375,251.34853245362314L393.885275,238.24362607922956L394.59853125,248.9015637166905L395.33276562500004,232.90409545466952L395.8152625,237.3415997288564L396.1509125,271.60868603360285L397.682315625,279.7037619493701L398.0809,290.9480405177056L398.54241874999997,284.6333224013674L400.26262499999996,277.71207690448927L403.22054062499996,263.079417325326L404.605096875,275.59538012580174L404.75194375,249.05246056220588L404.940746875,257.9079253500799L405.297375,249.90705784714817L405.5491125,238.97247104976532L405.67498125,256.8314767666695L406.912690625,254.9794884674571L407.961596875,249.80689578967224L408.94756875,252.54291118214678L409.70278125,244.94685624259805L410.20625625,259.0249043358451L410.269190625,246.55176310855657L411.84255,228.08414939116545L411.96841875,233.23735124511185L412.59776250000004,262.1628664412657L412.786565625,283.21612110606185L412.870478125,294.3094249658069L412.996346875,293.58384366585494L414.926334375,294.93159181924875L414.9473125,301.2894690457118L415.1151375,290.9384179367502L415.19905,292.4373368891406L415.55567812500004,298.3997530741887L416.898278125,288.6424909951327L417.29686250000003,289.07795069945087L418.01011875,287.40967291791577L420.128909375,270.24909030317866L421.45053125,256.0531498606181L422.41552499999995,248.36140203566413L423.33856249999997,254.4018266683284L423.73714687499995,248.57276804956578L425.14268125,244.61410312481385L426.3594125,249.97092473881042L426.841909375,229.74107444510807L428.54113750000005,252.329340626156L429.48515312499995,251.088432842109L429.52710937499995,270.0997910819133L430.198409375,288.7344683362055L430.84873124999996,298.7550545426016L432.08644062499997,286.1553466732386L435.08631249999996,285.30444910616177L435.5897875,262.00664040142595L435.77859062500005,246.54674199041304L435.90445937500004,252.72087613830905L436.869453125,238.48697614723403L436.93238750000006,241.786831951463L437.33097187500005,241.71011410732496L440.100084375,240.43220788585802L440.393778125,250.4461276432732L442.533546875,245.1083749712026L442.97408750000005,278.8682267535041L444.48451249999994,295.94931601693094L445.76417812499994,281.9965215635888L447.274603125,299.439293725049L447.73612187500004,300.8791489736769L448.09275,280.1714704118093L449.05774375,284.2466714431L449.771,286.3563996344299L451.134578125,277.3531017893249L452.267396875,275.77864512167537L452.812828125,262.5348825476299L452.91771874999995,265.1589064611036L454.407165625,269.9406445987844L455.16237812500003,265.80153714226617L456.19030625,263.5391149199422L457.49095,280.3258400247345L457.51192812499994,272.8150929144532L458.22518437499997,297.0659970957941L458.518878125,308.02934888117943L459.39995937500004,312.69977395006083L462.90330624999996,320.40515456359424L463.55362812500005,302.8372221574833L464.26688437499996,289.9045468202621L465.54654999999997,278.85122151561916L465.75633125,268.69815413587304L466.532521875,261.3337028529228L466.700346875,272.9780768696058L467.22479999999996,267.1497335996382L467.60240625,273.8849201539846L467.6443625,273.1013031685169L468.126859375,273.76277007364126L468.1478375,276.35159262241655L468.168815625,246.42196912897663L468.23175000000003,248.6231369217219L468.630334375,250.02715988397495L469.36456875,232.86117369794783L470.01489062499996,235.89109849252668L470.45543125,241.84890365194306L470.83303750000005,260.9861045813025L471.04281875000004,261.87836924406656L472.909871875,258.0687449408339L473.203565625,244.97323844628133L473.62312812499994,278.29801515219566L473.81193125,295.8968665807125L473.95877812500004,305.1731041078971L473.97975625,320.9816993597273L474.58812187500007,303.3406973673775L474.797903125,301.33784227334706L475.217465625,297.1002677724555L476.66495625000005,306.8332980421659L477.692884375,309.3070576159642L478.38516250000004,291.45933842471163L479.18233124999995,294.8983278263266L481.510903125,288.5029723637494L482.03535625,295.572439670157L482.09829062499995,290.3141929147193L482.28709375,281.5883005999058L482.87448125000003,269.50009587660605L483.608715625,250.84492709192733L483.86045312500005,253.33183523388567L484.6786,240.0114707253686L485.203053125,229.1445702136941L485.55968125,229.81024457343742L486.98619375000004,239.46890345411492L487.44771249999997,263.0198173951923L488.0351,264.3737784643066L489.16791874999996,296.49027526492426L491.958009375,318.29000694820013L491.9789875,304.1027310327812L493.97190937499994,298.1505798122957L494.915925,289.845378757815L497.45427812500003,270.68456208783414L497.60112499999997,278.9275082831265L500.22339062500004,255.98227758912333L501.230340625,247.75181972806513L502.59391875,238.5153554190687L502.992503125,250.35757984575582L503.09739375000004,240.29949420605277L503.579890625,244.0681435222279L504.04140937499994,261.3927082034857L504.48195,283.2831002123899L505.9084625,306.72377195642866L507.020303125,299.40760435275126L508.23703437499995,306.01899832255776L509.16007187499997,305.4776046381422L509.243984375,308.1645589891689L509.76843750000006,311.82450038335423L513.649390625,282.5392200359208L513.9640625000001,275.36733833602085L514.026996875,264.87536783010376L514.488515625,270.8280942618287L514.614384375,264.6086154091022L515.621334375,265.0745377127923L515.93600625,247.06732098964437L516.901,240.45213351671447L517.1946937499999,229.0990665079626L517.425453125,261.4581747604294L517.61425625,255.61420539336706L518.57925,266.15400182793917L518.810009375,259.37179634326924L518.935878125,263.02935226770774L520.1735875,285.6745725632461L520.739996875,283.30234991078083L521.22249375,297.9736642513543L522.6909625,297.62371089898767L523.1524812499999,296.88347837235466L523.844759375,285.4872489744778L524.2013875,293.77936448898055L524.348234375,310.4559591188796L525.1873593749999,307.5023611292105L525.460075,294.2163926067865L525.564965625,266.1369056286166L525.690834375,279.5119775045961L525.7537687500001,298.22035793716014L527.34810625,282.4781236425298L527.369084375,277.0410254821335L527.411040625,268.6530527606699L528.292121875,261.13638412565547L528.3550562500001,260.1452260232601L529.005378125,278.8935078750034L529.5717875,268.0349980336416L529.6347218750001,258.7565943325751L529.7396125,262.15544361622295L530.9143875000001,247.26269380301926L531.229059375,265.23365287810975L531.4178625,260.8965500165845L531.45981875,258.89160213290603L532.487746875,262.38107133757444L533.6835,255.71710415393932L534.627515625,257.9678414089133L535.48761875,282.5610311164051L535.760334375,302.6143188556189L535.7813125,314.3183594274613L536.24283125,314.9203117208536L536.347721875,314.61501266460755L536.57848125,303.0972518080541L538.9070531250001,284.5197314235013L539.34759375,291.768515003469L540.7741062499999,279.11029527947096L540.795084375,280.11163476922985L540.8580187499999,276.8574299563103L540.878996875,270.40298684532235L541.885946875,265.8477972989964L542.389421875,257.7555055526309L543.0817,262.79842266484576L543.606153125,274.437845760849L545.158534375,285.26579397575074L545.997659375,292.23200803790104L546.165484375,273.8128088342763L546.836784375,288.99756283924677L547.1095,282.64263035873L548.4521,285.67446638357296L549.815678125,263.0731810165146L550.298175,287.8146852155148L552.0603375000001,306.180048722006L552.123271875,285.34681950687L552.2281625,298.83832999872345L553.633696875,295.75703013424385L554.0113031249999,304.50968540003487L555.5846625,274.83219850236526L556.402809375,267.69903061493847L556.4237875,269.1932295185602L559.7173531249999,276.49175877703885L560.598434375,269.1742968757967L560.6194125000001,256.9382399678242L561.982990625,261.94263171911314L562.108859375,253.0501339898114L562.528421875,262.6646669665339L562.654290625,253.27505841012965L563.0948312500001,253.06389330718628L563.2207,268.01468109425133L564.4793874999999,260.2445109327806L565.7170968749999,278.3295908236606L566.388396875,302.4519285359444L566.5352437500001,331.994854307083L571.0245625,319.2336412524627L571.549015625,321.31285745235954L571.82173125,304.5555286308091L572.388140625,304.38444885611295L572.5349875,291.88191671967365L572.765746875,284.18162839293393L572.8706374999999,291.95999141144705L573.0384624999999,270.33409092192613L573.33215625,270.58139303544027L573.91954375,277.99441706668654L575.367034375,261.451486894675L575.42996875,254.0436258251595L576.31105,261.32784680933526L577.045284375,254.49049818760616L577.821475,248.41141832021748L579.7304843750001,245.9572857627146L580.0661343749999,246.49827535205316L582.31079375,282.05877651723165L582.457640625,286.5483714935298L582.709378125,297.2384973166654L583.7792625,279.26555069674663L584.010021875,294.0686457657195L584.031,283.8346984209643L585.91903125,283.54662855994854L585.9819656249999,282.28644428570374L589.06575,271.67299262237134L589.1496625,267.0425013992285L589.170640625,272.88142091590737L589.52726875,279.30121444796663L589.841940625,285.1025264688441L590.051721875,257.38610131908104L590.28248125,259.6755646191159L590.387371875,263.4459043575596L590.4922625,277.01541887720055L590.576175,286.2994788348652L590.7020437499999,272.74776462674004L591.20551875,250.40799419855995L591.4153,236.3708825634475L591.96073125,229.46698673525788L592.904746875,244.3191284654101L593.3872437499999,271.47407533631093L594.4571281249999,265.3693836325727L594.960603125,251.63979824747577L595.3591875,256.5907335780021L595.65288125,267.7756857694361L596.345159375,291.8891862762674L598.7156875000001,290.294097979826L599.7436156250001,287.20509104726455L601.44284375,289.4279533672198L601.673603125,296.4617420940318L602.093165625,299.1626374786328L603.351853125,285.39024963767713L603.6245687500001,269.07017201656936L604.400759375,273.5764095930745L604.820321875,265.073619183808L605.0510812499999,269.6698681216892L606.8552,257.98825171598526L607.0649812500001,271.5152683437391L610.022896875,263.3755608666255L610.7990875,261.88357364346473L610.84104375,242.76192323690586L611.449409375,255.8749039192553L612.26755625,294.2949524414275L613.27450625,305.0090092475255L614.28145625,317.93268072933193L614.3234125,308.6435480852738L614.4912375,310.0877105677017L615.12058125,308.58341485761935L615.603078125,302.96918233933053L615.896771875,290.0296175998568L617.092525,277.1773228956532L619.1064250000001,279.1694240756793L620.0504406250001,287.83677936720625L620.1343531250001,269.06478644089566L621.393040625,266.84028807089726L622.358034375,256.83208956006763L622.987378125,220.7857919078088L623.4488968750001,237.58082291728357L623.616721875,236.38065989760221L626.1760531250001,237.7549805638055L626.8053968749999,246.37116851787917L627.266915625,273.82350782383173L627.9591937499999,287.07117483513775L628.5675593750001,296.2065109103753L629.511575,294.67623651563133L630.329721875,299.17322953068617L632.1338406250001,296.6886173219883L633.66524375,292.7425839979293L634.189696875,274.9575006531979L634.4624125,264.74528949065837L634.6512156250001,272.3645401513805L636.3084875,246.24296453691892L637.546196875,242.74763876853814L639.937703125,234.6743208328392L640.252375,243.57543333527474L641.3432375,258.69856872652184L641.909646875,259.38138336237796L643.210290625,275.57900058207827L643.73474375,291.80309101926036L645.601796875,271.1325507938071L646.3779875,276.80756749982856L647.112221875,278.3079037563516L647.8045,272.9893327174492L648.664603125,275.2329424153511L650.930240625,289.04690870825914L651.265890625,277.2887193273572L651.7064312499999,276.24634909099746L651.895234375,259.2392260996485L652.2308843750001,267.976615808486L653.5525062500001,262.3151554477686L653.573484375,264.1746301777646L653.867178125,257.6835385398557L656.174771875,243.8775941989714L656.4474875,239.20104668509333L656.678246875,234.94491490108592L658.7760593749999,250.57544851531284L660.1815937499999,274.65119085448794L661.0626749999999,296.4259414299596L664.37721875,285.5770078911941L666.1393812499999,265.3608529814816L666.1813375,240.1207442908726L667.0204625,246.88147005017052L667.041440625,259.2103973899808L667.06241875,248.47576359954638L667.39806875,254.2213755848834L667.670784375,262.03278124349293L667.712740625,263.9738002539692L669.789575,272.99197310930595L672.93629375,270.37278358177014L674.27889375,296.14273667356775L674.4047625,290.2716145039881L674.5306312499999,301.4728431416323L674.61454375,319.6143603153688L674.635521875,318.4709480182923L676.20888125,303.7248804793714L677.04800625,311.4853401318764L678.201803125,312.731118782495L680.4884187499999,302.22854925640496L680.719178125,298.31459103493734L680.887003125,293.2986265806487L681.893953125,278.1830656998235L682.397428125,263.94384644465913L683.236553125,282.9471661927537L683.2994875,276.9772612501523L683.949809375,271.50777637060526L684.159590625,274.3265711492064L684.3064375,270.24987845574395L684.68404375,258.3006279763853L685.879796875,256.84932352884266L686.299359375,245.05064769854337L686.3622937499999,263.1185037867438L686.802834375,275.549621473325L688.606953125,295.35196302567283L690.5159625,306.4086301221512L690.55791875,295.431031459216L691.22921875,303.89147052386033L691.6068250000001,312.48600178491245L697.543634375,287.603678974695L698.089065625,277.1700574595851L699.0121031250001,275.19782738918786L700.1659000000001,249.2853155436202L701.46654375,251.85435659301783L701.739259375,272.7552066720277L703.669246875,270.33144751052555L704.2776125,282.7065703324109L705.095759375,302.49559275219616L706.4593375,319.81715121215444L710.969634375,299.70021537748494L712.6269062499999,299.8437887895555L713.1723375,280.92788539340796L713.63385625,298.2243836999578L714.032440625,288.8249514747049L714.452003125,276.59346560528195L714.55689375,275.4471008055825L714.89254375,265.6103510423552L715.14428125,269.0529630401165L715.47993125,272.99393783917606L716.046340625,273.40960814303503L717.472853125,276.28108268825025L718.5007812499999,267.4120239606369L718.773496875,254.06614018624236L718.941321875,253.70049501147997L720.93424375,259.4192994158693L722.44466875,278.6940047574775L723.1369468749999,280.31104577974895L723.28379375,292.13186348316924L723.472596875,287.4575394441954L724.521503125,274.7032752782268L724.5844375,273.88848337830086L725.0249781250001,260.6155246335327L725.276715625,266.5880714558398L725.6753,272.6208433331749L726.073884375,290.10240473876604L728.9269093749999,286.50074295121556L730.6261375,265.04899165581537L730.647115625,254.0943714472703L731.3603718749999,270.01735833245823L731.75895625,274.7448395905394L732.72395,280.85448303326956L734.234375,262.54702261987325L734.339265625,253.91660320700998L734.884696875,271.24705383742923L735.849690625,282.36534741857696L736.1643624999999,307.3255205353442L737.1083781250001,312.44697982074877L737.88456875,300.48517121077816L738.786628125,292.79882238627226L739.206190625,279.90369919729676L739.3320593750001,291.4376230465915L739.604775,286.72771417066735L740.1921625,286.13566901067065L741.094221875,284.8143348323057L741.933346875,261.8723133341521L743.33888125,263.8537542305023L743.863334375,273.46527053604314L744.0101812500001,275.52157913261533L744.0940937500001,268.9359946406715L746.170928125,265.4406065080662L746.2338625,262.8625492056667L747.0729875,272.2915520072257L747.7442875,271.3277171731159L749.04493125,278.35331646681817L749.338625,266.76796612787837L749.695253125,267.1174241164242L749.71623125,258.23855196588727L750.5973124999999,270.7393756577581L752.674146875,288.8260787409073L753.2405562499999,290.5087660838083L756.3033625,292.37867435746887L757.4152031250001,275.0592310961098L759.6808406250001,283.9216827235228L759.9116,266.4528722573284L762.491909375,266.07704232984565L763.72961875,258.8849742821084L764.505809375,271.0492638356224L764.9463499999999,266.37472159902666L765.7225406250001,295.6075682594801L766.477753125,296.5590583774105L766.49873125,315.8234827216063L767.023184375,323.1950620946642L768.323828125,300.9843239389274L768.449696875,290.5570292235859L768.76436875,292.2659034586816L769.813275,297.67982272248673L770.3587062500001,304.20411536658526L770.715334375,288.39960444906194L771.19783125,288.4754472550084L772.162825,277.36243591167505L773.526403125,279.77332478438603L773.67325,253.20329202219722L773.841075,261.5242368519597L774.848025,273.766615685242L775.036828125,256.1626358845339L776.2745375000001,256.773901463658L776.547253125,266.883292198843L779.58908125,255.15315580407747L779.84081875,265.2175889971254L780.533096875,251.29589630141248L780.575053125,274.6867843209171L781.4141781249999,285.017403300909L782.7777562499999,288.3709343053746L784.3301375,289.8027810441165L785.316109375,292.69633709113054L786.071321875,292.85558520984796L786.6796875,286.0985546304712L787.288053125,285.22054229938567L787.56076875,281.2615398094867L787.623703125,286.20836064373344L789.008259375,284.5765236208134L789.07119375,274.367684983569L789.9732531249999,274.97541579208234L790.7914000000001,268.7822217977134L791.00118125,263.49344668603476L791.064115625,253.60384803901042L792.1759562499999,252.59976609879683L794.546484375,256.5057087918159L794.94506875,258.6229110348246L795.091915625,253.7066919200434L795.11289375,252.53362170415L795.2597406250001,247.48826598856974L796.6233187500001,281.68714918931795L797.2107062499999,301.580582226756L797.46244375,306.0950621637361L797.7351593750001,308.178823988L797.88200625,321.5011591198203L799.581234375,309.030247073302L800.2735125,306.41864701564873L800.357425,295.736282756661L800.923834375,277.8839907710162L800.965790625,280.99794912722155L802.3713250000001,301.03570599786303L802.853821875,295.50541937012594L804.3222906249999,287.8899566391654L804.532071875,267.1333069359986L804.8887000000001,250.92109548781673L805.035546875,266.22015220960594L805.0984812500001,279.8299949111975L805.392175,284.74987277641515L805.622934375,286.4574660852827L808.475959375,273.47303793402176L809.25215,258.2963951442937L810.405946875,247.21941943253876L810.55279375,234.27879702619197L811.916371875,271.28815314514327L812.4408249999999,295.6026925405436L812.629628125,307.5364283657416L812.881365625,306.4646256885734L813.27995,317.0815039707307L813.6365781249999,317.2895568509748L813.95125,320.25680209993425L814.769396875,317.72720285534325L815.021134375,308.29039251970926L815.5455875,293.9530810604553L816.17493125,296.12939820826415L816.321778125,285.3163349279187L817.538509375,279.12353155901553L817.76926875,282.026425492111L818.503503125,287.334499532785L818.9020875,281.3439512817895L819.048934375,286.91581090502945L820.013928125,266.2078362954438L821.104790625,265.4219615371692L821.167725,256.12384709785385L821.9019593749999,260.0958157603145L823.328471875,264.3591863765836L823.852925,235.1053349765849L824.56618125,245.5781112070508L824.6291156249999,242.6768925401942L825.719978125,250.00132051786034L825.74095625,251.19787559318695L825.90878125,252.45239697342004L826.181496875,262.4212917473608L827.33529375,294.5262597552951L827.9017031249999,290.87165685606095L829.160390625,293.45307338304576L829.1813687499999,303.5813863519862L829.7268,303.37936121487826L829.9785375,297.1106511966241L830.293209375,299.91585055684163L830.712771875,287.3750019532151L830.901575,288.91976864705714L831.090378125,303.9795625661029L831.719721875,295.6739588054546L832.7476499999999,291.17553765013986L833.9014468749999,297.63542889615997L834.572746875,293.6279967252082L835.034265625,275.50217692993084L836.56566875,279.03097816075086L838.2019625,281.2538364157987L839.75434375,245.22499314701037" style="fill: none;" fill="none"></path></g></g></g></g><g opacity="0.2"><g><g><g><path stroke="rgb(255, 112, 67)" stroke-width="2px" d="M129.6448125,-11.831315279006958L131.344040625,3.3609801530838013L132.4978375,-7.369213581085205L132.560771875,21.511531352996826L132.854465625,-29.438743591308594L132.938378125,66.56592309474945L133.945328125,-13.678067922592163L134.092175,-41.073752641677856L135.0152125,5.647399425506592L135.64455625,102.10606920719147L136.840309375,89.04046952724457L137.448675,55.491923809051514L137.78432500000002,82.43967258930206L138.119975,111.15085172653198L139.29475,31.670198917388916L140.364634375,107.82398247718811L140.74224062500002,99.33598518371582L140.93104375,51.670918345451355L141.26669375,121.28808200359344L141.329628125,34.10829710960388L142.25266562500002,156.10839366912842L143.5742875,69.12347686290741L144.03580625,66.51217257976532L144.09874062499998,65.97075748443604L144.266565625,110.97000551223755L145.105690625,154.44931840896606L145.46231875,92.23174905776978L145.735034375,76.08677518367767L147.6020875,51.14986193180084L148.860775,50.113951086997986L150.769784375,95.67443358898163L151.021521875,110.5691237449646L151.692821875,99.84171640872955L151.818690625,142.34241938591003L152.238253125,85.67557942867279L152.34314375,213.12263453006744L153.28715937500002,166.36988830566406L153.538896875,116.1032246351242L154.27313125,170.31475365161896L155.007365625,133.03315377235413L155.02834375,86.43410885334015L155.9933375,177.56828677654266L156.34996562499998,106.60533785820007L156.391921875,123.21892094612122L156.4968125,163.46385502815247L157.021265625,128.26477301120758L157.04224375,102.29226350784302L157.29398125,155.75173473358154L157.398871875,115.86754930019379L158.0072375,74.5627053976059L158.32190937500002,100.78599071502686L158.44777812499999,98.35818421840668L161.216890625,134.63286077976227L162.3706875,80.33693087100983L163.39861562500002,104.84109854698181L165.643275,135.91460382938385L167.132721875,186.86002504825592L168.055759375,168.789515376091L168.62216875,135.33759474754333L168.685103125,116.87406814098358L169.901834375,157.23634552955627L171.202478125,172.64732825756073L171.9367125,123.57607424259186L172.64996875,194.6034698486328L172.94366250000002,176.12888753414154L172.98561875,165.99435377120972L173.00659687499999,194.2232164144516L174.223328125,112.58652079105377L177.8945,84.88455700874329L180.411875,126.8536422252655L180.78948125,111.65500998497009L180.8314375,123.54012072086334L181.88034375,208.2227088212967L183.05511875000002,189.71886932849884L183.369790625,174.364288687706L184.460653125,179.06220054626465L184.90119375,201.12898910045624L185.048040625,171.5218482017517L187.2927,177.92251884937286L187.8800875,167.9781792163849L188.467475,191.41052746772766L189.5583375,151.43753683567047L190.85898125,141.07793402671814L192.9148375,198.77686476707458L193.56515937499998,140.08314502239227L193.67005,182.29239976406097L195.180475,183.94014966487885L195.453190625,197.94364190101624L195.495146875,180.15105295181274L197.19437499999998,223.42516112327576L199.12436250000002,197.50581789016724L199.480990625,236.15068542957306L199.92153125,214.9347369670868L201.9773875,139.26097786426544L202.73260000000002,152.6993706226349L202.8165125,186.07480013370514L202.9843375,232.38671123981476L204.53671875,157.46118986606598L205.3338875,185.30112528800964L205.62758125,162.07906019687653L206.42475,132.53218638896942L206.67648749999998,192.06658935546875L207.55756875,158.99294471740723L208.98408125,151.59528291225433L209.172884375,154.90327656269073L209.23581875,198.08089447021484L210.83015625,184.9834759235382L210.87211250000001,163.17258656024933L212.00493125,188.6147816181183L212.59231875,263.9834750890732L214.795021875,216.2190866470337L216.683053125,223.18669939041138L217.018703125,153.89163434505463L217.31239687500002,212.55214202404022L218.5920625,250.54584634304047L220.626940625,193.45565366744995L221.29824062499998,165.4939706325531L223.710725,183.52165067195892L224.025396875,205.48255610466003L224.948434375,188.185271859169L226.731575,188.14608252048492L227.088203125,193.5082356929779L227.1511375,210.9746812582016L227.90635,281.0662066936493L228.053196875,261.8723292350769L228.808409375,259.5943590402603L229.24895,282.9858101606369L230.54959374999999,222.1151945590973L230.96915625,279.42128813266754L233.29772812500002,192.25237917900085L233.50750937499998,229.36684012413025L234.955,195.89954936504364L235.227715625,212.95046210289001L235.35358437499997,220.65238058567047L235.6263,203.44668793678284L236.822053125,234.05679726600647L237.30455,250.02465510368347L237.40944062499997,217.52087378501892L238.64714999999998,215.73861277103424L239.150625,259.60244858264923L241.164525,201.56838607788086L241.66799999999998,165.58331513404846L242.80081875,228.12630879878998L243.40918437500002,290.0828106403351L244.54200312499998,287.53950345516205L245.36015,287.0350306034088L245.42308437499997,216.5996996164322L245.674821875,243.02302134037018L246.32514375,284.4908695220947L248.50686875000002,261.1202714443207L248.67469375,251.67613518238068L248.989365625,285.60255241394043L251.02424375,258.0615255832672L251.56967500000002,228.8981410264969L252.03119375,248.7111381292343L253.96118124999998,246.9166978597641L254.12900625,252.35125243663788L254.989109375,262.5266383886337L256.268775,216.59372234344482L256.919096875,233.00048279762268L258.26169687500004,191.1801552772522L258.849084375,227.19520246982574L258.8700625,290.8603504896164L259.268646875,301.39567613601685L259.75114375,287.1009154319763L260.149728125,269.10662722587585L261.17765625000004,228.87931036949158L261.3874375,273.2370127439499L261.450371875,256.5131871700287L261.76504375,271.53510785102844L262.45732187500005,266.01242220401764L266.14947187499996,249.6728948354721L266.275340625,234.14888322353363L267.680875,281.51288425922394L268.2682625,252.09373533725739L268.47804375,235.19238924980164L269.212278125,221.6955270767212L270.6178125,204.8689193725586L271.2891125,244.98073554039001L272.526821875,192.99131393432617L273.26105625,206.536398768425L273.743553125,204.7695528268814L274.10018125,282.15272212028503L276.4916875,274.8054851293564L277.225921875,251.90511417388916L277.35179062500004,266.61648631095886L278.79928125,253.66575813293457L279.72231875,229.1366926431656L280.33068437500003,271.38423788547516L280.435575,250.74408507347107L280.62437812499996,217.19356191158295L282.512409375,238.12556743621826L282.57534375,257.4167890548706L283.16273125000004,263.3904666900635L283.3725125,232.68759727478027L284.58924375,238.40501618385315L285.323478125,245.45595121383667L286.01575625,209.160826086998L286.036734375,202.09011662006378L287.295421875,254.98439848423004L289.896709375,302.7711230516434L289.95964375,280.98198556900024L291.13441875,294.2539584636688L291.67985000000004,261.50115406513214L291.742784375,299.7169612646103L292.183325,287.7372478246689L292.330171875,313.75519359111786L293.546903125,266.39838325977325L293.67277187499997,282.86572539806366L294.847546875,273.8263359069824L298.43480625,202.87821781635284L298.581653125,238.55723440647125L299.1480625,203.24435949325562L300.3228375,226.05327367782593L300.9941375,252.76615607738495L302.3367375,245.44156980514526L302.399671875,193.46320390701294L302.819234375,265.85687828063965L303.51151250000004,274.0980546474457L305.16878437500003,308.62260365486145L305.31563125,299.56730473041534L305.588346875,284.90388560295105L306.049865625,300.1779752969742L306.84703437499996,312.7799093723297L307.476378125,282.03290700912476L307.958875,299.8608652353287L308.33648125,261.60699224472046L309.80494999999996,298.53701162338257L311.378309375,293.77478790283203L312.72090937499996,228.74277687072754L314.0844875,240.21747815608978L315.88860625,226.8965185880661L316.4340375,249.95139980316162L318.1962,231.7998149394989L320.4618375,279.6890969276428L320.608684375,269.1348956823349L322.9792125,266.43847143650055L323.042146875,253.75038373470306L323.4826875,284.88159441947937L324.720396875,286.1275637149811L324.930178125,275.9661546945572L325.014090625,295.73047971725464L325.62245625,275.3494619131088L326.314734375,260.6737736463547L327.405596875,275.6364609003067L327.762225,278.54644906520844L328.05591875,250.24145483970642L328.39156875,229.99112808704376L328.74819687499996,264.456218957901L329.587321875,279.56663024425507L330.552315625,264.7827218770981L330.57329375,223.96626162528992L331.0348125,268.8982765674591L331.76904687499996,261.59750950336456L331.978828125,263.8812772035599L332.314478125,274.3091467618942L332.50328125,237.14772152900696L332.79697500000003,193.50787615776062L333.59414375,238.8198299407959L333.657078125,211.7903767824173L334.370334375,273.89563632011414L334.454246875,224.60686349868774L334.93674375,263.46907007694244L335.0626125,233.70768857002258L335.10456875,248.6629604101181L335.94369374999997,306.0814986228943L336.0695625,298.9715099334717L336.342278125,282.11420691013336L336.44716875,347.8545023202896L337.78976875,292.08321964740753L338.188353125,255.03900289535522L338.37715625,297.1819233894348L339.321171875,308.8954908847809L339.80366875,300.6204732656479L339.84562500000004,270.74008560180664L339.86660312500004,294.30038344860077L341.1043125,267.731090426445L344.439834375,254.17921936511993L345.551675,237.98031520843506L345.9712375,291.3852719068527L346.621559375,197.03851199150085L346.8103625,272.3660386800766L347.166990625,232.28783905506134L347.52361875,279.6531434059143L348.173940625,195.96772623062134L349.243825,271.01252341270447L349.726321875,266.2864329814911L350.02001562500004,209.15718579292297L351.572396875,312.2415952682495L353.963903125,280.1617958545685L355.97780312500004,248.82654893398285L356.08269375,245.4821972846985L356.83790625,312.5316952466965L357.488228125,268.32531225681305L359.52310625,252.88331961631775L360.0685375,258.76423716545105L360.15245000000004,296.6115657091141L360.4881,246.76762557029724L361.36918125,243.5124386548996L362.71178125,251.3357002735138L362.774715625,257.5031224489212L363.11036562500004,207.7714022397995L365.12426562499996,262.01960384845734L366.23610625,292.46450674533844L368.229028125,315.3381372690201L370.704446875,285.9916594028473L371.291834375,261.090699672699L372.52954375,290.1613690853119L373.515515625,247.53154802322388L375.02594062500003,276.8657567501068L375.424525,264.6216051578522L376.32658437500004,301.3059720993042L376.746146875,249.56827008724213L377.96287812500003,231.37268710136414L378.31950624999996,232.62939751148224L378.885915625,255.1942322254181L379.32645625,256.77164804935455L379.57819374999997,285.7832638025284L379.892865625,263.3377048969269L379.97677812499995,197.30312991142273L380.33340625,252.19152891635895L381.08861875,244.15254616737366L381.92774375,324.6438524723053L382.620021875,325.0292292833328L384.927615625,273.0330663919449L386.03945625,286.5185582637787L386.12336875,294.4042891263962L386.54293125,287.53118920326233L387.570859375,238.7205982208252L388.17922500000003,293.9420167207718L389.06030625,246.15178668498993L390.13019062499995,287.094668507576L390.6126875,260.05941784381866L391.850396875,272.66948640346527L391.91333125,298.00045025348663L393.276909375,206.36368703842163L393.885275,218.58626651763916L394.59853125,264.8884701728821L395.33276562500004,208.90789306163788L395.8152625,243.99785614013672L396.1509125,323.00931549072266L397.682315625,291.84637582302094L398.0809,307.81445837020874L398.54241874999997,275.16124522686005L400.26262499999996,267.33020865917206L403.22054062499996,241.13042795658112L404.605096875,294.3693243265152L404.75194375,209.23808121681213L404.940746875,271.19112253189087L405.297375,237.90575659275055L405.5491125,222.5705908536911L405.67498125,283.61998534202576L406.912690625,252.2015060186386L407.961596875,242.048006772995L408.94756875,256.64693427085876L409.70278125,233.55277383327484L410.20625625,280.14197647571564L410.269190625,227.8420512676239L411.84255,200.38272881507874L411.96841875,240.9671540260315L412.59776250000004,305.5511392354965L412.786565625,314.7960031032562L412.870478125,310.9493807554245L412.996346875,292.4954717159271L414.926334375,296.9532140493393L414.9473125,310.8262848854065L415.1151375,275.4118412733078L415.19905,294.68571531772614L415.55567812500004,307.34337735176086L416.898278125,274.00659787654877L417.29686250000003,289.73114025592804L418.01011875,284.9072562456131L420.128909375,244.508216381073L421.45053125,234.75923919677734L422.41552499999995,236.82378029823303L423.33856249999997,263.46246361732483L423.73714687499995,239.8291801214218L425.14268125,238.67610573768616L426.3594125,258.0061571598053L426.841909375,199.39629900455475L428.54113750000005,286.21173989772797L429.48515312499995,249.2270711660385L429.52710937499995,298.6168284416199L430.198409375,316.68648421764374L430.84873124999996,313.78593385219574L432.08644062499997,267.25578486919403L435.08631249999996,284.02810275554657L435.5897875,227.0599273443222L435.77859062500005,223.35689437389374L435.90445937500004,261.9820773601532L436.869453125,217.13612616062164L436.93238750000006,246.7366156578064L437.33097187500005,241.59503734111786L440.100084375,238.51534855365753L440.393778125,265.46700727939606L442.533546875,237.10174596309662L442.97408750000005,329.5080044269562L444.48451249999994,321.5709499120712L445.76417812499994,261.06732988357544L447.274603125,325.6034519672394L447.73612187500004,303.03893184661865L448.09275,249.10995256900787L449.05774375,290.359472990036L449.771,289.52099192142487L451.134578125,263.8481550216675L452.267396875,273.4169601202011L452.812828125,242.66923868656158L452.91771874999995,269.0949423313141L454.407165625,277.1132518053055L455.16237812500003,259.592875957489L456.19030625,260.1454815864563L457.49095,305.5059276819229L457.51192812499994,261.54897224903107L458.22518437499997,333.4423533678055L458.518878125,324.4743765592575L459.39995937500004,319.7054115533829L462.90330624999996,331.96322548389435L463.55362812500005,276.48532354831696L464.26688437499996,270.50553381443024L465.54654999999997,262.2712335586548L465.75633125,253.46855306625366L466.532521875,250.28702592849731L466.700346875,290.44463789463043L467.22479999999996,258.4072186946869L467.60240625,283.98769998550415L467.6443625,271.92587769031525L468.126859375,274.7549704313278L468.1478375,280.23482644557953L468.168815625,201.52753388881683L468.23175000000003,251.92488861083984L468.630334375,252.13319432735443L469.36456875,207.11219441890717L470.01489062499996,240.43598568439484L470.45543125,250.7856113910675L470.83303750000005,289.6919059753418L471.04281875000004,263.2167662382126L472.909871875,252.3543084859848L473.203565625,225.32997870445251L473.62312812499994,328.2851802110672L473.81193125,322.29514372348785L473.95877812500004,319.087460398674L473.97975625,344.69459223747253L474.58812187500007,276.87919437885284L474.797903125,298.33355963230133L475.217465625,290.74390602111816L476.66495625000005,321.43284344673157L477.692884375,313.0176969766617L478.38516250000004,264.68775963783264L479.18233124999995,300.0568119287491L481.510903125,278.9099391698837L482.03535625,306.1766406297684L482.09829062499995,282.4268227815628L482.28709375,268.49946212768555L482.87448125000003,251.3677887916565L483.608715625,222.86217391490936L483.86045312500005,257.0621974468231L484.6786,220.03092396259308L485.203053125,212.84421944618225L485.55968125,230.80875611305237L486.98619375000004,253.95689177513123L487.44771249999997,298.3461883068085L488.0351,266.4047200679779L489.16791874999996,344.66502046585083L491.958009375,350.989604473114L491.9789875,282.8218171596527L493.97190937499994,289.2223529815674L494.915925,277.38757717609406L497.45427812500003,241.94333708286285L497.60112499999997,291.29192757606506L500.22339062500004,221.5644315481186L501.230340625,235.40613293647766L502.59391875,224.66065895557404L502.992503125,268.12091648578644L503.09739375000004,225.2123657464981L503.579890625,249.72111749649048L504.04140937499994,287.3795552253723L504.48195,316.11868822574615L505.9084625,341.8847795724869L507.020303125,288.4333529472351L508.23703437499995,315.93608927726746L509.16007187499997,304.66551411151886L509.243984375,312.1949905157089L509.76843750000006,317.31441247463226L513.649390625,238.6112995147705L513.9640625000001,264.60951578617096L514.026996875,249.13741207122803L514.488515625,279.7571839094162L514.614384375,255.2793971300125L515.621334375,265.77342116832733L515.93600625,220.05649590492249L516.901,230.52935230731964L517.1946937499999,212.0694659948349L517.425453125,309.99683713912964L517.61425625,246.84825134277344L518.57925,281.96369647979736L518.810009375,249.19848811626434L518.935878125,268.51568615436554L520.1735875,319.64240300655365L520.739996875,279.74401593208313L521.22249375,319.98063576221466L522.6909625,297.0987808704376L523.1524812499999,295.7731295824051L523.844759375,268.39290487766266L524.2013875,306.21753776073456L524.348234375,335.47085106372833L525.1873593749999,303.0719641447067L525.460075,274.28743982315063L525.564965625,224.0176751613617L525.690834375,299.57458531856537L525.7537687500001,326.28292858600616L527.34810625,258.8647722005844L527.369084375,268.885378241539L527.411040625,256.0710936784744L528.292121875,249.86138117313385L528.3550562500001,258.65848886966705L529.005378125,307.0159306526184L529.5717875,251.74723327159882L529.6347218750001,244.83898878097534L529.7396125,267.25371754169464L530.9143875000001,224.9235690832138L531.229059375,292.19009149074554L531.4178625,254.39089572429657L531.45981875,255.8841803073883L532.487746875,267.615275144577L533.6835,245.72115337848663L534.627515625,261.3439472913742L535.48761875,319.4508156776428L535.760334375,332.6942504644394L535.7813125,331.8744202852249L536.24283125,315.8232401609421L536.347721875,314.15706408023834L536.57848125,285.8206105232239L538.9070531250001,256.65345084667206L539.34759375,302.6416903734207L540.7741062499999,260.1229656934738L540.795084375,281.6136440038681L540.8580187499999,271.97612273693085L540.878996875,260.72132217884064L541.885946875,259.01501297950745L542.389421875,245.61706793308258L543.0817,270.36279833316803L543.606153125,291.8969804048538L545.158534375,301.50771629810333L545.997659375,302.6813291311264L546.165484375,246.1840100288391L546.836784375,311.7746938467026L547.1095,273.1102316379547L548.4521,290.2222204208374L549.815678125,229.17125296592712L550.298175,324.9269415140152L552.0603375000001,333.72809398174286L552.123271875,254.09697568416595L552.2281625,319.0755957365036L553.633696875,291.1350803375244L554.0113031249999,317.6386682987213L555.5846625,230.3159681558609L556.402809375,256.9992787837982L556.4237875,271.4345278739929L559.7173531249999,287.4395526647568L560.598434375,258.1981040239334L560.6194125000001,238.58415460586548L561.982990625,269.44921934604645L562.108859375,239.71138739585876L562.528421875,277.08646643161774L562.654290625,239.19064557552338L563.0948312500001,252.747145652771L563.2207,290.44086277484894L564.4793874999999,248.58925569057465L565.7170968749999,305.4572106599808L566.388396875,338.6354351043701L566.5352437500001,376.3092429637909L571.0245625,300.0918216705322L571.549015625,324.4316817522049L571.82173125,279.4195353984833L572.388140625,304.1278291940689L572.5349875,273.12811851501465L572.765746875,272.6311959028244L572.8706374999999,303.6275359392166L573.0384624999999,237.89524018764496L573.33215625,270.95234620571136L573.91954375,289.1139531135559L575.367034375,236.63709163665771L575.42996875,242.93183422088623L576.31105,272.25417828559875L577.045284375,244.2344752550125L577.821475,239.29279851913452L579.7304843750001,242.27608692646027L580.0661343749999,247.3097597360611L582.31079375,335.3995282649994L582.457640625,293.2827639579773L582.709378125,313.2736860513687L583.7792625,252.3061307668686L584.010021875,316.2732883691788L584.031,268.4837774038315L585.91903125,283.114523768425L585.9819656249999,280.39616787433624L589.06575,255.75281512737274L589.1496625,260.09676456451416L589.170640625,281.6398001909256L589.52726875,288.9309047460556L589.841940625,293.8044945001602L590.051721875,215.81146359443665L590.28248125,263.1097595691681L590.387371875,269.1014139652252L590.4922625,297.369690656662L590.576175,300.2255687713623L590.7020437499999,252.4201933145523L591.20551875,216.89833855628967L591.4153,215.3152151107788L591.96073125,219.11114299297333L592.904746875,266.5973410606384L593.3872437499999,312.20649564266205L594.4571281249999,256.21234607696533L594.960603125,231.04542016983032L595.3591875,264.0171365737915L595.65288125,284.5531140565872L596.345159375,328.0594370365143L598.7156875000001,287.9014655351639L599.7436156250001,282.57158064842224L601.44284375,292.7622468471527L601.673603125,307.0124251842499L602.093165625,303.21398055553436L603.351853125,264.7316678762436L603.6245687500001,244.59005558490753L604.400759375,280.33576595783234L604.820321875,252.31943356990814L605.0510812499999,276.56424152851105L606.8552,240.4658271074295L607.0649812500001,291.8057932853699L610.022896875,251.1659996509552L610.7990875,259.64559280872345L610.84104375,214.07944762706757L611.449409375,275.54437494277954L612.26755625,351.92502522468567L613.27450625,321.08009445667267L614.28145625,337.3181879520416L614.3234125,294.7098491191864L614.4912375,312.2539542913437L615.12058125,306.3269712924957L615.603078125,294.5478335618973L615.896771875,270.62027049064636L617.092525,257.89888083934784L619.1064250000001,282.1575758457184L620.0504406250001,300.83781230449677L620.1343531250001,240.90679705142975L621.393040625,263.50354051589966L622.358034375,241.81979179382324L622.987378125,166.71634542942047L623.4488968750001,262.77336943149567L623.616721875,234.58041536808014L626.1760531250001,239.81646156311035L626.8053968749999,259.29545044898987L627.266915625,315.0020167827606L627.9591937499999,306.94267535209656L628.5675593750001,309.9095150232315L629.511575,292.3808249235153L630.329721875,305.91871905326843L632.1338406250001,292.96169900894165L633.66524375,286.8235340118408L634.189696875,248.27987563610077L634.4624125,249.42697274684906L634.6512156250001,283.7934161424637L636.3084875,207.06060111522675L637.546196875,237.5046501159668L639.937703125,222.56434392929077L640.252375,256.9271020889282L641.3432375,281.38327181339264L641.909646875,260.4056053161621L643.210290625,299.8754264116287L643.73474375,316.13922667503357L645.601796875,240.12674045562744L646.3779875,285.3200925588608L647.112221875,280.55840814113617L647.8045,265.01147615909576L648.664603125,278.598356962204L650.930240625,309.76785814762115L651.265890625,259.65143525600433L651.7064312499999,274.6827937364578L651.895234375,233.72854161262512L652.2308843750001,281.08270037174225L653.5525062500001,253.8229649066925L653.573484375,266.9638422727585L653.867178125,247.94690108299255L656.174771875,223.16867768764496L656.4474875,232.18622541427612L656.678246875,228.56071722507477L658.7760593749999,274.02124893665314L660.1815937499999,310.76480436325073L661.0626749999999,329.0880672931671L664.37721875,269.30360758304596L666.1393812499999,235.03662061691284L666.1813375,202.2605812549591L667.0204625,257.02255868911743L667.041440625,277.70378839969635L667.06241875,232.37381291389465L667.39806875,262.8397935628891L667.670784375,273.74988973140717L667.712740625,266.88532876968384L669.789575,286.5192323923111L672.93629375,266.4439992904663L674.27889375,334.79766631126404L674.4047625,281.46493124961853L674.5306312499999,318.27468609809875L674.61454375,346.8266360759735L674.635521875,316.7558295726776L676.20888125,281.60577917099L677.04800625,323.12602961063385L678.201803125,314.59978675842285L680.4884187499999,286.4746949672699L680.719178125,292.4436537027359L680.887003125,285.7746798992157L681.893953125,255.50972437858582L682.397428125,242.58501756191254L683.236553125,311.45214581489563L683.2994875,268.0224038362503L683.949809375,263.3035490512848L684.159590625,278.55476331710815L684.3064375,264.13483941555023L684.68404375,240.3767522573471L685.879796875,254.6723668575287L686.299359375,227.35263395309448L686.3622937499999,290.2202879190445L686.802834375,294.1962980031967L688.606953125,325.05547535419464L690.5159625,322.9936307668686L690.55791875,278.96463346481323L691.22921875,316.5821291208267L691.6068250000001,325.3777986764908L697.543634375,250.2801947593689L698.089065625,261.51962518692017L699.0121031250001,272.2394822835922L700.1659000000001,210.41654777526855L701.46654375,255.70791816711426L701.739259375,304.1064817905426L703.669246875,266.6958087682724L704.2776125,301.26925456523895L705.095759375,332.1791263818741L706.4593375,345.799488902092L710.969634375,269.52481162548065L712.6269062499999,300.05914890766144L713.1723375,252.5540302991867L713.63385625,324.1691311597824L714.032440625,274.72580313682556L714.452003125,258.24623680114746L714.55689375,273.7275536060333L714.89254375,250.85522639751434L715.14428125,274.2168810367584L715.47993125,278.9054000377655L716.046340625,274.03311359882355L717.472853125,280.588294506073L718.5007812499999,254.10843586921692L718.773496875,234.04731452465057L718.941321875,253.15202724933624L720.93424375,267.9975060224533L722.44466875,307.60606276988983L723.1369468749999,282.7366073131561L723.28379375,309.86309003829956L723.472596875,280.44605338573456L724.521503125,255.571879029274L724.5844375,272.66629552841187L725.0249781250001,240.7060865163803L725.276715625,275.54689168930054L725.6753,281.67000114917755L726.073884375,316.3247468471527L728.9269093749999,281.09825026988983L730.6261375,232.87136471271515L730.647115625,237.66244113445282L731.3603718749999,293.9018386602402L731.75895625,281.83606147766113L732.72395,290.0189481973648L734.234375,235.08583199977875L734.339265625,240.97097408771515L734.884696875,297.24272978305817L735.849690625,299.04278779029846L736.1643624999999,344.765780210495L737.1083781250001,320.1291687488556L737.88456875,282.54245829582214L738.786628125,281.26929914951324L739.206190625,260.5610144138336L739.3320593750001,308.73850882053375L739.604775,279.662850856781L740.1921625,285.24760127067566L741.094221875,282.8323335647583L741.933346875,227.4592810869217L743.33888125,266.82591557502747L743.863334375,287.88254499435425L744.0101812500001,278.60604202747345L744.0940937500001,259.05761790275574L746.170928125,260.1975243091583L746.2338625,258.99546325206757L747.0729875,286.4350562095642L747.7442875,269.8819649219513L749.04493125,288.8917154073715L749.338625,249.3899406194687L749.695253125,267.64161109924316L749.71623125,244.9202437400818L750.5973124999999,289.49061119556427L752.674146875,315.9561333656311L753.2405562499999,293.0327970981598L756.3033625,295.1835367679596L757.4152031250001,249.08006620407104L759.6808406250001,297.21536016464233L759.9116,240.2496565580368L762.491909375,265.5132974386215L763.72961875,248.09687221050262L764.505809375,289.29569816589355L764.9463499999999,259.362908244133L765.7225406250001,339.4568382501602L766.477753125,297.98629355430603L766.49873125,344.7201192378998L767.023184375,334.2524311542511L768.323828125,267.66821670532227L768.449696875,274.91608715057373L768.76436875,294.8292148113251L769.813275,305.8007016181946L770.3587062500001,313.99055433273315L770.715334375,264.6928380727768L771.19783125,288.5892114639282L772.162825,260.6929188966751L773.526403125,283.38965809345245L773.67325,213.34824287891388L773.841075,274.0056540966034L774.848025,292.1301839351654L775.036828125,229.75666618347168L776.2745375000001,257.69079983234406L776.547253125,282.0473783016205L779.58908125,237.55795121192932L779.84081875,280.3142387866974L780.533096875,230.41335725784302L780.575053125,309.77311635017395L781.4141781249999,300.5133317708969L782.7777562499999,293.40123081207275L784.3301375,291.9505511522293L785.316109375,297.0366711616516L786.071321875,293.0944573879242L786.6796875,275.96300876140594L787.288053125,283.90352380275726L787.56076875,275.32303607463837L787.623703125,293.62859189510345L789.008259375,282.1287680864334L789.07119375,259.05442702770233L789.9732531249999,275.8870120048523L790.7914000000001,259.49243080616L791.00118125,255.56028401851654L791.064115625,238.76945006847382L792.1759562499999,251.09364318847656L794.546484375,262.3646228313446L794.94506875,261.79871439933777L795.091915625,246.3323632478714L795.11289375,250.77401638031006L795.2597406250001,239.92023241519928L796.6233187500001,332.98547399044037L797.2107062499999,331.4207317829132L797.46244375,312.86678206920624L797.7351593750001,311.30446672439575L797.88200625,341.48466181755066L799.581234375,290.3238790035248L800.2735125,302.5012469291687L800.357425,279.7127363681793L800.923834375,251.10555279254913L800.965790625,285.66888666152954L802.3713250000001,331.0923413038254L802.853821875,287.2099894285202L804.3222906249999,276.4667625427246L804.532071875,235.99833238124847L804.8887000000001,226.60277831554413L805.035546875,289.16873729228973L805.0984812500001,300.2447589635849L805.392175,292.12968957424164L805.622934375,289.018856048584L808.475959375,253.99639570713043L809.25215,235.53143095970154L810.405946875,230.6039558649063L810.55279375,214.86786341667175L811.916371875,326.80218732357025L812.4408249999999,332.0745016336441L812.629628125,325.4370321035385L812.881365625,304.85692167282104L813.27995,333.0068213939667L813.6365781249999,317.60163617134094L813.95125,324.7076699733734L814.769396875,313.9328039884567L815.021134375,294.13517701625824L815.5455875,272.4471138715744L816.17493125,299.3938739299774L816.321778125,269.0967400074005L817.538509375,269.834326505661L817.76926875,286.38076639175415L818.503503125,295.2966105937958L818.9020875,272.3581289052963L819.048934375,295.2736003398895L820.013928125,235.14587438106537L821.104790625,264.2431493997574L821.167725,242.17667543888092L821.9019593749999,266.05376875400543L823.328471875,270.75424230098724L823.852925,191.2245578765869L824.56618125,261.28727555274963L824.6291156249999,238.32506453990936L825.719978125,260.98796248435974L825.74095625,252.99270820617676L825.90878125,254.33417904376984L826.181496875,277.3746339082718L827.33529375,342.68371176719666L827.9017031249999,285.3897525072098L829.160390625,297.32519817352295L829.1813687499999,318.77385580539703L829.7268,303.0763235092163L829.9785375,287.70758616924286L830.293209375,304.12364959716797L830.712771875,268.56372904777527L830.901575,291.23691868782043L831.090378125,326.56925344467163L831.719721875,283.2155531644821L832.7476499999999,284.42790591716766L833.9014468749999,307.3252657651901L834.572746875,287.6168484687805L835.034265625,248.31344723701477L836.56566875,284.3241800069809L838.2019625,284.58812379837036L839.75434375,191.18172824382782" style="fill: none;" fill="none"></path></g></g></g></g></g></g><g transform="translate(48, 377)" clip-path="url(#clip_1)"><clipPath id="clip_1"><rect width="839" height="23"></rect></clipPath><g><g><line x1="0" y1="0" x2="0" y2="5" style="visibility: inherit;" fill="rgb(0, 0, 0)" stroke="rgb(204, 204, 204)" stroke-width="1px"></line><line x1="104.890625" y1="0" x2="104.890625" y2="5" style="visibility: inherit;" fill="rgb(0, 0, 0)" stroke="rgb(204, 204, 204)" stroke-width="1px"></line><line x1="209.78125" y1="0" x2="209.78125" y2="5" style="visibility: inherit;" fill="rgb(0, 0, 0)" stroke="rgb(204, 204, 204)" stroke-width="1px"></line><line x1="314.671875" y1="0" x2="314.671875" y2="5" style="visibility: inherit;" fill="rgb(0, 0, 0)" stroke="rgb(204, 204, 204)" stroke-width="1px"></line><line x1="419.5625" y1="0" x2="419.5625" y2="5" style="visibility: inherit;" fill="rgb(0, 0, 0)" stroke="rgb(204, 204, 204)" stroke-width="1px"></line><line x1="524.453125" y1="0" x2="524.453125" y2="5" style="visibility: inherit;" fill="rgb(0, 0, 0)" stroke="rgb(204, 204, 204)" stroke-width="1px"></line><line x1="629.34375" y1="0" x2="629.34375" y2="5" style="visibility: inherit;" fill="rgb(0, 0, 0)" stroke="rgb(204, 204, 204)" stroke-width="1px"></line><line x1="734.234375" y1="0" x2="734.234375" y2="5" style="visibility: inherit;" fill="rgb(0, 0, 0)" stroke="rgb(204, 204, 204)" stroke-width="1px"></line><line x1="839.125" y1="0" x2="839.125" y2="5" style="visibility: inherit;" fill="rgb(0, 0, 0)" stroke="rgb(204, 204, 204)" stroke-width="1px"></line></g><g transform="translate(0, 8)"><text x="0" y="0" dx="0em" dy="0.95em" style="text-anchor: middle; visibility: hidden; font-family: &quot;Helvetica Neue&quot;, sans-serif; font-size: 12px; font-weight: 200;" fill="rgb(50, 49, 63)" stroke="none" stroke-width="1px">-5k</text><text x="104.890625" y="0" dx="0em" dy="0.95em" style="text-anchor: middle; visibility: inherit; font-family: &quot;Helvetica Neue&quot;, sans-serif; font-size: 12px; font-weight: 200;" fill="rgb(50, 49, 63)" stroke="none" stroke-width="1px">0</text><text x="209.78125" y="0" dx="0em" dy="0.95em" style="text-anchor: middle; visibility: inherit; font-family: &quot;Helvetica Neue&quot;, sans-serif; font-size: 12px; font-weight: 200;" fill="rgb(50, 49, 63)" stroke="none" stroke-width="1px">5k</text><text x="314.671875" y="0" dx="0em" dy="0.95em" style="text-anchor: middle; visibility: inherit; font-family: &quot;Helvetica Neue&quot;, sans-serif; font-size: 12px; font-weight: 200;" fill="rgb(50, 49, 63)" stroke="none" stroke-width="1px">10k</text><text x="419.5625" y="0" dx="0em" dy="0.95em" style="text-anchor: middle; visibility: inherit; font-family: &quot;Helvetica Neue&quot;, sans-serif; font-size: 12px; font-weight: 200;" fill="rgb(50, 49, 63)" stroke="none" stroke-width="1px">15k</text><text x="524.453125" y="0" dx="0em" dy="0.95em" style="text-anchor: middle; visibility: inherit; font-family: &quot;Helvetica Neue&quot;, sans-serif; font-size: 12px; font-weight: 200;" fill="rgb(50, 49, 63)" stroke="none" stroke-width="1px">20k</text><text x="629.34375" y="0" dx="0em" dy="0.95em" style="text-anchor: middle; visibility: inherit; font-family: &quot;Helvetica Neue&quot;, sans-serif; font-size: 12px; font-weight: 200;" fill="rgb(50, 49, 63)" stroke="none" stroke-width="1px">25k</text><text x="734.234375" y="0" dx="0em" dy="0.95em" style="text-anchor: middle; visibility: inherit; font-family: &quot;Helvetica Neue&quot;, sans-serif; font-size: 12px; font-weight: 200;" fill="rgb(50, 49, 63)" stroke="none" stroke-width="1px">30k</text><text x="839.125" y="0" dx="0em" dy="0.95em" style="text-anchor: middle; visibility: hidden; font-family: &quot;Helvetica Neue&quot;, sans-serif; font-size: 12px; font-weight: 200;" fill="rgb(50, 49, 63)" stroke="none" stroke-width="1px">35k</text></g><line x1="0" y1="0" x2="839.125" y2="0" fill="rgb(0, 0, 0)" stroke="rgb(204, 204, 204)" stroke-width="1px"></line></g></g></g></g></svg>