<svg viewBox="0 0 330 200" xmlns="http://www.w3.org/2000/svg"><g><g><g><g><g><line x1="48.875" y1="177" x2="43.875" y2="177" style="visibility: inherit;" fill="rgb(0, 0, 0)" stroke="rgb(204, 204, 204)" stroke-width="1px"></line><line x1="48.875" y1="159.3" x2="43.875" y2="159.3" style="visibility: inherit;" fill="rgb(0, 0, 0)" stroke="rgb(204, 204, 204)" stroke-width="1px"></line><line x1="48.875" y1="141.60000000000002" x2="43.875" y2="141.60000000000002" style="visibility: inherit;" fill="rgb(0, 0, 0)" stroke="rgb(204, 204, 204)" stroke-width="1px"></line><line x1="48.875" y1="123.90000000000003" x2="43.875" y2="123.90000000000003" style="visibility: inherit;" fill="rgb(0, 0, 0)" stroke="rgb(204, 204, 204)" stroke-width="1px"></line><line x1="48.875" y1="106.20000000000002" x2="43.875" y2="106.20000000000002" style="visibility: inherit;" fill="rgb(0, 0, 0)" stroke="rgb(204, 204, 204)" stroke-width="1px"></line><line x1="48.875" y1="88.5" x2="43.875" y2="88.5" style="visibility: inherit;" fill="rgb(0, 0, 0)" stroke="rgb(204, 204, 204)" stroke-width="1px"></line><line x1="48.875" y1="70.80000000000003" x2="43.875" y2="70.80000000000003" style="visibility: inherit;" fill="rgb(0, 0, 0)" stroke="rgb(204, 204, 204)" stroke-width="1px"></line><line x1="48.875" y1="53.10000000000001" x2="43.875" y2="53.10000000000001" style="visibility: inherit;" fill="rgb(0, 0, 0)" stroke="rgb(204, 204, 204)" stroke-width="1px"></line><line x1="48.875" y1="35.400000000000034" x2="43.875" y2="35.400000000000034" style="visibility: inherit;" fill="rgb(0, 0, 0)" stroke="rgb(204, 204, 204)" stroke-width="1px"></line><line x1="48.875" y1="17.700000000000017" x2="43.875" y2="17.700000000000017" style="visibility: inherit;" fill="rgb(0, 0, 0)" stroke="rgb(204, 204, 204)" stroke-width="1px"></line><line x1="48.875" y1="0" x2="43.875" y2="0" style="visibility: inherit;" fill="rgb(0, 0, 0)" stroke="rgb(204, 204, 204)" stroke-width="1px"></line></g><g transform="translate(38.875, 0)"><text x="0" y="177" dx="0em" dy="0.3em" style="text-anchor: end; visibility: hidden; font-family: &quot;Helvetica Neue&quot;, sans-serif; font-size: 12px; font-weight: 200;" fill="rgb(50, 49, 63)" stroke="none" stroke-width="1px">0.55</text><text x="0" y="159.3" dx="0em" dy="0.3em" style="text-anchor: end; visibility: inherit; font-family: &quot;Helvetica Neue&quot;, sans-serif; font-size: 12px; font-weight: 200;" fill="rgb(50, 49, 63)" stroke="none" stroke-width="1px">0.6</text><text x="0" y="141.60000000000002" dx="0em" dy="0.3em" style="text-anchor: end; visibility: hidden; font-family: &quot;Helvetica Neue&quot;, sans-serif; font-size: 12px; font-weight: 200;" fill="rgb(50, 49, 63)" stroke="none" stroke-width="1px">0.65</text><text x="0" y="123.90000000000003" dx="0em" dy="0.3em" style="text-anchor: end; visibility: inherit; font-family: &quot;Helvetica Neue&quot;, sans-serif; font-size: 12px; font-weight: 200;" fill="rgb(50, 49, 63)" stroke="none" stroke-width="1px">0.7</text><text x="0" y="106.20000000000002" dx="0em" dy="0.3em" style="text-anchor: end; visibility: hidden; font-family: &quot;Helvetica Neue&quot;, sans-serif; font-size: 12px; font-weight: 200;" fill="rgb(50, 49, 63)" stroke="none" stroke-width="1px">0.75</text><text x="0" y="88.5" dx="0em" dy="0.3em" style="text-anchor: end; visibility: inherit; font-family: &quot;Helvetica Neue&quot;, sans-serif; font-size: 12px; font-weight: 200;" fill="rgb(50, 49, 63)" stroke="none" stroke-width="1px">0.8</text><text x="0" y="70.80000000000003" dx="0em" dy="0.3em" style="text-anchor: end; visibility: hidden; font-family: &quot;Helvetica Neue&quot;, sans-serif; font-size: 12px; font-weight: 200;" fill="rgb(50, 49, 63)" stroke="none" stroke-width="1px">0.85</text><text x="0" y="53.10000000000001" dx="0em" dy="0.3em" style="text-anchor: end; visibility: inherit; font-family: &quot;Helvetica Neue&quot;, sans-serif; font-size: 12px; font-weight: 200;" fill="rgb(50, 49, 63)" stroke="none" stroke-width="1px">0.9</text><text x="0" y="35.400000000000034" dx="0em" dy="0.3em" style="text-anchor: end; visibility: hidden; font-family: &quot;Helvetica Neue&quot;, sans-serif; font-size: 12px; font-weight: 200;" fill="rgb(50, 49, 63)" stroke="none" stroke-width="1px">0.95</text><text x="0" y="17.700000000000017" dx="0em" dy="0.3em" style="text-anchor: end; visibility: inherit; font-family: &quot;Helvetica Neue&quot;, sans-serif; font-size: 12px; font-weight: 200;" fill="rgb(50, 49, 63)" stroke="none" stroke-width="1px">1</text><text x="0" y="0" dx="0em" dy="0.3em" style="text-anchor: end; visibility: hidden; font-family: &quot;Helvetica Neue&quot;, sans-serif; font-size: 12px; font-weight: 200;" fill="rgb(50, 49, 63)" stroke="none" stroke-width="1px">1.05</text></g><line x1="48.875" y1="0" x2="48.875" y2="177" fill="rgb(0, 0, 0)" stroke="rgb(204, 204, 204)" stroke-width="1px"></line></g></g><g transform="translate(48, 0)" clip-path="url(#clip_0)"><clipPath id="clip_0"><rect width="281" height="177"></rect></clipPath><g><g><g><line x1="0" y1="0" x2="0" y2="177" fill="rgb(0, 0, 0)" stroke="rgb(60, 60, 60)" stroke-width="1px" opacity="0.25"></line><line x1="31.23611111111111" y1="0" x2="31.23611111111111" y2="177" fill="rgb(0, 0, 0)" stroke="rgb(60, 60, 60)" stroke-width="1px" opacity="0.25"></line><line x1="62.47222222222222" y1="0" x2="62.47222222222222" y2="177" fill="rgb(0, 0, 0)" stroke="rgb(60, 60, 60)" stroke-width="1px" opacity="0.25"></line><line x1="93.70833333333333" y1="0" x2="93.70833333333333" y2="177" fill="rgb(0, 0, 0)" stroke="rgb(60, 60, 60)" stroke-width="1px" opacity="0.25"></line><line x1="124.94444444444444" y1="0" x2="124.94444444444444" y2="177" fill="rgb(0, 0, 0)" stroke="rgb(60, 60, 60)" stroke-width="1px" opacity="0.25"></line><line x1="156.18055555555557" y1="0" x2="156.18055555555557" y2="177" fill="rgb(0, 0, 0)" stroke="rgb(60, 60, 60)" stroke-width="1px" opacity="0.25"></line><line x1="187.41666666666666" y1="0" x2="187.41666666666666" y2="177" fill="rgb(0, 0, 0)" stroke="rgb(60, 60, 60)" stroke-width="1px" opacity="0.25"></line><line x1="218.65277777777777" y1="0" x2="218.65277777777777" y2="177" fill="rgb(0, 0, 0)" stroke="rgb(60, 60, 60)" stroke-width="1px" opacity="0.25"></line><line x1="249.88888888888889" y1="0" x2="249.88888888888889" y2="177" fill="rgb(0, 0, 0)" stroke="rgb(60, 60, 60)" stroke-width="1px" opacity="0.25"></line><line x1="281.125" y1="0" x2="281.125" y2="177" fill="rgb(0, 0, 0)" stroke="rgb(60, 60, 60)" stroke-width="1px" opacity="0.25"></line></g><g><line x1="0" y1="177" x2="281.125" y2="177" fill="rgb(0, 0, 0)" stroke="rgb(60, 60, 60)" stroke-width="1px" opacity="0.25"></line><line x1="0" y1="159.3" x2="281.125" y2="159.3" fill="rgb(0, 0, 0)" stroke="rgb(60, 60, 60)" stroke-width="1px" opacity="0.25"></line><line x1="0" y1="141.60000000000002" x2="281.125" y2="141.60000000000002" fill="rgb(0, 0, 0)" stroke="rgb(60, 60, 60)" stroke-width="1px" opacity="0.25"></line><line x1="0" y1="123.90000000000003" x2="281.125" y2="123.90000000000003" fill="rgb(0, 0, 0)" stroke="rgb(60, 60, 60)" stroke-width="1px" opacity="0.25"></line><line x1="0" y1="106.20000000000002" x2="281.125" y2="106.20000000000002" fill="rgb(0, 0, 0)" stroke="rgb(60, 60, 60)" stroke-width="1px" opacity="0.25"></line><line x1="0" y1="88.5" x2="281.125" y2="88.5" fill="rgb(0, 0, 0)" stroke="rgb(60, 60, 60)" stroke-width="1px" opacity="0.25"></line><line x1="0" y1="70.80000000000003" x2="281.125" y2="70.80000000000003" fill="rgb(0, 0, 0)" stroke="rgb(60, 60, 60)" stroke-width="1px" opacity="0.25"></line><line x1="0" y1="53.10000000000001" x2="281.125" y2="53.10000000000001" fill="rgb(0, 0, 0)" stroke="rgb(60, 60, 60)" stroke-width="1px" opacity="0.25"></line><line x1="0" y1="35.400000000000034" x2="281.125" y2="35.400000000000034" fill="rgb(0, 0, 0)" stroke="rgb(60, 60, 60)" stroke-width="1px" opacity="0.25"></line><line x1="0" y1="17.700000000000017" x2="281.125" y2="17.700000000000017" fill="rgb(0, 0, 0)" stroke="rgb(60, 60, 60)" stroke-width="1px" opacity="0.25"></line><line x1="0" y1="0" x2="281.125" y2="0" fill="rgb(0, 0, 0)" stroke="rgb(60, 60, 60)" stroke-width="1px" opacity="0.25"></line></g></g></g><g><g><line x1="0" y1="371.70000000000005" x2="281.125" y2="371.70000000000005" fill="rgb(0, 0, 0)" stroke="rgb(153, 153, 153)" stroke-width="1.5px"></line></g></g><g><g><line x1="31.23611111111111" y1="0" x2="31.23611111111111" y2="177" fill="rgb(0, 0, 0)" stroke="rgb(153, 153, 153)" stroke-width="1.5px"></line></g></g><g><g><g><g><g><path stroke="rgb(255, 112, 67)" stroke-width="2px" d="M40.20712222222222,-15.534775516838806L40.39453888888889,9.745622512040683L40.75063055555556,17.86048789367277L40.9318,19.934225179951767L41.031755555555556,27.09568800130546L41.13171111111111,19.005624356082592L41.48155555555555,17.712345236648474L41.80016388888889,24.48140754830905L41.912613888888885,28.009368296473866L41.96883888888889,29.440469267378234L42.06879444444444,42.083648044137334L42.087536111111106,48.60385959522708L42.362413888888895,57.30838049636898L42.755988888888886,46.99195700875501L42.89342777777778,55.15389725441868L42.912169444444444,56.860549030752L42.96214722222222,50.51502892139564L43.21203611111111,47.013279256600015L43.318238888888885,43.183215871678414L43.39945277777778,43.54125985099478L43.95545555555555,52.132035764417736L44.33028888888889,52.17926936171156L44.89878611111111,34.90654383672296L44.973752777777776,53.77829427345405L45.17366388888889,54.86768803372274L45.21114722222222,61.25406283244071L45.33609166666667,70.7333567554032L45.36732777777778,77.01313539113252L45.64845277777778,77.65511541703724L45.723419444444446,75.05939890110126L45.94207222222222,74.33376649596471L46.160725000000006,72.30603423344004L46.16697222222222,66.2825347150976L46.454344444444445,68.06272883687107L46.560547222222226,66.2780855671983L46.57304166666666,64.46532920935282L46.604277777777774,76.20314317189771L46.76045833333333,73.53857051159808L46.76670555555556,85.31868133321922L46.84167222222222,73.51615957126332L46.872908333333335,71.63234701457806L47.05407777777777,65.49360105695237L47.14778611111111,70.87685681642242L47.185269444444444,70.89454797542778L48.009902777777775,62.82778721116003L48.3535,66.97526928104172L48.659613888888885,66.39565172861346L49.328066666666665,54.85202047747569L49.77161944444445,73.39453197909714L50.04649722222222,70.11686171408489L50.21517222222222,73.70354644129274L50.23391388888889,77.50548789781091L50.59625277777777,72.03346683193301L50.983580555555555,77.17989911084804L51.20223333333333,80.02175728228946L51.41463888888889,82.72299683420215L51.5021,81.57406435685367L51.51459444444444,85.8924036924661L51.52084166666666,85.78751372007257L51.883180555555555,80.77896568481759L52.976444444444446,79.40374776187325L53.726111111111116,76.18584667004814L53.83856111111111,70.20073251222175L53.851055555555554,73.35603180584076L54.16341666666667,86.00074736986618L54.51326111111111,84.24693315931597L54.606969444444445,88.1447572142389L54.931824999999996,88.40531672897976L55.06301666666666,84.39441901840591L55.10674722222222,83.57087323187486L55.7752,90.67426401328261L55.95012222222222,92.37245742530357L56.12504444444445,89.03723586112696L56.4499,84.98726330584547L56.837227777777784,89.64715628138937L57.44945555555556,87.45753985113954L57.643119444444444,91.32963758866224L57.67435555555556,81.8782275376334L58.124155555555554,73.44944536314092L58.20536944444444,73.76629824892093L58.217863888888886,84.54610862884171L58.723888888888894,98.09522878738193L59.298633333333335,98.17996297128171L59.40483611111111,85.0211629786919L59.53602777777778,80.20080087177936L60.14825555555556,96.3732838296472L60.373155555555556,92.28856988808985L60.39814444444445,95.30805459536002L60.448122222222224,90.09450256655745L60.91041666666667,98.5855664767631L61.14781111111111,92.91375532375623L61.23527222222222,95.20571405545977L61.47266666666667,84.02262403760024L61.54763333333334,88.7641776024918L61.81001666666666,103.05421262381196L62.23482777777778,94.67184139607977L62.29105277777778,95.34816602539203L62.30979444444445,87.71500430387965L62.78458333333333,99.24766654183098L62.79707777777778,87.51461376672766L63.13442777777777,93.86807738975155L63.30935,98.10381913206261L63.96530833333333,95.58055303586293L64.52755833333333,96.9994826489256L64.62751388888888,104.35485309681691L64.714975,87.8868216939056L65.09605555555555,92.75056185408137L65.70203611111111,91.71575485994639L65.90194722222222,91.79431181031599L66.62037777777778,72.24737096833069L66.71408611111111,82.5995756495409L66.98896388888889,91.24612208535748L67.51997777777777,90.51919270235584L67.62618055555555,90.40505550788812L67.64492222222222,91.3998297410427L67.86982222222223,101.28416571838967L67.91355277777778,114.96131095065661L68.13845277777777,116.99648502811186L68.26964444444444,110.24030418482062L68.65697222222222,114.75176196149967L68.78191666666667,110.96673537285317L69.47535833333333,106.73274854297154L69.53783055555556,106.89621739551256L69.96888888888888,97.10229412177107L70.05010277777778,97.21807420408072L70.08758611111111,100.0707224902829L70.16879999999999,97.2380455718828L70.52489166666668,99.97872429289777L70.66857777777777,99.68541318177198L70.69981388888888,94.96047641515148L71.06840000000001,90.9483850865329L71.21833333333333,93.33370150022294L71.81806666666667,97.97052823121898L71.968,104.76237539896698L72.30534999999999,93.36588469296294L72.48651944444444,107.9168856856203L72.82386944444445,115.95852763634778L73.0675111111111,127.05634496201193L73.08625277777777,114.71157590382764L73.16121944444444,118.59431002517624L73.35488333333333,118.9766358541255L74.00459444444445,112.21649821321994L74.05457222222222,120.49412577462688L74.14828055555556,121.38887485213573L74.7542611111111,123.12210524766145L74.91668888888888,123.60829392366708L75.05412777777778,124.13589718397321L75.62887222222223,113.18408178839601L75.67885,99.88867008896776L75.93498611111112,94.30581389076777L76.31606666666667,97.4404560506777L76.50973055555555,95.74447156551099L76.90955277777778,94.82141751267086L77.084475,108.35903019319515L77.09072222222221,115.01555828696812L77.20941944444445,115.25045161990121L77.35310555555556,122.09168135135049L77.47180277777777,126.73325495605872L77.77791666666667,127.56966067245725L77.8403888888889,120.72274693066554L77.85913055555555,114.67289665350125L77.95283888888888,120.41782054787166L78.15899722222223,120.98520120552354L79.25850833333332,121.12371061665519L79.29599166666667,114.59218027128402L79.71455555555556,112.72148555954469L79.88947777777777,111.58111681485283L79.95195,114.08392221179072L80.17060277777777,111.94000732449568L80.58916666666667,111.03186402528212L80.78907777777778,104.74689668779804L81.15766388888889,110.66969861486697L81.37631666666667,106.9601368588158L81.52000277777778,104.95380650531938L81.62620555555554,114.03058285338693L82.33838888888889,117.96380924953823L82.55704166666668,109.60737021311402L82.594525,118.67091615405249L83.02558333333333,117.36990902546984L83.30046111111112,117.23898355081047L83.48163055555555,118.5668052954338L83.51286666666667,114.06331070678604L83.56909166666667,117.104570038421L84.13134166666667,115.0407394023556L84.15008333333334,116.71807889531962L84.32500555555555,124.06250544304203L84.38747777777778,114.82483463713261L84.74981666666666,106.5334534289165L84.96846944444444,102.2733507228925L85.17462777777779,105.0478017182967L85.180875,106.5095489699734L85.55570833333334,100.10189144367533L86.3303638888889,113.99357212397194L86.34910555555555,124.56395298011742L86.69895,127.26651670079015L86.86137777777779,116.34131874049056L86.88011944444445,126.60162702920644L87.01131111111111,122.66123826815254L87.05504166666667,126.42336909957868L87.41738055555555,124.38113378160085L87.4548638888889,127.06065962000423L87.80470833333334,122.40941835691771L88.87298333333332,114.35075215131187L88.91671388888889,115.48431606549109L89.08538888888889,111.05772042428306L89.43523333333333,110.9156560716322L89.63514444444444,110.52423893793174L90.03496666666666,111.85285129656643L90.05370833333335,111.06482302731425L90.17865277777777,107.35473599664061L90.38481111111112,112.17754180092625L90.87834166666666,119.85896880423435L90.92207222222223,125.25555717823153L91.00328611111111,124.7367908041313L91.140725,130.1438117719075L91.37811944444445,133.40206854202634L91.56553611111111,124.61228083049231L91.70922222222222,128.10528246924267L91.82167222222222,117.96672919490925L92.25897777777779,111.41553916870947L92.72751944444444,109.48750631296274L93.12734166666667,117.97736519028922L93.53341111111112,124.07018193155633L94.07067222222221,133.51155474990674L94.2331,135.23826618200582L94.75786666666667,122.9272743702295L95.43256666666667,125.66507975580468L95.47629722222221,128.88288129044878L96.18223333333334,119.85664683266464L96.200975,121.63424884369363L96.33216666666667,119.51336984569069L96.70075277777778,133.00456028899094L96.763225,129.74948479247416L96.78821388888888,133.51405352540212L96.96938333333333,128.45801710478904L97.17554166666667,125.71485846157336L97.50039722222222,126.932104240152L97.6066,118.56138650077148L97.69406111111111,120.48631422697042L97.79401666666666,123.77776006328189L97.90021944444445,117.95032072226479L98.15010833333334,115.90660360431838L98.43748055555555,114.2768138872157L98.44372777777777,119.00349738040987L98.58116666666668,127.45901474141733L98.79981944444445,126.74143489351069L98.86229166666668,119.66331804365034L98.96224722222223,113.30630846840212L99.01847222222221,115.01216969980044L99.10593333333333,114.2589951926067L99.34332777777779,107.42829391083684L99.36206944444444,115.59476338339785L99.574475,103.5785792309817L99.59946388888889,110.10974083654742L99.74315,111.11326412625704L99.78063333333333,106.03337250392195L99.79312777777778,113.2388183536563L100.04301666666666,119.88381657257283L100.0805,132.60010637077457L100.16171388888888,141.48520628233416L100.19295,135.19238689195907L100.59277222222222,135.95857262284636L100.71146944444443,127.50213964266229L100.76769444444444,129.63927905728013L101.04881944444445,130.5062547550773L101.19250555555554,125.68656757510755L101.205,123.89596657655866L101.21124722222223,115.65239330233473L101.57983333333334,123.77440982402169L102.57314166666667,109.0212532171059L102.90424444444444,115.67258300593184L103.02918888888888,107.05689780122451L103.22285277777777,106.05303209427841L103.27907777777779,109.5500883472195L103.38528055555555,113.59937567068522L103.49148333333332,110.96790833087792L103.68514722222223,119.78761925466081L104.00375555555556,119.14120971540939L104.14744166666667,111.95635609734259L104.23490277777778,116.13867593829752L104.69719722222221,123.66980241432739L105.40938055555556,126.98333661255212L106.00911388888888,124.34352534590349L106.04034999999999,108.02930945383417L106.26525,112.88037886039562L106.4589138888889,120.75427419314471L107.06489444444443,117.84991571408324L107.22732222222223,113.01373029888757L107.25231111111111,115.82391074860746L107.35226666666668,113.00671253421697L107.61465,115.18133935105082L108.01447222222222,115.06559294206666L108.0332138888889,113.8229741963313L108.13316944444445,107.98605511144197L108.73290277777778,107.55520078155635L109.06400555555555,121.65842486270213L109.65749166666667,124.77693346528973L110.39466388888889,127.91199035757046L110.56958611111111,130.2744262225226L110.93817222222222,127.51520994226905L111.23179166666667,122.06313233209117L111.68159166666666,125.0559740628747L111.80028888888889,113.63443414246723L112.06891944444445,115.76259210512451L112.19386388888888,123.98135924104102L112.55620277777778,119.55951006748231L112.66240555555555,121.42653644286365L112.83108055555556,115.55398660303815L112.96227222222223,111.68293897033732L113.0372388888889,121.1272817881167L113.13094722222223,109.7795713967836L113.1559361111111,117.92323831956125L113.2621388888889,124.92970595980009L113.48703888888889,118.59128703489493L113.73692777777777,125.88627659448736L113.94308611111111,128.05317573528737L114.63028055555554,124.09699035633355L114.96138333333333,127.60211437790839L114.98637222222223,129.29482669025214L115.11131666666667,131.8354555558535L115.41743055555555,123.14899818130571L115.5986,123.48052738206528L115.86098333333334,118.30047814188566L116.17959166666667,120.1153590019832L116.32327777777779,114.81797088481721L116.69186388888889,110.13232809363448L116.71060555555556,116.35268132006314L117.116675,112.39515936920161L117.29784444444444,108.19184628337096L117.51025,117.2755748510925L117.72890277777779,116.70265244010498L117.87258888888888,110.43832785703783L117.97254444444444,119.0023108698013L118.42859166666668,126.65850143772855L118.54728888888889,131.10154458250102L118.68472777777778,130.97903338173327L119.197,125.26430323063911L120.07785833333332,127.23489050352325L120.490175,122.22849860837312L120.53390555555555,132.39534485250857L120.59013055555555,130.77158728069156L120.69633333333334,135.7199632383948L120.7713,127.66110976562294L120.80878333333334,128.13653533950685L121.17736944444445,116.78413723763964L121.48973055555555,114.16078707967483L121.78335,116.5190909516471L122.00825,115.96684018919808L122.15818333333333,113.26543992131913L122.176925,121.26211809021214L122.64546666666668,123.03566996873604L122.68295,120.1161549414467L122.87036666666667,132.5750134471221L122.92659166666667,134.61777611751336L122.95158055555555,141.67574759113177L122.98906388888888,132.42772035948866L123.56380833333333,138.16555401058457L123.57005555555556,138.65408764583748L123.62003333333332,140.90636381568243L123.64502222222222,131.3736261717184L123.75122499999999,135.4647614402594L124.15104722222223,138.29513310927283L124.26974444444446,129.43172896109897L124.48215,129.85978556277084L125.11311944444445,127.77257340789876L125.50669444444443,113.94982723260547L125.79406666666667,117.57211723723783L126.06894444444444,123.24098365067707L126.18764166666668,124.57984169339696L126.60620555555556,114.5494485188458L126.96854444444445,125.56122712903817L127.11223055555556,116.23432579883098L127.61825555555555,128.54217178850269L127.89938055555555,122.60063159483013L127.91187500000001,135.76012583266103L128.11178611111112,137.28604817682748L128.30544999999998,131.830173141326L128.67403611111112,125.72738538656563L129.5673888888889,116.51275500818447L129.71732222222224,121.4543588993809L129.77354722222222,129.7913081000961L129.81103055555556,130.08459762517913L130.09840277777778,118.27608380665961L130.11714444444445,122.31591476649396L130.23584166666666,126.22580505877946L131.060475,123.80537427824862L131.1479361111111,111.58927427626924L131.7851527777778,116.52181215105816L131.91634444444446,123.52688856016614L132.36614444444444,129.54655537540327L132.74722500000001,128.0574366470254L133.197025,129.55595926642877L133.33446388888888,133.3463528215913L133.44066666666666,139.4710178697126L133.72803888888888,137.21936306977375L133.94044444444444,134.82858532919948L134.3465138888889,132.78696913155596L134.68386388888888,130.9328129734557L134.84629166666667,128.22832937991387L134.87752777777777,126.55088038894993L135.32108055555554,126.21113863261617L135.54598055555556,123.25155183954286L135.85209444444445,123.86959978391677L136.23942222222223,122.39517060071202L136.24566944444445,128.16923129528746L136.458075,134.83650250893822L136.54553611111112,138.1922504452586L136.80791944444445,139.15013995335812L137.85120555555557,141.45427548507644L138.04486944444446,133.90347070944188L138.257275,132.2284990325682L138.63835555555556,140.12156504721122L138.7008277777778,130.91072272736238L138.931975,132.03871553110127L138.9819527777778,124.40254109959037L139.13813333333334,120.29986652529377L139.25058333333334,114.8475161885985L139.26307777777777,111.8812717065673L139.4067638888889,119.57459244403012L139.41301111111113,119.69128741069298L139.41925833333335,124.28111110951698L139.438,129.2436144806516L139.55669722222223,124.16187864169906L139.77535,119.60840398326773L139.9690138888889,118.25248095426119L140.10020555555556,117.47693253656122L140.21265555555556,115.81926530539926L140.27512777777778,115.12668256008587L140.83113055555557,116.3328991940258L140.91859166666666,119.7090144569062L141.0435361111111,125.5790863570203L141.0997611111111,133.6870299945253L141.14349166666668,134.90764973461498L141.1497388888889,138.32844573676505L141.33090833333335,142.4845049096341L141.39338055555558,138.31900020797224L141.51832499999998,141.9171797344635L141.94938333333334,143.09122178492248L142.25549722222223,134.5184723993379L142.46165555555555,133.64803748966685L142.69905000000003,140.27567845846073L143.39249166666667,136.58569700160538L143.54867222222222,134.96639177464792L143.5674138888889,133.34069038667292L143.62363888888888,132.68971227430112L143.79856111111113,132.08934876693968L144.0172138888889,138.78771158560326L144.09218055555556,126.67065611662993L144.33582222222222,129.476850247279L144.49200277777777,125.26575452321484L144.59820555555555,125.8373009862525L145.02301666666668,125.48396960389752L145.16045555555556,117.65461847956263L145.33537777777778,111.7556978856044L145.67272777777777,131.41586106267675L146.50360833333335,135.02015374926992L146.50985555555556,135.55296194331808L147.10334166666667,141.59625330315214L147.38446666666667,137.82392804352156L148.14038055555554,133.98932231263942L148.1841111111111,133.20150800702947L148.96501388888888,131.42703953360308L149.26488055555555,133.2963027225422L149.67095,136.53995116630122L149.78964722222221,122.61848495530441L149.82088333333334,120.06177894429776L149.96456944444446,125.12656629655605L150.10200833333334,120.79829917772918L150.23319999999998,124.29266848101803L150.6580111111111,140.47648984631653L150.98911388888888,144.36967770600768L151.35145277777775,135.49732287612227L151.62633055555557,130.19472306183977L151.65131944444443,139.80423787839416L151.8075,144.9876277471018L152.96323611111112,133.85593360092835L153.05694444444444,124.83714164630533L153.07568611111108,124.33150016150452L153.21312500000002,131.26478900719627L153.25060833333333,130.19265186195935L153.550475,124.34895982864717L153.64418333333333,129.3449905593587L153.93155555555555,123.01075150724606L154.01901666666666,124.26716284129833L154.0877361111111,119.69309654816281L154.1439611111111,123.01653997769529L154.43133333333333,124.8503385393058L154.5000527777778,116.75639999438734L154.5375361111111,119.35432802039033L154.90612222222222,127.61188468454867L155.07479722222223,133.890328299514L155.21848333333335,134.11503463954426L155.65578888888888,131.11721083385166L155.7932277777778,130.52905140913975L155.9993861111111,137.07771014808088L156.10558888888892,140.89415519498866L156.14931944444444,143.29592841782022L156.39920833333335,140.76554202269224L156.48042222222222,129.52339699286642L156.51165833333332,126.82505626212611L156.54914166666666,134.9450304480258L156.56788333333333,138.19070794891496L157.04267222222222,137.0801525563668L157.04891944444446,136.896647413413L157.0614138888889,133.98499861230863L157.32379722222223,129.6001324395562L157.3425388888889,130.81821528793722L157.53620277777776,132.65031006646961L157.7048777777778,124.58935408301838L157.72361944444444,116.06100703065209L157.75485555555554,126.80469950189958L158.1047,130.53530552953941L158.19840833333333,127.68834748131314L158.25463333333332,116.05405351556705L158.26712777777777,123.8855140795551L158.5732416666667,123.48484732331289L158.92933333333335,128.82740081799898L159.21045833333335,126.79255968483017L159.46659444444444,129.63970977635216L159.54780833333334,135.5432709894838L159.55405555555558,137.6730129553236L159.69149444444446,142.08436662634358L159.72273055555556,135.77075807738393L159.79145,138.41992104821256L160.48489166666667,144.6263617132476L160.61608333333334,137.90696177091425L161.04089444444446,134.73869341615577L161.04714166666665,135.1182673859819L161.06588333333332,139.40253747512247L161.07213055555556,127.60724412089198L161.3719972222222,130.19997362783914L161.52193055555557,122.630610235282L161.7280888888889,123.7462347839762L161.88426944444447,125.80323282328182L162.3465638888889,120.39527275709469L162.59645277777778,124.75312118141747L162.64643055555555,125.74962564235267L162.8463416666667,123.86631503537501L162.92755555555556,120.13466789505011L163.3273777777778,119.07242907870489L163.7334472222222,115.32451726549078L163.87713333333332,130.56591757746463L164.40189999999998,139.5610571707006L164.42064166666665,151.23630717305636L164.45187777777778,154.63074164216692L164.87044166666666,144.29025984659776L164.98289166666666,146.4610340932309L165.45143333333334,140.6813109886229L165.695075,138.23920091698048L165.70132222222222,129.43818376964023L166.68213611111113,129.80267087999397L166.94451944444444,123.21069930305134L166.95076666666665,130.2485718912485L167.3568361111111,126.98483938375728L167.39431944444445,130.72307166576155L167.5192638888889,131.61416495990613L167.5567472222222,137.60000048847115L167.68793888888888,132.8611368153758L167.72542222222225,133.3559553321759L168.10025555555555,129.62161546805856L168.46884166666666,135.63727318441485L168.6687527777778,134.89210820195447L168.71248333333332,131.17505095480305L170.0493888888889,135.932163780203L170.20556944444445,143.56657054023182L170.28678333333335,144.74501814124727L170.45545833333333,145.60733238743387L170.49918888888888,144.91153591088442L170.56790833333335,144.6253425002813L170.59914444444445,137.99875155691623L170.64912222222222,132.8433467173834L170.73658333333333,127.1539628091013L170.91150555555555,126.2221281088922L171.3425638888889,123.31949601397116L171.36130555555553,125.61280225888018L171.6236888888889,128.5725975273557L171.84234166666664,135.2486308049266L172.0734888888889,128.53133488363653L172.64198611111112,121.33635581413884L172.7419416666667,118.69158063936223L173.41039444444445,131.2036469424247L173.454125,136.77662878778455L173.52909166666666,150.041405501049L173.84769999999997,152.1865763366707L173.91641944444444,148.7987783539586L173.9226666666667,146.9058915774997L174.48491666666666,141.49610078817466L174.50365833333333,136.89315586856517L175.422,134.10103861314963L175.4469888888889,138.0186557091648L175.4532361111111,141.94185446485127L175.55943888888888,132.79221527328642L175.6531472222222,129.1459763845834L175.71561944444443,122.11400049215753L175.7843388888889,127.12994140437962L175.815575,130.73148035318684L175.84681111111112,135.5294956929149L175.8718,139.49164024869572L175.90928333333335,125.6535767357348L176.05921666666666,120.14186092143049L176.12168888888888,121.05792088940612L176.28411666666668,122.48674507400318L176.56524166666668,120.57573065913274L176.70892777777777,123.42900675866935L177.02753611111112,117.42023834665973L177.17746944444445,126.19384154010035L177.29616666666666,119.88754099087843L177.38362777777778,124.3392936127003L177.58978611111112,131.53327471116876L178.29572222222222,127.26147271930988L178.6018361111111,124.35838541114221L179.1078611111111,132.27123807384905L179.17658055555555,125.24760634490454L179.301525,125.74930407755735L179.67635833333333,136.12616776796082L179.75757222222222,133.92078425986705L179.98871944444443,135.18226737560713L180.11366388888888,133.64153966654467L180.18238333333335,136.2152034172364L180.71964444444444,133.68048459344791L180.78211666666667,125.16937743934209L181.662975,119.28759036131032L181.89412222222225,124.88212660829623L181.90661666666668,121.65298438477754L182.08778611111111,118.1880837274089L182.33142777777778,128.68649146988955L182.63129444444445,136.79597055217604L182.93116111111112,134.25152502120127L182.94365555555555,134.0504975227153L182.99363333333335,137.91270005629275L183.18105,135.0223449750293L183.3247361111111,130.82433883926564L183.41219722222223,140.27656086314497L183.7682888888889,143.61162965791692L184.3680222222222,141.8424475079612L184.6491472222222,141.13064191137767L184.67413611111112,137.6367599618138L185.04896944444442,138.65050135443818L185.33634166666667,130.15348629468807L185.52375833333335,128.8452081269868L185.66119722222223,128.50902228753853L185.711175,128.2864301800793L186.4733361111111,121.70450727224741L186.6607527777778,123.17634313631294L186.79819166666667,136.2165305502906L187.00435000000002,144.08372928903668L187.18551944444445,147.94000172022686L187.46664444444446,149.23193223597826L187.71028611111112,146.5534859426154L188.24754722222224,140.29606969400245L188.70359444444443,148.7439696552992L188.85977499999998,141.20953504101277L188.94098888888888,131.52559216413403L188.9972138888889,137.8827357554049L189.49074444444443,139.402105137325L189.85933055555557,139.25071497715516L190.5715138888889,127.46427827332617L190.6652222222222,123.90079656871676L190.99007777777777,121.40214998979877L191.15875277777778,121.3295191541881L191.54608055555556,128.11621065709417L191.7022611111111,136.67531032904043L192.25826388888888,142.32339992728265L192.48941111111114,138.95249158982298L192.7080638888889,140.30142137792026L192.9142222222222,133.40953317991685L193.17035833333335,131.05311711139555L193.84505833333333,130.30837519351883L193.9450138888889,129.90209276785998L194.07620555555553,122.22963073319524L194.13243055555557,125.52732672254045L194.2323861111111,123.88166567540051L194.6259611111111,127.34442029986312L194.63220833333335,130.14020042057948L194.71966944444443,128.9482397153146L195.4068638888889,125.56590797866386L195.48807777777776,122.89288162687424L195.55679722222223,126.809293152684L196.18151944444446,134.2284003792966L196.60008333333334,140.49252731673505L196.86246666666668,143.5933572999989L197.84952777777775,141.91544538929193L198.37429444444444,138.86399423476536L198.3867888888889,133.24366531489179L198.63667777777778,124.86582006524733L198.642925,119.18773766941267L198.64917222222223,125.43002286783721L198.7491277777778,128.0182000400535L198.83034166666667,125.47993436347916L198.8428361111111,120.32461921984839L199.46131111111112,114.49280475029283L200.39839444444442,107.7701188281115L200.7982166666667,120.95118937700607L200.8357,122.158111611662L200.87318333333334,126.77546787718397L200.89817222222223,132.1501334980694L200.90441944444444,136.79023099872873L201.37296111111112,134.2053072794283L201.62285,139.3179158225062L201.9664472222222,132.84658982362762L202.64739444444444,131.17743362669L202.71611388888888,136.60665103485496L202.76609166666665,126.20950728351062L203.06595833333336,134.95210897024978L203.21589166666666,127.91392474112814L203.46578055555557,129.65381918870156L203.48452222222224,136.99882831169813L203.6781861111111,127.94684983964952L203.74065833333333,129.80734008834474L203.78438888888888,133.03873643330166L203.89683888888888,131.8667947164263L204.25293055555554,120.44037619776046L204.377875,111.69902513233728L204.39661666666666,123.08804613714162L204.52780833333335,123.7405721376225L205.06506944444445,139.93680580317283L205.63356666666667,146.7132673541266L205.64606111111112,145.2354958986973L205.84597222222223,140.70596946571678L205.9584222222222,143.20107017811782L207.7263861111111,148.56494159493832L207.88881388888888,142.0410954939961L208.1636916666667,136.30788805887934L208.50728888888887,130.37188744310046L208.89461666666665,124.5630142007083L208.97583055555555,121.97228993140521L209.55057499999998,120.44780055262365L209.73174444444444,131.03032691703865L209.9753861111111,138.20142781869546L210.38145555555556,142.62061124405847L211.72460833333332,142.0013612399196L212.21813888888892,131.99859475908846L212.38056666666665,131.07571552168233L212.51800555555556,135.65984031421482L212.6367027777778,139.24680534400068L212.76164722222222,129.20956475852444L212.79288333333335,125.84466126035758L212.8928388888889,127.25944752258724L212.96780555555554,122.59821996428172L213.0677611111111,124.87054962001798L213.23643611111112,128.23822373677822L213.66124722222224,126.28482055264433L213.9673611111111,132.9742078089578L214.048575,134.3386283268847L214.0985527777778,132.66952634038438L214.69203888888887,127.22260654557888L215.14183888888888,129.27451010578363L215.34799722222223,130.83724365731172L215.39172777777776,124.59435304939802L215.4479527777778,123.88784373843704L215.7603138888889,129.78998461868784L215.77905555555554,135.68046367351067L215.91024722222224,141.21054521193417L215.9852138888889,134.83704841011948L216.1039111111111,134.28018246098867L216.22260833333334,130.19820551159688L217.07223055555556,125.97087641288466L217.57825555555553,118.51383891421337L217.58450277777777,123.31679103087055L217.79690833333333,127.75220919913451L217.91560555555557,126.24687656203744L218.20297777777776,118.7990256144991L218.65277777777777,118.39229300465527L218.68401388888887,117.47788815287558L218.84644166666666,126.15016713969595L219.13381388888888,130.0074445488017L219.2275222222222,141.5031407691217L219.5086472222222,133.85416267497402L219.73979444444444,129.74289438118376L220.008425,130.44600149267814L220.13336944444444,137.09459009810624L220.17085277777778,136.25179936793052L220.25206666666665,131.23572039071684L220.42698888888887,123.32795937218644L220.69561944444445,128.49550430869087L220.94550833333335,130.16072186049837L221.36407222222223,128.75170434127457L221.52025277777778,131.85392642861729L221.56398333333334,124.22944782761411L221.58897222222222,120.68494078748034L222.20744722222224,112.82554866094952L222.22618888888888,113.0970607639525L222.47607777777776,116.4215648961767L222.67598888888887,119.53349783853918L223.06331666666665,114.57648129246371L223.1507777777778,115.11807889808262L223.25698055555554,115.25636958997873L223.2632277777778,118.03480713797465L223.52561111111112,133.28044866343055L224.1440861111111,137.4026808000786L224.31276111111112,137.8727650008907L225.22485555555554,132.2769846345371L225.55595833333334,126.26698765190756L226.23065833333334,128.90627339978403L226.29937777777778,129.32319808184735L227.06778611111113,124.73205745804091L227.43637222222222,122.77328363292084L227.66751944444445,121.72115075607695L227.79871111111112,131.65181046020749L228.02985833333335,141.26425286586144L228.2547583333333,146.02116122993863L228.26100555555556,152.3118620154443L228.4171861111111,151.85617093546287L228.8045138888889,147.3474288052505L228.8419972222222,149.58978942311916L228.93570555555556,143.02449536369514L229.24806666666666,134.07919838932915L229.41049444444445,138.1003498536811L229.51669722222223,134.25466632738505L229.66038333333333,126.11690886434792L229.94775555555555,134.78327644119784L230.353825,128.7471715036042L230.39755555555556,136.05888471025273L230.44753333333333,137.9595087398174L230.7474,138.15222953016058L230.80362499999998,138.50033385190068L231.1722111111111,133.0296722139877L231.253425,131.02873155867826L232.15927222222223,121.30083748218877L232.23423888888888,118.63292256186882L232.44039722222223,124.12450616354039L232.45289166666666,138.2032247399944L232.70278055555556,140.17602546785224L233.10885000000002,142.48999307497706L233.57114444444446,132.96079718318208L233.8647638888889,135.11338515309467L234.0896638888889,133.58660502450454L234.27083333333334,135.4135933400201L234.45200277777778,126.73562127119347L234.53321666666668,130.83217670062805L234.55195833333335,137.30434273683807L234.964275,137.320384048246L234.98301666666666,137.65254411150377L235.25164722222223,132.27503093391277L235.4952888888889,129.7886281794883L235.55776111111112,138.9992269317256L235.5765027777778,137.86096840619723L235.90760555555556,127.49083105516243L236.61354166666666,129.86460283155327L236.7322388888889,116.48671221467902L236.77596944444446,120.09986789544254L236.78221666666667,117.05612633418934L236.8259472222222,115.87418390865268L237.23201666666665,130.56134094211544L237.40693888888887,141.8356305254286L237.48190555555556,143.1998589499465L237.56311944444445,147.50089922807643L237.60684999999998,147.50822107828876L238.112875,148.78194221041932L238.31903333333332,143.8227541266819L238.34402222222224,133.71364547603966L238.51269722222222,133.48930553551702L238.52519166666667,128.66420393440836L238.94375555555555,131.86327463420457L239.08744166666668,127.27515112657684L239.52474722222223,130.148629141446L239.58721944444446,135.4771099094129L239.6934222222222,132.37558196089128L239.73715277777777,128.12012245000278L239.75589444444444,125.92509173477217L239.84335555555555,128.0908972497256L239.91207500000002,126.32495768996904L240.7616972222222,122.0510807331373L240.99284444444444,123.29857883310142L241.33644166666667,123.76283477697268L241.3801722222222,122.91009681077898L241.78624166666665,133.22757066161688L241.9424222222222,143.83014174503836L241.99864722222225,150.4609462797806L242.0736138888889,139.6973091638187L242.1923111111111,144.92600252366657L242.2985138888889,144.37436532340408L242.39222222222222,143.31602227784373L242.6358638888889,144.5680356079172L242.71083055555556,139.12713178001826L242.8670111111111,136.86705286981453L243.0544277777778,135.782115772258L243.09815833333334,136.3893238323276L243.46049722222222,139.92514567955405L243.52921666666666,138.78254634251635L243.74786944444443,135.75294906443625L243.86656666666667,139.5982568940298L243.9102972222222,143.19148084883548L244.19766944444444,138.37855168679152L244.522525,132.18867102443457L244.54126666666667,135.9094022988038L244.75991944444445,125.39376824848395L245.18473055555555,120.08166874976484L245.3409111111111,124.17297903496939L245.55331666666666,122.9331980979378L245.57205833333336,122.27155218815415L245.8969138888889,128.47863373217348L245.9031611111111,135.53262156163075L245.9531388888889,134.4181955260898L246.0343527777778,134.64711046712787L246.37795,135.4058050948214L246.546625,139.83534180628249L246.92145833333333,146.43534546081418L246.92770555555555,151.4325076686394L247.09013333333334,138.3209043280513L247.1651,139.01347911454624L247.25880833333332,143.6162264877402L247.38375277777777,148.00143891655466L247.43997777777776,149.8145767383758L247.4962027777778,146.4237893589129L247.68361944444445,135.8895439057225L247.98973333333333,136.23487197331633L248.33333055555556,134.8087397084954L248.53324166666667,127.63585058130758L248.67068055555555,128.69252426670752L249.12672777777777,121.3236614945338L249.6140111111111,130.11371453778776L250.07630555555556,124.49559968100093L250.38241944444445,132.41222475878064L250.60731944444444,131.5781406146983L250.9946472222222,132.0316146887958L251.31325555555554,139.6669562552941L251.4756833333333,141.67269823399621L251.49442499999998,139.7463485374894L251.9692138888889,145.9052572998313L252.10040555555554,147.84983060556104L252.15038333333334,139.89552342055708L252.23159722222223,135.57338285421417L252.24409166666666,129.25323989853314L252.281575,123.85891804495486L252.68139722222222,126.01563128351589L252.89380277777778,126.32074235272063L252.9062972222222,129.0858636092642L252.91254444444445,130.63999318310613L253.44980555555554,138.11618545072673L253.4685472222222,139.37839641104577L253.63722222222222,127.66493007380029L254.70549722222222,119.45567823432842L254.74922777777778,123.2386049138484L254.980375,117.66404811066258L255.16154444444444,114.54175913525741L255.19278055555554,113.8649439394064L255.45516388888888,135.9593596493952L255.84249166666666,142.2948232004495L255.94869444444444,137.61040625509335L255.95494166666666,139.84189862213557L256.3672583333333,141.0452557981135L256.4172361111111,140.53601500154267L256.4922027777778,145.8510749909921L256.72335,141.3233268412139L256.72959722222225,146.1134322543255L256.7483388888889,142.87784264918037L257.16065555555554,136.57856170675677L257.4855111111111,138.7888399430604L257.57921944444445,135.6772877781684L257.6729277777778,127.24407334858745L257.77288333333337,137.13732405027488L257.8540972222222,133.5015010376021L258.07275,128.61620535965235L258.1914472222222,130.77110921928568L258.2351777777778,138.2661732220011L259.69078055555553,135.25529259820922L259.79073611111113,131.45905537116613" style="fill: none;" fill="none"></path></g></g></g></g><g opacity="0.2"><g><g><g><path stroke="rgb(255, 112, 67)" stroke-width="2px" d="M39.888513888888895,-50.076042938232405L39.93224444444444,15.015567970275896L40.20712222222222,3.4366654872894458L40.39453888888889,47.66621954441072L40.75063055555556,30.032785964012163L40.9318,23.044831109046953L41.031755555555556,37.83788223266603L41.13171111111111,6.87052888870241L41.48155555555555,15.77242655754091L41.80016388888889,34.635001015663164L41.912613888888885,33.3013094186783L41.96883888888889,31.587120723724382L42.06879444444444,61.0484162092209L42.087536111111106,58.3841769218445L42.362413888888895,70.36516184806825L42.755988888888886,31.517321777343767L42.89342777777778,67.39680762290956L42.912169444444444,59.42052669525148L42.96214722222222,40.99674875736238L43.21203611111111,41.76065475940706L43.318238888888885,37.43812079429628L43.39945277777778,44.078325819969194L43.95545555555555,65.01819963455202L44.33028888888889,52.2501197576523L44.89878611111111,8.99745554924013L44.973752777777776,82.08591992855074L45.17366388888889,56.50177867412569L45.21114722222222,70.8336250305176L45.33609166666667,84.95229763984682L45.36732777777778,86.43280334472658L45.64845277777778,78.61808545589449L45.723419444444446,71.16582412719728L45.94207222222222,73.2453178882599L46.160725000000006,69.26443583965303L46.16697222222222,57.24728543758394L46.454344444444445,70.73302001953127L46.560547222222226,63.601120662689226L46.57304166666666,61.74619467258455L46.604277777777774,93.80986411571504L46.76045833333333,69.5417115211487L46.76670555555556,102.98884756565096L46.84167222222222,55.812376928329485L46.872908333333335,68.80662817955019L47.05407777777777,56.28548212051393L47.14778611111111,78.95174045562746L47.185269444444444,70.92108471393587L48.009902777777775,50.72764606475832L48.3535,73.19649238586427L48.659613888888885,65.52622539997103L49.328066666666665,37.53657360076906L49.77161944444445,101.20829923152925L50.04649722222222,65.20035631656648L50.21517222222222,79.08357353210451L50.23391388888889,83.20840008258821L50.59625277777777,63.82543523311617L50.983580555555555,84.8995475292206L51.20223333333333,84.28454453945162L51.41463888888889,86.77485616207125L51.5021,79.85066564083101L51.51459444444444,92.36991269588472L51.52084166666666,85.63017876148226L51.883180555555555,73.26614363193514L52.976444444444446,77.34092087745668L53.726111111111116,71.3589950323105L53.83856111111111,61.223061275482195L53.851055555555554,78.08898074626924L54.16341666666667,104.96782071590425L54.51326111111111,81.61621184349062L54.606969444444445,93.99149329662325L54.931824999999996,88.79615600109102L55.06301666666666,78.37807245254518L55.10674722222222,82.33555455207826L55.7752,101.3293501853943L55.95012222222222,94.91974754333498L56.12504444444445,84.03440351486208L56.4499,78.9123044729233L56.837227777777784,96.63699574470522L57.44945555555556,84.17311520576479L57.643119444444444,97.1377841949463L57.67435555555556,67.7011124610901L58.124155555555554,60.8062721014023L58.20536944444444,74.24157757759096L58.217863888888886,100.71582419872286L58.723888888888894,118.41890902519228L59.298633333333335,98.30706424713136L59.40483611111111,65.28296298980715L59.53602777777778,72.97025771141054L60.14825555555556,120.63200826644899L60.373155555555556,86.1614989757538L60.39814444444445,99.83728165626528L60.448122222222224,82.2741745233536L60.91041666666667,111.32216234207155L61.14781111111111,84.40603859424593L61.23527222222222,98.64365215301515L61.47266666666667,67.24798901081087L61.54763333333334,95.87650794982912L61.81001666666666,124.48926515579225L62.23482777777778,82.09828455448152L62.29105277777778,96.36265296936037L62.30979444444445,76.26526172161104L62.78458333333333,116.54665989875795L62.79707777777778,69.91503460407259L63.13442777777777,103.39827282428743L63.30935,104.45743174552919L63.96530833333333,91.79565389156343L64.52755833333333,99.12787706851961L64.62751388888888,115.38790876865389L64.714975,63.18477458953859L65.09605555555555,100.04617209434511L65.70203611111111,90.16354436874391L65.90194722222222,91.91214723587038L66.62037777777778,42.9269597053528L66.71408611111111,98.12788267135622L66.98896388888889,104.21594173908235L67.51997777777777,89.42879862785341L67.62618055555555,90.23384971618654L67.64492222222222,92.89199109077455L67.86982222222223,116.11066968441011L67.91355277777778,135.47702879905702L68.13845277777777,120.04924614429476L68.26964444444444,100.10603291988375L68.65697222222222,121.51894862651827L68.78191666666667,105.28919548988344L69.47535833333333,100.38176829814913L69.53783055555556,107.14142067432405L69.96888888888888,82.41140921115877L70.05010277777778,97.39174432754518L70.08758611111111,104.3496949195862L70.16879999999999,92.98903019428255L70.52489166666668,104.08974237442018L70.66857777777777,99.24544651508333L70.69981388888888,87.87307126522066L71.06840000000001,84.93024809360506L71.21833333333333,96.91167612075807L71.81806666666667,104.92576832771303L71.968,114.950146150589L72.30534999999999,76.27114863395693L72.48651944444444,129.74338717460634L72.82386944444445,128.02099056243898L73.0675111111111,143.70307095050813L73.08625277777777,96.19442231655123L73.16121944444444,124.41841120719911L73.35488333333333,119.55012459754946L74.00459444444445,102.07629175186159L74.05457222222222,132.91056711673738L74.14828055555556,122.73099846839906L74.7542611111111,125.72195084095003L74.91668888888888,124.3375769376755L75.05412777777778,124.92730207443239L75.62887222222223,96.75635869503023L75.67885,79.94555253982546L75.93498611111112,85.93152959346773L76.31606666666667,102.14241929054262L76.50973055555555,93.20049483776094L76.90955277777778,93.43683643341066L77.084475,128.66544921398165L77.09072222222221,125.00035042762758L77.20941944444445,115.60279161930086L77.35310555555556,132.3535259485245L77.47180277777777,133.69561536312105L77.77791666666667,128.82426924705507L77.8403888888889,110.45237631797792L77.85913055555555,105.59812123775484L77.95283888888888,129.0352063894272L78.15899722222223,121.83627219200136L79.25850833333332,121.33147473335268L79.29599166666667,104.79488475322725L79.71455555555556,109.91544349193575L79.88947777777777,109.87056369781496L79.95195,117.83813030719759L80.17060277777777,108.72413499355318L80.58916666666667,109.66964907646181L80.78907777777778,95.31944568157198L81.15766388888889,119.5539015054703L81.37631666666667,101.39579422473909L81.52000277777778,101.94431097507479L81.62620555555554,127.6457473754883L82.33838888888889,123.86364884376528L82.55704166666668,97.0727116584778L82.594525,132.26623506546022L83.02558333333333,115.41839833259584L83.30046111111112,117.04259533882143L83.48163055555555,120.55853791236879L83.51286666666667,107.30806882381441L83.56909166666667,121.66645903587343L84.13134166666667,111.94499344825746L84.15008333333334,119.23408813476564L84.32500555555555,135.07914526462557L84.38747777777778,100.96832842826845L84.74981666666666,94.09638161659242L84.96846944444444,95.88319666385652L85.17462777777779,109.20947821140291L85.180875,108.70216984748842L85.55570833333334,90.49040515422823L86.3303638888889,134.83109314441683L86.34910555555555,140.41952426433565L86.69895,131.32036228179933L86.86137777777779,99.95352180004122L86.88011944444445,141.9920894622803L87.01131111111111,116.75065512657167L87.05504166666667,132.06656534671785L87.41738055555555,121.31778080463411L87.4548638888889,131.07994837760927L87.80470833333334,115.43255646228792L88.87298333333332,102.26275284290315L88.91671388888889,117.18466193675997L89.08538888888889,104.41782696247103L89.43523333333333,110.70255954265596L89.63514444444444,109.937113237381L90.03496666666666,113.84576983451845L90.05370833333335,109.88278062343599L90.17865277777777,101.7896054506302L90.38481111111112,119.41175050735475L90.87834166666666,131.3811093091965L90.92207222222223,133.3504397392273L91.00328611111111,123.95864124298097L91.140725,138.2543432235718L91.37811944444445,138.2894536972046L91.56553611111111,111.42759926319124L91.70922222222222,133.34478492736818L91.82167222222222,102.75889928340914L92.25897777777779,101.5887541294098L92.72751944444444,106.59545702934267L93.12734166666667,130.712153506279L93.53341111111112,133.20940704345705L94.07067222222221,147.67361397743227L94.2331,137.82833333015444L94.75786666666667,104.46078665256502L95.43256666666667,129.7717878341675L95.47629722222221,133.70958359241487L96.18223333333334,106.31729514598848L96.200975,124.30065186023714L96.33216666666667,116.33205134868624L96.70075277777778,153.24134595394136L96.763225,124.86687154769899L96.78821388888888,139.16090662479402L96.96938333333333,120.87396247386934L97.17554166666667,121.6001204967499L97.50039722222222,128.75797290802004L97.6066,106.00530989170076L97.69406111111111,123.37370581626894L97.79401666666666,128.71492881774904L97.90021944444445,109.20916171073915L98.15010833333334,112.8410279273987L98.43748055555555,111.8321293115616L98.44372777777777,126.09352262020113L98.58116666666668,140.14229078292848L98.79981944444445,125.66506512165071L98.86229166666668,109.04614276885988L98.96224722222223,103.7707941055298L99.01847222222221,117.5709615468979L99.10593333333333,113.12923343181612L99.34332777777779,97.18224198818208L99.36206944444444,127.8444675922394L99.574475,85.5543030023575L99.59946388888889,119.90648324489595L99.74315,112.61854906082155L99.78063333333333,98.41353507041933L99.79312777777778,124.04698712825777L100.04301666666666,129.8513139009476L100.0805,151.6745410680771L100.16171388888888,154.81285614967348L100.19295,125.7531578063965L100.59277222222222,137.10785121917726L100.71146944444443,114.81749017238619L100.76769444444444,132.84498817920687L101.04881944444445,131.8067183017731L101.19250555555554,118.45703680515291L101.205,121.21006507873537L101.21124722222223,103.28703339099886L101.57983333333334,135.95743460655214L102.57314166666667,86.8915183067322L102.90424444444444,125.64957768917085L103.02918888888888,94.13336999416353L103.22285277777777,104.54723353385927L103.27907777777779,114.79567272663118L103.38528055555555,119.6733066558838L103.49148333333332,107.02070732116701L103.68514722222223,133.0171856403351L104.00375555555556,118.1715954065323L104.14744166666667,101.17907567024233L104.23490277777778,122.41215569972994L104.69719722222221,134.9664921283722L105.40938055555556,131.95363790988924L106.00911388888888,120.3838084459305L106.04034999999999,83.5579856157303L106.26525,120.15698297023775L106.4589138888889,132.5651171922684L107.06489444444443,113.49337799549104L107.22732222222223,105.75945217609407L107.25231111111111,120.03918142318727L107.35226666666668,108.78091521263124L107.61465,118.44327957630159L108.01447222222222,114.89197332859041L108.0332138888889,111.95904607772829L108.13316944444445,99.23067648410799L108.73290277777778,106.90891928672792L109.06400555555555,142.8132609844208L109.65749166666667,129.45469636917116L110.39466388888889,132.61457569599153L110.56958611111111,133.81808001995088L110.93817222222222,123.37638552188875L111.23179166666667,113.88501591682436L111.68159166666666,129.54523665905L111.80028888888889,96.5021242618561L112.06891944444445,118.95482904911043L112.19386388888888,136.3095099449158L112.55620277777778,112.92673630714418L112.66240555555555,124.22707600593569L112.83108055555556,106.74516184329988L112.96227222222223,105.87636752128603L113.0372388888889,135.29379601478578L113.13094722222223,92.75800580978395L113.1559361111111,130.13873870372774L113.2621388888889,135.4394074201584L113.48703888888889,109.08365864753725L113.73692777777777,136.82876093387605L113.94308611111111,131.30352444648744L114.63028055555554,118.16271228790285L114.96138333333333,132.8598004102707L114.98637222222223,131.83389515876772L115.11131666666667,135.6463988542557L115.41743055555555,110.11931211948396L115.5986,123.97782118320467L115.86098333333334,110.53040428161623L116.17959166666667,122.83768029212953L116.32327777777779,106.87188870906832L116.69186388888889,103.10386390686037L116.71060555555556,125.68321115970613L117.116675,106.45887644290926L117.29784444444444,101.88687665462496L117.51025,130.90116770267488L117.72890277777779,115.84326882362367L117.87258888888888,101.04184098243715L117.97254444444444,131.84828538894655L118.42859166666668,138.14278728961946L118.54728888888889,137.76610929965975L118.68472777777778,130.79526658058168L119.197,116.69220800399782L120.07785833333332,130.19077141284944L120.490175,114.7189107656479L120.53390555555555,147.64561421871187L120.59013055555555,128.33595092296602L120.69633333333334,143.14252717494966L120.7713,115.57282955646517L120.80878333333334,128.84967370033266L121.17736944444445,99.75554008483888L121.48973055555555,110.22576184272768L121.78335,120.05654675960542L122.00825,115.13846404552461L122.15818333333333,109.21333951950075L122.176925,133.25713534355165L122.64546666666668,125.69599778652193L122.68295,115.73688240051271L122.87036666666667,151.2633012056351L122.92659166666667,137.6819201231003L122.95158055555555,152.26270480155947L122.98906388888888,118.55567951202394L123.56380833333333,146.7723044872284L123.57005555555556,139.38688809871675L123.62003333333332,144.28477807044985L123.64502222222222,117.07451970577242L123.75122499999999,141.601464343071L124.15104722222223,142.540690612793L124.26974444444446,116.13662273883821L124.48215,130.50187046527864L125.11311944444445,124.64175517559053L125.50669444444443,93.21570796966554L125.79406666666667,123.00555224418642L126.06894444444444,131.7442832708359L126.18764166666668,126.58812875747682L126.60620555555556,99.50385875701906L126.96854444444445,142.0788950443268L127.11223055555556,102.24397380352022L127.61825555555555,147.00394077301027L127.89938055555555,113.6883213043213L127.91187500000001,155.49936718940737L128.11178611111112,139.5749316930771L128.30544999999998,123.64636058807375L128.67403611111112,116.57320375442507L129.5673888888889,102.69080944061281L129.71732222222224,128.86676473617555L129.77354722222222,142.29673190116884L129.81103055555556,130.52453191280367L130.09840277777778,100.56331307888033L130.11714444444445,128.37566120624544L130.23584166666666,132.09064049720766L131.060475,120.17472810745241L131.1479361111111,93.26512427330019L131.7851527777778,123.9206189632416L131.91634444444446,134.03450317382814L132.36614444444444,138.576055598259L132.74722500000001,125.82375855445864L133.197025,131.80374319553377L133.33446388888888,139.03194315433504L133.44066666666666,148.65801544189455L133.72803888888888,133.84188086986543L133.94044444444444,131.24241871833803L134.3465138888889,129.72454483509065L134.68386388888888,128.15157873630525L134.84629166666667,124.17160398960115L134.87752777777777,124.03470690250398L135.32108055555554,125.70152599811556L135.54598055555556,118.81217164993288L135.85209444444445,124.79667170047762L136.23942222222223,120.18352682590486L136.24566944444445,136.8303223371506L136.458075,144.83740932941438L136.54553611111112,143.2258723497391L136.80791944444445,140.58697421550752L137.85120555555557,144.91047878265383L138.04486944444446,122.57726354599001L138.257275,129.7160415172577L138.63835555555556,151.96116406917574L138.7008277777778,117.09445924758913L138.931975,133.7307047367096L138.9819527777778,112.94827945232393L139.13813333333334,114.1458546638489L139.25058333333334,106.66899068355562L139.26307777777777,107.43190498352052L139.4067638888889,131.11457355022432L139.41301111111113,119.86632986068727L139.41925833333335,131.165846657753L139.438,136.68736953735353L139.55669722222223,116.53927488327028L139.77535,112.77819199562074L139.9690138888889,116.21859641075136L140.10020555555556,116.31360991001131L140.21265555555556,113.33276445865633L140.27512777777778,114.0878084421158L140.83113055555557,118.14222414493562L140.91859166666666,124.77318735122682L141.0435361111111,134.38419420719148L141.0997611111111,145.8489454507828L141.14349166666668,136.73857934474947L141.1497388888889,143.45963973999025L141.33090833333335,148.7185936689377L141.39338055555558,132.07074315547945L141.51832499999998,147.31444902420046L141.94938333333334,144.85228486061098L142.25549722222223,121.65934832096102L142.46165555555555,132.34238512516023L142.69905000000003,150.21713991165163L143.39249166666667,131.05072481632234L143.54867222222222,132.53743393421175L143.5674138888889,130.9021383047104L143.62363888888888,131.71324510574343L143.79856111111113,131.18880350589754L144.0172138888889,148.83525581359865L144.09218055555556,108.49507291316988L144.33582222222222,133.68614144325258L144.49200277777777,118.94911093711855L144.59820555555555,126.69462068080904L145.02301666666668,124.95397253036501L145.16045555555556,105.91059179306032L145.33537777777778,102.90731699466707L145.67272777777777,160.90610582828523L146.50360833333335,140.42659277915956L146.50985555555556,136.35217423439028L147.10334166666667,150.66119034290315L147.38446666666667,132.16544015407564L148.14038055555554,128.23741371631624L148.1841111111111,132.01978654861452L148.96501388888888,128.76533682346346L149.26488055555555,136.10019750595094L149.67095,141.40542383193971L149.78964722222221,101.73628563880922L149.82088333333334,116.2267199277878L149.96456944444446,132.72374732494356L150.10200833333334,114.30589849948885L150.23319999999998,129.53422243595125L150.6580111111111,164.75222189426424L150.98911388888888,150.20945949554445L151.35145277777775,122.18879063129427L151.62633055555557,122.24082334041597L151.65131944444443,154.21851010322573L151.8075,152.7627125501633L152.96323611111112,117.15839238166811L153.05694444444444,111.30895371437074L153.07568611111108,123.5730379343033L153.21312500000002,141.66472227573396L153.25060833333333,128.58444614410402L153.550475,115.58342177867891L153.64418333333333,136.83903665542604L153.93155555555555,113.50939292907717L154.01901666666666,126.15177984237673L154.0877361111111,112.83199710845949L154.1439611111111,128.00170512199404L154.43133333333333,127.60103638172151L154.5000527777778,104.6154921770096L154.5375361111111,123.25122005939485L154.90612222222222,139.99821968078615L155.07479722222223,143.307993721962L155.21848333333335,134.45209414958956L155.65578888888888,126.62047512531282L155.7932277777778,129.64681227207186L155.9993861111111,146.90069825649263L156.10558888888892,146.61882276535036L156.14931944444444,146.89858825206758L156.39920833333335,136.96996243000032L156.48042222222222,112.66017944812776L156.51165833333332,122.77754516601564L156.54914166666666,147.12499172687532L156.56788333333333,143.05922420024874L157.04267222222222,135.41431946754457L157.04891944444446,136.62138969898226L157.0614138888889,129.61752541065218L157.32379722222223,123.02283318042757L157.3425388888889,132.64533956050875L157.53620277777776,135.3984522342682L157.7048777777778,112.49792010784151L157.72361944444444,103.26848645210268L157.75485555555554,142.92023820877077L158.1047,136.13121457099916L158.19840833333333,123.41791040897371L158.25463333333332,98.60261256694795L158.26712777777777,135.63270492553713L158.5732416666667,122.8838471889496L158.92933333333335,136.8412310600281L159.21045833333335,123.74029798507692L159.46659444444444,133.91043491363527L159.54780833333334,144.39861280918123L159.55405555555558,140.86762590408327L159.69149444444446,148.70139713287355L159.72273055555556,126.30034525394441L159.79145,142.39366550445558L160.48489166666667,153.9360227108002L160.61608333333334,127.82786185741426L161.04089444444446,129.98629088401796L161.04714166666665,135.68762834072115L161.06588333333332,145.82894260883333L161.07213055555556,109.91430408954622L161.3719972222222,134.0890678882599L161.52193055555557,111.27656514644625L161.7280888888889,125.41967160701753L161.88426944444447,128.8887298822403L162.3465638888889,112.28333265781404L162.59645277777778,131.28989381790163L162.64643055555555,127.24438233375551L162.8463416666667,121.04134912490846L162.92755555555556,114.5371971845627L163.3273777777778,117.47907085418703L163.7334472222222,109.70264954566957L163.87713333333332,153.42801804542543L164.40189999999998,153.05376656055452L164.42064166666665,168.74918217658998L164.45187777777778,159.72239334583284L164.87044166666666,128.77953715324404L164.98289166666666,149.71719546318056L165.45143333333334,132.01172633171083L165.695075,134.57603580951692L165.70132222222222,116.23665804862978L166.68213611111113,130.34940154552461L166.94451944444444,113.32274193763735L166.95076666666665,140.80538077354433L167.3568361111111,122.08924062252046L167.39431944444445,136.33042008876802L167.5192638888889,132.95080490112306L167.5567472222222,146.57875378131868L167.68793888888888,125.75284130573274L167.72542222222225,134.09818310737612L168.10025555555555,124.02010567188265L168.46884166666666,144.6607597589493L168.6687527777778,133.77436072826387L168.71248333333332,125.59946508407594L170.0493888888889,143.06783301830293L170.20556944444445,155.01818068027498L170.28678333333335,146.5126895427704L170.45545833333333,146.90080375671388L170.49918888888888,143.8678411960602L170.56790833333335,144.19605238437654L170.59914444444445,128.0588651418686L170.64912222222222,125.11023945808412L170.73658333333333,118.61988694667818L170.91150555555555,124.82437605857851L171.3425638888889,118.96554787158968L171.36130555555553,129.0527616262436L171.6236888888889,133.012290430069L171.84234166666664,145.26268072128298L172.0734888888889,118.45539100170137L172.64198611111112,110.54388720989229L172.7419416666667,114.72441787719728L173.41039444444445,149.97174639701845L173.454125,145.1361015558243L173.52909166666666,169.93857057094576L173.84769999999997,155.40433259010317L173.91641944444444,143.71708137989046L173.9226666666667,144.0665614128113L174.48491666666666,133.38141460418703L174.50365833333333,129.98873848915102L175.422,129.91286273002626L175.4469888888889,143.89508135318758L175.4532361111111,147.82665259838106L175.55943888888888,119.06775648593904L175.6531472222222,123.67661805152895L175.71561944444443,111.5660366535187L175.7843388888889,134.65385277271272L175.815575,136.13378877639772L175.84681111111112,142.72651870250704L175.8718,145.43485708236696L175.90928333333335,104.89648146629335L176.05921666666666,111.87428719997408L176.12168888888888,122.43201084136965L176.28411666666668,124.62998135089876L176.56524166666668,117.7092090368271L176.70892777777777,127.70892090797426L177.02753611111112,108.40708572864534L177.17746944444445,139.35424633026125L177.29616666666666,110.42809016704561L177.38362777777778,131.01692254543306L177.58978611111112,142.32424635887148L178.29572222222222,120.85376973152162L178.6018361111111,120.0037544488907L179.1078611111111,144.14051706790926L179.17658055555555,114.71215875148775L179.301525,126.50185067653658L179.67635833333333,151.691463303566L179.75757222222222,130.61270899772646L179.98871944444443,137.07449204921724L180.11366388888888,131.33044810295107L180.18238333333335,140.07569904327394L180.71964444444444,129.87840635776521L180.78211666666667,112.4027167081833L181.662975,110.46490974426271L181.89412222222225,133.27393097877504L181.90661666666668,116.80927104949953L182.08778611111111,112.99073274135591L182.33142777777778,144.43410308361055L182.63129444444445,148.9601891756058L182.93116111111112,130.4348567247391L182.94365555555555,133.74895627498628L182.99363333333335,143.70600385665895L183.18105,130.68681235313417L183.3247361111111,124.52732963562013L183.41219722222223,154.45489389896395L183.7682888888889,148.61423285007479L184.3680222222222,139.18867428302767L184.6491472222222,140.0629335165024L184.67413611111112,132.39593703746797L185.04896944444442,140.17111344337465L185.33634166666667,117.40796370506288L185.52375833333335,126.88279087543489L185.66119722222223,128.0047435283661L185.711175,127.9525420188904L186.4733361111111,111.83162291049959L186.6607527777778,125.38409693241121L186.79819166666667,155.77681167125704L187.00435000000002,155.88452739715578L187.18551944444445,153.72441036701204L187.46664444444446,151.16982800960542L187.71028611111112,142.53581650257112L188.24754722222224,130.9099453210831L188.70359444444443,161.41581959724428L188.85977499999998,129.90788311958315L188.94098888888888,116.99967784881594L188.9972138888889,147.4184511423111L189.49074444444443,141.6811592102051L189.85933055555557,139.02362973690035L190.5715138888889,109.78462321758272L190.6652222222222,118.55557401180269L190.99007777777777,117.65418012142183L191.15875277777778,121.22057290077211L191.54608055555556,138.29624791145326L191.7022611111111,149.51395983695986L192.25826388888888,150.795534324646L192.48941111111114,133.89612908363344L192.7080638888889,142.32481606006624L192.9142222222222,123.0717008829117L193.17035833333335,127.5184930086136L193.84505833333333,129.1912623167038L193.9450138888889,129.29266912937166L194.07620555555553,110.72093768119814L194.13243055555557,130.47387070655824L194.2323861111111,121.41317410469057L194.6259611111111,132.53855223655702L194.63220833333335,134.33387060165407L194.71966944444443,127.16029865741731L195.4068638888889,120.49241037368776L195.48807777777776,118.88334209918978L195.55679722222223,132.68391044139864L196.18151944444446,145.3570612192154L196.60008333333334,149.88871772289278L196.86246666666668,148.24460227489473L197.84952777777775,139.39857752323152L198.37429444444444,134.28681750297548L198.3867888888889,124.8131719350815L198.63667777777778,112.29905219078066L198.642925,110.67061407566072L198.64917222222223,134.79345066547396L198.7491277777778,131.900465798378L198.83034166666667,121.67253584861757L198.8428361111111,112.59164650440218L199.46131111111112,105.74508304595949L200.39839444444442,97.6860899448395L200.7982166666667,140.72279520034792L200.8357,123.96849496364595L200.87318333333334,133.70150227546694L200.89817222222223,140.2121319293976L200.90441944444444,143.75037724971773L201.37296111111112,130.32792170047762L201.62285,146.98682863712312L201.9664472222222,123.13960082530977L202.64739444444444,128.6736993312836L202.71611388888888,144.75047714710237L202.76609166666665,110.61379165649416L203.06595833333336,148.0660115003586L203.21589166666666,117.3566483974457L203.46578055555557,132.26366086006166L203.48452222222224,148.01634199619295L203.6781861111111,114.36888213157656L203.74065833333333,132.59807546138765L203.78438888888888,137.88583095073702L203.89683888888888,130.1088821411133L204.25293055555554,103.30074841976167L204.377875,98.58699853420259L204.39661666666666,140.17157764434816L204.52780833333335,124.71936113834383L205.06506944444445,164.23115630149843L205.63356666666667,156.87795968055727L205.64606111111112,143.0188387155533L205.84597222222223,133.91167981624605L205.9584222222222,146.94372124671938L207.7263861111111,156.61074872016908L207.88881388888888,132.25532634258272L208.1636916666667,127.70807690620424L208.50728888888887,121.46788651943208L208.89461666666665,115.84970433712007L208.97583055555555,118.08620352745058L209.55057499999998,118.16106648445131L209.73174444444444,146.9041164636612L209.9753861111111,148.95807917118074L210.38145555555556,149.24938638210298L211.72460833333332,141.07248623371126L212.21813888888892,116.99444503784181L212.38056666666665,129.69139666557314L212.51800555555556,142.53602750301363L212.6367027777778,144.62725288867952L212.76164722222222,114.15370388031008L212.79288333333335,120.79730601310732L212.8928388888889,129.38162691593172L212.96780555555554,115.60637862682344L213.0677611111111,128.27904410362245L213.23643611111112,133.28973491191866L213.66124722222224,123.3547157764435L213.9673611111111,143.00828869342806L214.048575,136.38525910377504L214.0985527777778,130.16587336063387L214.69203888888887,119.05222685337068L215.14183888888888,132.35236544609072L215.34799722222223,133.1813439846039L215.39172777777776,115.23001713752748L215.4479527777778,122.82807977199556L215.7603138888889,138.64319593906404L215.77905555555554,144.51618225574495L215.91024722222224,149.5056675195694L215.9852138888889,125.27680320739748L216.1039111111111,133.4448835372925L216.22260833333334,124.07524008750917L217.07223055555556,119.6298827648163L217.57825555555553,107.32828266620638L217.58450277777777,130.52121920585634L217.79690833333333,134.40533645153047L217.91560555555557,123.98887760639192L218.20297777777776,107.62724919319155L218.65277777777777,117.78219408988954L218.68401388888887,116.10628087520601L218.84644166666666,139.15858561992647L219.13381388888888,135.79336066246034L219.2275222222222,158.74668509960176L219.5086472222222,122.38069553375246L219.73979444444444,123.57599194049837L220.008425,131.50066215991976L220.13336944444444,147.0674730062485L220.17085277777778,134.98761327266695L220.25206666666665,123.71160192489626L220.42698888888887,111.46631784439089L220.69561944444445,136.2468217134476L220.94550833333335,132.65854818820955L221.36407222222223,126.63817806243898L221.52025277777778,136.50725955963136L221.56398333333334,112.79272992610933L221.58897222222222,115.36818022727968L222.20744722222224,101.03646047115328L222.22618888888888,113.50432891845705L222.47607777777776,121.40832109451296L222.67598888888887,124.20139725208284L223.06331666666665,107.14095647335054L223.1507777777778,115.93047530651094L223.25698055555554,115.4638056278229L223.2632277777778,122.20246345996858L223.52561111111112,156.1489109516144L224.1440861111111,143.58602900505068L224.31276111111112,138.57789130210878L225.22485555555554,123.88331408500673L225.55595833333334,117.25199217796327L226.23065833333334,132.86520202159883L226.29937777777778,129.94858510494234L227.06778611111113,117.84534652233125L227.43637222222222,119.8351228952408L227.66751944444445,120.14295144081117L227.79871111111112,146.54780001640322L228.02985833333335,155.68291647434236L228.2547583333333,153.1565237760544L228.26100555555556,161.74791319370271L228.4171861111111,151.17263431549074L228.8045138888889,140.58431560993196L228.8419972222222,152.9533303499222L228.93570555555556,133.17655427455904L229.24806666666666,120.66125292778017L229.41049444444445,144.13207705020906L229.51669722222223,128.486141037941L229.66038333333333,113.91027266979219L229.94775555555555,147.7828278064728L230.353825,119.69301409721376L230.39755555555556,147.02645452022554L230.44753333333333,140.81044478416445L230.7474,138.44131071567537L230.80362499999998,139.02249033451082L231.1722111111111,124.82367975711824L231.253425,128.02732057571413L232.15927222222223,106.70899636745455L232.23423888888888,114.63105018138887L232.44039722222223,132.36188156604769L232.45289166666666,159.3213026046753L232.70278055555556,143.135226559639L233.10885000000002,145.96094448566438L233.57114444444446,118.66700334548952L233.8647638888889,138.34226710796358L234.0896638888889,131.29643483161928L234.27083333333334,138.15407581329347L234.45200277777778,113.71866316795351L234.53321666666668,136.97700984477999L234.55195833333335,147.01259179115297L234.964275,137.344446015358L234.98301666666666,138.1507842063904L235.25164722222223,124.20876116752626L235.4952888888889,126.05902404785158L235.55776111111112,152.8151250600815L235.5765027777778,136.15358061790468L235.90760555555556,111.93562502861025L236.61354166666666,133.42526049613954L236.7322388888889,96.41987628936769L236.77596944444446,125.51960141658785L236.78221666666667,112.49051399230959L236.8259472222222,114.10127027034761L237.23201666666665,152.5920764923096L237.40693888888887,158.74706490039827L237.48190555555556,145.24620158672334L237.56311944444445,153.95245964527132L237.60684999999998,147.5192038536072L238.112875,150.69252390861513L238.31903333333332,136.38397200107576L238.34402222222224,118.54998250007631L238.51269722222222,133.152795624733L238.52519166666667,121.42655153274538L238.94375555555555,136.66188068389894L239.08744166666668,120.39296586513521L239.52474722222223,134.4588461637497L239.58721944444446,143.46983106136324L239.6934222222222,127.72329003810884L239.73715277777777,121.73693318367006L239.75589444444444,122.63254566192629L239.84335555555555,131.33960552215578L239.91207500000002,123.67604835033418L240.7616972222222,115.64026529788973L240.99284444444444,125.1698259830475L241.33644166666667,124.45921869277956L241.3801722222222,121.63098986148836L241.78624166666665,148.70378143787386L241.9424222222222,159.7339983701706L241.99864722222225,160.40715308189394L242.0736138888889,123.55185348987581L242.1923111111111,152.76904256343843L242.2985138888889,143.54690952301027L242.39222222222222,141.7285077095032L242.6358638888889,146.44605560302736L242.71083055555556,130.96577603816988L242.8670111111111,133.476934504509L243.0544277777778,134.15471012592317L243.09815833333334,137.30013592243196L243.46049722222222,145.2288784503937L243.52921666666666,137.06864733695986L243.74786944444443,131.208553147316L243.86656666666667,145.36621863842012L243.9102972222222,148.58131678104402L244.19766944444444,131.1591579437256L244.522525,122.90385003089906L244.54126666666667,141.49049921035768L244.75991944444445,109.62031717300417L245.18473055555555,112.11351950168611L245.3409111111111,130.3099444627762L245.55331666666666,121.07352669239046L245.57205833333336,121.27908332347872L245.8969138888889,137.78925604820253L245.9031611111111,146.11360330581667L245.9531388888889,132.74655647277834L246.0343527777778,134.99048287868501L246.37795,136.5438470363617L246.546625,146.47964687347414L246.92145833333333,156.3353509426117L246.92770555555555,158.92825098037721L247.09013333333334,118.6534993171692L247.1651,140.05234129428865L247.25880833333332,150.52034754753114L247.38375277777777,154.57925755977632L247.43997777777776,152.5342834711075L247.4962027777778,141.33760828971864L247.68361944444445,120.0881757259369L247.98973333333333,136.75286407470705L248.33333055555556,132.66954131126406L248.53324166666667,116.87651689052583L248.67068055555555,130.27753479480745L249.12672777777777,110.27036733627321L249.6140111111111,143.29879410266878L250.07630555555556,116.06842739582063L250.38241944444445,144.28716237545015L250.60731944444444,130.32701439857485L250.9946472222222,132.71182579994203L251.31325555555554,151.11996860504152L251.4756833333333,144.68131120204927L251.49442499999998,136.8568239927292L251.9692138888889,155.14362044334413L252.10040555555554,150.7666905641556L252.15038333333334,127.96406264305116L252.23159722222223,129.09017200469972L252.24409166666666,119.77302546501161L252.281575,115.76743526458742L252.68139722222222,129.25070114135744L252.89380277777778,126.77840895652773L252.9062972222222,133.2335454940796L252.91254444444445,132.97118754386904L253.44980555555554,149.3304738521576L253.4685472222222,141.27171285152437L253.63722222222222,110.09473056793215L254.70549722222222,107.14180047512056L254.74922777777778,128.91299493312837L254.980375,109.3022129058838L255.16154444444444,109.85832567214968L255.19278055555554,112.8497211456299L255.45516388888888,169.10098321437837L255.84249166666666,151.79801852703096L255.94869444444444,130.58378083705904L255.95494166666666,143.189137172699L256.3672583333333,142.8502915620804L256.4172361111111,139.77215380668642L256.4922027777778,153.82366497516634L256.72335,134.53170461654665L256.72959722222225,153.29859037399294L256.7483388888889,138.02445824146272L257.16065555555554,127.12964029312135L257.4855111111111,142.1042572975159L257.57921944444445,131.0099595308304L257.6729277777778,114.59425170421602L257.77288333333337,151.9772001028061L257.8540972222222,128.04776651859285L258.07275,121.28826184272768L258.1914472222222,134.00346500873567L258.2351777777778,149.50876922607424L259.69078055555553,130.73897166252138L259.79073611111113,125.76469953060152" style="fill: none;" fill="none"></path></g></g></g></g></g></g><g transform="translate(48, 177)" clip-path="url(#clip_1)"><clipPath id="clip_1"><rect width="281" height="23"></rect></clipPath><g><g><line x1="0" y1="0" x2="0" y2="5" style="visibility: inherit;" fill="rgb(0, 0, 0)" stroke="rgb(204, 204, 204)" stroke-width="1px"></line><line x1="31.23611111111111" y1="0" x2="31.23611111111111" y2="5" style="visibility: inherit;" fill="rgb(0, 0, 0)" stroke="rgb(204, 204, 204)" stroke-width="1px"></line><line x1="62.47222222222222" y1="0" x2="62.47222222222222" y2="5" style="visibility: inherit;" fill="rgb(0, 0, 0)" stroke="rgb(204, 204, 204)" stroke-width="1px"></line><line x1="93.70833333333333" y1="0" x2="93.70833333333333" y2="5" style="visibility: inherit;" fill="rgb(0, 0, 0)" stroke="rgb(204, 204, 204)" stroke-width="1px"></line><line x1="124.94444444444444" y1="0" x2="124.94444444444444" y2="5" style="visibility: inherit;" fill="rgb(0, 0, 0)" stroke="rgb(204, 204, 204)" stroke-width="1px"></line><line x1="156.18055555555557" y1="0" x2="156.18055555555557" y2="5" style="visibility: inherit;" fill="rgb(0, 0, 0)" stroke="rgb(204, 204, 204)" stroke-width="1px"></line><line x1="187.41666666666666" y1="0" x2="187.41666666666666" y2="5" style="visibility: inherit;" fill="rgb(0, 0, 0)" stroke="rgb(204, 204, 204)" stroke-width="1px"></line><line x1="218.65277777777777" y1="0" x2="218.65277777777777" y2="5" style="visibility: inherit;" fill="rgb(0, 0, 0)" stroke="rgb(204, 204, 204)" stroke-width="1px"></line><line x1="249.88888888888889" y1="0" x2="249.88888888888889" y2="5" style="visibility: inherit;" fill="rgb(0, 0, 0)" stroke="rgb(204, 204, 204)" stroke-width="1px"></line><line x1="281.125" y1="0" x2="281.125" y2="5" style="visibility: inherit;" fill="rgb(0, 0, 0)" stroke="rgb(204, 204, 204)" stroke-width="1px"></line></g><g transform="translate(0, 8)"><text x="0" y="0" dx="0em" dy="0.95em" style="text-anchor: middle; visibility: hidden; font-family: &quot;Helvetica Neue&quot;, sans-serif; font-size: 12px; font-weight: 200;" fill="rgb(50, 49, 63)" stroke="none" stroke-width="1px">-5k</text><text x="31.23611111111111" y="0" dx="0em" dy="0.95em" style="text-anchor: middle; visibility: inherit; font-family: &quot;Helvetica Neue&quot;, sans-serif; font-size: 12px; font-weight: 200;" fill="rgb(50, 49, 63)" stroke="none" stroke-width="1px">0</text><text x="62.47222222222222" y="0" dx="0em" dy="0.95em" style="text-anchor: middle; visibility: inherit; font-family: &quot;Helvetica Neue&quot;, sans-serif; font-size: 12px; font-weight: 200;" fill="rgb(50, 49, 63)" stroke="none" stroke-width="1px">5k</text><text x="93.70833333333333" y="0" dx="0em" dy="0.95em" style="text-anchor: middle; visibility: inherit; font-family: &quot;Helvetica Neue&quot;, sans-serif; font-size: 12px; font-weight: 200;" fill="rgb(50, 49, 63)" stroke="none" stroke-width="1px">10k</text><text x="124.94444444444444" y="0" dx="0em" dy="0.95em" style="text-anchor: middle; visibility: inherit; font-family: &quot;Helvetica Neue&quot;, sans-serif; font-size: 12px; font-weight: 200;" fill="rgb(50, 49, 63)" stroke="none" stroke-width="1px">15k</text><text x="156.18055555555557" y="0" dx="0em" dy="0.95em" style="text-anchor: middle; visibility: inherit; font-family: &quot;Helvetica Neue&quot;, sans-serif; font-size: 12px; font-weight: 200;" fill="rgb(50, 49, 63)" stroke="none" stroke-width="1px">20k</text><text x="187.41666666666666" y="0" dx="0em" dy="0.95em" style="text-anchor: middle; visibility: inherit; font-family: &quot;Helvetica Neue&quot;, sans-serif; font-size: 12px; font-weight: 200;" fill="rgb(50, 49, 63)" stroke="none" stroke-width="1px">25k</text><text x="218.65277777777777" y="0" dx="0em" dy="0.95em" style="text-anchor: middle; visibility: inherit; font-family: &quot;Helvetica Neue&quot;, sans-serif; font-size: 12px; font-weight: 200;" fill="rgb(50, 49, 63)" stroke="none" stroke-width="1px">30k</text><text x="249.88888888888889" y="0" dx="0em" dy="0.95em" style="text-anchor: middle; visibility: inherit; font-family: &quot;Helvetica Neue&quot;, sans-serif; font-size: 12px; font-weight: 200;" fill="rgb(50, 49, 63)" stroke="none" stroke-width="1px">35k</text><text x="281.125" y="0" dx="0em" dy="0.95em" style="text-anchor: middle; visibility: hidden; font-family: &quot;Helvetica Neue&quot;, sans-serif; font-size: 12px; font-weight: 200;" fill="rgb(50, 49, 63)" stroke="none" stroke-width="1px">40k</text></g><line x1="0" y1="0" x2="281.125" y2="0" fill="rgb(0, 0, 0)" stroke="rgb(204, 204, 204)" stroke-width="1px"></line></g></g></g></g></svg>