<svg viewBox="0 0 888 400" xmlns="http://www.w3.org/2000/svg"><g><g><g><g><g><line x1="48.875" y1="377" x2="43.875" y2="377" style="visibility: inherit;" fill="rgb(0, 0, 0)" stroke="rgb(204, 204, 204)" stroke-width="1px"></line><line x1="48.875" y1="339.30000000000007" x2="43.875" y2="339.30000000000007" style="visibility: inherit;" fill="rgb(0, 0, 0)" stroke="rgb(204, 204, 204)" stroke-width="1px"></line><line x1="48.875" y1="301.6" x2="43.875" y2="301.6" style="visibility: inherit;" fill="rgb(0, 0, 0)" stroke="rgb(204, 204, 204)" stroke-width="1px"></line><line x1="48.875" y1="263.9000000000001" x2="43.875" y2="263.9000000000001" style="visibility: inherit;" fill="rgb(0, 0, 0)" stroke="rgb(204, 204, 204)" stroke-width="1px"></line><line x1="48.875" y1="226.20000000000005" x2="43.875" y2="226.20000000000005" style="visibility: inherit;" fill="rgb(0, 0, 0)" stroke="rgb(204, 204, 204)" stroke-width="1px"></line><line x1="48.875" y1="188.5" x2="43.875" y2="188.5" style="visibility: inherit;" fill="rgb(0, 0, 0)" stroke="rgb(204, 204, 204)" stroke-width="1px"></line><line x1="48.875" y1="150.80000000000004" x2="43.875" y2="150.80000000000004" style="visibility: inherit;" fill="rgb(0, 0, 0)" stroke="rgb(204, 204, 204)" stroke-width="1px"></line><line x1="48.875" y1="113.10000000000002" x2="43.875" y2="113.10000000000002" style="visibility: inherit;" fill="rgb(0, 0, 0)" stroke="rgb(204, 204, 204)" stroke-width="1px"></line><line x1="48.875" y1="75.40000000000009" x2="43.875" y2="75.40000000000009" style="visibility: inherit;" fill="rgb(0, 0, 0)" stroke="rgb(204, 204, 204)" stroke-width="1px"></line><line x1="48.875" y1="37.700000000000045" x2="43.875" y2="37.700000000000045" style="visibility: inherit;" fill="rgb(0, 0, 0)" stroke="rgb(204, 204, 204)" stroke-width="1px"></line><line x1="48.875" y1="0" x2="43.875" y2="0" style="visibility: inherit;" fill="rgb(0, 0, 0)" stroke="rgb(204, 204, 204)" stroke-width="1px"></line></g><g transform="translate(38.875, 0)"><text x="0" y="377" dx="0em" dy="0.3em" style="text-anchor: end; visibility: hidden; font-family: &quot;Helvetica Neue&quot;, sans-serif; font-size: 12px; font-weight: 200;" fill="rgb(50, 49, 63)" stroke="none" stroke-width="1px">0.55</text><text x="0" y="339.30000000000007" dx="0em" dy="0.3em" style="text-anchor: end; visibility: inherit; font-family: &quot;Helvetica Neue&quot;, sans-serif; font-size: 12px; font-weight: 200;" fill="rgb(50, 49, 63)" stroke="none" stroke-width="1px">0.6</text><text x="0" y="301.6" dx="0em" dy="0.3em" style="text-anchor: end; visibility: inherit; font-family: &quot;Helvetica Neue&quot;, sans-serif; font-size: 12px; font-weight: 200;" fill="rgb(50, 49, 63)" stroke="none" stroke-width="1px">0.65</text><text x="0" y="263.9000000000001" dx="0em" dy="0.3em" style="text-anchor: end; visibility: inherit; font-family: &quot;Helvetica Neue&quot;, sans-serif; font-size: 12px; font-weight: 200;" fill="rgb(50, 49, 63)" stroke="none" stroke-width="1px">0.7</text><text x="0" y="226.20000000000005" dx="0em" dy="0.3em" style="text-anchor: end; visibility: inherit; font-family: &quot;Helvetica Neue&quot;, sans-serif; font-size: 12px; font-weight: 200;" fill="rgb(50, 49, 63)" stroke="none" stroke-width="1px">0.75</text><text x="0" y="188.5" dx="0em" dy="0.3em" style="text-anchor: end; visibility: inherit; font-family: &quot;Helvetica Neue&quot;, sans-serif; font-size: 12px; font-weight: 200;" fill="rgb(50, 49, 63)" stroke="none" stroke-width="1px">0.8</text><text x="0" y="150.80000000000004" dx="0em" dy="0.3em" style="text-anchor: end; visibility: inherit; font-family: &quot;Helvetica Neue&quot;, sans-serif; font-size: 12px; font-weight: 200;" fill="rgb(50, 49, 63)" stroke="none" stroke-width="1px">0.85</text><text x="0" y="113.10000000000002" dx="0em" dy="0.3em" style="text-anchor: end; visibility: inherit; font-family: &quot;Helvetica Neue&quot;, sans-serif; font-size: 12px; font-weight: 200;" fill="rgb(50, 49, 63)" stroke="none" stroke-width="1px">0.9</text><text x="0" y="75.40000000000009" dx="0em" dy="0.3em" style="text-anchor: end; visibility: inherit; font-family: &quot;Helvetica Neue&quot;, sans-serif; font-size: 12px; font-weight: 200;" fill="rgb(50, 49, 63)" stroke="none" stroke-width="1px">0.95</text><text x="0" y="37.700000000000045" dx="0em" dy="0.3em" style="text-anchor: end; visibility: inherit; font-family: &quot;Helvetica Neue&quot;, sans-serif; font-size: 12px; font-weight: 200;" fill="rgb(50, 49, 63)" stroke="none" stroke-width="1px">1</text><text x="0" y="0" dx="0em" dy="0.3em" style="text-anchor: end; visibility: hidden; font-family: &quot;Helvetica Neue&quot;, sans-serif; font-size: 12px; font-weight: 200;" fill="rgb(50, 49, 63)" stroke="none" stroke-width="1px">1.05</text></g><line x1="48.875" y1="0" x2="48.875" y2="377" fill="rgb(0, 0, 0)" stroke="rgb(204, 204, 204)" stroke-width="1px"></line></g></g><g transform="translate(48, 0)" clip-path="url(#clip_0)"><clipPath id="clip_0"><rect width="839" height="377"></rect></clipPath><g><g><g><line x1="0" y1="0" x2="0" y2="377" fill="rgb(0, 0, 0)" stroke="rgb(60, 60, 60)" stroke-width="1px" opacity="0.25"></line><line x1="93.2361111111111" y1="0" x2="93.2361111111111" y2="377" fill="rgb(0, 0, 0)" stroke="rgb(60, 60, 60)" stroke-width="1px" opacity="0.25"></line><line x1="186.4722222222222" y1="0" x2="186.4722222222222" y2="377" fill="rgb(0, 0, 0)" stroke="rgb(60, 60, 60)" stroke-width="1px" opacity="0.25"></line><line x1="279.7083333333333" y1="0" x2="279.7083333333333" y2="377" fill="rgb(0, 0, 0)" stroke="rgb(60, 60, 60)" stroke-width="1px" opacity="0.25"></line><line x1="372.9444444444444" y1="0" x2="372.9444444444444" y2="377" fill="rgb(0, 0, 0)" stroke="rgb(60, 60, 60)" stroke-width="1px" opacity="0.25"></line><line x1="466.1805555555556" y1="0" x2="466.1805555555556" y2="377" fill="rgb(0, 0, 0)" stroke="rgb(60, 60, 60)" stroke-width="1px" opacity="0.25"></line><line x1="559.4166666666666" y1="0" x2="559.4166666666666" y2="377" fill="rgb(0, 0, 0)" stroke="rgb(60, 60, 60)" stroke-width="1px" opacity="0.25"></line><line x1="652.6527777777778" y1="0" x2="652.6527777777778" y2="377" fill="rgb(0, 0, 0)" stroke="rgb(60, 60, 60)" stroke-width="1px" opacity="0.25"></line><line x1="745.8888888888888" y1="0" x2="745.8888888888888" y2="377" fill="rgb(0, 0, 0)" stroke="rgb(60, 60, 60)" stroke-width="1px" opacity="0.25"></line><line x1="839.125" y1="0" x2="839.125" y2="377" fill="rgb(0, 0, 0)" stroke="rgb(60, 60, 60)" stroke-width="1px" opacity="0.25"></line></g><g><line x1="0" y1="377" x2="839.125" y2="377" fill="rgb(0, 0, 0)" stroke="rgb(60, 60, 60)" stroke-width="1px" opacity="0.25"></line><line x1="0" y1="339.30000000000007" x2="839.125" y2="339.30000000000007" fill="rgb(0, 0, 0)" stroke="rgb(60, 60, 60)" stroke-width="1px" opacity="0.25"></line><line x1="0" y1="301.6" x2="839.125" y2="301.6" fill="rgb(0, 0, 0)" stroke="rgb(60, 60, 60)" stroke-width="1px" opacity="0.25"></line><line x1="0" y1="263.9000000000001" x2="839.125" y2="263.9000000000001" fill="rgb(0, 0, 0)" stroke="rgb(60, 60, 60)" stroke-width="1px" opacity="0.25"></line><line x1="0" y1="226.20000000000005" x2="839.125" y2="226.20000000000005" fill="rgb(0, 0, 0)" stroke="rgb(60, 60, 60)" stroke-width="1px" opacity="0.25"></line><line x1="0" y1="188.5" x2="839.125" y2="188.5" fill="rgb(0, 0, 0)" stroke="rgb(60, 60, 60)" stroke-width="1px" opacity="0.25"></line><line x1="0" y1="150.80000000000004" x2="839.125" y2="150.80000000000004" fill="rgb(0, 0, 0)" stroke="rgb(60, 60, 60)" stroke-width="1px" opacity="0.25"></line><line x1="0" y1="113.10000000000002" x2="839.125" y2="113.10000000000002" fill="rgb(0, 0, 0)" stroke="rgb(60, 60, 60)" stroke-width="1px" opacity="0.25"></line><line x1="0" y1="75.40000000000009" x2="839.125" y2="75.40000000000009" fill="rgb(0, 0, 0)" stroke="rgb(60, 60, 60)" stroke-width="1px" opacity="0.25"></line><line x1="0" y1="37.700000000000045" x2="839.125" y2="37.700000000000045" fill="rgb(0, 0, 0)" stroke="rgb(60, 60, 60)" stroke-width="1px" opacity="0.25"></line><line x1="0" y1="0" x2="839.125" y2="0" fill="rgb(0, 0, 0)" stroke="rgb(60, 60, 60)" stroke-width="1px" opacity="0.25"></line></g></g></g><g><g><line x1="0" y1="791.7" x2="839.125" y2="791.7" fill="rgb(0, 0, 0)" stroke="rgb(153, 153, 153)" stroke-width="1.5px"></line></g></g><g><g><line x1="93.2361111111111" y1="0" x2="93.2361111111111" y2="377" fill="rgb(0, 0, 0)" stroke="rgb(153, 153, 153)" stroke-width="1.5px"></line></g></g><g><g><g><g><g><path stroke="rgb(255, 112, 67)" stroke-width="2px" d="M120.5729388888889,-34.87027571797762L121.63583055555556,4.275910611643155L122.17660000000001,24.45492766249481L122.47495555555555,14.58182880095427L122.77331111111111,37.15879355488312L123.81755555555556,18.828328367332688L124.76856388888889,41.7462826517646L125.10421388888888,68.54354560551678L125.27203888888889,72.78591414081882L125.57039444444445,72.63118982665407L125.6263361111111,77.9534949133016L126.4468138888889,82.42202354367163L127.62158888888888,75.3997346263834L128.03182777777778,64.21078482757014L128.08776944444443,61.420860983669286L128.23694722222223,72.15423332794973L128.9828361111111,65.4514648434187L129.2998388888889,81.81325740794381L129.54225277777778,71.8164010523559L131.20185555555554,86.13542462341809L132.32068888888887,95.64573887439269L134.01758611111111,93.22323165089915L134.24135277777776,139.9068908605041L134.83806388888888,123.99872705895083L134.94994722222222,153.6815658233069L135.32289166666666,155.55990406879806L135.41612777777777,162.90922123079898L136.2552527777778,149.21998845747353L136.47901944444445,149.8577204704955L137.13167222222222,134.32835563663687L137.78432500000002,145.41540296938456L137.80297222222222,132.47984712640306L138.66074444444445,126.46211561036031L138.97774722222223,145.84441898627242L139.01504166666666,132.98030254342052L139.10827777777777,116.51644412218275L139.57445833333333,104.46108939849574L139.59310555555555,114.37693342806836L139.81687222222223,131.12421721245013L139.91010833333334,128.87835263505676L140.45087777777778,121.44487340506973L140.7305861111111,115.95047495399155L140.84246944444445,124.3253018047466L143.30390277777778,129.7697575370106L144.3295,149.08288321254452L145.24321388888887,127.03742550705553L147.23846666666665,101.16932408627679L148.56241944444446,116.8058750475455L149.38289722222223,126.27048074752142L149.8863722222222,121.97172842234403L149.9423138888889,148.0318300164344L151.02385277777776,174.00499586561938L152.17998055555555,166.95654893576872L152.83263333333335,160.8849167195545L153.46663888888887,143.89911808059134L153.7277,163.8323217528195L153.76499444444443,176.17592196328226L153.78364166666665,158.3002667037415L154.86518055555555,154.25834560917423L158.12844444444445,180.98215115861063L160.3661111111111,196.91820946691018L160.7017611111111,200.03149044607636L160.73905555555555,177.6585160785589L161.6714166666667,195.44098613105257L162.7156611111111,176.89700933839103L162.99536944444444,189.3411948284222L163.965025,171.83180127624954L164.35661666666667,191.93260721495324L164.4871472222222,189.06137748319253L166.48239999999998,181.9950654539963L167.00452222222222,164.5317167588175L167.52664444444446,181.51369513440727L168.49630000000002,190.03028837542885L169.65242777777777,186.8139839440653L171.47985555555556,160.55670022666868L172.05791944444445,161.16227896511802L172.15115555555556,149.7744872826353L173.49375555555557,172.52420816052054L173.73616944444444,170.85915273444706L173.77346388888887,163.75404299984487L175.2838888888889,180.63860494190521L176.99943333333334,186.11767546590607L177.3164361111111,194.26096447143823L177.70802777777777,207.124772671663L179.53545555555556,198.13860197770785L180.20675555555556,207.08358207171077L180.28134444444444,193.6274274088437L180.43052222222224,192.73554046019876L181.81041666666667,185.54127676406483L182.5190111111111,195.57062313508376L182.78007222222223,203.69426242322558L183.4886666666667,204.0249814785172L183.71243333333334,194.40826327065528L184.49561666666665,211.77613923108524L185.76362777777777,199.62693368170233L185.9314527777778,198.4772471879337L185.98739444444445,191.31087574806295L187.40458333333333,207.94560212043817L187.4418777777778,204.35247344343603L188.44882777777778,191.68220452886072L188.97095000000002,205.33680787814407L190.92890833333334,215.69425952394454L192.60715833333333,211.4416356608847L192.9055138888889,208.30218530926587L193.166575,195.57566999216965L194.30405555555555,204.34218885672146L196.1128361111111,209.36056441648043L196.70954722222223,210.0487765275433L198.85397777777777,194.95025793808665L199.1336861111111,211.54628556309922L199.95416388888887,216.0942273982691L201.53917777777778,233.4764435129361L201.85618055555554,216.9376477430461L201.91212222222222,224.89792164028873L202.58342222222223,224.75932944215052L202.7139527777778,210.32302489994L203.38525277777777,231.21347305725834L203.77684444444444,235.9792824885298L204.93297222222222,227.1250927913814L205.30591666666666,233.884441289224L207.37575833333335,207.41444981152878L207.56223055555554,215.9827013066713L208.8488888888889,194.45974748917243L209.09130277777777,198.27336915962593L209.2031861111111,193.81984337230145L209.44559999999998,196.15247610127702L210.50849166666669,198.14857859442102L210.93737777777775,191.16217589276707L211.03061388888887,190.72082589088484L212.13080000000002,193.78522211801177L212.57833333333335,191.6465194898317L214.36846666666668,197.01915766939334L214.816,203.1379338678408L215.82295,213.5871035728865L216.36371944444443,221.67702208483297L217.37066944444447,238.1307657678371L218.0979111111111,247.54341810938388L218.15385277777776,255.5332376408379L218.37761944444443,238.95581674145464L218.95568333333335,226.45704167107823L220.89499444444445,226.73844231259872L221.04417222222222,218.16538163359198L221.32388055555558,228.31457343778158L223.1326611111111,226.1919985525676L223.6174888888889,241.29380867438724L224.02772777777776,234.60588599656347L225.74327222222223,218.81366208919482L225.89245,219.19507561045054L226.65698611111114,202.30046576688983L227.7944666666667,203.07963847655236L228.37253055555553,198.1370359202515L229.56595277777777,201.57553365351507L230.088075,237.94828710151762L230.1067222222222,247.68059004541064L230.46101944444447,266.4885149597873L230.88990555555554,274.50913955448567L231.24420277777776,275.50830177353924L232.15791666666667,270.9942735236115L232.34438888888891,259.5548314500586L232.40033055555557,224.6719934897862L232.68003888888887,242.925768973663L233.29539722222222,230.98533039703042L236.57730833333332,214.48321858772078L236.6891916666667,213.85889489965697L237.93855555555555,219.54707114885488L238.46067777777776,232.1540833818331L238.64714999999998,218.69321051761003L239.29980277777776,228.17705195143515L240.54916666666668,234.20048416730586L241.1458777777778,226.33064709828395L242.2460638888889,235.92234520629702L242.89871666666664,234.7178948003987L243.32760277777777,215.4398456906641L243.64460555555553,244.40000568481474L245.77038888888887,237.03017353685013L246.42304166666668,243.53311136049814L246.53492500000002,240.95709209133858L247.82158333333334,237.88291655355494L248.64206111111113,254.53588695033667L249.18283055555554,252.3066716641443L249.27606666666665,235.87797532858L249.44389166666667,228.10108222473593L251.1221416666667,227.20821453755457L251.17808333333335,236.17206152931075L251.70020555555553,244.85509160432355L251.88667777777778,237.6427341942378L252.96821666666665,249.8864237501852L253.62086944444442,234.57950990883307L254.2362277777778,226.65037321023817L254.254875,199.04095861776278L255.37370833333335,200.1484432355381L257.6859638888889,226.2919364819418L257.74190555555555,244.37449644383736L258.78615,251.27403470979303L259.2709777777778,256.3576274985442L259.32691944444446,264.41049999918755L259.7185111111111,264.485698412217L259.84904166666666,247.3600446691258L260.93058055555554,241.01953167856595L261.0424638888889,238.80571780169527L262.0867083333334,247.3986240289481L265.2753833333333,234.3076858366651L265.4059138888889,232.38131935150167L265.9093888888889,239.53701889247145L266.9536333333333,252.3924282582429L267.5503444444444,235.49018511008182L268.74376666666666,225.1980681278167L268.79970833333334,237.85052473174676L269.1726527777778,238.76850373522734L269.78801111111113,235.81553056106748L271.2611416666667,259.3570573274242L271.3916722222222,271.45874288224854L271.6340861111111,277.1088386973362L272.044325,284.334399907626L272.75291944444444,305.64822999050455L273.3123361111111,274.4752042544499L273.74122222222223,242.3921485860714L274.0768722222222,249.81004894969277L275.38217777777777,248.29955145119078L276.78071944444446,268.0268172812369L277.97414166666664,275.22916331719796L279.1862111111111,277.8765210368123L280.7898722222222,259.11193464624205L281.2747,258.6627169801433L282.8410666666667,239.1510413189911L284.8549666666667,246.75458255888125L284.9854972222222,272.3429919498032L287.09263333333337,264.12591543775L287.148575,266.4184803711248L287.54016666666666,258.467909492664L288.64035277777776,265.47955401278284L288.826825,268.10411837301706L288.9014138888889,252.36551050783427L289.44218333333333,266.0726925923898L290.0575416666667,260.3891010328814L291.0271972222222,266.8787842586449L291.3442,270.60501482932636L291.60526111111113,282.0671279409461L291.90361666666666,273.00510304325417L292.2206194444445,262.96919897767066L292.96650833333337,280.71007609589196L293.82428055555556,279.7316377462346L293.84292777777773,280.38211293109646L294.2531666666667,255.82978615694287L294.90581944444443,249.23134635885384L295.09229166666665,240.67905828833474L295.39064722222224,222.95435325074132L295.55847222222224,223.37561567168197L295.8195333333333,202.00968229973776L296.5281277777778,229.54814816119952L296.5840694444444,234.67771843315768L297.218075,245.64093079591754L297.29266388888885,254.77479407325373L297.72155,244.26408215722432L297.83343333333335,252.04147639966607L297.8707277777778,260.0927392715013L298.6166166666667,254.60134876691077L298.7285,265.7747868640588L298.9709138888889,282.6861983551602L299.06415,285.85950017535805L300.2575722222222,284.03154166557863L300.61186944444444,284.10877488147304L300.77969444444443,265.29882294470724L301.61881944444445,274.9247143467346L302.0477055555555,271.3733663487482L302.085,258.2520333533315L302.10364722222226,260.2406014493006L303.20383333333336,260.1547497016727L306.1687416666667,258.9203138579452L307.15704444444447,256.34515985903283L307.52998888888885,264.1503380647728L308.10805277777774,251.96514917560995L308.2758777777778,248.83792918889873L308.59288055555555,257.52648562651376L308.9098833333333,254.41246027506298L309.4879472222222,247.1831592533404L310.43895555555554,233.80646778901902L310.86784166666666,220.29604877567584L311.12890277777774,214.15943914852315L312.5087972222222,245.357782477151L314.63458055555554,255.18043108106298L316.42471388888885,268.24919266772656L316.51795,262.41247158093677L317.18925,267.5922077276911L317.7673138888889,270.28928042999553L319.57609444444444,259.75649208040033L320.06092222222225,259.54927729970814L320.13551111111116,248.7711289656556L320.4338666666667,258.09732773377874L321.21705,244.76436271234974L322.41047222222227,252.44605375984088L322.4664138888889,244.02793897663818L322.7647694444444,245.14396196767854L324.5549027777778,241.70602971890668L325.5432055555556,267.60437814819284L327.31469166666665,282.2620225741116L329.51506388888885,276.9534088893919L330.0371861111111,277.06532243515187L331.1373722222222,271.16287365213117L332.0137916666667,276.88313944014953L333.35639166666664,279.9787379960599L333.71068888888885,265.5343389356364L334.5125194444445,256.4219477369922L334.88546388888886,257.5903646394335L335.9670027777778,242.62301382569802L336.28400555555555,242.92026580541332L336.7874805555556,255.37115389090184L337.17907222222226,273.2054691480482L337.4028388888889,258.2794666199019L337.68254722222224,253.76475422311609L337.7571361111111,246.20766628699775L338.0741388888889,244.6592815978365L338.7454388888889,265.96401648181893L339.49132777777777,259.45545602594746L340.1066861111111,271.884292301863L342.15788055555555,270.3349312694845L343.14618333333334,265.5304597992884L343.22077222222225,262.81028683538364L343.59371666666664,262.7235732814976L344.5074305555556,268.3045631659811L345.0482,272.3804249341956L345.83138333333335,264.97604327533674L346.7823916666667,254.81613918503547L347.2112777777778,239.67475805974254L348.3114638888889,255.8329149669186L348.36740555555554,238.86129776631446L349.579475,245.61110589977895L350.12024444444444,229.94181439207077L350.75425,239.06086927489093L351.4069027777778,239.73272277495653L351.8357888888889,238.1160379313313L352.1341444444444,228.69421695130367L353.49539166666665,251.91464263950172L353.84968888888886,284.96698090764517L354.25992777777776,299.5779864438333L355.789,299.54909997749076L358.4182583333333,287.9898966453537L359.648975,287.13602070701506L359.77950555555555,284.44557686741587L359.94733055555554,274.18511777457866L360.26433333333335,250.6096127160625L360.4881,244.09202908326603L360.59998333333334,255.44110629349603L361.70016944444444,248.7805836808065L362.63253055555555,268.67833349057315L363.50894999999997,258.1397584065693L364.18025,279.26470033317196L364.62778333333335,283.7687243270242L364.683725,278.03124724193594L366.08226666666667,268.59906606176014L366.19415000000004,256.90530028997966L366.75356666666664,287.5530333749003L366.9213916666667,290.5196977085797L366.99598055555555,289.0843728606062L367.10786388888886,309.29807176018693L368.8234083333333,283.42401186600296L368.84205555555553,290.46042879089697L368.9912333333333,272.77430608549696L369.0658222222222,281.59096283602105L369.38282499999997,266.3192276936018L370.57624722222226,283.5667088783529L370.9305444444445,264.6934874318091L371.56455,276.34942774427225L373.44791944444444,255.45805168898278L374.62269444444445,270.5609858366929L375.4804666666667,269.5685776718309L376.30094444444444,266.9271436886698L376.6552416666667,266.164198782248L377.9046055555556,255.09845311296147L378.98614444444445,259.620273182703L379.4150305555555,247.00472504968218L380.9254555555556,267.80425283834205L381.76458055555554,266.68467575505304L381.801875,290.4688745200332L382.3985861111111,292.96220652697656L382.97664999999995,287.547255738009L384.0768361111111,276.2101810165816L386.7433888888889,272.1603400628909L387.19092222222224,266.8734428168026L387.35874722222223,277.3180536604337L387.47063055555554,270.3029240999468L388.3284027777778,263.5618555494456L388.3843444444444,263.5878541724866L388.73864166666664,266.56573590856704L391.200075,268.2439212681169L391.4611361111111,271.4126098848173L393.36315277777777,269.9832146392339L393.75474444444444,289.54976648724517L395.09734444444445,290.18245029113564L396.234825,281.371585395705L397.577425,251.67300271676265L397.98766388888885,252.1009664802926L398.30466666666666,259.3536529033886L399.16243888888886,269.04556717690866L399.79644444444443,263.7100006283345L401.00851388888884,282.2078155053272L402.0154638888889,284.52552188948476L402.50029166666667,275.03186418006237L402.5935277777778,284.9362981211508L403.9174805555555,288.5597585899452L404.58878055555556,276.69867657082204L405.50249444444444,280.147293300968L406.6586222222222,270.89698239537574L406.67726944444445,266.60951948864755L407.311275,298.5394254058808L407.5723361111111,299.804559565199L408.35551944444444,304.47401699102676L411.4696055555556,305.7993499605463L412.04766944444447,308.96564854673187L412.681675,299.34840012962604L413.81915555555554,280.85395592555403L414.0056277777778,265.7985909396708L414.69557499999996,263.6847889956415L414.8447527777778,263.44454485276816L415.3109333333333,270.332224100229L415.64658333333335,261.68490067565256L415.68387777777775,263.66828143741975L416.1127638888889,275.99949732390814L416.1314111111111,284.70057127337327L416.15005833333333,271.57540985501214L416.206,272.55002070281745L416.56029722222223,252.13084767826706L417.21295,248.62070562462986L417.79101388888887,260.8206165720283L418.18260555555554,263.2106342178141L418.5182555555556,261.76859676489573L418.7047277777778,265.0371304538807L420.36433055555557,247.15573572319516L420.62539166666664,243.9937489748107L420.9983361111111,277.199939656264L421.1661611111111,285.77035883427055L421.2966916666667,291.6680118093514L421.3153388888889,306.1039003091826L421.85610833333334,300.32272396312794L422.0425805555556,295.4198681272664L422.41552499999995,306.5082614563464L423.7021833333333,298.70988725558277L424.61589722222226,302.37143261274906L425.23125555555555,293.2706667175365L425.93985000000004,274.91243853989084L428.00969166666664,286.0809324003627L428.4758722222222,274.8708650527817L428.53181388888885,266.83088521590366L428.69963888888884,263.4648485733899L429.2217611111111,257.1841230531831L429.8744138888889,253.19139169575573L430.09818055555553,257.7857826454747L430.82542222222224,253.74502642055202L431.29160277777777,253.38705527722752L431.6086055555556,254.2551567121739L432.8766166666667,250.4709249046085L433.2868555555556,263.3783447853707L433.8089777777778,244.1067632074345L434.81592777777774,283.1156783887857L437.29600833333336,267.084885863609L437.3146555555556,275.4270640350263L439.08614166666666,278.13431171279444L439.9252666666667,293.1004010230381L442.1815805555555,284.2971191805648L442.3121111111111,275.90179081452175L444.64301388888885,269.1354630976456L445.5380805555555,254.50450414833648L446.75014999999996,241.64295696745648L447.1044472222222,232.67486407953703L447.1976833333334,246.47078990577575L447.6265694444445,230.36414563917472L448.03680833333334,227.61720319428062L448.4284,241.73708386801488L449.6964111111111,268.05510006179105L450.68471388888884,279.63244465964846L451.76625277777777,282.1190687225927L452.58673055555556,285.9454334191483L452.6613194444444,273.70979152274134L453.12750000000005,273.64471606583595L456.5772361111111,258.9754277764034L456.8569444444444,274.866913293497L456.91288611111105,287.3612468377926L457.32312500000006,283.0797788510429L457.43500833333337,286.3586664610927L458.330075,275.7846016939774L458.6097833333333,286.4859971366105L459.4675555555556,277.8112809086906L459.7286166666666,261.395531887118L459.9337361111111,259.82961208957676L460.1015611111111,266.97713978372957L460.95933333333335,265.64513223220683L461.1644527777778,277.754985747634L461.27633611111116,277.7227284347406L462.3765222222222,295.6103491255874L462.87999722222224,291.3632282703659L463.30888333333337,294.99856600579864L464.6141888888889,282.33098214994226L465.02442777777776,279.68157333690135L465.6397861111111,269.64633793448337L465.9567888888889,263.7605796791012L466.0873194444444,256.6445945630607L466.83320833333335,260.9919840461098L467.07562222222225,278.20921447551746L467.16885833333333,286.01379985497294L467.28074166666664,265.6760818462724L467.33668333333327,261.63116130716526L468.75387222222224,236.31833628587083L468.77251944444447,249.1495982681045L468.8098138888889,260.50793859686434L469.59299722222227,273.43070908859954L469.6489388888889,273.2380498485302L470.2270027777778,275.19932746389725L470.7304777777778,282.01943071066864L470.78641944444445,277.5886743794652L470.87965555555553,268.65780513350796L471.9239,263.7944714407005L472.2036083333333,263.0025108253883L472.3714333333333,268.6008190677122L472.4087277777778,272.4787930992577L473.3224416666667,264.80976143046223L474.38533333333334,274.0036008558511L475.22445833333336,266.4282025743627L475.9889944444444,274.21214527661226L476.2314083333333,280.078504798261L476.2500555555556,309.6860520633743L476.66029444444445,304.9710544271877L476.7535305555555,303.29096860907146L476.95865000000003,299.9848219395975L479.02849166666664,296.5062224579633L479.42008333333337,296.51225882725606L480.68809444444446,285.5122154400151L480.70674166666663,274.51239516290434L480.7626833333333,275.7468113348032L480.78133055555554,279.51214093715816L481.6763972222222,275.6450203868799L482.1239305555556,290.50425755340177L482.73928888888884,298.6758316049476L483.2054694444445,293.7874276262223L484.58536388888893,287.60461831699007L485.33125277777776,272.7471478307855L485.4804305555556,263.19003229168726L486.0771416666667,266.89417363183304L486.3195555555556,277.044320093254L487.5129777777778,281.54993626753077L488.7250472222222,291.1225498800253L489.1539333333333,307.2858441331849L490.7203,310.87355562084116L490.77624166666664,311.58994718094584L490.86947777777783,317.0349748164411L492.1188416666667,319.00320637881725L492.4544916666666,307.34487305557707L493.85303333333337,295.9984183268308L494.58027500000003,300.0564008496141L494.5989222222222,295.2778712524137L497.52653611111117,258.54156528074515L498.3097194444444,248.22936648702012L498.3283666666667,262.31713695153826L499.54043611111115,274.23277053609627L499.65231944444446,262.85350326404057L500.0252638888889,261.74318204227137L500.1371472222222,261.14494146527676L500.5287388888889,260.3010200644841L500.64062222222225,274.08182375820337L501.7594555555556,280.27192276711384L502.8596416666666,301.51589469191504L503.4563527777778,307.820035939676L503.5868833333333,302.74758175209905L507.5773888888889,299.2596158504233L508.0435694444445,297.96344051359563L508.2859833333333,307.87730597495124L508.7894583333333,299.0688977470343L508.91998888888884,287.921738953015L509.12510833333334,281.3400278917675L509.2183444444444,279.50280326078683L509.36752222222225,271.1007171050927L509.62858333333327,270.8421107325686L510.1507055555556,279.7776151105006L511.43736388888885,268.69701271559234L511.49330555555554,252.04661523166558L512.2764888888888,256.7242451170878L512.9291416666666,272.2726972186444L513.6190888888889,277.1128814079689L515.3159861111111,282.7816739283996L515.6143416666667,272.47450079220516L517.6095944444444,291.8408188015102L517.740125,307.124273471229L517.9638916666667,311.8544638515667L518.9149,309.4158594632838L519.1200194444444,302.14827039865827L519.1386666666667,319.1328014840375L520.8169166666667,312.71953663764543L520.8728583333334,308.2819040199408L523.614,290.19637818695844L523.688588888889,266.812905409108L523.7072361111111,270.271657363278L524.0242388888888,255.73041321259873L524.3039472222222,270.5067940606006L524.4904194444445,269.44590915044114L524.6955388888889,271.2347308731077L524.788775,272.06526572799675L524.8820111111112,277.2619569068908L524.9566000000001,270.8861745503997L525.0684833333333,273.04006342813113L525.5160166666666,274.1880074115082L525.7024888888889,272.1421848923852L526.1873166666667,276.495882396155L527.0264416666666,287.085845811518L527.4553277777778,284.55441431483746L528.4063361111112,275.90304184604366L528.8538694444445,268.63861697583604L529.2081666666667,256.3430962948156L529.4692277777777,253.14971318651158L530.0845861111111,290.81789953475544L532.1917222222222,300.32998568871824L533.1054361111112,285.8630871525956L534.615861111111,283.17217556426243L534.8209805555556,287.14933603161165L535.193925,289.2193132278537L536.3127583333334,286.45451324684706L536.5551722222223,287.85962833346895L537.2451194444444,269.5213497291921L537.6180638888889,267.6361597234559L537.8231833333333,274.4291839322181L539.4268444444444,274.02490202192854L539.6133166666667,292.0211769366527L542.242575,279.57845960284857L542.9325222222222,264.3248649539089L542.9698166666667,264.58906134256927L543.5105861111111,253.45738237553365L544.2378277777779,268.5242514029355L545.1328944444444,274.7618497309215L546.0279611111112,288.3187853680328L546.0652555555555,303.13111566700195L546.2144333333333,302.57409894465L546.7738499999999,306.76499915598987L547.2027361111111,292.36763184833023L547.4637972222222,291.6384109876603L548.5266888888889,292.97250623119174L550.3168222222222,298.7034136260289L551.1559472222222,297.35190631656275L551.2305361111111,279.4508728892114L552.3493694444444,287.9962432140414L553.2071416666666,288.9844959875526L553.7665583333334,267.62713951948774L554.1767972222223,267.2918874256819L554.325975,266.0620699592239L556.6009361111111,287.2031558244113L557.1603527777778,277.05417511276505L557.5705916666667,302.91495567686616L558.18595,296.01582338170556L558.7267194444445,292.04714120958056L559.5658444444445,286.8776104589332L560.2930861111112,291.50625871539285L561.8967472222222,298.12953970265494L563.2579944444444,285.93067942996095L563.724175,271.332123373385L563.9665888888889,267.5413709535812L564.134413888889,270.9294913133749L565.6075444444444,263.687559366272L566.7077305555556,266.52868226054085L568.8335138888889,270.1003324966596L569.1132222222221,264.4336424625496L570.0828777777778,261.8495037339079L570.5863527777777,267.03843623768967L571.7424805555556,293.6828543852072L572.2086611111112,307.171256839651L573.8682638888889,298.06659633363375L574.5582111111112,293.77822181728544L575.2108638888889,273.6202037927334L575.8262222222222,294.1329900906577L576.5907583333334,266.0755171874818L578.6046583333333,262.65779117224554L578.9030138888888,254.53205304311473L579.2946055555556,257.15770126442175L579.4624305555556,263.9011572710279L579.7607861111111,274.81248394200827L580.9355611111112,293.12149255484127L580.9542083333333,286.08337930327525L581.2152694444444,270.05066032580066L583.2664638888889,271.21857752902224L583.5088777777778,277.9215525824005L583.7139972222222,282.2385519813404L585.5787194444445,291.8085166544262L586.8280833333333,296.5345388180341L587.6112666666667,285.3907397512392L590.5575277777778,288.289597296941L592.1238944444444,277.40156759752495L592.1611888888889,279.15736681660223L592.9070777777778,279.1669538214219L592.925725,297.4186509057529L592.9443722222222,280.6489825776009L593.2427277777778,279.51386576955247L593.4851416666667,279.61514431753585L593.5224361111111,280.0148992259433L595.368511111111,284.8569108128029L598.1655944444444,269.0806498980212L599.3590166666667,278.83839650962875L599.4709,295.69714112767053L599.5827833333334,300.9589860468416L599.6573722222223,299.69273122008497L599.6760194444444,282.9633228102675L601.0745611111112,301.38129028078026L601.8204499999999,299.359316332317L602.8460472222222,304.9419408030371L604.8785944444444,285.90778764886016L605.0837138888888,270.9662954664371L605.2328916666667,257.96200401402365L606.1279583333334,269.77284824619807L606.5754916666666,270.3907769237167L607.3213805555556,265.6632168885593L607.3773222222222,255.1696952984646L607.9553861111111,257.6175687125871L608.1418583333333,268.0562649900645L608.2723888888889,253.30894575208012L608.6080388888889,258.2784633546446L609.6709305555555,263.5620082610473L610.043875,264.8356408639923L610.0998166666667,270.13165397907346L610.4914083333333,266.0058971420828L612.0950694444444,294.1355728063526L613.7919666666667,287.1706924100842L613.8292611111111,274.0002018535212L614.4259722222222,269.01735146069973L614.7616222222222,280.3920259238747L620.0387861111111,284.0299463892858L620.5236138888889,286.28962122827056L621.3440916666667,279.2430521501857L622.3696888888888,279.1024688442801L623.5258166666666,277.41599397899233L623.7682305555555,268.06015955115276L625.4837749999999,267.83499521914075L626.0245444444444,299.4732461911616L626.7517861111111,309.5267980946408L627.9638555555556,304.5455925305668L631.9730083333333,290.4972962570181L633.446138888889,272.34772661399785L633.9309666666667,270.98092222137416L634.3412055555556,287.0536736769864L634.6955027777778,294.85553349276717L635.0684472222222,280.02914935362537L635.1616833333334,277.9155193019641L635.4600388888889,256.72669932417466L635.6838055555555,251.72423330528977L635.982161111111,266.5366810583082L636.4856361111111,255.55010352748678L637.7536472222223,248.16933674227025L638.6673611111111,242.21110825187455L638.909775,248.62177644518906L639.0589527777778,251.07567948787147L640.8304388888889,266.6066392868086L642.1730388888889,283.3871708565548L642.7883972222222,280.2524757584092L642.9189277777778,307.7584134984111L643.0867527777779,284.5240406470356L644.0191138888889,287.4169636700664L644.0750555555555,281.151908386595L644.4666472222223,265.20119778922015L644.6904138888889,270.67009361631165L645.0447111111112,263.9444694331079L645.3990083333333,264.54758459870754L647.9350305555556,271.6651923378988L649.4454555555556,258.26959859136855L649.4641027777777,260.184896228338L650.0981083333334,255.85161216594267L650.4524055555556,258.54295747481285L651.3101777777778,264.4669740069062L652.6527777777778,277.3731825559229L652.7460138888889,267.62224759393274L653.2308416666666,291.409379020532L654.0886138888889,312.5518185992241L654.3683222222222,313.46852619524L655.2074472222222,301.63180749341967L655.8973944444444,302.8148878426858L656.699225,319.1765804106896L657.0721694444444,310.73141805499233L657.1840527777778,306.9288958845701L657.4264666666667,302.0587290178637L657.9485888888888,297.12715061491133L658.7504194444444,293.83489644995575L659.4963083333333,286.6353534297421L660.7456722222222,282.15252446629256L661.2118527777777,275.4597080486873L661.3423833333334,280.89560582744235L661.4169722222223,263.7130552250573L663.2630472222222,254.6508424161928L663.318988888889,265.91468059772603L664.0648777777777,269.26710639330355L664.6615888888889,262.31470174034007L665.8177166666667,267.02237662815793L666.0787777777778,289.2963087913021L666.3957805555555,268.44174199322606L666.4144277777777,250.23094397675845L667.1976111111111,279.357263628792L669.0436861111111,281.53123657235574L669.5471611111111,286.20392602162997L672.2696555555556,273.9518406765309L673.2579583333334,270.5691212211041L675.2718583333333,267.9835582181209L675.4769777777777,277.76861749198406L677.7705861111111,276.31171411816104L678.8707722222222,266.24454421605964L679.5607194444444,271.1666687941927L679.952311111111,264.854199665569L680.6422583333334,292.6323462878363L681.3135583333333,300.3331809660612L681.3322055555556,312.52872926597706L681.7983861111111,313.85591389778205L682.9545138888889,315.6261876037297L683.0663972222222,302.5239046627628L683.3461055555556,281.78315648402855L684.2784666666666,281.88384407619293L684.7632944444445,297.43713249361315L685.0802972222223,288.8494928025949L685.5091833333333,305.76953100107596L686.3669555555556,313.0547459348589L687.579025,301.86031898883283L687.7095555555555,289.8688497413832L687.8587333333334,289.8006393164181L688.7538,272.6788240748515L688.921625,277.8430446242017L690.0218111111111,265.0271640261842L690.264225,260.9567890716096L692.9680722222222,258.03897091344004L693.1918388888889,251.59463764068482L693.8071972222223,263.89926661036617L693.8444916666666,287.10411029924273L694.5903805555556,290.6584522883255L695.80245,285.4543818378543L697.1823444444445,291.0836559429225L698.0587638888888,278.5635258659397L698.7300638888889,268.5726142874166L699.2708333333334,274.2580542463544L699.8116027777778,277.4880585419228L700.0540166666667,287.9583351747448L700.1099583333333,294.3880004773292L701.340675,279.0015692931267L701.3966166666667,270.5232065142305L702.1984472222223,259.7707587302393L702.9256888888889,265.7199653089444L703.1121611111112,254.64754336955554L703.1681027777778,273.5864410798693L704.1564055555556,270.0142193842497L706.2635416666667,256.5024007730822L706.6178388888889,257.9650045545781L706.7483694444445,278.17632145833284L706.7670166666667,280.731852674194L706.8975472222222,280.2774809549498L708.1096166666666,307.19228186787655L708.6317388888889,318.9644323550552L708.8555055555556,327.68248348491727L709.0979194444445,338.9073774448475L709.22845,332.65791516968255L710.738875,328.81384183328544L711.3542333333334,333.30405157900566L711.4288222222223,319.83189210234116L711.9322972222222,315.09897926889676L711.9695916666667,313.43999915267716L713.2189555555556,306.0700876340013L713.6478416666667,293.1913690629447L714.9531472222222,287.09056738274364L715.1396194444445,281.0544754031722L715.4566222222222,277.6836679365292L715.5871527777778,272.9255339185032L715.6430944444444,274.3146251892824L715.9041555555556,287.2809913477766L716.109275,285.15383610734153L718.6452972222222,256.30124572759155L719.3352444444445,246.47318334964092L720.3608416666667,255.1043730758856L720.4913722222221,260.02830227990336L721.7034416666667,294.6142985676491L722.1696222222222,289.12419383137006L722.3374472222223,303.3123331857239L722.5612138888889,298.6091696067163L722.9155111111111,311.7541225983804L723.2325138888889,306.3136452146832L723.5122222222222,316.2324186198988L724.2394638888888,302.3838445492434L724.4632305555556,287.72232402729077L724.9294111111111,288.76894666056086L725.4888277777778,277.09414643109L725.6193583333334,286.4584732941398L726.7008972222222,273.45553606579364L726.9060166666667,279.8572664179186L727.5586694444444,283.4428368805515L727.9129666666668,281.27617917529756L728.0434972222222,282.0121066503049L728.9012694444444,295.2142511136723L729.870925,285.5180964235898L729.9268666666667,292.8498648789189L730.5795194444445,293.78733885685574L731.8475305555555,287.560486037731L732.3137111111112,273.8027076764106L732.9477166666666,274.3820726229667L733.0036583333334,269.91587456666946L733.9733138888888,267.17710207345203L733.9919611111111,247.0257565691597L734.1411388888889,252.96560445991315L734.3835527777778,259.7138626835773L735.40915,279.94352030408555L735.912625,282.7040971067677L737.0314583333333,288.7286163107831L737.0501055555555,297.4904340038466L737.5349333333334,279.8634136444192L737.7587,275.3143059972442L738.0384083333333,281.857704081745L738.4113527777778,287.31360123551553L738.5791777777778,293.2410487341682L738.7470027777778,300.5623183541179L739.3064194444444,276.71678867177246L740.2201333333334,277.7010070028071L741.2457305555556,287.31207885874306L741.8424416666667,289.20408284266585L742.2526805555556,269.80684018373364L743.6139277777777,274.2981612505905L745.0684111111111,270.33006522073697L746.4483055555555,265.3380651105306L747.3620194444445,254.08331642799737L748.0333194444445,257.5017364922355L749.1894472222222,281.98154815335215L750.1404555555555,292.7398949927041L750.6252833333333,310.5680806246965L750.6812249999999,310.02917490527454L752.0984138888889,303.41975368812933L752.4900055555555,295.0454621467307L752.6391833333333,289.46323012312143L752.8815972222222,299.9619650590414L752.9188916666667,287.12088133263546L753.030775,298.7965095887659L754.2241972222222,280.2965840655612L754.8582027777778,259.03175920474814L754.8954972222222,283.3224111499088L754.9141444444444,287.34762557635884L756.5178055555556,287.2394641702782L756.5737472222222,278.4562877264864L757.0772222222223,278.39363827271745L760.2658972222222,279.92130314566776L760.3964277777777,273.69449458156873L761.086375,284.44926065465717L761.6271444444445,268.4466831628138L761.7203805555555,275.14714653632967L762.5035638888888,300.58491947735513L763.6596916666667,326.23926558068496L763.9766944444444,322.0379589245981L763.9953416666666,317.8010953620832L765.2260583333334,306.6833432218886L765.3752361111111,307.5755691636477L765.5990027777777,296.08871220283953L766.28895,296.8995501728848L766.3075972222223,306.89095965695356L766.3635388888889,304.29570005221353L767.5942555555555,305.5630709331226L768.5639111111111,288.7327475834484L768.8436194444445,298.44005436710086L769.1233277777778,283.36429672128907L769.4216833333334,274.8884717553076L769.6640972222223,273.71252677495585L770.3167500000001,272.864691701265L770.6710472222222,289.70814896507966L770.8015777777778,280.9775261264081L775.1463805555555,286.491538468661L775.4633833333334,275.3986728618516" style="fill: none;" fill="none"></path></g></g></g></g><g opacity="0.2"><g><g><g><path stroke="rgb(255, 112, 67)" stroke-width="2px" d="M119.0625138888889,-189.16501431465144L119.19304444444444,19.05441374778752L120.01352222222222,-109.70665268898006L120.5729388888889,52.50062675476079L121.63583055555556,62.995190095901535L122.17660000000001,54.723453235626266L122.47495555555555,-0.22781949043269378L122.77331111111111,71.02424068450932L123.81755555555556,-8.667369413375809L124.76856388888889,76.12321407794957L125.10421388888888,108.73944003582005L125.27203888888889,79.14946694374089L125.57039444444445,72.39910335540776L125.6263361111111,85.93695254325871L126.4468138888889,89.12481648921971L127.62158888888888,64.86630125045781L128.03182777777778,47.42736012935643L128.08776944444443,57.23597521781926L128.23694722222223,88.25429184436803L128.9828361111111,55.39731211662297L129.2998388888889,106.35594625473027L129.54225277777778,56.82111651897435L131.20185555555554,107.61395998001103L132.32068888888887,109.91121025085454L134.01758611111111,89.58947081565861L134.24135277777776,209.93237967491154L134.83806388888888,100.13648135662083L134.94994722222222,198.20582396984105L135.32289166666666,158.37741143703465L135.41612777777777,173.9331969738007L136.2552527777778,128.6861392974854L136.47901944444445,150.81431849002843L137.13167222222222,111.03430838584904L137.78432500000002,162.0459739685059L137.80297222222222,113.07651336193089L138.66074444444445,117.43551833629613L138.97774722222223,174.91787405014043L139.01504166666666,113.6841278791428L139.10827777777777,91.82065649032597L139.57445833333333,86.37805731296544L139.59310555555555,129.2506994724274L139.81687222222223,156.24514288902287L139.91010833333334,125.50955576896672L140.45087777777778,110.29465456008916L140.7305861111111,107.70887727737431L140.84246944444445,136.88754208087926L143.30390277777778,137.93644113540654L144.3295,178.05257172584538L145.24321388888887,93.96923894882207L147.23846666666665,62.36717195510869L148.56241944444446,140.2607014894486L149.38289722222223,140.4673892974854L149.8863722222222,115.52359993457799L149.9423138888889,187.12198240756993L151.02385277777776,212.9647446393967L152.17998055555555,156.38387854099278L152.83263333333335,151.7774683952332L153.46663888888887,118.42042012214665L153.7277,193.73212726116185L153.76499444444443,194.6913222789765L153.78364166666665,131.48678381443028L154.86518055555555,148.19546396732335L158.12844444444445,221.06785948276524L160.3661111111111,220.82229692935948L160.7017611111111,204.70141191482548L160.73905555555555,144.09905452728276L161.6714166666667,222.11469120979314L162.7156611111111,149.08104414939885L162.99536944444444,208.00747306346898L163.965025,145.56771094799046L164.35661666666667,222.08381612300877L164.4871472222222,184.7545328855515L166.48239999999998,171.39559741020207L167.00452222222222,138.33669371604924L167.52664444444446,206.9866626977921L168.49630000000002,202.8051782369614L169.65242777777777,181.98952729702L171.47985555555556,121.17077465057378L172.05791944444445,162.0706470727921L172.15115555555556,132.69279975891118L173.49375555555557,206.64878947734837L173.73616944444444,168.36156959533696L173.77346388888887,153.09637839794163L175.2838888888889,205.96544785499577L176.99943333333334,194.3362812519074L177.3164361111111,206.47589797973637L177.70802777777777,226.42048497200017L179.53545555555556,184.65934593677525L180.20675555555556,220.5010522127152L180.28134444444444,173.4431954145432L180.43052222222224,191.3977100372315L181.81041666666667,174.74988121986394L182.5190111111111,210.6146426916123L182.78007222222223,215.87972135543828L183.4886666666667,204.52106006145482L183.71243333333334,179.98318595886235L184.49561666666665,237.8279531717301L185.76362777777777,181.4031253576279L185.9314527777778,196.75271744728093L185.98739444444445,180.56131858825688L187.40458333333333,232.8976916790009L187.4418777777778,198.96278042793278L188.44882777777778,172.67680115699773L188.97095000000002,225.81871290206914L190.92890833333334,231.2304369926453L192.60715833333333,205.0626998662949L192.9055138888889,203.5930097818375L193.166575,176.4858970165253L194.30405555555555,217.49196715354924L196.1128361111111,216.88812775611882L196.70954722222223,211.08109469413762L198.85397777777777,172.30248005390172L199.1336861111111,236.44032700061803L199.95416388888887,222.9161401510239L201.53917777777778,259.54976768493657L201.85618055555554,192.1294540882111L201.91212222222222,236.8383324861527L202.58342222222223,224.55144114494328L202.7139527777778,188.6685680866242L203.38525277777777,262.5491452932358L203.77684444444444,243.12799663543706L204.93297222222222,213.84380824565892L205.30591666666666,244.0234640359879L207.37575833333335,167.709462594986L207.56223055555554,228.83507854938512L208.8488888888889,162.17531676292424L209.09130277777777,203.99380166530614L209.2031861111111,187.13955469131474L209.44559999999998,199.65142519474034L210.50849166666669,201.142732334137L210.93737777777775,180.6825718402863L211.03061388888887,190.05880088806157L212.13080000000002,198.38181645870213L212.57833333333335,188.4384655475617L214.36846666666668,205.078114938736L214.816,212.31609816551213L215.82295,229.26085813045506L216.36371944444443,233.81189985275273L217.37066944444447,262.8113812923432L218.0979111111111,261.66239662170415L218.15385277777776,267.51796693801884L218.37761944444443,214.0896853923798L218.95568333333335,207.70887906551366L220.89499444444445,227.1605432748795L221.04417222222222,205.30579061508183L221.32388055555558,243.5383611440659L223.1326611111111,223.00813622474675L223.6174888888889,263.94652385711674L224.02772777777776,224.57400197982793L225.74327222222223,195.12532622814183L225.89245,219.76719589233403L226.65698611111114,176.9585510015488L227.7944666666667,204.2483975410462L228.37253055555553,190.72313208580022L229.56595277777777,206.73328025341038L230.088075,292.50741727352147L230.1067222222222,262.27904446125035L230.46101944444447,294.7004023313523L230.88990555555554,286.54007644653325L231.24420277777776,277.0070451021195L232.15791666666667,264.22323114871983L232.34438888888891,242.39566833972935L232.40033055555557,172.3477365493775L232.68003888888887,270.3064321994782L233.29539722222222,213.07467253208165L236.57730833333332,189.73005087375645L236.6891916666667,212.9224093675614L237.93855555555555,228.07933552265172L238.46067777777776,251.0646017313004L238.64714999999998,198.50190122127538L239.29980277777776,242.4028141021729L240.54916666666668,243.2356324911118L241.1458777777778,214.52589149475102L242.2460638888889,250.3098923683167L242.89871666666664,232.91121919155125L243.32760277777777,186.52277202606206L243.64460555555553,287.8402456760407L245.77038888888887,225.9754253149033L246.42304166666668,253.2875180959702L246.53492500000002,237.09306318759923L247.82158333333334,233.27165324687962L248.64206111111113,279.5153425455094L249.18283055555554,248.9628487348557L249.27606666666665,211.2349308252335L249.44389166666667,216.43574256896977L251.1221416666667,225.86891300678258L251.17808333333335,249.61783201694493L251.70020555555553,257.8796367168427L251.88667777777778,226.82419807910924L252.96821666666665,268.2519580841065L253.62086944444442,211.61913914680486L254.2362277777778,214.75666816234593L254.254875,157.62683672904973L255.37370833333335,201.80967016220097L257.6859638888889,265.5071763515473L257.74190555555555,271.49833638668065L258.78615,261.62334210872655L259.2709777777778,263.9830166816712L259.32691944444446,276.48980875015263L259.7185111111111,264.5984960317612L259.84904166666666,221.67156405448918L260.93058055555554,231.50876219272618L261.0424638888889,235.4849969863892L262.0867083333334,260.2879833698273L265.2753833333333,214.6712785482407L265.4059138888889,229.49176962375645L265.9093888888889,250.27056820392613L266.9536333333333,271.67554230690007L267.5503444444444,210.13682038784032L268.74376666666666,209.759892654419L268.79970833333334,256.82920963764195L269.1726527777778,240.14547224044804L269.78801111111113,231.38607079982762L271.2611416666667,294.6693474769593L271.3916722222222,289.6112712144852L271.6340861111111,285.5839824199677L272.044325,295.17274172306065L272.75291944444444,337.61897511482243L273.3123361111111,227.71566565036778L273.74122222222223,194.26756508350377L274.0768722222222,260.93689949512486L275.38217777777777,246.03380520343785L276.78071944444446,297.6177160263062L277.97414166666664,286.0326823711396L279.1862111111111,281.84755761623387L280.7898722222222,230.9650550603867L281.2747,257.9888904809952L282.8410666666667,209.88352782726292L284.8549666666667,258.1598944187165L284.9854972222222,310.72560603618626L287.09263333333337,251.80030066967015L287.148575,269.8573277711869L287.54016666666666,246.54205317497258L288.64035277777776,275.99702079296117L288.826825,272.04096491336827L288.9014138888889,228.75759871006017L289.44218333333333,286.63346571922307L290.0575416666667,251.86371369361882L291.0271972222222,276.6133090972901L291.3442,276.19436068534856L291.60526111111113,299.2602976083756L291.90361666666666,259.41206569671635L292.2206194444445,247.9153428792954L292.96650833333337,307.3213917732239L293.82428055555556,278.2639802217484L293.84292777777773,281.3578257083893L294.2531666666667,219.00129599571233L294.90581944444443,239.33368666172032L295.09229166666665,227.8506261825562L295.39064722222224,196.36729569435124L295.55847222222224,224.007509303093L295.8195333333333,169.96078224182133L296.5281277777778,270.8558469533921L296.5840694444444,242.37207384109502L297.218075,262.0857493400574L297.29266388888885,268.47558898925786L297.72155,228.49801428318028L297.83343333333335,263.7075677633286L297.8707277777778,272.1696335792542L298.6166166666667,246.36426301002507L298.7285,282.53494400978093L298.9709138888889,308.0533155918122L299.06415,290.61945290565495L300.2575722222222,281.28960390090947L300.61186944444444,284.2246247053147L300.77969444444443,237.08389503955846L301.61881944444445,289.36355144977574L302.0477055555555,266.04634435176854L302.085,238.57003386020665L302.10364722222226,263.22345359325413L303.20383333333336,260.02597208023076L306.1687416666667,257.06866009235387L307.15704444444447,252.4824288606644L307.52998888888885,275.8581053733826L308.10805277777774,233.68736584186559L308.2758777777778,244.14709920883183L308.59288055555555,270.55932028293614L308.9098833333333,249.7414222478867L309.4879472222222,236.33920772075658L310.43895555555554,213.74143059253697L310.86784166666666,200.03042025566106L311.12890277777774,204.95452470779423L312.5087972222222,292.1552974700928L314.63458055555554,269.9144039869309L316.42471388888885,287.8523350477219L316.51795,253.6573899507523L317.18925,275.3618119478226L317.7673138888889,274.3348894834519L319.57609444444444,243.95730955600743L320.06092222222225,259.2384551286698L320.13551111111116,232.60390646457677L320.4338666666667,272.0866258859635L321.21705,224.76491518020634L322.41047222222227,263.9685903310776L322.4664138888889,231.40076680183415L322.7647694444444,246.81799645423894L324.5549027777778,236.54913134574895L325.5432055555556,306.45190079212193L327.31469166666665,304.24848921298985L329.51506388888885,268.99048836231236L330.0371861111111,277.23319275379185L331.1373722222222,262.30920047760014L332.0137916666667,285.46353812217717L333.35639166666664,284.6221358299256L333.71068888888885,243.86774034500127L334.5125194444445,242.75336093902592L334.88546388888886,259.34298999309544L335.9670027777778,220.17198760509496L336.28400555555555,243.3661437749863L336.7874805555556,274.04748601913457L337.17907222222226,299.95694203376775L337.4028388888889,235.89046282768254L337.68254722222224,246.99268562793736L337.7571361111111,234.87203438282017L338.0741388888889,242.3367045640946L338.7454388888889,297.9211188077927L339.49132777777777,249.69261534214024L340.1066861111111,290.52754671573643L342.15788055555555,268.0108897209168L343.14618333333334,258.3237525939942L343.22077222222225,258.7300273895264L343.59371666666664,262.5935029506684L344.5074305555556,276.67604799270634L345.0482,278.4942175865174L345.83138333333335,253.86947078704839L346.7823916666667,239.57628304958348L347.2112777777778,216.96268637180333L348.3114638888889,280.07015032768254L348.36740555555554,213.40387196540837L349.579475,255.73581809997563L350.12024444444444,206.43787713050847L350.75425,252.73945159912114L351.4069027777778,240.74050302505498L351.8357888888889,235.6910106658936L352.1341444444444,214.56148548126225L353.49539166666665,286.74528117179875L353.84968888888886,334.5454883098603L354.25992777777776,321.4944947481156L355.789,299.50577027797704L358.4182583333333,270.6510916471482L359.648975,285.8552067995072L359.77950555555555,280.409911108017L359.94733055555554,258.7944291353226L360.26433333333335,215.24635512828831L360.4881,234.3156536340714L360.59998333333334,272.464722108841L361.70016944444444,238.7897997617722L362.63253055555555,298.52495820522313L363.50894999999997,242.3318957805634L364.18025,310.9521132230759L364.62778333333335,290.5247603178025L364.683725,269.42503161430363L366.08226666666667,254.45079429149632L366.19415000000004,239.364651632309L366.75356666666664,333.52463300228123L366.9213916666667,294.96969420909886L366.99598055555555,286.931385588646L367.10786388888886,339.61862010955815L368.8234083333333,244.6129220247269L368.84205555555553,301.01505417823796L368.9912333333333,246.2451220273972L369.0658222222222,294.8159479618073L369.38282499999997,243.41162497997288L370.57624722222226,309.4379306554795L370.9305444444445,236.38365526199345L371.56455,293.83333821296696L373.44791944444444,224.12098760604863L374.62269444444445,293.2153870582581L375.4804666666667,268.0799654245377L376.30094444444444,262.96499271392827L376.6552416666667,265.0197814226151L377.9046055555556,238.49983460903172L378.98614444444445,266.4030032873154L379.4150305555555,228.0814028501511L380.9254555555556,299.00354452133183L381.76458055555554,265.00531013011937L381.801875,326.1451726675034L382.3985861111111,296.7022045373917L382.97664999999995,279.42482955455785L384.0768361111111,259.20456893444066L386.7433888888889,266.0855786323548L387.19092222222224,258.94309694767L387.35874722222223,292.9849699258805L387.47063055555554,259.78022975921635L388.3284027777778,253.4502527236939L388.3843444444444,263.6268521070481L388.73864166666664,271.03255851268773L391.200075,270.76119930744176L391.4611361111111,276.1656428098679L393.36315277777777,267.8391217708588L393.75474444444444,318.89959425926213L395.09734444444445,291.1314759969712L396.234825,268.15528805255894L397.577425,207.12512869834904L397.98766388888885,252.7429121255875L398.30466666666666,270.2326825380326L399.16243888888886,283.58343858718877L399.79644444444443,255.70665080547337L401.00851388888884,309.9545378208161L402.0154638888889,288.0020814657212L402.50029166666667,260.7913776159287L402.5935277777778,299.79294903278355L403.9174805555555,293.99494929313664L404.58878055555556,258.9070535421372L405.50249444444444,285.3202183961869L406.6586222222222,257.02151603698735L406.67726944444445,260.17832512855534L407.311275,346.4342842817307L407.5723361111111,301.7022608041764L408.35551944444444,311.4782031297684L411.4696055555556,307.7873494148255L412.04766944444447,313.7150964260102L412.681675,284.92252750396733L413.81915555555554,253.11228961944585L414.0056277777778,243.215543460846L414.69557499999996,260.5140860795975L414.8447527777778,263.0841786384583L415.3109333333333,280.66374297142033L415.64658333333335,248.7139155387879L415.68387777777775,266.64335258007054L416.1127638888889,294.4963211536408L416.1314111111111,297.75218219757085L416.15005833333333,251.88766772747044L416.206,274.0119369745255L416.56029722222223,221.5020881414414L417.21295,243.35549254417424L417.79101388888887,279.12048299312596L418.18260555555554,266.79566068649297L418.5182555555556,259.60554058551793L418.7047277777778,269.93993098735814L420.36433055555557,220.3336436271668L420.62539166666664,239.25076885223393L420.9983361111111,327.00922567844395L421.1661611111111,298.62598760128026L421.2966916666667,300.5144912719727L421.3153388888889,327.7577330589295L421.85610833333334,291.65095944404607L422.0425805555556,288.06558437347417L422.41552499999995,323.1408514499665L423.7021833333333,287.0123259544373L424.61589722222226,307.8637506484986L425.23125555555555,279.61951787471776L425.93985000000004,247.3750962734223L428.00969166666664,302.8336731910706L428.4758722222222,258.05576403141026L428.53181388888885,254.7709154605866L428.69963888888884,258.4157936096192L429.2217611111111,247.76303477287297L429.8744138888889,247.2022946596146L430.09818055555553,264.67736907005315L430.82542222222224,247.68389208316808L431.29160277777777,252.85009856224065L431.6086055555556,255.55730886459355L432.8766166666667,244.79457719326024L433.2868555555556,282.739474606514L433.8089777777778,215.19939084053044L434.81592777777774,341.6290511608124L437.29600833333336,243.03869707584386L437.3146555555556,287.94033129215245L439.08614166666666,282.19518322944646L439.9252666666667,315.54953498840337L442.1815805555555,271.0921964168549L442.3121111111111,263.3087982654572L444.64301388888885,258.9859715223313L445.5380805555555,232.5580657243729L446.75014999999996,222.35063619613652L447.1044472222222,219.22272474765782L447.1976833333334,267.164678645134L447.6265694444445,206.20417923927312L448.03680833333334,223.49678952693944L448.4284,262.9169048786164L449.6964111111111,307.5321243524552L450.68471388888884,296.9984615564347L451.76625277777777,285.849004817009L452.58673055555556,291.6849804639817L452.6613194444444,255.35632867813115L453.12750000000005,273.54710288047795L456.5772361111111,236.97149534225468L456.8569444444444,298.7041415691376L456.91288611111105,306.1027471542359L457.32312500000006,276.6575768709183L457.43500833333337,291.27699787616734L458.330075,259.9235045433045L458.6097833333333,302.53809030056004L459.4675555555556,264.79920656681065L459.7286166666666,236.77190835475926L459.9337361111111,257.4807323932648L460.1015611111111,277.69843132495885L460.95933333333335,263.64712090492253L461.1644527777778,295.9197660207749L461.27633611111116,277.67434246540074L462.3765222222222,322.44178016185765L462.87999722222224,284.9925469875336L463.30888333333337,300.4515726089478L464.6141888888889,263.3296063661576L465.02442777777776,275.70746011734013L465.6397861111111,254.59348483085637L465.9567888888889,254.93194229602818L466.0873194444444,245.97061688899998L466.83320833333335,267.51306827068333L467.07562222222225,304.03506011962895L467.16885833333333,297.72067792415623L467.28074166666664,235.16950483322148L467.33668333333327,255.56378049850468L468.75387222222224,198.34909875392918L468.77251944444447,268.3964912414551L468.8098138888889,277.545449090004L469.59299722222227,292.81486482620244L469.6489388888889,272.94906098842625L470.2270027777778,278.1412438869477L470.7304777777778,292.24958558082585L470.78641944444445,270.94253988265996L470.87965555555553,255.2615012645722L471.9239,256.4994709014893L472.2036083333333,261.8145699024201L472.3714333333333,276.99828143119817L472.4087277777778,278.295754146576L473.3224416666667,253.30621392726903L474.38533333333334,287.7943599939347L475.22445833333336,255.06510515213017L475.9889944444444,285.8880593299866L476.2314083333333,288.8780440807343L476.2500555555556,354.09737296104436L476.66029444444445,297.89855797290807L476.7535305555555,300.770839881897L476.95865000000003,295.0256019353867L479.02849166666664,291.2883232355118L479.42008333333337,296.5213133811951L480.68809444444446,269.0121503591538L480.70674166666663,258.0126647472382L480.7626833333333,277.5984355926514L480.78133055555554,285.16013534069066L481.6763972222222,269.84433956146245L482.1239305555556,312.79311330318455L482.73928888888884,310.9331926822663L483.2054694444445,286.4548216581345L484.58536388888893,278.33040435314183L485.33125277777776,250.46094210147862L485.4804305555556,248.8543589830399L486.0771416666667,272.45038564205174L486.3195555555556,292.2695397853852L487.5129777777778,288.30836052894597L488.7250472222222,305.48147029876714L489.1539333333333,331.53078551292424L490.7203,316.2551228523255L490.77624166666664,312.66453452110295L490.86947777777783,325.2025162696839L492.1188416666667,321.95555372238164L492.4544916666666,289.8573730707169L493.85303333333337,278.9787362337113L494.58027500000003,306.1433746337891L494.5989222222222,288.1100768566132L497.52653611111117,203.43710632324223L498.3097194444444,232.76106829643254L498.3283666666667,283.4487926483155L499.54043611111115,292.1062209129334L499.65231944444446,245.78460235595708L500.0252638888889,260.07770020961766L500.1371472222222,260.2475805997849L500.5287388888889,259.035137963295L500.64062222222225,294.7530292987824L501.7594555555556,289.5570712804795L502.8596416666666,333.38185257911687L503.4563527777778,317.2762478113175L503.5868833333333,295.1389004707337L507.5773888888889,294.0276669979096L508.0435694444445,296.01917750835423L508.2859833333333,322.7481041669846L508.7894583333333,285.85628540515904L508.91998888888884,271.2010007619858L509.12510833333334,271.4674612998963L509.2183444444444,276.74696631431584L509.36752222222225,258.49758787155156L509.62858333333327,270.4542011737824L510.1507055555556,293.1808716773987L511.43736388888885,252.07610912323003L511.49330555555554,227.0710190057755L512.2764888888888,263.740689945221L512.9291416666666,295.59537537097935L513.6190888888889,284.3731576919556L515.3159861111111,291.28486270904546L515.6143416666667,257.01374108791356L517.6095944444444,320.8902958154679L517.740125,330.04945547580724L517.9638916666667,318.9497494220734L518.9149,305.7579528808594L519.1200194444444,291.2468868017197L519.1386666666667,344.60959811210637L520.8169166666667,303.0996393680573L520.8728583333334,301.62545509338383L523.614,263.0680894374848L523.688588888889,231.7376962423325L523.7072361111111,275.4597852945328L524.0242388888888,233.91854698657994L524.3039472222222,292.6713653326035L524.4904194444445,267.8545817852021L524.6955388888889,273.9179634571076L524.788775,273.31106801033025L524.8820111111112,285.056993675232L524.9566000000001,261.3225010156632L525.0684833333333,276.27089674472813L525.5160166666666,275.90992338657384L525.7024888888889,269.0734511137009L526.1873166666667,283.02642865180974L527.0264416666666,302.97079093456273L527.4553277777778,280.75726706981663L528.4063361111112,262.92598314285283L528.8538694444445,257.74197967052464L529.2081666666667,237.89981527328496L529.4692277777777,248.35963852405553L530.0845861111111,347.3201790571213L532.1917222222222,314.5981149196625L533.1054361111112,264.1627393484116L534.615861111111,279.13580818176274L534.8209805555556,293.11507673263554L535.193925,292.32427902221684L536.3127583333334,282.30731327533726L536.5551722222223,289.96730096340184L537.2451194444444,242.01393182277684L537.6180638888889,264.8083747148514L537.8231833333333,284.6187202453614L539.4268444444444,273.4184791564942L539.6133166666667,319.01558930873875L542.242575,260.9143836021424L542.9325222222222,241.4444729804993L542.9698166666667,264.98535592556004L543.5105861111111,236.7598639249802L544.2378277777779,291.12455494403844L545.1328944444444,284.11824722290044L546.0279611111112,308.6541888237L546.0652555555555,325.3496111154557L546.2144333333333,301.7385738611222L546.7738499999999,313.0513494729996L547.2027361111111,270.77158088684087L547.4637972222222,290.5445796966553L548.5266888888889,294.973649096489L550.3168222222222,307.29977471828465L551.1559472222222,295.32464535236363L551.2305361111111,252.59932274818425L552.3493694444444,300.81429870128636L553.2071416666666,290.46687514781956L553.7665583333334,235.5911048173905L554.1767972222223,266.7890092849732L554.325975,264.2173437595368L556.6009361111111,318.9147846221924L557.1603527777778,261.83070404529576L557.5705916666667,341.70612652301793L558.18595,285.6671249389649L558.7267194444445,286.0941179513932L559.5658444444445,279.1233143329621L560.2930861111112,298.44923110008244L561.8967472222222,308.064461183548L563.2579944444444,267.63238902091985L563.724175,249.43428928852086L563.9665888888889,261.8552423238755L564.134413888889,276.01167185306554L565.6075444444444,252.82466144561772L566.7077305555556,270.790366601944L568.8335138888889,275.45780785083775L569.1132222222221,255.93360741138463L570.0828777777778,257.9732956409455L570.5863527777777,274.8218349933625L571.7424805555556,333.6494816064835L572.2086611111112,327.4038605213166L573.8682638888889,284.4096055746079L574.5582111111112,287.3456600427628L575.2108638888889,243.3831767559052L575.8262222222222,324.9021695375443L576.5907583333334,223.98930783271794L578.6046583333333,257.5312021493912L578.9030138888888,242.34344584941869L579.2946055555556,261.0961735963822L579.4624305555556,274.01634128093724L579.7607861111111,291.17947394847874L580.9355611111112,320.5850054740906L580.9542083333333,275.52620942592625L581.2152694444444,246.00158185958867L583.2664638888889,272.9704533338547L583.5088777777778,287.976015162468L583.7139972222222,288.7140510797501L585.5787194444445,306.1634636640549L586.8280833333333,303.6235720634461L587.6112666666667,268.6750411510468L590.5575277777778,292.6378836154938L592.1238944444444,261.0695230484009L592.1611888888889,281.79106564521794L592.9070777777778,279.1813343286515L592.925725,324.7961965322495L592.9443722222222,255.49448008537297L593.2427277777778,277.8111905574799L593.4851416666667,279.76706213951115L593.5224361111111,280.6145315885544L595.368511111111,292.1199281930924L598.1655944444444,245.41625852584843L599.3590166666667,293.47501642704015L599.4709,320.9852580547333L599.5827833333334,308.8517534255982L599.6573722222223,297.79334897995L599.6760194444444,257.8692101955414L601.0745611111112,329.0082414865494L601.8204499999999,296.32635540962224L602.8460472222222,313.3158775091172L604.8785944444444,257.35655791759496L605.0837138888888,248.55405719280247L605.2328916666667,238.4555668354035L606.1279583333334,287.4891145944596L606.5754916666666,271.31766993999486L607.3213805555556,258.5718768358231L607.3773222222222,239.4294129133225L607.9553861111111,261.2893788337708L608.1418583333333,283.71430940628056L608.2723888888889,231.1879668951035L608.6080388888889,265.73273975849156L609.6709305555555,271.4873256206513L610.043875,266.7460897684098L610.0998166666667,278.0756736516953L610.4914083333333,259.8172618865967L612.0950694444444,336.3300863027573L613.7919666666667,276.7233718156815L613.8292611111111,254.2444660186768L614.4259722222222,261.54307587146764L614.7616222222222,297.45403761863713L620.0387861111111,289.4868270874024L620.5236138888889,289.6791334867478L621.3440916666667,268.6731985330582L622.3696888888888,278.8915938854218L623.5258166666666,274.88628168106084L623.7682305555555,254.02640790939336L625.4837749999999,267.4972487211228L626.0245444444444,346.93062264919286L626.7517861111111,324.60712594985966L627.9638555555556,297.0737841844559L631.9730083333333,269.424851846695L633.446138888889,245.1233721494675L633.9309666666667,268.9307156324387L634.3412055555556,311.162800860405L634.6955027777778,306.55832321643834L635.0684472222222,257.78957314491277L635.1616833333334,274.7450742244721L635.4600388888889,224.94346935749059L635.6838055555555,244.22053427696233L635.982161111111,288.75535268783574L636.4856361111111,239.07023723125462L637.7536472222223,237.09818656444554L638.6673611111111,233.27376551628117L638.909775,258.2377787351609L639.0589527777778,254.7565340518952L640.8304388888889,289.9030789852143L642.1730388888889,308.55796821117406L642.7883972222222,275.55043311119084L642.9189277777778,349.01732010841374L643.0867527777779,249.67248136997227L644.0191138888889,291.7563482046128L644.0750555555555,271.7543254613877L644.4666472222223,241.275131893158L644.6904138888889,278.8734373569489L645.0447111111112,253.85603315830235L645.3990083333333,265.452257347107L647.9350305555556,282.34160394668584L649.4454555555556,238.17620797157292L649.4641027777777,263.05784268379216L650.0981083333334,249.3516860723496L650.4524055555556,262.579975438118L651.3101777777778,273.3529988050461L652.6527777777778,296.732495379448L652.7460138888889,252.99584515094762L653.2308416666666,327.09007616043095L654.0886138888889,344.2654779672623L654.3683222222222,314.84358758926396L655.2074472222222,283.87672944068913L655.8973944444444,304.5895083665848L656.699225,343.71911926269536L657.0721694444444,298.0636745214463L657.1840527777778,301.2251126289368L657.4264666666667,294.753478717804L657.9485888888888,289.72978301048283L658.7504194444444,288.8965152025223L659.4963083333333,275.83603889942174L660.7456722222222,275.4282810211182L661.2118527777777,265.4204834222794L661.3423833333334,289.049452495575L661.4169722222223,237.93922932147984L663.2630472222222,241.05752320289616L663.318988888889,282.8104378700257L664.0648777777777,274.29574508666997L664.6615888888889,251.88609476089482L665.8177166666667,274.0838889598847L666.0787777777778,322.7072070360184L666.3957805555555,237.1598917961121L666.4144277777777,222.91474695205693L667.1976111111111,323.0467431068421L669.0436861111111,284.79219598770146L669.5471611111111,293.2129601955414L672.2696555555556,255.5737126588822L673.2579583333334,265.4950420379639L675.2718583333333,264.105213713646L675.4769777777777,292.44620640277867L677.7705861111111,274.1263590574265L678.8707722222222,251.14378936290746L679.5607194444444,278.54985566139226L679.952311111111,255.3854959726334L680.6422583333334,334.2995662212372L681.3135583333333,311.8844329833985L681.3322055555556,330.8220517158509L681.7983861111111,315.84669084548955L682.9545138888889,318.2815981626511L683.0663972222222,282.8704802513123L683.3461055555556,250.67203421592717L684.2784666666666,282.03487546443944L684.7632944444445,320.7670651197434L685.0802972222223,275.96803326606755L685.5091833333333,331.14958829879765L686.3669555555556,323.9825683355332L687.579025,285.06867856979375L687.7095555555555,271.8816458702088L687.8587333333334,289.6983236789704L688.7538,246.99610121250157L688.921625,285.589375448227L690.0218111111111,245.80334312915807L690.264225,254.85122663974767L692.9680722222222,253.66224367618565L693.1918388888889,241.92813773155217L693.8071972222223,282.35621006488805L693.8444916666666,321.9113758325577L694.5903805555556,295.9899652719498L695.80245,277.64827616214757L697.1823444444445,299.52756710052495L698.0587638888888,259.78333075046544L698.7300638888889,253.586246919632L699.2708333333334,282.7862141847611L699.8116027777778,282.3330649852753L700.0540166666667,303.6637501239777L700.1099583333333,304.0324984312058L701.340675,255.92192251682286L701.3966166666667,257.8056623458863L702.1984472222223,243.64208705425267L702.9256888888889,274.643775177002L703.1121611111112,238.03891046047215L703.1681027777778,301.99478764534L704.1564055555556,264.65588684082036L706.2635416666667,236.23467285633092L706.6178388888889,260.15891022682194L706.7483694444445,308.4932968139649L706.7670166666667,284.5651494979859L706.8975472222222,279.5959233760834L708.1096166666666,347.5644832372666L708.6317388888889,336.6226580858231L708.8555055555556,340.75956017971043L709.0979194444445,355.7447183847428L709.22845,323.28372175693517L710.738875,323.0477318286896L711.3542333333334,340.0393661975861L711.4288222222223,299.6236528873444L711.9322972222222,307.9996100187302L711.9695916666667,310.9515289783478L713.2189555555556,295.0152203559876L713.6478416666667,273.8732912063599L714.9531472222222,277.93936486244206L715.1396194444445,272.00033743381505L715.4566222222222,272.6274567365647L715.5871527777778,265.7883328914643L715.6430944444444,276.3982620954514L715.9041555555556,306.73054058551793L716.109275,281.9631032466889L718.6452972222222,213.02236015796666L719.3352444444445,231.7310897827149L720.3608416666667,268.05115766525273L720.4913722222221,267.4141960859299L721.7034416666667,346.4932929992676L722.1696222222222,280.88903672695164L722.3374472222223,324.5945422172547L722.5612138888889,291.554424238205L722.9155111111111,331.4715520858765L723.2325138888889,298.1529291391373L723.5122222222222,331.1105787277222L724.2394638888888,281.61098344326024L724.4632305555556,265.7300432443619L724.9294111111111,290.33888061046605L725.4888277777778,259.5819460868836L725.6193583333334,300.50496358871465L726.7008972222222,253.95113022327428L726.9060166666667,289.459861946106L727.5586694444444,288.8211925745011L727.9129666666668,278.0261926174164L728.0434972222222,283.1159978628159L728.9012694444444,315.0174678087235L729.870925,270.9738643884659L729.9268666666667,303.8475175619126L730.5795194444445,295.19354982376103L731.8475305555555,278.22020680904393L732.3137111111112,253.16604013442998L732.9477166666666,275.25112004280095L733.0036583333334,263.21657748222356L733.9733138888888,263.06894333362584L733.9919611111111,216.7987383127213L734.1411388888889,261.87537629604344L734.3835527777778,269.83625001907353L735.40915,310.28800673484807L735.912625,286.84496231079106L737.0314583333333,297.7653951168061L737.0501055555555,310.6331605434418L737.5349333333334,253.42288310527806L737.7587,268.4906445264817L738.0384083333333,291.67280120849614L738.4113527777778,295.4974469661713L738.5791777777778,302.13221998214726L738.7470027777778,311.5442227840424L739.3064194444444,240.94849414825444L740.2201333333334,279.1773344993592L741.2457305555556,301.72868664264684L741.8424416666667,292.04208881855016L742.2526805555556,240.71097619533543L743.6139277777777,281.0351428508759L745.0684111111111,264.37792117595677L746.4483055555555,257.850064945221L747.3620194444445,237.20119340419774L748.0333194444445,262.6293665885926L749.1894472222222,318.7012656450272L750.1404555555555,308.8774152517319L750.6252833333333,337.3103590726853L750.6812249999999,309.2208163261414L752.0984138888889,293.50562186241154L752.4900055555555,282.4840248346329L752.6391833333333,281.08988208770757L752.8815972222222,315.7100674629212L752.9188916666667,267.8592557430268L753.030775,316.30995197296147L754.2241972222222,252.54669578075413L754.8582027777778,227.1345219135285L754.8954972222222,319.7583890676499L754.9141444444444,293.385447216034L756.5178055555556,287.0772220611573L756.5737472222222,265.2815230607987L757.0772222222223,278.29966409206395L760.2658972222222,282.21280045509343L760.3964277777777,264.3542817354203L761.086375,300.5814097642899L761.6271444444445,244.44281692504887L761.7203805555555,285.19784159660344L762.5035638888888,338.7415788888932L763.6596916666667,364.7207847356797L763.9766944444444,315.7359989404679L763.9953416666666,311.4458000183106L765.2260583333334,290.0067150115967L765.3752361111111,308.91390807628636L765.5990027777777,278.85842676162724L766.28895,298.1158071279526L766.3075972222223,321.8780738830567L766.3635388888889,300.4028106451035L767.5942555555555,307.46412725448613L768.5639111111111,263.4872625589371L768.8436194444445,313.0010145425797L769.1233277777778,260.75066025257115L769.4216833333334,262.1747343063355L769.6640972222223,271.94860930442815L770.3167500000001,271.5929390907288L770.6710472222222,314.97333486080174L770.8015777777778,267.8815918684006L775.1463805555555,294.76255698204045L775.4633833333334,258.7593744516373" style="fill: none;" fill="none"></path></g></g></g></g></g></g><g transform="translate(48, 377)" clip-path="url(#clip_1)"><clipPath id="clip_1"><rect width="839" height="23"></rect></clipPath><g><g><line x1="0" y1="0" x2="0" y2="5" style="visibility: inherit;" fill="rgb(0, 0, 0)" stroke="rgb(204, 204, 204)" stroke-width="1px"></line><line x1="93.2361111111111" y1="0" x2="93.2361111111111" y2="5" style="visibility: inherit;" fill="rgb(0, 0, 0)" stroke="rgb(204, 204, 204)" stroke-width="1px"></line><line x1="186.4722222222222" y1="0" x2="186.4722222222222" y2="5" style="visibility: inherit;" fill="rgb(0, 0, 0)" stroke="rgb(204, 204, 204)" stroke-width="1px"></line><line x1="279.7083333333333" y1="0" x2="279.7083333333333" y2="5" style="visibility: inherit;" fill="rgb(0, 0, 0)" stroke="rgb(204, 204, 204)" stroke-width="1px"></line><line x1="372.9444444444444" y1="0" x2="372.9444444444444" y2="5" style="visibility: inherit;" fill="rgb(0, 0, 0)" stroke="rgb(204, 204, 204)" stroke-width="1px"></line><line x1="466.1805555555556" y1="0" x2="466.1805555555556" y2="5" style="visibility: inherit;" fill="rgb(0, 0, 0)" stroke="rgb(204, 204, 204)" stroke-width="1px"></line><line x1="559.4166666666666" y1="0" x2="559.4166666666666" y2="5" style="visibility: inherit;" fill="rgb(0, 0, 0)" stroke="rgb(204, 204, 204)" stroke-width="1px"></line><line x1="652.6527777777778" y1="0" x2="652.6527777777778" y2="5" style="visibility: inherit;" fill="rgb(0, 0, 0)" stroke="rgb(204, 204, 204)" stroke-width="1px"></line><line x1="745.8888888888888" y1="0" x2="745.8888888888888" y2="5" style="visibility: inherit;" fill="rgb(0, 0, 0)" stroke="rgb(204, 204, 204)" stroke-width="1px"></line><line x1="839.125" y1="0" x2="839.125" y2="5" style="visibility: inherit;" fill="rgb(0, 0, 0)" stroke="rgb(204, 204, 204)" stroke-width="1px"></line></g><g transform="translate(0, 8)"><text x="0" y="0" dx="0em" dy="0.95em" style="text-anchor: middle; visibility: hidden; font-family: &quot;Helvetica Neue&quot;, sans-serif; font-size: 12px; font-weight: 200;" fill="rgb(50, 49, 63)" stroke="none" stroke-width="1px">-5k</text><text x="93.2361111111111" y="0" dx="0em" dy="0.95em" style="text-anchor: middle; visibility: inherit; font-family: &quot;Helvetica Neue&quot;, sans-serif; font-size: 12px; font-weight: 200;" fill="rgb(50, 49, 63)" stroke="none" stroke-width="1px">0</text><text x="186.4722222222222" y="0" dx="0em" dy="0.95em" style="text-anchor: middle; visibility: inherit; font-family: &quot;Helvetica Neue&quot;, sans-serif; font-size: 12px; font-weight: 200;" fill="rgb(50, 49, 63)" stroke="none" stroke-width="1px">5k</text><text x="279.7083333333333" y="0" dx="0em" dy="0.95em" style="text-anchor: middle; visibility: inherit; font-family: &quot;Helvetica Neue&quot;, sans-serif; font-size: 12px; font-weight: 200;" fill="rgb(50, 49, 63)" stroke="none" stroke-width="1px">10k</text><text x="372.9444444444444" y="0" dx="0em" dy="0.95em" style="text-anchor: middle; visibility: inherit; font-family: &quot;Helvetica Neue&quot;, sans-serif; font-size: 12px; font-weight: 200;" fill="rgb(50, 49, 63)" stroke="none" stroke-width="1px">15k</text><text x="466.1805555555556" y="0" dx="0em" dy="0.95em" style="text-anchor: middle; visibility: inherit; font-family: &quot;Helvetica Neue&quot;, sans-serif; font-size: 12px; font-weight: 200;" fill="rgb(50, 49, 63)" stroke="none" stroke-width="1px">20k</text><text x="559.4166666666666" y="0" dx="0em" dy="0.95em" style="text-anchor: middle; visibility: inherit; font-family: &quot;Helvetica Neue&quot;, sans-serif; font-size: 12px; font-weight: 200;" fill="rgb(50, 49, 63)" stroke="none" stroke-width="1px">25k</text><text x="652.6527777777778" y="0" dx="0em" dy="0.95em" style="text-anchor: middle; visibility: inherit; font-family: &quot;Helvetica Neue&quot;, sans-serif; font-size: 12px; font-weight: 200;" fill="rgb(50, 49, 63)" stroke="none" stroke-width="1px">30k</text><text x="745.8888888888888" y="0" dx="0em" dy="0.95em" style="text-anchor: middle; visibility: inherit; font-family: &quot;Helvetica Neue&quot;, sans-serif; font-size: 12px; font-weight: 200;" fill="rgb(50, 49, 63)" stroke="none" stroke-width="1px">35k</text><text x="839.125" y="0" dx="0em" dy="0.95em" style="text-anchor: middle; visibility: hidden; font-family: &quot;Helvetica Neue&quot;, sans-serif; font-size: 12px; font-weight: 200;" fill="rgb(50, 49, 63)" stroke="none" stroke-width="1px">40k</text></g><line x1="0" y1="0" x2="839.125" y2="0" fill="rgb(0, 0, 0)" stroke="rgb(204, 204, 204)" stroke-width="1px"></line></g></g></g></g></svg>